<svg width="188" height="188" viewBox="0 0 188 188" fill="none" xmlns="http://www.w3.org/2000/svg">
<g clip-path="url(#clip0_20_1998)">
<path d="M131.178 109.641C130.906 109.875 131.221 109.641 131.178 109.641V109.641Z" fill="white"/>
<path d="M137.564 164.22C136.251 163.902 134.925 163.644 133.595 163.411C133.431 158.641 133.267 153.87 133.102 149.1C133.085 148.614 133.069 148.128 133.052 147.642H133.441C133.621 147.638 133.793 147.564 133.921 147.437C134.049 147.309 134.122 147.137 134.126 146.957L133.883 133.095L133.847 131.079C133.845 130.898 133.772 130.725 133.644 130.597C133.516 130.469 133.343 130.396 133.162 130.394L131.162 130.412L130.625 112.218C130.603 111.465 130.581 110.712 130.558 109.958L131.111 109.673C131.133 109.66 131.156 109.65 131.181 109.645L131.21 109.621C131.325 109.538 131.429 109.44 131.519 109.331C131.676 109.086 131.743 108.794 131.708 108.505C131.691 107.236 131.615 105.965 131.569 104.696L131.2 94.7706C131.227 94.5524 131.21 94.331 131.151 94.1194C131.091 93.9078 130.989 93.7103 130.852 93.5386C130.745 93.4286 130.632 93.3236 130.516 93.2196H131.309C131.49 93.2173 131.663 93.145 131.792 93.0179C131.921 92.8907 131.995 92.7186 132 92.5376C131.984 89.3223 131.968 86.1073 131.952 82.8926L132.287 82.8986C132.467 82.8948 132.639 82.8214 132.767 82.6937C132.895 82.5661 132.968 82.3941 132.972 82.2136C132.958 78.9989 132.944 75.7836 132.929 72.5676C132.906 67.4083 132.883 62.2489 132.861 57.0896C132.856 55.9056 132.85 54.7219 132.845 53.5386C132.841 53.3581 132.768 53.1861 132.64 53.0585C132.512 52.9308 132.34 52.8574 132.16 52.8536L129.06 52.7596C129.56 52.6596 130.06 52.5526 130.552 52.4376C131.924 52.2042 133.239 51.7088 134.424 50.9786C134.902 50.6358 135.34 50.2403 135.729 49.7996C135.96 49.558 136.11 49.2505 136.159 48.9196C136.813 47.7 137.082 46.3113 136.933 44.9356C136.73 43.4994 136.272 42.111 135.581 40.8356C135.075 39.8566 134.849 38.7356 134.313 37.7356C133.751 36.7382 132.825 35.9966 131.729 35.6656C130.465 35.2306 129.173 34.8799 127.863 34.6156C126.423 34.268 125.002 33.8461 123.605 33.3516C120.762 32.3696 117.979 31.2126 115.24 29.9726C114.728 29.8001 114.247 29.5458 113.816 29.2196C113.387 28.7601 112.931 28.3261 112.451 27.9196C112.017 27.5419 111.506 27.2647 110.952 27.1079C110.399 26.9511 109.818 26.9185 109.251 27.0126C108.263 25.9356 106.858 24.8326 105.351 24.9126C104.944 24.4298 104.484 23.9938 103.98 23.6126C103.543 23.2882 103.061 23.031 102.548 22.8496C102.035 22.6736 101.722 22.7896 101.459 22.4856C100.924 21.8422 100.281 21.2973 99.5589 20.8756C99.0059 20.5666 98.3819 20.4966 97.8249 20.2236C97.27 19.8954 96.7546 19.5045 96.2889 19.0586C95.3709 18.3106 94.1489 18.0586 93.2669 17.2856C92.9329 16.9946 92.6739 16.6316 92.3029 16.3616C91.7674 16.0536 91.2067 15.7917 90.6269 15.5786C89.4659 14.9886 88.3819 14.1396 87.2769 13.4466C86.3792 12.7428 85.3315 12.2552 84.2149 12.0216C81.3999 11.7256 80.2639 14.3996 79.2999 16.5996C78.2799 16.2936 76.8629 17.2836 76.2699 18.1596C76.2425 18.2004 76.2193 18.244 76.2009 18.2896C76.0216 18.6437 75.9248 19.0338 75.9179 19.4306C74.7923 20.045 73.62 20.5696 72.4119 20.9996C70.8586 21.6322 69.1764 21.8839 67.5059 21.7336C64.2499 21.1906 64.3059 16.6206 61.4349 15.4536C58.6289 14.3106 56.6579 17.2996 55.7489 19.4996C54.7097 22.127 54.0859 24.9002 53.8999 27.7196C53.7389 29.7346 53.7579 31.7686 53.6739 33.7876C53.6139 35.2463 53.5982 36.7069 53.6269 38.1696C53.5136 38.2299 53.4179 38.3185 53.349 38.4268C53.2801 38.5351 53.2405 38.6594 53.2339 38.7876C53.0964 40.9024 53.0704 43.023 53.1559 45.1406C53.0851 46.4999 53.4121 47.8503 54.0969 49.0266C54.4196 49.4975 54.8029 49.9238 55.2369 50.2946H49.6439C49.4634 50.2984 49.2914 50.3718 49.1638 50.4995C49.0361 50.6271 48.9627 50.7991 48.9589 50.9796V90.5936C48.9632 90.7275 49.0044 90.8576 49.0779 90.9696C49.0003 91.1537 48.9608 91.3517 48.9619 91.5516C48.9519 92.3596 48.9849 93.1716 48.9969 93.9796C49.0469 97.5036 49.0966 101.027 49.1459 104.55L49.4909 128.914C49.5039 129.885 49.4969 130.859 49.5319 131.83C49.5016 132.073 49.5508 132.32 49.6721 132.533C49.7933 132.746 49.9802 132.914 50.2049 133.013C50.6476 133.109 51.1036 133.128 51.5529 133.071L52.1999 133.064C52.2932 136.422 52.3856 139.781 52.4769 143.139L52.9479 160.3L53.0409 163.672C50.6763 164.036 48.3669 164.697 46.1669 165.638C45.1759 166.105 43.8389 166.927 44.0159 168.21C44.2549 169.937 46.8089 170.682 48.1719 171.121C51.558 172.115 55.025 172.81 58.5329 173.197C63.6379 173.889 68.7779 174.317 73.9189 174.62C86.6154 175.36 99.3431 175.399 112.044 174.736C117.36 174.461 122.676 174.061 127.959 173.401C131.675 173.01 135.357 172.339 138.972 171.394C140.534 170.951 143.085 170.342 143.88 168.716C145.267 165.878 139.108 164.597 137.564 164.223" fill="white"/>
<path d="M132.93 163.987L132.343 146.964L133.443 146.953L133.165 131.075H132.837L130.5 131.1L129.864 109.544L130.855 109.035L130.871 109.024C130.89 109.012 130.908 108.999 130.925 108.984C130.932 108.976 130.939 108.968 130.946 108.96C130.958 108.946 130.969 108.931 130.98 108.916C130.985 108.906 130.99 108.895 130.995 108.885C131.003 108.869 131.009 108.853 131.015 108.837C131.018 108.825 131.021 108.812 131.023 108.8C131.025 108.789 131.027 108.779 131.029 108.769C131.029 108.762 131.029 108.755 131.029 108.749V108.732L130.5 94.2746C130.498 94.2281 130.487 94.1825 130.466 94.1408C130.446 94.099 130.417 94.0621 130.381 94.0326L128.568 92.5266L131.312 92.5376L131.262 82.1996L132.285 82.2166L132.158 53.5416L131.839 53.5326L120.618 53.1926C123.269 53.0387 125.905 52.6986 128.509 52.1746C129.778 51.9216 130.809 51.6956 131.659 51.4506C132.226 51.2961 132.778 51.0926 133.31 50.8426C133.907 50.5651 134.439 50.1635 134.87 49.6646H134.876C135.528 49.1646 135.476 48.8106 135.476 48.8106H135.452C135.68 48.383 135.877 47.9388 136.039 47.4816C136.226 46.9529 136.318 46.3954 136.311 45.8346C136.267 44.5983 135.987 43.3817 135.486 42.2506C135.255 41.6949 134.988 41.155 134.686 40.6346C134.637 40.4606 134.448 39.7986 134.168 39.0806C134.007 38.6575 133.815 38.2473 133.592 37.8536C133.488 37.6738 133.368 37.5035 133.235 37.3446C133.153 37.2487 133.061 37.1615 132.961 37.0846C132.91 37.0381 132.856 36.9943 132.801 36.9536C132.329 36.6424 131.816 36.3996 131.276 36.2326C130.215 35.879 129.135 35.5884 128.04 35.3626C124.699 34.5235 121.432 33.4118 118.273 32.0386C116.773 31.4126 115.461 30.8276 114.525 30.4006C114.098 30.2056 113.755 30.0456 113.502 29.9266L113.342 29.7266C113.029 29.3413 112.68 28.9864 112.3 28.6666C111.963 28.3802 111.594 28.1342 111.2 27.9336C110.782 27.716 110.32 27.5969 109.849 27.5856C109.78 27.5856 109.71 27.5856 109.639 27.5956H109.619C109.411 27.6297 109.211 27.6972 109.026 27.7956L108.663 27.3706C108.374 27.0477 108.052 26.7555 107.703 26.4986C107.383 26.2591 107.036 26.0577 106.669 25.8986C106.262 25.7181 105.822 25.6218 105.377 25.6156C105.296 25.6156 105.215 25.6156 105.133 25.6266H105.113C105.099 25.6266 105.086 25.6336 105.072 25.6356L104.594 25.0756C104.304 24.753 103.983 24.4608 103.634 24.2036C103.313 23.9645 102.966 23.7631 102.6 23.6036C102.203 23.4287 101.775 23.3333 101.342 23.3226L101.189 23.2226L100.76 22.7226C100.471 22.3997 100.149 22.1075 99.7997 21.8506C99.4793 21.6115 99.1323 21.4101 98.7657 21.2506C98.4372 21.1078 98.0882 21.0177 97.7317 20.9836L96.4817 20.1736C96.2121 19.8858 95.9168 19.6231 95.5997 19.3886C95.2795 19.1491 94.9325 18.9478 94.5657 18.7886C94.4073 18.7221 94.2446 18.6663 94.0787 18.6216L92.7407 17.7586C92.5826 17.5397 92.4012 17.3385 92.1997 17.1586C91.7197 16.7214 91.1289 16.4242 90.4917 16.2996L90.0837 16.0376C88.8347 15.2376 87.7547 14.5506 86.9357 14.0376C86.5257 13.7806 86.1817 13.5666 85.9127 13.4026C85.6437 13.2386 85.4517 13.1256 85.3337 13.0636C84.879 12.8182 84.3714 12.6871 83.8547 12.6816C83.3184 12.6867 82.7928 12.8327 82.3307 13.1049C81.8686 13.3772 81.4861 13.766 81.2217 14.2326C81.0827 14.4896 80.8887 14.8816 80.6717 15.3326C80.2947 16.1156 79.8547 17.0656 79.5507 17.7266C79.5437 17.7106 79.5407 17.6956 79.5327 17.6796C79.467 17.5582 79.3823 17.4481 79.2817 17.3536C79.2231 17.2965 79.1523 17.2534 79.0747 17.2276C79.007 17.205 78.936 17.1938 78.8647 17.1946C78.7586 17.1962 78.6534 17.2141 78.5527 17.2476C78.3728 17.3086 78.2003 17.3898 78.0387 17.4896C77.7875 17.6424 77.5494 17.8157 77.3267 18.0076C77.2267 18.0966 77.1327 18.1826 77.0557 18.2636C76.9821 18.3372 76.9183 18.4199 76.8657 18.5096C76.8357 18.5636 76.8077 18.6096 76.7757 18.6616C76.7133 18.763 76.6677 18.8738 76.6407 18.9896C76.6082 19.1576 76.5944 19.3286 76.5997 19.4996C76.5997 19.5996 76.5997 19.7146 76.6077 19.8436C76.2867 20.0176 75.9897 20.1786 75.7287 20.3176C75.4887 20.4456 75.2777 20.5556 75.1057 20.6416C74.9337 20.7276 74.7957 20.7916 74.7147 20.8236C74.4517 20.9236 74.1037 21.0786 73.6777 21.2506C71.9629 21.9944 70.122 22.404 68.2537 22.4576C68.1197 22.4576 67.9847 22.4576 67.8537 22.4496C67.1854 22.4234 66.5375 22.2126 65.9817 21.8406C65.2101 21.293 64.5677 20.583 64.0997 19.7606C63.8687 19.3836 63.6767 19.0186 63.5157 18.7066C63.3547 18.3946 63.2277 18.1376 63.1077 17.9516C62.8691 17.55 62.5946 17.1708 62.2877 16.8186C61.9092 16.4284 61.4373 16.1414 60.9167 15.9846C60.7135 15.9174 60.5007 15.8837 60.2867 15.8846C59.723 15.9042 59.1772 16.0873 58.7157 16.4116C58.3242 16.668 57.9818 16.9925 57.7047 17.3696C57.3107 17.8491 56.9837 18.38 56.7327 18.9476C55.1828 22.5185 54.4143 26.3795 54.4787 30.2716C54.4787 30.6296 54.4867 30.9946 54.4987 31.3626C54.3337 33.4626 54.2927 35.4106 54.2917 36.8316C54.2917 37.7316 54.3087 38.4116 54.3207 38.7946H54.2287L53.9147 38.7886L53.8997 39.0996C53.8997 39.1046 53.7997 40.5296 53.7997 42.6776C53.7997 43.7506 53.8237 45.0056 53.8997 46.3536C53.9551 47.3458 54.3309 48.2932 54.9707 49.0536C55.6749 49.8678 56.5436 50.5236 57.5197 50.9776H49.6437V90.5936L51.7547 90.9526L49.9697 90.9766C49.9263 90.977 49.8834 90.9861 49.8436 91.0033C49.8038 91.0204 49.7678 91.0454 49.7377 91.0766C49.7072 91.1078 49.6832 91.1447 49.6671 91.1852C49.6509 91.2257 49.643 91.2691 49.6437 91.3126L50.2197 132.07C50.2215 132.157 50.2576 132.24 50.32 132.301C50.3825 132.362 50.4664 132.396 50.5537 132.396L52.8657 132.373L53.7407 164.231C48.0337 165.292 44.6797 166.589 44.6797 167.989C44.6797 171.582 66.7717 174.495 94.0247 174.495C121.278 174.495 143.37 171.582 143.37 167.989C143.37 166.48 139.47 165.089 132.93 163.989" fill="#0D0002"/>
<path d="M73.9362 147.544L67.7362 147.606H67.7172C66.5475 147.429 65.4129 147.069 64.3552 146.54C61.9347 145.377 59.9726 143.438 58.7812 141.032C58.4707 140.409 58.2069 139.764 57.9922 139.102L58.7392 170.479L132.499 170.571L131.86 152.011L73.9362 147.544ZM60.2192 168.614C60.1393 168.619 60.059 168.609 59.9831 168.583C59.9072 168.557 59.8371 168.517 59.7768 168.464C59.7165 168.411 59.6672 168.347 59.6318 168.275C59.5963 168.204 59.5754 168.126 59.5702 168.046V168.014L59.2232 144.714" fill="#FF5000"/>
<path d="M62.6868 144.746C64.176 145.882 65.9197 146.637 67.7668 146.946L132.767 146.3L132.512 131.743L104.612 131.998C104.367 133.514 103.598 134.895 102.437 135.901C101.277 136.906 99.7999 137.472 98.2648 137.498H98.1508C96.616 137.498 95.1302 136.958 93.9531 135.973C92.7761 134.988 91.9827 133.621 91.7118 132.11L57.8418 132.419L57.9008 135.386C58.0562 137.208 58.5386 138.988 59.3248 140.639C60.1067 142.252 61.2587 143.657 62.6868 144.739" fill="#FF5000"/>
<path d="M96.2915 21.3689C96.4272 21.2658 96.5749 21.1799 96.7315 21.1129L96.2385 20.7929L96.1895 20.7739C96.1605 20.7626 96.1296 20.7572 96.0985 20.7579C95.9419 20.7728 95.7915 20.8272 95.6615 20.9159C95.4672 21.0354 95.2856 21.1745 95.1195 21.3309L95.0195 21.4309L95.8465 21.8129C95.9772 21.6487 96.1273 21.5009 96.2935 21.3729" fill="#FF5000"/>
<path d="M82.7005 14.5777C82.7136 14.5519 82.7317 14.5288 82.7538 14.5099C82.7758 14.4911 82.8013 14.4767 82.8289 14.4677C82.8565 14.4587 82.8856 14.4552 82.9145 14.4575C82.9434 14.4597 82.9716 14.4676 82.9975 14.4807C83.0234 14.4939 83.0464 14.512 83.0653 14.534C83.0842 14.556 83.0985 14.5816 83.1075 14.6091C83.1165 14.6367 83.12 14.6658 83.1178 14.6947C83.1155 14.7237 83.1076 14.7519 83.0945 14.7777L81.9605 17.0447C82.6599 16.7008 83.3831 16.4073 84.1245 16.1667C84.5636 16.0358 85.0193 15.9685 85.4775 15.9667C86.2602 15.9696 87.0299 16.168 87.7165 16.5437C87.8305 16.6057 87.9315 16.6667 88.0235 16.7267C88.4033 16.5156 88.8135 16.3645 89.2395 16.2787C87.5975 15.2287 86.2945 14.4037 85.5695 13.9617C85.3055 13.8017 85.1145 13.6897 85.0285 13.6447C84.6678 13.4506 84.2651 13.3476 83.8555 13.3447C83.4387 13.3493 83.0303 13.4624 82.6705 13.6728C82.3107 13.8832 82.0119 14.1837 81.8035 14.5447C81.6105 14.8997 81.2745 15.5947 80.9355 16.3137C80.6685 16.8797 80.3995 17.4617 80.1875 17.9217C80.5675 17.7217 80.9445 17.5347 81.3125 17.3537L82.7005 14.5777Z" fill="#FF5000"/>
<path d="M100.125 23.7244C100.227 23.6478 100.336 23.5808 100.45 23.5244L100.069 23.2764C99.9974 23.304 99.9278 23.3375 99.8613 23.3764C99.7753 23.428 99.6925 23.4848 99.6133 23.5464L100.079 23.7614C100.095 23.7484 100.108 23.7344 100.125 23.7214" fill="#FF5000"/>
<path d="M92.0911 18.9047C92.2757 18.7645 92.4826 18.6563 92.7031 18.5847L92.5581 18.5397C92.4993 18.5224 92.4383 18.514 92.3771 18.5147C92.15 18.5276 91.9281 18.5872 91.7251 18.6897C91.4713 18.8095 91.2286 18.9517 91.0001 19.1147C90.8621 19.2147 90.7351 19.3147 90.6211 19.4007L91.3671 19.7447C91.5507 19.4203 91.796 19.135 92.0891 18.9047" fill="#FF5000"/>
<path d="M64.3793 28.2584C67.2683 29.3854 71.0403 30.8254 74.5683 32.0794C75.6293 32.4564 76.7133 32.8104 77.7973 33.1414C77.6633 32.0164 77.5403 30.9064 77.4303 29.8364C75.9913 29.4734 74.4183 29.0754 72.8613 28.6804C68.1873 27.4944 63.6983 26.3484 63.6983 26.3484L62.9183 26.1484C62.0773 26.3684 61.2023 26.5084 60.4023 26.6894L60.8493 26.8674C61.7113 27.2124 62.9353 27.6974 64.3803 28.2604" fill="#FF5000"/>
<path d="M86.6999 31.6578C85.5042 31.6434 84.313 31.5094 83.1439 31.2578C82.9499 31.2158 82.5099 31.1098 81.8749 30.9528L80.4609 30.5998C80.6009 31.7918 80.7389 32.9118 80.8609 33.8698C80.8679 33.9218 80.8739 33.9698 80.8809 34.0238C83.9719 34.8488 86.8479 35.4488 88.8809 35.7708C89.7005 35.9173 90.5291 36.0081 91.3609 36.0428H91.4609C92.2192 36.0404 92.9735 35.9324 93.7019 35.7218C94.2466 35.5577 94.7413 35.2596 95.1409 34.8548C95.4161 34.5491 95.6161 34.1834 95.7249 33.7868C95.8638 33.3191 95.9332 32.8336 95.9309 32.3458C95.9336 31.918 95.8785 31.4918 95.7669 31.0788C95.555 30.4084 95.2486 29.7717 94.8569 29.1878C94.5737 28.7387 94.2536 28.3139 93.8999 27.9178C93.7967 27.8152 93.6879 27.7184 93.5739 27.6278C93.4279 27.5108 93.2529 27.3778 93.0649 27.2428C92.6889 26.9728 92.2649 26.6928 91.9089 26.4918C91.7374 26.3878 91.557 26.2992 91.3699 26.2268L91.3319 26.2168V26.2248C91.3319 26.2248 91.3389 26.7998 91.3389 27.4498C91.3389 27.7758 91.3389 28.1208 91.3319 28.4238C91.3355 28.9674 91.1827 29.5005 90.8919 29.9598C90.4704 30.5573 89.8777 31.013 89.1919 31.2668C88.3957 31.5588 87.5506 31.6946 86.7029 31.6668" fill="#FF5000"/>
<path d="M88.3452 53.3345C88.3327 53.2946 88.3108 53.2582 88.2812 53.2285V80.8395L88.8382 80.8485C88.9152 76.6395 88.9732 72.0245 88.9732 67.7735C88.9732 62.6025 88.8862 57.9665 88.6412 55.2845C88.5977 54.6276 88.5 53.9754 88.3492 53.3345" fill="#FF5000"/>
<path d="M59.5741 80.3742L86.0741 80.8032V52.8032L59.2891 51.9912L59.5741 80.3742Z" fill="#FF5000"/>
<path d="M92.3846 80.9055L131.621 81.5415L131.501 54.1805L91.8516 52.9805C91.9902 53.3773 92.0998 53.7837 92.1796 54.1965C92.3343 55.0234 92.4106 55.8632 92.4076 56.7045C92.4076 57.1295 92.3886 57.4145 92.3846 57.4765V80.9055Z" fill="#FF5000"/>
<path d="M93.7796 109.099C93.7146 109.223 93.6247 109.332 93.5154 109.42C93.4062 109.507 93.28 109.571 93.1448 109.608C93.0096 109.644 92.8684 109.652 92.73 109.631C92.5916 109.61 92.459 109.561 92.3406 109.486C92.2293 109.418 92.1352 109.325 92.0656 109.215C91.9786 109.076 91.9322 108.915 91.9316 108.75V108.28C80.3506 107.799 69.6806 107.359 67.9756 107.3L67.7566 107.294L60.6646 107.494H60.5646C59.3578 107.471 58.1618 107.262 57.0186 106.875C54.8969 106.195 53.0566 104.838 51.7796 103.012C51.2117 102.182 50.759 101.279 50.4336 100.327L50.8776 131.727L124.495 130.999L123.782 109.608C121.841 109.527 109.882 109.026 97.5006 108.508L93.8626 108.357V108.821V108.847C93.8473 108.933 93.8207 109.017 93.7836 109.096" fill="#DB2422"/>
<path d="M55.5425 105.526C57.0903 106.353 58.8112 106.803 60.5655 106.841H60.6445L67.7445 106.641L68.3765 106.622L70.1605 106.57L76.5295 106.384L91.9365 105.933V103.939C91.6597 103.791 91.4107 103.596 91.2005 103.363L91.1305 103.277L91.1255 103.166C91.1255 103.166 91.1135 102.857 91.0935 102.373C91.0735 101.889 91.0455 101.23 91.0135 100.531C90.9505 99.131 90.8705 97.568 90.8135 96.937C90.8051 96.8346 90.7836 96.7338 90.7495 96.637H90.6585C89.3185 96.6361 88.0109 96.2242 86.9124 95.4566C85.8138 94.6891 84.9772 93.603 84.5155 92.345H84.3805L59.2485 94.65L50.8595 91.626L50.3105 91.633L50.3885 97.142C50.5716 99.1065 51.2362 100.996 52.3235 102.642C53.1543 103.843 54.2573 104.83 55.5425 105.523" fill="#DB2422"/>
<path d="M123.958 104.993H123.978L123.999 104.999C124.023 105.002 124.046 105.007 124.068 105.013H124.078L124.106 105.026H124.283L125.635 104.988L125.552 102.799L125.143 92.5114L96.7773 92.3994C96.3228 93.6021 95.5255 94.6451 94.4843 95.3994C94.5046 95.4647 94.5193 95.5316 94.5283 95.5994V95.6134C94.5283 95.6134 94.7163 99.1434 94.8103 101.392C94.8413 102.143 94.8623 102.747 94.8623 103.045C94.8623 103.086 94.8623 103.122 94.8623 103.153C94.8623 103.184 94.8623 103.211 94.8563 103.244C94.8446 103.334 94.8143 103.421 94.7673 103.498C94.725 103.572 94.6733 103.639 94.6133 103.698C94.4897 103.819 94.3484 103.92 94.1943 103.998C94.087 104.053 93.9757 104.1 93.8613 104.138V105.876L95.8483 105.818L123.958 104.996" fill="#DB2422"/>
<path d="M133.83 40.0912C133.662 39.5765 133.462 39.0731 133.23 38.5842C133.097 38.2948 132.929 38.0228 132.73 37.7742C132.662 37.689 132.579 37.6168 132.486 37.5612C131.937 37.2496 131.317 37.0862 130.686 37.0872C129.949 37.1188 129.216 37.2145 128.496 37.3732C127.552 37.5472 126.347 37.7822 124.719 38.0172C122.314 38.3887 119.886 38.5853 117.453 38.6052C115.255 38.5938 113.062 38.4166 110.891 38.0752C110.282 37.9964 109.695 37.8016 109.16 37.5012C108.729 37.2528 108.359 36.9111 108.077 36.5012C107.613 35.7767 107.379 34.9289 107.406 34.0692C107.411 33.4457 107.495 32.8255 107.656 32.2232L103.83 30.5352C102.739 32.7528 101.247 34.7494 99.4297 36.4242L99.3817 36.4602C97.8308 37.3493 96.5712 38.6693 95.7557 40.2602C95.4991 40.779 95.3196 41.3325 95.2227 41.9032L95.3227 41.9162C95.5967 41.9532 95.9997 42.0052 96.5147 42.0672C97.5447 42.1932 99.0217 42.3592 100.805 42.5262C104.373 42.8602 109.17 43.1932 114.083 43.1932C115.502 43.1932 116.932 43.1652 118.343 43.1022C129.025 42.6212 133.061 41.0332 133.986 40.5942C133.947 40.4632 133.894 40.2942 133.828 40.0942" fill="#DE3A00"/>
<path d="M61.456 19.1379C61.2868 18.5973 60.9577 18.1206 60.512 17.7709C60.1669 17.5077 59.7459 17.3632 59.312 17.3589C59.1056 17.3534 58.9004 17.3905 58.709 17.4679C58.5177 17.5454 58.3444 17.6615 58.2 17.8089C57.8475 18.2429 57.5549 18.7222 57.33 19.2339C56.924 20.1015 56.5846 20.9988 56.315 21.9179C55.523 24.6315 55.1275 27.4452 55.141 30.2719C55.141 30.3139 55.141 30.3579 55.141 30.3999C55.529 29.8249 56.061 29.0629 56.604 28.3759C56.9201 27.9675 57.2629 27.5803 57.63 27.2169C57.7961 27.0522 57.9799 26.9064 58.178 26.7819C59.1457 26.3001 60.1858 25.9799 61.257 25.8339C62.3023 25.6849 63.3197 25.3816 64.276 24.9339C64.7297 24.6983 65.1164 24.3515 65.4 23.9259C64.9134 23.6385 64.4553 23.3053 64.032 22.9309C62.8591 21.9118 61.9723 20.6045 61.459 19.1379M58.849 18.5749C58.6512 18.8034 58.4767 19.0509 58.328 19.3139C58.0292 19.8464 57.7734 20.4018 57.563 20.9749C57.454 21.2619 57.339 21.5469 57.247 21.8409C57.155 22.1349 57.047 22.4229 56.947 22.7179C56.747 23.3039 56.576 23.8999 56.356 24.4889C56.4133 23.8654 56.5136 23.2467 56.656 22.6369C56.7927 22.0244 56.9745 21.4227 57.2 20.8369C57.253 20.6889 57.317 20.5449 57.383 20.4009C57.449 20.2569 57.508 20.1109 57.583 19.9709L57.814 19.5539C57.89 19.4149 57.987 19.2859 58.075 19.1539C58.1684 19.0232 58.2685 18.8974 58.375 18.7769C58.4828 18.6575 58.5984 18.5452 58.721 18.4409C58.8434 18.3375 58.9777 18.2489 59.121 18.1769C59.2641 18.1043 59.4236 18.0699 59.584 18.0769C59.2912 18.1612 59.0327 18.3363 58.846 18.5769" fill="#DE3A00"/>
<path d="M129.611 123.555L124.5 111.274L125.157 130.985H129.83L129.611 123.555Z" fill="#B32625"/>
<path d="M103.4 132.167H93.1292C93.0447 132.172 92.9652 132.209 92.907 132.27C92.8488 132.332 92.8164 132.413 92.8164 132.498C92.8164 132.583 92.8488 132.664 92.907 132.726C92.9652 132.787 93.0447 132.824 93.1292 132.828H103.4C103.445 132.831 103.49 132.824 103.532 132.809C103.575 132.793 103.613 132.769 103.646 132.738C103.679 132.707 103.705 132.67 103.722 132.629C103.74 132.588 103.749 132.543 103.749 132.498C103.749 132.453 103.74 132.408 103.722 132.367C103.705 132.326 103.679 132.289 103.646 132.258C103.613 132.227 103.575 132.203 103.532 132.187C103.49 132.172 103.445 132.165 103.4 132.167Z" fill="#B32625"/>
<path d="M58.6247 51.6406H50.3047V79.3456L58.9127 80.3286L58.6247 51.6406Z" fill="#FF3600"/>
<path d="M53.7812 141.637L54.4523 166.086L57.9303 170.007L57.2793 137.432L53.7812 141.637Z" fill="#FF3600"/>
<path d="M79.0938 41.9355L79.1548 42.1045C79.1438 42.0485 79.1327 41.9945 79.1217 41.9375H79.0938" fill="#D0CFCD"/>
<path d="M54.8992 40.7993L54.4772 40.7793C54.4622 41.3113 54.4512 41.9503 54.4512 42.6793C54.4512 42.8853 54.4512 43.0993 54.4512 43.3173L64.0202 43.7723C64.1552 43.7774 64.2869 43.8152 64.4042 43.8823C64.5594 43.9761 64.6766 44.1216 64.7352 44.2933C64.7854 44.4396 64.8094 44.5936 64.8062 44.7483C64.8062 44.8043 64.8062 44.8633 64.7992 44.9253C64.789 45.0857 64.7399 45.2412 64.6562 45.3783C64.5844 45.4909 64.4863 45.5843 64.3702 45.6503C64.2 45.7427 64.0088 45.7895 63.8152 45.7863C63.7758 45.7868 63.7363 45.7848 63.6972 45.7803L54.5042 45.4503C54.5162 45.735 54.5302 46.0246 54.5462 46.3193C54.5675 46.7121 54.6491 47.0993 54.7882 47.4673C56.1652 47.5273 67.3882 48.0143 78.9962 48.4333V41.9333C78.6852 41.9093 78.3962 41.8913 78.1282 41.8783C72.8392 41.6303 58.4192 40.9673 54.8962 40.8063M78.8692 42.4963C78.8653 42.5838 78.8269 42.6661 78.7624 42.7253C78.698 42.7845 78.6126 42.8158 78.5252 42.8123L55.0172 41.7993C54.9317 41.7927 54.852 41.7531 54.7951 41.6889C54.7382 41.6247 54.7084 41.541 54.7121 41.4553C54.7157 41.3696 54.7525 41.2886 54.8146 41.2295C54.8767 41.1704 54.9594 41.1377 55.0452 41.1383L78.5612 42.1483C78.6045 42.1501 78.6471 42.1604 78.6864 42.1787C78.7258 42.197 78.7612 42.2228 78.7905 42.2548C78.8199 42.2867 78.8426 42.3241 78.8575 42.3649C78.8724 42.4057 78.879 42.449 78.8772 42.4923" fill="#D0CFCD"/>
<path d="M134.911 42.5916C134.717 42.1155 134.496 41.6508 134.25 41.1996C133.176 41.6996 129.04 43.2786 118.375 43.7606C116.952 43.8246 115.513 43.8526 114.085 43.8526C107.639 43.8065 101.203 43.3586 94.8131 42.5116C93.0361 42.3116 91.3501 42.0986 89.8001 41.8676C87.3841 41.5076 84.6791 41.1986 81.8711 40.9346C81.9331 41.2866 82.0011 41.6476 82.0711 42.0116C83.8821 42.2236 85.9301 42.5006 87.9421 42.7826C91.6641 43.3036 95.2581 43.8426 96.9491 44.0126C102.615 44.6382 108.311 44.955 114.011 44.9616C114.691 44.9616 115.387 44.9569 116.098 44.9476C129.27 44.6476 133.306 43.0476 134.421 42.4966C134.582 42.4166 134.681 42.3586 134.748 42.3246L134.848 42.5246C134.79 42.5546 134.683 42.6166 134.518 42.6986C134.353 42.7806 134.127 42.8846 133.824 42.9986C132.884 43.3472 131.917 43.621 130.934 43.8176C126.041 44.7154 121.077 45.1679 116.102 45.1696C115.389 45.1796 114.692 45.1842 114.011 45.1836C108.303 45.1769 102.6 44.8598 96.9261 44.2336C95.2261 44.0626 91.6331 43.5236 87.9121 43.0026C85.9271 42.7246 83.9061 42.4516 82.1121 42.2416C82.3868 43.6593 82.7922 45.0486 83.3231 46.3916C83.6367 47.1829 84.0672 47.9228 84.6001 48.5866C97.1001 49.0126 110.781 49.3816 121.015 49.3816C127.073 49.3816 131.923 49.2526 134.603 48.9296C134.945 48.4072 135.219 47.8433 135.419 47.2516C135.579 46.7959 135.658 46.3155 135.651 45.8326C135.609 44.7157 135.359 43.6164 134.913 42.5916M134.313 43.8116C133.017 44.4338 131.635 44.8573 130.213 45.0676C128.313 45.3972 126.398 45.6292 124.474 45.7626C120.34 46.0796 115.833 46.1396 112.452 46.1396C110.409 46.1396 108.776 46.1176 107.892 46.1166C107.1 46.1166 105.936 46.0496 104.599 45.9486C103.262 45.8476 101.757 45.7116 100.299 45.5686C97.3741 45.2836 94.6241 44.9746 93.7591 44.8686C92.8941 44.7626 90.2241 44.4006 87.7701 44.0616C85.3161 43.7226 83.0781 43.4086 83.0781 43.4086C82.9914 43.3964 82.913 43.3502 82.8603 43.2803C82.8076 43.2103 82.7849 43.1223 82.7971 43.0356C82.8093 42.9488 82.8554 42.8705 82.9254 42.8178C82.9954 42.7651 83.0834 42.7424 83.1701 42.7546L83.5581 42.8086L84.5951 42.9536C85.4611 43.0746 86.6341 43.2376 87.8601 43.4066C90.3121 43.7456 92.9831 44.1066 93.8371 44.2116C95.1261 44.3646 100.666 44.9836 104.653 45.2856C105.981 45.3856 107.139 45.4506 107.897 45.4516C108.789 45.4516 110.417 45.4746 112.456 45.4746C114.986 45.4746 118.146 45.4406 121.3 45.2906C124.249 45.1856 127.188 44.8927 130.1 44.4136C131.452 44.2144 132.766 43.815 134 43.2286C134.038 43.2056 134.081 43.1906 134.125 43.1844C134.169 43.1782 134.214 43.1809 134.257 43.1924C134.3 43.2039 134.34 43.224 134.375 43.2514C134.41 43.2789 134.439 43.3131 134.461 43.352C134.482 43.391 134.496 43.4339 134.5 43.4781C134.505 43.5224 134.5 43.5671 134.487 43.6096C134.474 43.6522 134.452 43.6916 134.424 43.7256C134.395 43.7596 134.36 43.7875 134.32 43.8076" fill="#D0CFCD"/>
<path d="M63.7518 45.3417H63.7678H63.8248C63.9101 45.3428 63.9949 45.3296 64.0758 45.3027C64.1654 45.2753 64.2426 45.2172 64.2938 45.1387C64.3387 45.0612 64.3648 44.9742 64.3698 44.8847C64.3698 44.8347 64.3758 44.7847 64.3758 44.7447C64.3783 44.6428 64.363 44.5413 64.3308 44.4447C64.3124 44.3903 64.2816 44.341 64.2408 44.3007C64.1764 44.2446 64.0941 44.2134 64.0088 44.2127L54.5318 43.7627H54.4668C54.4728 44.1627 54.4828 44.5807 54.4978 45.0127L63.7318 45.3437L63.7518 45.3417Z" fill="#D0CFCD"/>
<path d="M76.3372 40.4779L75.0992 40.3899L75.0172 40.3839L55.0662 39.4739L54.5372 39.4619C54.5282 39.6229 54.5172 39.8409 54.5062 40.1139C54.5012 40.2499 54.4962 40.4019 54.4902 40.5629C57.0432 40.6799 72.6052 41.3939 78.1482 41.6549C78.4112 41.6669 78.6992 41.6859 79.0052 41.7079V41.6919L79.0112 41.7089L79.0782 41.7139C79.0116 41.3726 78.9482 41.0262 78.8882 40.6749C78.0402 40.6082 77.1906 40.5416 76.3392 40.4749" fill="#D0CFCD"/>
<path d="M109.494 36.9309C109.956 37.1883 110.464 37.3547 110.989 37.4209C113.128 37.7584 115.289 37.9332 117.454 37.9439C119.856 37.9242 122.253 37.7301 124.626 37.3629C126.238 37.1309 127.426 36.8989 128.377 36.7239C128.941 36.6239 129.419 36.5349 129.852 36.4829C129.306 36.3329 128.662 36.1729 127.899 36.0069C124.519 35.1592 121.215 34.0355 118.019 32.6469L117.685 32.5069C117.457 32.7704 117.199 33.0055 116.915 33.2069C116.037 33.8228 114.987 34.1446 113.915 34.1259C113.027 34.1133 112.148 33.9497 111.315 33.6419C110.715 33.4309 109.768 33.0349 108.564 32.5039L108.264 32.5419C108.252 32.5949 108.238 32.6509 108.225 32.7119C108.127 33.1594 108.076 33.6159 108.073 34.0739C108.063 34.6142 108.162 35.151 108.365 35.6519C108.592 36.1917 108.991 36.6416 109.499 36.9319M122.9 35.1999C122.988 35.1997 123.073 35.2255 123.146 35.2741C123.219 35.3226 123.276 35.3918 123.31 35.4727C123.344 35.5536 123.353 35.6427 123.336 35.7287C123.319 35.8147 123.277 35.8937 123.215 35.9558C123.153 36.0179 123.074 36.0601 122.988 36.0773C122.902 36.0945 122.813 36.0858 122.732 36.0523C122.651 36.0188 122.581 35.962 122.533 35.8891C122.484 35.8163 122.458 35.7306 122.458 35.6429C122.458 35.5256 122.505 35.4131 122.587 35.33C122.67 35.247 122.783 35.2002 122.9 35.1999ZM119.777 35.4059C119.865 35.4059 119.95 35.4319 120.023 35.4806C120.096 35.5292 120.153 35.5984 120.186 35.6794C120.22 35.7603 120.229 35.8494 120.211 35.9353C120.194 36.0213 120.152 36.1002 120.09 36.1622C120.028 36.2241 119.949 36.2663 119.863 36.2834C119.777 36.3005 119.688 36.2917 119.607 36.2582C119.527 36.2247 119.457 36.1679 119.409 36.095C119.36 36.0222 119.334 35.9365 119.334 35.8489C119.334 35.7315 119.381 35.619 119.464 35.5359C119.547 35.4529 119.66 35.4062 119.777 35.4059ZM118.29 33.4659C118.378 33.4659 118.463 33.4919 118.536 33.5406C118.609 33.5892 118.666 33.6584 118.699 33.7394C118.733 33.8203 118.742 33.9094 118.724 33.9953C118.707 34.0813 118.665 34.1602 118.603 34.2222C118.541 34.2841 118.462 34.3263 118.376 34.3434C118.29 34.3605 118.201 34.3517 118.12 34.3182C118.04 34.2847 117.97 34.2279 117.922 34.155C117.873 34.0822 117.847 33.9965 117.847 33.9089C117.847 33.8507 117.858 33.793 117.88 33.7392C117.903 33.6854 117.935 33.6365 117.976 33.5954C118.018 33.5542 118.066 33.5216 118.12 33.4994C118.174 33.4771 118.232 33.4658 118.29 33.4659ZM117.539 36.3769C117.627 36.3769 117.712 36.4029 117.785 36.4516C117.858 36.5002 117.915 36.5694 117.948 36.6504C117.982 36.7313 117.991 36.8204 117.973 36.9063C117.956 36.9923 117.914 37.0712 117.852 37.1332C117.79 37.1951 117.711 37.2373 117.625 37.2544C117.539 37.2715 117.45 37.2627 117.369 37.2292C117.289 37.1957 117.219 37.1389 117.171 37.066C117.122 36.9932 117.096 36.9075 117.096 36.8199C117.096 36.7024 117.143 36.5897 117.226 36.5067C117.309 36.4236 117.422 36.3769 117.539 36.3769ZM116.211 34.7569C116.299 34.7569 116.384 34.7829 116.457 34.8316C116.53 34.8802 116.587 34.9494 116.62 35.0304C116.654 35.1113 116.663 35.2004 116.645 35.2863C116.628 35.3723 116.586 35.4512 116.524 35.5132C116.462 35.5751 116.383 35.6173 116.297 35.6344C116.211 35.6515 116.122 35.6427 116.041 35.6092C115.961 35.5757 115.891 35.5189 115.843 35.446C115.794 35.3732 115.768 35.2875 115.768 35.1999C115.768 35.1417 115.779 35.084 115.801 35.0302C115.824 34.9764 115.856 34.9275 115.897 34.8864C115.939 34.8452 115.987 34.8126 116.041 34.7904C116.095 34.7681 116.153 34.7568 116.211 34.7569ZM113.537 35.1999C113.625 35.1999 113.71 35.2259 113.783 35.2746C113.856 35.3232 113.913 35.3924 113.946 35.4734C113.98 35.5543 113.989 35.6434 113.971 35.7293C113.954 35.8153 113.912 35.8942 113.85 35.9562C113.788 36.0181 113.709 36.0603 113.623 36.0774C113.537 36.0945 113.448 36.0857 113.367 36.0522C113.287 36.0187 113.217 35.9619 113.169 35.889C113.12 35.8162 113.094 35.7305 113.094 35.6429C113.094 35.5254 113.141 35.4127 113.224 35.3297C113.307 35.2466 113.42 35.1999 113.537 35.1999Z" fill="#D0CFCD"/>
<path d="M75.0511 39.7226L75.5601 39.7596C76.166 37.9123 76.9686 36.1354 77.9541 34.4596C77.9291 34.2596 77.9031 34.0596 77.8791 33.8596C76.6991 33.4996 75.5091 33.1156 74.3461 32.6996C67.7521 30.3566 60.3291 27.3716 59.3461 26.9756C59.0577 27.0708 58.7799 27.1954 58.5171 27.3476C58.1822 27.5839 57.8813 27.8652 57.6231 28.1836C57.2751 28.5836 56.9011 29.0616 56.5541 29.5356C55.8701 30.4706 55.2831 31.3796 55.1441 31.5976C54.9921 33.6046 54.9531 35.4646 54.9531 36.8306C54.9531 37.7446 54.9701 38.4366 54.9821 38.8066L75.0511 39.7226Z" fill="#D0CFCD"/>
<path d="M80.3784 29.8998L81.7864 30.2508C81.9624 30.1418 82.1404 30.0378 82.3234 29.9458C84.2092 28.9374 85.8 27.4554 86.9394 25.6458C87.5144 24.778 88.0008 23.8547 88.3914 22.8898L87.5234 22.4568C84.9174 21.1568 82.8784 20.1128 81.9464 19.5938L81.7994 19.5088C81.4248 19.7008 81.0311 19.9061 80.6184 20.1248L79.5234 20.6998C79.5984 22.1698 79.7644 24.0998 79.9674 26.1108C80.0954 27.3698 80.2364 28.6608 80.3784 29.8948" fill="#D0CFCD"/>
<path d="M66.0782 26.2741C67.4362 26.6201 69.2932 27.0931 71.2882 27.5991C73.2832 28.1051 75.4392 28.6531 77.3582 29.1371C77.1452 27.0111 76.9792 25.0691 76.8582 23.5221C76.8172 23.0071 76.7822 22.5381 76.7522 22.1221C76.1352 22.4221 75.5152 22.7141 74.9022 22.9801C73.7157 23.5217 72.4755 23.9369 71.2022 24.2191C70.3105 24.4018 69.4033 24.4986 68.4932 24.5081C67.6781 24.5252 66.8663 24.4018 66.0932 24.1431L66.0442 24.1241C65.798 24.5568 65.4622 24.9319 65.0592 25.2241C64.7534 25.4415 64.4235 25.6231 64.0762 25.7651L64.4592 25.8651L66.0772 26.2771" fill="#D0CFCD"/>
<path d="M82.0781 44.8191C81.569 43.0063 81.189 41.1597 80.9411 39.2931C80.7881 38.2301 80.6851 37.3581 80.6051 36.8721C80.4961 36.2051 80.2201 34.1451 79.9151 31.6061C79.6101 29.0671 79.2781 26.0591 79.0611 23.5061C78.9161 21.8061 78.8221 20.3151 78.8221 19.2921C78.8221 19.2231 78.8221 19.1571 78.8221 19.0921C78.7284 19.3018 78.6453 19.5161 78.5731 19.7341C78.4717 20.0404 78.3938 20.354 78.3401 20.6721C78.2851 20.9937 78.2547 21.319 78.2491 21.6451C78.1997 21.3185 78.1753 20.9885 78.1761 20.6581C78.1756 20.3234 78.2007 19.9891 78.2511 19.6581C78.2996 19.3236 78.3725 18.9931 78.4691 18.6691C78.5481 18.396 78.646 18.1287 78.7621 17.8691C78.7108 17.8835 78.6609 17.9026 78.6131 17.9261C78.4715 17.9929 78.3354 18.0708 78.2061 18.1591C77.9529 18.3272 77.7183 18.5216 77.5061 18.7391C77.4825 18.7639 77.4611 18.7906 77.4421 18.8191C77.3791 18.9331 77.3321 19.0011 77.3121 19.0421C77.2869 19.0945 77.2716 19.1512 77.2671 19.2091C77.2572 19.3041 77.2529 19.3996 77.2541 19.4951C77.2541 19.6041 77.2541 19.7371 77.2651 19.9031C77.2821 20.2581 77.4561 23.0901 77.8031 26.8801C78.1501 30.6701 78.6691 35.4301 79.3771 39.6511C79.7492 42.1116 80.3051 44.5407 81.0401 46.9181C81.3198 47.7827 81.6599 48.6264 82.0581 49.4431C82.338 49.4997 82.6226 49.5305 82.9081 49.5351C83.1338 49.5681 83.3643 49.5333 83.5702 49.4352C83.7762 49.3371 83.9484 49.1801 84.0651 48.9841C83.689 48.5216 83.3657 48.0184 83.1011 47.4841C82.6797 46.6271 82.3354 45.7342 82.0721 44.8161" fill="#D0CFCD"/>
<path d="M91.7234 91.5698V57.4258V57.3888C91.7234 57.3558 91.7234 57.3068 91.7314 57.2428C91.7364 57.1158 91.7424 56.9308 91.7424 56.7028C91.7453 55.9045 91.6733 55.1077 91.5274 54.3228C91.3865 53.4345 91.04 52.5914 90.5154 51.8608C90.4355 51.7611 90.3472 51.6684 90.2514 51.5838C89.6898 51.301 89.0702 51.1521 88.4414 51.1488C88.0747 51.1375 87.7093 51.1985 87.3661 51.3284C87.023 51.4583 86.7087 51.6545 86.4414 51.9058C86.5634 51.9268 86.6834 51.9488 86.7994 51.9718C87.0224 52.0168 87.2324 52.0718 87.4304 52.1198H87.4654C87.4892 52.1222 87.5127 52.1272 87.5354 52.1348C87.6354 52.1648 87.7174 52.1988 87.8054 52.2348C87.9264 52.2758 88.0424 52.3198 88.1494 52.3678C88.2695 52.4205 88.3852 52.4827 88.4954 52.5538C88.6623 52.6432 88.8243 52.7417 88.9804 52.8488C89.1997 52.999 89.401 53.1738 89.5804 53.3698C89.7565 53.5635 89.8985 53.7856 90.0004 54.0268V54.0328H89.9954C89.7393 53.6796 89.3943 53.4005 88.9954 53.2238C89.1462 53.8818 89.2465 54.5505 89.2954 55.2238C89.3784 56.1348 89.4424 57.2558 89.4954 58.5398C89.5954 61.1058 89.6334 64.3198 89.6334 67.7728C89.6334 75.8118 89.4244 85.1468 89.2814 90.5778C89.5201 90.9123 89.8406 91.1799 90.2123 91.355C90.5841 91.5301 90.9945 91.6068 91.4044 91.5778C91.5234 91.5778 91.6324 91.5718 91.7254 91.5638M91.1904 67.2558H91.1514C91.0984 66.5698 91.0574 65.8828 91.0164 65.1958C90.9754 64.5088 90.9314 63.8228 90.9014 63.1348C90.8374 61.7608 90.7574 60.3878 90.7084 59.0128C90.6594 57.6378 90.6084 56.2638 90.5614 54.8888C90.5606 54.557 90.5319 54.2258 90.4754 53.8988C90.4177 53.5755 90.3244 53.2596 90.1974 52.9568C89.9363 52.3336 89.5496 51.7709 89.0614 51.3038C89.6862 51.647 90.194 52.1695 90.5194 52.8038C90.6871 53.1227 90.8122 53.4623 90.8914 53.8138C90.9656 54.1646 91.0021 54.5223 91.0004 54.8808C91.0414 56.2558 91.0854 57.6308 91.1134 59.0068C91.1414 60.3828 91.1574 61.7578 91.1804 63.1338C91.1934 63.8208 91.1954 64.5088 91.1954 65.1968C91.1954 65.8848 91.1954 66.5728 91.1904 67.2618" fill="#D0CFCD"/>
<path d="M93.9223 96.6486C93.8933 96.0986 93.8743 95.7286 93.8703 95.6646L93.8613 95.6226C93.8457 95.5628 93.8246 95.5046 93.7983 95.4486C93.6933 95.2363 93.5352 95.0548 93.3393 94.9216C93.2217 94.8551 93.0929 94.8107 92.9593 94.7906C92.7285 94.7472 92.4941 94.7261 92.2593 94.7276C91.8805 94.7261 91.5034 94.7765 91.1383 94.8776C90.8192 94.9569 90.5256 95.1162 90.2853 95.3406C90.2529 95.3738 90.2228 95.4092 90.1953 95.4466C90.2777 95.462 90.3589 95.4831 90.4383 95.5096C90.4713 95.5206 90.5043 95.5336 90.5383 95.5476L90.5923 95.5546C90.725 95.5762 90.8549 95.6127 90.9793 95.6636C91.2163 95.7627 91.4352 95.9002 91.6273 96.0706C91.8143 96.2327 91.9848 96.4129 92.1363 96.6086C92.2073 96.7086 92.2803 96.8086 92.3483 96.9086L92.5393 97.2166L91.3873 96.4996C91.4248 96.6232 91.4499 96.7501 91.4623 96.8786C91.5253 97.5446 91.6043 99.1016 91.6683 100.505C91.7203 101.642 91.7613 102.671 91.7753 103.02C91.8278 103.07 91.8833 103.118 91.9413 103.162C92.1744 103.34 92.4361 103.478 92.7153 103.57C92.8297 103.606 92.9492 103.624 93.0693 103.623C93.2741 103.62 93.477 103.583 93.6693 103.513C93.8309 103.457 93.9815 103.374 94.1143 103.267C94.1502 103.239 94.1807 103.205 94.2043 103.167V103.143C94.2043 103.122 94.2043 103.092 94.2043 103.055C94.2043 102.645 94.1573 101.49 94.1043 100.224C94.0513 98.9576 93.9753 97.5646 93.9283 96.6556M93.5573 102.616H93.5173C93.3723 101.37 93.2873 100.124 93.2103 98.8776C93.1793 98.2546 93.1413 97.6316 93.1213 97.0076L93.0843 96.0726C93.046 95.7863 92.9851 95.5034 92.9023 95.2266C93.0741 95.2851 93.2248 95.3931 93.3353 95.5371C93.4459 95.681 93.5113 95.8545 93.5233 96.0356L93.5533 96.9746C93.5773 97.6006 93.5833 98.2276 93.5973 98.8546C93.6093 100.108 93.6133 101.362 93.5573 102.615" fill="#D0CFCD"/>
<path d="M92.5918 108.749V108.756C92.5931 108.782 92.5985 108.809 92.6078 108.834C92.6226 108.873 92.6509 108.907 92.6878 108.928C92.7444 108.96 92.8071 108.979 92.8718 108.986C92.8941 108.987 92.9165 108.987 92.9388 108.986C92.9817 108.988 93.0244 108.979 93.0628 108.96C93.0901 108.945 93.1139 108.925 93.1328 108.901C93.1644 108.859 93.1878 108.811 93.2018 108.761V104.352H92.5918V108.749Z" fill="#D0CFCD"/>
<path d="M104.061 28.4705C104.131 28.5724 104.221 28.6588 104.325 28.7245C104.523 28.8376 104.748 28.8927 104.976 28.8835C105.369 28.8684 105.756 28.7873 106.122 28.6435C106.191 28.5615 106.312 28.4215 106.468 28.2595C106.746 27.9609 107.06 27.6979 107.403 27.4765C107.495 27.4219 107.591 27.3731 107.689 27.3305L107.668 27.3125C107.293 26.9799 106.87 26.7064 106.413 26.5015C106.088 26.3561 105.736 26.2779 105.38 26.2715C105.322 26.2715 105.264 26.2715 105.206 26.2795C104.988 26.3158 104.782 26.4055 104.606 26.5405C104.435 26.6714 104.285 26.8291 104.164 27.0075C104.027 27.2037 103.915 27.4164 103.83 27.6405C103.831 27.7571 103.844 27.8734 103.868 27.9875C103.902 28.1601 103.97 28.3242 104.068 28.4705" fill="#D0CFCD"/>
<path d="M108.567 30.4441C108.636 30.5464 108.726 30.6329 108.831 30.6981C109.029 30.8112 109.254 30.8664 109.482 30.8571C109.885 30.8415 110.282 30.757 110.657 30.6071C110.727 30.5491 110.863 30.4381 111.043 30.3071C111.348 30.0802 111.677 29.8868 112.024 29.7301C112.132 29.684 112.242 29.6446 112.355 29.6121C112.327 29.5831 112.298 29.5541 112.267 29.5241C111.867 29.1248 111.409 28.7877 110.909 28.5241C110.582 28.3512 110.22 28.2557 109.851 28.2451C109.805 28.2451 109.759 28.2451 109.712 28.2511C109.494 28.2875 109.287 28.3771 109.112 28.5121C108.941 28.6436 108.792 28.8012 108.67 28.9791C108.533 29.1754 108.42 29.388 108.336 29.6121C108.337 29.7288 108.35 29.845 108.374 29.9591C108.408 30.1317 108.476 30.2958 108.574 30.4421" fill="#D0CFCD"/>
<path d="M99.7947 25.6926C99.8289 25.8651 99.8969 26.0293 99.9947 26.1756C100.064 26.2778 100.154 26.3644 100.259 26.4296C100.456 26.5427 100.682 26.5978 100.91 26.5886C101.302 26.5735 101.69 26.4923 102.056 26.3486C102.125 26.2666 102.246 26.1266 102.402 25.9646C102.68 25.666 102.994 25.403 103.337 25.1816C103.429 25.1269 103.524 25.0785 103.623 25.0366C103.616 25.0297 103.609 25.0234 103.602 25.0176C103.227 24.6851 102.804 24.4116 102.347 24.2066C102.021 24.0612 101.67 23.9829 101.314 23.9766C101.256 23.9766 101.198 23.9766 101.14 23.9846C100.921 24.0209 100.715 24.1106 100.54 24.2456C100.369 24.377 100.22 24.5346 100.098 24.7126C99.9604 24.9088 99.8482 25.1215 99.7637 25.3456C99.7648 25.4622 99.7775 25.5784 99.8017 25.6926" fill="#D0CFCD"/>
<path d="M96.1587 23.8191C96.2279 23.9214 96.3179 24.0079 96.4227 24.0731C96.6205 24.1862 96.8461 24.2414 97.0737 24.2321C97.4665 24.217 97.8539 24.1359 98.2197 23.9921C98.2887 23.9101 98.4097 23.7701 98.5657 23.6081C98.8439 23.3095 99.1579 23.0465 99.5007 22.8251C99.5927 22.7705 99.6883 22.722 99.7867 22.6801C99.7802 22.6733 99.7732 22.6669 99.7657 22.6611C99.3912 22.3283 98.968 22.0548 98.5107 21.8501C98.1854 21.7047 97.834 21.6265 97.4777 21.6201C97.4197 21.6201 97.3617 21.6201 97.3037 21.6281C97.0853 21.6645 96.8792 21.7541 96.7037 21.8891C96.5328 22.0206 96.3836 22.1782 96.2617 22.3561C96.1245 22.5524 96.0123 22.765 95.9277 22.9891C95.9289 23.1058 95.9416 23.222 95.9657 23.3361C96 23.5087 96.068 23.6728 96.1657 23.8191" fill="#D0CFCD"/>
<path d="M91.7615 20.8712C91.7958 21.0438 91.8637 21.2079 91.9615 21.3542C92.0307 21.4565 92.1207 21.543 92.2255 21.6082C92.4229 21.7223 92.6488 21.7774 92.8765 21.7672C93.2694 21.7527 93.6569 21.6716 94.0225 21.5272C94.0915 21.4452 94.2125 21.3052 94.3685 21.1432C94.6467 20.8446 94.9607 20.5816 95.3035 20.3602C95.3955 20.3055 95.4911 20.2571 95.5895 20.2152L95.5655 20.1992C95.1908 19.8667 94.7676 19.5933 94.3105 19.3882C93.9852 19.2428 93.6338 19.1646 93.2775 19.1582C93.2195 19.1582 93.1615 19.1582 93.1045 19.1662C92.8862 19.203 92.6802 19.2926 92.5045 19.4272C92.3338 19.5589 92.1847 19.7165 92.0625 19.8942C91.9252 20.0905 91.813 20.3031 91.7285 20.5272C91.7297 20.6438 91.7424 20.7601 91.7665 20.8742" fill="#D0CFCD"/>
<path d="M87.5004 19.5508C87.7071 19.7011 87.958 19.7782 88.2134 19.7698C88.7499 19.7377 89.2706 19.5765 89.7314 19.2998C89.8054 19.2318 89.9834 19.0688 90.2244 18.8758C90.5935 18.5737 90.9962 18.315 91.4244 18.1048C91.6161 18.0155 91.8174 17.9484 92.0244 17.9048C91.9438 17.8135 91.858 17.727 91.7674 17.6458C91.2243 17.1542 90.5148 16.8872 89.7824 16.8988C89.7054 16.8988 89.6244 16.8988 89.5424 16.9068C88.8672 17.023 88.2317 17.3059 87.6934 17.7298C87.412 17.9321 87.1468 18.1561 86.9004 18.3998C86.9198 18.5215 86.9485 18.6415 86.9864 18.7588C87.0717 19.0721 87.2515 19.3515 87.5014 19.5588" fill="#D0CFCD"/>
<path d="M54.793 47.4668C54.946 47.8679 55.1605 48.2428 55.429 48.5778C55.9314 49.1845 56.5417 49.693 57.229 50.0778C57.462 50.2128 57.695 50.3348 57.923 50.4438L61.711 50.5248V49.2058C61.7148 49.1499 61.7397 49.0975 61.7806 49.0592C61.8215 49.0209 61.8755 48.9997 61.9315 48.9997C61.9876 48.9997 62.0415 49.0209 62.0824 49.0592C62.1234 49.0975 62.1482 49.1499 62.152 49.2058V50.5378L63.534 50.5658V49.2058C63.534 49.1475 63.5572 49.0915 63.5985 49.0502C63.6397 49.009 63.6957 48.9858 63.754 48.9858C63.8124 48.9858 63.8683 49.009 63.9096 49.0502C63.9508 49.0915 63.974 49.1475 63.974 49.2058V50.5748L65.2 50.5998V49.2178C65.2038 49.1619 65.2287 49.1095 65.2696 49.0712C65.3105 49.0329 65.3645 49.0117 65.4205 49.0117C65.4766 49.0117 65.5305 49.0329 65.5714 49.0712C65.6124 49.1095 65.6372 49.1619 65.641 49.2178V50.6088L67.07 50.6378V49.2118C67.07 49.1535 67.0932 49.0975 67.1345 49.0562C67.1757 49.015 67.2317 48.9918 67.29 48.9918C67.3484 48.9918 67.4043 49.015 67.4456 49.0562C67.4868 49.0975 67.51 49.1535 67.51 49.2118V50.6468L68.892 50.6738V49.2118C68.8958 49.1559 68.9207 49.1035 68.9616 49.0652C69.0025 49.0269 69.0565 49.0057 69.1125 49.0057C69.1686 49.0057 69.2225 49.0269 69.2634 49.0652C69.3044 49.1035 69.3292 49.1559 69.333 49.2118V50.6828L70.561 50.7058V49.2238C70.5648 49.1679 70.5897 49.1155 70.6306 49.0772C70.6715 49.0389 70.7255 49.0177 70.7815 49.0177C70.8376 49.0177 70.8915 49.0389 70.9324 49.0772C70.9734 49.1155 70.9982 49.1679 71.002 49.2238V50.7148L72.276 50.7388V49.2058C72.2798 49.1499 72.3047 49.0975 72.3456 49.0592C72.3865 49.0209 72.4405 48.9997 72.4965 48.9997C72.5526 48.9997 72.6065 49.0209 72.6474 49.0592C72.6884 49.0975 72.7132 49.1499 72.717 49.2058V50.7468L74.098 50.7728V49.2058C74.1018 49.1499 74.1267 49.0975 74.1676 49.0592C74.2085 49.0209 74.2625 48.9997 74.3185 48.9997C74.3746 48.9997 74.4285 49.0209 74.4694 49.0592C74.5104 49.0975 74.5352 49.1499 74.539 49.2058V50.7818L75.767 50.8038V49.2178C75.7708 49.1619 75.7957 49.1095 75.8366 49.0712C75.8775 49.0329 75.9315 49.0117 75.9875 49.0117C76.0436 49.0117 76.0975 49.0329 76.1384 49.0712C76.1794 49.1095 76.2042 49.1619 76.208 49.2178V50.8118L77.637 50.8378V49.2128C77.635 49.1826 77.6392 49.1523 77.6493 49.1238C77.6595 49.0953 77.6754 49.0691 77.6961 49.047C77.7167 49.0249 77.7417 49.0073 77.7695 48.9952C77.7973 48.9832 77.8272 48.9769 77.8575 48.9769C77.8878 48.9769 77.9177 48.9832 77.9455 48.9952C77.9733 49.0073 77.9983 49.0249 78.019 49.047C78.0396 49.0691 78.0555 49.0953 78.0657 49.1238C78.0759 49.1523 78.08 49.1826 78.078 49.2128V50.8458L78.999 50.8618V48.4328C67.387 48.0138 56.168 47.5268 54.791 47.4668" fill="#75777B"/>
<path d="M134.601 48.9299C131.921 49.2529 127.071 49.3819 121.013 49.3819C110.779 49.3819 97.0947 49.0129 84.5977 48.5869C84.7305 48.745 84.8742 48.8937 85.0277 49.0319C85.0599 49.0052 85.099 48.9882 85.1405 48.9829C85.1821 48.9776 85.2242 48.9841 85.2621 49.0018C85.3001 49.0195 85.3322 49.0476 85.3548 49.0829C85.3773 49.1181 85.3894 49.1591 85.3897 49.2009V49.3079C85.5127 49.3754 85.6412 49.4326 85.7737 49.4789C86.1001 49.5893 86.4344 49.6749 86.7737 49.7349V49.2009C86.7737 49.1426 86.7968 49.0866 86.8381 49.0453C86.8794 49.0041 86.9353 48.9809 86.9937 48.9809C87.052 48.9809 87.108 49.0041 87.1492 49.0453C87.1905 49.0866 87.2137 49.1426 87.2137 49.2009V49.8169C87.6137 49.8869 88.0267 49.9569 88.4427 50.0519V49.2159C88.4427 49.1574 88.4659 49.1013 88.5072 49.06C88.5486 49.0186 88.6047 48.9954 88.6632 48.9954C88.7216 48.9954 88.7777 49.0186 88.8191 49.06C88.8604 49.1013 88.8837 49.1574 88.8837 49.2159V50.1629C89.0982 50.2222 89.3094 50.2927 89.5167 50.3739C89.7972 50.4815 90.0655 50.619 90.3167 50.7839V49.2129C90.3167 49.1546 90.3398 49.0986 90.3811 49.0574C90.4223 49.0161 90.4783 48.9929 90.5367 48.9929C90.595 48.9929 90.651 49.0161 90.6922 49.0574C90.7335 49.0986 90.7567 49.1546 90.7567 49.2129V51.0549L92.1387 51.0749V49.2129C92.1424 49.157 92.1673 49.1046 92.2082 49.0663C92.2492 49.0281 92.3031 49.0068 92.3592 49.0068C92.4152 49.0068 92.4691 49.0281 92.5101 49.0663C92.551 49.1046 92.5759 49.157 92.5797 49.2129V51.0819L93.8007 51.0999V49.2279C93.8007 49.1694 93.8239 49.1133 93.8652 49.072C93.9066 49.0306 93.9627 49.0074 94.0212 49.0074C94.0796 49.0074 94.1357 49.0306 94.1771 49.072C94.2184 49.1133 94.2417 49.1694 94.2417 49.2279V51.0999L95.5417 51.1179V49.6149C95.5417 49.5566 95.5648 49.5006 95.6061 49.4594C95.6474 49.4181 95.7033 49.3949 95.7617 49.3949C95.82 49.3949 95.876 49.4181 95.9172 49.4594C95.9585 49.5006 95.9817 49.5566 95.9817 49.6149V51.1289L97.3637 51.1469V49.6149C97.3637 49.5564 97.3869 49.5003 97.4282 49.459C97.4696 49.4176 97.5257 49.3944 97.5842 49.3944C97.6426 49.3944 97.6987 49.4176 97.7401 49.459C97.7814 49.5003 97.8047 49.5564 97.8047 49.6149V51.1529L99.0327 51.1679V49.6259C99.0364 49.57 99.0613 49.5176 99.1022 49.4793C99.1432 49.4411 99.1971 49.4198 99.2532 49.4198C99.3092 49.4198 99.3631 49.4411 99.4041 49.4793C99.445 49.5176 99.4699 49.57 99.4737 49.6259V51.1739L100.903 51.1909V49.6209C100.901 49.5907 100.905 49.5604 100.915 49.5319C100.925 49.5034 100.941 49.4772 100.962 49.4551C100.982 49.433 101.007 49.4154 101.035 49.4033C101.063 49.3913 101.093 49.3851 101.123 49.3851C101.153 49.3851 101.183 49.3913 101.211 49.4033C101.239 49.4154 101.264 49.433 101.285 49.4551C101.305 49.4772 101.321 49.5034 101.331 49.5319C101.342 49.5604 101.346 49.5907 101.344 49.6209V51.1999L102.725 51.2149V49.6249C102.725 49.5664 102.748 49.5103 102.789 49.469C102.831 49.4276 102.887 49.4044 102.945 49.4044C103.004 49.4044 103.06 49.4276 103.101 49.469C103.142 49.5103 103.166 49.5664 103.166 49.6249V51.2249L104.395 51.2379V49.6379C104.395 49.5796 104.418 49.5236 104.459 49.4823C104.5 49.4411 104.556 49.4179 104.615 49.4179C104.673 49.4179 104.729 49.4411 104.77 49.4823C104.811 49.5236 104.835 49.5796 104.835 49.6379V51.2379L106.13 51.2509V49.6149C106.133 49.559 106.158 49.5066 106.199 49.4683C106.24 49.4301 106.294 49.4088 106.35 49.4088C106.406 49.4088 106.46 49.4301 106.501 49.4683C106.542 49.5066 106.567 49.559 106.571 49.6149V51.2499L107.955 51.2619V51.2359V49.6149C107.958 49.559 107.983 49.5066 108.024 49.4683C108.065 49.4301 108.119 49.4088 108.175 49.4088C108.231 49.4088 108.285 49.4301 108.326 49.4683C108.367 49.5066 108.392 49.559 108.396 49.6149V51.2359V51.2659L109.628 51.2749V51.2479V49.6259C109.631 49.57 109.656 49.5176 109.697 49.4793C109.738 49.4411 109.792 49.4198 109.848 49.4198C109.904 49.4198 109.958 49.4411 109.999 49.4793C110.04 49.5176 110.065 49.57 110.069 49.6259V51.2479V51.2779L111.505 51.2879C111.503 51.2726 111.503 51.2572 111.505 51.2419V49.6209C111.505 49.5624 111.528 49.5063 111.569 49.465C111.611 49.4236 111.667 49.4004 111.725 49.4004C111.784 49.4004 111.84 49.4236 111.881 49.465C111.922 49.5063 111.946 49.5624 111.946 49.6209V51.2419C111.947 51.2579 111.947 51.2739 111.946 51.2899L113.34 51.2969C113.335 51.279 113.332 51.2605 113.333 51.2419V49.6209C113.333 49.592 113.338 49.5634 113.349 49.5367C113.36 49.51 113.377 49.4858 113.397 49.4653C113.418 49.4449 113.442 49.4287 113.468 49.4177C113.495 49.4066 113.524 49.4009 113.553 49.4009C113.582 49.4009 113.61 49.4066 113.637 49.4177C113.664 49.4287 113.688 49.4449 113.708 49.4653C113.729 49.4858 113.745 49.51 113.756 49.5367C113.767 49.5634 113.773 49.592 113.773 49.6209V51.2419C113.773 51.2611 113.771 51.2803 113.766 51.2989L115.008 51.3039C115.004 51.2872 115.002 51.2701 115.002 51.2529V49.6319C115.005 49.576 115.03 49.5236 115.071 49.4853C115.112 49.4471 115.166 49.4258 115.222 49.4258C115.278 49.4258 115.332 49.4471 115.373 49.4853C115.414 49.5236 115.439 49.576 115.443 49.6319V51.2529C115.442 51.2705 115.44 51.2879 115.436 51.3049H116.449V50.2309C116.452 50.175 116.477 50.1226 116.518 50.0843C116.559 50.0461 116.613 50.0248 116.669 50.0248C116.725 50.0248 116.779 50.0461 116.82 50.0843C116.861 50.1226 116.886 50.175 116.89 50.2309V51.3079H118.271V50.2309C118.274 50.175 118.299 50.1226 118.34 50.0843C118.381 50.0461 118.435 50.0248 118.491 50.0248C118.547 50.0248 118.601 50.0461 118.642 50.0843C118.683 50.1226 118.708 50.175 118.712 50.2309V51.3079C119.128 51.3079 119.539 51.3079 119.941 51.3079V50.2419C119.941 50.213 119.946 50.1844 119.957 50.1577C119.968 50.131 119.985 50.1068 120.005 50.0863C120.026 50.0659 120.05 50.0497 120.076 50.0387C120.103 50.0276 120.132 50.0219 120.161 50.0219C120.19 50.0219 120.218 50.0276 120.245 50.0387C120.272 50.0497 120.296 50.0659 120.316 50.0863C120.337 50.1068 120.353 50.131 120.364 50.1577C120.375 50.1844 120.381 50.213 120.381 50.2419V51.2999L121.81 51.2929V50.2329C121.808 50.2027 121.812 50.1724 121.822 50.1439C121.832 50.1154 121.848 50.0892 121.869 50.0671C121.889 50.045 121.914 50.0274 121.942 50.0153C121.97 50.0033 122 49.9971 122.03 49.9971C122.06 49.9971 122.09 50.0033 122.118 50.0153C122.146 50.0274 122.171 50.045 122.192 50.0671C122.212 50.0892 122.228 50.1154 122.238 50.1439C122.249 50.1724 122.253 50.2027 122.251 50.2329V51.2899L123.633 51.2769V50.2369C123.631 50.2067 123.635 50.1764 123.645 50.1479C123.655 50.1194 123.671 50.0932 123.692 50.0711C123.712 50.049 123.737 50.0314 123.765 50.0193C123.793 50.0073 123.823 50.0011 123.853 50.0011C123.883 50.0011 123.913 50.0073 123.941 50.0193C123.969 50.0314 123.994 50.049 124.015 50.0711C124.035 50.0932 124.051 50.1194 124.061 50.1479C124.071 50.1764 124.076 50.2067 124.074 50.2369V51.2759C124.498 51.2706 124.907 51.2649 125.302 51.2589V50.2469C125.302 50.1884 125.325 50.1323 125.366 50.091C125.408 50.0496 125.464 50.0264 125.522 50.0264C125.581 50.0264 125.637 50.0496 125.678 50.091C125.719 50.1323 125.743 50.1884 125.743 50.2469V51.2469C127.854 51.2079 129.491 51.1469 130.509 51.0639C130.986 50.9499 131.409 50.8359 131.791 50.7179C132.5 50.5254 133.171 50.2143 133.777 49.7979C134.094 49.5622 134.371 49.2768 134.598 48.9529L134.618 48.9249" fill="#75777B"/>
<path d="M90.2664 51.5883C90.0765 51.4166 89.8647 51.271 89.6364 51.1553C89.2673 50.9736 88.8784 50.8353 88.4774 50.7433C87.6424 50.5353 86.7284 50.4433 85.9374 50.2263C85.4278 50.1151 84.9572 49.8696 84.5744 49.5153C84.3955 49.3516 84.2285 49.1755 84.0744 48.9883C83.9577 49.1843 83.7855 49.3412 83.5795 49.4393C83.3736 49.5374 83.1431 49.5722 82.9174 49.5393C82.6315 49.5348 82.3466 49.5037 82.0664 49.4463C82.1074 49.5283 82.1494 49.6063 82.1904 49.6823C82.4475 50.2004 82.8024 50.6639 83.2354 51.0473C83.449 51.2228 83.6903 51.3617 83.9494 51.4583C84.3247 51.588 84.7141 51.6726 85.1094 51.7103C85.5734 51.7683 86.0254 51.8313 86.4464 51.9053C86.9867 51.3983 87.7058 51.1261 88.4464 51.1483C89.0752 51.1516 89.6948 51.3005 90.2564 51.5833L90.2674 51.5883" fill="#75777B"/>
<path d="M89.2792 90.5781C89.2242 92.6701 89.1792 94.1781 89.1602 94.8191L89.8532 94.8361C90.0529 94.6489 90.2841 94.4982 90.5362 94.3911C90.9144 94.2317 91.3146 94.1305 91.7232 94.0911V91.5701C91.6302 91.5771 91.5232 91.5831 91.4012 91.5831C90.9914 91.6119 90.5812 91.5351 90.2097 91.36C89.8381 91.185 89.5177 90.9175 89.2792 90.5831" fill="#75777B"/>
<path d="M60.957 91.5879L67.18 91.6139L70.94 83.2139L64.714 83.3139L60.957 91.5879Z" fill="#C5C6C5"/>
<path d="M79.723 91.6658L83.6 83.0068L77.376 83.1068L73.5 91.6388" fill="#C5C6C5"/>
<path d="M88.2773 91.8992H88.5823C88.6243 90.3502 88.6763 88.3292 88.7293 86.0202L88.7353 85.7402L88.2773 86.7482V91.8992Z" fill="#C5C6C5"/>
<path d="M92.3848 91.4308L96.2458 82.7998L92.3848 82.8618V91.4308Z" fill="#C5C6C5"/>
<path d="M98.7891 91.7428L105.012 91.7688L109.199 82.5928L102.979 82.6928L98.7891 91.7428Z" fill="#C5C6C5"/>
<path d="M112.1 91.8H112.512L118.346 91.776L122.64 82.376L116.423 82.476L112.1 91.8Z" fill="#C5C6C5"/>
<path d="M130.699 82.2451L129.136 82.2701L124.699 91.8491H130.747L130.699 82.2451Z" fill="#C5C6C5"/>
<path d="M50.3281 90.0392L53.0401 90.4992L54.1071 90.6812L57.8371 83.2442L53.6261 82.7852L50.3281 90.0392Z" fill="#C5C6C5"/>
<path d="M88.2773 86.7499L88.7353 85.7409C88.7553 84.8389 88.7753 83.8992 88.7953 82.9219L88.2773 82.9309V86.7499Z" fill="#75777B"/>
<path d="M116.423 82.4766L109.204 82.5936L105.012 91.7686L112.102 91.7976L116.423 82.4766Z" fill="#75777B"/>
<path d="M96.2458 82.7994L92.3848 91.4284V91.7134L98.7908 91.7404L102.985 82.6904L96.2458 82.7994Z" fill="#75777B"/>
<path d="M59.6055 83.3935L59.6875 91.5815L60.9575 91.5875L64.7145 83.3115L59.6055 83.3935Z" fill="#75777B"/>
<path d="M77.3756 83.1064L70.9406 83.2064L67.1816 91.6064L73.5016 91.6324L77.3756 83.1064Z" fill="#75777B"/>
<path d="M122.642 82.3765L118.348 91.7765L112.514 91.8005L124.697 91.8505L129.137 82.2725L122.642 82.3765Z" fill="#75777B"/>
<path d="M79.7223 91.6658L76.7383 91.6528L86.0383 91.6908L86.0773 91.6048V82.9668L83.6013 83.0068L79.7223 91.6658Z" fill="#75777B"/>
<path d="M50.3008 82.4248V90.0358H50.3238L53.6238 82.7828L50.3008 82.4248Z" fill="#75777B"/>
<path d="M58.9444 83.3661L57.8374 83.2451L54.1074 90.6821L59.0264 91.5191L58.9444 83.3661Z" fill="#75777B"/>
<path d="M114.919 162.765L115.737 160.539L115.612 162.754L116.729 162.759L118.423 158.125L117.286 158.13L116.533 160.161L116.716 158.127L115.509 158.151L113.826 162.777L114.919 162.765Z" fill="white"/>
<path d="M118.088 162.765L119.781 158.127H118.671L116.979 162.762L118.088 162.765Z" fill="white"/>
<path d="M125.347 163.1L124.009 167.743L124.356 163.105H123.638L129.119 160.756L123.606 162.231L123.751 161.793L122.564 161.818L122.951 160.708H123.944L124.235 159.879L123.256 159.884L123.594 158.961H124.566L124.878 158.101L121.749 158.116L120.62 159.457L121.141 158.111L120.033 158.125L118.338 162.749L119.456 162.733L120.172 160.755L120.184 162.744H121.665L116.441 164.164C116.053 164.32 115.636 164.391 115.218 164.372C114.801 164.352 114.392 164.243 114.02 164.052C112.766 163.141 113.72 161.298 114.063 160.752C113.445 161.4 112.877 162.093 112.363 162.827C111.617 163.996 111.294 165.248 111.811 166.057C112.729 167.508 114.911 166.831 116.29 166.257L122.577 163.562L120.348 167.822L121.648 167.796L121.919 167.196H122.779L122.714 167.809H124L125.247 167.799L126.62 163.11L125.347 163.1ZM121.218 162.453L121.143 160.13L122.691 158.285L122.771 158.207L121.218 162.453ZM123.087 165.108L122.919 166.214L122.367 166.206L122.861 165.124C123.003 164.829 123.107 164.524 123.233 164.235H123.248C123.198 164.535 123.126 164.809 123.087 165.112" fill="white"/>
<path d="M128.061 163.09H126.833L125.486 167.79H126.752L127.125 166.537C127.184 166.307 127.243 166.08 127.305 165.837L127.461 167.785L128.823 167.776L128.443 165.818C128.704 165.727 128.938 165.573 129.125 165.37C129.312 165.167 129.447 164.921 129.517 164.654C129.86 163.399 129.169 163.086 128.061 163.083M128.244 164.663C128.214 164.824 128.131 164.97 128.009 165.078C127.887 165.187 127.732 165.252 127.569 165.263L127.485 165.271L127.831 164.117C128.171 164.079 128.375 164.248 128.244 164.668" fill="white"/>
<path d="M81.332 114.931V119.418H83.839L87.839 109.545H85.433L83.782 113.57V109.542H81.132L77.123 119.416L79.523 119.427C79.523 119.427 80.949 115.891 81.336 114.927" fill="white"/>
<path d="M87.451 119.418L91.451 109.542H89L85 119.42L87.451 119.418Z" fill="white"/>
<path d="M106.582 116.872L101.008 118.372L101.345 117.512H98.4452L99.3452 115.165H101.692L102.392 113.41H100.07L100.954 111.284H103.311L104.018 109.534H99.2052L95.2932 119.187L94.7392 114.339L99.1512 109.539H96.5132L93.8782 112.312L95.0172 109.54H93.3862C93.2489 109.615 93.0947 109.654 92.9382 109.652C92.8867 109.652 92.8353 109.649 92.7842 109.642C92.7086 109.632 92.634 109.615 92.5612 109.591L88.5752 119.411H91.0162L92.5712 115.454C92.5712 115.468 92.5992 115.748 92.9632 119.398L95.2032 119.409H97.1432L93.4432 120.373C89.2732 121.461 86.2612 122.246 84.3102 122.7C79.8592 123.742 78.6262 123.785 77.3712 122.944C76.3952 122.291 75.9612 121.178 76.0392 119.544C76.0881 118.879 76.2267 118.223 76.4512 117.595C76.5884 117.189 76.7507 116.791 76.9372 116.405C76.9912 116.29 77.0882 116.105 77.0882 116.105C77.0882 116.105 76.6512 116.513 76.2792 116.912C76.0592 117.149 75.9732 117.228 75.3712 117.912C74.7102 118.662 73.9712 119.501 73.2032 120.55C72.0889 121.905 71.3287 123.516 70.9912 125.237C70.8435 126.208 70.9546 127.201 71.3132 128.115C73.0662 131.568 76.6402 130.831 83.5012 128.007C87.3202 126.433 113.127 114.953 113.127 114.953L106.582 116.872Z" fill="white"/>
<path d="M121.356 63.5512L120.697 64.9712H120.89L121.06 64.5892H121.653L121.82 64.9712H122.014L121.364 63.5322L121.356 63.5512ZM121.132 64.4332C121.142 64.4112 121.345 63.9602 121.361 63.9262C121.376 63.9602 121.574 64.4112 121.583 64.4332H121.132Z" fill="white"/>
<path d="M127.052 63.9904C127.052 63.7344 126.879 63.6104 126.524 63.6104H126.246V64.9714H126.421V64.3824H126.521L126.941 64.9674H127.141H127.159L126.705 64.3614C126.801 64.3572 126.891 64.3156 126.957 64.2454C127.022 64.1753 127.058 64.0823 127.055 63.9864M126.529 64.2284H126.424V63.7624H126.524C126.709 63.7624 126.875 63.7804 126.875 63.9974C126.875 64.2144 126.699 64.2284 126.526 64.2284" fill="white"/>
<path d="M124.012 64.9714H124.188V63.6104H124.012V64.9714Z" fill="white"/>
<path d="M127.479 58.4237C127.529 58.4204 127.578 58.4024 127.618 58.372C127.658 58.3416 127.689 58.3001 127.706 58.2526C127.723 58.2051 127.726 58.1536 127.714 58.1045C127.702 58.0555 127.676 58.0109 127.639 57.9764C127.603 57.9418 127.556 57.9188 127.507 57.9101C127.457 57.9014 127.406 57.9075 127.359 57.9275C127.313 57.9475 127.274 57.9806 127.246 58.0227C127.218 58.0649 127.203 58.1142 127.203 58.1647C127.204 58.2 127.211 58.2348 127.226 58.267C127.24 58.2993 127.261 58.3283 127.286 58.3525C127.312 58.3766 127.342 58.3954 127.376 58.4076C127.409 58.4198 127.444 58.4253 127.479 58.4237ZM127.479 57.9507C127.521 57.9519 127.562 57.9655 127.597 57.9899C127.632 58.0143 127.658 58.0483 127.674 58.0877C127.689 58.1272 127.692 58.1702 127.683 58.2116C127.674 58.2529 127.653 58.2906 127.623 58.3201C127.592 58.3495 127.554 58.3693 127.512 58.377C127.471 58.3847 127.428 58.38 127.389 58.3634C127.35 58.3468 127.317 58.3191 127.293 58.2838C127.27 58.2484 127.258 58.207 127.258 58.1647C127.258 58.136 127.264 58.1076 127.275 58.0811C127.286 58.0547 127.303 58.0308 127.323 58.0108C127.344 57.9909 127.368 57.9753 127.395 57.9649C127.422 57.9546 127.45 57.9498 127.479 57.9507Z" fill="white"/>
<path d="M127.422 58.1856H127.477L127.559 58.3146H127.612L127.523 58.1836C127.569 58.1776 127.605 58.1556 127.605 58.1016C127.605 58.0476 127.568 58.0176 127.494 58.0176H127.375V58.3176H127.422V58.1856ZM127.422 58.0556H127.487C127.52 58.0556 127.555 58.0626 127.555 58.0996C127.555 58.1366 127.519 58.1476 127.479 58.1476H127.422V58.0556Z" fill="white"/>
<path d="M121.843 62.6878L129.621 59.4878L126.275 60.3498L126.375 60.0918H125.65L125.897 59.4438H126.487L126.666 58.9648H126.079L126.279 58.4248H126.866L127.059 57.9248H125.159L124.472 58.7138L124.788 57.9248H124.112L123.089 60.6398H123.764L124.201 59.4808L124.209 60.6398H125.156L121.937 61.4698C121.702 61.559 121.45 61.5989 121.199 61.5868C120.947 61.5748 120.7 61.5111 120.474 61.3998C119.71 60.8598 120.289 59.7798 120.5 59.4578C120.122 59.8355 119.775 60.2443 119.464 60.6798C119.238 60.9327 119.086 61.2436 119.025 61.5779C118.965 61.9121 118.999 62.2566 119.122 62.5728C119.675 63.4278 121 63.0368 121.843 62.6878ZM124.838 60.4708L124.787 59.1128L125.736 58.0248L125.784 57.9848L124.838 60.4708Z" fill="white"/>
<path d="M122.937 60.6398L123.972 57.9268H123.295L122.26 60.6398H122.937Z" fill="white"/>
<path d="M121.023 60.6398L121.523 59.3398L121.441 60.6398H122.11L123.146 57.9268H122.467L122.008 59.1178L122.115 57.9268H121.385L120.355 60.6398H121.023Z" fill="white"/>
<path d="M82.9635 18.9297C82.7465 19.0297 82.5125 19.1477 82.2715 19.2697H82.2795C82.6925 19.4977 83.2905 19.8127 84.0335 20.1957C85.2685 20.8317 86.9075 21.6567 88.7735 22.5827L97.8355 27.0087C99.8475 27.9757 101.835 28.9207 103.659 29.7737C103.708 29.7723 103.756 29.7812 103.801 29.7997L108.19 31.7357C108.232 31.7548 108.269 31.7824 108.299 31.8169C108.33 31.8514 108.352 31.8919 108.365 31.9357C109.743 32.5477 110.823 33.0017 111.457 33.2247C112.243 33.5165 113.073 33.6721 113.91 33.6847C114.881 33.7032 115.832 33.4171 116.631 32.8667C116.893 32.6846 117.131 32.4714 117.34 32.2317L113.372 30.3997L112.96 30.2337C112.911 30.2164 112.86 30.2083 112.807 30.2097C112.634 30.2187 112.465 30.2611 112.307 30.3347C112.107 30.4219 111.913 30.5263 111.73 30.6467C111.492 30.8 111.263 30.9687 111.046 31.1517L111 31.1887L110.944 31.2107C110.704 31.3019 110.457 31.3757 110.205 31.4317C109.959 31.707 109.622 31.8842 109.256 31.9308C108.89 31.9774 108.519 31.8902 108.212 31.6852C107.904 31.4802 107.682 31.1713 107.584 30.8151C107.486 30.459 107.521 30.0796 107.68 29.7467C107.68 29.6887 107.68 29.6407 107.68 29.6047C107.68 29.5687 107.68 29.5437 107.68 29.5377V29.4967L107.693 29.4557C107.756 29.2737 107.834 29.0977 107.927 28.9297C108.085 28.6402 108.288 28.3776 108.527 28.1517L108.012 27.9147C107.928 27.9454 107.847 27.9846 107.77 28.0317C107.576 28.1516 107.395 28.2906 107.228 28.4467C106.998 28.6585 106.782 28.8868 106.584 29.1297L106.527 29.2017L106.441 29.2337C106.221 29.315 105.996 29.3819 105.767 29.4337C105.53 29.6744 105.219 29.8296 104.884 29.8752C104.549 29.9207 104.208 29.8541 103.914 29.6855C103.621 29.517 103.392 29.2561 103.262 28.9435C103.133 28.6309 103.11 28.2843 103.198 27.9577C103.183 27.8474 103.174 27.7361 103.172 27.6247C103.172 27.5867 103.172 27.5627 103.172 27.5567V27.5157L103.185 27.4747C103.248 27.2929 103.326 27.1169 103.419 26.9487C103.594 26.6273 103.824 26.3398 104.099 26.0997L103.534 25.8387C103.403 25.9329 103.277 26.0351 103.157 26.1447C102.927 26.3571 102.712 26.5853 102.513 26.8277L102.456 26.8997L102.37 26.9307C102.126 27.024 101.875 27.0995 101.619 27.1567C101.371 27.4152 101.039 27.5783 100.683 27.6178C100.326 27.6573 99.9669 27.5707 99.6675 27.3729C99.3682 27.1752 99.1475 26.8788 99.044 26.5354C98.9404 26.1919 98.9604 25.823 99.1005 25.4927C99.1005 25.4277 99.0955 25.3737 99.0945 25.3367C99.0935 25.2997 99.0945 25.2747 99.0945 25.2697V25.2277L99.1075 25.1877C99.1692 25.0052 99.2476 24.8288 99.3415 24.6607C99.4553 24.4587 99.5894 24.2687 99.7415 24.0937L99.2415 23.8657C99.0393 24.0584 98.849 24.2631 98.6715 24.4787L98.6145 24.5497L98.5285 24.5827C98.3095 24.6631 98.0857 24.7299 97.8585 24.7827C97.6318 25.1047 97.2899 25.3273 96.9036 25.4044C96.5174 25.4814 96.1163 25.4071 95.7833 25.1966C95.4504 24.9862 95.211 24.6559 95.1148 24.274C95.0186 23.892 95.0729 23.4877 95.2665 23.1447C95.2615 23.0737 95.2605 23.0157 95.2595 22.9727C95.2585 22.9297 95.2595 22.9117 95.2595 22.9057V22.8647L95.2725 22.8237C95.3346 22.6417 95.4129 22.4657 95.5065 22.2977C95.5285 22.2577 95.5575 22.2117 95.5835 22.1687L94.6835 21.7547C94.5615 21.8907 94.4835 21.9897 94.4665 22.0067L94.4095 22.0787L94.3235 22.1097C94.1955 22.1587 94.0745 22.1987 93.9555 22.2347C93.8564 22.4413 93.7159 22.6253 93.5427 22.7753C93.3695 22.9253 93.1673 23.0381 92.9487 23.1067C92.7301 23.1753 92.4997 23.1981 92.2718 23.1739C92.044 23.1496 91.8236 23.0787 91.6243 22.9657C91.425 22.8526 91.251 22.6998 91.1133 22.5167C90.9756 22.3336 90.877 22.1241 90.8236 21.9013C90.7703 21.6784 90.7633 21.447 90.8032 21.2214C90.8431 20.9957 90.929 20.7807 91.0555 20.5897C91.0555 20.5577 91.0555 20.5277 91.0555 20.5067C91.0555 20.4677 91.0555 20.4437 91.0555 20.4387V20.3967L91.0685 20.3567C91.0685 20.3487 91.0995 20.2567 91.1575 20.1267L90.2435 19.7047C90.1915 19.7517 90.1575 19.7837 90.1485 19.7927L90.1155 19.8247L90.0755 19.8467C89.6645 20.0799 89.2214 20.2514 88.7605 20.3557C88.4708 20.661 88.0766 20.8458 87.6566 20.8731C87.2366 20.9004 86.8218 20.7683 86.495 20.503C86.1683 20.2378 85.9536 19.859 85.894 19.4423C85.8344 19.0257 85.9342 18.6019 86.1735 18.2557C85.9662 18.2085 85.7541 18.1861 85.5415 18.1887C85.2085 18.1922 84.8768 18.2298 84.5515 18.3007C83.9999 18.4494 83.4654 18.6552 82.9565 18.9147" fill="white"/>
<path d="M94.5518 41.924C94.6468 41.267 94.8432 40.6288 95.1338 40.032C95.995 38.3125 97.3411 36.8829 99.0058 35.92C100.776 34.2826 102.225 32.3296 103.28 30.161L88.7888 23.084C88.4115 24.0098 87.9485 24.8983 87.4058 25.738C86.2142 27.6771 84.5287 29.2646 82.5218 30.338C82.4828 30.358 82.4448 30.381 82.4058 30.401C82.8388 30.507 83.1458 30.58 83.2848 30.61C84.4072 30.854 85.5513 30.9847 86.6998 31C87.4584 31.0281 88.2155 30.9121 88.9308 30.658C89.4934 30.454 89.9814 30.0849 90.3308 29.599C90.5537 29.2436 90.6693 28.8315 90.6638 28.412C90.6688 28.112 90.6698 27.773 90.6698 27.45C90.6698 27.127 90.6698 26.822 90.6698 26.598C90.6698 26.43 90.6698 26.308 90.6698 26.257C90.6639 26.2166 90.6609 26.1758 90.6608 26.135C90.6597 26.0477 90.6757 25.9611 90.7078 25.88C90.7563 25.7575 90.8486 25.6573 90.9668 25.599C91.0531 25.5584 91.1474 25.5378 91.2428 25.539C91.3548 25.5411 91.4658 25.5607 91.5718 25.597C91.7378 25.6557 91.8984 25.7287 92.0518 25.815C92.2308 25.915 92.4278 26.027 92.6318 26.156C93.0398 26.412 93.4738 26.714 93.8218 26.982C94.0189 27.129 94.205 27.29 94.3788 27.464C94.7613 27.8892 95.1069 28.3461 95.4118 28.83C95.8379 29.4695 96.1706 30.1665 96.3998 30.9C96.5273 31.371 96.5905 31.857 96.5878 32.345C96.5899 32.8989 96.5107 33.4501 96.3528 33.981C96.2137 34.4785 95.9587 34.936 95.6088 35.316C95.1338 35.7965 94.5464 36.1509 93.8998 36.347C93.1122 36.5773 92.2963 36.6961 91.4758 36.7H91.3578C90.4914 36.6659 89.6284 36.5727 88.7748 36.421C87.6278 36.239 86.2238 35.971 84.6668 35.621C83.5048 35.364 82.2578 35.063 80.9668 34.721C81.0948 35.696 81.1978 36.421 81.2518 36.756C81.3158 37.143 81.3878 37.723 81.4848 38.436C81.5628 39.013 81.6588 39.678 81.7748 40.388C86.9828 40.918 92.4748 41.637 94.5468 41.914" fill="white"/>
<path d="M75.9844 39.8995C76.8594 39.9555 77.8044 40.0295 78.7894 40.1155C78.5284 38.5935 78.2894 36.9995 78.0804 35.4005C78.0714 35.3295 78.0624 35.2575 78.0524 35.1865C77.9654 35.3405 77.8754 35.4955 77.7944 35.6485C77.0723 37.012 76.4669 38.4341 75.9844 39.8995Z" fill="white"/>
<path d="M60.7127 16.6129C60.5761 16.5684 60.4333 16.5461 60.2897 16.5469C60.0362 16.5518 59.7862 16.6075 59.5547 16.7109C60.0457 16.7609 60.5137 16.9446 60.9077 17.2419C61.46 17.6704 61.8691 18.2566 62.0807 18.9229C62.4959 20.1141 63.1803 21.1934 64.0807 22.0769C64.2807 22.2299 64.4537 22.3689 64.6067 22.4869C64.8497 22.6749 65.0337 22.8129 65.1217 22.8739L65.1597 22.8989C65.2187 22.9309 65.2697 22.9659 65.3287 23.0049C65.3877 23.0439 65.4507 23.0869 65.5287 23.1339C65.7172 23.2522 65.9152 23.3545 66.1207 23.4399C66.8784 23.7293 67.686 23.8653 68.4967 23.8399C69.3642 23.8302 70.2288 23.7378 71.0787 23.5639C72.7309 23.171 74.3312 22.5853 75.8467 21.8189C76.1327 21.6839 76.4197 21.5449 76.7047 21.4039C76.6837 21.0769 76.6637 20.7969 76.6497 20.5709C76.2437 20.7909 75.8847 20.9829 75.5937 21.1329C75.3217 21.2719 75.1137 21.3739 74.9577 21.4329C74.7147 21.5329 74.3577 21.6819 73.9257 21.8579C73.4937 22.0339 72.9717 22.2319 72.3877 22.4179C71.054 22.8613 69.6601 23.0974 68.2547 23.1179C68.1117 23.1179 67.9677 23.1179 67.8237 23.1089C67.1302 23.0827 66.4537 22.8867 65.8537 22.5379C65.3087 22.2156 64.8219 21.8039 64.4137 21.3199C63.7684 20.5213 63.2208 19.6485 62.7827 18.7199C62.6907 18.5419 62.6127 18.3989 62.5587 18.3199C62.3419 17.9523 62.0925 17.605 61.8137 17.2819C61.5107 16.9692 61.1316 16.7408 60.7137 16.6189" fill="white"/>
<path d="M79.8764 18.832L79.4844 19.039C79.4844 19.121 79.4844 19.206 79.4844 19.297C79.4844 19.497 79.4894 19.727 79.4964 19.97L80.7414 19.314C81.7314 18.795 82.6184 18.343 83.3414 18.037C83.6902 17.8802 84.0532 17.757 84.4254 17.669C84.7947 17.5888 85.1714 17.5469 85.5494 17.544C85.9243 17.5344 86.2976 17.5962 86.6494 17.726C86.8403 17.5487 87.0406 17.3818 87.2494 17.226C87.2974 17.19 87.3494 17.155 87.3984 17.119C86.8108 16.7984 86.1527 16.629 85.4834 16.626C85.0857 16.6267 84.6902 16.6853 84.3094 16.8C83.6355 17.018 82.9779 17.2833 82.3414 17.594C81.5714 17.953 80.7204 18.386 79.8764 18.83" fill="white"/>
<path d="M85.2743 54.3582C85.3191 54.3613 85.3641 54.3553 85.4065 54.3405C85.4489 54.3257 85.4879 54.3024 85.521 54.2721C85.5541 54.2418 85.5807 54.205 85.5992 54.1641C85.6177 54.1232 85.6276 54.0789 85.6284 54.034C85.6293 53.9891 85.6209 53.9445 85.604 53.9029C85.587 53.8613 85.5617 53.8236 85.5297 53.7921C85.4977 53.7606 85.4596 53.7359 85.4178 53.7196C85.3759 53.7033 85.3312 53.6957 85.2863 53.6972L60.9863 53.2432L85.2673 54.3582H85.2743Z" fill="white"/>
<path d="M88.3242 133.694C88.4088 133.688 88.4879 133.65 88.5451 133.587C88.6022 133.524 88.6331 133.442 88.6313 133.357C88.6295 133.272 88.5952 133.191 88.5354 133.131C88.4756 133.071 88.395 133.036 88.3102 133.033L61.9102 133.606L88.3172 133.694H88.3242Z" fill="white"/>
<path d="M122.715 111.316L122.215 128.639V128.683C122.222 128.845 122.292 128.997 122.411 129.107C122.53 129.216 122.688 129.274 122.85 129.267C123.011 129.261 123.164 129.19 123.273 129.071C123.383 128.952 123.441 128.794 123.434 128.632L122.715 111.316Z" fill="white"/>
<path d="M60.8312 55.626L60.5312 78.907V78.939C60.5337 79.0195 60.552 79.0988 60.5852 79.1722C60.6184 79.2457 60.6659 79.3118 60.7248 79.3668C60.7837 79.4218 60.853 79.4645 60.9285 79.4926C61.0041 79.5207 61.0844 79.5335 61.165 79.5303C61.2455 79.5271 61.3246 79.508 61.3977 79.4741C61.4708 79.4402 61.5365 79.3921 61.5909 79.3327C61.6453 79.2732 61.6874 79.2036 61.7148 79.1278C61.7421 79.052 61.7542 78.9715 61.7502 78.891L60.8312 55.626Z" fill="white"/>
<path d="M59.2227 144.716L59.5707 168.016V168.048C59.5745 168.129 59.5945 168.208 59.6294 168.282C59.6643 168.355 59.7135 168.42 59.7741 168.474C59.8346 168.528 59.9053 168.57 59.9821 168.596C60.0588 168.622 60.14 168.633 60.221 168.628C60.3019 168.622 60.381 168.601 60.4535 168.564C60.526 168.528 60.5905 168.477 60.6433 168.416C60.6961 168.354 60.736 168.283 60.7608 168.205C60.7856 168.128 60.7947 168.047 60.7877 167.966L59.2227 144.716Z" fill="white"/>
<path d="M107.299 133.599L130.615 133.026L107.292 132.938H107.283C107.199 132.945 107.119 132.983 107.062 133.046C107.005 133.109 106.975 133.192 106.977 133.277C106.979 133.362 107.013 133.442 107.073 133.503C107.133 133.563 107.214 133.597 107.299 133.599Z" fill="white"/>
<path d="M101.019 54.9462L130.065 55.4002L101.037 54.2852H101.029C100.945 54.2884 100.865 54.3239 100.805 54.3845C100.746 54.4451 100.712 54.5262 100.711 54.6109C100.71 54.6957 100.741 54.7777 100.798 54.84C100.856 54.9024 100.935 54.9404 101.019 54.9462Z" fill="white"/>
<path d="M78.5615 42.148L55.0455 41.139C54.9579 41.1353 54.8725 41.1665 54.808 41.2257C54.7435 41.285 54.7052 41.3674 54.7015 41.455C54.6978 41.5425 54.729 41.6279 54.7882 41.6924C54.8475 41.7569 54.9299 41.7953 55.0175 41.799L78.5335 42.808C78.5768 42.8098 78.6201 42.8031 78.6608 42.7882C78.7016 42.7733 78.739 42.7506 78.7709 42.7212C78.8029 42.6919 78.8287 42.6565 78.847 42.6172C78.8653 42.5779 78.8756 42.5353 78.8775 42.492C78.8793 42.4486 78.8726 42.4054 78.8577 42.3646C78.8428 42.3239 78.8201 42.2865 78.7907 42.2545C78.7614 42.2226 78.726 42.1967 78.6867 42.1784C78.6474 42.1602 78.6048 42.1498 78.5615 42.148Z" fill="white"/>
<path d="M130.21 45.068C131.632 44.8574 133.014 44.4339 134.31 43.812C134.384 43.7678 134.437 43.6969 134.459 43.6141C134.482 43.5314 134.471 43.4433 134.429 43.3683C134.388 43.2933 134.319 43.2374 134.237 43.2121C134.155 43.1869 134.067 43.1944 133.99 43.233C132.756 43.8193 131.442 44.2187 130.09 44.418C127.179 44.8976 124.239 45.1905 121.29 45.295C118.136 45.445 114.976 45.479 112.447 45.479C110.408 45.479 108.78 45.457 107.888 45.456C107.13 45.456 105.972 45.39 104.643 45.29C100.656 44.99 95.1164 44.369 93.8284 44.216C92.9744 44.116 90.3024 43.75 87.8514 43.416L84.5864 42.962L83.5494 42.817L83.1614 42.763C83.0747 42.7508 82.9866 42.7735 82.9167 42.8262C82.8467 42.8789 82.8006 42.9573 82.7884 43.044C82.7762 43.1307 82.7989 43.2187 82.8516 43.2887C82.9043 43.3586 82.9827 43.4048 83.0694 43.417C83.0694 43.417 85.3074 43.731 87.7604 44.07C90.2134 44.409 92.8804 44.77 93.7504 44.877C94.6204 44.984 97.3654 45.289 100.29 45.577C101.752 45.719 103.258 45.855 104.59 45.956C105.922 46.057 107.09 46.123 107.883 46.124C108.767 46.124 110.4 46.147 112.443 46.147C115.824 46.147 120.331 46.087 124.465 45.77C126.389 45.6366 128.305 45.4046 130.204 45.075" fill="white"/>
<path d="M108.326 38.4609C108.413 38.5337 108.504 38.6005 108.599 38.6609C108.787 38.7896 108.983 38.9062 109.186 39.0099C109.392 39.0999 109.596 39.2099 109.809 39.2839C110.02 39.3672 110.234 39.44 110.452 39.5019C110.668 39.5659 110.885 39.6349 111.105 39.6809C111.544 39.7859 111.988 39.8559 112.432 39.9269C113.32 40.0355 114.213 40.0946 115.107 40.1039C115.993 40.1232 116.881 40.1255 117.77 40.1109C119.547 40.0835 121.321 39.9529 123.082 39.7199C124.85 39.5143 126.581 39.0703 128.229 38.3999C126.535 38.8823 124.794 39.184 123.035 39.2999C122.16 39.3749 121.28 39.4249 120.401 39.4509C119.522 39.4769 118.642 39.4939 117.763 39.4949C116.003 39.4849 114.234 39.4719 112.507 39.3079C112.074 39.2619 111.641 39.2169 111.215 39.1389C110.999 39.1129 110.789 39.0659 110.576 39.0239C110.363 38.9819 110.156 38.9239 109.946 38.8739C109.736 38.8239 109.535 38.7499 109.326 38.6889C109.126 38.6079 108.92 38.5419 108.726 38.4429C108.324 38.2751 107.97 38.0106 107.695 37.6729C107.78 37.8832 107.908 38.0733 108.071 38.2309C108.149 38.3143 108.234 38.3919 108.323 38.4629" fill="white"/>
<path d="M85.1772 32.5664C85.6116 32.6503 86.0503 32.71 86.4913 32.7454C86.9351 32.7859 87.3815 32.7919 87.8263 32.7634C88.7394 32.74 89.6303 32.4765 90.4093 31.9994C90.7971 31.7503 91.1252 31.4188 91.3703 31.0284C91.6041 30.6454 91.7573 30.2187 91.8203 29.7744C91.65 30.17 91.4258 30.5402 91.1543 30.8744C90.8845 31.1903 90.5587 31.4538 90.1933 31.6514C89.8288 31.8493 89.4412 32.0011 89.0393 32.1034C88.63 32.2036 88.2133 32.2705 87.7933 32.3034C86.938 32.3601 86.0793 32.3373 85.2283 32.2354C84.3644 32.1386 83.506 31.9984 82.6562 31.8154C83.4682 32.1536 84.3131 32.4066 85.1772 32.5704" fill="white"/>
<path d="M57.2446 21.8403C57.3356 21.5403 57.4506 21.2613 57.5586 20.9743C57.7702 20.4015 58.0263 19.8461 58.3246 19.3133C58.4737 19.0505 58.6482 18.803 58.8456 18.5743C59.0324 18.3336 59.2908 18.1585 59.5836 18.0743C59.4235 18.0667 59.2642 18.1011 59.1216 18.1743C58.9763 18.2459 58.84 18.3345 58.7156 18.4383C58.5932 18.5428 58.4777 18.655 58.3696 18.7743C58.2632 18.8947 58.163 19.0205 58.0696 19.1513C57.9816 19.2833 57.8856 19.4123 57.8076 19.5513L57.5776 19.9683C57.5036 20.1083 57.4456 20.2553 57.3776 20.3983C57.3096 20.5413 57.2476 20.6863 57.1946 20.8343C56.9693 21.4202 56.7872 22.0218 56.6496 22.6343C56.5068 23.2436 56.4065 23.8621 56.3496 24.4853C56.5676 23.8973 56.7406 23.3013 56.9386 22.7153C57.0386 22.4153 57.1306 22.1283 57.2386 21.8383" fill="white"/>
<path d="M93.0785 96.0657L93.1155 97.0017C93.1355 97.6247 93.1735 98.2477 93.2045 98.8717C93.2815 100.118 93.3665 101.363 93.5115 102.61H93.5515C93.6075 101.357 93.6035 100.103 93.5915 98.8497C93.5775 98.2237 93.5715 97.5967 93.5475 96.9707L93.5175 96.0307C93.5052 95.8497 93.4397 95.6763 93.3292 95.5324C93.2187 95.3885 93.0682 95.2804 92.8965 95.2217C92.9788 95.4986 93.0397 95.7814 93.0785 96.0677" fill="white"/>
<path d="M90.1946 52.9635C90.3216 53.2663 90.4149 53.5823 90.4726 53.9055C90.5286 54.2329 90.5574 54.5644 90.5586 54.8965C90.6046 56.2705 90.6476 57.6455 90.7056 59.0205C90.7636 60.3955 90.8346 61.7685 90.8986 63.1425C90.9286 63.8295 90.9706 64.5165 91.0136 65.2025C91.0566 65.8885 91.0956 66.5765 91.1476 67.2625H91.1876C91.1966 66.5745 91.1936 65.8865 91.1926 65.1985C91.1916 64.5105 91.1926 63.8215 91.1776 63.1345C91.1546 61.7585 91.1486 60.3825 91.1106 59.0075C91.0726 57.6325 91.0386 56.2575 90.9976 54.8825C90.9989 54.526 90.9623 54.1703 90.8886 53.8215C90.8094 53.47 90.6843 53.1304 90.5166 52.8115C90.1912 52.1772 89.6834 51.6548 89.0586 51.3115C89.5466 51.7788 89.9333 52.3415 90.1946 52.9645" fill="white"/>
<path d="M125.812 92.6494L126.312 105.131L130.349 108.071L129.949 96.9714L125.812 92.6494Z" fill="#B32625"/>
</g>
<defs>
<clipPath id="clip0_20_1998">
<rect width="188" height="188" fill="white"/>
</clipPath>
</defs>
</svg>
