<svg width="313" height="239" viewBox="0 0 313 239" fill="none" xmlns="http://www.w3.org/2000/svg">
<path d="M138.38 57.6889C129.025 57.0617 96.379 57.8109 100.316 73.4123C101.686 78.4172 110.368 87.0596 114.171 90.9313C147.268 122.827 183.245 150.097 218.717 177.688C204.298 167.039 189.95 156.225 175.674 145.246C154.326 128.599 132.889 111.944 112.802 92.9103C109.416 89.6987 106.167 86.2857 103.075 82.6919C100.778 79.892 98.037 76.4904 97.2934 72.7444C94.1857 57.2779 116.35 54.3912 126.038 53.4478C129.859 53.1089 133.738 53.0017 137.659 53.1269C137.921 53.1343 138.19 53.2023 138.451 53.3269C138.713 53.4515 138.961 53.6301 139.182 53.8524C139.403 54.0747 139.592 54.3361 139.738 54.6213C139.884 54.9065 139.984 55.2098 140.032 55.5134C140.08 55.817 140.075 56.1148 140.017 56.3894C139.96 56.6639 139.851 56.9097 139.697 57.1123C139.544 57.3149 139.348 57.4703 139.122 57.5693C138.895 57.6683 138.643 57.7089 138.38 57.6888" fill="#FF0000"/>
<path d="M217.628 175.151C196.503 152.747 173.487 131.001 153.13 107.687C147.406 101.075 141.774 94.2216 137.595 86.3426C135.864 83.1847 134.26 79.7316 134.53 76.3011C134.62 67.6933 140.057 61.7387 147.269 60.5397C150.062 60.0432 152.984 59.9995 155.954 60.4097C150.15 59.8428 144.169 60.6805 140.095 64.5188C138.339 66.1492 137.019 68.2878 136.233 70.7776C135.448 73.2675 135.216 76.0457 135.554 78.9085C135.985 81.3217 137.276 83.633 138.506 85.8501C144.54 96.5178 153.107 105.298 161.282 114.037C175.067 128.481 190.97 143.664 205.272 157.601C210.203 162.407 215.129 167.224 219.993 172.196C220.207 172.415 220.387 172.671 220.525 172.95C220.662 173.228 220.754 173.524 220.794 173.819C220.835 174.115 220.823 174.404 220.76 174.67C220.697 174.936 220.583 175.174 220.427 175.37C220.27 175.565 220.073 175.715 219.846 175.81C219.62 175.905 219.37 175.944 219.109 175.923C218.849 175.903 218.583 175.824 218.329 175.691C218.075 175.559 217.836 175.375 217.627 175.15" fill="#FF0000"/>
</svg>
