<svg width="750" height="618" viewBox="0 0 750 618" fill="none" xmlns="http://www.w3.org/2000/svg">
<path d="M569.465 242.415C567.24 238.928 564.145 236.257 560.806 234.942C557.466 233.627 554.133 233.766 551.478 235.33L462.103 286.942L460.072 234.456C462.328 235.16 464.583 235.591 466.798 235.741C468.884 235.88 470.924 235.774 472.891 235.427C479.059 234.325 484.328 230.935 488.019 225.692C490.658 222.23 491.957 217.491 491.703 212.251L491.653 211.434C491.642 211.237 491.616 211.036 491.576 210.836L490.873 207.346L490.842 207.204C491.868 202.633 491.53 197.428 489.873 192.317C489.366 190.758 488.739 189.225 488.002 187.738C483.308 178.35 474.494 171.29 465.541 169.712C462.626 169.223 459.771 169.228 457.065 169.728L456.923 169.754C452.294 165.188 446.891 162.12 441.467 160.978C438.556 160.389 435.685 160.243 432.928 160.543C429.404 156.316 425.144 153.087 420.65 151.237C417.025 149.801 413.369 149.328 409.977 149.858C408.736 148.285 407.403 146.814 405.992 145.461C402.512 142.142 398.611 139.636 394.586 138.134C390.562 136.633 386.521 136.177 382.773 136.8C381.458 137.027 380.194 137.403 378.996 137.922C373.744 140.205 369.972 145.055 368.458 151.473C362.696 154.047 358.214 158.893 355.617 165.356C353.435 170.415 352.554 176.38 353.055 182.699C350.385 184.534 348.34 187.273 347.111 190.662C346.749 191.675 346.465 192.742 346.261 193.851L344.178 194.232C344.022 194.231 343.869 194.242 343.72 194.266L237.412 212.864C236.645 213 235.994 213.429 235.548 214.093C235.102 214.756 234.882 215.622 234.918 216.571L236.198 249.011C232.901 247.237 229.485 246.242 226.183 246.094C224.846 246.047 223.537 246.135 222.268 246.357C218.662 247.037 215.448 248.743 212.873 251.344C210.297 253.946 208.429 257.374 207.409 261.367C207.037 262.835 206.779 264.368 206.639 265.951C203.148 266.721 200.118 268.615 197.841 271.449C195.564 274.283 194.116 277.962 193.638 282.132C191.23 282.776 188.975 283.795 186.925 285.167C183.03 287.847 180.244 292.099 178.935 297.36C176.383 297.818 173.992 298.724 171.831 300.051C168.506 302.037 165.947 305.213 164.429 309.241C162.911 313.268 162.491 317.995 163.212 322.916L163.299 323.453C163.319 323.562 163.341 323.672 163.367 323.784L164.085 326.725C164.116 326.859 164.155 326.992 164.201 327.124L164.37 327.627C165.988 332.511 168.761 337.058 172.316 340.653L173.764 343.818C173.853 344.012 173.954 344.201 174.067 344.382L174.543 345.149C177.473 349.769 181.444 353.451 185.808 355.596C192.085 358.903 198.615 360.114 204.557 359.073C206.463 358.741 208.287 358.171 210.002 357.372C210.184 357.289 210.363 357.201 210.541 357.113C210.371 358.013 210.208 358.904 210.051 359.785L210.041 359.853C203.2 403.523 210.974 441.792 231.369 464.844C247.786 483.579 267.093 491.139 288.747 487.309C300.786 485.18 313.225 479.604 326.732 470.278C331.21 474.478 336.495 476.873 341.521 476.98C348.306 482.056 355.863 484.438 362.776 483.679L362.85 483.666L363.742 483.53L363.797 483.52C368.103 482.733 371.919 480.662 374.924 477.482C379.303 479.423 383.764 480.072 387.861 479.366L388.014 479.339L388.113 479.321L389.324 479.05L389.413 479.029C393.635 477.894 397.151 475.191 399.518 471.26C400.469 471.589 401.41 471.875 402.329 472.113C405.85 473.028 409.327 473.212 412.593 472.656C416.226 472.051 419.455 470.356 422.002 467.716C422.72 466.958 423.369 466.117 423.943 465.201C425.862 465.749 427.776 466.09 429.661 466.22C431.679 466.352 433.655 466.247 435.558 465.908C441.513 464.84 446.599 461.564 450.164 456.502C452.698 453.119 453.947 448.524 453.714 443.448L453.658 442.584C453.646 442.394 453.622 442.201 453.583 442.008L452.924 438.722C453.87 434.304 453.528 429.3 451.942 424.383C451.446 422.853 450.829 421.348 450.101 419.891C447.707 415.257 444.413 411.179 440.57 408.092C436.728 405.006 432.483 403.028 428.29 402.37C425.552 401.913 422.869 401.908 420.319 402.353C417.82 399.954 415.087 397.983 412.237 396.524L424.486 385.703C428.695 387.503 432.961 387.804 436.682 386.561C440.071 388.942 443.723 390.377 447.283 390.728C448.885 390.886 450.452 390.832 451.954 390.564C454.739 390.054 457.26 388.838 459.363 386.991C461.359 387.443 463.324 387.517 465.181 387.207L465.563 387.145L465.602 387.139C465.685 387.124 465.764 387.104 465.844 387.08L467.166 386.685L467.296 386.643L467.981 386.39L468.097 386.344C469.444 385.759 470.67 384.935 471.739 383.897C473.462 387.623 475.953 390.953 478.927 393.503C481.361 395.55 484.02 397.057 486.728 397.921C489.435 398.786 492.127 398.99 494.625 398.518C495.969 398.278 497.25 397.86 498.448 397.271L498.497 397.25C498.697 397.145 498.896 397.038 499.091 396.928C501.953 398.047 504.836 398.406 507.509 397.977L507.739 397.942L507.801 397.931L507.981 397.893L509.267 397.553C509.339 397.534 509.407 397.512 509.477 397.487C512.448 396.465 514.898 394.388 516.55 391.49C520.45 390.454 523.481 387.566 525.028 383.41C526.738 378.707 526.677 372.956 524.855 367.288C523.254 362.233 520.176 357.615 516.243 354.367C514.107 352.629 511.795 351.338 509.443 350.569C507.09 349.799 504.745 349.567 502.545 349.887L502.483 349.897L501.887 349.991L501.822 350.002C501.249 350.103 500.688 350.242 500.143 350.419C499.96 349.648 499.741 348.878 499.487 348.114C498.273 344.557 496.371 341.197 493.953 338.343C491.535 335.489 488.679 333.231 485.645 331.776L569.05 259.867C571.066 258.119 572.229 255.346 572.305 252.106C572.382 248.867 571.366 245.402 569.462 242.411" fill="#0D0002"/>
<path d="M375.245 250.351L378.099 241.594C377.136 241.416 376.169 241.07 375.234 240.567L375.245 250.351Z" fill="#D0CFCD"/>
<path d="M400.909 243.711C400.67 243.749 400.431 243.782 400.189 243.807C399.273 243.9 398.336 243.907 397.389 243.827L391.321 260.517L409.425 317.8L410.355 237.621C409.762 238.488 409.091 239.279 408.35 239.987C406.304 241.961 403.749 243.239 400.908 243.712" fill="#D0CFCD"/>
<path d="M567.272 243.987C565.556 241.297 563.169 239.237 560.595 238.223C558.02 237.209 555.45 237.317 553.404 238.526L460.845 292.003C460.774 292.045 460.697 292.073 460.615 292.089C460.473 292.113 460.32 292.095 460.167 292.036C460.014 291.977 459.867 291.879 459.736 291.749C459.606 291.62 459.497 291.463 459.418 291.291C459.339 291.119 459.292 290.937 459.281 290.761L457.029 232.643C456.971 232.246 456.986 231.86 457.074 231.512C457.162 231.164 457.32 230.863 457.537 230.628C457.618 230.572 457.71 230.537 457.81 230.523C458.274 230.469 458.763 230.514 459.256 230.656C461.6 231.47 463.95 231.962 466.254 232.119C468.145 232.245 469.994 232.149 471.777 231.832C477.382 230.835 482.171 227.753 485.523 222.986C487.787 220.044 488.912 216.009 488.715 211.54L488.662 210.707L487.957 207.211L487.689 206.387C488.843 202.264 488.634 197.437 487.098 192.693C486.663 191.361 486.126 190.05 485.493 188.779C481.42 180.63 473.724 174.482 465.861 173.098C463.239 172.663 460.67 172.671 458.236 173.124C457.873 173.188 457.513 173.262 457.156 173.344L457.12 173.351C456.972 173.377 456.81 173.357 456.65 173.291C456.49 173.226 456.337 173.117 456.205 172.976C451.945 168.463 446.836 165.424 441.697 164.348C438.677 163.737 435.709 163.654 432.89 164.102L431.886 163.611C428.672 159.418 424.639 156.214 420.351 154.447C417.068 153.147 413.758 152.757 410.71 153.312C410.462 153.356 410.217 153.4 409.977 153.458L409.943 153.464C409.768 153.496 409.575 153.464 409.388 153.371C409.201 153.278 409.028 153.128 408.891 152.94C407.541 151.093 406.049 149.384 404.445 147.847C401.368 144.906 397.918 142.686 394.358 141.354C390.798 140.022 387.224 139.614 383.907 140.162C382.761 140.361 381.658 140.688 380.612 141.14C378.217 142.176 376.15 143.835 374.535 146.018C372.919 148.201 371.788 150.864 371.206 153.85C371.178 153.992 371.123 154.118 371.044 154.219C370.965 154.321 370.863 154.395 370.747 154.439C365.171 156.689 360.836 161.231 358.38 167.393C356.262 172.316 355.499 178.176 356.174 184.353C356.195 184.551 356.171 184.738 356.105 184.898C356.039 185.057 355.933 185.183 355.798 185.262C353.138 186.81 351.105 189.342 349.931 192.568C349.509 193.754 349.213 195.024 349.049 196.356C349.027 196.542 348.96 196.705 348.857 196.829C348.753 196.953 348.616 197.033 348.458 197.062L344.846 197.731L344.839 197.681L238.486 216.299C238.3 216.332 238.142 216.436 238.034 216.597C237.925 216.758 237.872 216.968 237.88 217.198L239.302 252.975C239.312 253.205 239.259 253.415 239.151 253.575C239.043 253.736 238.886 253.839 238.7 253.871C238.476 253.91 238.225 253.845 237.997 253.686C234.394 251.183 230.501 249.769 226.757 249.602C225.593 249.559 224.454 249.636 223.351 249.832C220.173 250.434 217.342 251.94 215.074 254.237C212.807 256.534 211.163 259.56 210.269 263.083C209.843 264.776 209.587 266.563 209.505 268.416C209.498 268.623 209.438 268.808 209.333 268.95C209.228 269.091 209.082 269.183 208.912 269.216L208.898 269.218C208.776 269.24 208.655 269.261 208.535 269.282C205.561 269.795 202.928 271.211 200.864 273.407C198.314 276.225 196.775 280.131 196.452 284.606C196.437 284.8 196.376 284.973 196.274 285.105C196.172 285.238 196.033 285.325 195.872 285.358C193.316 285.905 190.935 286.912 188.802 288.348C185.123 290.877 182.58 295.004 181.563 300.097C181.53 300.263 181.459 300.407 181.357 300.515C181.255 300.623 181.125 300.693 180.978 300.718L180.954 300.722C180.705 300.76 180.456 300.801 180.209 300.844C177.85 301.242 175.642 302.064 173.651 303.286C170.755 305.006 168.523 307.762 167.195 311.261C165.867 314.759 165.493 318.869 166.112 323.15L166.198 323.658L166.908 326.6L167.076 327.101C168.564 331.618 171.208 335.788 174.591 338.954L174.787 339.553L176.287 342.832L176.764 343.6C179.272 347.524 182.658 350.645 186.375 352.456C192.055 355.447 197.963 356.542 203.339 355.599C205.057 355.3 206.701 354.787 208.247 354.068C210.015 353.245 211.641 352.156 213.094 350.82C213.188 350.73 213.304 350.672 213.434 350.65C213.649 350.614 213.888 350.673 214.108 350.818L214.124 350.827C214.354 350.981 214.546 351.219 214.663 351.494C214.781 351.769 214.814 352.06 214.757 352.312C214.075 355.433 213.487 358.394 212.967 361.339C206.327 403.776 213.693 440.759 233.13 462.738C248.654 480.454 266.973 487.597 287.579 483.95C299.608 481.821 312.202 476.073 325.886 466.447C325.966 466.391 326.056 466.353 326.154 466.337C326.306 466.311 326.47 466.332 326.632 466.398C326.795 466.465 326.95 466.575 327.085 466.718C329.16 468.922 331.518 470.676 333.996 471.859C336.473 473.042 339.011 473.627 341.435 473.572C341.645 473.565 341.868 473.647 342.068 473.804C348.305 478.7 355.348 481.023 361.773 480.304L362.663 480.168C366.866 479.392 370.542 477.257 373.33 473.972C373.435 473.851 373.572 473.773 373.728 473.745C373.899 473.714 374.087 473.747 374.269 473.838C378.462 475.927 382.79 476.679 386.746 476.007L386.893 475.981L388.107 475.71C392.161 474.608 395.462 471.862 397.516 467.881C397.623 467.676 397.799 467.542 398.015 467.502C398.157 467.478 398.312 467.496 398.465 467.555C399.735 468.051 401.01 468.465 402.285 468.795C405.44 469.617 408.556 469.783 411.484 469.284C414.67 468.759 417.501 467.277 419.736 464.965C420.585 464.068 421.318 463.033 421.923 461.879C422.03 461.675 422.207 461.542 422.422 461.503C422.551 461.48 422.688 461.493 422.827 461.539C424.939 462.243 427.054 462.67 429.13 462.813C430.955 462.934 432.74 462.84 434.459 462.533C439.853 461.57 444.46 458.602 447.685 454.013C449.847 451.147 450.923 447.25 450.742 442.938L450.688 442.095L450 438.672L449.809 438.088C450.87 434.123 450.649 429.51 449.181 424.978C448.759 423.681 448.236 422.406 447.619 421.17C445.529 417.141 442.657 413.598 439.31 410.921C435.964 408.244 432.269 406.534 428.622 405.974C426.106 405.558 423.641 405.567 421.305 406.001C421.057 406.045 420.809 406.089 420.563 406.144L420.54 406.148C420.393 406.175 420.233 406.156 420.075 406.093C419.916 406.031 419.764 405.926 419.631 405.788C415.571 401.585 410.745 398.759 405.895 397.743C405.752 397.715 405.603 397.69 405.461 397.665L423.446 381.763C423.714 381.904 423.985 382.041 424.25 382.167C427.384 383.651 430.598 384.156 433.534 383.626C434.401 383.469 435.238 383.225 436.036 382.896L436.177 382.857C436.417 382.815 436.687 382.893 436.926 383.075C440.056 385.469 443.493 386.917 446.843 387.253C448.217 387.39 449.562 387.342 450.851 387.112C453.498 386.63 455.863 385.405 457.772 383.53C457.868 383.434 457.987 383.372 458.121 383.348C458.235 383.328 458.357 383.336 458.481 383.37C460.408 383.912 462.317 384.039 464.108 383.743L464.505 383.679L465.827 383.284L466.513 383.033C468.049 382.362 469.39 381.321 470.468 379.962C470.572 379.831 470.713 379.746 470.876 379.717L470.936 379.706C471.216 379.682 471.5 379.641 471.78 379.592C472.223 379.513 472.622 379.254 473.051 379.114C473.15 379.482 473.205 379.845 473.326 380.215C474.666 384.352 477.159 388.141 480.343 390.878C482.391 392.594 484.627 393.855 486.902 394.577C489.177 395.299 491.439 395.465 493.536 395.064C494.686 394.859 495.783 394.504 496.809 394.003C497.19 393.806 497.564 393.592 497.924 393.355C498 393.306 498.084 393.273 498.174 393.256C498.334 393.227 498.508 393.252 498.678 393.328C501.313 394.511 504 394.922 506.474 394.521L506.724 394.483L508.011 394.142L508.074 394.121C510.735 393.202 512.89 391.27 514.261 388.575C514.362 388.379 514.529 388.25 514.732 388.207C516.449 387.859 517.999 387.081 519.292 385.92C520.585 384.758 521.595 383.236 522.26 381.444C523.705 377.469 523.653 372.61 522.115 367.82C520.797 363.655 518.268 359.848 515.036 357.16C513.259 355.719 511.337 354.648 509.381 354.011C507.425 353.375 505.476 353.185 503.649 353.454L503.051 353.544C501.378 353.852 499.846 354.539 498.527 355.57C498.286 355.511 498.05 355.512 497.81 355.469L497.818 355.411C497.869 353.219 497.506 350.921 496.752 348.669C495.512 345.028 493.411 341.653 490.735 339.003C488.06 336.353 484.938 334.557 481.797 333.859C481.532 333.805 481.265 333.757 481.002 333.716C480.802 333.683 480.601 333.58 480.426 333.419C480.251 333.258 480.11 333.048 480.023 332.818C479.936 332.588 479.907 332.349 479.94 332.134C479.974 331.919 480.068 331.739 480.209 331.618L566.98 256.765C568.459 255.488 569.313 253.456 569.369 251.081C569.424 248.705 568.677 246.165 567.278 243.975M501.174 364.324C501.881 364.604 502.576 364.987 503.24 365.464C503.457 364.908 503.737 364.402 504.075 363.956C504.857 362.932 505.931 362.268 507.177 362.038C507.268 362.022 507.358 362.006 507.451 361.996C508.329 361.876 509.26 361.956 510.197 362.232C511.043 362.486 511.876 362.941 512.642 363.566C514.069 364.769 515.18 366.463 515.751 368.311C516.528 370.774 516.543 373.267 515.793 375.304C515.5 376.11 515.03 376.777 514.42 377.254C513.84 377.709 513.162 378.007 512.423 378.134C511.373 378.321 510.229 378.162 509.104 377.674C509.097 378.66 508.949 379.599 508.666 380.452C508.083 382.298 506.857 383.637 505.229 384.207C505.015 384.276 504.795 384.331 504.57 384.371C502.825 384.648 500.888 384.117 499.127 382.878C498.269 382.287 497.47 381.548 496.764 380.692C496.564 381.085 496.343 381.46 496.104 381.816C495.36 382.92 494.398 383.785 493.272 384.363C492.739 384.63 492.167 384.818 491.566 384.923C490.533 385.111 489.427 385.045 488.31 384.73C487.16 384.41 486.024 383.786 484.994 382.91C483.556 381.655 482.432 379.933 481.824 378.056C481.228 376.302 481.187 374.508 481.71 373.042C482.15 371.99 482.868 371.177 483.784 370.693C484.742 370.159 485.789 369.798 486.9 369.621C488.258 369.388 489.67 369.332 491.111 369.453C492.047 369.529 492.993 369.684 493.944 369.915C493.704 369.141 493.613 368.355 493.675 367.621C493.746 366.888 493.968 366.226 494.324 365.688C495.042 364.663 496.08 364.017 497.294 363.839C498.522 363.628 499.851 363.789 501.17 364.308M459.904 335.596C459.972 335.78 460.051 335.961 460.113 336.15C460.268 336.631 460.399 337.116 460.506 337.601C461.094 337.32 461.721 337.12 462.377 337.002C464.229 336.72 466.218 336.962 468.197 337.711C470.221 338.441 472.184 339.703 473.921 341.39C474.91 342.344 475.815 343.421 476.613 344.594C476.844 344.291 477.098 344.014 477.372 343.765C478.282 342.978 479.371 342.465 480.573 342.258C481.484 342.092 482.449 342.109 483.432 342.307C484.899 342.644 486.355 343.488 487.603 344.727C488.851 345.966 489.832 347.54 490.416 349.239C490.725 350.178 490.876 351.134 490.859 352.049C490.827 353.369 490.425 354.538 489.712 355.388C489.066 356.155 488.217 356.662 487.245 356.86C487.441 357.258 487.609 357.667 487.748 358.083C488.057 359.028 488.193 359.991 488.148 360.902C488.102 361.812 487.876 362.648 487.485 363.347C486.562 364.896 485.108 365.868 483.377 366.094L483.22 366.122C481.688 366.333 480.055 366.147 478.422 365.577C477.389 365.227 476.361 364.788 475.347 364.265C475.2 364.585 475.034 364.912 474.827 365.257C474.118 366.433 473.248 367.447 472.241 368.272C471.519 368.875 470.67 369.284 469.739 369.479C468.878 369.655 467.924 369.493 467.004 369.016C466.825 368.914 466.648 368.8 466.475 368.674C466.436 368.902 466.389 369.128 466.334 369.346C465.887 371.211 464.79 372.622 463.264 373.292C462.932 373.432 462.583 373.534 462.22 373.597C460.615 373.857 458.841 373.429 457.19 372.382C456.544 371.978 455.926 371.488 455.352 370.924C454.827 372.542 453.976 373.92 452.855 374.964C451.734 376.008 450.369 376.695 448.852 376.978C447.43 377.233 445.894 377.083 444.358 376.539C442.823 375.996 441.328 375.073 439.983 373.84C438.757 372.719 437.63 371.441 436.631 370.04C436.221 370.635 435.755 371.17 435.239 371.64C434.206 372.599 432.951 373.232 431.555 373.495C430.001 373.778 428.298 373.511 426.639 372.724C424.967 371.915 423.407 370.625 422.127 368.993L389.153 398.148C390.268 398.964 391.313 399.944 392.255 401.055C393.985 403.097 395.334 405.51 396.173 408.062C396.206 408.163 396.232 408.266 396.263 408.365C396.502 408.149 396.746 407.939 397.005 407.753C398.283 406.873 399.735 406.294 401.301 406.039C403.304 405.7 405.419 405.751 407.571 406.189C410.294 406.768 413.011 408.23 415.404 410.406C417.265 412.076 418.885 414.125 420.153 416.408C421.763 415.473 423.528 414.829 425.403 414.491C427.026 414.185 428.74 414.174 430.49 414.459C432.672 414.843 434.873 415.839 436.904 417.361C438.972 418.888 440.746 421.015 441.996 423.466C442.317 424.115 442.59 424.784 442.811 425.465C443.562 427.792 443.733 430.162 443.3 432.262C443.044 433.524 442.548 434.643 441.844 435.549L441.87 435.58C442.54 436.418 443.061 437.39 443.39 438.41C443.61 439.08 443.745 439.761 443.789 440.428C443.853 441.632 443.692 442.774 443.317 443.775C442.976 444.693 442.534 445.534 441.999 446.281C439.682 449.579 436.368 451.706 432.489 452.388C431.263 452.607 429.99 452.674 428.689 452.588C424.756 452.303 420.692 450.676 416.982 447.902C417.146 449.175 417.134 450.418 416.947 451.585C416.634 453.545 415.846 455.237 414.665 456.487C413.267 457.914 411.501 458.825 409.517 459.144C407.478 459.481 405.31 459.357 403.116 458.777C399.748 457.793 396.398 456.292 393.158 454.315C393.076 456.696 392.534 458.896 391.571 460.763C390.272 463.264 388.188 464.986 385.632 465.67C385.353 465.744 385.069 465.807 384.783 465.857C382.568 466.215 380.177 465.912 377.806 464.972C375.435 464.032 373.152 462.482 371.145 460.45C370.27 463.009 368.887 465.183 367.084 466.832C365.281 468.481 363.099 469.567 360.677 470.022C360.444 470.063 360.207 470.096 359.968 470.126C357.182 470.422 354.208 469.903 351.287 468.611C348.365 467.318 345.579 465.288 343.155 462.686C342.62 462.938 342.051 463.119 341.456 463.227C339.604 463.56 337.556 463.13 335.619 462.004C333.626 460.831 331.851 459.023 330.546 456.836C329.93 455.816 329.432 454.727 329.069 453.608C328.82 452.839 328.63 452.061 328.503 451.285C304.074 470.401 268.525 488.861 239.368 455.577C221.281 435.117 217.075 399.437 222.519 364.585C223.777 357.511 225.359 350.486 227.159 343.511C226.78 343.616 226.398 343.712 226.005 343.782C224.042 344.162 221.906 343.941 219.781 343.137C217.957 342.419 216.212 341.176 214.724 339.534C213.837 338.557 213.059 337.452 212.42 336.263C210.827 339.975 208.21 342.785 204.883 344.356C203.776 344.868 202.601 345.235 201.374 345.45C197.5 346.141 193.239 345.357 189.142 343.201C188.204 342.714 187.292 342.113 186.422 341.409C185.47 340.643 184.623 339.68 183.937 338.586C183.565 337.977 183.265 337.325 183.047 336.655C182.71 335.635 182.574 334.595 182.653 333.623L182.659 333.59C181.473 333.019 180.341 332.188 179.335 331.149C177.655 329.422 176.345 327.254 175.578 324.93C175.356 324.248 175.186 323.56 175.073 322.872C174.673 320.27 174.942 317.781 175.843 315.727C176.713 313.692 178.06 312.068 179.767 310.996C181.15 310.157 182.682 309.594 184.316 309.324C186.193 308.995 188.162 308.979 190.174 309.275C189.896 306.816 190.077 304.449 190.704 302.338C191.494 299.599 193.012 297.387 195.081 295.961C196.727 294.849 198.58 294.096 200.574 293.73C202.127 293.433 203.777 293.463 205.458 293.818C205.803 293.895 206.15 294.001 206.497 294.116C206.465 294.017 206.42 293.917 206.387 293.816C205.564 291.261 205.28 288.659 205.563 286.261C205.83 283.83 206.719 281.716 208.127 280.164C209.345 278.879 210.896 278.053 212.646 277.758C214.471 277.439 216.442 277.648 218.407 278.371C218.889 278.549 219.369 278.758 219.843 278.997C218.472 274.817 218.211 270.556 219.101 266.845C219.684 264.591 220.738 262.652 222.186 261.171C223.621 259.673 225.432 258.695 227.473 258.316C229.021 258.038 230.683 258.158 232.356 258.669C234.03 259.179 235.681 260.07 237.209 261.286C239.109 262.756 240.765 264.703 242.013 266.933C242.633 266.689 243.28 266.507 243.948 266.388C245.708 266.091 247.579 266.183 249.474 266.661L247.806 224.481L273.106 219.573L287.19 276.288L285.158 217.667L309.169 213.525L313.653 331.01C314.672 330.112 315.895 329.521 317.247 329.273C317.621 329.207 318.005 329.168 318.395 329.158C318.561 329.158 318.727 329.172 318.893 329.181L314.433 212.785L337.852 208.783L343.008 342.615L337.451 343.536C337.604 343.711 337.765 343.881 337.911 344.064C338.895 345.304 339.666 346.735 340.159 348.238C340.483 349.22 340.668 350.219 340.704 351.191C340.745 352.204 340.593 353.16 340.261 353.993C339.966 354.684 339.54 355.263 339.006 355.698C338.472 356.132 337.842 356.414 337.15 356.525C336.333 356.678 335.446 356.582 334.563 356.248C334.497 356.222 334.432 356.183 334.369 356.162C334.057 357.92 333.349 359.448 332.308 360.613C331.267 361.777 329.925 362.542 328.4 362.84C327.904 362.928 327.39 362.96 326.864 362.935C324.656 362.789 322.366 361.724 320.395 359.924C320.138 359.695 319.891 359.454 319.649 359.204C319.589 359.428 319.52 359.65 319.44 359.863C318.826 361.61 317.651 362.901 316.111 363.522C315.743 363.663 315.361 363.768 314.966 363.838C313.321 364.098 311.54 363.834 309.788 363.07C308.842 362.669 307.91 362.16 307.009 361.551C306.761 362.963 306.22 364.208 305.426 365.192C304.178 366.723 302.498 367.706 300.568 368.033C298.9 368.35 297.081 368.126 295.283 367.384C293.402 366.597 291.653 365.115 290.337 363.19C289.642 362.163 289.093 361.035 288.719 359.866C288.145 358.082 287.921 356.265 288.063 354.568C288.187 352.856 288.708 351.326 289.576 350.125C289.751 349.898 289.952 349.701 290.175 349.538L285.046 330.871C284.744 331.366 284.425 331.846 284.07 332.296C282.233 334.675 279.77 336.29 276.917 336.986C276.684 337.04 276.453 337.088 276.22 337.129C275.963 337.174 275.703 337.205 275.441 337.236L276.054 353.788L253.066 357.954L252.414 341.431C252.333 341.445 252.258 341.47 252.177 341.485C251.891 341.535 251.599 341.575 251.306 341.602C248.606 341.848 245.688 341.011 242.987 339.217C241.661 338.336 240.405 337.258 239.262 336.017C241.142 356.76 248.187 380.355 268.436 392.483C282.181 400.841 300.693 398.866 320.562 387.052L418.45 329.503L387.165 334.775L369.357 279.971L371.691 337.017L348.174 341.42L343.206 207.989L358.716 205.134C357.801 202.307 357.742 199.435 358.549 197.056C359.053 195.721 359.821 194.596 360.806 193.753C361.79 192.909 362.968 192.364 364.268 192.153C365.157 191.994 366.093 191.99 367.049 192.142C366.859 191.652 366.678 191.158 366.516 190.662C365.496 187.423 364.997 184.134 365.049 180.984C365.101 177.834 365.702 174.885 366.817 172.305C367.895 169.743 369.364 167.505 371.169 165.671C372.958 163.841 375.197 162.637 377.713 162.152C378.445 162.026 379.199 161.97 379.969 161.987C379.671 159.411 379.956 156.958 380.797 154.874C381.44 153.19 382.412 151.769 383.653 150.697C384.895 149.626 386.38 148.928 388.018 148.645C390.186 148.28 392.528 148.56 394.855 149.462C397.182 150.345 399.436 151.796 401.454 153.708C404.763 156.937 407.325 161.116 408.752 165.609L408.761 165.637C409.075 165.189 409.421 164.774 409.796 164.396C411.176 163.023 412.893 162.13 414.818 161.784C416.654 161.444 418.65 161.673 420.631 162.451C422.963 163.411 425.174 165.085 427.006 167.275C428.833 169.431 430.259 171.979 431.147 174.673C431.201 174.836 431.242 175 431.291 175.165C431.575 174.9 431.871 174.652 432.184 174.429C433.534 173.5 435.068 172.888 436.723 172.619C438.844 172.258 441.084 172.312 443.365 172.779C446.241 173.389 449.112 174.934 451.64 177.232C453.636 179.023 455.371 181.225 456.72 183.68C458.446 182.662 460.342 181.962 462.358 181.6C464.075 181.276 465.888 181.264 467.739 181.565C470.043 181.97 472.367 183.021 474.511 184.628C476.694 186.238 478.566 188.482 479.883 191.069C480.223 191.752 480.511 192.456 480.743 193.173C481.533 195.626 481.712 198.123 481.255 200.335C480.98 201.697 480.438 202.9 479.667 203.865C479.699 203.904 479.736 203.938 479.764 203.968C480.463 204.846 481.008 205.862 481.352 206.929C481.581 207.629 481.722 208.341 481.768 209.039C481.836 210.304 481.668 211.503 481.273 212.554C480.915 213.526 480.448 214.416 479.882 215.207C477.429 218.696 473.922 220.948 469.817 221.671C468.517 221.903 467.169 221.973 465.79 221.882C461.569 221.581 457.205 219.819 453.235 216.813C453.436 218.223 453.432 219.603 453.222 220.893C452.893 222.959 452.064 224.742 450.819 226.059C449.341 227.566 447.476 228.528 445.38 228.865C443.224 229.222 440.931 229.091 438.61 228.476C434.995 227.419 431.399 225.806 427.923 223.68C427.853 226.165 427.311 228.469 426.335 230.437L426.87 245.142L447.531 241.555L448.699 265.47L427.697 268.86L429.315 300.821L454.163 295.942L454.989 308.534L558.485 248.453L459.904 335.596Z" fill="#D0CFCD"/>
<path d="M234.208 292.458C234.033 292.556 233.832 292.603 233.619 292.594C233.405 292.585 233.184 292.521 232.971 292.406C232.758 292.292 232.558 292.129 232.385 291.93C232.212 291.731 232.069 291.5 231.968 291.253C231.04 289.074 229.562 287.153 227.776 285.805C226.632 284.892 225.392 284.223 224.134 283.839C222.876 283.456 221.627 283.365 220.463 283.574C218.878 283.871 217.47 284.628 216.352 285.783C215.21 286.941 214.376 288.456 213.912 290.217C213.18 293.256 213.406 296.748 214.557 300.162C214.993 301.497 215.551 302.806 216.221 304.063C216.424 304.445 216.52 304.866 216.493 305.254C216.466 305.642 216.316 305.972 216.071 306.187C215.826 306.402 215.501 306.489 215.151 306.432C214.802 306.375 214.45 306.179 214.157 305.876C212.932 304.632 211.524 303.707 210.067 303.19C208.579 302.647 207.087 302.489 205.703 302.727C204.422 302.936 203.285 303.533 202.391 304.463C201.358 305.598 200.705 307.143 200.511 308.918C200.295 310.715 200.505 312.665 201.121 314.58C201.507 315.775 202.07 316.929 202.782 317.981C203.025 318.336 203.171 318.752 203.196 319.154C203.221 319.557 203.122 319.922 202.916 320.186C202.711 320.45 202.413 320.596 202.072 320.6C201.732 320.603 201.372 320.463 201.053 320.205C199.96 319.34 198.762 318.759 197.565 318.515C196.233 318.24 194.925 318.22 193.694 318.456C192.008 318.766 190.44 319.398 189.045 320.33C187.439 321.453 186.253 323.168 185.621 325.283C184.988 327.399 184.934 329.831 185.463 332.308C185.523 332.573 185.533 332.836 185.491 333.076C185.45 333.317 185.358 333.53 185.223 333.698C185.088 333.867 184.914 333.987 184.713 334.05C184.511 334.113 184.289 334.117 184.061 334.061C181.817 333.531 179.605 333.446 177.523 333.811C176.171 334.031 174.901 334.49 173.754 335.174C172.444 335.99 171.408 337.225 170.737 338.773C170.076 340.235 169.87 342.011 170.144 343.872C170.219 344.321 170.33 344.771 170.475 345.216C171.002 346.797 171.897 348.272 173.045 349.45C174.104 350.573 175.395 351.293 176.671 351.469C176.98 351.503 177.295 351.649 177.574 351.886C177.853 352.123 178.081 352.439 178.228 352.792C178.374 353.144 178.432 353.515 178.392 353.853C178.352 354.191 178.217 354.479 178.006 354.678C177.818 354.868 177.707 355.142 177.688 355.458C177.659 355.88 177.721 356.33 177.87 356.77C177.966 357.066 178.098 357.354 178.262 357.625C178.665 358.253 179.16 358.805 179.715 359.245C180.369 359.766 181.054 360.211 181.758 360.572C185.226 362.386 188.836 363.047 192.12 362.469C193.156 362.288 194.149 361.982 195.084 361.555C197.019 360.647 198.681 359.245 199.975 357.43C201.268 355.615 202.169 353.423 202.624 350.978C202.695 350.595 202.892 350.29 203.179 350.12C203.467 349.949 203.825 349.925 204.189 350.051C204.552 350.177 204.896 350.445 205.156 350.805C205.417 351.166 205.577 351.594 205.607 352.012C205.651 352.672 205.784 353.346 206.002 354.01C206.482 355.432 207.272 356.764 208.283 357.856C209.32 358.994 210.537 359.859 211.81 360.361C213.438 360.965 215.072 361.126 216.575 360.83C217.832 360.597 219.011 360.147 220.077 359.492C223.538 346.996 227.657 334.666 231.876 322.51C230.505 331.889 230.057 341.666 230.538 351.676C231.883 353.782 233.603 355.568 235.53 356.857C237.593 358.224 239.826 358.862 241.892 358.673C242.118 358.652 242.343 358.622 242.562 358.584C242.983 358.507 243.393 358.398 243.79 358.257L241.277 291.77C239.741 291.381 238.224 291.301 236.796 291.536C235.874 291.7 235.004 292.012 234.209 292.464" fill="white"/>
<path d="M276.758 337.191L269.253 305.754C269.164 305.764 269.074 305.768 268.982 305.783L268.968 305.785L268.43 344.11C268.54 344.092 268.646 344.07 268.755 344.047C271.053 343.534 273.078 342.333 274.635 340.56C275.499 339.584 276.213 338.45 276.756 337.191" fill="white"/>
<path d="M482.119 348.217C483.219 348.098 484.151 347.491 484.754 346.501C484.939 346.17 485.046 345.771 485.068 345.335C485.091 344.898 485.027 344.436 484.882 343.982C484.414 342.705 483.587 341.58 482.577 340.847L482.566 340.839C482.477 340.764 482.391 340.681 482.31 340.591C482.145 340.406 482.003 340.193 481.894 339.962L481.892 339.956C481.781 339.72 481.705 339.471 481.667 339.223L481.665 339.217C481.629 338.973 481.632 338.735 481.675 338.516C481.717 338.291 481.8 338.093 481.92 337.932C482.034 337.773 482.178 337.652 482.345 337.575L482.354 337.573C482.527 337.494 482.719 337.462 482.92 337.479L482.928 337.477C483.125 337.495 483.327 337.56 483.522 337.669C483.62 337.724 483.715 337.788 483.807 337.862L483.814 337.867C484.149 338.127 484.507 338.313 484.868 338.415C485.229 338.516 485.585 338.531 485.915 338.458C486.451 338.359 486.92 338.078 487.273 337.644C487.609 337.24 487.798 336.677 487.811 336.041C487.819 335.571 487.742 335.08 487.585 334.598C487.234 333.584 486.66 332.646 485.938 331.904C485.215 331.161 484.376 330.649 483.527 330.43C482.848 330.293 482.181 330.283 481.552 330.402C480.719 330.552 479.964 330.919 479.332 331.482C478.763 331.977 478.356 332.689 478.157 333.544C478.086 333.874 477.928 334.145 477.703 334.324C477.478 334.503 477.197 334.58 476.894 334.548C476.591 334.515 476.28 334.374 476 334.141C475.72 333.908 475.484 333.594 475.321 333.239C474.473 331.424 473.325 329.775 471.969 328.425C470.613 327.075 469.088 326.061 467.516 325.465C465.954 324.844 464.382 324.636 462.919 324.856C461.679 325.088 460.595 325.736 459.775 326.738C459.565 326.986 459.274 327.121 458.947 327.122C458.62 327.124 458.275 326.992 457.962 326.747C457.65 326.501 457.388 326.156 457.217 325.763C457.045 325.369 456.972 324.949 457.01 324.566C457.09 323.688 457.024 322.756 456.815 321.819L422.804 353.093C423.651 354.169 424.665 355.024 425.747 355.572C426.879 356.126 428.04 356.311 429.097 356.103C430.118 355.9 431.035 355.416 431.787 354.683C432.583 353.924 433.221 352.96 433.673 351.836C433.775 351.581 433.938 351.379 434.145 351.249C434.352 351.12 434.598 351.067 434.858 351.096C435.119 351.124 435.385 351.233 435.634 351.413C435.882 351.592 436.103 351.836 436.277 352.122C437.424 354.099 438.813 355.892 440.376 357.415C441.351 358.348 442.437 359.046 443.551 359.457C444.666 359.868 445.781 359.981 446.813 359.789C448.3 359.497 449.583 358.672 450.518 357.404C451.461 356.174 452.002 354.527 452.07 352.673C452.081 352.286 452.197 351.945 452.401 351.699C452.606 351.454 452.889 351.317 453.208 351.308C453.528 351.299 453.868 351.419 454.178 351.651C454.489 351.882 454.753 352.213 454.934 352.594C455.52 353.782 456.394 354.777 457.398 355.402C458.411 356.07 459.498 356.349 460.485 356.193C460.689 356.156 460.886 356.096 461.073 356.015C461.967 355.596 462.605 354.727 462.857 353.582C463.137 352.395 463.06 351.029 462.639 349.687C462.607 349.589 462.575 349.488 462.538 349.387C462.534 349.376 462.53 349.364 462.527 349.352C462.488 349.24 462.457 349.125 462.435 349.011C462.428 348.971 462.423 348.932 462.421 348.893C462.405 348.809 462.395 348.726 462.391 348.643C462.389 348.59 462.396 348.545 462.398 348.495C462.398 348.428 462.4 348.361 462.406 348.296C462.437 348.071 462.505 347.866 462.608 347.693C462.643 347.64 462.681 347.592 462.723 347.548C462.747 347.516 462.767 347.482 462.792 347.454C462.839 347.409 462.897 347.371 462.95 347.332C462.973 347.317 462.99 347.298 463.014 347.283C463.181 347.186 463.373 347.137 463.577 347.14C463.606 347.141 463.634 347.15 463.663 347.151C463.734 347.155 463.805 347.164 463.878 347.178C463.92 347.19 463.96 347.21 464 347.221C464.262 347.302 464.519 347.467 464.741 347.698C464.791 347.748 464.838 347.802 464.882 347.859C464.916 347.9 464.952 347.933 464.985 347.978C465.034 348.049 465.079 348.122 465.121 348.197C465.143 348.233 465.169 348.265 465.189 348.305C465.241 348.405 465.287 348.508 465.326 348.614L465.35 348.667C465.633 349.556 466.065 350.406 466.615 351.154C466.852 351.474 467.16 351.703 467.478 351.795C467.715 351.855 467.947 351.862 468.164 351.813C468.876 351.629 469.515 351.261 470.043 350.73C470.667 350.144 471.22 349.462 471.693 348.694C471.935 348.316 472.148 347.908 472.33 347.475C472.346 347.432 472.353 347.404 472.367 347.367C472.348 347.234 472.339 347.103 472.341 346.976C472.344 346.856 472.357 346.74 472.381 346.63C472.465 346.244 472.667 345.94 472.953 345.769C473.239 345.599 473.592 345.572 473.951 345.694C474.033 345.724 474.113 345.761 474.193 345.804C474.215 345.817 474.234 345.819 474.253 345.833C475.59 346.632 476.956 347.285 478.333 347.784C479.578 348.241 480.824 348.395 481.994 348.237L482.119 348.217Z" fill="white"/>
<path d="M493.839 199.161C492.846 197.216 491.441 195.533 489.808 194.329C488.109 193.047 486.269 192.208 484.445 191.884C482.873 191.631 481.336 191.644 479.878 191.924C477.623 192.331 475.544 193.225 473.732 194.567C473.562 194.696 473.358 194.768 473.136 194.78C472.915 194.791 472.681 194.74 472.453 194.631C472.224 194.522 472.007 194.358 471.818 194.15C471.629 193.943 471.472 193.698 471.359 193.434C470.196 190.795 468.499 188.416 466.456 186.562C464.413 184.708 462.105 183.451 459.789 182.932C457.813 182.526 455.871 182.478 454.033 182.791C452.681 183.01 451.427 183.51 450.322 184.271C449.323 184.957 448.551 185.979 448.076 187.245C447.951 187.592 447.713 187.843 447.403 187.957C447.093 188.07 446.73 188.037 446.378 187.864C446.026 187.691 445.707 187.389 445.475 187.009C445.243 186.63 445.114 186.198 445.11 185.787C445.089 184.484 444.856 183.136 444.421 181.811C443.722 179.691 442.604 177.686 441.176 175.99C439.785 174.306 438.105 173.018 436.333 172.277C434.834 171.688 433.325 171.518 431.938 171.782C430.433 172.054 429.091 172.759 428.015 173.844C426.951 174.892 426.211 176.326 425.865 178.008C425.791 178.387 425.597 178.69 425.316 178.862C425.036 179.035 424.686 179.066 424.328 178.952C423.97 178.837 423.627 178.583 423.358 178.235C423.088 177.886 422.91 177.464 422.854 177.043C422.655 175.561 422.312 174.068 421.833 172.594C420.645 168.808 418.508 165.283 415.749 162.556C414.109 160.99 412.276 159.803 410.387 159.081C408.523 158.349 406.646 158.12 404.909 158.411C404.357 158.509 403.826 158.667 403.321 158.885C401.511 159.697 400.111 161.243 399.316 163.305C398.497 165.298 398.364 167.744 398.938 170.241C399.003 170.503 399.02 170.765 398.989 171.008C398.959 171.251 398.88 171.469 398.76 171.648C398.639 171.827 398.48 171.961 398.292 172.043C398.104 172.124 397.893 172.15 397.672 172.118C396.598 171.967 395.547 171.981 394.546 172.161C392.443 172.578 390.575 173.602 389.084 175.154C387.482 176.805 386.181 178.82 385.23 181.124C383.295 185.655 383.204 191.394 384.975 197.083C385.423 198.468 385.997 199.826 386.684 201.129C386.866 201.47 386.967 201.844 386.973 202.202C386.98 202.559 386.892 202.883 386.721 203.13C386.55 203.377 386.305 203.535 386.017 203.585C385.729 203.634 385.413 203.572 385.11 203.406C383.742 202.687 382.321 202.436 381.036 202.687C380.121 202.834 379.291 203.217 378.595 203.81C377.9 204.404 377.355 205.196 376.993 206.138C376.449 207.807 376.497 209.812 377.126 211.786L382.168 210.848L382.76 236.016C382.947 236.147 383.132 236.286 383.322 236.405C384.496 237.092 385.729 237.427 386.892 237.375L395.156 208.818L461.637 197.114L462.692 222.356L442.04 225.909L442.069 226.639C442.335 226.619 442.62 226.691 442.891 226.848C446.928 229.219 450.889 231.512 454.774 232.51C456.744 233.037 458.69 233.153 460.521 232.853C462.178 232.589 463.653 231.825 464.822 230.626C465.723 229.66 466.322 228.353 466.558 226.839C466.8 225.383 466.664 223.77 466.165 222.181C465.925 221.442 465.597 220.723 465.193 220.049C464.959 219.656 464.834 219.208 464.843 218.789C464.852 218.37 464.993 218.007 465.24 217.767C465.488 217.527 465.825 217.426 466.191 217.482C466.557 217.539 466.926 217.749 467.231 218.074C469.319 220.313 471.667 222.141 474.141 223.452C476.615 224.763 479.166 225.533 481.648 225.717C482.84 225.796 484.006 225.733 485.129 225.531C488.693 224.895 491.737 222.921 493.867 219.864C494.306 219.248 494.669 218.555 494.95 217.798C495.196 217.153 495.304 216.416 495.267 215.637C495.244 215.302 495.177 214.959 495.067 214.622C494.907 214.12 494.655 213.641 494.331 213.224C494.086 212.898 493.774 212.653 493.445 212.526C493.127 212.416 492.823 212.197 492.573 211.899C492.324 211.602 492.142 211.24 492.052 210.865C491.962 210.49 491.969 210.12 492.072 209.806C492.175 209.492 492.369 209.25 492.627 209.113C493.753 208.466 494.526 207.273 494.796 205.764C495.115 204.171 494.985 202.376 494.423 200.611C494.262 200.116 494.064 199.629 493.831 199.156" fill="white"/>
<path d="M409.978 238.851C411.682 237.122 412.879 234.825 413.463 232.163C413.536 231.839 413.707 231.577 413.951 231.417L413.392 207.936L412.418 210.257L402.271 242.317C402.56 242.307 402.843 242.288 403.125 242.255C403.327 242.232 403.529 242.204 403.73 242.17C406.144 241.743 408.289 240.605 409.98 238.856" fill="white"/>
<path d="M423.542 408.231C421.959 407.038 420.245 406.258 418.546 405.955C417.077 405.719 415.64 405.732 414.278 405.993C412.168 406.374 410.224 407.209 408.528 408.463C408.358 408.592 408.154 408.665 407.932 408.677C407.711 408.688 407.477 408.637 407.249 408.528C407.021 408.419 406.804 408.255 406.614 408.048C406.425 407.84 406.268 407.595 406.156 407.331C405.072 404.873 403.489 402.657 401.585 400.93C399.681 399.202 397.529 398.031 395.371 397.547C393.521 397.166 391.704 397.12 389.983 397.41C388.722 397.615 387.552 398.081 386.521 398.79C385.593 399.425 384.876 400.371 384.434 401.544C384.309 401.89 384.071 402.142 383.761 402.255C383.451 402.368 383.089 402.335 382.737 402.162C382.385 401.99 382.066 401.688 381.834 401.309C381.603 400.93 381.473 400.498 381.469 400.088C381.45 398.877 381.232 397.624 380.828 396.394C380.179 394.42 379.14 392.554 377.81 390.975C376.516 389.41 374.952 388.213 373.303 387.524C371.909 386.976 370.505 386.819 369.215 387.066C367.815 387.319 366.565 387.975 365.562 388.983C364.572 389.958 363.883 391.293 363.563 392.858C363.489 393.237 363.295 393.539 363.014 393.711C362.734 393.884 362.384 393.915 362.026 393.801C361.669 393.686 361.325 393.433 361.056 393.085C360.787 392.736 360.609 392.315 360.553 391.894C360.366 390.51 360.046 389.116 359.599 387.739C358.486 384.206 356.49 380.918 353.913 378.374C352.384 376.915 350.675 375.807 348.913 375.133C347.176 374.451 345.427 374.238 343.809 374.51C343.295 374.602 342.801 374.748 342.33 374.948C340.645 375.706 339.342 377.144 338.603 379.065C337.84 380.917 337.716 383.191 338.251 385.513C338.315 385.775 338.331 386.036 338.3 386.278C338.269 386.52 338.19 386.738 338.07 386.916C337.949 387.094 337.79 387.229 337.603 387.31C337.415 387.391 337.204 387.417 336.985 387.386C335.982 387.247 335.001 387.261 334.065 387.428C332.101 387.817 330.356 388.773 328.965 390.224C327.465 391.767 326.247 393.65 325.356 395.805C323.548 400.039 323.464 405.401 325.119 410.716C325.537 412.01 326.073 413.278 326.717 414.495C326.898 414.836 326.998 415.21 327.004 415.567C327.01 415.923 326.922 416.246 326.751 416.493C326.581 416.739 326.335 416.898 326.048 416.947C325.761 416.997 325.445 416.935 325.142 416.77C323.876 416.102 322.56 415.868 321.369 416.099C320.521 416.235 319.751 416.589 319.106 417.138C318.46 417.687 317.954 418.421 317.618 419.293C317.095 420.895 317.158 422.827 317.793 424.718C318.349 426.493 319.38 428.134 320.708 429.356C320.932 429.556 321.124 429.808 321.266 430.09C321.408 430.372 321.496 430.675 321.521 430.971C321.546 431.267 321.508 431.548 321.411 431.787C321.313 432.027 321.159 432.218 320.962 432.343C319.754 433.163 318.922 434.52 318.599 436.2C318.236 437.892 318.36 439.811 318.955 441.699C319.204 442.472 319.546 443.224 319.969 443.928C320.876 445.468 322.111 446.743 323.499 447.571C324.814 448.341 326.202 448.633 327.456 448.403C328.141 448.278 328.776 448.015 329.337 447.623C329.608 447.435 329.952 447.385 330.309 447.483C330.666 447.581 331.014 447.82 331.292 448.159C333.374 450.639 335.833 452.601 338.444 453.864C341.056 455.126 343.735 455.65 346.237 455.387C346.437 455.361 346.633 455.332 346.827 455.297C349.17 454.85 351.24 453.695 352.863 451.928C354.486 450.162 355.615 447.836 356.152 445.149C356.206 444.86 356.33 444.614 356.511 444.435C356.691 444.256 356.923 444.151 357.181 444.13C357.439 444.11 357.714 444.175 357.979 444.319C358.244 444.462 358.489 444.68 358.688 444.948C360.343 447.133 362.387 448.855 364.582 449.914C366.776 451.003 369.036 451.4 371.106 451.057C371.329 451.017 371.551 450.968 371.768 450.907C373.754 450.372 375.371 449.022 376.376 447.06C377.394 445.032 377.814 442.546 377.588 439.893C377.566 439.607 377.603 439.337 377.695 439.104C377.788 438.871 377.934 438.683 378.121 438.556C378.308 438.429 378.53 438.366 378.769 438.373C379.008 438.38 379.256 438.456 379.493 438.596C383.287 440.824 387.008 442.969 390.636 443.905C392.476 444.396 394.293 444.503 396.003 444.223C397.547 443.98 398.923 443.272 400.014 442.16C400.848 441.263 401.404 440.051 401.623 438.648C401.853 437.298 401.729 435.8 401.265 434.325C401.044 433.642 400.74 432.977 400.366 432.355C400.127 431.96 400 431.51 400.008 431.088C400.015 430.666 400.157 430.3 400.406 430.059C400.656 429.818 400.997 429.718 401.365 429.778C401.733 429.837 402.104 430.052 402.409 430.382C404.362 432.474 406.557 434.182 408.87 435.407C411.183 436.632 413.569 437.351 415.89 437.523C417.005 437.598 418.095 437.541 419.145 437.351C422.478 436.756 425.324 434.912 427.316 432.056C427.725 431.482 428.063 430.837 428.325 430.133C428.552 429.54 428.652 428.862 428.618 428.145C428.564 427.383 428.261 426.6 427.771 425.96C427.555 425.676 427.282 425.463 426.993 425.352C426.676 425.241 426.372 425.022 426.123 424.725C425.874 424.427 425.692 424.066 425.602 423.692C425.512 423.317 425.519 422.948 425.622 422.634C425.724 422.32 425.918 422.078 426.175 421.94C427.216 421.342 427.93 420.24 428.179 418.845C428.475 417.368 428.355 415.704 427.833 414.069C427.685 413.611 427.502 413.16 427.287 412.723C426.364 410.916 425.059 409.352 423.54 408.233" fill="white"/>
<path d="M296.125 363.08C296.092 362.748 296.135 362.434 296.249 362.172C296.363 361.91 296.545 361.709 296.774 361.591C297.004 361.473 297.273 361.443 297.552 361.503C297.831 361.563 298.11 361.712 298.36 361.933C299.588 363.031 300.919 363.9 302.291 364.499C303.556 365.071 304.843 365.277 306.034 365.098C306.297 365.049 306.553 364.977 306.798 364.88C307.749 364.469 308.472 363.638 308.848 362.523C309.136 361.745 309.225 360.835 309.105 359.884C308.749 359.173 308.447 358.438 308.204 357.689C308.145 357.506 308.09 357.32 308.038 357.135C307.92 356.711 307.92 356.287 308.04 355.934C308.16 355.581 308.392 355.321 308.697 355.198C309.001 355.075 309.36 355.097 309.713 355.259C310.065 355.422 310.389 355.715 310.63 356.09C311.114 356.839 311.5 357.654 311.77 358.497C311.844 358.726 311.901 358.952 311.959 359.178C312.567 360.232 313.321 361.177 314.176 361.957C315.543 363.236 317.13 363.999 318.663 364.114C319.014 364.133 319.357 364.113 319.688 364.053C321.011 363.787 322.128 363.007 322.89 361.817C323.667 360.666 324.037 359.139 323.946 357.466C323.921 357.106 323.987 356.773 324.135 356.508C324.284 356.243 324.507 356.058 324.778 355.977C325.05 355.895 325.356 355.921 325.659 356.05C325.962 356.18 326.248 356.407 326.481 356.704C326.732 357.02 327.044 357.254 327.37 357.373C327.777 357.525 328.186 357.566 328.562 357.491C329.213 357.391 329.74 356.972 330.032 356.323C330.199 355.882 330.273 355.377 330.25 354.843C330.226 354.256 330.113 353.653 329.918 353.06C329.602 352.081 329.109 351.15 328.48 350.342C327.608 349.284 326.616 348.383 325.555 347.684C324.427 346.911 323.259 346.284 322.074 345.815C321.796 345.707 321.529 345.516 321.302 345.261C321.075 345.007 320.895 344.699 320.782 344.37C319.987 342.142 318.604 340.135 316.883 338.71C315.189 337.238 313.252 336.425 311.419 336.418C311.144 336.425 310.874 336.452 310.609 336.5C309.003 336.826 307.659 337.803 306.773 339.29C305.861 340.735 305.464 342.636 305.644 344.694C305.675 345.001 305.642 345.294 305.546 345.544C305.451 345.795 305.296 345.996 305.097 346.128C304.898 346.261 304.66 346.321 304.406 346.303C304.152 346.285 303.89 346.19 303.643 346.026C301.504 344.637 299.205 344.09 297.143 344.48C296.007 344.68 294.975 345.168 294.108 345.917C292.911 347.006 292.071 348.547 291.674 350.38C291.278 352.212 291.341 354.267 291.856 356.332C291.868 356.368 291.866 356.402 291.875 356.437C291.895 356.524 291.91 356.611 291.922 356.697C291.946 356.936 291.931 357.166 291.877 357.375C291.849 357.479 291.812 357.578 291.767 357.67C291.629 357.945 291.414 358.143 291.148 358.239C291.061 358.271 290.97 358.291 290.875 358.298C290.778 358.307 290.679 358.304 290.578 358.287C290.276 358.241 289.969 358.088 289.697 357.847C289.606 357.768 289.519 357.679 289.44 357.582L289.438 357.576C289.204 357.294 289.029 356.954 288.934 356.598L288.928 356.58L288.901 356.496C288.84 356.32 288.821 356.32 288.8 356.292C288.714 356.212 288.619 356.156 288.522 356.128C287.898 355.952 287.284 355.931 286.718 356.068C285.818 356.237 284.978 356.573 284.223 357.065C284.112 357.137 284.009 357.223 283.915 357.321C283.344 358.147 283.005 359.195 282.93 360.365C282.832 361.571 282.988 362.862 283.385 364.132C283.619 364.879 283.962 365.602 284.395 366.261C285.246 367.525 286.375 368.495 287.587 369.004C288.891 369.544 290.206 369.701 291.411 369.461C292.841 369.214 294.088 368.474 295.017 367.32C295.879 366.275 296.276 364.757 296.125 363.08Z" fill="white"/>
<path d="M509.891 342.637C509.306 342.462 508.726 342.414 508.179 342.495L508.03 342.522C507.299 342.676 506.668 343.088 506.206 343.715C505.744 344.342 505.467 345.16 505.407 346.081C505.391 346.411 505.298 346.706 505.138 346.936C504.978 347.165 504.758 347.319 504.5 347.381C504.242 347.443 503.957 347.412 503.675 347.29C503.393 347.168 503.125 346.96 502.899 346.688C502.175 345.817 501.308 345.161 500.401 344.797C499.548 344.447 498.689 344.338 497.895 344.478C497.392 344.56 496.937 344.78 496.56 345.124C496.315 345.339 496.156 345.666 496.107 346.056C496.087 346.307 496.124 346.578 496.214 346.84C496.364 347.278 496.574 347.698 496.834 348.079C497.268 348.726 497.758 349.32 498.289 349.847L498.334 349.9C498.404 349.974 498.471 350.055 498.534 350.14C498.684 350.347 498.805 350.58 498.89 350.823C498.978 351.07 499.027 351.324 499.034 351.57C499.042 351.813 499.011 352.044 498.941 352.249C498.906 352.351 498.861 352.446 498.807 352.532C498.592 352.883 498.246 353.079 497.844 353.075C497.746 353.076 497.644 353.063 497.543 353.037C497.339 352.985 497.136 352.887 496.945 352.748C496.865 352.688 496.787 352.62 496.713 352.545L496.67 352.506C496.408 352.255 496.126 352.045 495.834 351.88C495.391 351.626 494.939 351.418 494.484 351.258C493.298 350.85 492.111 350.603 490.947 350.522L490.664 348.625L490.947 350.522C489.681 350.415 488.443 350.467 487.25 350.678C486.371 350.823 485.54 351.117 484.78 351.552C484.297 351.796 483.91 352.215 483.66 352.764C483.41 353.541 483.444 354.485 483.755 355.403C484.097 356.498 484.725 357.504 485.527 358.243C486.151 358.791 486.838 359.179 487.532 359.375C488.275 359.59 489.01 359.632 489.696 359.5C490.104 359.425 490.492 359.292 490.853 359.102C491.674 358.654 492.375 357.987 492.915 357.139C493.49 356.242 493.934 355.214 494.232 354.086C494.32 353.76 494.495 353.499 494.735 353.337C494.974 353.176 495.268 353.12 495.577 353.178C495.886 353.235 496.198 353.404 496.471 353.661C496.745 353.919 496.967 354.254 497.111 354.623C497.67 355.977 498.584 357.147 499.674 357.902C500.762 358.703 501.959 359.055 503.042 358.892C503.169 358.868 503.293 358.835 503.414 358.792C504.394 358.417 505.127 357.557 505.469 356.383C505.853 355.22 505.837 353.817 505.425 352.427C505.363 352.231 505.293 352.038 505.214 351.847C505.018 351.382 504.959 350.884 505.051 350.456C505.143 350.029 505.377 349.702 505.708 349.544C506.038 349.385 506.439 349.406 506.829 349.603C507.22 349.799 507.57 350.156 507.81 350.602C508.141 351.199 508.623 351.67 509.154 351.914C509.805 352.223 510.47 352.323 511.076 352.201C511.475 352.132 511.841 351.965 512.154 351.71C512.434 351.485 512.651 351.169 512.788 350.787C513.28 349.39 513.274 347.683 512.772 345.991C512.537 345.207 512.144 344.463 511.635 343.836C511.131 343.242 510.519 342.821 509.891 342.637Z" fill="white"/>
</svg>
