<svg width="188" height="188" viewBox="0 0 188 188" fill="none" xmlns="http://www.w3.org/2000/svg">
<g clip-path="url(#clip0_20_2015)">
<path d="M93.2288 75.5344C92.0968 75.6444 83.235 74.5604 81.1302 73.5854C75.6831 73.6194 60.2065 71.9404 60.2065 71.9404C60.2065 71.9404 58.4349 72.9144 58.8049 74.4934C59.1749 76.0724 58.97 76.0724 58.97 76.0724C57.7624 77.9825 57.2 80.2334 57.3666 82.4904C57.6003 83.8684 58.0012 85.7834 58.0012 85.7834L58.4707 87.1944C59.2388 89.9073 60.8403 92.3066 63.0464 94.0494C64.2222 95.041 65.4904 95.9163 66.8332 96.6634C68.5014 97.7764 70.2786 98.7146 72.137 99.4634C73.8041 100.163 76.3834 99.8204 77.7074 100.03C79.0313 100.24 84.5848 101.916 87.6425 102.615C90.7003 103.314 96.1891 105.13 98.1337 106.315C100.078 107.5 104.961 111.004 100.932 113.659C104.057 115.475 109.217 119.134 121.622 120.076C134.232 120.522 141.11 119.657 150.07 117.352C159.141 115.252 159.557 114.628 161.433 113.266C163.309 111.904 165.582 108.824 165.185 105.825C164.767 102.683 158.468 96.7134 148.673 93.8844C148.304 93.4584 147.404 92.3414 147.404 92.3414C145.728 91.335 143.907 90.599 142.004 90.1604C142.004 90.1604 137.613 88.2984 136.608 87.9244C135.603 87.5504 132.848 86.3244 131.635 85.9574C130.421 85.5904 127.769 83.8284 126.605 83.6164C125.601 83.0844 123.113 81.4344 122.16 81.1164C120.884 80.4131 119.558 79.8077 118.191 79.3054C117.184 78.8274 114.063 77.6054 113.588 77.4444C112.792 77.1254 108.77 75.5824 108.188 75.2094C105.763 74.1049 103.177 73.3999 100.529 73.1214C97.905 73.1359 95.352 73.9801 93.2318 75.5344" fill="#004F9F"/>
<path d="M37.3639 53.8048C37.3639 53.8048 29.9254 51.0258 28.2852 49.8348C28.8965 49.5766 29.5384 49.3988 30.195 49.3058L44.1478 48.5058C44.1478 48.5058 43.4913 47.4478 44.2144 47.0508C44.9376 46.6538 47.1757 47.0508 47.1757 47.0508L49.3431 48.1848L53.0952 44.8758L57.636 40.0458L58.8874 38.7228C58.8874 38.7228 59.4842 38.2588 61.1901 38.7228C62.8961 39.1868 64.1514 39.4498 64.1514 39.4498C64.1514 39.4498 64.8099 39.8498 64.5493 42.0968C64.2887 44.3438 63.3646 51.4968 63.3646 51.4968L62.5031 53.0768L84.9497 78.5528C84.9497 78.5528 87.6504 80.9338 83.766 80.2068C79.8817 79.4798 71.5908 77.8238 68.2337 76.8318C65.6783 76.0747 63.2411 74.9612 60.9932 73.5238C60.7942 72.9938 60.3964 72.0678 60.3964 72.0678L58.6238 68.4288L56.0574 63.4658L51.4519 53.8048H37.3639Z" fill="#FFE900"/>
<path d="M100.528 73.1222L99.8839 67.6362C99.1837 67.408 98.5395 67.0331 97.994 66.5362C97.5503 65.9362 97.5961 64.8362 99.7845 65.1362C99.7845 64.4362 99.4861 59.6012 99.4861 59.6012L99.685 59.2012L105.686 61.0472L107.67 62.1932L109.803 65.3342L112.233 69.5222L115.258 74.4092L116.697 77.9982C116.035 77.7371 115.314 77.6678 114.615 77.7982C114.152 77.4127 113.607 77.139 113.023 76.9982C112.441 76.1878 111.57 75.6341 110.592 75.4522C109.053 75.2022 108.802 75.3522 108.802 75.3522C108.802 75.3522 107.707 74.7522 107.117 74.5052C104.957 73.8698 102.751 73.4017 100.52 73.1052" fill="#FFE900"/>
<path d="M70.7056 98.3851C71.9642 99.0895 73.3244 99.5922 74.7371 99.8751C75.7772 99.8572 76.8174 99.905 77.8516 100.018C79.36 100.306 80.8496 100.686 82.3118 101.156L90.739 103.398L93.6048 104.252C93.6048 104.252 98.5266 106.316 99.8714 107.561C101.218 108.416 103.13 109.161 102.704 111.441C102.279 113.721 99.6208 113.648 98.5624 113.826L92.4738 114.926L90.8116 115.285C90.8116 115.285 92.052 115.963 92.2977 116.496C92.4121 117.217 92.3889 117.954 92.2291 118.666L93.186 119.698L91.8044 121.62C91.8044 121.62 91.4144 124.29 89.6448 124.646C87.8728 124.943 86.0569 124.833 84.3331 124.325C83.4272 123.974 82.5893 123.466 81.8573 122.825C81.4717 122.417 81.1376 121.963 80.8626 121.473C80.8626 121.473 80.1185 121.58 78.0306 120.405C77.9384 120.78 77.8201 121.147 77.6765 121.505V124.459C77.4677 125.349 76.9504 126.135 76.2172 126.677C75.4841 127.218 74.5831 127.479 73.6758 127.413C72.6295 127.397 71.6 127.146 70.6629 126.678C69.7258 126.21 68.9049 125.537 68.2606 124.708C67.6638 123.924 67.5523 123.924 67.5523 123.924C66.4711 123.769 65.4125 123.482 64.4001 123.07C63.3165 122.378 62.4653 121.373 61.9571 120.188C61.038 120.366 54.1327 121.288 54.1327 121.288L48.2212 122.462L38.8043 123.815L34.3788 124.242L33.2846 123.957L28.5399 121.181L25.6721 119.401C25.6721 119.401 24.6466 118.156 26.3097 117.444C27.4338 116.992 28.613 116.692 29.8161 116.554L32.1168 116.163L34.9836 115.415L43.4456 112.924C43.4456 112.924 42.5951 111.424 43.3023 110.824C44.0096 110.224 45.9881 111.395 46.8833 111.857C47.579 111.762 48.2652 111.607 48.9344 111.394L59.3788 108.582C59.3788 108.582 59.0615 107.482 59.3788 107.194C60.1037 106.838 60.9268 106.738 61.7154 106.909C62.8474 106.981 64.052 107.194 64.052 107.194L66.8143 106.34C68.1112 105.892 69.377 105.358 70.6031 104.74C71.2875 103.684 71.7456 102.496 71.948 101.252C71.6993 100.54 70.7096 98.3701 70.7096 98.3701" fill="#FFE900"/>
<path d="M55.002 60.9502C55.002 60.9502 61.9778 65.2502 63.0322 65.9122C64.0866 66.5742 67.6397 68.1632 68.4305 67.3032C69.2213 66.4432 68.8284 64.5242 66.2581 63.3332C66.3723 63.0138 66.4394 62.6792 66.457 62.3402C66.457 62.3402 70.7343 64.9202 71.9836 65.9792C73.233 67.0382 76.0619 69.7512 75.1428 71.4712C74.2237 73.1912 71.7857 73.1912 68.1679 71.8022C65.0483 69.991 62.0767 67.9335 59.2812 65.6492C58.1617 64.8127 56.9968 64.0395 55.7918 63.3332L55.002 60.9502Z" fill="#F9AB25"/>
<path d="M75.2638 118.832C74.9296 118.832 74.1696 118.532 73.6991 118.882C72.8884 119.351 72.1387 119.919 71.467 120.574C71.034 121.514 70.873 122.558 71.0025 123.586C71.3648 124.422 71.872 125.187 72.5005 125.845C72.957 126.157 73.498 126.321 74.0503 126.314C74.4481 126.314 76.0307 125.795 76.2128 125.214L76.3958 124.562L77.6113 123.875L78.1087 122.603L77.8918 121.866L76.6266 120.673L76.9439 120.004L76.0934 118.966L75.2638 118.832Z" fill="#F9AB25"/>
<path d="M87.7183 115.885C87.7183 115.885 86.9852 115.919 86.2531 116.99C85.7343 117.649 85.3943 118.431 85.2661 119.261C85.138 120.091 85.2262 120.941 85.522 121.726C85.605 122.309 85.8729 122.848 86.2859 123.265C86.8022 123.718 89.3914 124.717 90.1653 122.495C91.2198 121.909 92.1706 121.151 92.9793 120.253L93.0629 119.433L92.1457 118.512L91.5638 117.658L90.9093 116.499C90.9093 116.499 90.1832 115.517 87.7183 115.885Z" fill="#F9AB25"/>
<path d="M60.6427 77.7848L65.6848 82.2158L71.2443 87.1758L76.3173 91.0878L83.4056 96.2568L85.9063 97.9338C85.9063 97.9338 91.603 101.357 94.2459 102.824C97.1253 104.519 100.275 105.7 103.554 106.316C106.682 106.736 108.835 106.805 110.156 106.316C111.477 105.827 114.326 105.268 115.022 101.985C115.719 98.7018 114.538 96.3268 112.735 93.6718C110.977 91.0998 108.673 88.9524 105.989 87.3848C106.405 89.5498 106.476 90.2488 106.058 91.2968C105.64 92.3448 105.293 94.4398 101.749 95.3478C98.2048 96.2558 94.1067 95.4878 90.7724 94.2998C86.635 92.7075 82.6072 90.8411 78.7155 88.7128C78.7155 88.7128 75.7314 86.9318 72.427 85.0128C69.9788 83.4623 67.6511 81.7273 65.464 79.8228C65.464 79.8228 63.8178 78.9568 60.8883 77.0488C60.7682 77.2806 60.684 77.5295 60.6387 77.7868" fill="#FCF7ED"/>
<path d="M82.0758 74.839L86.171 79.339L85.5891 80.423C85.5891 80.423 78.9524 79.149 75.1626 78.285C71.3727 77.421 64.929 75.31 63.989 74.949C62.9352 74.4905 61.9183 73.9509 60.9472 73.335C60.822 73.4515 60.7231 73.5936 60.6572 73.7518C60.5912 73.91 60.5598 74.0806 60.565 74.252C60.5702 74.4234 60.6119 74.5917 60.6872 74.7456C60.7626 74.8995 60.8699 75.0353 61.0019 75.144C62.5022 76.4364 64.1803 77.504 65.9844 78.314C67.9738 79.121 72.8717 80.844 74.2554 81.206C75.639 81.568 82.4418 82.706 83.6295 82.763C84.8172 82.82 88.5523 83.069 89.7699 82.985C91.2079 82.8408 92.6265 82.5425 94.0014 82.095C93.0613 81.317 91.6797 80.149 92.5093 76.645C90.49 76.562 85.2628 76.09 82.0818 74.839" fill="#3D1C57"/>
<path d="M110.154 78.676C109.18 79.5728 108.26 80.5272 107.4 81.534C107.072 81.6781 106.704 81.6981 106.364 81.5904C106.023 81.4826 105.733 81.2544 105.546 80.948C105.357 80.7041 105.219 80.4239 105.142 80.1245C105.064 79.8252 105.048 79.513 105.094 79.2072C105.141 78.9013 105.249 78.6083 105.412 78.346C105.576 78.0838 105.791 77.8578 106.044 77.682C107.337 76.476 109.134 75.376 109.893 75.358C110.742 75.3335 111.575 75.5959 112.258 76.103C112.855 76.618 113.087 77.291 112.575 77.503C111.736 77.8194 110.927 78.2113 110.158 78.674" fill="#FCF7ED"/>
<path d="M115.678 77.8765C115.116 77.7981 114.545 77.8365 113.998 77.9892C113.452 78.142 112.943 78.4058 112.502 78.7645C111.209 79.6645 110.295 80.2555 109.816 81.8525C109.338 83.4495 109.957 84.2295 110.486 84.5525C111.258 84.7897 112.089 84.7458 112.833 84.4285C113.54 83.5648 114.201 82.6635 114.812 81.7285C115.584 80.9455 116.429 80.2386 117.335 79.6175C117.741 79.3875 117.335 78.7115 116.965 78.3745C116.596 78.077 116.144 77.9023 115.672 77.8745" fill="#FCF7ED"/>
<path d="M116.807 81.8852C115.863 82.8172 113.861 84.7062 114.036 85.7852C114.211 86.8642 114.691 87.6312 116.473 86.9912C117.602 86.0162 119.28 83.7622 119.914 83.2132C120.548 82.6642 121.611 81.9132 121.945 81.6332C122.279 81.3532 121.909 80.3022 121.293 80.0712C120.676 79.8402 118.592 80.1252 116.807 81.8812" fill="#FCF7ED"/>
<path d="M121.219 83.557C120.088 84.507 119.122 85.6403 118.362 86.91C118.008 87.548 117.831 89.075 119.158 89.395C120.485 89.715 121.662 88.348 123.676 86.059C125.776 84.141 127.43 83.918 126.13 82.559C125.196 81.584 122.74 82.541 121.22 83.554" fill="#FCF7ED"/>
<path d="M125.052 86.5015C124.05 87.3015 121.541 89.8735 123.004 91.0275C124.467 92.1815 126.253 90.3345 128 88.7555C129.748 87.1765 131.966 86.3955 130.772 85.0115C129.731 83.8055 126.34 85.4725 125.052 86.5015Z" fill="#FCF7ED"/>
<path d="M130.065 88.4358C128.716 89.7148 126.304 92.0918 127.436 93.4048C128.568 94.7178 130.876 92.1988 132.447 90.6898C134.017 89.1808 136.804 88.6678 135.82 87.5128C134.759 86.2708 131.6 86.9808 130.065 88.4358Z" fill="#FCF7ED"/>
<path d="M134.795 90.4417C133.413 91.6777 131.158 93.9207 132.518 95.2327C133.878 96.5447 135.66 95.2327 138.131 92.6247C140.391 91.2047 141.751 90.8147 141.169 89.9447C140.587 89.0747 137.178 88.3117 134.795 90.4447" fill="#FCF7ED"/>
<path d="M63.6521 94.3145C63.6521 94.3145 62.6674 94.4505 62.5132 94.9145C62.4414 95.2891 62.4816 95.6767 62.6286 96.0285L63.4969 96.1965L63.5178 97.4575L66.68 100.233L70.5047 101.883L71.9331 101.864L71.4685 99.9045L71.6605 98.9145L69.2732 97.8145L68.2646 97.1325L66.1608 96.1825L64.7901 95.3045L63.6521 94.3145Z" fill="#FCF7ED"/>
<path d="M98.6406 113.921L100.777 113.633L103.045 114.76L106.196 116.148L108.569 117.09L113.415 118.479L116.797 119.265L119.298 119.658L122.453 120.025L125.395 119.919L127.872 119.972L131.155 119.762L134.413 119.501L136.158 119.186L141.501 118.898L145.41 117.898L147.312 117.792L152.366 116.772L156.404 115.75L157.029 115.435L159.273 114.859L160.834 114.178L161.824 113.261L162.294 112.24L163.519 111.454L164.171 110.17L164.614 108.441L165.629 108.677L165.993 109.358L165.317 111.558L163.049 114.439L159.61 116.273L152.313 118.342L144.548 119.652L142.622 120.49L137.723 121.171L136.341 120.804L131.521 121.304L125.423 121.461L120.994 121.094L117.318 120.911L115.758 120.311L112.893 119.784L106.614 117.898L103.176 116.326L102.549 116.352L98.6406 114.152V113.921Z" fill="#FCF7ED"/>
</g>
<defs>
<clipPath id="clip0_20_2015">
<rect width="188" height="188" fill="white"/>
</clipPath>
</defs>
</svg>
