<svg width="188" height="188" viewBox="0 0 188 188" fill="none" xmlns="http://www.w3.org/2000/svg">
<g clip-path="url(#clip0_20_2011)">
<g style="mix-blend-mode:multiply">
<path d="M94.2688 74.8812L93.3859 88.0412L87.5779 85.5412C87.1469 85.5732 86.716 85.4791 86.3377 85.2705C85.9593 85.0619 85.6498 84.7477 85.4468 84.3662C84.7868 83.0422 84.4899 80.0282 84.2689 79.4412C83.5587 77.3495 82.9943 75.211 82.5798 73.0412C82.5798 72.0902 81.9179 67.6012 81.8449 66.8682C81.7719 66.1352 80.0058 64.3002 78.0229 63.3402C77.4564 63.0853 76.9524 62.7098 76.546 62.24C76.1396 61.7702 75.8406 61.2174 75.6698 60.6202L70.4509 60.4752C70.4509 60.4752 68.0228 60.3992 68.0228 58.8542C68.051 58.3957 68.2226 57.9577 68.5133 57.602C68.804 57.2464 69.1991 56.9911 69.6428 56.8722L74.2728 56.5022L74.3438 55.1812L69.5679 53.7092C69.5679 53.7092 67.3798 52.6002 68.1008 50.6222C68.3948 49.8132 70.3078 49.6642 70.3078 49.6642L73.6179 50.6952L75.8939 51.4312L77.1449 50.1072L75.8939 48.8592L73.9839 48.0492L71.2639 45.0342C71.2639 45.0342 70.0108 43.2702 71.0438 42.5342C71.3648 42.3208 71.7303 42.1834 72.1124 42.1324C72.4945 42.0815 72.8831 42.1183 73.2489 42.2402C73.2489 42.2402 76.4118 44.5182 76.8489 44.9602C77.2859 45.4022 79.0488 46.2842 79.4198 46.6522C79.7908 47.0202 80.6698 47.6802 80.6698 47.6802L81.6989 47.0922L81.0388 45.3272C81.0388 45.3272 80.1559 42.3122 79.9389 41.5772C79.7219 40.8422 79.4239 38.4902 80.8949 38.1232C82.3659 37.7562 83.6109 39.9632 83.6109 39.9632C83.6109 39.9632 84.1979 42.8282 84.4169 43.4892C85.2471 44.911 86.1555 46.2858 87.1379 47.6072C87.664 46.6165 88.1066 45.5836 88.4608 44.5192C89.0499 42.7542 90.8868 41.7262 91.6988 42.0192C92.5108 42.3122 93.1649 44.8842 93.1649 44.8842L114.411 46.4302L121.911 53.1952L121.011 63.7402L100.372 62.2402L94.2688 74.8812ZM89.9009 59.5432L92.3769 65.5292L94.5109 61.8152L94.2388 60.7152L92.3118 59.1312L91.2769 57.6162L89.9009 59.5432Z" fill="#FF8857"/>
<path d="M131.54 145.162C132.2 145.522 132.925 145.748 133.673 145.826C134.386 145.864 135.102 145.814 135.803 145.677L138.966 145.977L143.158 146.122L147.419 145.022L150.066 143.699C151.267 143.038 152.221 142.005 152.786 140.756C153.236 139.544 153.557 138.288 153.742 137.008C153.964 136.055 156.022 131.569 156.464 130.537C156.906 129.505 159.035 125.906 159.035 125.173C159.035 124.44 158.74 121.424 158.74 121.424C159.189 121.406 159.636 121.504 160.036 121.71C160.436 121.916 160.776 122.222 161.022 122.599C161.445 123.501 161.693 124.474 161.755 125.468L160.765 126.732L160.621 128.205L159.481 129.416L159.381 130.749L158.215 131.891L158.238 133.769L157.218 134.886L157.24 136.195L156.504 137.242L156.361 138.859L155.696 139.833L155.242 142.233L154.41 143.16L154.171 143.968L153.198 144.706L152.01 145.942L151.153 147.394L149.466 147.916L148.512 148.316L147.347 148.031L145.898 148.649L144.472 148.199L143.021 148.911L141.808 148.602L140.357 149.218L138.906 148.792L137.621 149.076L136.6 148.458L135.15 148.627L133.939 148.127L132.839 148.227L131.723 148.108L131.176 147.346L130.887 146.157L131.54 145.162Z" fill="white"/>
<path d="M97.2344 79.8075L92.7344 85.6075L92.1514 85.8755C92.1514 85.8755 91.6124 87.3165 91.2514 87.4065C90.8904 87.4965 89.0514 86.1005 89.0514 86.1005L88.1514 85.7415C88.1514 85.7415 87.8363 90.5995 90.1293 91.7695C92.4223 92.9395 95.6163 92.1695 95.6163 92.1695C95.7453 92.1611 95.8734 92.1959 95.9804 92.2683C96.0874 92.3407 96.1672 92.4467 96.2074 92.5695C96.0254 94.6285 97.8074 99.8615 98.3633 100.449C99.5712 100.65 100.73 101.078 101.78 101.708L118.555 93.1635L138.525 87.3755C140.064 86.1455 140.006 84.1075 138.746 81.9755C136.846 78.7525 132.385 75.1455 127.94 72.4905C127.747 72.3775 97.2403 79.8075 97.2403 79.8075" fill="white"/>
<path d="M115.478 122.779C115.478 122.779 115.255 129.706 120.767 131.249C125.817 133.594 130.255 132.37 138.303 129.283C142.937 134.026 144.368 136.562 144.368 136.562L149.442 132.593L154.954 119.693L148.781 116.055L146.317 116.164C144.337 115.054 142.19 114.272 139.96 113.85C138.205 113.712 136.44 113.938 134.776 114.513L115.478 122.779Z" fill="#FF8857"/>
<path d="M90.2257 105.9C89.755 105.675 89.2309 105.586 88.7123 105.642C88.1937 105.699 87.7011 105.899 87.2897 106.219C85.8147 107.334 83.3897 111.525 82.2897 112.297C81.1897 113.069 74.7897 117.369 72.5897 117.809C71.2769 118.527 69.779 118.834 68.2897 118.691L65.9727 125.308L67.7367 133.137L73.2527 133.579L74.3527 130.491C74.3527 130.491 80.5897 129.043 86.3737 127.405C92.4407 125.198 95.1287 123.019 97.6217 119.243C98.7294 119.333 99.8444 119.259 100.931 119.024L97.0627 108L90.2257 105.9Z" fill="#FF8857"/>
<path d="M73.5101 133.636C73.5101 133.636 72.4001 140.8 65.6001 139.759C59.1901 138.777 61.7301 136.759 58.0351 133.117C58.0351 133.117 50.6981 126.646 48.5001 125.202C46.3021 123.758 43.3001 115.267 43.7601 114C44.2201 112.733 47.1121 111 51.3841 113.132C55.6561 115.264 58.4331 117.872 63.4011 119.198C65.4811 122.317 66.4631 128.211 66.4631 128.211C66.4631 128.211 68.1951 134.622 73.5101 133.64" fill="#2B84C8"/>
<path d="M60.6841 123.236C60.6841 123.236 58.7791 124.45 58.7791 126.184C58.7791 127.918 62.4791 130.807 65.3051 132.423C68.1311 134.039 69.8681 135.716 72.9881 135.423C73.029 135.812 72.9206 136.201 72.685 136.513C72.4493 136.824 72.104 137.034 71.7191 137.1C71.7191 137.1 67.2701 137.33 61.5521 133.459C55.8341 129.588 52.9431 127.799 53.5221 124.622C54.1011 121.445 59.7621 122.713 60.6841 123.232" fill="white"/>
<path d="M62.034 117.73C62.034 117.73 62.501 118.23 61.71 119.588C60.919 120.946 60.896 121.693 60.21 121.479C59.524 121.265 59.256 119.279 59.741 118.74C60.226 118.201 60.281 117.496 62.032 117.73" fill="#FFFDF4"/>
<path d="M59.1469 116.394L59.3099 117.638C59.3099 117.638 57.6169 120.306 56.8769 119.893C56.1369 119.48 56.8039 117.802 57.1819 117.278C57.5599 116.754 58.5899 116.161 59.1469 116.394Z" fill="#FFFDF4"/>
<path d="M56.4601 115.224C56.9601 115.56 55.8471 116.468 55.7041 116.937C55.5611 117.406 54.9451 118.775 54.2441 118.507C53.5431 118.239 54.0441 116.792 54.4241 116.126C54.8041 115.46 55.7421 114.735 56.4601 115.226" fill="#FFFDF4"/>
<path d="M53.9205 113.6C54.3745 114 53.7045 115.024 52.9665 115.386C52.2285 115.748 52.2255 116.936 51.5955 116.448C50.9655 115.96 51.5395 114.899 52.0955 114.339C52.6515 113.779 53.5665 113.295 53.9155 113.6" fill="#FFFDF4"/>
<path d="M75.0903 130.3C74.2903 129.886 72.4153 132.037 72.0003 132.23C71.6056 132.266 71.2077 132.218 70.8327 132.09C70.4577 131.962 70.1141 131.755 69.8243 131.485C69.2245 130.863 68.8887 130.032 68.8873 129.168C69.6897 128.215 70.1541 127.023 70.2083 125.779C70.1823 124.016 68.5833 121.285 68.5833 121.285L68.3633 119.245C68.9914 119.12 69.6084 118.945 70.2083 118.721C70.4033 118.446 70.9563 118.114 70.6813 116.521C70.4063 114.928 68.6373 114.755 67.6743 114.837C66.7113 114.919 65.5493 116.521 65.1653 117.32C65.0434 117.766 65.0787 118.24 65.2653 118.663L65.2223 118.706C65.2153 118.575 65.1223 118.457 64.8443 118.397C64.5995 118.369 64.3517 118.399 64.1204 118.484C63.8891 118.569 63.6806 118.706 63.5113 118.885C63.5113 118.885 62.3013 122.254 63.1683 122.313C63.3748 122.337 63.5839 122.312 63.7793 122.241C63.9747 122.17 64.151 122.055 64.2943 121.905L64.4183 122.033L63.7303 123.687L63.2353 126.251L63.4303 127.768L63.5653 129.531L64.3903 129.831L64.6963 129.39L65.0823 127.902L66.2673 126.911C66.3833 127.313 66.42 127.734 66.3753 128.15C66.3213 128.95 67.6163 131.072 68.0873 131.789C69.2556 133.002 70.8446 133.722 72.5273 133.8C74.0953 133.663 75.2033 131.429 75.0903 130.3Z" fill="white"/>
<path d="M43.994 113.5C44.043 114.965 44.53 120.535 47.123 123.126C49.468 127.326 52.743 127.769 55.968 130.798C55.968 130.798 60.51 137.151 61.438 138.272C62.366 139.393 65.006 139.546 65.446 139.546C65.346 140.326 64.322 141.695 63.934 141.695C63.4506 141.628 62.975 141.513 62.514 141.353L61.928 141.402L61.099 140.813L59.925 140.523L58.411 139.5L58.165 138.425L57.334 137.886L56.894 136.421L55.968 135.981L55.574 134.906L54.646 134.706L54.206 133.339L53.572 133.239L52.545 131.83L51.227 131.389L50.788 130.511L50.201 130.167L49.468 129.238H48.831L48.441 128.409L47.072 127.529L46.778 126.795L45.901 126.062L45.556 125.036L44.778 124.646L44.384 123.278L43.458 122.592L43.164 121.421L42.577 120.836L42.477 119.513L41.89 118.784L41.939 117.12L41.5 116.484L42.136 115.117L42.382 113.994L43.994 113.5Z" fill="white"/>
<path d="M95.8664 121.372L97.3554 123.865L99.2614 124.451L108.352 119.076C107.809 118.012 107.493 116.847 107.424 115.654C107.568 114.432 107.666 112.038 107.424 111.942C107.182 111.846 105.124 112.43 104.1 111.21C103.076 109.99 101.706 109.302 101.07 108.521C100.434 107.74 100.776 106.029 100.776 106.029L99.7004 105.735C99.7004 105.735 96.0824 107.396 93.9824 106.078C91.8824 104.76 91.8824 103.096 94.4224 101.826C91.4424 102.412 87.3854 103.926 87.1904 104.708C87.0797 105.213 87.1144 105.739 87.2904 106.225L89.9764 105.1L91.3974 106.077L95.2574 110.963L98.5774 116.828L99.2124 118.828L95.8664 121.372Z" fill="#2B84C8"/>
<path d="M133.341 99.3623C128.733 101.138 120.214 104.298 119.706 105.023C119.267 105.981 118.898 108.186 118.533 108.923C118.168 109.66 114.268 112.23 113.015 112.823C112.727 114.869 112.629 116.936 112.721 118.999C112.721 118.999 111.686 120.58 110.698 120.599C109.71 120.618 110.798 121.725 110.798 121.725C113.682 123.223 116.977 123.737 120.181 123.189C125.507 122.261 131.32 120.989 134.496 118.009C134.842 117.454 135.068 116.833 135.161 116.185C135.253 115.537 135.21 114.877 135.034 114.247C134.549 113.18 134.173 112.066 133.911 110.923C133.842 109.534 133.923 108.142 134.155 106.77C134.327 106.819 134.504 106.846 134.683 106.85C134.352 104.679 134.569 102.391 133.909 100.25C133.738 99.9452 133.549 99.6507 133.343 99.3683" fill="#2B84C8"/>
<path d="M146.856 90.7332C146.856 90.7332 147.883 89.9042 147.835 89.3162C147.787 88.7282 144.608 81.4992 144.608 81.4992C144.608 81.4992 142.553 80.2772 141.481 80.4232C141.481 80.0802 139.769 71.0912 139.235 69.4292C138.701 67.7672 137.769 64.9292 134.443 65.3292C136.058 63.9102 140.504 61.0772 139.136 53.0642C137.768 45.0512 134.036 42.6272 130.829 41.8242C127.31 40.9452 122.029 41.8702 119.491 42.8502C121.375 45.4626 122.353 48.6199 122.276 51.8402C122.033 53.3552 119.2 57.1202 119.2 57.1202L112.61 80.1572C112.61 80.1572 110.955 90.2482 117.518 92.4572C119.007 91.6862 122.318 89.6432 122.318 89.6432C122.318 89.6432 119.448 85.1172 120.713 80.3212C121.978 75.5252 126.113 71.2972 131.302 74.3852C133.781 76.2805 135.968 78.5303 137.792 81.0622C137.792 81.0622 141.392 84.8862 138.236 87.6782C138.013 89.6622 139.997 91.9422 140.22 92.2362C140.443 92.5302 138.086 97.5302 133.527 99.2942C133.467 99.3172 133.403 99.3392 133.343 99.3662C133.549 99.6487 133.738 99.9432 133.909 100.248C134.569 102.387 134.352 104.674 134.684 106.848C135.935 106.873 137.185 106.748 138.407 106.475C141.778 105.839 146.028 105.399 145.15 101.591C147.05 100.954 148.328 99.9762 148.572 98.4122C148.816 96.8482 146.86 90.7402 146.86 90.7402" fill="#0A598E"/>
<path d="M97.6499 79.0733C97.6499 79.0733 96.4729 83.0423 96.1799 84.3663C95.9931 86.9098 95.9437 89.4615 96.0319 92.0103C96.0319 92.0103 92.1319 85.9843 91.7669 82.3103C91.4019 78.6363 93.8999 75.0293 93.8999 75.0293L97.6499 79.0733Z" fill="#0A598E"/>
<path d="M144.922 88.4826C144.922 89.0277 144.76 89.5604 144.457 90.0134C144.153 90.4664 143.723 90.8194 143.219 91.0276C142.715 91.2358 142.161 91.29 141.627 91.1833C141.092 91.0765 140.601 90.8137 140.216 90.428C139.831 90.0423 139.569 89.551 139.463 89.0163C139.357 88.4816 139.412 87.9275 139.621 87.4241C139.83 86.9206 140.183 86.4905 140.637 86.188C141.09 85.8855 141.623 85.7242 142.168 85.7246C142.53 85.7247 142.889 85.7962 143.223 85.9349C143.557 86.0736 143.861 86.2768 144.117 86.5329C144.372 86.7891 144.575 87.0931 144.713 87.4276C144.852 87.7622 144.923 88.1207 144.922 88.4826Z" fill="white"/>
<path d="M150.021 115.491C150.021 115.491 157.707 116.345 158.56 121.399C159.06 125.882 158.917 126.381 158.703 126.381C158.489 126.381 153.932 135.418 153.935 136.345C153.971 149.416 132.586 147.985 131.159 145.098C130.321 143.398 131.375 139.477 133.223 139.191C133.703 139.364 134.219 139.413 134.723 139.335C137.503 137.152 139.46 134.091 140.276 130.651C144.19 129.651 144.76 129.867 144.76 129.867L146.325 130.579L146.825 131.648C146.825 131.648 150.668 131.505 151.519 127.876C152.37 124.247 152.659 120.758 151.735 119.191C150.941 117.945 150.061 116.755 149.101 115.632L150.021 115.491Z" fill="#2B84C8"/>
<path d="M153.223 115.989C153.223 115.989 154.293 125.389 151.373 131.219C150.398 135.863 147.387 135.49 146.463 132.856C145.323 134.351 144.042 138.763 146.75 140.114C149.458 141.465 151.513 139.614 153.08 135.562C154.647 131.51 156.496 120.262 154.931 116.63C154.446 116.238 153.847 116.013 153.223 115.989Z" fill="white"/>
<path d="M138.922 133.778L138.822 132.856C137.894 133.6 136.866 134.21 135.769 134.669C134.969 134.769 133.485 134.953 133.802 133.205C134.022 132.122 134.591 131.141 135.421 130.411L137.679 129.49L139.079 129.39L138.409 127.007L138.568 124.624L139.714 122.717L140.888 121.635L141.428 121.668L143.08 119.953C143.08 119.953 143.606 119.905 143.812 120.11C144.018 120.315 142.477 121.858 142.477 121.858L141.936 122.494C142.023 122.749 142.047 123.022 142.003 123.288C141.959 123.555 141.85 123.806 141.685 124.019C141.112 124.813 141.239 127.04 141.239 127.04C141.923 126.398 142.693 125.852 143.526 125.418C144.226 125.227 146.291 124.655 146.991 125.832C147.691 127.009 147.499 129.168 145.847 129.168C144.195 129.168 144.547 129.675 144.547 129.675C144.547 129.675 144.896 130.475 144.768 130.693C144.64 130.911 143.625 131.105 143.625 131.105C142.6 130.888 141.557 130.771 140.511 130.754C140.329 130.781 140.161 130.867 140.034 131C139.907 131.133 139.828 131.304 139.811 131.487C139.811 131.487 139.97 131.9 140.669 131.9C141.368 131.9 142.735 132.058 142.735 132.058L144.228 133.078L144.259 133.87L143.528 134.316L142.352 133.806L140.699 133.743L138.922 133.778Z" fill="white"/>
<path d="M138.825 134.764C138.825 134.764 140.795 134.698 141.556 135.396C141.993 135.776 142.314 136.272 142.479 136.826L142.289 137.463L140.255 136.986L138.155 136.797L137.328 136.097L137.71 135.146L138.825 134.764Z" fill="#FFFDF4"/>
<path d="M136.379 137.621L138.41 138.259C138.41 138.259 139.556 138.923 139.11 139.496C138.664 140.069 137.839 139.814 136.915 139.402C136.194 139.14 135.428 139.021 134.662 139.053C134.583 138.834 134.57 138.595 134.627 138.369C134.683 138.142 134.805 137.937 134.978 137.78C135.185 137.652 135.418 137.571 135.66 137.544C135.902 137.516 136.147 137.543 136.378 137.621" fill="#FFFDF4"/>
<path d="M146.646 116.638L146.316 116.161C146.847 115.762 147.492 115.543 148.155 115.538C148.928 115.684 150.727 116.638 150.986 117.632C151.481 118.941 151.898 120.279 152.233 121.638C152.211 123.373 151.99 125.1 151.573 126.784C151.204 127.668 150.397 131.384 146.759 131.932C146.572 131.552 146.459 131.139 146.427 130.716C146.427 130.716 147.127 130.864 148.337 129.616C149.126 128.878 149.753 127.984 150.177 126.99C150.601 125.997 150.814 124.926 150.802 123.846C151.022 120.577 150.214 118.553 148.815 117.636C148.173 117.151 147.433 116.812 146.646 116.642" fill="#FFFDF4"/>
<path d="M99.9318 81.382C99.9318 81.382 99.0318 84.664 101.239 85.026C103.079 85.2682 104.95 85.0498 106.685 84.3904C108.419 83.731 109.963 82.6513 111.178 81.248C111.29 81.341 111.38 81.4574 111.442 81.5891C111.504 81.7208 111.536 81.8645 111.537 82.01C111.537 82.01 106.769 87.544 105.737 88.262C104.705 88.98 102.637 91.456 98.9018 90.646C95.1668 89.836 95.8018 86.869 95.8428 86.465C95.8838 86.061 97.1428 82.465 99.8918 81.29" fill="#D11F1D"/>
<path d="M102.575 92.6176C103.158 92.8988 103.767 93.1206 104.395 93.2796C106.543 93.4056 108.695 93.4236 110.845 93.3336C111.621 93.6501 112.439 93.8545 113.273 93.9406C114.755 93.7947 116.167 93.2409 117.353 92.3406C118.29 91.4586 121.985 90.1916 122.096 90.0246C122.207 89.8576 132.127 83.8496 135.052 83.6826C136.247 84.8233 137.17 86.2185 137.752 87.7646C138.14 88.4816 138.413 90.0246 138.743 90.2466C139.073 90.4686 140.95 92.4466 140.121 93.2786C139.292 94.1106 136.371 97.6316 134.499 98.7346C132.627 99.8376 124.905 102.435 123.691 102.873C122.233 103.481 120.862 104.278 119.611 105.243C119.391 105.573 119.17 108.553 118.511 109.157C116.746 110.661 114.866 112.026 112.889 113.238C112.666 114.78 112.613 119.411 112.613 119.411C112.479 119.74 112.236 120.013 111.924 120.184C111.613 120.355 111.251 120.413 110.902 120.349C109.468 120.294 108.808 120.019 108.256 118.641C107.709 116.52 107.507 114.325 107.656 112.141C105.449 111.862 104.956 112.029 104.456 111.533C103.956 111.037 103.463 109.823 102.802 109.491C102.141 109.159 100.817 108.61 100.702 107.838C100.634 107.159 100.616 106.477 100.647 105.796L99.4338 105.852C99.4338 105.852 96.5648 106.79 94.9658 106.404C93.3668 106.018 92.1538 105.468 92.2088 104.64C92.2638 103.812 93.9728 101.828 95.5718 101.44C97.1708 101.052 102.244 100.228 103.678 99.1236C102.411 98.4066 99.1558 96.3116 99.1558 95.5946C99.1558 94.8776 98.6048 91.5706 102.575 92.6186" fill="#FF8857"/>
<path d="M115.734 64.075C115.734 65.659 112.541 66.941 108.603 66.941C104.665 66.941 101.473 65.659 101.473 64.075C101.473 62.491 104.666 61.207 108.603 61.207C112.54 61.207 115.734 62.492 115.734 64.075Z" fill="white"/>
<path d="M50.0698 78.926C50.0698 76.865 51.5748 77.756 51.5748 76.25C51.5748 75.05 50.0338 75.132 50.0338 75.132H44.2208C44.2208 75.132 42.6758 75.05 42.6758 76.25C42.6758 77.756 44.1758 76.865 44.1758 78.926V88.152C44.0818 89.957 42.6758 89.176 42.6758 90.628C42.6758 91.828 44.2208 91.747 44.2208 91.747H50.0338C50.0338 91.747 51.5748 91.832 51.5748 90.628C51.5748 89.176 50.1688 89.957 50.0748 88.152L50.0698 78.926Z" fill="#2E2C31"/>
<path d="M48.4996 97.8803C48.4996 95.8183 49.9996 96.7103 49.9996 95.2053C49.9996 94.0053 48.4586 94.0863 48.4586 94.0863H42.6476C42.6476 94.0863 41.0996 94.0003 41.0996 95.2053C41.0996 96.7053 42.6086 95.8183 42.6086 97.8803V107.104C42.5086 108.91 41.1086 108.128 41.1086 109.583C41.1086 110.783 42.6536 110.701 42.6536 110.701H48.4666C48.4666 110.701 49.9996 110.782 49.9996 109.583C49.9996 108.128 48.5996 108.91 48.4996 107.104V97.8803Z" fill="#2E2C31"/>
<path d="M25.5625 107.1C25.4685 108.906 24.0625 108.124 24.0625 109.578C24.0645 110.782 25.6005 110.7 25.6005 110.7H28.8005C28.8005 110.7 30.3405 110.781 30.3405 109.581C30.3405 108.127 28.9405 108.909 28.8405 107.103V100.757C29.5675 101.634 35.2405 108.479 35.4715 108.79C35.7185 109.128 35.6715 109.419 35.9045 110.077C36.1375 110.735 36.6335 110.7 36.6335 110.7H39.1535C39.8335 110.7 39.7685 109.989 39.7685 109.989V97.6813C39.8685 95.8743 41.2685 96.6583 41.2685 95.2043C41.2685 94.0043 39.7255 94.0863 39.7255 94.0863H36.5255C36.5255 94.0863 34.9905 94.0003 34.9905 95.2053C34.9905 96.6593 36.3905 95.8753 36.4905 97.6823V100.282L31.3685 94.2943C31.3685 94.2943 31.2615 94.0863 30.8815 94.0863H25.6005C25.6005 94.0863 24.0645 94.0003 24.0645 95.2053C24.0645 96.7053 25.5645 95.8183 25.5645 97.8803L25.5625 107.1Z" fill="#2E2C31"/>
<path d="M41.013 88.1521L41.007 78.9261C41.007 76.8661 42.507 77.7571 42.507 76.2501C42.507 75.0501 40.966 75.1331 40.966 75.1331H35.156C35.156 75.1331 33.617 75.0501 33.617 76.2501C33.617 77.7571 35.117 76.8661 35.117 78.9261V80.7691C35.0587 80.9687 34.9311 81.141 34.7572 81.255C34.5832 81.369 34.3743 81.4172 34.168 81.3911H32.356C32.1498 81.4165 31.9412 81.3699 31.7655 81.2591C31.5898 81.1483 31.4578 80.9801 31.392 80.7831V78.9261C31.392 76.8661 32.898 77.7571 32.898 76.2501C32.898 75.0501 31.357 75.1331 31.357 75.1331H25.539C25.539 75.1331 24 75.0501 24 76.2501C24 77.7571 25.5 76.8661 25.5 78.9261V88.1521C25.4 89.9581 24 89.1761 24 90.6291C24 91.8291 25.539 91.7471 25.539 91.7471H31.353C31.353 91.7471 32.894 91.8321 32.894 90.6291C32.894 89.1761 31.494 89.9581 31.394 88.1521V85.0241C31.4581 84.8312 31.5872 84.6666 31.7592 84.5583C31.9311 84.4499 32.1354 84.4046 32.337 84.4301H34.152C34.3596 84.4059 34.5691 84.4541 34.7453 84.5665C34.9214 84.6789 35.0534 84.8487 35.119 85.0471V88.1471C35.019 89.9531 33.619 89.1711 33.619 90.6241C33.619 91.8241 35.158 91.7421 35.158 91.7421H40.97C40.97 91.7421 42.511 91.8271 42.511 90.6241C42.511 89.1711 41.111 89.9531 41.011 88.1471" fill="#2E2C31"/>
<path d="M85.0218 86.8073C83.7588 86.1773 82.4407 88.4183 80.7597 88.9263C79.4068 89.3643 77.9589 89.419 76.5767 89.0843C76.3477 88.9183 76.3347 88.5933 76.3137 88.1513C76.3137 88.1513 76.3087 84.0863 76.3087 83.8763C76.3087 83.6663 76.7947 83.5483 77.1767 83.5103C79.0497 83.3323 79.8197 85.5793 81.0767 84.9493C82.3337 84.3193 81.2768 82.7863 80.7078 81.6933C80.1718 80.6663 79.8567 79.7613 78.8967 79.7613C77.9368 79.7613 77.6348 80.8233 76.9037 80.8233C76.7561 80.8317 76.6109 80.7824 76.499 80.6857C76.387 80.589 76.317 80.4527 76.3038 80.3053V78.9263C76.3038 78.4323 76.3177 78.0263 76.5247 77.8803C76.7317 77.7343 77.5108 77.5383 79.3248 78.1053C81.0038 78.6293 82.1068 80.4493 83.3687 79.8203C84.6307 79.1913 83.4158 77.5963 82.8458 76.5033C82.3118 75.4743 81.9987 74.5693 81.0387 74.5693C80.0787 74.5693 79.6247 75.1303 79.2167 75.1303H70.4558C70.4558 75.1303 68.9127 75.0493 68.9127 76.2503C68.9127 77.7563 70.4187 76.8653 70.4187 78.9263L70.4127 88.1513C70.4326 88.4496 70.3592 88.7467 70.2028 89.0014C70.0464 89.2562 69.8147 89.456 69.5398 89.5733C69.5062 89.5375 69.4701 89.5041 69.4317 89.4733C68.9896 89.1234 68.5667 88.7499 68.1648 88.3543L65.1178 79.8543C65.0401 79.6526 64.9802 79.4445 64.9387 79.2323C64.9387 79.0983 65.2478 78.8323 65.2478 78.8323C65.6584 78.3729 66.1208 77.9625 66.6257 77.6093C67.2897 77.2093 68.4597 77.2533 68.4597 76.0933C68.4597 74.9333 66.6257 75.1443 66.6257 75.1443H62.2367C62.1094 75.1308 61.9805 75.1452 61.8593 75.1867C61.7381 75.2283 61.6275 75.2958 61.5351 75.3846C61.4428 75.4734 61.371 75.5813 61.3248 75.7008C61.2786 75.8203 61.2591 75.9485 61.2677 76.0763C61.2499 76.2322 61.2715 76.3901 61.3306 76.5355C61.3896 76.6808 61.4843 76.809 61.6057 76.9083L62.0738 77.3773C62.1827 77.5055 62.2485 77.6647 62.2618 77.8323C62.2618 78.0703 61.9558 78.3643 61.9558 78.3643L59.2428 81.4123V78.9263C59.2428 76.8653 60.7428 77.7563 60.7428 76.2503C60.7428 75.0503 59.2017 75.1323 59.2017 75.1323H53.3918C53.3918 75.1323 51.8498 75.0493 51.8498 76.2503C51.8498 77.7563 53.3498 76.8653 53.3498 78.9263L53.3438 88.1513C53.2498 89.9573 51.8438 89.1753 51.8438 90.6283C51.8438 91.8283 53.3857 91.7463 53.3857 91.7463H59.2008C59.2008 91.7463 60.7418 91.8313 60.7418 90.6283C60.7418 89.1753 59.3418 89.9573 59.2418 88.1513V85.3363L60.4797 84.1003C60.4797 84.1003 60.5447 84.0003 60.6077 84.1003C61.2786 85.7948 61.8257 87.5357 62.2447 89.3093C62.2447 90.1353 61.3917 89.7633 61.3917 90.7593C61.3936 91.0325 61.5029 91.2939 61.696 91.487C61.8892 91.6802 62.1506 91.7895 62.4237 91.7913H68.4237C68.7588 91.8007 69.0855 91.6864 69.3417 91.4703C69.6791 91.6649 70.0646 91.7602 70.4537 91.7453H79.1767C79.8707 91.7453 81.7437 92.5973 82.7037 92.5973C83.6637 92.5973 83.9787 91.2893 84.5127 90.2603C85.0827 89.1673 86.2788 87.4323 85.0198 86.8033" fill="#2E2C31"/>
<path d="M83.2893 105.841C82.0293 105.211 80.7093 107.452 79.0263 107.959C77.6745 108.395 76.2285 108.45 74.8473 108.119C74.6173 107.955 74.6023 107.628 74.5793 107.185C74.5793 107.185 74.5793 103.121 74.5793 102.91C74.5793 102.699 75.0673 102.584 75.4453 102.544C77.3243 102.367 78.0893 104.612 79.3453 103.981C80.6013 103.35 79.5453 101.82 78.9743 100.727C78.4403 99.6995 78.1253 98.7945 77.1653 98.7945C76.2053 98.7945 75.9023 99.8545 75.1743 99.8545C75.0268 99.8622 74.882 99.8125 74.7703 99.716C74.6585 99.6195 74.5883 99.4836 74.5743 99.3365V97.9605C74.5743 97.4605 74.5893 97.0605 74.7943 96.9125C74.9993 96.7645 75.7823 96.5715 77.5943 97.1385C79.2703 97.6625 80.3783 99.4815 81.6363 98.8525C82.8943 98.2235 81.6833 96.6305 81.1133 95.5355C80.5833 94.5075 80.2663 93.6025 79.3083 93.6025C78.3503 93.6025 77.8963 94.1605 77.4843 94.1605H68.7223C68.7223 94.1605 67.1833 94.0835 67.1833 95.2865C67.1833 96.7865 68.6833 95.8985 68.6833 97.9605L68.6773 107.185C68.6971 107.483 68.6237 107.78 68.4673 108.035C68.3109 108.289 68.0792 108.489 67.8043 108.607C67.771 108.57 67.7346 108.537 67.6953 108.507C67.2535 108.158 66.8309 107.785 66.4293 107.391L63.3813 98.8905C63.3051 98.6903 63.2462 98.4839 63.2053 98.2735C63.2053 98.1395 63.5143 97.8735 63.5143 97.8735C63.9239 97.4146 64.3849 97.0042 64.8883 96.6505C65.5543 96.2505 66.7223 96.2935 66.7223 95.1325C66.7223 93.9715 64.8883 94.1835 64.8883 94.1835H60.5043C60.377 94.1701 60.2483 94.1847 60.1272 94.2263C60.0061 94.2679 59.8956 94.3354 59.8033 94.4242C59.7111 94.513 59.6394 94.6209 59.5933 94.7403C59.5472 94.8597 59.5277 94.9878 59.5363 95.1155C59.5185 95.2717 59.5401 95.4299 59.5991 95.5756C59.6582 95.7212 59.7528 95.8498 59.8743 95.9495L60.3443 96.4195C60.4524 96.5468 60.5175 96.705 60.5303 96.8715C60.5303 97.1105 60.2303 97.4065 60.2303 97.4065L57.5143 100.453V97.9675C57.5143 95.9055 59.0143 96.7955 59.0143 95.2935C59.0143 94.0935 57.4753 94.1725 57.4753 94.1725H51.6593C51.6593 94.1725 50.1203 94.0905 50.1203 95.2935C50.1203 96.7935 51.6203 95.9055 51.6203 97.9675L51.6133 107.192C51.5193 108.998 50.1133 108.215 50.1133 109.669C50.1133 110.869 51.6523 110.789 51.6523 110.789H57.4673C57.4673 110.789 59.0063 110.871 59.0063 109.669C59.0063 108.215 57.6063 108.998 57.5063 107.192V104.375L58.7363 103.144C58.7363 103.144 58.8083 103.051 58.8693 103.144C59.5398 104.839 60.0869 106.58 60.5063 108.355C60.5063 109.182 59.6573 108.81 59.6573 109.805C59.6586 110.077 59.7674 110.338 59.96 110.531C60.1526 110.724 60.4136 110.834 60.6863 110.836H66.6863C67.0212 110.845 67.348 110.731 67.6053 110.517C67.9421 110.71 68.3262 110.805 68.7143 110.793H77.4393C78.1333 110.793 80.0083 111.649 80.9663 111.649C81.9243 111.649 82.2413 110.338 82.7773 109.309C83.3473 108.217 84.5413 106.482 83.2773 105.852" fill="#2E2C31"/>
</g>
</g>
<defs>
<clipPath id="clip0_20_2011">
<rect width="188" height="188" fill="white"/>
</clipPath>
</defs>
</svg>
