<svg width="64" height="56" viewBox="0 0 64 56" fill="none" xmlns="http://www.w3.org/2000/svg">
<path d="M6.1316 20.4546L7.61789 20.1914C7.22048 22.2606 7.14433 24.3784 7.39257 26.4707C7.52305 27.5455 7.9415 28.5655 8.60392 29.4219C9.40971 30.6088 10.1381 31.8491 10.9178 33.0994C12.2298 32.8547 13.4921 32.3941 14.6531 31.7358C15.024 31.4257 15.3419 31.0566 15.5944 30.6443C15.9408 30.1793 16.2851 29.9167 16.9215 30.1827C17.0831 30.2434 17.2561 30.2664 17.4279 30.2509C17.5998 30.2354 17.7663 30.1817 17.9144 30.0931C18.5431 29.5434 19.3476 28.9712 19.5854 28.2423C19.6871 27.8178 19.9377 27.4435 20.2917 27.188C20.6456 26.9326 21.0791 26.8125 21.514 26.8497C21.6827 27.1185 21.867 27.4108 22.1259 27.813C23.5526 26.9839 24.9951 26.1745 26.407 25.3207C28.1004 24.299 29.7824 23.2595 31.4399 22.1814C32.3797 21.5703 33.242 20.8449 34.1706 20.2162C35.2396 19.493 36.3908 18.8908 37.416 18.1125C39.3303 16.6548 41.5631 15.6793 43.3722 14.0409C44.4916 13.1912 45.6635 12.4129 46.8816 11.7119C48.5411 10.5582 50.16 9.34744 51.8111 8.18392C53.3288 7.11495 54.8754 6.07896 56.3974 5.01634C57.7846 4.0518 59.3109 3.29754 60.4194 1.92869C60.8943 1.34517 61.7388 1.07751 62.2151 0.380388C62.5044 -0.0380275 63.0068 0.0984493 63.4471 0.279786C63.6412 0.352464 63.7998 0.496316 63.8915 0.682194C63.9833 0.868072 64.0008 1.08198 63.9405 1.28029C63.7443 2.12136 63.7395 3.07905 62.8201 3.59414C62.6058 3.71111 62.4386 3.89853 62.3467 4.12471C61.6482 6.37343 59.9909 7.9494 58.3991 9.51793C57.8315 10.0564 57.328 10.6584 56.8983 11.3122C56.5783 11.716 56.2132 12.0819 55.8103 12.403C55.7574 12.4552 55.6252 12.4693 55.6133 12.5208C55.5081 12.9484 55.444 13.3376 54.9318 13.5606C54.5543 13.7222 54.2818 14.1305 53.8507 14.5384C53.7434 14.3937 53.6037 14.2036 53.4979 14.0519C51.8828 15.8526 50.4223 17.6338 48.7902 19.2419C47.8928 20.2643 46.9139 21.2123 45.8638 22.0773C45.0408 22.7715 44.3078 23.5655 43.6816 24.4415C42.5442 25.8011 41.4533 27.1993 40.3321 28.5717C39.3109 29.8229 38.2808 31.0652 37.2417 32.2981C37.0509 32.4992 36.8383 32.6778 36.6071 32.8307C36.4469 32.9521 36.2255 33.0091 36.1027 33.1573C35.3202 34.1219 34.5509 35.1023 33.7861 36.0803C33.2357 36.7802 32.6924 37.4812 32.1427 38.1819C31.5493 38.9383 30.9489 39.6932 30.3484 40.4468C30.2067 40.637 30.0502 40.8157 29.8805 40.9815C27.7638 42.9508 25.6685 44.9269 23.7197 47.081C22.2111 48.7497 20.6642 50.4941 18.5277 51.513C17.1207 52.1847 15.824 53.0835 14.4347 53.7828C12.631 54.6402 10.7219 55.2559 8.75689 55.6129C8.28017 55.6915 7.79181 55.6575 7.33055 55.5137C6.8693 55.3698 6.44817 55.1196 6.10059 54.784C5.05463 53.9254 4.08435 52.9785 3.20105 51.9533C1.90931 50.4744 1.15141 48.6051 1.04845 46.6442C1.05211 46.3609 1.03362 46.0777 0.993323 45.7973C0.627866 43.7581 0.744858 41.6618 1.33441 39.6758C1.47552 39.0901 1.49533 38.4758 1.59693 37.8739C1.66255 37.4865 1.76969 37.1042 1.86635 36.7211C1.8967 36.6047 2.00738 36.4843 1.98763 36.3848C1.58685 34.4402 2.65484 32.6075 2.41071 30.6657C2.42451 30.1832 2.545 29.7098 2.7635 29.2793C3.17557 28.1504 3.58744 27.0215 4.06513 25.9236C4.3764 25.0099 4.75616 24.1207 5.20206 23.2646C5.62129 22.3687 5.93306 21.4266 6.13022 20.4574M43.069 21.2126C43.2581 21.197 43.5356 21.2529 43.621 21.1485C44.0236 20.6564 44.397 20.1415 44.7393 19.6057C44.7986 19.5168 44.7019 19.3237 44.6787 19.1826C44.8982 19.2106 45.1214 19.1731 45.3202 19.0758C45.5189 18.9785 45.6845 18.8254 45.797 18.6348C47.0134 17.1756 48.2735 15.7499 49.5365 14.331C49.8963 13.9281 50.4395 13.6504 50.6879 13.2016C51.0036 12.5938 51.4455 12.0607 51.984 11.6375C52.5259 11.2282 53.0423 10.7774 53.6067 10.3992C54.4238 9.83216 55.2715 9.31116 56.1466 8.83853C56.521 8.70388 56.8399 8.44754 57.052 8.11088C57.2641 7.77422 57.3574 7.37603 57.3173 6.98015C56.7683 7.32448 56.3028 7.61538 55.8393 7.91244C54.8959 8.52136 53.9534 9.13503 53.0072 9.74325C52.7681 9.89637 52.5033 10.0088 52.2769 10.1753C51.4682 10.7645 50.6636 11.3597 49.8776 11.982C49.6737 12.1422 49.4222 12.4054 49.4187 12.6276C49.3961 13.7277 48.6752 14.4447 48.0578 15.2068C46.9655 16.5544 45.8353 17.8779 44.729 19.2136C43.9825 19.6955 43.4155 20.4098 43.1159 21.2463C42.9141 21.458 42.71 21.6694 42.5061 21.8761C42.5766 21.9297 42.6531 21.9804 42.7286 22.0305C42.8408 21.7602 42.9567 21.487 43.0732 21.2153M8.54053 44.3131C8.99472 43.8583 9.39936 43.3566 9.74775 42.8165C10.653 41.0765 11.4916 39.2979 12.3193 37.5142C12.73 36.6294 13.0613 35.7065 13.4487 34.7504C13.1417 34.7371 12.8375 34.8133 12.5729 34.9695C12.3082 35.1257 12.0943 35.3552 11.9575 35.6303C11.6852 36.0791 11.5217 36.5664 11.3002 37.0236C10.9305 37.7885 10.3294 38.344 10.1805 39.334C9.88738 40.5338 9.39167 41.6751 8.71486 42.7083C8.45029 43.1774 8.35655 43.7233 8.44958 44.2538C7.56547 45.1478 7.45205 45.4538 7.8246 46.3499C8.09908 45.5738 8.31822 44.9446 8.5426 44.3124M21.1316 46.8033C21.7666 46.2501 22.4408 45.7335 23.0306 45.1338C24.7424 43.3895 26.4254 41.6164 28.111 39.8418C28.9632 39.1446 29.5792 38.2012 29.875 37.1407C29.505 37.341 29.1471 37.5639 28.8042 37.8077C27.393 39.0185 25.9817 40.2273 24.6058 41.4769C24.2016 41.8607 23.8612 42.3064 23.597 42.7972C23.153 43.798 22.4797 44.68 21.6319 45.3729C21.4135 45.5208 21.2426 45.7287 21.1399 45.9716C21.0372 46.2146 21.0077 46.4823 21.0537 46.742C20.6001 46.6983 20.734 46.3683 20.7637 46.1122C20.8102 45.7037 20.8869 45.3017 20.949 44.8974L20.65 44.7892C20.369 45.2349 20.1128 45.6949 19.8824 46.1687C19.5924 46.8341 20.6154 46.9495 20.3867 47.6233L20.6686 47.6495L21.1316 46.8033ZM16.9566 33.0298C16.3449 32.8386 16.0648 33.1706 15.8383 33.5756C15.5469 34.1005 15.2654 34.6292 14.9846 35.1563C14.8912 35.3275 14.8116 35.5058 14.7462 35.6896C14.5218 36.3698 14.3535 37.0722 14.0833 37.7319C13.6458 38.8094 12.9399 39.8172 12.7162 40.9285C12.369 42.3133 11.9008 43.6654 11.3174 44.9684C11.0867 45.5576 10.6932 46.152 11.1314 46.926C11.2725 46.8251 11.2779 46.6503 11.3491 46.5063C11.9576 45.3431 12.5 44.1461 12.9725 42.9212C13.6019 41.2377 14.4332 39.6312 15.1451 37.9766C15.3504 37.5031 15.3944 36.9627 15.5765 36.4758C16.0132 35.3257 16.4881 34.1912 16.9566 33.0298ZM4.88717 44.6452C4.97678 44.6953 5.06899 44.7474 5.16072 44.7961C5.4498 44.336 5.76768 43.8948 6.11299 43.4752C6.78895 42.74 6.9786 41.7818 7.38361 40.9188C8.21621 39.1337 9.03281 37.3362 9.8139 35.5249C10.1589 34.7241 10.1106 34.7069 9.2413 34.0937C7.47473 37.4721 6.0181 41.0038 4.88923 44.6452M16.3062 40.0106C16.4057 40.0551 16.5044 40.1032 16.6011 40.1519C18.3886 36.941 20.1747 33.7292 21.9599 30.5169C20.8274 30.6714 19.9213 31.0008 19.5516 32.1072C19.3032 32.853 18.8649 33.5019 18.6455 34.2949C18.2003 35.4848 17.6777 36.6443 17.082 37.7664C16.7681 38.4939 16.563 39.2633 16.3062 40.0155M20.1366 38.5512L20.4143 38.6436C21.4819 36.7794 22.5267 34.904 23.6267 33.0546C24.7366 31.1926 25.8966 29.3625 27.0368 27.5167C26.9262 27.4872 26.8105 27.4806 26.6971 27.4967C26.5838 27.5129 26.4754 27.5513 26.3774 27.6104C25.7829 28.0546 25.2923 28.6234 24.94 29.2766C24.1808 30.3956 23.6254 31.6246 22.8866 32.7528C22.0724 34.001 21.4521 35.3719 20.712 36.6667C20.3259 37.2183 20.1238 37.8781 20.1366 38.5512ZM13.623 48.834C13.3986 49.2058 13.2037 49.4972 13.0401 49.8069C12.779 50.3072 12.5742 50.8327 12.2828 51.3111C11.64 52.3589 11.3541 52.4406 10.113 51.9671C9.87446 52.4342 9.62767 52.9133 9.31227 53.5264C9.64266 53.5256 9.97246 53.4901 10.2956 53.421C11.4852 52.9744 12.6822 52.5348 13.8387 52.0098C14.3413 51.7523 14.7984 51.4144 15.192 51.0093C15.3825 50.8301 15.4134 50.4861 15.5496 50.1425C14.1384 50.3238 14.1324 50.3151 13.6237 48.8319M6.7235 29.7995H6.49404C6.00789 30.7288 5.51996 31.6574 5.03945 32.5902C5.00487 32.6558 5.03947 32.7517 5.00913 32.8286C4.75441 33.5342 4.48269 34.2396 4.24773 34.9523C4.20116 35.0934 4.29606 35.2863 4.35039 35.5876C4.70319 35.2616 5.07698 35.0723 5.21033 34.7745C5.65299 33.7908 6.04037 32.7831 6.37139 31.7565C6.53491 31.1143 6.65281 30.4618 6.72418 29.803M6.94537 52.4522C7.34403 51.2619 7.991 50.2399 7.97688 48.9952C6.91074 49.7403 6.47256 50.8775 5.86011 51.9754C6.24748 52.1468 6.56578 52.2843 6.94468 52.4494M31.0974 25.0513C31.0649 25.0061 31.032 24.9614 31.0002 24.9155C30.4202 25.2493 29.8175 25.5501 29.2742 25.9353C29.0806 26.1205 28.9662 26.3733 28.9551 26.6409C28.9093 27.1659 28.9441 27.6992 28.9441 28.4104C29.709 27.2215 30.4024 26.1392 31.0974 25.0547M4.44824 41.1813C3.86966 40.9393 3.51451 40.7966 3.0467 40.6025C3.01354 41.6786 2.98826 42.6249 2.95368 43.7426C3.94151 43.0539 3.61 41.8975 4.44824 41.1813ZM19.1864 41.9779C18.4385 42.6478 17.9327 43.546 17.7477 44.5329C18.8004 43.8802 18.9642 42.9177 19.1864 41.9779ZM4.1485 49.9137C4.36723 49.2187 4.51158 48.7583 4.6901 48.1932C3.5795 48.6977 3.56145 48.758 4.1485 49.9137ZM14.3431 46.8337C14.4567 46.2692 15.0415 45.9024 14.9625 45.2109C14.1991 45.6343 14.0919 45.8804 14.3431 46.8337ZM44.9171 17.4813C45.0229 17.5589 45.1288 17.6394 45.2368 17.7149C45.4213 17.6063 45.56 17.4344 45.6275 17.2312C45.6949 17.028 45.6869 16.8071 45.6041 16.6097C45.3754 16.9013 45.1461 17.192 44.9171 17.4813ZM8.65836 46.3396L8.996 46.4312C9.05315 46.0467 9.11316 45.663 9.17102 45.2805L8.93605 45.2392L8.65836 46.3396ZM32.2378 28.418C32.1454 28.3474 32.0505 28.2839 31.9553 28.2133C31.7459 28.5605 31.5358 28.9069 31.3241 29.2531L31.5163 29.3896C31.7553 29.0659 31.9956 28.7421 32.2364 28.418M7.24304 47.1162L6.93917 47.0783C6.90248 47.3019 6.86556 47.5278 6.83099 47.7515L7.18378 47.7859C7.20142 47.5601 7.22194 47.3377 7.24029 47.1162M35.5666 23.3783C35.2216 23.8383 35.2217 23.8386 35.384 24.3664C35.4955 24.2168 35.6385 24.1048 35.6576 23.9757C35.6535 23.7731 35.6229 23.5715 35.5666 23.3769" fill="#00F301"/>
</svg>
