<svg width="72" height="157" viewBox="0 0 72 157" fill="none" xmlns="http://www.w3.org/2000/svg">
<mask id="mask0_200_4000" style="mask-type:alpha" maskUnits="userSpaceOnUse" x="0" y="0" width="72" height="157">
<rect width="72" height="157" fill="#D9D9D9"/>
</mask>
<g mask="url(#mask0_200_4000)">
<mask id="mask1_200_4000" style="mask-type:alpha" maskUnits="userSpaceOnUse" x="-191" y="-45" width="342" height="202">
<path d="M151 157H-191V-45H151V157Z" fill="#B37373"/>
</mask>
<g mask="url(#mask1_200_4000)">
<path d="M57.7327 81.0417H14.7188V84.7457H57.7327V81.0417Z" fill="#FEFEFE"/>
<path d="M54.9287 70.8545H17.5254V72.7062H54.9287V70.8545Z" fill="#ACACAC"/>
<path d="M57.7327 84.7422H14.7188V86.5939H57.7327V84.7422Z" fill="black"/>
<path d="M57.7327 72.7065H14.7188V78.2622H57.7327V72.7065Z" fill="#FEFEFE"/>
<path d="M57.7327 78.2617H14.7188V81.0393H57.7327V78.2617Z" fill="black"/>
<path d="M54.9287 67.1506H17.5254V70.8546H54.9287V67.1506Z" fill="#FEFEFE"/>
<path d="M54.9287 64.3743H17.5254V67.1518H54.9287V64.3743Z" fill="black"/>
<path d="M14.7191 81.0417H11.9141V84.7457H14.7191V81.0417Z" fill="black"/>
<path d="M14.7191 84.7422H11.9141V86.5939H14.7191V84.7422Z" fill="black"/>
<path d="M60.5394 81.0417H57.7344V84.7457H60.5394V81.0417Z" fill="black"/>
<path d="M57.7328 70.8545H54.9277V78.2618H57.7328V70.8545Z" fill="black"/>
<path d="M54.9276 64.3743H50.252V70.8557H54.9276V64.3743Z" fill="black"/>
<path d="M22.201 64.3743H17.5254V70.8557H22.201V64.3743Z" fill="black"/>
<path d="M17.5238 70.8545H14.7188V78.2618H17.5238V70.8545Z" fill="black"/>
<path d="M29.6806 56.9666H27.8105V64.3739H29.6806V56.9666Z" fill="black"/>
<path d="M41.8379 56.9669V53.2629H29.6816V56.9669H41.8379Z" fill="black"/>
<path d="M43.7079 56.9666H41.8379V64.3739H43.7079V56.9666Z" fill="black"/>
<path d="M60.5394 84.7422H57.7344V86.5939H60.5394V84.7422Z" fill="black"/>
<path d="M54.9277 169.002L54.9277 86.5959H17.5244L17.5244 169.002H54.9277Z" fill="#2D2D2D"/>
<path d="M17.5254 169.002L17.5254 86.5959H14.7203L14.7203 169.002H17.5254Z" fill="black"/>
<path d="M57.7344 169.002L57.7344 86.5959H54.9293L54.9293 169.002H57.7344Z" fill="black"/>
<path d="M41.836 56.9666H29.6797V64.3739H41.836V56.9666Z" fill="#2D2D2D"/>
</g>
</g>
</svg>
