<svg width="188" height="188" viewBox="0 0 188 188" fill="none" xmlns="http://www.w3.org/2000/svg">
<g clip-path="url(#clip0_20_2005)">
<g style="mix-blend-mode:multiply">
<path d="M56.1711 78.7195C56.1479 77.4565 55.8505 76.2138 55.2997 75.0785C54.7384 73.8841 53.8652 72.8652 52.7732 72.1305C51.5805 71.3338 50.172 70.9273 48.7406 70.9665C47.6296 70.9438 46.5282 71.1771 45.5208 71.6485C44.625 72.0731 43.8287 72.6835 43.1842 73.4395C42.5779 74.1523 42.106 74.9704 41.7916 75.8535C41.493 76.6711 41.3372 77.5345 41.331 78.4055C41.313 79.4845 41.5488 80.5525 42.0194 81.5225C42.4611 82.4246 43.0788 83.2282 43.8357 83.8855C44.5496 84.5147 45.3681 85.0127 46.2539 85.3565C47.0452 85.6753 47.8882 85.8448 48.7406 85.8565C49.7794 85.8619 50.8097 85.667 51.7755 85.2825C52.6701 84.9259 53.4826 84.3889 54.1628 83.7045C54.815 83.058 55.3285 82.2841 55.6718 81.4305C56.0118 80.5695 56.1834 79.6507 56.1771 78.7245M46.0102 78.5035C46.004 77.7928 46.2676 77.1066 46.7472 76.5845C47.0015 76.3047 47.3143 76.085 47.6631 75.9411C48.0119 75.7973 48.388 75.7328 48.7645 75.7525C49.1237 75.7333 49.4829 75.7893 49.8193 75.9171C50.1558 76.0448 50.4622 76.2414 50.7191 76.4945C50.9593 76.7502 51.1463 77.0516 51.2689 77.3809C51.3916 77.7103 51.4475 78.061 51.4333 78.4125C51.3723 80.2305 50.4807 81.1395 48.7585 81.1395C48.0933 81.1338 47.4491 80.9039 46.9293 80.4865C46.6344 80.2481 46.3977 79.9449 46.2373 79.6004C46.077 79.2558 45.9972 78.8788 46.0042 78.4985" fill="#2E2C31"/>
<path d="M131.284 78.7195C131.262 77.4566 130.966 76.2139 130.415 75.0785C129.853 73.8849 128.98 72.8663 127.888 72.1305C126.694 71.3333 125.284 70.9267 123.851 70.9665C122.741 70.9446 121.641 71.1764 120.633 71.6445C119.738 72.0717 118.944 72.6853 118.303 73.4445C117.125 74.8303 116.466 76.5874 116.442 78.4105C116.425 79.4897 116.661 80.5577 117.133 81.5275C117.574 82.4296 118.191 83.2332 118.947 83.8905C119.661 84.5178 120.479 85.0149 121.363 85.3595C122.155 85.6778 122.998 85.8473 123.85 85.8595C124.888 85.8659 125.917 85.671 126.881 85.2855C127.775 84.9288 128.588 84.3918 129.268 83.7075C129.919 83.0605 130.432 82.2867 130.775 81.4335C131.115 80.5726 131.287 79.6538 131.28 78.7275M121.113 78.5065C121.106 77.7929 121.37 77.1034 121.853 76.5795C122.107 76.2994 122.421 76.0793 122.77 75.935C123.119 75.7906 123.496 75.7256 123.873 75.7445C124.232 75.7264 124.591 75.7832 124.927 75.9115C125.263 76.0397 125.569 76.2365 125.825 76.4895C126.065 76.7454 126.252 77.0468 126.375 77.3762C126.498 77.7055 126.554 78.0561 126.541 78.4075C126.481 80.2302 125.592 81.1409 123.873 81.1395C123.206 81.1346 122.561 80.9046 122.04 80.4865C121.745 80.2477 121.509 79.9445 121.348 79.6C121.188 79.2555 121.108 78.8788 121.114 78.4985" fill="#2E2C31"/>
<path d="M145.688 78.7195C145.666 77.4569 145.37 76.2144 144.821 75.0785C144.259 73.8843 143.385 72.8656 142.293 72.1305C141.098 71.3333 139.688 70.9267 138.255 70.9665C137.145 70.9446 136.045 71.1764 135.037 71.6445C134.143 72.0733 133.348 72.6866 132.706 73.4445C132.099 74.1575 131.627 74.9755 131.313 75.8585C131.015 76.6763 130.858 77.5395 130.85 78.4105C130.834 79.4893 131.07 80.5569 131.539 81.5275C131.983 82.4289 132.601 83.2322 133.357 83.8905C134.07 84.5191 134.888 85.0163 135.773 85.3595C136.565 85.6782 137.408 85.8476 138.26 85.8595C139.299 85.8653 140.329 85.6705 141.295 85.2855C142.189 84.929 143.002 84.392 143.682 83.7075C144.334 83.0605 144.847 82.2868 145.191 81.4335C145.53 80.5722 145.7 79.6536 145.694 78.7275M135.528 78.5065C135.521 77.7959 135.785 77.1096 136.265 76.5875C136.52 76.3074 136.833 76.0874 137.182 75.943C137.532 75.7987 137.909 75.7337 138.286 75.7525C138.645 75.7342 139.003 75.7909 139.339 75.9192C139.675 76.0474 139.98 76.2444 140.236 76.4975C140.477 76.7529 140.665 77.0542 140.788 77.3836C140.911 77.713 140.968 78.0639 140.954 78.4155C140.894 80.2382 140.005 81.1489 138.286 81.1475C137.619 81.1418 136.974 80.9119 136.453 80.4945C136.158 80.2557 135.922 79.9526 135.761 79.608C135.601 79.2635 135.521 78.8868 135.528 78.5065Z" fill="#2E2C31"/>
<path d="M115.467 71.3818H110.634C110.354 71.3845 110.08 71.4614 109.838 71.6048C109.586 71.7535 109.371 71.9589 109.21 72.2048C109.05 72.4384 108.964 72.7153 108.964 72.9988V82.8778C108.949 83.374 109.07 83.8647 109.313 84.2968C109.529 84.6685 109.848 84.9693 110.23 85.1628C110.616 85.3524 111.041 85.4489 111.471 85.4448C111.944 85.4278 113.377 85.1368 113.377 82.8238V79.9738H114.701C114.916 80.0043 115.136 79.985 115.344 79.9176C115.551 79.8501 115.741 79.7363 115.898 79.5845C116.055 79.4328 116.176 79.2471 116.252 79.0416C116.327 78.836 116.355 78.6159 116.334 78.3978C116.34 78.1853 116.3 77.9739 116.219 77.7777C116.137 77.5815 116.015 77.4049 115.861 77.2595C115.707 77.1141 115.524 77.0032 115.324 76.9341C115.124 76.8651 114.911 76.8394 114.701 76.8588H113.374V75.7778H115.463C116.283 75.7778 117.596 75.5928 117.596 73.4368C117.565 72.8874 117.328 72.3702 116.933 71.9891C116.538 71.6079 116.014 71.391 115.466 71.3818" fill="#2E2C31"/>
<path d="M66.2832 83.9037C66.283 84.187 66.3694 84.4636 66.5309 84.6957C66.6966 84.9429 66.9169 85.1482 67.1745 85.2957C67.4217 85.4402 67.7022 85.5171 67.9881 85.5187H73.3397C73.8923 85.5149 74.4231 85.301 74.8253 84.92C75.2275 84.539 75.4715 84.0191 75.5081 83.4647C75.5081 81.3097 74.1693 81.1237 73.3337 81.1237H70.7793V79.8897H72.9836C73.2008 79.9212 73.4224 79.903 73.6316 79.8364C73.8409 79.7699 74.0326 79.6567 74.1922 79.5053C74.3519 79.3538 74.4756 79.1682 74.5539 78.962C74.6323 78.7559 74.6633 78.5346 74.6447 78.3147C74.6478 78.1004 74.6059 77.8878 74.5217 77.6909C74.4376 77.4939 74.3131 77.317 74.1563 77.1717C73.9996 77.0264 73.8141 76.9159 73.612 76.8475C73.41 76.7791 73.1958 76.7543 72.9836 76.7747H70.7793V75.6967H72.913C73.7485 75.6967 75.0854 75.5147 75.0854 73.3577C75.0478 72.8029 74.803 72.2829 74.4002 71.9018C73.9973 71.5207 73.4661 71.3067 72.913 71.3027H67.9881C67.7019 71.3042 67.4212 71.3818 67.1745 71.5277C66.9176 71.6736 66.6974 71.8768 66.5309 72.1217C66.3685 72.3565 66.282 72.6358 66.2832 72.9217V83.9037Z" fill="#2E2C31"/>
<path d="M157.576 78.4472C157.578 77.6214 157.475 76.7988 157.27 75.9992C157.049 75.1757 156.664 74.4061 156.138 73.7372C155.501 72.954 154.671 72.3518 153.731 71.9902C152.617 71.5022 151.408 71.2725 150.194 71.3182L148.075 71.3422C147.532 71.3309 146.995 71.4659 146.521 71.7332C146.287 71.887 146.101 72.1028 145.981 72.3568C145.862 72.6107 145.815 72.8929 145.845 73.1722V82.8772C145.816 83.5338 145.93 84.1889 146.18 84.7962C146.325 85.0479 146.542 85.2499 146.803 85.3762C147.064 85.5024 147.356 85.547 147.642 85.5042H151.196C152.431 85.5625 153.649 85.1988 154.652 84.4722C155.634 83.8243 156.408 82.9032 156.879 81.8212C157.34 80.7569 157.577 79.6081 157.575 78.4472M150.383 75.6112H150.939C151.531 75.7511 152.061 76.0842 152.445 76.5584C152.83 77.0327 153.048 77.6216 153.064 78.2332C153.087 78.8841 152.889 79.5234 152.502 80.0465C152.116 80.5695 151.565 80.9452 150.939 81.1122H150.383V75.6112Z" fill="#2E2C31"/>
<path d="M63.9964 81.1892H61.1605V73.3972C61.1677 73.076 61.0905 72.7587 60.9367 72.4772C60.792 72.224 60.5945 72.0053 60.3577 71.8362C60.1269 71.6711 59.8705 71.5457 59.5988 71.4652C59.3582 71.3911 59.1083 71.3517 58.8567 71.3482C58.4188 71.3394 57.9858 71.4427 57.5984 71.6482C57.264 71.822 56.9786 72.0779 56.7688 72.3922C56.5933 72.6469 56.4952 72.9474 56.4863 73.2572V83.0962H56.4943C56.4897 83.1239 56.4871 83.152 56.4863 83.1802C56.4861 83.7853 56.7244 84.3659 57.1491 84.7948C57.5738 85.2237 58.1503 85.4658 58.7523 85.4682L63.9387 85.4742H63.9964V85.4672C64.5528 85.4551 65.0825 85.2244 65.4718 84.8244C65.861 84.4245 66.079 83.8872 66.079 83.3277C66.079 82.7681 65.861 82.2308 65.4718 81.8309C65.0825 81.431 64.5528 81.2003 63.9964 81.1882" fill="#2E2C31"/>
<path d="M41.1891 79.1082C41.1891 78.3082 40.0949 77.3862 38.4427 76.6842C37.0272 76.0782 35.3074 75.5842 35.7779 74.9372C36.3747 74.1112 37.8121 76.0142 39.0336 76.0142C39.5612 76.0142 40.0672 75.8035 40.4403 75.4284C40.8134 75.0533 41.023 74.5446 41.023 74.0142C41.023 73.0382 40.0502 70.8562 35.9002 70.8562C34.7065 70.8237 33.5476 71.2626 32.672 72.079C31.7964 72.8953 31.2737 74.024 31.2162 75.2232C31.1244 76.1427 31.3405 77.0666 31.8302 77.8486C32.32 78.6306 33.0554 79.2259 33.9198 79.5402C35.4417 80.2032 37.3157 80.4192 36.6184 81.4292C35.9768 82.3532 34.6718 80.1292 32.9818 80.1292C32.4041 80.1381 31.8536 80.3773 31.4512 80.7942C31.0489 81.211 30.8277 81.7714 30.8362 82.3522C30.8362 83.4382 32.005 85.9652 36.4841 85.9652C37.7904 85.9798 39.0505 85.4804 39.9954 84.5737C40.9403 83.6669 41.4951 82.4246 41.5412 81.1122C41.547 80.4294 41.4277 79.7514 41.1891 79.1122" fill="#2E2C31"/>
<path d="M75.7966 62.3321L81.1034 61.9551L83.6638 62.7491C83.6638 62.7491 88.2912 64.3311 88.6672 64.3551C88.7658 64.1882 88.9032 64.048 89.0677 63.9462C89.2321 63.8445 89.4186 63.7844 89.6112 63.7711C90.0996 63.7711 90.5114 64.4881 90.5114 64.4881C91.7419 64.5969 92.9808 64.56 94.2027 64.3781C96.2707 64.0781 98.3029 63.9591 98.3029 63.9591L99.3971 63.5071L104.027 63.5441L104.403 64.9821L105.532 65.3971L106.473 67.9331L107.262 70.3181L107.944 70.2401L109.447 74.5551L108.204 77.8461L108.469 78.4141L109.483 80.0801L110.125 84.3541L109.031 85.4541L109.745 89.7311L112.72 105.584L114.9 116.14L115.727 116.215L116.22 123.745L114.94 125.862C114.94 125.862 114.088 137.421 112.354 140.434C112.797 140.44 113.236 140.514 113.656 140.653L112.571 143.928L110.88 145.328C110.88 145.328 107.925 152.62 107.186 153.538C107.467 153.562 107.745 153.621 108.012 153.712C107.007 155.531 105.906 157.294 104.714 158.995C104.322 159.089 103.911 159.059 103.537 158.909C103.537 158.909 98.9346 164.276 96.98 165.546C97.2875 165.602 97.5919 165.674 97.8921 165.761C96.8454 167.14 95.6674 168.412 94.3748 169.561C93.6785 168.818 93.3304 168.426 93.3304 168.426C90.6984 169.813 87.7434 170.462 84.7759 170.304C84.2576 171.09 83.7812 171.875 83.7812 171.875C83.7812 171.875 76.6581 169.651 74.2688 167.903C74.3135 167.117 74.3563 166.462 74.3563 166.462C74.3563 166.462 71.5761 164.409 70.7943 163.885C69.4484 163.449 67.9733 162.969 67.9733 162.969C67.9733 162.969 64.8459 159.169 64.4092 157.729C64.4987 156.244 64.5833 154.805 64.5833 154.805C64.5833 154.805 63.0206 150.568 62.5431 149.345C61.629 148.603 60.5885 147.861 60.5885 147.861L60.4582 143.061C60.1954 142.857 59.9866 142.591 59.8503 142.286C59.7139 141.982 59.6542 141.648 59.6764 141.315C59.7616 141.121 59.9008 140.956 60.0773 140.839C60.2538 140.723 60.46 140.66 60.6711 140.659C60.6711 140.659 60.8024 137.951 60.8472 137.644C61.2293 137.681 61.6071 137.755 61.9752 137.865C61.9752 137.865 62.7132 126.555 64.2779 123.15C63.8862 122.78 63.4647 122.444 63.0176 122.144C63.0176 122.144 66.4056 115.029 66.7975 114.505C67.0154 114.59 67.7544 114.942 67.7544 114.942L69.9139 112.233L68.3861 110.859L69.7946 107.621C69.7946 107.621 69.6205 104.821 70.9524 104.942C71.2879 104.938 71.6205 104.88 71.9372 104.768L76.5626 91.2561L76.9117 85.3741L75.347 83.9741L74.594 77.8621L73.7625 76.6101L73.3646 70.3941L75.0556 70.1751L75.726 67.7151L75.7966 62.3321Z" fill="#AB9E81"/>
<path d="M73.4099 71.5991C73.4099 71.5991 69.2142 70.7941 68.4105 65.2461C67.6068 59.6981 70.016 58.3731 71.3339 56.5711C70.5322 55.9561 68.7885 53.6301 68.7407 52.4931C68.7407 52.4931 68.505 48.0841 72.0432 47.7991C75.5814 47.5141 81.1269 44.5281 83.3063 44.0481C83.3063 44.0481 90.6671 41.8841 94.1257 42.0721C97.5843 42.2601 103.675 43.0621 106.271 47.7371C106.705 47.2765 107.227 46.9082 107.806 46.6541C108.384 46.4 109.008 46.2654 109.639 46.2581C112.202 46.0001 115.286 52.2241 111.251 55.0331C114.096 56.6541 116.722 58.9251 115.826 64.1241C115.136 68.5171 112.062 71.0521 108.297 71.0521C108.292 70.7908 108.234 70.5332 108.126 70.2951L107.315 70.1791L106.388 67.7911C105.932 66.7966 105.304 65.8908 104.534 65.1151C104.185 63.9501 104.012 63.4271 104.012 63.4271L99.2067 63.4861L97.2949 63.7171C95.1148 64.294 92.8605 64.5358 90.6084 64.4341C89.7987 63.6751 89.6774 63.6521 88.6668 64.3551C87.9187 64.1091 81.9923 62.3351 79.4458 60.8641C77.5041 60.5731 74.6304 60.1371 73.5452 63.5421C73.346 64.3903 73.4503 65.2819 73.8397 66.0605C74.2291 66.8391 74.8788 67.455 75.6749 67.8001C75.4132 69.0461 75.0651 70.3561 75.0651 70.3561L73.4159 70.4211L73.4099 71.5991Z" fill="#FF8857"/>
<path d="M102.445 92.1573C103.742 91.1717 105.096 90.2645 106.5 89.4403C107.147 89.2608 107.831 89.2608 108.478 89.4403C110.212 89.8381 111.969 90.1296 113.738 90.3133C115.48 90.8473 115.429 90.9423 115.622 91.1383C116.015 91.5538 116.261 92.0878 116.322 92.6579C116.383 93.2279 116.256 93.8023 115.959 94.2923C116.33 94.4766 116.718 94.6233 117.117 94.7303C117.117 94.7303 117.554 94.7773 118.132 96.0883C118.71 97.3993 118.324 97.7373 117.987 98.1743C118.303 98.438 118.595 98.7305 118.858 99.0483C118.858 99.0483 119.87 100.407 118.957 101.231C119.535 101.523 119.392 101.719 119.392 101.719C119.829 102.674 120.012 103.727 119.921 104.774C119.439 106.084 118.04 108.509 116.06 108.365C115.441 109.117 114.594 109.644 113.649 109.865C113.6 109.041 112.826 105.159 112.826 105.159C112.826 105.159 110.413 105.546 109.643 104.186C109.147 103.35 108.405 102.69 107.519 102.295C107.519 102.295 105.05 101.04 105.438 99.3883C105.044 99.7405 104.563 99.9802 104.045 100.082C103.527 100.185 102.992 100.145 102.494 99.9693C102.185 99.8162 101.91 99.5997 101.689 99.3339C101.467 99.068 101.304 98.7585 101.208 98.4254C101.113 98.0922 101.087 97.7426 101.134 97.399C101.181 97.0554 101.298 96.7255 101.479 96.4303C101.994 95.7402 102.699 95.2167 103.507 94.9243C103.167 94.5843 102.494 94.1953 102.445 93.6633C102.419 93.1616 102.419 92.6589 102.445 92.1573Z" fill="#FF8857"/>
<path d="M67.7747 115.057L66.3234 114.369C66.3234 114.369 63.2279 112.069 62.6649 111.659C61.9577 111.303 61.2842 110.884 60.6526 110.405C59.9171 109.489 59.0654 108.673 58.119 107.979C57.3949 107.616 57.3153 107.779 56.9532 107.372C56.1755 106.396 55.4628 105.37 54.8196 104.299C54.7437 104.069 54.7219 103.825 54.7557 103.585C54.7895 103.346 54.8782 103.117 55.0146 102.918C55.1511 102.718 55.3317 102.553 55.5422 102.436C55.7528 102.318 55.9875 102.251 56.2281 102.24C56.8647 102.21 57.4968 102.362 58.0519 102.676C58.607 102.991 59.0625 103.457 59.3664 104.02C60.3799 104.277 61.354 104.672 62.262 105.192C62.1692 104.697 62.1692 104.188 62.262 103.692C62.5345 102.881 62.973 102.137 63.5492 101.507C63.3083 101.096 63.1062 100.662 62.9454 100.213C63.1342 99.7023 63.3493 99.2016 63.5899 98.7132C63.7889 98.3902 64.5538 97.1352 65.3595 96.9332C65.3163 96.5437 65.3163 96.1506 65.3595 95.7612C65.5971 95.0974 65.9508 94.4817 66.404 93.9432C66.8476 93.6582 73.8464 90.6272 73.8464 90.6272C74.3266 90.4551 74.8495 90.4449 75.336 90.5981C75.8225 90.7513 76.2462 91.0595 76.543 91.4762C76.7397 91.6266 76.9277 91.7882 77.106 91.9602L77.1846 92.7282C77.1846 92.7282 80.1628 95.5612 78.0699 96.5702C79.0776 97.0962 80.8074 99.1592 79.1163 100.776C78.2311 101.301 77.6671 101.787 74.853 100.331C76.3809 101.831 76.9419 103.404 75.9393 104.253C75.2827 104.661 74.5394 104.907 73.7702 104.97C73.0009 105.034 72.2277 104.913 71.5138 104.618C71.2711 104.818 71.0721 105.018 71.0721 105.018C71.0721 105.018 69.7442 104.412 69.7034 107.728C69.3166 108.789 68.874 109.829 68.3775 110.842L69.9044 112.217L67.7747 115.057Z" fill="#FF8857"/>
<path d="M115.631 42.5666C116.308 42.4957 116.931 42.1601 117.364 41.632C117.798 41.1039 118.008 40.4257 117.948 39.7436C117.988 39.1258 117.817 38.5129 117.463 38.006C117.11 37.4991 116.595 37.1286 116.004 36.9556C115.722 36.5052 115.312 36.151 114.827 35.9396C115.223 35.6366 115.524 35.2253 115.694 34.755C115.863 34.2846 115.895 33.7751 115.784 33.2873C115.673 32.7995 115.425 32.354 115.069 32.0042C114.714 31.6544 114.265 31.415 113.778 31.3146C114.115 30.6335 114.273 29.877 114.238 29.1169C114.203 28.3569 113.975 27.6185 113.575 26.9721C113.176 26.3257 112.619 25.7926 111.957 25.4235C111.295 25.0545 110.551 24.8617 109.794 24.8636C109.716 24.5038 109.563 24.1648 109.344 23.869C109.126 23.5732 108.848 23.3273 108.528 23.1477C108.209 22.9681 107.855 22.8588 107.49 22.827C107.125 22.7953 106.757 22.8418 106.412 22.9636C106.31 22.2657 106.02 21.6091 105.574 21.0645C105.128 20.52 104.543 20.1081 103.881 19.8732C103.22 19.6384 102.507 19.5896 101.82 19.7321C101.133 19.8745 100.497 20.2028 99.9819 20.6816C99.6666 20.3386 99.2433 20.1154 98.7833 20.0496C98.7173 19.1971 98.3566 18.3947 97.7638 17.7816C97.171 17.1684 96.3834 16.7831 95.5376 16.6925C94.6919 16.6019 93.8413 16.8117 93.1332 17.2855C92.4252 17.7593 91.9044 18.4672 91.6612 19.2866C91.5327 19.353 91.4105 19.431 91.2961 19.5196C91.2417 19.1674 91.0967 18.8357 90.8755 18.5572C90.6544 18.2787 90.3647 18.0631 90.0351 17.9318C89.7056 17.8004 89.3477 17.7579 88.9968 17.8084C88.6458 17.8589 88.3141 18.0006 88.0345 18.2196C87.7922 17.9635 87.5001 17.7603 87.1763 17.6227C86.8525 17.485 86.504 17.4159 86.1525 17.4196C85.5161 17.3985 84.8973 17.6316 84.4313 18.0678C83.9653 18.504 83.6901 19.108 83.6657 19.7476C83.6676 19.9307 83.6927 20.1128 83.7403 20.2896C83.4533 20.3628 83.1831 20.4912 82.9445 20.6676H82.7058C82.5312 20.2446 82.2206 19.8927 81.8237 19.6679C81.4267 19.4431 80.9664 19.3585 80.516 19.4276C80.0657 19.4967 79.6513 19.7154 79.3391 20.0489C79.0269 20.3825 78.8349 20.8115 78.7936 21.2676C78.2326 20.8071 77.553 20.5161 76.834 20.4285C76.1149 20.3408 75.3859 20.4602 74.7316 20.7726C74.0774 21.085 73.5248 21.5777 73.138 22.1934C72.7513 22.8091 72.5463 23.5224 72.5468 24.2506C72.5468 24.2956 72.5518 24.3396 72.5538 24.3826C71.9902 24.6162 71.5256 25.0407 71.2408 25.5826C71.0202 25.5424 70.7935 25.552 70.5771 25.6106C70.3606 25.6693 70.1598 25.7756 69.9893 25.9218C69.8187 26.068 69.6825 26.2506 69.5907 26.4561C69.4989 26.6617 69.4537 26.8853 69.4583 27.1106C69.4585 27.3298 69.5057 27.5464 69.5965 27.7456C69.5498 27.7456 69.505 27.7326 69.4583 27.7326C69.1512 27.7324 68.8511 27.8244 68.5964 27.9967C68.3416 28.169 68.1438 28.4138 68.0282 28.6998C67.9126 28.9857 67.8845 29.2999 67.9476 29.602C68.0106 29.9041 68.1619 30.1804 68.382 30.3956C67.5596 30.6 66.8199 31.0547 66.2643 31.6976C65.7086 32.3405 65.3639 33.1402 65.2774 33.9875C65.1908 34.8347 65.3667 35.6882 65.7808 36.4312C66.195 37.1742 66.8272 37.7705 67.5912 38.1386C67.1679 38.2549 66.781 38.4776 66.4669 38.7857C66.1528 39.0938 65.9218 39.4772 65.7958 39.8998C65.6697 40.3224 65.6527 40.7703 65.7463 41.2013C65.8399 41.6323 66.0411 42.0323 66.3309 42.3636C66.1336 42.5208 65.9779 42.7246 65.8777 42.9568C65.7774 43.1889 65.7356 43.4424 65.7561 43.6947C65.7766 43.947 65.8586 44.1903 65.995 44.4031C66.1313 44.6159 66.3178 44.7916 66.5378 44.9146C66.2228 45.43 66.0574 46.0237 66.0604 46.6286C66.0287 47.2685 66.212 47.9005 66.5808 48.423C66.9495 48.9455 67.4823 49.3282 68.0935 49.5096C67.7533 49.7635 67.3559 49.9291 66.9367 49.9916C66.6482 50.2106 66.4314 51.5566 67.0829 51.7736C67.6742 51.8384 68.2707 51.7112 68.7849 51.4106L68.7122 50.0266L69.1101 49.4806H69.0664C69.443 49.2763 69.7649 48.9832 70.0044 48.6266C70.6091 48.0131 71.4017 47.6221 72.2544 47.5166C72.3339 45.9611 72.527 44.4136 72.8323 42.8866C72.8323 42.8866 76.27 38.6736 80.035 37.6326C83.8 36.5916 92.5077 35.4966 97.3559 35.9706C102.204 36.4446 106.253 38.5706 108.043 40.7036C108.674 41.4328 109.148 42.2851 109.435 43.2071C109.723 44.1292 109.818 45.101 109.714 46.0616C109.794 46.1486 109.872 46.2326 109.953 46.3186L111.625 47.0396C111.877 47.3054 112.181 47.5149 112.519 47.6543C112.856 47.7938 113.219 47.8601 113.584 47.8489C113.949 47.8377 114.307 47.7493 114.635 47.5894C114.964 47.4295 115.255 47.2017 115.49 46.9209C115.725 46.6402 115.898 46.3128 115.999 45.9601C116.099 45.6074 116.124 45.2374 116.073 44.8742C116.021 44.511 115.894 44.1628 115.7 43.8523C115.505 43.5419 115.248 43.2762 114.944 43.0726C115.079 42.9095 115.188 42.7263 115.267 42.5296C115.387 42.5535 115.508 42.5659 115.631 42.5666Z" fill="#CB5B00"/>
<path d="M104.391 49.6748C104.059 49.6746 103.734 49.7735 103.458 49.9589C103.182 50.1443 102.966 50.4079 102.839 50.7164C102.712 51.0249 102.678 51.3643 102.743 51.6919C102.808 52.0194 102.968 52.3203 103.203 52.5564C103.438 52.7925 103.737 52.9533 104.063 53.0184C104.388 53.0835 104.726 53.05 105.033 52.9221C105.34 52.7942 105.602 52.5777 105.787 52.3C105.971 52.0222 106.069 51.6957 106.069 51.3618C106.069 51.1402 106.026 50.9208 105.942 50.7161C105.857 50.5113 105.734 50.3253 105.578 50.1686C105.422 50.0119 105.237 49.8877 105.033 49.803C104.83 49.7182 104.611 49.6747 104.391 49.6748Z" fill="#CB5B00"/>
<path d="M77.0894 51.395C76.8728 51.3805 76.657 51.4319 76.4698 51.5424C76.2826 51.6528 76.1328 51.8174 76.0399 52.0145C75.9469 52.2117 75.915 52.4324 75.9484 52.648C75.9818 52.8636 76.0789 53.0641 76.2271 53.2235C76.3753 53.3829 76.5678 53.4938 76.7795 53.5419C76.9912 53.5899 77.2124 53.5729 77.4144 53.4929C77.6163 53.4129 77.7897 53.2738 77.912 53.0935C78.0342 52.9132 78.0998 52.7002 78.1 52.482C78.1047 52.3439 78.0822 52.2062 78.034 52.0769C77.9857 51.9475 77.9125 51.829 77.8187 51.728C77.7248 51.6271 77.6121 51.5457 77.487 51.4886C77.3619 51.4314 77.2268 51.3996 77.0894 51.395Z" fill="#CB5B00"/>
<path d="M77.5818 46.9509L77.6206 46.7969C77.0237 47.0881 76.4589 47.4417 75.9356 47.8519C75.8772 48.3539 75.8609 48.8601 75.8868 49.3649C75.8868 49.3649 75.6929 49.2439 75.3984 49.0649L75.4163 49.1509C75.4242 49.1563 75.4325 49.161 75.4412 49.1649C75.4412 49.2049 75.4412 49.2419 75.4412 49.2779L75.5208 49.6119C75.7595 50.1499 76.4628 50.2529 77.1601 50.2529C77.588 50.2354 77.9916 50.0482 78.2824 49.7322C78.5733 49.4162 78.7277 48.9971 78.7118 48.5669C78.7194 48.2108 78.6134 47.8617 78.4093 47.5705C78.2053 47.2794 77.9139 47.0615 77.5778 46.9489" fill="#CB5B00"/>
<path d="M102.639 91.8838C103.049 91.9635 103.429 92.1595 103.733 92.4488C103.981 92.7457 104.195 93.0694 104.372 93.4138C104.899 93.3098 105.411 93.1381 105.894 92.9028C106.376 92.5838 107.043 91.6968 106.242 91.0258L104.849 90.3008L103.998 90.7848L102.639 91.8838Z" fill="#FFFDF4"/>
<path d="M101.652 95.8264L104.614 94.5664C104.614 94.5664 105.602 95.1304 105.654 95.3664C105.693 95.6601 105.711 95.9562 105.709 96.2524L104.373 97.5394H103.759C103.456 97.2225 103.115 96.9435 102.746 96.7084C102.35 96.5409 101.919 96.4769 101.492 96.5224L101.652 95.8264Z" fill="#FFFDF4"/>
<path d="M105.738 98.9664L107.018 97.8924C107.018 97.8924 107.872 97.5184 108.164 97.6244C108.457 97.7304 109.632 98.0544 109.657 98.6714C109.681 99.2884 109.684 99.8524 109.175 100.171C108.765 100.396 108.325 100.558 107.868 100.653L107.2 100.49C106.952 100.049 106.657 99.6355 106.32 99.2584C106.156 99.107 105.953 99.0048 105.734 98.9634" fill="#FFFDF4"/>
<path d="M109.574 102.265C109.763 101.871 110.086 101.557 110.484 101.381C110.988 101.188 111.518 101.07 112.056 101.033C112.056 101.033 112.991 101.462 113.096 101.833C113.219 102.261 113.182 102.72 112.991 103.122C112.65 103.302 112.292 103.445 111.922 103.55L111.282 103.228C111.061 102.873 110.748 102.586 110.376 102.397C110.124 102.287 109.848 102.241 109.574 102.262" fill="#FFFDF4"/>
<path d="M76.303 102.157C76.303 102.157 74.6527 102.479 74.4508 103.492C73.6491 103.046 72.8026 102.4 72.7598 101.992C72.7566 101.59 72.9117 101.203 73.1913 100.916C73.4708 100.628 73.8521 100.464 74.2519 100.458C75.177 100.578 75.3371 100.943 75.3371 100.943L76.303 102.157Z" fill="#FFFDF4"/>
<path d="M77.669 99.368L76.544 98.84L75.8596 98.152C75.8558 97.9422 75.8955 97.7339 75.9761 97.5404C76.0567 97.3468 76.1765 97.1722 76.3279 97.0277C76.4793 96.8833 76.6589 96.772 76.8554 96.7012C77.0519 96.6303 77.2608 96.6013 77.4691 96.616L79.1601 97.061L80.0026 98.437C79.8549 98.3765 79.696 98.3487 79.5367 98.3556C79.3774 98.3625 79.2214 98.4039 79.0795 98.477C78.5887 98.7388 78.1176 99.0362 77.67 99.367" fill="#FFFDF4"/>
<path d="M76.7841 95.3231L75.1358 94.4721C75.1094 94.1905 75.1588 93.9069 75.2789 93.6511C75.3989 93.3953 75.5852 93.1767 75.8182 93.0181C76.6219 92.4921 77.0676 92.6531 77.0676 92.6531L78.8352 94.4721C78.1206 94.6738 77.4322 94.9594 76.7841 95.3231Z" fill="#FFFDF4"/>
<path d="M69.4509 54.2793C69.0157 54.7376 68.5156 55.1288 67.9668 55.4403C67.7479 55.8403 68.1846 56.5303 68.5815 56.6053C68.9784 56.6803 70.1412 55.5113 70.1412 55.5113L69.4509 54.2793Z" fill="#CB5B00"/>
<path d="M86.3349 48.1298C86.3345 48.6565 86.1788 49.1712 85.8875 49.6089C85.5961 50.0466 85.1822 50.3876 84.6981 50.5888C84.214 50.79 83.6814 50.8424 83.1677 50.7394C82.6539 50.6363 82.1821 50.3824 81.8119 50.0098C81.4417 49.6372 81.1897 49.1626 81.0877 48.646C80.9858 48.1294 81.0385 47.5941 81.2392 47.1076C81.4399 46.6211 81.7796 46.2054 82.2153 45.913C82.651 45.6206 83.1632 45.4646 83.687 45.4648C84.035 45.465 84.3795 45.534 84.7009 45.668C85.0223 45.802 85.3142 45.9984 85.5601 46.2459C85.806 46.4934 86.001 46.7871 86.134 47.1104C86.2669 47.4336 86.3352 47.7801 86.3349 48.1298Z" fill="#FFFDF4"/>
<path d="M101.189 47.8462C101.189 48.3857 101.029 48.913 100.731 49.3615C100.433 49.81 100.009 50.1595 99.513 50.3658C99.0172 50.5721 98.4716 50.626 97.9453 50.5206C97.419 50.4153 96.9355 50.1554 96.5561 49.7738C96.1767 49.3923 95.9184 48.9062 95.8138 48.377C95.7092 47.8479 95.763 47.2994 95.9684 46.801C96.1738 46.3026 96.5216 45.8766 96.9678 45.5769C97.414 45.2772 97.9386 45.1172 98.4753 45.1172C98.8318 45.1171 99.1849 45.1875 99.5144 45.3246C99.8439 45.4617 100.143 45.6627 100.395 45.9161C100.648 46.1696 100.848 46.4705 100.984 46.8016C101.121 47.1328 101.191 47.4877 101.191 47.8462" fill="#FFFDF4"/>
<path d="M108.129 40.7034C106.339 38.5744 102.292 36.4464 97.4442 35.9704C92.5959 35.4944 83.8853 36.5854 80.1203 37.6264C76.3553 38.6674 72.9166 42.8814 72.9166 42.8814C72.6012 44.425 72.4109 45.9918 72.3477 47.5664C73.6237 48.0201 74.8418 48.6243 75.9764 49.3664C75.9504 48.8616 75.9667 48.3554 76.0251 47.8534C76.3046 47.6644 79.6966 44.5864 90.6155 44.0674C98.41 43.6964 102.27 45.2754 104.324 46.6254C104.066 47.0095 103.898 47.4467 103.832 47.9049C103.765 48.363 103.802 48.8303 103.939 49.2724L106.057 47.9954C106.624 46.7654 109.776 46.2454 109.776 46.2454C109.912 45.2574 109.835 44.2516 109.551 43.296C109.267 42.3404 108.782 41.4573 108.129 40.7064" fill="#FFFDF4"/>
<path d="M89.4087 37.0567L89.2098 38.5187L89.8792 37.0567H90.7844L89.2774 40.4617H88.3464L88.5404 38.7887L87.7705 40.4617H86.8374L88.4349 37.0567H89.4087ZM90.4283 40.4617L91.8866 37.0567H90.9824L89.4903 40.4617H90.4283ZM94.4967 38.9337H95.2984L95.5222 38.3337H94.7265L94.9801 37.6687H95.7689L96.0007 37.0557H93.4781L92.5659 38.0177L92.9857 37.0557H92.0825L90.6432 40.4607H91.5772L92.189 38.9727L92.1979 40.4607H93.4492L88.9969 41.5607C88.6654 41.6825 88.3132 41.737 87.9606 41.721C87.608 41.7051 87.2621 41.6189 86.9429 41.4677C85.9233 40.7527 86.8235 39.3537 87.1418 38.9457C86.5878 39.4267 86.0736 39.9521 85.604 40.5167C84.8918 41.4107 84.5257 42.4097 84.9077 43.0697C85.604 44.2697 87.5616 43.7197 88.8 43.2287L99.5956 38.9857L95.0716 40.0687L95.185 39.7557L94.1903 39.7607L94.4967 38.9337ZM94.239 37.1757L94.3027 37.1277L93.0693 40.2397L92.9867 38.5097L94.239 37.1757Z" fill="#DC0012"/>
<path d="M76.1164 48.6337L78.5633 50.5197H79.5511C80.7926 49.3626 82.4343 48.7384 84.1267 48.7797C86.3094 48.5801 88.4882 49.1999 90.2432 50.5197C92.2177 50.1437 92.0337 50.0197 93.7008 50.4547C95.1829 49.4637 95.9887 48.7157 98.0268 48.7157C99.4443 48.7819 100.833 49.1421 102.105 49.7737L103.773 49.4637L105.936 48.2217L105.688 50.2087L103.527 51.9467C103.49 52.9588 103.161 53.9382 102.579 54.7651C101.998 55.5921 101.189 56.2306 100.252 56.6027C96.9157 58.0327 95.0009 57.0377 95.0009 57.0377L95.1849 55.9187C95.8976 56.2001 96.6607 56.3295 97.4258 56.2987C98.1909 56.2679 98.9413 56.0775 99.6293 55.7397C101.789 54.5587 103.952 52.3227 100.682 49.9637C98.3939 49.2187 95.4306 49.9637 94.6866 50.7707C93.9425 51.5777 94.2539 54.1867 94.2539 54.1867L93.3905 53.8157C93.3905 53.8157 93.2651 51.5157 91.7214 51.5157C90.1776 51.5157 89.9309 53.4417 89.9309 53.4417L89.0058 53.8757C89.0058 53.8757 89.2525 51.3297 88.0807 50.5237C86.9089 49.7177 84.7415 49.9627 82.766 50.3357C80.7905 50.7087 79.185 52.8197 80.9755 54.5577C81.9437 55.6556 83.2897 56.3438 84.7425 56.4837C85.5443 56.6188 86.3681 56.4886 87.09 56.1127L87.0582 57.0847C87.0582 57.0847 86.905 58.0367 83.6324 57.5417C80.3598 57.0467 79.8027 55.1797 79.5541 54.4967C79.3945 54.014 79.2913 53.5143 79.2467 53.0077L78.3793 52.8197L77.9506 51.7657L76.4685 50.9587C76.3605 50.4701 76.1253 50.019 75.7871 49.6517C75.9105 49.2177 76.1193 48.6377 76.1193 48.6377" fill="#CDD543"/>
<path d="M68.9233 156.14C68.9229 156.296 68.8763 156.449 68.7895 156.579C68.7026 156.709 68.5794 156.81 68.4353 156.87C68.2913 156.93 68.1329 156.945 67.9802 156.914C67.8275 156.883 67.6873 156.808 67.5773 156.697C67.4674 156.586 67.3927 156.445 67.3625 156.291C67.3324 156.137 67.3483 155.978 67.4081 155.833C67.4679 155.689 67.5691 155.565 67.6987 155.479C67.8284 155.392 67.9807 155.346 68.1365 155.346C68.24 155.346 68.3425 155.366 68.4381 155.406C68.5337 155.446 68.6205 155.505 68.6936 155.579C68.7667 155.652 68.8246 155.74 68.864 155.836C68.9034 155.932 68.9235 156.036 68.9233 156.14Z" fill="#FFFDF4"/>
<path d="M79.9584 142.971C79.9582 143.127 79.9119 143.28 79.8252 143.41C79.7386 143.54 79.6156 143.642 79.4716 143.702C79.3277 143.761 79.1694 143.777 79.0167 143.746C78.864 143.716 78.7237 143.64 78.6136 143.53C78.5034 143.419 78.4284 143.278 78.398 143.124C78.3676 142.971 78.3831 142.812 78.4426 142.667C78.5021 142.522 78.6029 142.399 78.7323 142.312C78.8617 142.225 79.0139 142.178 79.1696 142.178C79.3783 142.18 79.5779 142.264 79.7254 142.412C79.8729 142.56 79.9566 142.761 79.9584 142.971Z" fill="#FFFDF4"/>
<path d="M60.7358 141.387C60.7354 141.543 60.6888 141.696 60.602 141.826C60.5151 141.956 60.3919 142.058 60.2478 142.117C60.1038 142.177 59.9454 142.192 59.7927 142.161C59.64 142.13 59.4998 142.055 59.3898 141.944C59.2799 141.833 59.2052 141.692 59.175 141.538C59.1449 141.384 59.1608 141.225 59.2206 141.081C59.2804 140.936 59.3816 140.812 59.5112 140.726C59.6409 140.639 59.7932 140.593 59.949 140.593C60.0526 140.593 60.1552 140.613 60.2509 140.653C60.3466 140.693 60.4335 140.751 60.5067 140.825C60.5798 140.899 60.6377 140.987 60.677 141.083C60.7163 141.179 60.7363 141.283 60.7358 141.387Z" fill="#FFFDF4"/>
<path d="M70.377 129.347C70.377 129.486 70.3361 129.621 70.2596 129.736C70.1831 129.851 70.0744 129.941 69.9471 129.994C69.8199 130.047 69.6799 130.061 69.5448 130.034C69.4098 130.007 69.2857 129.94 69.1883 129.842C69.0909 129.745 69.0246 129.62 68.9978 129.484C68.9709 129.348 68.9847 129.207 69.0374 129.08C69.0901 128.952 69.1793 128.842 69.2938 128.765C69.4083 128.689 69.543 128.647 69.6807 128.647C69.8653 128.647 70.0424 128.721 70.173 128.852C70.3036 128.984 70.377 129.162 70.377 129.347Z" fill="#FFFDF4"/>
<path d="M88.0235 130.872C88.0235 131.393 87.7101 131.815 87.3272 131.815C86.9442 131.815 86.6309 131.393 86.6309 130.872C86.6309 130.351 86.9422 129.927 87.3272 129.927C87.7121 129.927 88.0235 130.348 88.0235 130.872Z" fill="#FFFDF4"/>
<path d="M105.973 131.24C105.973 131.761 105.659 132.182 105.276 132.182C104.893 132.182 104.58 131.761 104.58 131.24C104.58 130.719 104.891 130.293 105.276 130.293C105.661 130.293 105.973 130.716 105.973 131.24Z" fill="#FFFDF4"/>
<path d="M78.9883 170.13C78.9883 170.654 78.675 171.075 78.292 171.075C77.909 171.075 77.5957 170.654 77.5957 170.13C77.5957 169.606 77.909 169.185 78.292 169.185C78.675 169.185 78.9883 169.608 78.9883 170.13Z" fill="#FFFDF4"/>
<path d="M89.1758 157.695C89.1758 158.216 88.8625 158.638 88.4795 158.638C88.0965 158.638 87.7832 158.216 87.7832 157.695C87.7832 157.174 88.0945 156.747 88.4795 156.747C88.8645 156.747 89.1758 157.172 89.1758 157.695Z" fill="#FFFDF4"/>
<path d="M97.7852 144.04C97.7852 144.565 97.4718 144.988 97.0889 144.988C96.7059 144.988 96.3926 144.565 96.3926 144.04C96.3926 143.515 96.7039 143.1 97.0889 143.1C97.4738 143.1 97.7852 143.524 97.7852 144.04Z" fill="#FFFDF4"/>
<path d="M111.431 140.717L112.218 144.068L110.947 145.168L110.648 141.509L111.431 140.717Z" fill="#FFFDF4"/>
<path d="M103.55 154.86L104.277 153.7L104.52 159.128L103.533 158.906L103.55 154.86Z" fill="#FFFDF4"/>
<path d="M94.2092 169.367L93.1777 168.454L93.6015 165.895L94.2092 165.834V169.367Z" fill="#FFFDF4"/>
<path d="M92.9969 149.675L92.2012 151.201L92.2628 141.264L92.7473 139.983L92.9969 149.675Z" fill="#FFFDF4"/>
<path d="M91.6616 115.54L92.0236 122.794L91.3562 123.954L90.9961 117.492L91.6616 115.54Z" fill="#FFFDF4"/>
<path d="M107.671 116.697L109.063 123.891L107.79 125.537L106.941 118.222L107.671 116.697Z" fill="#FFFDF4"/>
<path d="M98.755 105.359L99.6035 112.613L98.9997 114.199L98.2109 106.94L98.755 105.171" fill="#FFFDF4"/>
<path d="M104.82 99.748L105.549 102.37L105.005 103.65L104.152 100.055L104.82 99.748Z" fill="#FFFDF4"/>
<path d="M96.3865 86.583L97.4807 93.168L96.9933 94.021L96.0234 87.802L96.3865 86.583Z" fill="#FFFDF4"/>
<path d="M101.971 78.3516L103.55 83.8396L103.004 85.2396L101.611 79.7536L101.971 78.3516Z" fill="#FFFDF4"/>
<path d="M105.61 70.7314L107.309 76.0314L106.701 77.4314L105.309 72.1314L105.61 70.7314Z" fill="#FFFDF4"/>
<path d="M94.5116 76.2186L93.8442 76.9516L92.75 70.9166L93.3558 69.5166L94.5116 76.2186Z" fill="#FFFDF4"/>
<path d="M100.091 67.8062L98.8731 63.6602L98.3867 64.0872L99.5396 68.7822L100.091 67.8062Z" fill="#FFFDF4"/>
<path d="M102.095 64.5137C102.095 64.6465 102.056 64.7765 101.983 64.8871C101.91 64.9977 101.806 65.084 101.684 65.1351C101.562 65.1862 101.428 65.1997 101.298 65.1741C101.169 65.1484 101.05 65.0847 100.956 64.9909C100.862 64.8971 100.799 64.7776 100.773 64.6474C100.747 64.5172 100.76 64.3821 100.81 64.2594C100.861 64.1367 100.946 64.0318 101.056 63.958C101.166 63.8841 101.295 63.8447 101.427 63.8447C101.604 63.8447 101.773 63.9151 101.898 64.0406C102.024 64.166 102.094 64.3361 102.095 64.5137Z" fill="#FFFDF4"/>
<path d="M89.9658 64.5753C89.9656 64.708 89.9262 64.8376 89.8528 64.9478C89.7793 65.058 89.675 65.1439 89.553 65.1945C89.4311 65.2452 89.2969 65.2583 89.1675 65.2323C89.0381 65.2063 88.9192 65.1423 88.826 65.0484C88.7328 64.9546 88.6693 64.835 88.6436 64.7049C88.6179 64.5747 88.6312 64.4399 88.6818 64.3173C88.7323 64.1948 88.8179 64.09 88.9276 64.0163C89.0373 63.9426 89.1663 63.9033 89.2983 63.9033C89.4754 63.9036 89.6452 63.9745 89.7703 64.1005C89.8955 64.2265 89.9658 64.3973 89.9658 64.5753Z" fill="#FFFDF4"/>
<path d="M78.6979 64.5588C78.6754 64.6864 78.6171 64.8049 78.5299 64.9003C78.4428 64.9958 78.3303 65.0642 78.2058 65.0977C78.0813 65.1312 77.9498 65.1282 77.8269 65.0892C77.704 65.0502 77.5947 64.9767 77.5119 64.8774C77.4291 64.7781 77.3761 64.6572 77.3593 64.5287C77.3425 64.4002 77.3625 64.2696 77.4169 64.1521C77.4714 64.0347 77.558 63.9353 77.6667 63.8656C77.7754 63.7959 77.9015 63.7589 78.0304 63.7588C78.2241 63.7768 78.4028 63.871 78.5278 64.0208C78.6528 64.1706 78.7139 64.3639 78.6979 64.5588Z" fill="#FFFDF4"/>
<path d="M85.4755 72.1954C85.4755 72.3279 85.4364 72.4575 85.3631 72.5677C85.2898 72.6779 85.1857 72.7638 85.0638 72.8145C84.942 72.8652 84.808 72.8784 84.6786 72.8524C84.5493 72.8265 84.4306 72.7626 84.3374 72.6688C84.2443 72.575 84.1809 72.4555 84.1553 72.3255C84.1297 72.1955 84.143 72.0607 84.1936 71.9383C84.2442 71.8159 84.3298 71.7113 84.4395 71.6378C84.5492 71.5643 84.6782 71.5252 84.81 71.5254C84.9865 71.5259 85.1556 71.5967 85.2804 71.7223C85.4051 71.8478 85.4752 72.0179 85.4755 72.1954Z" fill="#FFFDF4"/>
<path d="M97.4228 72.0714C97.4228 72.2039 97.3836 72.3335 97.3104 72.4437C97.2371 72.5539 97.1329 72.6398 97.0111 72.6905C96.8893 72.7411 96.7552 72.7544 96.6259 72.7284C96.4966 72.7025 96.3779 72.6386 96.2847 72.5448C96.1915 72.451 96.1281 72.3315 96.1025 72.2015C96.0769 72.0714 96.0903 71.9367 96.1409 71.8143C96.1915 71.6919 96.277 71.5873 96.3868 71.5138C96.4965 71.4403 96.6254 71.4012 96.7573 71.4014C96.8448 71.4014 96.9314 71.4187 97.0122 71.4524C97.093 71.4861 97.1664 71.5354 97.2282 71.5977C97.29 71.6599 97.339 71.7338 97.3724 71.815C97.4058 71.8963 97.4229 71.9834 97.4228 72.0714Z" fill="#FFFDF4"/>
<path d="M77.7162 80.218C77.707 80.3488 77.6601 80.4741 77.5812 80.5785C77.5022 80.6828 77.3946 80.7617 77.2717 80.8055C77.1487 80.8492 77.0157 80.8559 76.8891 80.8247C76.7624 80.7935 76.6475 80.7258 76.5586 80.6299C76.4697 80.534 76.4106 80.414 76.3885 80.2848C76.3665 80.1555 76.3825 80.0227 76.4345 79.9024C76.4866 79.7822 76.5725 79.6799 76.6816 79.6081C76.7907 79.5362 76.9183 79.498 77.0487 79.498C77.2318 79.5056 77.4046 79.5854 77.5295 79.7202C77.6545 79.855 77.7215 80.0339 77.7162 80.218Z" fill="#FFFDF4"/>
<path d="M87.0438 88.3488C87.0433 88.4812 87.0036 88.6105 86.93 88.7203C86.8564 88.8301 86.752 88.9155 86.6301 88.9657C86.5082 89.016 86.3743 89.0287 86.2452 89.0025C86.1161 88.9762 85.9976 88.9121 85.9047 88.8181C85.8119 88.7242 85.7488 88.6047 85.7234 88.4748C85.698 88.3448 85.7116 88.2102 85.7622 88.088C85.8129 87.9658 85.8985 87.8614 86.0082 87.788C86.1178 87.7146 86.2467 87.6756 86.3784 87.6758C86.466 87.676 86.5528 87.6937 86.6336 87.7276C86.7145 87.7616 86.788 87.8112 86.8498 87.8737C86.9115 87.9362 86.9605 88.0103 86.9938 88.0919C87.0271 88.1734 87.0441 88.2607 87.0438 88.3488Z" fill="#FFFDF4"/>
<path d="M100.759 88.6564C100.759 88.789 100.719 88.9187 100.646 89.0289C100.572 89.1391 100.468 89.225 100.346 89.2756C100.224 89.3262 100.09 89.3394 99.9605 89.3134C99.8311 89.2874 99.7122 89.2234 99.619 89.1295C99.5257 89.0356 99.4623 88.9161 99.4366 88.7859C99.4109 88.6558 99.4242 88.5209 99.4747 88.3984C99.5253 88.2758 99.6108 88.1711 99.7206 88.0974C99.8303 88.0237 99.9593 87.9844 100.091 87.9844C100.268 87.9846 100.438 88.0556 100.563 88.1816C100.688 88.3076 100.759 88.4783 100.759 88.6564Z" fill="#FFFDF4"/>
<path d="M106.882 80.6075C106.882 80.7399 106.842 80.8694 106.769 80.9794C106.696 81.0894 106.592 81.1751 106.47 81.2257C106.348 81.2763 106.214 81.2895 106.085 81.2636C105.956 81.2377 105.837 81.1739 105.744 81.0803C105.651 80.9866 105.587 80.8674 105.562 80.7375C105.536 80.6076 105.549 80.473 105.599 80.3506C105.65 80.2282 105.735 80.1236 105.844 80.0499C105.954 79.9762 106.083 79.9367 106.214 79.9365C106.391 79.9368 106.561 80.0076 106.686 80.1333C106.811 80.2591 106.881 80.4296 106.882 80.6075Z" fill="#FFFDF4"/>
<path d="M80.5654 96.8858C80.5656 97.0187 80.5265 97.1486 80.4532 97.2591C80.3799 97.3696 80.2756 97.4558 80.1536 97.5066C80.0315 97.5575 79.8972 97.5708 79.7676 97.5449C79.638 97.519 79.519 97.4549 79.4256 97.3609C79.3322 97.2669 79.2687 97.1472 79.2431 97.0169C79.2175 96.8865 79.231 96.7515 79.2818 96.6289C79.3325 96.5063 79.4184 96.4015 79.5284 96.328C79.6385 96.2545 79.7678 96.2154 79.8999 96.2158C80.0765 96.2161 80.2458 96.2868 80.3705 96.4124C80.4953 96.538 80.5654 96.7083 80.5654 96.8858Z" fill="#FFFDF4"/>
<path d="M95.3602 97.923C95.3599 98.0554 95.3205 98.1847 95.247 98.2946C95.1736 98.4045 95.0694 98.49 94.9477 98.5405C94.8259 98.5909 94.6921 98.6039 94.5629 98.5779C94.4338 98.5519 94.3152 98.4881 94.2222 98.3944C94.1291 98.3007 94.0658 98.1814 94.0401 98.0516C94.0145 97.9217 94.0276 97.7871 94.078 97.6648C94.1283 97.5425 94.2136 97.4379 94.323 97.3642C94.4324 97.2906 94.5611 97.2512 94.6928 97.251C94.7806 97.2508 94.8675 97.2681 94.9486 97.3019C95.0297 97.3356 95.1034 97.3851 95.1654 97.4476C95.2274 97.51 95.2766 97.5841 95.31 97.6657C95.3434 97.7473 95.3605 97.8347 95.3602 97.923Z" fill="#FFFDF4"/>
<path d="M88.0244 107.739C88.0242 107.872 87.9848 108.002 87.9114 108.112C87.8379 108.222 87.7336 108.308 87.6116 108.359C87.4897 108.409 87.3555 108.422 87.2261 108.396C87.0967 108.37 86.9778 108.306 86.8846 108.213C86.7913 108.119 86.7279 107.999 86.7022 107.869C86.6765 107.739 86.6898 107.604 86.7404 107.481C86.7909 107.359 86.8764 107.254 86.9862 107.18C87.0959 107.107 87.2249 107.067 87.3569 107.067C87.534 107.068 87.7038 107.139 87.8289 107.265C87.9541 107.391 88.0244 107.561 88.0244 107.739Z" fill="#FFFDF4"/>
<path d="M71.4325 105.949C71.4323 106.082 71.393 106.211 71.3196 106.321C71.2463 106.431 71.142 106.517 71.0202 106.568C70.8983 106.618 70.7643 106.631 70.6351 106.605C70.5058 106.579 70.3872 106.515 70.2941 106.421C70.201 106.328 70.1377 106.208 70.1122 106.078C70.0867 105.948 70.1001 105.813 70.1507 105.691C70.2013 105.569 70.2869 105.464 70.3966 105.391C70.5063 105.317 70.6352 105.278 70.7671 105.278C70.8546 105.278 70.9412 105.296 71.022 105.33C71.1028 105.363 71.1762 105.413 71.238 105.475C71.2998 105.538 71.3488 105.612 71.3822 105.693C71.4155 105.774 71.4327 105.861 71.4325 105.949Z" fill="#FFFDF4"/>
<path d="M103.847 108.164C103.847 108.297 103.808 108.426 103.734 108.537C103.661 108.647 103.557 108.733 103.435 108.784C103.313 108.835 103.179 108.848 103.05 108.822C102.92 108.797 102.801 108.733 102.708 108.639C102.614 108.546 102.551 108.426 102.525 108.296C102.499 108.166 102.512 108.031 102.562 107.909C102.612 107.786 102.697 107.681 102.807 107.607C102.916 107.533 103.045 107.494 103.177 107.493C103.265 107.493 103.352 107.51 103.433 107.544C103.514 107.577 103.588 107.627 103.65 107.689C103.713 107.751 103.762 107.825 103.796 107.907C103.829 107.988 103.847 108.076 103.847 108.164Z" fill="#FFFDF4"/>
<path d="M113.009 119.502C113.01 119.635 112.971 119.765 112.898 119.877C112.825 119.988 112.721 120.074 112.599 120.126C112.477 120.177 112.342 120.191 112.212 120.165C112.082 120.14 111.963 120.076 111.869 119.982C111.775 119.888 111.711 119.768 111.685 119.638C111.659 119.507 111.672 119.372 111.723 119.249C111.773 119.126 111.859 119.021 111.969 118.947C112.079 118.873 112.209 118.834 112.341 118.834C112.518 118.834 112.687 118.905 112.812 119.03C112.937 119.155 113.008 119.325 113.009 119.502Z" fill="#FFFDF4"/>
<path d="M96.3876 118.403C96.3878 118.536 96.3488 118.666 96.2755 118.777C96.2022 118.887 96.0979 118.973 95.9758 119.024C95.8538 119.075 95.7194 119.088 95.5898 119.062C95.4603 119.037 95.3412 118.973 95.2479 118.879C95.1545 118.785 95.091 118.665 95.0654 118.534C95.0398 118.404 95.0532 118.269 95.104 118.146C95.1548 118.024 95.2407 117.919 95.3507 117.846C95.4608 117.772 95.59 117.733 95.7222 117.733C95.8988 117.734 96.068 117.804 96.1928 117.93C96.3176 118.056 96.3876 118.226 96.3876 118.403Z" fill="#FFFDF4"/>
<path d="M79.6552 117.491C79.6552 117.624 79.6161 117.753 79.5428 117.864C79.4695 117.974 79.3654 118.06 79.2435 118.11C79.1217 118.161 78.9876 118.174 78.8583 118.148C78.729 118.122 78.6103 118.058 78.5171 117.965C78.4239 117.871 78.3606 117.751 78.335 117.621C78.3093 117.491 78.3227 117.357 78.3733 117.234C78.4239 117.112 78.5095 117.007 78.6192 116.934C78.7289 116.86 78.8579 116.821 78.9897 116.821C79.1663 116.822 79.3356 116.892 79.4603 117.018C79.5851 117.143 79.6552 117.314 79.6552 117.491Z" fill="#FFFDF4"/>
</g>
</g>
<defs>
<clipPath id="clip0_20_2005">
<rect width="188" height="188" fill="white"/>
</clipPath>
</defs>
</svg>
