<svg width="188" height="188" viewBox="0 0 188 188" fill="none" xmlns="http://www.w3.org/2000/svg">
<g clip-path="url(#clip0_20_2001)">
<path d="M154.618 137.284C154.613 137.198 154.598 137.113 154.573 137.031C154.554 136.946 154.524 136.864 154.484 136.786C154.19 136.021 153.632 135.386 152.911 134.997C152.189 134.609 151.352 134.491 150.552 134.667C150.252 134.724 149.943 134.789 149.639 134.855L149.188 134.955L122.694 140.469C123.142 138.555 123.105 136.559 122.588 134.662C122.07 132.765 121.088 131.027 119.73 129.605C118.597 128.476 117.198 127.651 115.662 127.206C114.126 126.76 112.503 126.709 110.942 127.057C110.855 127.058 110.77 127.07 110.687 127.093C110.611 127.112 110.539 127.142 110.473 127.181C110.367 127.212 110.258 127.246 110.15 127.281C110.178 126.872 110.185 126.461 110.171 126.05C110.171 125.881 110.164 125.714 110.164 125.55V118.901C110.232 118.025 109.967 117.155 109.42 116.467C108.873 115.779 108.086 115.324 107.217 115.193C106.579 115.139 105.937 115.146 105.301 115.213C105.064 115.231 104.829 115.248 104.601 115.259C103.539 115.308 102.478 115.365 101.416 115.422L101.309 115.428C101.94 114.115 102.573 112.802 103.209 111.49C103.711 111.524 104.211 111.541 104.709 111.541C107.623 111.588 110.512 111 113.176 109.819C115.841 108.638 118.217 106.892 120.14 104.702C122.272 102.142 123.691 99.0637 124.253 95.7792C124.815 92.4947 124.5 89.1201 123.34 85.9963C122.15 82.7983 120.232 79.9206 117.74 77.5903C118.731 76.9238 119.593 76.0833 120.285 75.1093C124.75 79.1453 130.517 80.6693 135.736 79.1813C138.671 78.3345 141.247 76.5494 143.071 74.0992C144.895 71.6491 145.866 68.6687 145.836 65.6143C145.881 64.8923 145.7 64.1742 145.318 63.5598C144.936 62.9453 144.373 62.4649 143.706 62.1853L143.575 62.1333C143.893 61.6876 144.091 61.1671 144.15 60.6223C144.192 60.1649 144.204 59.7053 144.186 59.2463C144.186 59.0783 144.18 58.9093 144.18 58.7463V52.0943C144.248 51.218 143.982 50.3484 143.435 49.6604C142.888 48.9724 142.101 48.5171 141.232 48.3863C140.594 48.3323 139.952 48.339 139.316 48.4063C139.079 48.4233 138.844 48.4413 138.616 48.4523C137.574 48.5003 136.532 48.5523 135.491 48.6123L135.324 48.6213C135.946 47.326 136.57 46.0313 137.195 44.7373C137.326 44.4663 137.474 44.1893 137.632 43.8963C138.356 42.8312 138.741 41.5722 138.738 40.2843C138.631 39.5252 138.269 38.825 137.711 38.2989C137.154 37.7727 136.434 37.452 135.67 37.3893C135.07 37.312 134.467 37.2356 133.861 37.1603L128.661 36.5043C128.388 36.4693 128.106 36.4253 127.822 36.3823C126.107 36.1163 124.165 35.8143 122.911 37.3973C122.202 38.3635 121.592 39.398 121.089 40.4853C120.896 40.8693 120.713 41.2323 120.521 41.5853C119.747 43.0283 119.081 44.3853 118.488 45.7303C116.543 43.1028 113.738 41.2415 110.562 40.4713C108.434 40.008 106.219 40.1409 104.162 40.8553C104.073 40.8547 103.985 40.8662 103.9 40.8893C103.772 40.918 103.655 40.9789 103.558 41.0663L103.545 41.0763C102.473 41.5008 101.454 42.0453 100.505 42.6993L100.112 36.6623C100.14 35.7289 99.8618 34.8119 99.3187 34.0523C97.9707 32.3943 96.0647 32.8653 94.3837 33.2793C94.2177 33.3203 94.0527 33.3613 93.8837 33.3993L87.3677 34.9343C87.0677 35.0053 86.7507 35.0673 86.4177 35.1343C84.9857 35.4193 83.3647 35.7423 82.4307 36.8803C80.6687 36.6716 78.9064 36.465 77.1437 36.2603L73.1247 35.7933C72.2601 35.6478 71.3718 35.7626 70.5727 36.1233C72.4074 33.5839 73.2277 30.4509 72.8727 27.3383C72.7167 25.6504 72.2239 24.0108 71.4235 22.5165C70.6231 21.0222 69.5314 19.7035 68.2127 18.6383C66.7331 17.4529 64.9545 16.6997 63.0736 16.462C61.1927 16.2243 59.2827 16.5113 57.5547 17.2913C55.9154 18.1022 54.499 19.3014 53.4289 20.7846C52.3588 22.2677 51.6674 23.9899 51.4147 25.8013C51.117 27.7568 51.2504 29.7538 51.8057 31.6523V31.6843C51.8076 31.7136 51.8119 31.7427 51.8187 31.7713C51.8374 31.8413 51.8653 31.9086 51.9017 31.9713C52.5238 33.939 53.614 35.7265 55.0787 37.1803C54.8582 37.9644 54.7155 38.7682 54.6527 39.5803C54.6167 39.9003 54.5827 40.2013 54.5417 40.4963C54.4727 40.9763 54.4247 41.4663 54.3767 41.9403L53.3047 52.3953C52.4679 52.267 51.6197 52.2285 50.7747 52.2803C50.4347 52.2893 50.1137 52.2983 49.8067 52.2933C49.0734 52.2833 48.3377 52.2746 47.5997 52.2673C46.6717 52.2583 45.7277 52.2383 44.8127 52.2193C42.9807 52.1803 41.0867 52.1413 39.2287 52.1803C38.7044 52.1776 38.1865 52.2956 37.715 52.525C37.2436 52.7544 36.8312 53.0891 36.5097 53.5033C36.1224 54.0813 35.8601 54.734 35.7397 55.4193L35.6747 55.6843C35.2747 57.2493 34.8667 58.9393 34.5397 60.6843C33.6007 65.6843 32.5467 73.1473 34.2117 80.1483C34.8972 83.477 36.5659 86.5233 39.0017 88.8933C41.2171 90.868 44.0037 92.0862 46.9577 92.3713C45.9972 96.9112 46.8139 101.646 49.2397 105.602C51.7425 109.641 55.5625 112.693 60.0547 114.241C62.6176 115.13 65.3328 115.497 68.0397 115.319C68.4659 115.908 69.0749 116.339 69.7717 116.545C69.6296 117.72 69.6596 118.909 69.8607 120.075C69.8561 120.176 69.8662 120.277 69.8907 120.375C69.9068 120.439 69.9303 120.502 69.9607 120.56C70.3066 122.144 70.9789 123.637 71.9347 124.946L65.7347 148.903C65.6457 149.249 65.5507 149.595 65.4567 149.941C65.3147 150.461 65.1677 150.997 65.0387 151.53C62.3697 151.492 60.5387 150.741 59.4387 149.235C57.6147 146.74 58.3947 143.441 59.0217 141.696C59.2295 141.119 59.4802 140.559 59.7717 140.019C59.8537 139.87 59.9407 139.719 60.0297 139.578C60.2554 139.236 60.4371 138.866 60.5707 138.478C60.7313 137.935 60.7508 137.36 60.6274 136.808C60.504 136.255 60.2417 135.743 59.8653 135.32C59.4889 134.897 59.0109 134.577 58.4764 134.39C57.942 134.203 57.3687 134.156 56.8107 134.252C55.7954 134.519 54.8939 135.108 54.2417 135.93C54.1417 136.035 54.0327 136.141 53.9287 136.244C50.4847 139.644 46.6177 143.783 44.0527 148.689C42.3327 151.979 39.8827 158.381 42.7987 164.289C43.9562 166.644 45.8161 168.581 48.1217 169.833C50.597 171.081 53.3425 171.698 56.1137 171.628H56.4077C60.9279 171.414 65.3863 170.491 69.6197 168.892C70.7924 168.492 71.9657 168.097 73.1397 167.707L74.9017 167.117L147.526 142.707C148.062 142.527 148.6 142.35 149.14 142.176C150.204 141.828 151.305 141.469 152.372 141.076C153.137 140.815 153.784 140.29 154.198 139.595C154.612 138.9 154.764 138.081 154.629 137.283" fill="white"/>
<path d="M153.596 137.294C153.441 136.724 153.074 136.234 152.57 135.925C152.066 135.615 151.463 135.51 150.884 135.629L121.234 141.801C121.746 140.526 122.008 139.164 122.005 137.789C122.005 137.08 121.938 136.372 121.805 135.675C121.55 134.324 121.035 133.036 120.289 131.881C119.555 130.746 118.584 129.783 117.442 129.059C116.133 128.235 114.618 127.794 113.071 127.788C112.36 127.789 111.651 127.883 110.965 128.069C110.121 128.299 109.319 128.663 108.591 129.146C108.435 129.246 108.285 129.359 108.137 129.471L107.571 129.257C108.035 129.106 108.439 128.812 108.725 128.416C109.011 128.021 109.165 127.545 109.164 127.057V118.49C109.165 118.176 109.102 117.864 108.979 117.575C108.856 117.285 108.675 117.024 108.448 116.806C108.221 116.589 107.952 116.42 107.657 116.31C107.362 116.199 107.048 116.15 106.734 116.165C106.734 116.165 104.841 116.243 102.516 116.36C101.6 116.406 100.616 116.46 99.6529 116.514C100.053 115.677 100.472 114.808 100.878 113.964C101.512 112.647 102.117 111.396 102.587 110.424C103.3 110.499 104.015 110.536 104.732 110.537C108.239 110.555 111.689 109.646 114.732 107.902C117.405 106.372 119.627 104.162 121.171 101.496C122.715 98.8304 123.526 95.804 123.524 92.7234C123.497 88.99 122.389 85.3443 120.334 82.2274C119.157 80.4213 117.711 78.8053 116.047 77.4354C116.691 77.1049 117.303 76.7131 117.872 76.2654C118.641 75.6548 119.289 74.9055 119.782 74.0564C119.889 73.8744 119.982 73.6884 120.082 73.5014C120.663 74.111 121.281 74.6834 121.934 75.2154C124.667 77.467 128.093 78.7089 131.634 78.7324C133.58 78.7398 135.506 78.3346 137.285 77.5434C138.879 76.8322 140.309 75.8 141.486 74.5113C142.662 73.2226 143.561 71.705 144.125 70.0534C144.593 68.6701 144.83 67.2189 144.825 65.7584C144.825 65.5664 144.821 65.3754 144.813 65.1854C144.795 64.7305 144.642 64.2912 144.376 63.9223C144.109 63.5534 143.739 63.2713 143.313 63.1114L141.57 62.4514C142.034 62.3004 142.438 62.006 142.724 61.6107C143.011 61.2154 143.164 60.7395 143.163 60.2514V51.6854C143.163 51.3733 143.1 51.0644 142.978 50.7772C142.856 50.49 142.677 50.2303 142.453 50.0137C142.228 49.7971 141.962 49.6281 141.67 49.5167C141.379 49.4053 141.068 49.3539 140.756 49.3654C140.756 49.3654 138.863 49.4444 136.538 49.5604C135.622 49.6074 134.638 49.6604 133.675 49.7144C134.234 48.5494 134.824 47.3234 135.375 46.1894C135.968 44.9624 136.508 43.8444 136.9 43.0354C137.1 42.6294 137.255 42.3014 137.364 42.0734L137.535 41.7214C137.696 41.3897 137.775 41.0244 137.767 40.6559C137.758 40.2874 137.662 39.9261 137.486 39.6022C137.31 39.2783 137.059 39.0009 136.755 38.7931C136.45 38.5854 136.101 38.4531 135.735 38.4074L132.535 38.0074L125.806 37.1584C125.353 37.1019 124.893 37.1799 124.484 37.3828C124.075 37.5857 123.735 37.9045 123.506 38.2994C123.5 38.3104 122.645 39.7904 121.664 41.5994C121.173 42.4994 120.652 43.4894 120.184 44.4244C119.95 44.8924 119.731 45.3484 119.534 45.7794C119.337 46.2104 119.163 46.6164 119.018 47.0034C118.936 47.2224 118.825 47.5034 118.695 47.8344C118.642 47.7474 118.595 47.6584 118.538 47.5724C117.328 45.6257 115.677 43.9915 113.718 42.8024C111.983 41.7644 110.001 41.2118 107.98 41.2024C106.681 41.2067 105.392 41.4326 104.169 41.8704C103.262 42.2003 102.396 42.6335 101.588 43.1614C100.898 43.6092 100.241 44.1065 99.6229 44.6494L99.0599 36.0054C99.0381 35.6689 98.9432 35.3413 98.7818 35.0452C98.6204 34.7492 98.3963 34.4919 98.1253 34.2913C97.8543 34.0908 97.5427 33.9517 97.2125 33.8838C96.8822 33.816 96.5411 33.821 96.2129 33.8984L84.5219 36.6454C84.1758 36.7271 83.8531 36.8874 83.579 37.1139C83.3048 37.3404 83.0865 37.627 82.9409 37.9514L80.6869 37.6834H80.6809L72.3909 36.7194C71.9577 36.6692 71.5191 36.7422 71.1255 36.9301C70.7319 37.1179 70.3993 37.413 70.1659 37.7814L67.9489 37.4054C68.0929 37.2954 68.2379 37.1854 68.3759 37.0674C69.5411 36.0504 70.4587 34.7808 71.0589 33.3554C71.673 31.9058 71.987 30.3468 71.9819 28.7724C71.9792 27.542 71.7945 26.3188 71.4339 25.1424C70.991 23.6688 70.2659 22.2954 69.2989 21.0984C68.3535 19.9235 67.1641 18.9681 65.8129 18.2984C64.5557 17.6825 63.1749 17.3607 61.7749 17.3574C60.6717 17.3561 59.5779 17.5596 58.5489 17.9574C57.5667 18.3392 56.6572 18.8864 55.8599 19.5754C54.6942 20.5918 53.7762 21.8611 53.1759 23.2864C52.5626 24.7356 52.249 26.2939 52.2539 27.8674C52.2555 29.0979 52.4388 30.3215 52.7979 31.4984C53.2397 32.9745 53.9653 34.3502 54.9339 35.5484C55.339 36.0443 55.7874 36.5031 56.2739 36.9194C56.1156 37.1812 56.0109 37.4718 55.9659 37.7744L55.5069 40.8654L55.4939 40.9654L54.1739 53.7994C53.7848 53.5113 53.315 53.3525 52.8309 53.3454L48.8079 53.2924H48.8019L39.1819 53.1924C38.6616 53.187 38.1546 53.3567 37.7425 53.6743C37.3304 53.9919 37.0371 54.4389 36.9099 54.9434L36.2889 57.3984C36.1369 57.9984 35.6669 59.9404 35.2309 62.6054C34.6974 65.7741 34.4169 68.9802 34.3919 72.1934C34.3721 74.511 34.5831 76.8247 35.0219 79.1004C35.44 81.3637 36.2708 83.5307 37.4729 85.4934C38.4071 86.973 39.6318 88.2477 41.0729 89.2404C42.5064 90.2169 44.128 90.8831 45.8339 91.1964C46.6264 91.3437 47.4285 91.4333 48.2339 91.4644C47.7697 92.9704 47.5338 94.5375 47.5339 96.1134C47.5583 99.4667 48.5538 102.741 50.3999 105.54C52.1856 108.24 54.6095 110.458 57.4568 111.997C60.3042 113.536 63.4871 114.35 66.7239 114.365C67.3492 114.364 67.974 114.33 68.5959 114.265C68.7649 114.686 69.0544 115.047 69.428 115.304C69.8016 115.56 70.2427 115.701 70.6959 115.707H70.9169C70.749 116.467 70.6639 117.243 70.6629 118.021C70.6635 118.72 70.7305 119.417 70.8629 120.103C71.1835 121.804 71.929 123.395 73.0299 124.729L72.6829 126.07L65.8709 152.37C65.8579 152.423 65.8489 152.476 65.8389 152.529C65.6949 152.529 65.5449 152.541 65.4029 152.541C64.1774 152.562 62.9554 152.404 61.7759 152.07C60.9668 151.848 60.2174 151.449 59.5819 150.901C58.7934 150.196 58.1775 149.319 57.7819 148.338C57.4306 147.426 57.2562 146.454 57.2679 145.476C57.2857 144.185 57.5109 142.904 57.9349 141.683C58.2721 140.665 58.7311 139.691 59.3019 138.783C59.6119 138.305 59.7346 137.728 59.6467 137.165C59.5587 136.601 59.2663 136.09 58.8251 135.728C58.384 135.367 57.8252 135.18 57.2553 135.205C56.6855 135.229 56.1445 135.463 55.7359 135.86C54.1809 137.376 52.9359 138.618 51.7279 139.928C50.5199 141.238 49.3779 142.601 48.0439 144.334C46.3849 146.448 45.0068 148.767 43.9439 151.234C42.974 153.45 42.452 155.836 42.4079 158.254C42.3915 160.075 42.778 161.877 43.5399 163.53C44.114 164.776 44.897 165.913 45.8549 166.894C46.5301 167.579 47.2903 168.175 48.1169 168.666C49.3189 169.372 50.6256 169.882 51.9879 170.176C53.3348 170.469 54.7097 170.611 56.0879 170.602C58.4301 170.572 60.7618 170.283 63.0409 169.742C65.1479 169.255 67.2253 168.647 69.2629 167.922L152.083 140.087C152.643 139.898 153.109 139.502 153.388 138.981C153.667 138.46 153.736 137.852 153.583 137.281" fill="#0D0002"/>
<path d="M64.6166 21.6002C64.24 21.4046 63.8263 21.291 63.4027 21.2667C62.9791 21.2424 62.5551 21.308 62.1586 21.4592C60.1736 22.2302 59.2066 24.9702 59.9956 27.5742C60.1727 28.2383 60.4837 28.8593 60.9095 29.3989C61.3353 29.9385 61.8669 30.3854 62.4716 30.7122C62.8487 30.9084 63.2631 31.0224 63.6875 31.0467C64.1119 31.071 64.5366 31.0051 64.9336 30.8532C66.9156 30.0812 67.8916 27.3432 67.0976 24.7432C66.9185 24.0789 66.6062 23.4581 66.1797 22.9183C65.7532 22.3785 65.2214 21.9311 64.6166 21.6032" fill="#EC0127"/>
<path d="M41.977 71.3177C41.994 71.9287 42.028 72.5347 42.077 73.1327C42.1851 75.5245 42.8552 77.8572 44.033 79.9417C44.8509 81.2923 46.1442 82.2882 47.659 82.7337C47.8762 82.7971 48.0965 82.8495 48.319 82.8907C49.5287 83.1681 50.7832 83.1887 52.0014 82.951C53.2196 82.7133 54.3743 82.2226 55.391 81.5107C56.5536 80.643 57.5379 79.5592 58.29 78.3187C58.29 78.3187 64.362 69.0867 65.49 59.2947C65.94 55.4007 67.99 41.8837 67.99 41.8837L61.15 40.7207C61.15 40.7207 60.368 53.5497 58.69 61.5437C57.644 66.5097 55.544 67.5177 54.955 67.5947C54.1781 67.7606 53.3718 67.726 52.612 67.4942C51.8522 67.2624 51.1639 66.841 50.612 66.2697C49.578 64.8993 49.0482 63.2142 49.112 61.4987C49.0852 60.1667 49.1999 58.8355 49.454 57.5277L43.538 57.4657C42.4834 62.0071 41.9596 66.6555 41.977 71.3177Z" fill="#EC0127"/>
<path d="M105.017 125.151C104.992 124.58 104.795 120.551 104.766 119.945C104.086 120.008 93.193 120.99 93.193 120.99L98.88 108.89L93.407 108.197C93.407 108.197 88.335 114.873 87.295 126.969C87.1527 128.759 87.4679 130.556 88.211 132.19C88.9542 133.824 90.1008 135.243 91.543 136.312C95.558 139.579 101.221 139.268 104.192 135.612C104.989 134.627 105.535 133.464 105.785 132.222L101.285 130.677C101.083 131.253 100.733 131.765 100.272 132.164C99.8104 132.563 99.2527 132.834 98.654 132.951C96.563 133.225 94.554 131.045 94.162 128.081C94.0241 127.08 94.1012 126.061 94.388 125.091L103.963 125.22L105.017 125.149" fill="#EC0127"/>
<path d="M73.1145 52.9157C72.7774 55.5014 73.1182 58.1304 74.1035 60.5447C74.4337 61.2487 74.9102 61.8744 75.5011 62.3799C76.092 62.8855 76.7838 63.2594 77.5305 63.4767C78.5489 63.8262 79.6292 63.9583 80.7018 63.8645C81.7744 63.7706 82.8154 63.4528 83.7575 62.9317C87.9725 60.5317 89.5655 54.3757 89.5805 54.3137L90.4485 54.4187C90.4485 54.4187 90.4725 61.6817 90.4735 62.5907C91.2875 62.4657 95.6335 61.7737 96.2795 61.6687C96.2295 60.9097 94.8595 39.7827 94.7945 38.8057L89.8805 39.9617C90.06 41.3374 90.1016 42.7277 90.0045 44.1117C89.9606 45.9332 89.372 47.6998 88.3145 49.1837C87.8695 49.7227 87.3094 50.1551 86.6754 50.4493C86.0413 50.7435 85.3494 50.8919 84.6505 50.8837C83.9636 50.957 83.2694 50.8543 82.6332 50.585C81.9971 50.3157 81.44 49.8889 81.0145 49.3447C80.2467 48.0679 79.9426 46.5655 80.1535 45.0907C80.2524 43.9393 80.4729 42.8016 80.8115 41.6967C79.9855 41.5967 76.2775 41.1687 75.7115 41.1037C74.3916 44.9272 73.5201 48.8911 73.1145 52.9157Z" fill="#CB0B86"/>
<path d="M77.7355 117.32C77.8276 117.909 78.0393 118.473 78.3574 118.978C78.6756 119.483 79.0934 119.917 79.5855 120.254C79.893 120.457 80.2401 120.593 80.6039 120.653C80.9678 120.712 81.3401 120.694 81.6965 120.6C83.4765 120.114 84.5665 117.841 84.1215 115.523C84.0276 114.934 83.8149 114.369 83.4961 113.865C83.1774 113.36 82.7594 112.926 82.2675 112.588C81.9606 112.385 81.6142 112.249 81.2511 112.189C80.8879 112.129 80.5163 112.147 80.1605 112.241C78.3775 112.725 77.2915 115.001 77.7365 117.32" fill="#CB0B86"/>
<path d="M79.5485 126.511C79.3325 127.344 74.2855 146.829 74.0195 147.861C74.9425 147.874 79.9035 147.961 80.5285 147.973C80.6665 147.273 84.3475 128.673 84.4995 127.899C83.8615 127.722 80.2465 126.705 79.5475 126.511" fill="#CB0B86"/>
<path d="M110.86 136.602C110.993 137.137 111.239 137.638 111.581 138.072C111.922 138.505 112.352 138.861 112.841 139.117C113.519 139.477 114.302 139.592 115.055 139.443C115.504 139.337 115.926 139.14 116.296 138.865C116.666 138.589 116.976 138.241 117.207 137.842C117.437 137.442 117.583 137 117.636 136.541C117.689 136.083 117.648 135.619 117.515 135.178C117.379 134.642 117.132 134.142 116.79 133.708C116.448 133.275 116.018 132.919 115.529 132.663C114.852 132.302 114.071 132.187 113.319 132.337C112.87 132.442 112.447 132.638 112.077 132.913C111.706 133.189 111.396 133.537 111.166 133.937C110.936 134.336 110.79 134.779 110.737 135.237C110.684 135.696 110.726 136.16 110.86 136.602Z" fill="#FFA600"/>
<path d="M111.738 45.9093C110.855 45.3715 109.862 45.0396 108.833 44.9384C107.804 44.8371 106.766 44.969 105.795 45.3243C104.525 45.7754 103.391 46.544 102.502 47.5569C101.613 48.5699 100.997 49.7934 100.715 51.1113C100.452 52.2956 100.502 53.5276 100.858 54.6871C101.215 55.8466 101.866 56.8937 102.748 57.7263C104.266 59.0439 105.981 60.1177 107.829 60.9093C108.71 61.3015 109.569 61.7429 110.401 62.2313C111.127 62.6893 111.971 63.2973 112.039 64.2313C112.119 65.3073 111.214 65.7633 110.279 65.8673C109.467 65.8861 108.662 65.7107 107.931 65.3557C107.201 65.0007 106.566 64.4763 106.079 63.8263C105.39 63.052 104.921 62.1072 104.721 61.0903L100.628 61.9733L100.842 62.8923C101.109 64.2718 101.659 65.5812 102.456 66.7384C103.254 67.8956 104.281 68.8757 105.475 69.6173C106.956 70.4949 108.644 70.96 110.366 70.9643C111.134 70.9663 111.898 70.8681 112.641 70.6723C113.829 70.3918 114.92 69.7948 115.796 68.9446C116.672 68.0944 117.302 67.0227 117.619 65.8433C117.906 64.6213 117.856 63.3445 117.476 62.1483C117.096 60.9521 116.399 59.8812 115.459 59.0493C113.918 57.7112 112.178 56.6211 110.302 55.8183C108.975 55.262 107.734 54.5181 106.619 53.6093C106.443 53.4431 106.315 53.2319 106.25 52.9985C106.185 52.7652 106.186 52.5186 106.251 52.2853C106.326 51.9051 106.481 51.5454 106.707 51.2304C106.932 50.9154 107.223 50.6524 107.559 50.4593C108.061 50.2404 108.609 50.1502 109.155 50.1968C109.701 50.2435 110.226 50.4254 110.684 50.7263C111.267 51.1129 111.746 51.6387 112.076 52.2563C112.447 52.8101 112.72 53.4237 112.884 54.0703L113.044 54.9993L116.793 54.5103L116.634 53.5803C116.405 52.0287 115.85 50.5432 115.006 49.2212C114.162 47.8991 113.049 46.7705 111.738 45.9093Z" fill="#FFA600"/>
<path d="M88.6798 153.076L67.4098 156.776C62.7188 157.594 58.9688 156.937 56.8488 154.926C55.8697 154.008 55.1165 152.876 54.648 151.618C54.1796 150.36 54.0087 149.011 54.1488 147.677C54.1558 147.577 54.1848 147.486 54.1938 147.388C53.6708 147.988 53.1318 148.616 52.5328 149.367C50.2258 152.259 48.9328 155.092 48.7408 157.533C48.636 158.624 48.808 159.725 49.2408 160.733C51.1498 164.994 56.5488 165.687 65.2908 162.793L107.097 149.593C97.5618 151.393 88.6828 153.07 88.6748 153.074" fill="#FFA600"/>
<path d="M62.6916 105.409C64.8678 106.529 67.3342 106.957 69.7607 106.637C72.1871 106.316 74.4578 105.262 76.2686 103.616L75.0146 109.359L82.4746 109.491L89.4746 71.1788L83.6746 69.5508L78.6526 92.6588C77.5088 89.5773 75.2055 87.0651 72.2346 85.6588C66.2346 82.7588 59.2346 84.8308 56.6046 90.2838C53.9746 95.7368 56.6936 102.507 62.6916 105.405M61.8496 89.5458C63.0296 87.1028 66.7956 86.4788 70.2596 88.1538C73.7236 89.8288 75.5746 93.1708 74.3946 95.6118C73.2146 98.0528 69.4486 98.6788 65.9846 97.0038C62.5206 95.3288 60.6696 91.9918 61.8496 89.5488" fill="#E6D800"/>
<path d="M121.314 60.1684C121.172 61.9582 121.488 63.7547 122.231 65.3891C122.974 67.0234 124.12 68.442 125.562 69.5114C129.577 72.7784 135.241 72.4674 138.212 68.8174C139.009 67.8321 139.555 66.6687 139.804 65.4264L135.304 63.8814C135.102 64.4568 134.752 64.9691 134.29 65.3676C133.828 65.7661 133.27 66.037 132.671 66.1534C130.58 66.4274 128.571 64.2474 128.179 61.2824C128.041 60.2811 128.117 59.2617 128.404 58.2924L137.979 58.4224L139.033 58.3504C139.009 57.7804 138.811 53.7504 138.782 53.1444L127.212 54.1904L132.9 42.0904L127.426 41.3984C127.426 41.3984 122.354 48.0744 121.314 60.1694" fill="#E6D800"/>
<path d="M91.1412 82.9064C88.1602 89.0734 91.2412 96.7304 98.0252 100.006C104.809 103.282 112.725 100.942 115.702 94.7754C118.679 88.6084 115.602 80.9514 108.818 77.6754C102.034 74.3994 94.1182 76.7394 91.1412 82.9054M99.2052 81.3604C100.54 78.5974 104.799 77.8924 108.717 79.7864C112.635 81.6804 114.728 85.4544 113.392 88.2174C112.056 90.9804 107.799 91.6854 103.88 89.7914C99.9612 87.8974 97.8692 84.1234 99.2042 81.3604" fill="white"/>
</g>
<defs>
<clipPath id="clip0_20_2001">
<rect width="188" height="188" fill="white"/>
</clipPath>
</defs>
</svg>
