<svg width="188" height="188" viewBox="0 0 188 188" fill="none" xmlns="http://www.w3.org/2000/svg">
<g clip-path="url(#clip0_20_2004)">
<path d="M158.014 38L93.507 38.094L29 38.189L61.335 94.007L93.67 149.824L125.842 93.912L158.014 38Z" fill="#262425"/>
<path d="M58.5518 45.2773H45.9238V65.6943H58.5518V45.2773Z" fill="url(#paint0_linear_20_2004)"/>
<path d="M68.9479 45.2773H56.5879V65.6943H68.9479V45.2773Z" fill="url(#paint1_linear_20_2004)"/>
<path d="M124.332 45.2773H113.424V65.6943H124.332V45.2773Z" fill="url(#paint2_linear_20_2004)"/>
<path d="M83.8978 45.2773H63.8398V65.6943H83.8978V45.2773Z" fill="url(#paint3_linear_20_2004)"/>
<path d="M98.0417 52.957H84.6777V65.694H98.0417V52.957Z" fill="url(#paint4_linear_20_2004)"/>
<path d="M98.0417 45.2773H84.6777V50.4783H98.0417V45.2773Z" fill="url(#paint5_linear_20_2004)"/>
<path d="M112.244 52.957H98.8867V65.694H112.244V52.957Z" fill="url(#paint6_linear_20_2004)"/>
<path d="M112.244 45.2773H98.8867V50.4783H112.244V45.2773Z" fill="url(#paint7_linear_20_2004)"/>
<path d="M140.84 52.957H125.258V65.694H140.84V52.957Z" fill="url(#paint8_linear_20_2004)"/>
<path d="M143.677 45.2773H125.258V50.4783H143.677V45.2773Z" fill="url(#paint9_linear_20_2004)"/>
<path d="M48.5099 43.7855C46.4369 45.2695 46.3609 45.5375 47.4169 47.8625C45.9309 45.7865 45.6619 45.7155 43.3379 46.7625C45.4139 45.2845 45.4879 45.0065 44.4279 42.6865C45.9129 44.7625 46.1879 44.8345 48.5099 43.7805" fill="white"/>
<path d="M73.8565 43.7854C71.7795 45.2694 71.7085 45.5374 72.7635 47.8664C71.2825 45.7864 71.0085 45.7154 68.6875 46.7664C70.7645 45.2884 70.8365 45.0104 69.7785 42.6904C71.2605 44.7664 71.5355 44.8384 73.8565 43.7844" fill="white"/>
<path d="M66.334 43.7854C64.258 45.2694 64.187 45.5374 65.242 47.8664C63.762 45.7864 63.486 45.7154 61.166 46.7664C63.244 45.2884 63.316 45.0104 62.256 42.6904C63.739 44.7664 64.014 44.8384 66.334 43.7844" fill="white"/>
<path d="M87.2647 43.7854C85.1937 45.2694 85.1207 45.5374 86.1747 47.8664C84.6917 45.7864 84.4187 45.7154 82.0977 46.7664C84.1727 45.2884 84.2457 45.0104 83.1887 42.6904C84.6707 44.7664 84.9457 44.8384 87.2647 43.7844" fill="white"/>
<path d="M101.469 43.7854C99.393 45.2694 99.322 45.5374 100.369 47.8664C98.889 45.7864 98.618 45.7154 96.293 46.7664C98.37 45.2884 98.44 45.0104 97.385 42.6904C98.869 44.7664 99.145 44.8384 101.465 43.7844" fill="white"/>
<path d="M116.015 43.7854C113.938 45.2694 113.864 45.5374 114.915 47.8664C113.434 45.7864 113.161 45.7154 110.836 46.7664C112.911 45.2884 112.987 45.0104 111.93 42.6904C113.413 44.7664 113.685 44.8384 116.011 43.7844" fill="white"/>
<path d="M127.844 43.7854C125.769 45.2694 125.701 45.5374 126.754 47.8664C125.271 45.7864 125.001 45.7154 122.676 46.7674C124.75 45.2894 124.821 45.0114 123.767 42.6914C125.249 44.7674 125.519 44.8394 127.844 43.7854Z" fill="white"/>
<path d="M51.6707 46.7585C51.0577 47.2005 51.0367 47.2805 51.3477 47.9715C50.9097 47.3535 50.8287 47.3315 50.1387 47.6425C50.7537 47.2045 50.7757 47.1255 50.4637 46.4355C50.9007 47.0495 50.9867 47.0705 51.6707 46.7585Z" fill="white"/>
<path d="M50.7068 51.8837C50.0918 52.3227 50.0708 52.4017 50.3818 53.0837C49.9438 52.4687 49.8648 52.4527 49.1738 52.7637C49.7888 52.3217 49.8098 52.2417 49.4978 51.5557C49.9368 52.1707 50.0148 52.1917 50.7068 51.8787" fill="white"/>
<path d="M69.8602 55.2877C69.2442 55.7247 69.2232 55.8087 69.5362 56.4957C69.0982 55.8807 69.0162 55.8597 68.3262 56.1697C68.9402 55.7317 68.9622 55.6537 68.6512 54.9697C69.0892 55.5847 69.1682 55.6027 69.8602 55.2917" fill="white"/>
<path d="M74.825 47.4998C74.209 47.9378 74.189 48.0178 74.5 48.7068C74.062 48.0938 73.982 48.0738 73.291 48.3838C73.906 47.9458 73.931 47.8658 73.615 47.1758C74.053 47.7908 74.133 47.8108 74.825 47.4998Z" fill="white"/>
<path d="M80.7322 56.2253C80.1162 56.6673 80.0962 56.7533 80.4122 57.4393C79.9692 56.8243 79.8862 56.7993 79.1992 57.1153C79.8142 56.6723 79.8402 56.5933 79.5252 55.9023C79.9622 56.5203 80.0412 56.5423 80.7322 56.2253Z" fill="white"/>
<path d="M86.9353 54.1248C86.3253 54.5628 86.2983 54.6468 86.6123 55.3328C86.1733 54.7148 86.0923 54.6988 85.4023 55.0088C86.0173 54.5718 86.0423 54.4868 85.7273 53.8008C86.1673 54.4158 86.2483 54.4358 86.9353 54.1248Z" fill="white"/>
<path d="M96.5115 56.2176C95.8925 56.6546 95.8755 56.7346 96.1885 57.4266C95.7445 56.8106 95.6655 56.7906 94.9785 57.1006C95.5945 56.6636 95.6145 56.5836 95.3035 55.8936C95.7415 56.5086 95.8245 56.5296 96.5115 56.2176Z" fill="white"/>
<path d="M59.0116 53.4881C58.3926 53.9261 58.3716 54.0061 58.6836 54.6981C58.2446 54.0821 58.1666 54.0561 57.4746 54.3711C58.0946 53.9311 58.1106 53.8501 57.7986 53.1641C58.2416 53.7791 58.3216 53.8001 59.0116 53.4881Z" fill="white"/>
<path d="M63.3875 49.7576C62.7725 50.1946 62.7515 50.2756 63.0635 50.9666C62.6245 50.3506 62.5405 50.3256 61.8535 50.6426C62.4685 50.2036 62.4895 50.1236 62.1805 49.4346C62.6175 50.0486 62.7025 50.0696 63.3875 49.7576Z" fill="white"/>
<path d="M96.8533 49.2691C96.2383 49.7111 96.2173 49.7901 96.5303 50.4761C96.0913 49.8621 96.0073 49.8401 95.3203 50.1531C95.9353 49.7151 95.9553 49.6351 95.6453 48.9531C96.0833 49.5671 96.1623 49.5841 96.8533 49.2731" fill="white"/>
<path d="M103.317 48.0066C102.697 48.4436 102.679 48.5286 102.988 49.2146C102.551 48.5986 102.471 48.5776 101.781 48.8906C102.398 48.4526 102.415 48.3686 102.109 47.6816C102.547 48.2956 102.626 48.3166 103.317 48.0066Z" fill="white"/>
<path d="M88.2929 45.9666C87.6729 46.4046 87.6559 46.4886 87.9639 47.1766C87.5249 46.5596 87.4459 46.5406 86.7539 46.8516C87.3729 46.4146 87.3909 46.3296 87.0839 45.6436C87.5209 46.2586 87.6049 46.2796 88.2929 45.9666Z" fill="white"/>
<path d="M109.074 55.0291C108.459 55.4671 108.438 55.5511 108.754 56.2411C108.312 55.6231 108.231 55.6011 107.545 55.9171C108.155 55.4761 108.182 55.3901 107.866 54.7041C108.306 55.3191 108.388 55.3451 109.074 55.0291Z" fill="white"/>
<path d="M118.701 45.7439C118.085 46.1869 118.064 46.2679 118.38 46.9539C117.94 46.3389 117.856 46.3179 117.168 46.6289C117.787 46.1909 117.81 46.1069 117.496 45.4209C117.933 46.0349 118.014 46.0569 118.701 45.7439Z" fill="white"/>
<path d="M126.926 57.0994C126.311 57.5414 126.29 57.6224 126.602 58.3124C126.164 57.6984 126.085 57.6714 125.402 57.9884C126.019 57.5494 126.04 57.4664 125.723 56.7754C126.164 57.3894 126.246 57.4154 126.931 57.0994" fill="white"/>
<path d="M114.869 55.1102C114.254 55.5492 114.233 55.6322 114.546 56.3182C114.108 55.7032 114.028 55.6822 113.336 55.9932C113.95 55.5552 113.977 55.4762 113.662 54.7852C114.1 55.4002 114.181 55.4252 114.869 55.1102Z" fill="white"/>
<path d="M133.172 55.2137C132.552 55.6537 132.536 55.7317 132.842 56.4237C132.404 55.8047 132.321 55.7877 131.633 56.0947C132.252 55.6577 132.275 55.5777 131.962 54.8867C132.401 55.5057 132.48 55.5217 133.172 55.2137Z" fill="white"/>
<path d="M129.969 46.3855C129.36 46.8265 129.333 46.9075 129.651 47.5925C129.208 46.9785 129.129 46.9575 128.443 47.2675C129.058 46.8305 129.077 46.7515 128.766 46.0605C129.204 46.6785 129.284 46.6955 129.966 46.3855" fill="white"/>
<path d="M140.158 49.3523C139.543 49.7943 139.522 49.8753 139.832 50.5653C139.394 49.9503 139.315 49.9243 138.625 50.2413C139.239 49.7993 139.26 49.7183 138.95 49.0283C139.388 49.6433 139.466 49.6693 140.158 49.3523Z" fill="white"/>
<path d="M118.264 49.1395C117.649 49.5765 117.622 49.6575 117.939 50.3475C117.5 49.7325 117.419 49.7115 116.73 50.0235C117.346 49.5855 117.366 49.5055 117.054 48.8135C117.492 49.4295 117.571 49.4505 118.264 49.1395Z" fill="white"/>
<path d="M133.522 70.0856L131.702 72.6746L129.058 69.8326L129.247 69.0996L129.187 69.0366H134.001C134.058 68.9159 134.095 68.787 134.111 68.6546C133.249 68.441 132.362 68.3444 131.474 68.3676H56.7914C56.082 68.3602 55.3733 68.4151 54.6734 68.5316C54.5192 68.6793 54.3883 68.8495 54.2854 69.0366H59.1854L59.0734 69.1546L59.2534 69.8326L56.6054 72.6746L54.4814 69.6426V69.4786L54.2374 69.1336C53.9884 69.7146 54.2124 70.3676 54.7944 71.6476C54.0364 70.5856 53.5884 70.0556 53.0234 69.9256C53.0793 70.1533 53.1737 70.3697 53.3024 70.5656L92.0124 134.066C93.1764 135.938 95.0794 135.938 96.2414 134.066L134.951 70.5656C135.033 70.4295 135.097 70.2841 135.143 70.1326C134.901 69.9831 134.623 69.9 134.338 69.8917C134.053 69.8835 133.771 69.9504 133.52 70.0856M121.064 69.0366H126.687L129.613 71.9756L129.755 72.0946L129.399 72.6746H122.967L120.821 69.6426L121.106 69.0996L121.064 69.0366ZM112.264 69.0366H118.158L120.278 71.9426L120.414 72.0946L120.152 72.6746H113.715L112.107 69.6426L112.307 69.1206L112.264 69.0366ZM100.036 107.944V109.056H88.3474V107.944L88.3854 107.236H88.3014L88.7094 100.364H88.7514V100.352H99.6374V100.364H99.6684L100.068 107.236H100.001L100.036 107.944ZM79.1524 74.6676L77.8104 78.8996H70.2934L70.0534 77.9786L70.6894 76.9716L72.4574 73.7126H79.0944L79.0354 73.9026L79.1524 74.6676ZM75.7714 79.5856H82.6714L82.6014 79.8996L82.6924 80.8866L81.9714 84.6086H74.5554L74.3554 83.3446L74.8844 82.0976L75.7714 79.5856ZM102.206 79.8596L102.899 84.3116H85.4544L86.1494 79.8596H102.206ZM90.3424 77.9736L90.4314 77.1356L90.7404 73.7076H97.6334L97.8654 76.2516L98.0454 77.9736L98.0014 78.8996H90.3814L90.3424 77.9736ZM100.072 73.7076H106.572L107.396 77.4076L107.544 77.9686L107.414 78.8896H100.651L100.036 74.6626L100.087 73.8326L100.072 73.7076ZM98.7164 90.2626L98.6694 91.9796H89.7164L89.6744 90.2626L89.7404 89.0986L89.9264 85.1576H98.4444L98.5604 87.5996L98.7164 90.2626ZM88.2724 74.6626L87.6604 78.8996H80.9014L80.7724 77.9786L81.2904 76.0326L81.8084 73.7126H88.3084L88.2494 74.1416L88.2724 74.6626ZM79.3644 85.1526H87.2164L87.1584 85.8976L87.1964 86.9206L86.7964 91.9746H78.4164L78.2554 90.2576L78.8494 87.7346L79.3644 85.1526ZM84.5114 92.7326L93.1784 92.6946L93.2624 98.1316H93.1684L93.1814 99.9416H83.7154L83.6094 98.1316L84.3674 93.6716L84.5114 92.7326ZM95.1314 99.9416L95.1424 98.1316H95.1144L95.2014 92.6996L103.863 92.7376L104.478 96.7886L104.706 98.1366L104.599 99.9466L95.1314 99.9416ZM101.512 91.9746L101.112 86.9206L101.17 85.3506L101.158 85.1506H109.012L109.892 89.5506L110.052 90.2506L109.892 91.9676L101.512 91.9746ZM106.341 84.6056L105.62 80.8836L105.726 79.6696L105.709 79.5806H112.601L113.792 82.9666L113.952 83.3416L113.752 84.6056H106.341ZM110.495 78.8996L109.155 74.6726L109.302 73.7666L109.282 73.7126H115.918L118.078 77.6926L118.26 77.9786L118.016 78.8996H110.495ZM103.424 69.0416H109.282L110.789 71.8726L110.932 72.0996L110.764 72.6796H104.329L103.356 69.6476L103.464 69.1756L103.424 69.0416ZM100.885 69.0416L101.436 71.5416L101.587 72.0976L101.512 72.6776H95.8814L95.6154 69.6456L95.6344 69.4056L95.5994 69.0396L100.885 69.0416ZM87.4924 69.0416H92.7734L92.5014 72.0996H92.4794L92.4284 72.6796H86.8014L86.7244 72.0996L87.2304 70.2376L87.4924 69.0416ZM79.0924 69.0416H84.9514L84.8674 69.2946L84.9514 69.6476L83.9804 72.6796H77.5494L77.3814 72.0996L77.8954 71.2996L79.0924 69.0416ZM70.2144 69.0416H76.1144L76.0304 69.1976L76.2074 69.6476L74.6014 72.6746H68.1614L67.9014 72.0946L68.3724 71.5676L70.2144 69.0416ZM61.6884 69.0416H67.3114L67.2324 69.1556L67.4924 69.6476L65.3454 72.6796H58.9104L58.5524 72.0996L59.0414 71.6996L61.6884 69.0416ZM57.3724 73.8416L57.5524 73.9646L57.4624 73.8416H60.0364L59.9724 73.9136L60.2854 74.8066L58.8624 76.3566L57.3724 73.8416ZM59.1024 76.7846L59.3024 76.6846L62.4344 73.7126H69.7504L69.6864 73.8126L69.9014 74.6756L67.0884 78.8996H60.3754L59.1024 76.7846ZM61.1364 79.5896H64.0584L63.9874 79.6656L64.2734 80.8926L62.8014 82.4626L61.4624 80.4996L61.1364 79.5896ZM62.7824 82.4896H62.8824L62.8624 82.4646L65.5534 79.5876H73.2684L73.2054 79.7356L73.3904 80.8906L71.7824 84.6126H64.0014L62.7824 82.4896ZM65.2824 86.6206L64.6824 85.1636H66.8014L66.7254 85.2636L66.9854 86.9266L66.2244 88.1906L65.2824 86.6206ZM67.2194 89.8886L66.7414 88.3566L67.2994 87.5386L68.6624 85.1636H76.4014L76.3344 85.3986L76.4894 86.9316L75.0894 91.9856H68.5834L67.2194 89.8886ZM69.7194 93.8296L69.5804 92.7486L81.0304 92.6996H81.1244L81.0614 93.0626L81.1614 94.5626L80.2274 99.9446H73.5404L69.7194 93.8296ZM74.6554 101.77L74.5124 100.37H85.7284L85.6714 101.09L85.7244 102.256L85.1884 109.062H79.1194L74.6554 101.77ZM80.9214 111.864L80.7914 110.074H92.3644L92.0954 118.496H92.0734L92.0234 120.201H86.1314L80.9214 111.864ZM100.486 122.727C100.486 122.727 97.8984 127.266 96.5584 129.227C96.3452 129.669 96.0116 130.042 95.5959 130.303C95.1802 130.564 94.6993 130.702 94.2084 130.702C93.7176 130.702 93.2367 130.564 92.821 130.303C92.4053 130.042 92.0717 129.669 91.8584 129.227C90.5204 127.264 87.9284 122.727 87.9284 122.727L87.8704 120.874L87.8424 120.827H100.551L100.486 122.727ZM107.378 111.858L102.178 120.195H96.2784L96.0104 111.066L96.0194 110.583L96.0024 110.068H107.512L107.378 111.858ZM113.648 101.764L109.193 109.056H103.119L102.586 102.25L102.66 100.584L102.645 100.364H113.792L113.648 101.764ZM118.584 93.8236L114.773 99.9466H108.08L107.146 94.5646L107.267 92.8086L107.251 92.6996H107.276L118.722 92.7426L118.584 93.8236ZM121.084 89.8826L119.724 91.9826H113.224L111.824 86.9286L111.997 85.2286L111.976 85.1576H119.715L121.422 88.1346L121.568 88.3506L121.084 89.8826ZM123.022 86.6146L122.082 88.1896L121.32 86.9256L121.589 85.1906L121.569 85.1576H123.623L123.022 86.6146ZM126.846 80.4996L125.51 82.4656L125.494 82.4906H125.528L124.311 84.6106H116.529L114.929 80.8886L115.129 79.6326L115.111 79.5856H122.831L124.045 80.8856L124.339 79.6096L124.317 79.5886H127.176L126.846 80.4996ZM127.94 78.8996H121.22L118.408 74.6726L118.643 73.7376L118.625 73.7126H125.94L129.15 76.7616L129.208 76.7856L127.94 78.8996ZM129.449 76.3576L128.021 74.7996L128.353 73.8556L128.331 73.8346H130.91L130.886 73.8676L130.931 73.8346L129.449 76.3576Z" fill="white"/>
<path d="M71.6444 83.3469L73.2004 79.7339L73.2644 79.5859H65.5514L62.8594 82.4629L62.8804 82.4879L63.5974 83.3469H71.6444ZM68.7444 80.8889C68.6744 81.0989 68.3024 81.2709 67.9144 81.2709C67.5264 81.2709 67.2694 81.0989 67.3474 80.8889L67.3374 80.6939H67.3554C67.3472 80.6653 67.3455 80.6353 67.3504 80.6059C67.4264 80.3949 67.7934 80.2309 68.1804 80.2309C68.5674 80.2309 68.8164 80.3949 68.7524 80.6059L68.7444 80.6129V80.8889Z" fill="white"/>
<path d="M81.9373 83.346L82.6013 79.9L82.6673 79.584H75.7673L74.8853 82.1L74.4453 83.346H81.9373ZM79.3863 80.606V80.889C79.3403 81.099 78.9943 81.271 78.6083 81.271C78.2223 81.271 77.9383 81.099 77.9843 80.889L77.9893 80.664H78.0013C77.9963 80.643 77.9843 80.627 77.9913 80.606C78.0333 80.395 78.3833 80.231 78.7623 80.231C79.1413 80.231 79.4273 80.395 79.3863 80.606Z" fill="white"/>
<path d="M63.9892 79.6619L64.0602 79.5859H61.2012L62.3632 81.3859L63.9892 79.6619Z" fill="white"/>
<path d="M66.7275 85.2611L66.8035 85.1611H64.7695L65.7175 86.7531L66.7275 85.2611Z" fill="white"/>
<path d="M59.9748 73.9099L60.0388 73.8379H57.4648L57.5548 73.9609L58.6008 75.3999L59.9748 73.9099Z" fill="white"/>
<path d="M68.254 90.2612H74.982L76.336 85.3922L76.402 85.1572H68.665L67.3 87.5322L66.832 88.3502L68.254 90.2612ZM71.904 87.1862C71.833 87.4312 71.418 87.6332 70.986 87.6332C70.554 87.6332 70.258 87.4332 70.333 87.1862V86.8502H70.342C70.342 86.8382 70.342 86.8282 70.342 86.8162C70.417 86.5722 70.83 86.3782 71.258 86.3782C71.642 86.3782 71.902 86.5342 71.913 86.7402V86.7832C71.914 86.7942 71.914 86.8052 71.913 86.8162V86.8252L71.904 87.1862Z" fill="white"/>
<path d="M86.8096 90.2612L87.1576 85.9022L87.2156 85.1572H79.3636L78.8496 87.7392L78.3496 90.2612H86.8096ZM84.0476 87.1862C84.0086 87.4312 83.6296 87.6332 83.1906 87.6332C82.7516 87.6332 82.4336 87.4332 82.4716 87.1862L82.4896 86.8542C82.4896 86.8422 82.4796 86.8332 82.4836 86.8162C82.5226 86.5722 82.9046 86.3782 83.3386 86.3782C83.7726 86.3782 84.0886 86.5722 84.0546 86.8162C84.0546 86.8282 84.0426 86.8382 84.0426 86.8502L84.0476 87.1862Z" fill="white"/>
<path d="M73.1689 98.1362H80.1759L81.0609 93.0622L81.1239 92.6992H81.0299L69.6719 92.7422L73.1689 98.1362ZM74.6889 94.4552C74.7699 94.1552 75.2409 93.9112 75.7419 93.9112C76.1999 93.9112 76.5169 94.1112 76.5209 94.3752H76.5279V94.4342C76.5279 94.4422 76.5339 94.4472 76.5279 94.4552L76.5209 94.9192C76.4539 95.2192 75.9829 95.4752 75.4669 95.4752C74.9509 95.4752 74.6049 95.2222 74.6849 94.9192L74.6729 94.5192H74.6959C74.6915 94.4955 74.6892 94.4714 74.6889 94.4472" fill="white"/>
<path d="M93.1683 98.1362H93.2613L93.1773 92.6992L84.5103 92.7372L84.3673 93.6762L83.6973 98.1362H93.1683ZM88.8403 94.9232C88.8183 95.2232 88.3873 95.4792 87.8753 95.4792C87.3633 95.4792 86.9683 95.2262 86.9983 94.9232L86.9813 94.4972H87.0193C87.0117 94.4861 87.0088 94.4724 87.0113 94.4592C87.0373 94.1592 87.4653 93.9162 87.9723 93.9162C88.4793 93.9162 88.8723 94.1612 88.8473 94.4592C88.8473 94.4762 88.8303 94.4942 88.8303 94.5102L88.8403 94.9232Z" fill="white"/>
<path d="M92.0738 118.489H92.0958L92.3658 110.066H80.8848L86.3348 118.489H92.0738ZM86.6418 112.432C86.6948 111.982 87.2568 111.62 87.9138 111.62C88.5048 111.62 88.9538 111.92 89.0138 112.311H89.0208V112.354C89.0208 112.381 89.0378 112.404 89.0378 112.432C89.0329 112.445 89.0272 112.458 89.0208 112.47L89.0328 113.135C88.9958 113.595 88.4258 113.974 87.7578 113.974C87.0898 113.974 86.5908 113.595 86.6378 113.135C86.6529 112.909 86.6509 112.681 86.6318 112.454H86.6448L86.6418 112.432Z" fill="white"/>
<path d="M85.1846 107.235L85.6726 101.083L85.7286 100.363H74.6016L79.0526 107.235H85.1846ZM79.9706 102.524C80.0346 102.157 80.5566 101.869 81.1306 101.869C81.6526 101.869 82.0306 102.111 82.0466 102.431H82.0516V102.478C82.0466 102.494 82.0646 102.507 82.0586 102.524L82.0516 102.536L82.0466 103.098C81.9886 103.467 81.4696 103.77 80.8846 103.77C80.2996 103.77 79.9586 103.4 79.9586 103.098L79.9706 102.545C79.9706 102.536 79.9706 102.533 79.9706 102.524Z" fill="white"/>
<path d="M60.1224 77.9721H66.9064L69.6844 73.8041L69.7504 73.7041H62.4334L59.3004 76.6791L59.1914 76.7791L60.1224 77.9721ZM63.9294 75.6141C63.9294 75.7531 63.5244 75.9431 63.1794 75.9431C62.8344 75.9431 62.6794 75.7941 62.6794 75.6141L62.6724 75.4621H62.6874C62.6834 75.4416 62.6834 75.4206 62.6874 75.4001C62.7584 75.2221 63.0874 75.0841 63.4384 75.0841C63.7894 75.0841 64.0014 75.2221 63.9304 75.4001L63.9294 75.6141Z" fill="white"/>
<path d="M72.4575 73.708L70.6885 76.967L70.1445 77.974H77.7375L79.0375 73.898L79.0965 73.708H72.4575ZM74.7575 75.397L74.7505 75.615C74.7505 75.751 74.3915 75.944 74.0505 75.944C73.7095 75.944 73.5125 75.751 73.5125 75.615V75.456H73.5285C73.5285 75.435 73.5125 75.417 73.5195 75.397C73.5625 75.22 73.8835 75.081 74.2195 75.081C74.5405 75.081 74.7575 75.203 74.7535 75.363V75.4L74.7575 75.397Z" fill="white"/>
<path d="M81.8015 73.708L81.2835 76.027L80.8535 77.973H87.6845L88.2405 74.137L88.2995 73.708H81.8015ZM84.7015 75.615C84.6755 75.795 84.3805 75.944 84.0365 75.944C83.6925 75.944 83.4365 75.795 83.4545 75.615V75.438H83.4755C83.4755 75.421 83.4625 75.409 83.4675 75.397C83.4935 75.219 83.7875 75.081 84.1285 75.081C84.4695 75.081 84.7285 75.219 84.7095 75.397L84.7015 75.409C84.7166 75.4768 84.7166 75.5472 84.7015 75.615Z" fill="white"/>
<path d="M54.4842 69.4772L56.3172 72.0932L59.0752 69.1532L59.1882 69.0352H54.2882C54.2732 69.0702 54.2602 69.0982 54.2422 69.1352L54.4842 69.4772Z" fill="white"/>
<path d="M65.1426 72.0931L67.2316 69.1491L67.3106 69.0361H61.6896L59.0406 71.6921L58.6406 72.0921L65.1426 72.0931ZM63.2256 70.3081C63.1672 70.3785 63.0925 70.4335 63.0079 70.4683C62.9234 70.5032 62.8316 70.5168 62.7406 70.5081C62.5236 70.5081 62.4206 70.4151 62.4206 70.3081C62.4206 70.2561 62.4206 70.2081 62.4206 70.2081H62.4556C62.4486 70.1911 62.4296 70.1781 62.4316 70.1621C62.4903 70.0921 62.565 70.0373 62.6495 70.0024C62.734 69.9676 62.8256 69.9538 62.9166 69.9621C63.1166 69.9621 63.2286 70.0391 63.2236 70.1311C63.2269 70.1408 63.2289 70.1509 63.2296 70.1611C63.2375 70.2118 63.2347 70.2636 63.2216 70.3131" fill="white"/>
<path d="M74.4864 72.0931L76.0294 69.1931L76.1144 69.0381H70.2144L68.3704 71.5681L67.9824 72.0951L74.4864 72.0931ZM72.5004 70.3081C72.5004 70.4171 72.2654 70.5081 72.0424 70.5081C71.8194 70.5081 71.6964 70.4151 71.6964 70.3081V70.1991H71.7264C71.7264 70.1861 71.7004 70.1771 71.7034 70.1611C71.7374 70.0521 71.9444 69.9611 72.1634 69.9611C72.3634 69.9611 72.4894 70.0381 72.4924 70.1301V70.1351C72.4924 70.1421 72.5114 70.1511 72.5064 70.1601L72.4924 70.1721L72.5004 70.3081Z" fill="white"/>
<path d="M83.9687 72.0931L84.8687 69.2881L84.9537 69.0361H79.0947L77.8947 71.2971L77.4707 72.0971L83.9687 72.0931ZM81.5377 70.3081C81.5147 70.4171 81.3227 70.5081 81.0997 70.5081C80.8767 70.5081 80.7117 70.4151 80.7337 70.3081V70.1721H80.7517C80.7517 70.1651 80.7337 70.1591 80.7397 70.1561C80.7587 70.0471 80.9547 69.9561 81.1777 69.9561C81.4007 69.9561 81.5597 70.0461 81.5427 70.1561L81.5297 70.1681L81.5377 70.3081Z" fill="white"/>
<path d="M92.4785 72.0931H92.5015L92.7745 69.0361H87.4925L87.2265 70.2311L86.8105 72.0931H92.4785ZM89.9016 70.3081C89.9016 70.4171 89.7135 70.5081 89.4885 70.5081C89.2635 70.5081 89.0945 70.4151 89.0985 70.3081L89.1115 70.1721H89.1175C89.1175 70.1651 89.1115 70.1591 89.1115 70.1561C89.1115 70.0471 89.3035 69.9561 89.5225 69.9561C89.7415 69.9561 89.9225 70.0461 89.9145 70.1561L89.9016 70.1681V70.3081Z" fill="white"/>
<path d="M89.9266 85.1572L89.7416 89.0992L89.6816 90.2622H98.6906L98.5606 87.6002L98.4446 85.1582L89.9266 85.1572ZM94.9876 87.1862C94.9876 87.4312 94.6356 87.6332 94.1966 87.6332C93.7576 87.6332 93.4096 87.4332 93.4176 87.1862L93.4256 86.8132C93.4376 86.5722 93.7896 86.3782 94.2166 86.3782C94.6436 86.3782 94.9966 86.5722 94.9966 86.8162C94.9966 86.8382 94.9806 86.8542 94.9806 86.8752L94.9876 87.1862Z" fill="white"/>
<path d="M122.824 79.585H115.105L115.123 79.632L116.73 83.346H124.778L125.494 82.487L125.51 82.462L124.038 80.883L122.824 79.585ZM120.849 80.862C120.921 81.068 120.662 81.241 120.274 81.241C119.886 81.241 119.518 81.068 119.45 80.862V80.482H119.463C119.506 80.335 119.724 80.23 120.031 80.23C120.414 80.23 120.786 80.394 120.857 80.606C120.868 80.6291 120.872 80.6543 120.871 80.6795C120.871 80.7048 120.864 80.7295 120.852 80.752L120.849 80.862Z" fill="white"/>
<path d="M113.931 83.346L113.795 82.972L112.601 79.585H105.709L105.726 79.674L106.437 83.346H113.931ZM110.216 80.862C110.262 81.068 109.984 81.241 109.596 81.241C109.208 81.241 108.86 81.068 108.818 80.862L108.809 80.58H108.825C108.814 80.38 109.079 80.23 109.448 80.23C109.833 80.23 110.183 80.394 110.224 80.606C110.232 80.63 110.216 80.652 110.216 80.672V80.862Z" fill="white"/>
<path d="M124.312 79.5859L124.334 79.6069L126.015 81.3889L127.172 79.5889H124.312V79.5859Z" fill="white"/>
<path d="M123.6 85.1562H121.574L121.593 85.1903L122.659 86.7482L123.6 85.1562Z" fill="white"/>
<path d="M130.885 73.8709L130.909 73.8379H128.33L128.352 73.8589L129.776 75.4039L130.885 73.8709Z" fill="white"/>
<path d="M120.12 90.2612L121.54 88.3503L121.418 88.1332L119.712 85.1562H111.973L111.994 85.2282L113.387 90.2612H120.12ZM117.864 87.1522C117.936 87.4002 117.645 87.6042 117.211 87.6042C116.777 87.6042 116.365 87.4042 116.293 87.1522L116.284 86.7113H116.305C116.334 86.5183 116.587 86.3742 116.955 86.3742C117.383 86.3742 117.796 86.5672 117.871 86.8122C117.888 86.8647 117.885 86.9215 117.864 86.9722V87.1522Z" fill="white"/>
<path d="M110.026 90.2611L109.892 89.5611L109.012 85.1611H101.158L101.17 85.3611L101.562 90.2671L110.026 90.2611ZM105.726 87.1521C105.765 87.4001 105.445 87.6041 105.004 87.6041C104.563 87.6041 104.188 87.4041 104.151 87.1521L104.159 86.7111H104.181C104.235 86.5181 104.513 86.3741 104.875 86.3741C105.309 86.3741 105.692 86.5671 105.73 86.8121C105.734 86.8441 105.728 86.8765 105.713 86.9051L105.726 87.1521Z" fill="white"/>
<path d="M115.206 98.1362L118.698 92.7362L107.276 92.6992H107.252L107.268 92.8082L108.199 98.1362H115.206ZM112.469 93.9112C112.975 93.9112 113.447 94.1572 113.523 94.4552C113.523 94.4682 113.517 94.4842 113.517 94.4972H113.523L113.513 94.8972C113.59 95.2052 113.24 95.4522 112.73 95.4522C112.22 95.4522 111.744 95.2052 111.672 94.8972V94.3502H111.697C111.723 94.1052 112.035 93.9152 112.472 93.9152" fill="white"/>
<path d="M104.475 96.7882L103.86 92.7372L95.2002 92.6992L95.1152 98.1362H104.675L104.475 96.7882ZM101.19 94.8992C101.225 95.2062 100.832 95.4542 100.318 95.4542C99.8042 95.4542 99.3742 95.2062 99.3532 94.8992L99.3632 94.4642C99.3632 94.4642 99.3632 94.4642 99.3632 94.4562V94.4182H99.3712C99.3932 94.1402 99.7542 93.9182 100.236 93.9182C100.736 93.9182 101.17 94.1632 101.2 94.4612L101.195 94.4742H101.207L101.19 94.8992Z" fill="white"/>
<path d="M102.038 118.489L107.488 110.067H96.0078L96.0248 110.582L96.2818 118.489H102.038ZM99.1788 112.282H99.2078C99.2893 112.066 99.4412 111.882 99.6393 111.762C99.8373 111.642 100.07 111.592 100.3 111.62C100.957 111.62 101.525 111.982 101.571 112.432C101.571 112.459 101.56 112.479 101.56 112.5C101.542 112.703 101.542 112.907 101.56 113.109C101.606 113.565 101.106 113.945 100.44 113.945C99.7738 113.945 99.2048 113.565 99.1638 113.109L99.1788 112.282Z" fill="white"/>
<path d="M109.319 107.235L113.766 100.364H102.645L102.66 100.583L103.187 107.235H109.319ZM107.082 101.869C107.658 101.869 108.182 102.157 108.245 102.524C108.246 102.57 108.239 102.616 108.224 102.659L108.236 103.067C108.236 103.367 107.887 103.737 107.307 103.737C106.727 103.737 106.207 103.437 106.147 103.067V102.406H106.174C106.211 102.099 106.579 101.869 107.082 101.869Z" fill="white"/>
<path d="M128.252 77.973L129.183 76.781L129.15 76.757L125.94 73.708H118.625L118.643 73.733L121.467 77.973H128.252ZM125.51 75.586C125.51 75.766 125.359 75.914 125.01 75.914C124.661 75.914 124.267 75.728 124.267 75.586L124.257 75.333H124.275C124.275 75.19 124.475 75.081 124.775 75.081C125.116 75.081 125.452 75.219 125.52 75.397C125.53 75.4171 125.536 75.4394 125.536 75.462C125.536 75.4846 125.53 75.5069 125.52 75.527L125.51 75.586Z" fill="white"/>
<path d="M118.23 77.973L118.077 77.688L115.918 73.708H109.281L109.302 73.762L110.637 77.973H118.23ZM114.688 75.586C114.688 75.716 114.488 75.914 114.145 75.914C113.802 75.914 113.445 75.72 113.445 75.586L113.435 75.333H113.462C113.486 75.19 113.692 75.081 113.995 75.081C114.337 75.081 114.648 75.219 114.695 75.397C114.698 75.4227 114.694 75.4488 114.682 75.472L114.688 75.586Z" fill="white"/>
<path d="M107.521 77.9729L107.398 77.4129L106.574 73.7129H100.074L100.089 73.8429L100.689 77.9779L107.521 77.9729ZM104.737 75.5859C104.763 75.7659 104.502 75.9139 104.156 75.9139C103.81 75.9139 103.512 75.7659 103.491 75.5859C103.47 75.4059 103.496 75.3539 103.496 75.3539H103.512C103.532 75.1989 103.766 75.0809 104.082 75.0809C104.421 75.0809 104.721 75.2189 104.745 75.3969C104.745 75.408 104.742 75.4189 104.737 75.4289V75.5859Z" fill="white"/>
<path d="M129.188 69.0361L129.247 69.0981L132.059 72.0981L133.45 70.1111C133.138 70.2241 132.798 70.3661 132.371 70.5611C133.024 70.1853 133.582 69.6634 134.001 69.0361H129.188Z" fill="white"/>
<path d="M129.732 72.0931L129.613 71.9751L126.686 69.0361H121.064L121.106 69.0981L123.232 72.0981L129.732 72.0931ZM125.776 70.1781C125.776 70.1781 125.776 70.2271 125.776 70.2781C125.776 70.3881 125.676 70.4781 125.455 70.4781C125.364 70.4867 125.273 70.4729 125.188 70.4381C125.104 70.4032 125.029 70.3483 124.97 70.2781C124.955 70.2187 124.955 70.1565 124.97 70.0971H125.008C125.03 70.0161 125.131 69.9541 125.308 69.9541C125.398 69.9461 125.489 69.9601 125.572 69.9949C125.656 70.0298 125.729 70.0844 125.786 70.1541C125.786 70.1631 125.778 70.1671 125.778 70.1761L125.776 70.1781Z" fill="white"/>
<path d="M120.388 72.0931L120.277 71.9411L118.156 69.0361H112.262L112.311 69.1191L113.886 72.0931H120.388ZM116.502 70.2781C116.502 70.3881 116.384 70.4781 116.157 70.4781C115.93 70.4781 115.698 70.3861 115.698 70.2781L115.702 70.0991H115.737C115.765 70.0181 115.871 69.9561 116.048 69.9561C116.267 69.9561 116.476 70.0451 116.507 70.1561L116.497 70.1681L116.502 70.2781Z" fill="white"/>
<path d="M110.902 72.0931L110.786 71.8661L109.28 69.0361H103.426L103.466 69.1701L104.405 72.0931H110.902ZM107.46 70.2781C107.482 70.3881 107.315 70.4781 107.092 70.4781C106.869 70.4781 106.675 70.3861 106.655 70.2781L106.663 70.1261H106.685C106.702 70.0341 106.832 69.9581 107.03 69.9581C107.244 69.9581 107.422 70.0421 107.453 70.1441C107.46 70.1441 107.467 70.1491 107.467 70.1531C107.467 70.1571 107.453 70.1621 107.453 70.1691L107.46 70.2781Z" fill="white"/>
<path d="M95.8726 72.0931H101.562L101.437 71.5371L100.886 69.0371H95.6016L95.6356 69.4031L95.8726 72.0931ZM99.1016 70.2781C99.1096 70.3881 98.9366 70.4781 98.7136 70.4781C98.4906 70.4781 98.3056 70.3861 98.3006 70.2781V70.1141H98.3346C98.3733 70.0566 98.4273 70.011 98.4906 69.9825C98.5539 69.9541 98.6238 69.9439 98.6926 69.9531C98.9156 69.9531 99.1016 70.0421 99.1096 70.1531C99.1096 70.1621 99.0966 70.1651 99.0936 70.1751L99.1016 70.2781Z" fill="white"/>
<path d="M99.6678 100.363H88.7098L88.3008 107.235H100.072L99.6678 100.363ZM95.1398 103.099C95.1398 103.468 94.6678 103.771 94.0838 103.771C93.4998 103.771 93.0378 103.471 93.0518 103.099V102.521H93.0578C93.0668 102.157 93.5408 101.87 94.1118 101.87C94.6348 101.87 95.0428 102.111 95.1118 102.432V102.445C95.1246 102.47 95.1331 102.497 95.1368 102.525C95.1368 102.546 95.1218 102.568 95.1218 102.59L95.1398 103.099Z" fill="white"/>
<path d="M94.1798 128.524C94.6623 128.554 95.1432 128.445 95.5657 128.21C95.9883 127.975 96.3349 127.624 96.5648 127.199L100.526 120.823H87.8398L87.8678 120.87L91.8068 127.199C92.0345 127.624 92.379 127.974 92.7996 128.208C93.2202 128.443 93.6992 128.552 94.1798 128.522M94.1498 121.231C94.4402 121.211 94.73 121.278 94.982 121.424C95.2341 121.569 95.437 121.787 95.5648 122.048H95.5718C95.5718 122.048 95.5718 122.079 95.5718 122.092C95.6079 122.173 95.6319 122.259 95.6428 122.347C95.6339 122.393 95.6215 122.438 95.6058 122.482C95.6188 122.675 95.6318 122.912 95.6318 123.182C95.5769 123.534 95.3876 123.851 95.1037 124.067C94.8199 124.282 94.4637 124.379 94.1098 124.337C93.2718 124.337 92.6098 123.819 92.6228 123.182C92.6288 122.833 92.6008 122.182 92.6008 122.182L92.6828 122.176C92.7908 121.881 92.9924 121.63 93.2568 121.46C93.5211 121.291 93.8338 121.212 94.1468 121.237" fill="white"/>
<path d="M98.0205 77.973L97.8655 76.251L97.6335 73.708H90.7405L90.4325 77.135L90.3535 77.973H98.0205ZM94.7825 75.615C94.7825 75.795 94.5045 75.944 94.1595 75.944C93.8145 75.944 93.5415 75.795 93.5415 75.615V75.409H93.5575C93.5575 75.404 93.5485 75.4 93.5485 75.397C93.5485 75.219 93.8345 75.081 94.1765 75.081C94.5185 75.081 94.7945 75.219 94.7945 75.397C94.7945 75.409 94.7825 75.417 94.7825 75.429V75.615Z" fill="white"/>
<path d="M94.1252 123.493C94.4506 123.522 94.7763 123.438 95.0466 123.254C95.317 123.071 95.5154 122.799 95.6082 122.486C95.6239 122.442 95.6362 122.397 95.6452 122.351C95.6347 122.263 95.6108 122.177 95.5742 122.096C95.5723 122.081 95.5693 122.066 95.5652 122.052C95.4373 121.79 95.2342 121.573 94.9819 121.427C94.7297 121.282 94.4397 121.215 94.1492 121.235C93.8361 121.21 93.5237 121.289 93.2594 121.458C92.9951 121.628 92.7934 121.879 92.6852 122.174C92.662 122.231 92.6452 122.29 92.6352 122.351C92.6162 122.979 93.2832 123.493 94.1252 123.493Z" fill="white"/>
<path d="M87.7669 113.258C88.0336 113.288 88.3026 113.226 88.5298 113.083C88.757 112.94 88.929 112.724 89.0179 112.471C89.0179 112.459 89.0299 112.447 89.0339 112.432C89.0379 112.417 89.0179 112.382 89.0179 112.354C89.0163 112.34 89.0136 112.325 89.0099 112.311C88.9539 111.924 88.5039 111.62 87.9099 111.62C87.2529 111.62 86.6909 111.982 86.6379 112.432V112.454C86.6099 112.897 87.1029 113.254 87.7639 113.254" fill="white"/>
<path d="M95.1175 102.444C95.1191 102.44 95.1191 102.435 95.1175 102.431C95.0465 102.11 94.6375 101.868 94.1175 101.868C93.5465 101.868 93.0735 102.156 93.0645 102.52C93.0575 102.882 93.5155 103.181 94.1005 103.181C94.6445 103.181 95.0745 102.916 95.1335 102.581C95.1335 102.559 95.1485 102.538 95.1485 102.517C95.1448 102.489 95.1367 102.462 95.1245 102.437" fill="white"/>
<path d="M80.9005 103.185C81.4725 103.185 81.9845 102.894 82.0545 102.536L82.0615 102.524C82.0675 102.507 82.0495 102.494 82.0545 102.478C82.0595 102.462 82.0495 102.449 82.0495 102.431C82.0295 102.111 81.6555 101.869 81.1325 101.869C80.5595 101.869 80.0375 102.157 79.9735 102.524C79.9735 102.534 79.9735 102.536 79.9735 102.545C79.9335 102.9 80.3325 103.185 80.9005 103.185Z" fill="white"/>
<path d="M75.4785 94.999C75.9785 94.999 76.4555 94.759 76.5265 94.459C76.5315 94.451 76.5265 94.446 76.5265 94.438C76.5265 94.43 76.5185 94.4 76.5185 94.379C76.5185 94.118 76.1985 93.915 75.7395 93.915C75.2395 93.915 74.7675 94.161 74.6875 94.459C74.6878 94.4832 74.6901 94.5073 74.6945 94.531C74.6875 94.795 75.0045 95.003 75.4755 95.003" fill="white"/>
<path d="M71.9112 86.7839V86.7409C71.9012 86.5349 71.6402 86.3789 71.2572 86.3789C70.8282 86.3789 70.4152 86.5729 70.3402 86.8169C70.3402 86.8289 70.3402 86.8389 70.3402 86.8509C70.2982 87.0779 70.5722 87.2589 70.9872 87.2589C71.4232 87.2589 71.8302 87.0659 71.9072 86.8259V86.8169C71.9087 86.806 71.9087 86.7949 71.9072 86.7839" fill="white"/>
<path d="M83.3394 86.379C82.9044 86.379 82.5224 86.573 82.4824 86.817C82.4824 86.834 82.4894 86.843 82.4894 86.855C82.4894 87.082 82.7894 87.255 83.2014 87.255C83.6134 87.255 83.9744 87.074 84.0424 86.847C84.0424 86.835 84.0534 86.825 84.0534 86.813C84.0894 86.569 83.7674 86.375 83.3394 86.375" fill="white"/>
<path d="M94.2168 86.379C93.7898 86.379 93.4378 86.573 93.4258 86.814C93.4258 87.059 93.7718 87.256 94.2098 87.256C94.6048 87.256 94.9258 87.088 94.9798 86.873C94.9798 86.852 94.9968 86.836 94.9968 86.814C94.9968 86.57 94.6518 86.376 94.2168 86.376" fill="white"/>
<path d="M68.1826 80.2295C67.7956 80.2295 67.4286 80.3935 67.3526 80.6045C67.346 80.6335 67.346 80.6635 67.3526 80.6925C67.3736 80.8565 67.5926 80.9795 67.9196 80.9795C68.0766 80.9943 68.2347 80.9682 68.3787 80.9039C68.5228 80.8396 68.6477 80.7393 68.7416 80.6125L68.7506 80.6045C68.8136 80.3935 68.5616 80.2295 68.1776 80.2295" fill="white"/>
<path d="M78.7614 80.2295C78.3824 80.2295 78.0334 80.3935 77.9904 80.6045C77.9834 80.6255 77.9954 80.6415 78.0004 80.6635C78.0174 80.8405 78.2624 80.9795 78.6104 80.9795C78.9934 80.9795 79.3384 80.8095 79.3854 80.6045C79.4324 80.3995 79.1494 80.2295 78.7614 80.2295Z" fill="white"/>
<path d="M63.4411 75.0801C63.0941 75.0801 62.7611 75.2191 62.6901 75.3961C62.6866 75.4169 62.6866 75.4382 62.6901 75.4591C62.6901 75.6051 62.8851 75.7201 63.1901 75.7201C63.3303 75.7334 63.4716 75.711 63.6008 75.6551C63.73 75.5991 63.8429 75.5114 63.9291 75.4001C64.0001 75.2231 63.7771 75.0841 63.4371 75.0841" fill="white"/>
<path d="M74.2224 75.0801C73.8824 75.0801 73.5614 75.2191 73.5224 75.3961C73.5154 75.4161 73.5224 75.4331 73.5314 75.4551C73.5444 75.6011 73.7584 75.7201 74.0634 75.7201C74.4044 75.7201 74.7174 75.5771 74.7634 75.3961V75.3871C74.7694 75.3781 74.7634 75.3701 74.7634 75.3621C74.7634 75.2011 74.5504 75.0801 74.2294 75.0801" fill="white"/>
<path d="M84.1327 75.0801C83.7907 75.0801 83.4957 75.2191 83.4707 75.3961C83.4707 75.4081 83.4707 75.4201 83.4787 75.4371C83.4957 75.5941 83.7327 75.7201 84.0497 75.7201C84.3837 75.7201 84.6707 75.5801 84.7047 75.4081C84.7047 75.4031 84.7127 75.4001 84.7127 75.3961C84.7347 75.2191 84.4767 75.0801 84.1327 75.0801Z" fill="white"/>
<path d="M94.1749 75.0801C93.8339 75.0801 93.5519 75.2191 93.5469 75.3961C93.5469 75.3961 93.5559 75.4031 93.5559 75.4081C93.5649 75.5801 93.8299 75.7201 94.1669 75.7201C94.5039 75.7201 94.7469 75.5891 94.7809 75.4281C94.7809 75.4161 94.7939 75.4081 94.7939 75.3961C94.7939 75.2191 94.5159 75.0801 94.1749 75.0801Z" fill="white"/>
<path d="M62.7556 70.3584C62.9736 70.3584 63.1906 70.2694 63.2356 70.1584C63.2426 70.1464 63.2256 70.1414 63.2256 70.1284C63.2256 70.0364 63.1166 69.9604 62.9176 69.9604C62.8267 69.952 62.7352 69.9658 62.6509 70.0006C62.5665 70.0355 62.492 70.0903 62.4336 70.1604C62.4336 70.1764 62.4506 70.1894 62.4566 70.2064C62.4636 70.2904 62.5686 70.3624 62.7566 70.3624" fill="white"/>
<path d="M72.4931 70.132V70.127C72.4931 70.035 72.3671 69.959 72.1641 69.959C71.9611 69.959 71.7391 70.048 71.7051 70.159C71.7051 70.175 71.7271 70.184 71.7271 70.197C71.7441 70.289 71.8571 70.361 72.0521 70.361C72.1361 70.3701 72.221 70.3575 72.2987 70.3244C72.3765 70.2913 72.4444 70.2388 72.4961 70.172C72.4961 70.172 72.5051 70.163 72.5091 70.159C72.5131 70.155 72.4961 70.141 72.4961 70.134" fill="white"/>
<path d="M81.1792 69.959C80.9562 69.959 80.7602 70.048 80.7412 70.159C80.7362 70.159 80.7532 70.168 80.7532 70.175C80.7532 70.275 80.8962 70.361 81.1072 70.361C81.3182 70.361 81.5002 70.278 81.5312 70.172C81.5312 70.172 81.5402 70.163 81.5452 70.159C81.5612 70.05 81.3962 69.959 81.1792 69.959Z" fill="white"/>
<path d="M89.5184 69.959C89.2994 69.959 89.1094 70.048 89.1074 70.159C89.1074 70.159 89.1134 70.168 89.1134 70.175C89.1264 70.275 89.2824 70.361 89.4944 70.361C89.7064 70.361 89.8824 70.278 89.8944 70.172C89.8944 70.172 89.9074 70.163 89.9074 70.159C89.9124 70.05 89.7384 69.959 89.5154 69.959" fill="white"/>
<path d="M87.9728 93.9111C87.4658 93.9111 87.0378 94.1571 87.0118 94.4551C87.0068 94.4681 87.0118 94.4811 87.0198 94.4921C87.0278 94.7781 87.3948 94.9991 87.8838 94.9991C88.3728 94.9991 88.7678 94.7781 88.8308 94.5061C88.8308 94.4891 88.8478 94.4721 88.8478 94.4551C88.8678 94.1551 88.4778 93.9111 87.9728 93.9111Z" fill="white"/>
<path d="M100.45 113.258C101.077 113.258 101.55 112.922 101.559 112.5C101.559 112.479 101.575 112.459 101.57 112.432C101.524 111.982 100.956 111.62 100.299 111.62C100.069 111.592 99.836 111.642 99.6379 111.762C99.4398 111.882 99.2879 112.065 99.2067 112.282C99.1895 112.33 99.1797 112.381 99.1777 112.432C99.2117 112.888 99.7847 113.258 100.45 113.258Z" fill="white"/>
<path d="M107.314 103.185C107.814 103.185 108.178 102.957 108.223 102.659C108.239 102.616 108.247 102.57 108.245 102.524C108.178 102.157 107.658 101.869 107.082 101.869C106.582 101.869 106.211 102.099 106.173 102.406C106.161 102.444 106.155 102.484 106.156 102.524C106.214 102.887 106.734 103.185 107.314 103.185Z" fill="white"/>
<path d="M112.733 94.9991C113.226 94.9991 113.549 94.7781 113.516 94.4991C113.519 94.4852 113.521 94.4712 113.521 94.4571C113.445 94.1571 112.974 93.9131 112.468 93.9131C112.031 93.9131 111.719 94.1041 111.693 94.3481C111.682 94.3833 111.678 94.4203 111.68 94.4571C111.751 94.7571 112.226 95.0011 112.733 95.0011" fill="white"/>
<path d="M116.954 86.3789C116.587 86.3789 116.333 86.5229 116.304 86.7159C116.296 86.7485 116.293 86.7824 116.296 86.8159C116.366 87.0609 116.78 87.2579 117.214 87.2579C117.55 87.2579 117.8 87.1399 117.863 86.9759C117.885 86.9253 117.888 86.8685 117.871 86.8159C117.795 86.5719 117.382 86.3779 116.954 86.3779" fill="white"/>
<path d="M104.872 86.3789C104.51 86.3789 104.232 86.5229 104.178 86.7159C104.165 86.7478 104.158 86.7816 104.156 86.8159C104.191 87.0609 104.577 87.2579 105.012 87.2579C105.395 87.2579 105.669 87.1059 105.712 86.9089C105.727 86.8803 105.733 86.8479 105.729 86.8159C105.691 86.5719 105.308 86.3779 104.874 86.3779" fill="white"/>
<path d="M120.033 80.2295C119.726 80.2295 119.508 80.3295 119.465 80.4815C119.455 80.5219 119.455 80.5641 119.465 80.6045C119.535 80.8095 119.904 80.9795 120.297 80.9795C120.402 80.9934 120.509 80.9797 120.608 80.9397C120.706 80.8998 120.793 80.8349 120.859 80.7515C120.87 80.729 120.877 80.7041 120.878 80.6787C120.879 80.6532 120.874 80.6279 120.865 80.6045C120.794 80.3935 120.421 80.2295 120.038 80.2295" fill="white"/>
<path d="M109.45 80.2295C109.081 80.2295 108.815 80.3815 108.827 80.5795C108.833 80.5865 108.827 80.5965 108.827 80.6045C108.869 80.8095 109.218 80.9795 109.606 80.9795C109.947 80.9795 110.187 80.8445 110.217 80.6715C110.217 80.6505 110.234 80.6295 110.226 80.6045C110.185 80.3935 109.834 80.2295 109.45 80.2295Z" fill="white"/>
<path d="M124.774 75.0801C124.474 75.0801 124.28 75.1891 124.274 75.3321C124.27 75.3532 124.27 75.3749 124.274 75.3961C124.342 75.5731 124.674 75.7201 125.023 75.7201C125.115 75.7324 125.208 75.721 125.293 75.6871C125.379 75.6531 125.454 75.5976 125.512 75.5261C125.523 75.506 125.528 75.4837 125.528 75.4611C125.528 75.4385 125.523 75.4162 125.512 75.3961C125.444 75.2191 125.112 75.0801 124.767 75.0801" fill="white"/>
<path d="M113.993 75.0801C113.693 75.0801 113.484 75.1891 113.46 75.3321C113.451 75.3522 113.449 75.3747 113.454 75.3961C113.498 75.5731 113.813 75.7201 114.154 75.7201C114.454 75.7201 114.654 75.6111 114.679 75.4711C114.69 75.4477 114.694 75.4218 114.692 75.3961C114.641 75.2191 114.33 75.0801 113.992 75.0801" fill="white"/>
<path d="M104.081 75.0801C103.765 75.0801 103.532 75.1981 103.511 75.3541C103.504 75.3672 103.5 75.3814 103.498 75.3961C103.519 75.5731 103.819 75.7201 104.164 75.7201C104.489 75.7201 104.725 75.5891 104.736 75.4281C104.741 75.4182 104.744 75.4073 104.745 75.3961C104.72 75.2191 104.42 75.0801 104.081 75.0801Z" fill="white"/>
<path d="M125.301 69.9584C125.123 69.9584 125.023 70.0214 125.001 70.1014C125.001 70.1224 124.966 70.1354 124.979 70.1564C125.024 70.2704 125.242 70.3564 125.46 70.3564C125.678 70.3564 125.788 70.2764 125.773 70.1764C125.773 70.1674 125.785 70.1634 125.78 70.1544C125.723 70.0847 125.65 70.03 125.566 69.9952C125.483 69.9603 125.392 69.9463 125.302 69.9544" fill="white"/>
<path d="M116.049 69.9581C115.872 69.9581 115.766 70.0211 115.738 70.1011C115.728 70.1221 115.698 70.1351 115.706 70.1561C115.738 70.2701 115.942 70.3561 116.167 70.3561C116.392 70.3561 116.516 70.2731 116.498 70.1671C116.498 70.1671 116.51 70.1581 116.508 70.1541C116.477 70.0451 116.268 69.9541 116.049 69.9541" fill="white"/>
<path d="M107.456 70.1489C107.424 70.0489 107.247 69.9619 107.031 69.9619C106.831 69.9619 106.704 70.0389 106.686 70.1309C106.686 70.1429 106.666 70.1489 106.67 70.1599C106.686 70.2739 106.88 70.3599 107.102 70.3599C107.324 70.3599 107.462 70.2769 107.456 70.1739C107.456 70.1669 107.469 70.1669 107.469 70.1579C107.469 70.1489 107.462 70.1499 107.456 70.1499" fill="white"/>
<path d="M98.6897 69.9581C98.621 69.9488 98.551 69.9589 98.4877 69.9874C98.4244 70.0158 98.3704 70.0615 98.3317 70.1191C98.3317 70.1311 98.3027 70.1391 98.3027 70.1561C98.3167 70.2701 98.4947 70.3561 98.7197 70.3561C98.9257 70.3561 99.0777 70.2761 99.0897 70.1761C99.0897 70.1671 99.1067 70.1631 99.1067 70.1541C99.0987 70.0451 98.9127 69.9541 98.6897 69.9541" fill="white"/>
<path d="M100.327 94.9991C100.827 94.9991 101.215 94.7621 101.199 94.4681V94.4551C101.169 94.1551 100.739 93.9111 100.235 93.9111C99.7534 93.9111 99.3924 94.1301 99.3714 94.4111C99.3714 94.4241 99.3594 94.4361 99.3594 94.4491C99.3594 94.4621 99.3594 94.4491 99.3594 94.4571C99.3884 94.7571 99.8134 94.9971 100.323 94.9971" fill="white"/>
<path d="M54.8016 71.6477C54.2206 70.3677 53.9966 69.7137 54.2446 69.1337C54.2626 69.0987 54.2756 69.0707 54.2906 69.0337C54.3935 68.8463 54.5244 68.6757 54.6786 68.5277C55.06 68.1797 55.4653 67.8589 55.8916 67.5677C53.5716 68.6207 53.2976 68.5497 51.8166 66.4727C52.8686 68.7977 52.8026 69.0677 50.7246 70.5537C51.8536 70.0397 52.4976 69.7967 53.0306 69.9227C53.5966 70.0527 54.0446 70.5827 54.8016 71.6447" fill="white"/>
<path d="M137.542 67.5707C135.217 68.6237 134.949 68.5517 133.466 66.4707C133.861 67.1309 134.082 67.8807 134.107 68.6497C134.091 68.7823 134.054 68.9116 133.997 69.0327C133.579 69.6576 133.023 70.1777 132.371 70.5527C132.797 70.3577 133.137 70.2147 133.45 70.1027C133.468 70.0937 133.499 70.0897 133.522 70.0807C133.773 69.9454 134.055 69.8786 134.34 69.8868C134.625 69.8951 134.902 69.9781 135.145 70.1277C135.657 70.5622 136.098 71.0736 136.452 71.6437C135.394 69.3187 135.467 69.0437 137.542 67.5667" fill="white"/>
<path d="M91.9944 82.2508L92.3094 81.3908L92.2594 82.2508H92.6804L93.3364 80.4658H92.9124L92.6214 81.2488L92.6894 80.4658H92.2264L91.5684 82.2508H91.9944Z" fill="white"/>
<path d="M93.2051 82.2508L93.8631 80.4658H93.4411L92.7891 82.2508H93.2051Z" fill="white"/>
<path d="M93.7325 82.2508L94.0105 81.4888V82.2508H94.3674L94.3804 81.2508L95.0005 80.4658H94.6255L94.1925 80.9838L94.3924 80.4658H93.9675L93.3145 82.2508H93.7325Z" fill="white"/>
<path d="M92.5168 83.5998L97.5448 81.4318L95.3378 82.0318L95.3947 81.8928H94.9338L95.0948 81.4678H95.4698L95.5828 81.1518H95.2068L95.3378 80.7978H95.7137L95.8348 80.4648H95.0347L94.3798 82.2508H94.5337L92.5718 82.7818C92.4207 82.8421 92.2587 82.8699 92.0962 82.8634C91.9337 82.8568 91.7744 82.8161 91.6288 82.7438C91.1348 82.3928 91.5008 81.6658 91.6368 81.4558C91.3935 81.7085 91.1724 81.9815 90.9758 82.2718C90.8313 82.4437 90.7357 82.6512 90.6987 82.8727C90.6618 83.0941 90.6849 83.3214 90.7658 83.5308C91.1218 84.0998 91.9738 83.8308 92.5168 83.5978" fill="white"/>
</g>
<defs>
<linearGradient id="paint0_linear_20_2004" x1="29.0023" y1="149.833" x2="29.9999" y2="149.833" gradientUnits="userSpaceOnUse">
<stop stop-color="white"/>
<stop offset="1" stop-color="#BCC0C3"/>
</linearGradient>
<linearGradient id="paint1_linear_20_2004" x1="29.0004" y1="149.833" x2="30.0015" y2="149.833" gradientUnits="userSpaceOnUse">
<stop stop-color="white"/>
<stop offset="1" stop-color="#BCC0C3"/>
</linearGradient>
<linearGradient id="paint2_linear_20_2004" x1="28.9959" y1="149.833" x2="29.9994" y2="149.833" gradientUnits="userSpaceOnUse">
<stop stop-color="white"/>
<stop offset="1" stop-color="#BCC0C3"/>
</linearGradient>
<linearGradient id="paint3_linear_20_2004" x1="28.9991" y1="149.833" x2="30.002" y2="149.833" gradientUnits="userSpaceOnUse">
<stop stop-color="white"/>
<stop offset="1" stop-color="#BCC0C3"/>
</linearGradient>
<linearGradient id="paint4_linear_20_2004" x1="29.0033" y1="149.822" x2="30.0056" y2="149.822" gradientUnits="userSpaceOnUse">
<stop stop-color="white"/>
<stop offset="1" stop-color="#BCC0C3"/>
</linearGradient>
<linearGradient id="paint5_linear_20_2004" x1="29.0033" y1="149.823" x2="30.0056" y2="149.823" gradientUnits="userSpaceOnUse">
<stop stop-color="white"/>
<stop offset="1" stop-color="#BCC0C3"/>
</linearGradient>
<linearGradient id="paint6_linear_20_2004" x1="29.0029" y1="149.822" x2="30.0047" y2="149.822" gradientUnits="userSpaceOnUse">
<stop stop-color="white"/>
<stop offset="1" stop-color="#BCC0C3"/>
</linearGradient>
<linearGradient id="paint7_linear_20_2004" x1="29.0029" y1="149.823" x2="30.0047" y2="149.823" gradientUnits="userSpaceOnUse">
<stop stop-color="white"/>
<stop offset="1" stop-color="#BCC0C3"/>
</linearGradient>
<linearGradient id="paint8_linear_20_2004" x1="28.9922" y1="149.822" x2="30.005" y2="149.822" gradientUnits="userSpaceOnUse">
<stop stop-color="white"/>
<stop offset="1" stop-color="#BCC0C3"/>
</linearGradient>
<linearGradient id="paint9_linear_20_2004" x1="29.0001" y1="149.823" x2="29.9947" y2="149.823" gradientUnits="userSpaceOnUse">
<stop stop-color="white"/>
<stop offset="1" stop-color="#BCC0C3"/>
</linearGradient>
<clipPath id="clip0_20_2004">
<rect width="188" height="188" fill="white"/>
</clipPath>
</defs>
</svg>
