<svg width="188" height="188" viewBox="0 0 188 188" fill="none" xmlns="http://www.w3.org/2000/svg">
<g clip-path="url(#clip0_20_2012)">
<path d="M119.731 111.533C120.241 112.333 121.653 112.842 124.043 113.082C124.943 113.17 125.507 113.03 125.771 112.649C126.146 112.114 125.777 111.36 125.484 110.756L125.372 110.524L125.156 110.082C124.801 109.431 124.636 108.694 124.68 107.955C124.58 105.364 124.763 101.276 125.674 100.618C126.746 99.8445 126.945 99.9486 127.62 100.51C127.88 100.768 128.108 101.056 128.299 101.368C128.844 102.168 129.523 103.161 130.699 103.136C131.086 103.155 131.472 103.086 131.828 102.934C132.184 102.782 132.501 102.551 132.754 102.259C133.384 101.472 133.524 100.166 133.166 98.3725C133.101 97.8672 132.907 97.3872 132.601 96.9794C132.296 96.5716 131.89 96.2499 131.423 96.0455C130.973 95.8883 130.489 95.8477 130.019 95.9276C129.548 96.0075 129.106 96.2053 128.732 96.5025C127.806 97.2181 126.755 97.7549 125.632 98.0855C125.558 98.1089 125.478 98.1108 125.403 98.091C125.327 98.0712 125.259 98.0305 125.205 97.9735C125.067 97.7536 124.981 97.5044 124.955 97.2457C124.929 96.987 124.963 96.7257 125.055 96.4825C125.135 96.3029 125.158 96.103 125.122 95.9098C125.085 95.7165 124.99 95.5392 124.849 95.4015C124.299 94.9255 123.137 95.2655 122.597 95.5095C121.902 95.8275 120.124 96.4175 120.107 96.4235L120.066 96.4365L120.034 96.4605C119.239 97.0115 119.519 97.7705 119.841 98.6525L120.196 99.7425C120.565 101.149 120.664 107.337 119.616 110.286C119.535 110.487 119.502 110.705 119.521 110.922C119.54 111.139 119.61 111.348 119.725 111.533" fill="#2E2C31"/>
<path d="M158.953 75.8478C159.407 75.8491 159.852 75.7156 160.23 75.4641C160.608 75.2126 160.903 74.8545 161.078 74.4351C161.252 74.0157 161.299 73.5539 161.21 73.1083C161.122 72.6627 160.904 72.2533 160.582 71.932C160.261 71.6107 159.852 71.392 159.406 71.3036C158.961 71.2152 158.499 71.2611 158.08 71.4354C157.66 71.6098 157.302 71.9047 157.05 72.2829C156.799 72.6611 156.665 73.1055 156.666 73.5598C156.665 73.8604 156.723 74.1583 156.838 74.4364C156.952 74.7144 157.121 74.967 157.333 75.1796C157.546 75.3923 157.799 75.5608 158.077 75.6755C158.354 75.7901 158.652 75.8487 158.953 75.8478ZM158.953 71.8048C159.299 71.8038 159.638 71.9054 159.926 72.0969C160.214 72.2884 160.44 72.561 160.573 72.8804C160.706 73.1998 160.742 73.5516 160.675 73.8913C160.609 74.2309 160.443 74.5432 160.199 74.7886C159.955 75.0341 159.644 75.2016 159.304 75.2701C158.965 75.3386 158.613 75.305 158.293 75.1734C157.973 75.0419 157.699 74.8184 157.506 74.5312C157.313 74.2439 157.209 73.9059 157.208 73.5598C157.2 73.3281 157.24 73.0973 157.325 72.8816C157.41 72.6659 157.538 72.4699 157.702 72.3055C157.865 72.1411 158.06 72.0119 158.276 71.9258C158.491 71.8397 158.721 71.7985 158.953 71.8048Z" fill="#2E2C31"/>
<path d="M85.3736 50.8603C86.0286 50.8601 86.669 50.6657 87.2135 50.3015C87.7581 49.9374 88.1824 49.4199 88.4329 48.8146C88.6834 48.2093 88.7487 47.5433 88.6206 46.9008C88.4926 46.2584 88.1769 45.6683 87.7134 45.2053C87.25 44.7423 86.6597 44.4271 86.0171 44.2997C85.3745 44.1722 84.7086 44.2381 84.1035 44.4891C83.4984 44.7401 82.9813 45.1649 82.6177 45.7098C82.254 46.2547 82.0602 46.8952 82.0605 47.5503C82.0613 48.4285 82.4107 49.2704 83.032 49.891C83.6532 50.5117 84.4954 50.8603 85.3736 50.8603Z" fill="#2E2C31"/>
<path d="M158.573 73.7168H158.944L159.475 74.7228H160.052L159.475 73.7168C159.897 73.6858 160.122 73.5068 160.122 73.0688C160.122 72.4378 159.745 72.3408 159.195 72.3408H158.041V74.7228H158.573V73.7168ZM158.573 72.7548H159.085C159.319 72.7548 159.625 72.7548 159.625 72.9998C159.625 73.2998 159.475 73.3578 159.209 73.3578H158.573V72.7548Z" fill="#2E2C31"/>
<path d="M85.3743 54.1002C86.6709 54.1004 87.9384 53.7161 89.0166 52.9959C90.0947 52.2756 90.935 51.2518 91.4312 50.054C91.9275 48.8561 92.0573 47.538 91.8043 46.2663C91.5514 44.9946 90.9269 43.8266 90.01 42.9098C89.0931 41.993 87.925 41.3688 86.6533 41.116C85.3816 40.8632 84.0635 40.9933 82.8657 41.4897C81.6679 41.9861 80.6442 42.8266 79.9241 43.9048C79.204 44.9831 78.8199 46.2507 78.8203 47.5472C78.8219 49.2849 79.513 50.9509 80.7418 52.1795C81.9706 53.4081 83.6367 54.0989 85.3743 54.1002ZM85.3743 42.5572C86.3607 42.5574 87.3249 42.8501 88.145 43.3982C88.9651 43.9463 89.6043 44.7253 89.9817 45.6366C90.3592 46.548 90.4579 47.5508 90.2655 48.5182C90.0731 49.4857 89.5981 50.3744 88.9007 51.0719C88.2033 51.7695 87.3147 52.2446 86.3473 52.4372C85.3799 52.6298 84.3771 52.5313 83.4656 52.154C82.5542 51.7768 81.7751 51.1378 81.2268 50.3178C80.6786 49.4978 80.3857 48.5336 80.3853 47.5472C80.3858 46.2241 80.9116 44.9554 81.8471 44.0197C82.7826 43.0841 84.0512 42.558 85.3743 42.5572Z" fill="#2E2C31"/>
<path d="M107.499 69.124C107.655 69.35 107.855 69.5424 108.086 69.6897C108.318 69.8369 108.577 69.936 108.847 69.981C110.321 70.1367 111.8 69.7311 112.987 68.845C114.268 68.1022 115.223 66.905 115.662 65.491C115.727 65.224 115.737 64.9469 115.694 64.6758C115.65 64.4047 115.553 64.1451 115.407 63.912C114.531 62.588 112.171 62.712 109.92 64.193C108.638 64.9347 107.682 66.1327 107.243 67.548C107.179 67.8145 107.168 68.0912 107.212 68.3618C107.256 68.6325 107.354 68.8916 107.499 69.124ZM108.778 67.863C109.144 66.8636 109.853 66.0268 110.778 65.502C112.419 64.422 113.858 64.418 114.096 64.777C114.133 64.8398 114.151 64.9121 114.147 64.985C114.146 65.0485 114.139 65.1118 114.125 65.174C113.76 66.1736 113.051 67.011 112.125 67.537C111.277 68.1802 110.229 68.5025 109.165 68.447C109.029 68.4291 108.904 68.3635 108.811 68.262C108.754 68.1366 108.743 67.9946 108.781 67.862" fill="#2E2C31"/>
<path d="M116.977 63.1736C117.89 65.2326 116.748 67.1316 115.631 68.3606C115.492 68.5116 115.072 68.9726 115.322 69.2306C115.802 69.7306 118.456 68.2986 120.897 66.2396C121.705 65.6508 122.354 64.8698 122.784 63.9672C123.214 63.0647 123.412 62.0691 123.36 61.0706C123.273 60.3675 123.008 59.6981 122.591 59.1252C122.174 58.5523 121.618 58.0948 120.976 57.7956C119.285 56.9666 117.086 57.6296 115.541 58.3326C113.316 59.3446 111.111 61.0866 110.935 61.7486L110.867 62.0006L111.115 61.9176C113.897 61.0176 115.959 60.8816 116.977 63.1696" fill="#2E2C31"/>
<path d="M111.699 71.8008L112.65 72.3698C115.141 73.8638 116.386 75.8848 117.704 78.0228C118.137 78.7228 118.587 79.4588 119.085 80.1708L120.55 82.4068C122.782 85.8998 126.157 91.1778 129.001 92.2288C131.601 93.1858 136.44 93.0608 137.169 92.2438C137.239 92.1717 137.284 92.0797 137.299 91.9805C137.314 91.8814 137.298 91.7801 137.252 91.6908L137.177 91.5398L137.008 91.5318C132.958 91.3958 126.656 83.6478 123.669 78.4548C120.069 72.1908 112.88 71.8468 112.809 71.8428L111.699 71.8008Z" fill="#2E2C31"/>
<path d="M106.554 92.1007C107 92.9014 107.158 93.8307 107.001 94.7337V94.7567V94.7757C107.027 95.7687 107.25 104.456 107.263 104.651C107.487 108.071 109.263 110.298 112.263 110.923C112.82 111.036 113.485 111.114 113.686 110.678C113.954 110.103 112.986 109.259 112.555 108.923C111.012 107.713 111.166 105.029 111.17 105.003C111.241 102.395 111.464 95.4917 111.618 94.7647L111.631 94.7047C111.657 94.2226 111.805 93.7552 112.063 93.3467C112.32 92.9382 112.677 92.6023 113.101 92.3707C113.689 92.147 114.309 92.019 114.937 91.9917C115.771 91.9047 116.491 91.8347 116.537 91.2587C116.563 90.9727 116.595 90.5427 112.122 89.7087C112.086 89.7017 112.064 89.6147 112.073 89.5087C112.173 87.9977 112.349 85.3897 112.397 84.9087C112.437 84.5087 112.297 84.2167 112.03 84.1227C111.763 84.0287 111.303 84.1177 110.676 85.0907C109.582 86.7907 106.717 88.1617 105.199 88.7007C104.632 88.9007 104.329 89.1747 104.271 89.5357C104.166 90.2007 104.971 90.8277 105.759 91.4357C106.039 91.6392 106.304 91.8621 106.552 92.1027" fill="#2E2C31"/>
<path d="M151.626 79.6487C151.292 79.5057 150.974 79.8037 150.278 80.4557C148.962 81.6877 146.512 83.9887 143.167 83.5107C141.772 83.4056 140.457 82.8174 139.448 81.8473C138.44 80.8772 137.801 79.5859 137.642 78.1957C137.059 74.9317 136.932 72.8387 140.081 71.3347L140.65 71.0637L140.074 70.8187C139.633 70.5802 139.254 70.2428 138.966 69.833C138.678 69.4231 138.488 68.952 138.413 68.4567C138.152 66.884 138.241 65.273 138.675 63.7389C139.109 62.2048 139.875 60.7852 140.921 59.5817L141.459 58.9287L140.636 59.1217C137.852 59.7807 135.753 61.7137 134.386 64.8657C131.795 70.8537 132.755 79.4847 134.527 82.5657C136.958 86.7927 140.927 88.5457 146.315 87.7657C149.776 87.2657 151.9 83.0407 151.9 80.2267C151.9 80.1117 151.9 79.7607 151.626 79.6427" fill="#2E2C31"/>
<path d="M142.5 120.317C142.5 120.317 136.342 123.646 110.457 114.89C119.835 119.204 129.756 122.224 139.947 123.869L142.5 120.317Z" fill="#2E2C31"/>
<path d="M144.493 116.066C144.846 115.822 145.143 115.505 145.364 115.137C145.585 114.768 145.724 114.357 145.773 113.93C145.633 113.43 139.073 114.006 143.396 103.941C144.086 102.341 144.677 101.997 144.109 101.381C143.781 101.027 138.503 99.2812 138.089 100.41C137.789 101.21 138.989 102.158 139.461 103.468C139.739 104.832 139.707 106.241 139.368 107.59C137.877 116.148 144 116.228 144.493 116.066Z" fill="#2E2C31"/>
<path d="M139.926 69.1006C140.354 69.8033 140.998 70.3486 141.762 70.655C142.525 70.9614 143.368 71.0125 144.163 70.8006C144.797 70.6556 145.362 70.2975 145.763 69.786C146.164 69.2745 146.378 68.6407 146.368 67.9906C146.368 65.6176 146.068 60.1016 143.297 60.1016C142.68 60.1016 141.776 60.3956 140.97 61.7956C139.763 63.8956 139.201 67.8506 139.926 69.0956M142.337 62.5616C142.665 61.9926 143.014 61.6616 143.297 61.6616C144.082 61.6616 144.797 64.6746 144.797 67.9836C144.805 68.2886 144.705 68.5866 144.514 68.8246C144.323 69.0626 144.053 69.2252 143.754 69.2836C143.292 69.4051 142.803 69.3764 142.359 69.2016C141.914 69.0269 141.537 68.7151 141.281 68.3116C140.974 67.7716 141.21 64.5026 142.335 62.5636" fill="#2E2C31"/>
<path d="M172.863 102.412C172.655 91.8059 164.916 84.1119 157.569 83.1329C153.943 82.6499 148.957 87.2269 151.995 90.8509C151.995 90.8509 153.559 92.2979 154.817 91.1079C156.075 89.9179 155.469 88.5079 157.189 87.9769C158.909 87.4459 169.389 92.5499 169.466 104.044C169.513 111.573 160.271 122.45 148.042 121.193L145.893 124.834C145.893 124.834 158.019 124.698 163.529 120.299C170.898 114.414 173.024 110.699 172.863 102.412Z" fill="#2E2C31"/>
<path d="M163.978 81.7873C160.826 79.6873 157.705 79.0273 154.863 79.7663C154.863 79.6793 154.876 79.5823 154.876 79.4973C154.911 78.938 154.825 78.3778 154.624 77.8546C154.423 77.3315 154.112 76.8576 153.712 76.4653C153.35 76.1302 152.91 75.8912 152.432 75.77C151.954 75.6487 151.453 75.6492 150.975 75.7713C150.26 76.1406 149.623 76.6429 149.096 77.2513C148.164 78.1945 147.133 79.0353 146.022 79.7593C145.595 80.0575 145.111 80.2659 144.601 80.3719C144.091 80.478 143.565 80.4795 143.054 80.3763C142.571 80.1681 142.135 79.8657 141.77 79.487C141.405 79.1082 141.12 78.6606 140.93 78.1703C139.88 76.0703 140.038 75.2233 140.223 74.9023C140.435 74.5373 140.982 74.3433 141.944 74.2923C143.488 74.3509 145.028 74.5022 146.554 74.7453C148.254 74.9673 149.854 75.1773 150.72 75.1773C151.307 75.2318 151.899 75.1647 152.46 74.9803C153.02 74.7959 153.536 74.498 153.976 74.1053C154.297 73.7417 154.539 73.3154 154.687 72.8533C154.834 72.3913 154.884 71.9036 154.833 71.4213L154.825 71.1943C154.725 68.6043 154.432 60.7103 147.514 57.6083C141.603 54.9593 136.014 56.1953 132.921 60.8303C129.961 65.2743 128.703 74.6843 130.381 79.8303C131.032 81.8517 131.933 83.7835 133.065 85.5803C131.682 83.9569 130.413 82.2406 129.265 80.4433C126.657 76.5723 123.745 72.2663 119.365 70.5433C123.024 68.5433 126.525 64.0653 126.525 61.0073C126.526 60.8112 126.51 60.6154 126.476 60.4223C125.844 56.6223 123.176 54.6793 118.544 54.6593C114.901 54.6413 111.152 57.5743 109.17 59.3993C109.305 54.6313 109.637 42.8523 109.637 41.9993C109.711 41.5329 109.825 41.0736 109.976 40.6263C110.381 39.4406 110.621 38.2052 110.691 36.9543C110.707 36.3654 110.586 35.7808 110.338 35.2463C110.204 34.95 110.004 34.6884 109.753 34.4817C109.502 34.2751 109.207 34.1288 108.891 34.0543C107.809 33.9586 106.732 34.2894 105.891 34.9763C105.877 34.987 105.863 34.9987 105.85 35.0113C101.65 38.7653 94.542 45.2263 94.142 46.2933C94.0069 46.6702 93.9392 47.0679 93.942 47.4683C93.942 48.6213 94.512 50.3343 97.099 52.0163V80.5783C96.8265 80.8486 96.5326 81.0965 96.22 81.3193C95.232 82.0723 94.004 83.0083 93.996 84.2343V84.2563C93.9923 84.6432 94.0656 85.0271 94.2117 85.3854C94.3578 85.7437 94.5738 86.0693 94.847 86.3433C95.3285 86.8454 95.9808 87.1488 96.675 87.1933C99.148 87.1933 100.843 87.2313 102.598 87.3013C102.109 87.4533 101.684 87.7616 101.387 88.1786C101.09 88.5957 100.938 89.0987 100.955 89.6103C100.955 91.3163 102.455 92.2323 103.555 92.9013C103.951 93.1018 104.312 93.3652 104.623 93.6813C104.854 95.2655 104.936 96.8678 104.867 98.4673C104.867 100.032 104.842 101.597 104.824 102.521L104.814 103.386C104.491 102.971 104.132 102.585 103.742 102.231C103.268 101.721 101.117 97.3533 99.696 94.4613C98.045 91.1003 97.012 89.0103 96.596 88.4323L96.24 87.9103C95.986 87.4304 95.6379 87.0065 95.2164 86.6641C94.7949 86.3217 94.3088 86.0677 93.787 85.9173C93.9433 85.2831 93.8517 84.6133 93.531 84.0443C93.015 82.8443 92.031 80.7803 91.748 80.1893V59.7893C91.748 56.1623 89.461 55.6203 88.1 55.6203L87.248 55.6133C85.421 55.6003 82.02 55.5753 80.591 55.7293C79.162 55.8833 78.253 56.3763 77.867 57.1953C77.7437 57.4538 77.6805 57.7369 77.682 58.0233C77.6966 58.541 77.862 59.0433 78.158 59.4683C78.5051 59.9609 78.9122 60.4084 79.37 60.8003C79.863 61.2543 80.328 61.6843 80.328 62.0453V81.1933C79.662 81.8023 78.288 83.2353 78.288 84.6663C78.2889 84.7841 78.2982 84.9018 78.316 85.0183C78.3884 85.4425 78.596 85.8319 78.908 86.1283C78.897 86.1463 78.884 86.1633 78.873 86.1793C78.845 86.1423 78.818 86.0993 78.787 86.0613C78.569 85.7695 78.2869 85.5315 77.9626 85.3656C77.6383 85.1997 77.2803 85.1103 76.916 85.1043H76.438C75.393 83.0593 73.55 79.0753 73.55 77.2463V42.7943C73.55 41.6223 74.6 40.5673 75.45 39.7213C76.2 38.9683 76.8 38.3743 76.8 37.6353C76.8 34.4913 68.927 34.2453 66.513 34.2453C64.083 34.2453 56.149 34.4913 56.149 37.6353C56.149 38.6353 57.169 39.4763 58.349 40.4493C59.24 41.1813 60.46 42.1873 60.46 42.7943V58.6163C57.083 53.4003 49.745 41.0093 48.274 39.2833C45.774 36.3433 43.493 35.5983 39.58 35.2653C36.633 35.0153 34.502 35.4653 33.405 36.5653C33.1471 36.8194 32.9429 37.1228 32.8046 37.4575C32.6663 37.7922 32.5967 38.1512 32.6 38.5133C32.6 38.6043 32.606 38.6963 32.611 38.7913C32.825 41.1993 35.98 44.2693 36.976 45.1833C36.976 45.8473 37.257 74.0503 37.262 74.6443C35.9619 76.0365 34.7635 77.5203 33.676 79.0843C30.331 78.8088 26.9719 79.4089 23.929 80.8253C14.487 84.9003 11.761 97.3893 13.486 104.459C16.544 117 26.585 119 30.76 119.275C37.198 119.706 43.373 117.311 45.272 113.753C52.93 115.033 56.912 112.486 58.896 110.063C60.208 108.416 61.0565 106.448 61.354 104.363C62.0013 105.164 62.8264 105.803 63.7637 106.23C64.701 106.657 65.7249 106.859 66.754 106.821C66.868 106.821 66.983 106.811 67.095 106.806C66.0057 107.304 64.962 107.896 63.976 108.575C53.824 115.588 52.986 123.948 54.068 129.726C55.0544 135.062 57.8713 139.886 62.033 143.367C69.746 150.127 86.155 154.032 101.933 152.86C122.333 151.347 137.804 142.401 145.571 127.666C148.171 127.627 160.797 127.109 168.144 120.841H168.15C170.06 119.207 175.879 114.241 175.879 103.224C175.879 95.7763 170.54 86.1603 163.979 81.7933M96.673 85.6263C96.3983 85.5784 96.1468 85.4417 95.957 85.2373C95.8289 85.1086 95.7279 84.9554 95.6603 84.7869C95.5926 84.6183 95.5595 84.4379 95.563 84.2563V84.2443C95.563 83.7893 96.563 83.0223 97.163 82.5663C97.999 81.9313 98.657 81.4253 98.657 80.7103V51.6003C98.6572 51.4649 98.6225 51.3318 98.5563 51.2138C98.4901 51.0957 98.3946 50.9967 98.279 50.9263C95.943 49.5263 95.498 48.2373 95.498 47.4643C95.4969 47.264 95.5308 47.065 95.598 46.8763C96.106 46.0343 101.756 40.7763 106.863 36.2083C107.336 35.8159 107.928 35.5959 108.543 35.5843C108.652 35.6093 108.796 35.6733 108.935 35.9463C109.422 36.9243 108.848 38.8853 108.468 40.1843C108.261 40.7709 108.126 41.3808 108.068 42.0003C108.068 43.0233 107.552 61.1283 107.547 61.3113C107.543 61.4714 107.588 61.6289 107.676 61.7626C107.764 61.8963 107.891 61.9999 108.04 62.0594C108.189 62.1189 108.352 62.1316 108.508 62.0956C108.664 62.0597 108.805 61.9769 108.913 61.8583C108.962 61.8003 114.071 56.2053 118.538 56.2253C122.449 56.2433 124.421 57.6173 124.931 60.6783C125.364 63.2783 120.709 69.0413 116.752 69.9073C116.574 69.9466 116.415 70.0469 116.302 70.191C116.19 70.335 116.132 70.5138 116.137 70.6964C116.142 70.8789 116.211 71.0539 116.332 71.191C116.453 71.3281 116.618 71.4187 116.798 71.4473C121.847 72.2423 124.959 76.8573 127.966 81.3213C131.041 85.8833 133.945 90.1923 138.744 90.3323C139.095 90.3443 139.455 90.4413 139.488 91.1093C139.471 91.8223 139.213 92.5084 138.756 93.056C138.299 93.6036 137.67 93.9805 136.972 94.1253C135.6 94.3068 134.214 94.3664 132.831 94.3033C132.523 94.1103 132.193 93.9564 131.847 93.8453C131.022 93.592 130.146 93.5507 129.301 93.7253C127.72 93.2674 126.268 92.4454 125.062 91.3253C122.362 88.8083 120.362 85.1813 118.748 82.2663C118.077 81.0533 117.496 80.0043 116.948 79.1853C116.89 79.0943 110.807 70.5233 108.083 72.0073C107.971 72.0693 107.875 72.158 107.806 72.2656C107.736 72.3733 107.694 72.4965 107.683 72.6243C107.572 73.8463 107.596 77.7243 107.61 79.8133V80.7133C107.61 81.3813 108.21 82.0183 109.116 82.8963C108.765 83.3043 108.394 83.6941 108.004 84.0643C107.92 83.4533 106.416 82.5763 106.416 81.1253V47.7783C106.416 47.7783 106.127 46.1973 107.222 41.5433C108.317 36.8893 106.658 38.2763 106.658 38.2763L97.524 46.8193C96.842 48.6563 100.055 48.6003 100.055 51.2023V81.1223C100.055 82.7683 97.987 82.6623 97.987 83.6383C97.987 84.9433 101.146 84.7803 102.243 84.7803C103.886 84.938 105.54 84.9306 107.181 84.7583C106.664 85.1587 106.125 85.5287 105.565 85.8663C102.699 85.7303 100.316 85.6263 96.671 85.6263M141.054 91.1363C141.142 91.1363 141.226 91.1443 141.318 91.1443C145.418 91.1253 147.218 90.4193 148.29 89.8963C148.903 91.9173 150.33 95.0173 153.382 95.3583C154.16 95.4696 154.953 95.4164 155.71 95.2021C156.466 94.9878 157.17 94.6172 157.774 94.1143C158.351 93.5954 158.767 92.9222 158.974 92.1743C161.663 93.5903 165.901 97.7123 166.683 102.692C166.767 103.218 166.81 103.749 166.811 104.281C166.811 107.993 164.711 111.43 160.54 114.518C155.864 117.985 153.14 118.481 150.933 118.501C151.777 116.88 153.048 114.375 154.205 112.094L156.41 107.772C157.061 107.024 157.869 106.429 158.776 106.029C160.14 105.265 161.318 104.607 161.319 103.521C161.319 102.559 160.341 102.008 160.019 101.829C158.819 101.153 152.686 98.9693 150.048 100.158C149.73 100.286 149.447 100.491 149.226 100.753C149.005 101.015 148.851 101.328 148.779 101.663C148.687 102.076 148.639 102.497 148.638 102.92C148.645 103.33 148.682 103.738 148.75 104.142C148.8 104.425 148.829 104.711 148.837 104.997C148.831 105.454 148.728 105.904 148.537 106.318C148.245 106.994 146.743 109.444 146.062 110.535C145.858 110.658 145.62 110.715 145.382 110.697C145.292 110.663 145.226 110.483 145.202 110.41C144.751 109.15 144.779 107.767 145.281 106.526C145.505 106.112 145.768 105.719 146.066 105.354C147 104.095 148.166 102.532 147.725 101.032C147.554 100.573 147.276 100.161 146.914 99.8305C146.552 99.5001 146.117 99.2607 145.644 99.1323C142.993 98.0391 140.169 97.4253 137.304 97.3193C136.612 97.3302 135.948 97.5995 135.444 98.0743C135.331 97.7523 135.202 97.4193 135.044 97.0743C134.866 96.664 134.654 96.2693 134.411 95.8943C135.292 95.8723 136.211 95.8033 137.167 95.6833C138.23 95.4926 139.196 94.9435 139.904 94.1276C140.612 93.3116 141.019 92.2779 141.058 91.1983C141.058 91.1773 141.058 91.1613 141.058 91.1423M136.238 111.551C136.397 112.951 136.91 114.287 137.728 115.434C138.547 116.581 139.643 117.5 140.915 118.106C138.753 118.718 133.855 118.274 127.509 116.887C128.076 116.768 128.577 116.437 128.909 115.962C129.202 115.509 129.349 114.977 129.331 114.438C129.14 112.745 128.595 111.111 127.731 109.643L127.457 109.083C127.261 108.657 127.166 108.191 127.181 107.721C127.206 106.964 127.273 106.208 127.381 105.457C127.381 105.457 127.428 105.024 127.462 104.713C128.973 105.943 131.02 106.097 133.345 105.024C133.899 104.779 134.397 104.421 134.806 103.973C135.215 103.526 135.527 102.998 135.722 102.424C135.914 102.61 136.117 102.784 136.329 102.946C136.555 103.179 136.726 103.46 136.829 103.768C136.932 104.076 136.963 104.403 136.922 104.725C136.882 105.707 136.766 106.685 136.575 107.649C136.361 108.712 136.235 109.79 136.198 110.873C136.197 111.101 136.208 111.329 136.232 111.555M115.132 107.777C114.664 107.471 114.28 107.052 114.016 106.559C113.752 106.065 113.616 105.514 113.621 104.954C113.613 104.6 113.61 104.264 113.61 103.945C113.61 102.453 113.679 101.322 113.737 100.383L113.816 98.4383C113.816 95.3073 114.048 94.5283 116.33 94.0383L116.669 93.9693C117.996 93.6973 119.369 93.4183 119.624 91.4803C119.635 91.3937 119.641 91.3066 119.641 91.2193C119.641 89.1543 116.289 88.4593 114.401 88.0783C114.431 87.8473 114.464 87.5783 114.501 87.3063C114.738 85.7965 114.878 84.273 114.921 82.7453C114.921 81.1273 114.621 79.9533 113.74 79.5603C112.384 78.9533 111.327 80.2033 110.118 81.6903C109.763 81.3752 109.446 81.019 109.175 80.6293C109.175 80.4883 109.175 79.8053 109.175 79.8053C109.169 79.0413 109.162 77.9453 109.162 76.8353C109.162 75.5973 109.171 74.3423 109.201 73.4963C110.501 74.0633 113.727 77.1753 115.645 80.0573C116.154 80.8203 116.721 81.8443 117.377 83.0273C119.013 85.9853 121.042 89.6483 123.843 92.3273C121.546 92.8896 119.285 93.5909 117.073 94.4273C117.099 94.4203 117.126 94.4113 117.154 94.4053C116.713 94.5172 116.314 94.7559 116.006 95.0919C115.699 95.428 115.497 95.8467 115.425 96.2963C115.416 96.38 115.411 96.4641 115.41 96.5483C115.414 96.8915 115.513 97.2269 115.694 97.5182C115.876 97.8094 116.134 98.0453 116.44 98.2003C116.998 98.5689 117.412 99.1178 117.614 99.7553C117.786 101.475 117.871 103.18 117.871 104.655C117.871 106.962 117.671 108.694 117.293 109.018C117.017 109.202 116.752 109.403 116.5 109.618C116.259 108.871 115.778 108.223 115.132 107.776M115.745 113.248C115.545 113.17 115.345 113.091 115.145 113.012C115.192 112.978 115.245 112.951 115.286 112.912C115.351 112.858 115.413 112.8 115.473 112.74C115.549 112.915 115.641 113.082 115.747 113.24M116.855 111.775C116.883 111.489 117.134 111.006 118.171 110.314C119.879 109.178 119.53 103.067 119.171 99.5253C119.166 99.4828 119.158 99.4408 119.147 99.3993C118.834 98.3346 118.143 97.4207 117.204 96.8293C116.959 96.6933 116.976 96.5663 116.985 96.4993C117.015 96.3623 117.082 96.2363 117.179 96.1349C117.276 96.0335 117.399 95.9606 117.534 95.9243C117.561 95.9176 117.587 95.9092 117.613 95.8993C119.762 95.0628 121.968 94.3788 124.213 93.8523C124.482 93.8327 124.752 93.8729 125.004 93.9701C125.255 94.0673 125.482 94.219 125.668 94.4143C125.796 94.544 125.892 94.7023 125.947 94.8762C126.002 95.05 126.015 95.2344 125.985 95.4143C125.958 95.5621 125.973 95.7147 126.03 95.8539C126.087 95.993 126.183 96.1129 126.306 96.1992C126.429 96.2856 126.574 96.3347 126.724 96.3407C126.875 96.3467 127.023 96.3095 127.153 96.2333C128.079 95.6863 129.853 94.8433 131.371 95.3333C131.893 95.5429 132.364 95.8627 132.751 96.2708C133.138 96.679 133.433 97.1659 133.615 97.6983C134.522 99.7773 135.102 102.485 132.697 103.598C130.364 104.676 128.636 104.298 127.562 102.475C127.478 102.334 127.351 102.223 127.2 102.159C127.048 102.094 126.88 102.079 126.72 102.115C126.559 102.151 126.413 102.236 126.302 102.358C126.192 102.481 126.123 102.635 126.105 102.799L125.835 105.276C125.576 107.455 125.458 108.447 126.041 109.73L126.341 110.341C126.863 111.385 128.241 114.163 127.624 115.082C127.378 115.439 126.699 115.462 126.171 115.419C121.851 115.056 118.73 114.119 117.384 112.77C117.231 112.652 117.106 112.502 117.016 112.332C116.926 112.161 116.873 111.973 116.861 111.78M104.367 91.5623C103.284 90.9023 102.517 90.3763 102.517 89.6103C102.517 89.0943 102.567 89.0103 103.859 88.4573C105.452 87.8156 106.946 86.9488 108.293 85.8833C109.392 84.9601 110.385 83.9181 111.255 82.7763C111.829 82.0763 112.775 80.9053 113.086 80.9823C113.338 81.4555 113.435 81.9959 113.364 82.5273C113.364 83.5573 112.717 89.0053 112.864 89.2143C113.011 89.4233 114.19 89.5403 114.19 89.5403C117.79 90.2623 118.07 90.9673 118.07 91.2403C118.07 91.2543 118.07 91.2633 118.07 91.2743C117.97 92.0453 117.74 92.1463 116.354 92.4293L116.007 92.5013C112.502 93.2433 112.252 95.2373 112.252 98.4293L112.174 100.276C112.114 101.24 112.044 102.397 112.044 103.932C112.044 104.261 112.044 104.61 112.054 104.976C112.052 105.758 112.239 106.528 112.598 107.222C112.957 107.915 113.479 108.512 114.118 108.961C114.665 109.426 114.952 109.685 114.999 110.08C114.999 110.141 115.008 110.202 115.008 110.264C115.003 110.539 114.937 110.809 114.815 111.055C114.692 111.301 114.517 111.516 114.301 111.686C114.075 111.867 113.81 111.994 113.528 112.058C113.245 112.121 112.952 112.119 112.67 112.052L111.47 111.6C110.181 111.07 109.011 110.288 108.028 109.3C106.992 107.787 106.416 106.007 106.37 104.173L106.391 102.545C106.485 97.0003 106.453 93.8353 106.027 92.9813C105.612 92.3664 105.038 91.8754 104.366 91.5603M105.389 107.5C105.647 108.305 106.005 109.075 106.454 109.79C105.316 109.398 104.14 109.008 102.94 108.623C103.415 108.726 103.91 108.672 104.352 108.47C104.793 108.268 105.157 107.927 105.389 107.5ZM94.926 88.7783L95.326 89.3513C95.687 89.8513 97.011 92.5513 98.293 95.1513C101.087 100.827 102.167 102.926 102.686 103.391C102.913 103.591 104.87 105.385 104.112 106.6C103.7 107.254 103.393 107.2 102.54 106.862L101.932 106.651C99.1631 105.709 96.4633 104.576 93.852 103.258C93.657 103.148 93.427 102.973 93.425 102.758C93.4544 102.603 93.5195 102.457 93.6152 102.332C93.7108 102.206 93.8344 102.105 93.976 102.035C94.1635 101.92 94.3247 101.767 94.4492 101.586C94.5737 101.405 94.6589 101.199 94.699 100.983C94.994 99.6353 93.999 97.5113 93.299 96.4883C91.975 94.5473 90.892 93.6083 89.885 93.5423C89.6785 93.5256 89.4707 93.5543 89.2764 93.6263C89.0821 93.6984 88.9058 93.812 88.76 93.9593C88.2137 94.7092 87.9714 95.6381 88.082 96.5593C88.082 97.1243 88.115 97.7463 88.162 98.4123L88.217 99.4643C88.2234 99.6183 88.2692 99.7681 88.35 99.8993C88.9966 100.673 89.4244 101.605 89.589 102.599C89.5886 102.672 89.5816 102.745 89.568 102.816C88.8361 102.931 88.0897 102.919 87.362 102.779L86.527 102.687L85.652 102.606C84.405 102.489 82.852 102.335 81.246 102.335C81.021 102.335 80.476 102.293 80.328 101.869C80.18 101.445 80.47 100.655 81.449 99.8883C81.5379 99.8174 81.6106 99.7284 81.6623 99.6271C81.714 99.5259 81.7436 99.4148 81.749 99.3013C81.849 96.9263 81.949 90.7363 81.949 89.6703C81.9356 89.3283 81.8202 88.9981 81.6176 88.7222C81.4149 88.4463 81.1344 88.2374 80.812 88.1223C80.351 87.8843 80.16 87.7843 80.181 87.1683C80.209 86.3173 82.895 86.1423 83.781 86.0873L83.969 86.0743C86.974 85.8743 87.894 86.2843 88.169 86.5443C88.2059 86.5748 88.2353 86.6134 88.2547 86.6571C88.2741 86.7008 88.2831 86.7485 88.281 86.7963C88.3016 87.2641 88.2271 87.7311 88.062 88.1693C87.974 88.3143 87.914 88.4293 87.905 88.4473C87.8198 88.6188 87.8003 88.8156 87.8504 89.0005C87.9004 89.1853 88.0165 89.3455 88.1766 89.4505C88.3367 89.5556 88.5298 89.5983 88.7193 89.5706C88.9089 89.543 89.0816 89.4468 89.205 89.3003C89.3111 89.1711 89.3992 89.0281 89.467 88.8753C89.7139 88.4088 90.0757 88.013 90.5183 87.7255C90.9608 87.438 91.4695 87.2682 91.996 87.2323C93.957 87.2943 94.304 87.8213 94.934 88.7713M89.769 99.2243C89.754 98.9173 89.724 98.3143 89.724 98.3143C89.697 97.9223 89.649 97.2043 89.649 96.5383C89.61 96.0585 89.6758 95.576 89.842 95.1243C90.05 95.1803 90.729 95.5073 92.003 97.3753C92.6427 98.292 93.05 99.3503 93.19 100.459C93.1952 100.547 93.1791 100.634 93.143 100.713C92.7723 100.917 92.4595 101.212 92.2339 101.57C92.0083 101.928 91.8772 102.338 91.853 102.76V102.781C91.8679 103.171 91.99 103.549 92.2057 103.873C92.4215 104.198 92.7227 104.457 93.076 104.621C95.8108 106.008 98.6422 107.195 101.548 108.174L101.855 108.283C94.412 105.983 86.002 104.108 78.312 104.375C78.7919 104.131 79.2103 103.782 79.536 103.353C80.0247 103.73 80.6274 103.927 81.244 103.913C82.774 103.913 84.285 104.056 85.5 104.175L86.387 104.257L87.176 104.341C88.711 104.524 90.813 104.772 91.105 103.152C91.1397 102.971 91.1568 102.788 91.156 102.603C91.0271 101.367 90.5457 100.194 89.769 99.2243ZM81.617 82.1433L81.895 81.9103V62.0483C81.8355 61.5676 81.6745 61.105 81.4226 60.6912C81.1707 60.2774 80.8338 59.9219 80.434 59.6483C80.0706 59.3413 79.7447 58.9926 79.463 58.6093C79.3763 58.5081 79.3145 58.388 79.2823 58.2587C79.2502 58.1294 79.2487 57.9943 79.278 57.8643C79.378 57.6523 79.819 57.3883 80.755 57.2863C82.094 57.1413 85.564 57.1663 87.232 57.1863H88.095C89.174 57.1863 90.176 57.5023 90.176 59.7863V80.5493L90.25 80.7073C90.264 80.7343 91.525 83.3543 92.099 84.6933L92.116 84.7363L92.142 84.7813C92.2 84.8813 92.453 85.3743 92.142 85.6813L92.042 85.6753C91.2273 85.6529 90.4269 85.893 89.759 86.3603C89.6846 85.9988 89.5034 85.6679 89.239 85.4103C88.139 84.3753 85.786 84.3913 83.863 84.5203L83.677 84.5293C82.4875 84.5532 81.3089 84.7627 80.184 85.1503C80.1068 85.111 80.0388 85.0559 79.9843 84.9885C79.9299 84.9211 79.8902 84.843 79.868 84.7593C79.753 84.0813 80.846 82.8013 81.622 82.1463M78.988 88.6283C79.2699 89.0177 79.6493 89.326 80.088 89.5223C80.1906 89.5717 80.289 89.6296 80.382 89.6953C80.382 90.7533 80.294 96.3953 80.201 98.9353C79.9273 99.1753 79.6796 99.4434 79.462 99.7353C79.0452 99.0603 78.5881 98.4111 78.093 97.7913C77.673 94.7813 77.293 91.4723 77.293 90.4533C77.2928 90.4045 77.2958 90.3557 77.302 90.3073C77.415 90.1893 77.632 90.0003 77.793 89.8623C78.2461 89.5077 78.6497 89.094 78.993 88.6323M38.626 75.4683L38.832 75.2403L38.532 44.4743L38.27 44.2433C37.182 43.2843 34.325 40.4133 34.17 38.6523C34.147 38.4735 34.1659 38.2919 34.225 38.1217C34.2842 37.9514 34.3821 37.7973 34.511 37.6713C35.25 36.9303 37.048 36.6223 39.443 36.8263C43.57 37.1773 45.088 37.9153 46.935 40.0983C48.6 42.0593 60.066 60.8863 60.59 61.6923L61.49 63.0763L62.035 62.6893V42.7943C62.035 41.4463 60.674 40.3223 59.354 39.2403C58.771 38.7583 57.8 37.9563 57.725 37.6293C57.748 36.9883 60.762 35.8133 66.518 35.8133C72.183 35.8133 75.162 36.9733 75.218 37.6133C74.9668 37.98 74.6731 38.3156 74.343 38.6133C73.343 39.6073 71.98 40.9723 71.98 42.7943V77.2463C71.98 79.3463 73.68 83.0943 74.703 85.1463C73.5243 85.1933 72.3515 85.3388 71.197 85.5813C71.116 85.5993 71.047 85.6193 70.972 85.6373C69.901 84.5373 66.763 80.4443 65.972 79.2823C65.715 78.9063 64.086 75.9123 62.359 72.7433C59.246 67.0173 55.371 59.9003 53.991 57.8003C52.611 55.7003 51.419 54.8473 50.332 55.1713C49.332 55.4713 48.832 56.6623 48.832 58.7203C48.832 62.7123 49.775 80.2573 49.815 81.0033L49.83 81.2743L50.01 81.4743C50.846 82.4263 52.379 84.7233 51.781 85.7573C51.6039 86.117 51.3086 86.4051 50.9446 86.5733C50.5805 86.7414 50.1698 86.7796 49.781 86.6813C49.648 86.6183 42.696 83.3813 42.696 83.3813C41.7209 82.2741 40.5299 81.3778 39.196 80.7473C39.076 80.6863 38.931 80.6143 38.776 80.5413C42.1938 81.6373 45.5138 83.0178 48.701 84.6683C48.7813 84.7144 48.8704 84.7429 48.9625 84.752C49.0545 84.7612 49.1475 84.7506 49.2352 84.7211C49.3229 84.6916 49.4034 84.6439 49.4713 84.581C49.5392 84.5181 49.5929 84.4415 49.629 84.3563C49.874 83.9493 49.66 83.2983 48.971 82.3563L48.191 81.3733C47.9649 81.1687 47.7832 80.92 47.6571 80.6423C47.531 80.3647 47.4633 80.0642 47.458 79.7593C47.358 78.5093 47.165 55.2263 47.158 54.9923C47.1909 54.5562 47.3238 54.1336 47.5462 53.7571C47.7687 53.3806 48.0749 53.0604 48.441 52.8213C49.519 52.2803 51.23 52.7393 53.394 54.1473C53.4559 54.1879 53.5312 54.2026 53.6038 54.1882C53.6764 54.1738 53.7404 54.1315 53.782 54.0703L54.055 53.6703C54.0878 53.623 54.1053 53.5668 54.1053 53.5093C54.1053 53.4518 54.0878 53.3956 54.055 53.3483C51.5114 48.7916 48.4278 44.558 44.871 40.7393C42.321 38.1743 36.363 37.6293 36.202 39.3923C36.202 39.4163 36.202 39.4403 36.202 39.4663C36.202 40.2663 37.302 41.2193 38.838 42.4663C39.3276 42.8506 39.7901 43.2682 40.222 43.7163C40.338 43.8753 39.853 74.6493 39.832 76.3953C39.732 76.5233 37.642 79.3443 37.237 79.8883C36.6291 79.6687 36.0075 79.4893 35.376 79.3513C36.112 78.3263 37.642 76.5513 38.63 75.4673M68.582 88.5873L68.691 90.1383C68.725 90.6383 68.762 91.2383 68.805 91.9023C68.734 91.5583 68.659 91.2353 68.584 90.8863L68.311 89.6073C68.2418 89.0973 68.059 88.6093 67.776 88.1794C67.493 87.7494 67.1171 87.3885 66.676 87.1233C66.3198 86.9483 65.9319 86.8472 65.5356 86.8261C65.1393 86.8049 64.7428 86.8642 64.37 87.0003C64.325 87.0143 59.136 88.4653 59.136 88.4653C58.7877 88.5576 58.4673 88.7341 58.2031 88.9793C57.939 89.2245 57.7391 89.5308 57.621 89.8713C57.494 90.2094 57.4303 90.5681 57.433 90.9293C57.4281 91.5184 57.593 92.0965 57.908 92.5943C58.1177 92.8848 58.3683 93.1435 58.652 93.3623C58.7923 93.4635 58.9173 93.5844 59.023 93.7213C59.029 93.8053 59.063 94.0803 59.113 94.4873C57.3639 92.5306 54.9566 91.2849 52.349 90.9873C44.389 90.3873 41.18 95.0103 39.972 97.8163C39.1738 99.7366 38.7691 101.798 38.782 103.877C38.6912 106.245 39.3017 108.588 40.537 110.61C37.764 112.568 34.522 112.19 30.885 109.429C27.607 106.945 26.506 102.57 26.185 100.806C26.0585 100.086 25.9966 99.3557 26 98.6243C25.9692 95.9024 26.7023 93.2264 28.116 90.9003C28.9298 89.7891 30.0151 88.9052 31.268 88.3333C31.268 88.4253 31.258 88.5083 31.258 88.6083C31.21 90.1314 31.6729 91.6267 32.573 92.8563C33.2254 93.6014 34.0395 94.1876 34.953 94.5701C35.8665 94.9526 36.8554 95.1213 37.844 95.0633C40.971 95.1143 43.216 93.5883 43.999 90.8713C44.533 89.2008 44.5435 87.4069 44.029 85.7303L49.229 88.1523L49.279 88.1673C50.0105 88.3768 50.7916 88.3296 51.4926 88.0336C52.1936 87.7376 52.7721 87.2107 53.132 86.5403C53.3631 86.1338 53.4809 85.6728 53.473 85.2053C53.473 83.3723 51.934 81.3413 51.36 80.6493C51.244 78.4083 50.397 62.4073 50.397 58.7143C50.397 57.2683 50.678 56.7493 50.788 56.6693C50.961 56.6813 51.625 57.0483 52.682 58.6543C54.024 60.7003 58.046 68.0923 60.982 73.4873C63.146 77.4673 64.387 79.7403 64.672 80.1593C64.709 80.2133 67.653 84.3243 69.46 86.2913C69.1704 86.4899 68.9346 86.7571 68.7735 87.0691C68.6124 87.3811 68.5312 87.7282 68.537 88.0793C68.5367 88.249 68.5517 88.4183 68.582 88.5853M57.682 109.067C55.147 112.167 50.747 113.22 44.956 112.123C44.7767 112.089 44.5911 112.119 44.4316 112.208C44.272 112.296 44.1487 112.438 44.083 112.608C42.983 115.424 37.41 118.147 30.866 117.708C27.034 117.452 17.818 115.615 15.006 104.082C13.412 97.5373 15.89 86.0013 24.55 82.2593C32.15 78.9743 36.917 81.3593 38.485 82.1413C42.247 84.0223 43.556 86.7413 42.493 90.4323C41.748 93.0143 39.568 93.5203 37.87 93.4923C37.1148 93.548 36.3567 93.4329 35.6521 93.1554C34.9474 92.8778 34.3144 92.4451 33.8 91.8893C32.37 90.0893 32.93 87.3203 32.938 87.2893C32.9655 87.157 32.9586 87.0199 32.918 86.891C32.8774 86.7622 32.8044 86.6459 32.706 86.5533C32.6081 86.4613 32.488 86.3962 32.3575 86.3643C32.2269 86.3324 32.0904 86.3348 31.961 86.3713C29.9047 87.0076 28.1048 88.283 26.823 90.0123C24.7985 93.3224 24.0239 97.2472 24.639 101.078C24.995 103.025 26.217 107.854 29.939 110.678C34.457 114.102 38.69 114.331 42.188 111.332C42.2725 111.26 42.3405 111.171 42.3875 111.07C42.4344 110.97 42.4591 110.86 42.46 110.749C42.4622 110.638 42.4408 110.528 42.3972 110.426C42.3536 110.324 42.2887 110.232 42.207 110.157C40.535 108.641 39.367 103.191 41.407 98.4323C42.68 95.4723 45.59 92.0513 52.226 92.5473C53.6754 92.7056 55.0618 93.2253 56.2581 94.0587C57.4544 94.8921 58.4223 96.0126 59.073 97.3173C60.389 100.55 60.512 105.605 57.673 109.068M66.703 105.251C65.8133 105.306 64.9261 105.111 64.1416 104.688C63.3571 104.264 62.7067 103.63 62.264 102.856C61.621 101.508 60.68 94.7843 60.571 93.5733C60.5238 93.2858 60.4173 93.0112 60.2582 92.7671C60.0991 92.523 59.891 92.3146 59.647 92.1553C59.4818 92.0301 59.333 91.8846 59.204 91.7223C59.0629 91.4824 58.9922 91.2075 59 90.9293C58.9974 90.7589 59.0258 90.5895 59.084 90.4293C59.1154 90.3216 59.1739 90.2237 59.2539 90.1451C59.3339 90.0665 59.4328 90.0097 59.541 89.9803L64.814 88.5003C64.8414 88.4933 64.8685 88.485 64.895 88.4753C65.2405 88.3507 65.6209 88.3651 65.956 88.5153C66.181 88.6852 66.3695 88.8987 66.5102 89.143C66.6509 89.3873 66.741 89.6574 66.775 89.9373L67.051 91.2143C67.617 93.8353 68.151 96.3143 68.774 98.7493C68.8416 98.9837 68.9977 99.1827 69.2094 99.304C69.421 99.4253 69.6716 99.4595 69.908 99.3993C70.1932 99.3649 70.4546 99.2231 70.6389 99.0028C70.8232 98.7824 70.9166 98.5001 70.9 98.2133C70.557 94.8133 70.369 91.8233 70.258 90.0373C70.197 89.0613 69.702 87.9113 70.836 87.3433C71.0626 87.2522 71.2939 87.1734 71.529 87.1073C73.3007 86.7467 75.1093 86.5999 76.916 86.6703C77.0415 86.6797 77.1634 86.7162 77.2734 86.7773C77.3834 86.8384 77.4788 86.9227 77.553 87.0243C77.6954 87.1905 77.7672 87.4059 77.753 87.6243C77.693 87.8653 77.063 88.4053 76.761 88.6653C76.4236 88.9188 76.1269 89.2223 75.881 89.5653C75.728 89.8193 75.445 90.2923 76.56 98.2093C76.5786 98.3479 76.635 98.4787 76.723 98.5873C77.3434 99.3228 77.8841 100.122 78.336 100.971C78.561 101.953 78.72 102.663 76.785 103.337L75.585 103.781C74.273 104.281 72.636 104.91 72.01 104.539C71.8977 104.445 71.8072 104.328 71.7447 104.196C71.6822 104.063 71.6492 103.919 71.648 103.772C71.6265 103.62 71.5609 103.478 71.4595 103.363C71.358 103.248 71.2251 103.166 71.0772 103.125C70.9292 103.085 70.7727 103.089 70.627 103.136C70.4812 103.184 70.3526 103.273 70.257 103.393C69.8796 103.985 69.3538 104.468 68.7319 104.794C68.11 105.12 67.4137 105.278 66.712 105.251M70.732 105.476C70.576 105.519 70.424 105.563 70.271 105.61C70.381 105.519 70.496 105.424 70.608 105.318C70.647 105.373 70.689 105.424 70.732 105.476ZM167.132 119.64L167.126 119.646C159.526 126.13 145.26 126.1 145.115 126.1H144.632L144.412 126.529C136.983 141.018 121.854 149.814 101.82 151.298C86.42 152.442 70.486 148.698 63.062 142.189C59.1699 138.935 56.5331 134.427 55.605 129.439C54.605 124.116 55.405 116.402 64.862 109.868C76.903 101.548 97.862 108.174 110.89 113.058C111.278 113.233 111.62 113.371 111.878 113.458C111.972 113.492 112.068 113.515 112.163 113.54C113.399 114.009 114.552 114.458 115.605 114.867C118.292 115.91 120.412 116.734 121.713 117.083C128.979 119.032 141.463 121.761 143.413 118.151C143.413 118.151 143.784 117.535 143.724 117.309C143.664 117.083 142.8 117 142.8 117C139.452 116.68 137.959 113.014 137.793 111.391C137.761 110.22 137.871 109.05 138.121 107.905C138.531 105.48 138.957 102.971 137.283 101.695C136.373 101.002 135.983 100.295 136.183 99.7063C136.271 99.4766 136.423 99.2771 136.621 99.1319C136.819 98.9867 137.056 98.9021 137.301 98.8883C139.978 98.998 142.614 99.5778 145.09 100.601C145.735 100.845 146.116 101.14 146.219 101.476C146.436 102.227 145.493 103.495 144.805 104.419C144.374 104.997 142.366 108.304 143.505 110.855C143.631 111.152 143.815 111.421 144.045 111.647C144.275 111.873 144.548 112.052 144.847 112.172C145.212 112.314 145.609 112.353 145.995 112.286C146.381 112.219 146.741 112.049 147.037 111.792C148.158 110.264 149.141 108.639 149.973 106.936C150.4 105.99 150.516 104.933 150.305 103.917C150.179 103.281 150.182 102.626 150.314 101.99C150.342 101.867 150.408 101.718 150.695 101.59C152.511 100.771 158.263 102.14 159.255 103.197C159.81 103.79 158.593 104.341 158.014 104.664C156.821 105.175 155.788 105.999 155.025 107.049L152.811 111.392C151.334 114.298 149.665 117.592 148.957 118.892L148.348 120C153.08 120.154 157.718 118.661 161.471 115.776C168.031 110.922 168.771 105.848 168.232 102.449C167.247 96.1963 161.532 91.2923 158.61 90.3043L157.576 89.9543V91.0463C157.581 91.4052 157.508 91.7608 157.362 92.0888C157.217 92.4168 157.002 92.7094 156.732 92.9463C156.291 93.3014 155.782 93.5608 155.235 93.708C154.689 93.8552 154.117 93.887 153.558 93.8013C150.9 93.5013 149.831 89.7493 149.569 88.6013L149.349 87.6543L147.925 88.3273C147.015 88.7853 145.491 89.5533 141.31 89.5743C141.037 89.5766 140.764 89.5582 140.493 89.5193C140.28 89.2789 140.018 89.0868 139.725 88.9557C139.432 88.8246 139.114 88.7577 138.793 88.7593C138.6 88.7533 138.414 88.7363 138.229 88.7133C135.295 87.0133 133.096 83.0843 131.873 79.3403C130.342 74.6473 131.53 65.7403 134.228 61.6943C136.907 57.6813 141.628 56.6883 146.875 59.0383C152.906 61.7383 153.161 68.6513 153.262 71.2503L153.271 71.4813C153.309 71.7529 153.29 72.0294 153.218 72.2938C153.145 72.5582 153.019 72.8051 152.848 73.0193C152.244 73.4862 151.48 73.6967 150.722 73.6053C149.953 73.6053 148.331 73.3923 146.76 73.1873C145.139 72.9242 143.502 72.7702 141.86 72.7263C141.285 72.689 140.71 72.7964 140.187 73.0385C139.664 73.2806 139.21 73.6497 138.866 74.1123C138.243 75.1823 138.459 76.7383 139.526 78.8693C139.758 79.5746 140.154 80.2143 140.683 80.7354C141.212 81.2564 141.857 81.6437 142.566 81.865C143.274 82.0862 144.026 82.1351 144.757 82.0075C145.488 81.8799 146.178 81.5795 146.77 81.1313C148.003 80.3491 149.143 79.4303 150.17 78.3923C150.573 77.9925 151.001 77.6178 151.45 77.2703C151.664 77.2276 151.886 77.2371 152.096 77.2978C152.305 77.3585 152.498 77.4688 152.656 77.6193C153.276 78.1863 153.462 79.2823 153.184 80.7073L152.901 82.1483L154.259 81.5813C157.599 80.1813 160.916 81.6293 163.113 83.0893C169.29 87.2003 174.313 96.2283 174.313 103.215C174.313 113.51 169.098 117.963 167.135 119.638" fill="#2E2C31"/>
<path d="M147.246 69.9881C147.154 70.1746 147.113 70.3816 147.125 70.589C147.138 70.7963 147.204 70.9969 147.317 71.1711C147.638 71.5103 148.03 71.775 148.465 71.9465C148.899 72.1181 149.366 72.1923 149.833 72.1641C150.121 72.1859 150.411 72.1449 150.683 72.0437C150.954 71.9425 151.2 71.7837 151.404 71.5781C151.946 70.9621 152.111 69.8401 151.897 68.1451C151.487 64.8721 149.383 61.0451 146.161 60.0521L145.426 59.8291L145.838 60.4781C146.605 61.6851 148.976 65.9411 147.246 69.9881Z" fill="#2E2C31"/>
<path d="M155.914 104.569C157.308 104.149 156.832 103.669 156.698 103.493C156.564 103.317 152.698 102.309 152.274 102.554C151.44 103.042 152.306 103.684 151.942 105.265C150.905 107.859 149.688 110.377 148.299 112.801C147.712 113.681 145.932 117.219 141.899 123.871C137.487 131.56 130.748 137.65 122.652 141.262C113.03 145.662 101.611 146.93 88.6041 145.719C65.4851 143.561 64.5681 128.081 64.5681 128.081C64.5681 128.081 62.9371 121.576 66.9211 116.718C70.0271 112.927 75.3571 108.451 88.6841 109.342C91.2771 109.514 95.3671 110.234 98.9451 110.805C94.7793 109.041 90.4031 107.823 85.9251 107.18C80.6381 106.58 74.8061 106.78 70.7751 108.094C64.1571 110.255 56.6441 117.365 56.7751 125.838C57.1021 146.218 84.3341 151.428 100.55 150.224C110.235 149.502 118.291 147.545 124.445 144.403C133.982 139.54 139.496 132.287 143.596 125.861C147.132 120.149 150.295 114.214 153.064 108.094C153.85 106.626 154.928 104.865 155.909 104.569" fill="#2E2C31"/>
<path d="M72.3064 113.456C68.4914 115.31 65.9344 120.106 65.9434 125.386C65.9584 131.952 69.6784 137.499 76.1434 140.608C93.1604 148.787 125.201 147.179 138.724 125.983L139.37 124.972L138.186 124.788C128.624 123.294 121.386 120.448 113.001 117.153C110.275 116.083 107.459 114.975 104.375 113.838C91.6324 109.138 81.4414 109.015 72.3024 113.456M112.429 118.613C120.541 121.799 127.614 124.555 136.74 126.121C130.779 134.772 120.755 140.668 108.348 142.762C97.3484 144.618 85.2664 143.252 76.8264 139.197C70.9194 136.356 67.5264 131.324 67.5124 125.382V125.353C67.5124 120.67 69.7124 116.46 72.9924 114.865C81.7194 110.624 91.5204 110.765 103.837 115.31C106.906 116.441 109.714 117.544 112.429 118.61" fill="#2E2C31"/>
<path d="M53.673 102.052C53.493 99.3391 52.632 96.9951 51.425 95.9381C51.2115 95.7228 50.9543 95.5559 50.6707 95.4486C50.3872 95.3413 50.0839 95.2961 49.7814 95.3161C49.4789 95.3361 49.1842 95.4209 48.9172 95.5646C48.6503 95.7083 48.4173 95.9076 48.234 96.1491C47.177 97.3561 46.634 99.7921 46.813 102.507C46.992 105.222 47.854 107.564 49.061 108.62C49.2796 108.828 49.5374 108.99 49.8193 109.097C50.1012 109.204 50.4016 109.254 50.703 109.244C51.744 109.173 52.61 108.301 53.144 106.786C53.6284 105.258 53.8081 103.65 53.673 102.052ZM50.6 107.677C50.4071 107.664 50.226 107.579 50.092 107.44C49.363 106.8 48.549 105 48.375 102.4C48.201 99.8001 48.775 97.9081 49.415 97.1771C49.5307 97.0226 49.6989 96.9159 49.888 96.8771C50.0794 96.8922 50.259 96.9756 50.394 97.1121C51.125 97.7541 51.939 99.5591 52.111 102.151C52.132 102.46 52.139 102.756 52.139 103.051C52.139 105.805 51.273 107.633 50.602 107.678" fill="#2E2C31"/>
<path d="M70.6606 100.981C70.5666 100.658 70.2296 100.316 69.1666 100.528C68.7106 100.619 68.0506 100.574 67.5666 99.138C66.9973 97.1283 66.5741 95.0799 66.3006 93.009L66.0686 91.586C65.7886 90.001 65.5116 89.738 65.1156 89.518L65.0406 89.47C64.5216 89.147 61.6966 90.151 60.8246 90.641C60.6733 90.7509 60.5532 90.8984 60.4762 91.0688C60.3993 91.2393 60.368 91.4268 60.3856 91.613C60.3885 91.8262 60.4529 92.0339 60.571 92.2113C60.6892 92.3888 60.8561 92.5282 61.0516 92.613C61.2552 92.6926 61.4279 92.8352 61.5447 93.02C61.6614 93.2048 61.7161 93.422 61.7006 93.64V93.664V93.684C62.0006 95.132 62.2486 96.901 62.4696 98.464C62.5831 99.5759 62.7735 100.679 63.0396 101.764C63.2127 102.244 63.4823 102.684 63.8317 103.056C64.1811 103.428 64.603 103.725 65.0714 103.928C65.5399 104.131 66.0448 104.236 66.5553 104.236C67.0658 104.236 67.5709 104.132 68.0396 103.93C69.4046 103.391 70.9176 101.862 70.6546 100.98" fill="#2E2C31"/>
<path d="M38.2326 114.381C36.1569 114.776 34.0086 114.462 32.1326 113.49C19.5106 107.49 22.1516 94.2013 24.4786 90.7503C28.6426 84.5813 34.9936 84.3423 35.3296 85.5503C35.5976 86.5183 34.4986 87.1283 34.4236 88.6003C34.2476 92.0923 40.7926 93.6943 40.6156 87.6313C40.5036 83.8753 34.6526 79.3313 24.6266 83.8413C17.5566 87.0193 9.4006 104.415 23.9626 114.307C28.1976 117.186 33.9936 116.949 36.6686 116.414C39.3616 115.877 40.2386 113.914 38.2326 114.381Z" fill="#2E2C31"/>
<path d="M83.5184 83.7662C85.3664 83.4052 88.9434 83.5082 89.6454 85.1852C90.3454 84.9302 90.2454 84.5652 89.9784 84.0952C89.6304 83.4792 88.6424 81.4952 88.6424 81.4952C88.6424 81.4952 88.5164 63.2252 88.6424 61.1702C88.7714 58.9842 87.7574 58.9492 87.7574 58.9492H83.1504C81.6834 58.9492 82.4344 60.1932 82.4344 60.1932C82.9272 60.8371 83.2949 61.5678 83.5184 62.3472V81.5472C80.2734 84.5782 83.5184 83.7642 83.5184 83.7642" fill="#2E2C31"/>
<path d="M47.3787 108.873C46.4567 107.842 45.9017 106.262 45.5397 103.702C44.6907 97.7016 48.1957 95.6306 47.6317 94.6776C47.0317 93.6606 43.0457 95.9086 41.8617 101.271C41.5017 102.896 40.7477 108.552 45.7907 110.81C47.3787 111.52 51.2837 111.123 51.2167 110.428C51.1577 109.803 48.7677 110.428 47.3787 108.873Z" fill="#2E2C31"/>
<path d="M71.4566 84.0874C72.2836 85.1084 72.7566 83.9684 72.7566 83.9684C72.7566 83.9684 70.6646 80.0134 70.6626 78.3114C70.6416 69.6164 70.5816 42.9644 70.5816 41.6694C70.5816 39.4984 72.8226 39.0244 72.8226 38.0564C72.8226 37.0884 60.8756 36.7854 60.8756 37.9154C60.8756 38.6794 63.2826 40.4604 63.2826 41.6694C63.2826 42.8784 63.8716 65.6294 63.3146 66.1504C62.6146 66.8044 61.4666 65.3404 60.9396 64.8124C60.4126 64.2844 58.8326 64.1504 60.0006 65.8284C60.5686 66.6424 66.6186 79.3664 71.4556 84.0874" fill="#2E2C31"/>
<path d="M71.473 90.9247C71.599 91.8997 72.184 97.2787 72.191 97.3337C72.248 97.712 72.2767 98.0941 72.277 98.4767C72.3087 99.1698 72.1588 99.8593 71.842 100.477C71.6564 100.751 71.5495 101.07 71.533 101.401C71.5289 101.605 71.5938 101.804 71.717 101.967C72.334 102.783 74.16 102.528 75.039 102.281C76.274 101.934 76.812 101.65 77.017 101.238C77.0736 101.115 77.1029 100.981 77.1029 100.845C77.1029 100.71 77.0736 100.576 77.017 100.453C76.8593 100.125 76.6284 99.8379 76.342 99.6137C76.0131 99.378 75.7732 99.0384 75.661 98.6497C75.539 97.8557 74.879 91.9797 74.879 91.0497C74.835 90.697 74.8755 90.339 74.9972 90.0051C75.1189 89.6713 75.3183 89.3712 75.579 89.1297C75.7424 89.0082 75.8684 88.8434 75.9428 88.6539C76.0172 88.4644 76.0371 88.2578 76 88.0577C75.938 87.7477 75.515 87.4677 74.812 87.5317C73.9224 87.5765 73.0398 87.7125 72.178 87.9377C71.8846 88.0417 71.6365 88.2446 71.4763 88.5115C71.3161 88.7784 71.2538 89.0928 71.3 89.4007C71.3105 89.7695 71.3473 90.1371 71.41 90.5007L71.473 90.9247Z" fill="#2E2C31"/>
<path d="M51.7306 94.2567C51.4586 94.7237 51.8126 95.0437 52.6656 95.8637C56.4886 99.5307 54.1286 107.224 53.6506 108.256C52.9716 109.734 50.9506 110.756 53.8026 110.098C55.6286 109.675 58.3206 105.638 58.6356 103.14C59.5426 95.8667 52.5876 92.7937 51.7356 94.2567" fill="#2E2C31"/>
<path d="M90.8992 89.086C89.9842 90.042 88.6162 91.042 87.7042 90.545C87.2042 90.272 86.7392 90.121 86.9042 89.022C87.1742 87.198 86.0552 87.258 84.6192 87.322C83.2452 87.385 82.5282 87.385 82.4632 88.302C82.3982 89.219 83.0182 89.149 83.0182 90.163C83.0182 91.177 82.8432 98.398 82.7182 99.275C82.5722 100.353 80.8102 101.281 85.5602 101.475C88.2432 101.586 87.1282 100.332 87.0962 99.533C86.9839 98.1423 86.9619 96.7457 87.0302 95.352C87.1762 94.422 87.4012 92.523 89.0682 92.178C89.8731 91.998 90.7142 92.0748 91.4732 92.3977C92.2321 92.7206 92.8708 93.2733 93.2992 93.978C94.5179 95.9447 95.3969 98.1026 95.8992 100.361C95.9992 101.536 94.2252 102.538 96.4702 103.451C98.3942 104.233 102.46 106.239 102.616 105.514C102.876 104.323 102.23 104.263 101.249 103.099C99.5682 101.099 95.8912 92.894 94.5392 90.32C93.7392 88.797 91.7842 88.154 90.8952 89.077" fill="#2E2C31"/>
</g>
<defs>
<clipPath id="clip0_20_2012">
<rect width="188" height="188" fill="white"/>
</clipPath>
</defs>
</svg>
