<svg width="188" height="188" viewBox="0 0 188 188" fill="none" xmlns="http://www.w3.org/2000/svg">
<g clip-path="url(#clip0_20_2010)">
<path d="M51.4664 125.346C51.1664 124.646 51.3424 124.202 52.2664 123.54C52.562 123.251 52.9535 123.081 53.3664 123.062C53.6924 122.939 53.6054 123.132 54.1764 122.918C54.5104 122.798 54.5104 122.882 55.1874 122.831C55.3948 122.723 55.6153 122.643 55.8434 122.592C56.3744 122.423 56.8944 122.222 56.8944 122.222C56.8944 122.222 57.0294 122.084 57.5394 122.136C57.9724 121.964 58.4184 121.695 58.6394 121.621C58.5824 120.93 58.6574 120.965 58.9744 120.687C59.3684 120.346 59.4394 120.403 59.7364 120.613C59.8604 120.541 59.9174 120.519 59.9044 120.413C59.8534 120.059 59.5484 119.893 59.6434 119.113C59.4772 118.826 59.3778 118.505 59.3524 118.174C59.4124 117.917 59.4794 117.799 59.6314 117.716C59.7834 117.633 59.8484 117.747 59.9314 117.846C60.0643 118.067 60.16 118.309 60.2144 118.562C60.2724 119.171 60.4604 119.955 61.0634 119.513C61.4154 119.154 61.4824 118.2 62.2064 118.404L62.7214 118.854C62.9321 118.628 63.1739 118.434 63.4394 118.277C63.4394 118.277 63.0334 117.862 63.3874 117.543C63.774 117.256 64.1329 116.933 64.4594 116.579C65.6018 115.273 66.8585 114.072 68.2144 112.99C70.9171 110.808 73.9255 109.034 77.1434 107.726C77.4871 107.218 77.9453 106.799 78.481 106.501C79.0167 106.203 79.6149 106.035 80.2274 106.011C81.9349 103.378 84.1479 101.109 86.7384 99.3378C87.4384 98.0798 87.7384 98.2158 88.6484 97.9628C89.3634 97.3848 89.5304 97.3848 89.8484 96.7818C90.1604 95.5368 89.1264 92.2158 91.7714 92.0458C92.088 91.5716 92.4375 91.1201 92.8174 90.6947C92.4693 89.8373 92.2285 88.9403 92.1004 88.0238C92.0834 87.9338 91.0514 87.2078 91.3454 86.2638C90.7698 85.5467 90.2635 84.7765 89.8334 83.9638C89.7188 83.953 89.6054 83.9322 89.4944 83.9018C89.3604 83.8888 89.1944 83.8918 89.0064 83.8738C88.9057 84.2337 88.7012 84.5558 88.4184 84.8C88.1356 85.0442 87.787 85.1996 87.4164 85.2467C86.1074 88.0297 85.6494 89.2088 81.9504 91.5118C81.0674 92.5085 80.4098 93.6839 80.0224 94.9578C79.8207 95.507 79.8108 96.1082 79.9944 96.6637C79.7944 97.2637 79.8504 97.3309 79.8504 97.3309C79.8922 97.4639 79.9629 97.586 80.0575 97.6885C80.1521 97.791 80.2681 97.8713 80.3974 97.9237C80.8404 98.0407 81.2864 98.0238 81.2624 98.5188C81.1984 99.1328 80.3904 99.0307 80.0054 98.9607C78.5304 98.7297 78.9914 97.7668 78.0494 98.0888C77.3244 98.5598 77.0494 99.9618 75.8694 99.7818C75.7114 99.6818 75.7624 99.3678 75.8694 99.1468C76.0364 98.8038 76.3304 98.5218 76.1554 98.3848C75.3904 98.6338 73.8444 99.1418 73.8444 99.1418C73.1214 99.3418 72.3254 98.9768 73.0444 98.5008C73.5306 98.3349 73.9958 98.1127 74.4304 97.8388C74.4304 97.8388 74.7304 97.4328 74.1564 97.6388C73.4403 97.8811 72.6836 97.9795 71.9294 97.9288C71.4037 97.8696 70.8827 97.7737 70.3704 97.6418C70.1914 97.5348 70.0264 97.1038 70.4574 97.1038C71.4642 97.0631 72.4639 96.9153 73.4394 96.6628C73.9504 96.4628 74.9274 95.8888 75.4764 95.6178C75.7309 95.2298 76.0405 94.8809 76.3954 94.5818C76.9404 93.9548 77.3954 93.5817 77.8794 92.9397C78.5721 91.2335 79.4179 89.5936 80.4064 88.0398C81.203 86.7777 82.1232 85.5978 83.1534 84.5177C83.4002 83.3137 84.0177 82.2171 84.9194 81.3818C85.302 80.523 85.7362 79.6882 86.2194 78.8818C86.4064 78.5608 86.5884 78.2819 86.7684 77.9819C87.2254 77.2619 87.7014 75.9318 89.4804 75.7257C89.8629 75.4459 90.2143 75.1258 90.5284 74.7708C90.9854 74.3708 90.8804 73.7708 91.2504 73.3468C90.6874 72.7958 89.2364 71.7578 89.0974 70.3168C89.0204 69.636 89.0995 68.9466 89.3285 68.3008C89.5576 67.6551 89.9306 67.0699 90.4194 66.5898C90.8434 66.1054 91.371 65.7227 91.963 65.4698C92.555 65.2169 93.1962 65.1003 93.8394 65.1288C94.3234 65.1558 94.7957 65.2884 95.2231 65.5173C95.6505 65.7461 96.0226 66.0658 96.3134 66.4538C96.8134 66.9658 97.0024 66.6379 97.2134 67.2319C98.5874 67.5999 98.5134 67.4318 98.5004 68.4518C98.8282 68.7421 99.0304 69.1482 99.0644 69.5848C99.433 68.6981 100.054 67.9394 100.85 67.4028C101.141 66.5398 101.34 65.7028 101.599 64.8418C101.836 64.0418 102.135 63.2257 102.367 62.6117C102.119 60.8787 102.628 60.5918 103.3 59.0708C103.183 58.8708 103.2 58.8008 103.259 58.4598C103.518 57.4538 103.928 56.1238 104.172 55.2598C104.198 55.1602 104.254 55.0712 104.333 55.0052C104.411 54.9391 104.509 54.8994 104.611 54.8918C104.918 53.7918 105.382 51.7498 105.457 51.3318C105.587 50.9818 105.642 50.6087 105.62 50.2362C105.597 49.8638 105.498 49.5 105.328 49.1678C105.292 48.9144 105.232 48.6649 105.149 48.4228C104.768 47.7548 104.354 46.8897 104.071 46.2627C103.689 45.4895 103.492 44.6376 103.497 43.7748C103.425 42.4171 103.882 41.0843 104.774 40.058C105.666 39.0317 106.922 38.3923 108.276 38.2748C108.903 38.2346 109.531 38.3102 110.13 38.4978L111.174 36.1558C99.3667 33.3148 86.9734 34.1418 75.6478 38.5265C64.3223 42.9112 54.603 50.6451 47.7866 60.6965C40.9701 70.7478 37.3806 82.6386 37.4969 94.7828C37.6132 106.927 41.4297 118.747 48.4374 128.666L51.9284 126.024C51.6464 125.642 51.4634 125.349 51.4634 125.349" fill="#FFAF61"/>
<path d="M108.281 38.2742C106.927 38.3916 105.671 39.0309 104.779 40.0572C103.887 41.0836 103.429 42.4165 103.502 43.7742C103.497 44.6369 103.693 45.4889 104.076 46.2621C104.359 46.8891 104.776 47.7541 105.154 48.4221C105.237 48.6643 105.297 48.9137 105.333 49.1671C105.503 49.4993 105.602 49.8631 105.624 50.2356C105.647 50.608 105.591 50.9811 105.462 51.3312C105.387 51.7492 104.923 53.7941 104.616 54.8911C104.514 54.8988 104.416 54.9385 104.337 55.0045C104.259 55.0705 104.203 55.1596 104.177 55.2591C103.933 56.1261 103.522 57.4591 103.264 58.4591C103.21 58.8011 103.188 58.8661 103.305 59.0701C102.632 60.5911 102.124 60.8781 102.372 62.6111C102.14 63.2261 101.84 64.0451 101.603 64.8411C101.344 65.6981 101.145 66.5411 100.854 67.4021C100.058 67.9387 99.4369 68.6975 99.0682 69.5841C99.0344 69.1476 98.8321 68.7413 98.5042 68.4512C98.5152 67.4332 98.5912 67.5991 97.2172 67.2311C97.0052 66.6361 96.8172 66.9651 96.3172 66.4531C96.0265 66.0651 95.6544 65.7454 95.227 65.5165C94.7996 65.2876 94.3273 65.1551 93.8432 65.1282C93.2001 65.0996 92.5588 65.2161 91.9667 65.469C91.3747 65.7219 90.8472 66.1047 90.4232 66.5891C89.9354 67.0687 89.5629 67.6529 89.3338 68.2975C89.1048 68.9421 89.0253 69.6303 89.1012 70.3102C89.2402 71.7512 90.6912 72.7891 91.2542 73.3401C90.8842 73.7661 90.9892 74.3682 90.5322 74.7642C90.2181 75.1191 89.8667 75.4392 89.4842 75.7191C87.7052 75.9251 87.2282 77.2551 86.7722 77.9751C86.5932 78.2751 86.4102 78.5571 86.2232 78.8751C85.74 79.6815 85.3059 80.5164 84.9232 81.3751C84.0216 82.2104 83.404 83.307 83.1572 84.5111C82.127 85.5911 81.2068 86.7709 80.4102 88.0331C79.4217 89.5868 78.5759 91.2268 77.8832 92.9331C77.4012 93.5761 76.9442 93.9481 76.3992 94.5751C76.0443 94.8741 75.7347 95.2231 75.4802 95.6111C74.9322 95.8821 73.9542 96.4591 73.4432 96.6561C72.4677 96.9084 71.468 97.0563 70.4612 97.0972C70.0302 97.0972 70.1952 97.5271 70.3742 97.6341C70.8866 97.766 71.4075 97.8619 71.9332 97.9211C72.6874 97.9719 73.4442 97.8733 74.1602 97.6311C74.7342 97.4311 74.4342 97.8312 74.4342 97.8312C73.9997 98.1052 73.5345 98.3274 73.0482 98.4932C72.3292 98.9702 73.1252 99.3311 73.8482 99.1341C73.8482 99.1341 75.3942 98.6251 76.1592 98.3771C76.3342 98.5141 76.0392 98.7962 75.8732 99.1392C75.7732 99.3602 75.7182 99.6702 75.8732 99.7742C77.0572 99.9542 77.3282 98.5522 78.0532 98.0812C78.9952 97.7592 78.5342 98.7221 80.0092 98.9531C80.3942 99.0231 81.2022 99.1241 81.2662 98.5111C81.2902 98.0171 80.8452 98.0331 80.4012 97.9161C80.272 97.8637 80.1559 97.7834 80.0613 97.6809C79.9668 97.5784 79.896 97.4562 79.8542 97.3231C79.8542 97.3231 79.8022 97.2591 79.9982 96.6561C79.8147 96.1006 79.8245 95.4993 80.0262 94.9501C80.4137 93.6762 81.0713 92.5009 81.9542 91.5041C85.6542 89.2041 86.1102 88.0221 87.4202 85.2391C87.7909 85.192 88.1394 85.0366 88.4222 84.7924C88.705 84.5481 88.9095 84.2259 89.0102 83.8661C89.1972 83.8841 89.3642 83.8802 89.4982 83.8942C89.6092 83.9247 89.7226 83.9454 89.8372 83.9562C90.2674 84.7689 90.7736 85.539 91.3492 86.2561C91.0552 87.2001 92.0872 87.9271 92.1042 88.0161C92.2323 88.9326 92.4731 89.8297 92.8212 90.6871C92.4414 91.1125 92.0919 91.5639 91.7752 92.0381C89.1302 92.2081 90.1642 95.5292 89.8522 96.7742C89.5312 97.3742 89.3642 97.3741 88.6522 97.9551C87.7432 98.2081 87.4382 98.0722 86.7422 99.3312C84.1517 101.103 81.9386 103.371 80.2312 106.004C79.6187 106.028 79.0205 106.196 78.4848 106.494C77.9491 106.792 77.4909 107.212 77.1472 107.719C73.9293 109.027 70.9209 110.801 68.2182 112.983C66.8624 114.065 65.6057 115.267 64.4632 116.572C64.1367 116.926 63.7779 117.249 63.3912 117.536C63.0372 117.856 63.4432 118.27 63.4432 118.27C63.1777 118.427 62.936 118.622 62.7252 118.847L62.2102 118.397C61.4862 118.197 61.4182 119.147 61.0672 119.506C60.4672 119.948 60.2752 119.164 60.2182 118.555C60.1638 118.302 60.0682 118.06 59.9352 117.838C59.8502 117.738 59.7962 117.62 59.6352 117.708C59.4742 117.796 59.4162 117.908 59.3562 118.166C59.3816 118.497 59.4811 118.818 59.6472 119.105C59.5472 119.89 59.8572 120.056 59.9082 120.405C59.9212 120.513 59.8642 120.536 59.7402 120.605C59.4402 120.395 59.3722 120.339 58.9782 120.679C58.6612 120.958 58.5862 120.922 58.6432 121.613C58.4192 121.687 57.9732 121.956 57.5432 122.128C57.0332 122.076 56.8982 122.214 56.8982 122.214C56.8982 122.214 56.3782 122.414 55.8472 122.584C55.6192 122.635 55.3987 122.716 55.1912 122.823C54.5142 122.875 54.5142 122.791 54.1802 122.911C53.6082 123.124 53.6962 122.932 53.3702 123.055C52.9575 123.074 52.566 123.244 52.2702 123.532C51.3462 124.193 51.1702 124.632 51.4702 125.338C51.4702 125.338 51.6532 125.631 51.9352 126.013C52.3131 126.547 52.7596 127.028 53.2632 127.445C53.6079 127.676 53.9949 127.836 54.4019 127.916C54.8088 127.997 55.2277 127.996 55.6342 127.913C56.0024 127.801 56.3519 127.636 56.6712 127.421C58.5072 126.583 58.6132 127.7 60.1352 127.176C60.3102 127.181 61.2802 126.433 61.2492 125.914C61.7792 125.946 61.6002 125.349 62.2902 124.858C63.4902 124.773 63.4902 123.612 63.9902 123.197C64.0902 123.112 64.1542 122.947 64.2842 122.903C64.9052 122.683 64.6042 122.788 64.9012 122.335C65.3462 121.826 65.4112 122.057 65.9232 121.607C66.1942 121.623 66.2572 121.754 66.9932 121.217C67.1782 121.082 67.3932 120.943 67.6732 120.704C68.6962 121.142 68.6592 120.904 69.1922 120.431C69.1922 120.431 69.8922 119.849 70.8132 119.157C72.0042 118.266 73.5352 117.172 73.9592 116.833C74.7092 116.6 76.3352 115.572 77.1742 115.172C79.1998 113.982 81.1422 112.656 82.9882 111.203C84.5472 110.642 87.4082 109.212 87.4082 109.212C88.4082 108.734 89.3882 108.276 90.2322 107.785C91.1702 107.248 92.0492 106.719 93.0082 106.204C94.0422 105.649 95.1572 105.111 96.3472 104.496C96.6599 104.326 97.022 104.271 97.3712 104.339C97.6229 104.44 97.8646 104.564 98.0932 104.71C99.0608 105.22 100.094 105.593 101.164 105.82C102.431 106.198 103.668 106.67 104.864 107.231C105.525 107.51 106.187 107.689 106.948 108.055C108.485 108.884 110.149 109.45 111.872 109.729C112.466 109.809 113.053 109.938 113.626 110.114C114.016 110.229 114.438 110.306 115.209 110.449C115.858 110.889 116.548 111.265 117.269 111.571C117.926 111.899 121.794 114.824 123.404 116.116C123.948 116.602 124.625 116.915 125.347 117.016C128.916 119.552 129.228 120.396 130.579 120.108L131.762 121.061C132.216 121.702 132.792 122.248 133.456 122.667C133.874 123.521 134.497 124.259 135.269 124.814C135.178 124.807 135.396 125.458 135.695 126.037C135.965 126.56 136.125 126.803 136.125 126.803C136.483 127.463 136.655 127.763 137.202 127.403C137.423 127.254 137.892 126.968 138.069 126.814C138.905 125.995 139.82 125.26 140.801 124.621C141.793 124.127 142.731 123.532 143.601 122.845C144.518 122.103 145.393 121.309 146.221 120.468C146.605 120.093 146.903 119.829 147.121 119.589C147.121 119.589 147.142 119.568 147.15 119.559C147.75 118.935 147.511 118.931 147.116 118.485C146.872 118.279 146.576 118.145 146.26 118.097C145.944 118.049 145.621 118.09 145.327 118.215C144.844 118.435 144.383 118.699 143.95 119.005C143.362 119.411 142.653 119.602 141.941 119.548C140.62 119.702 139.649 119.306 138.061 119.52C138.459 118.833 138.931 118.193 139.469 117.61C139.887 117.373 140.325 117.173 140.777 117.01C140.797 116.917 140.851 116.645 140.577 116.641C140.156 116.652 139.741 116.746 139.356 116.917C138.939 117.174 138.566 117.495 138.25 117.869C138.25 117.869 137.956 117.69 137.777 117.869C137.283 118.417 137.384 118.297 136.805 118.443C136.365 118.322 135.968 118.08 135.659 117.743C135.331 117.825 135.331 117.917 135.139 117.855C134.884 117.679 134.639 117.49 134.404 117.287C134.517 117.043 134.617 116.794 134.704 116.54C134.725 116.493 134.704 116.461 134.629 116.32C134.156 116.072 133.919 115.826 133.329 115.484C129.288 111.852 124.959 108.555 120.384 105.624C119.616 104.952 118.652 104.545 117.635 104.461C116.769 103.52 115.833 102.646 114.835 101.845C112.517 99.8661 109.707 98.8281 107.85 97.8451C109.172 95.9451 106.785 94.7381 105.83 94.3011L105.051 92.4681C105.916 89.1496 106.118 85.6929 105.645 82.2961C105.477 80.5401 104.345 79.8281 103.945 78.1151C103.545 76.4431 103.187 75.3401 103.566 73.7351C105.028 70.3071 104.872 69.9841 104.911 67.8241C105.257 67.0072 105.425 66.126 105.404 65.2391C106.072 63.6853 106.532 62.0502 106.773 60.3761C106.972 60.2608 107.142 60.1019 107.27 59.9114C107.399 59.7208 107.482 59.5036 107.514 59.2761C107.7 58.3247 107.838 57.3645 107.927 56.3992C107.946 55.9762 107.905 55.8892 107.751 55.7172C107.793 54.5072 108.089 52.2481 108.145 51.4831C108.193 51.3412 108.22 51.1929 108.225 51.0431C108.932 49.0581 107.899 49.1431 108.19 48.6841C108.271 48.6144 108.369 48.5687 108.474 48.5521C108.65 48.5611 108.825 48.5584 109 48.5441C110.351 48.4318 111.602 47.7923 112.484 46.7639C113.367 45.7355 113.808 44.401 113.714 43.0493C113.619 41.6977 112.996 40.4376 111.979 39.542C110.963 38.6464 109.634 38.1874 108.281 38.2642" fill="#4140B9"/>
<path d="M97.2242 29.5342C84.4296 29.5342 71.9222 33.3282 61.2838 40.4365C50.6455 47.5449 42.3539 57.6483 37.4575 69.469C32.5612 81.2897 31.2801 94.2969 33.7763 106.846C36.2724 119.395 42.4336 130.921 51.4808 139.969C60.528 149.016 72.0548 155.177 84.6036 157.673C97.1525 160.169 110.16 158.888 121.98 153.992C133.801 149.096 143.904 140.804 151.013 130.166C158.121 119.527 161.915 107.02 161.915 94.2251C161.915 77.0681 155.099 60.6138 142.967 48.4819C130.836 36.3501 114.381 29.5344 97.2242 29.5342ZM97.2242 153.953C84.2336 153.954 71.597 149.719 61.2298 141.891C50.8626 134.063 43.33 123.069 39.7738 110.574C36.2176 98.0798 36.8317 84.7668 41.523 72.6528C46.2143 60.5389 54.7271 50.2846 65.7709 43.4443C76.8147 36.604 89.7875 33.5506 102.723 34.7469C115.658 35.9433 127.851 41.3241 137.453 50.0739C147.055 58.8236 153.543 70.4653 155.933 83.2341C158.323 96.003 156.485 109.203 150.697 120.833C145.756 130.788 138.131 139.164 128.682 145.016C119.234 150.868 108.338 153.964 97.2242 153.953Z" fill="#4140B9"/>
<path d="M140.797 124.625C139.817 125.264 138.902 125.999 138.065 126.818C137.888 126.973 137.419 127.258 137.198 127.407C136.651 127.766 136.479 127.467 136.121 126.807C136.121 126.807 135.961 126.564 135.691 126.041C135.391 125.462 135.175 124.811 135.265 124.818C134.493 124.263 133.87 123.525 133.452 122.671C132.788 122.251 132.213 121.706 131.758 121.065L130.575 120.112C129.224 120.401 128.912 119.556 125.342 117.02C124.62 116.919 123.944 116.606 123.399 116.12C121.789 114.828 117.921 111.904 117.264 111.575C116.543 111.269 115.853 110.893 115.204 110.453C114.432 110.31 114.011 110.233 113.621 110.118C113.048 109.942 112.462 109.813 111.867 109.733C110.144 109.454 108.48 108.888 106.943 108.059C106.181 107.693 105.52 107.514 104.859 107.235C103.663 106.673 102.426 106.202 101.159 105.824C100.09 105.597 99.0568 105.223 98.0894 104.714C97.8608 104.568 97.6191 104.444 97.3675 104.344C97.0183 104.276 96.6562 104.331 96.3435 104.501C95.1535 105.117 94.0375 105.654 93.0045 106.21C92.0455 106.725 91.1665 107.254 90.2285 107.791C89.3845 108.282 88.4064 108.741 87.4044 109.219C87.4044 109.219 84.5434 110.649 82.9845 111.209C81.1385 112.662 79.196 113.988 77.1705 115.178C76.3315 115.578 74.7045 116.606 73.9555 116.839C73.5315 117.178 72.0005 118.272 70.8095 119.163C69.8845 119.855 69.1885 120.437 69.1885 120.437C68.6555 120.915 68.6885 121.148 67.6695 120.71C67.3875 120.949 67.1695 121.088 66.9895 121.223C66.2525 121.76 66.1895 121.629 65.9185 121.613C65.4065 122.063 65.3425 121.832 64.8965 122.341C64.5965 122.794 64.8965 122.689 64.2795 122.909C64.1485 122.953 64.0895 123.118 63.9855 123.203C63.4855 123.618 63.4855 124.779 62.2855 124.864C61.5945 125.355 61.7735 125.952 61.2445 125.92C61.2765 126.439 60.3055 127.187 60.1315 127.182C58.6085 127.706 58.5025 126.589 56.6665 127.428C56.3471 127.642 55.9976 127.808 55.6295 127.92C55.2229 128.002 54.8041 128.003 54.3972 127.923C53.9902 127.843 53.6032 127.682 53.2585 127.452C52.7549 127.035 52.3084 126.553 51.9305 126.02C51.9305 126.02 49.6025 127.773 48.4395 128.662C54.0556 136.625 61.5355 143.092 70.2262 147.499C78.917 151.906 88.5543 154.118 98.2969 153.944C108.04 153.769 117.591 151.212 126.118 146.496C134.645 141.78 141.889 135.049 147.215 126.89C145.679 125.79 144.034 124.697 142.381 123.716C141.876 124.056 141.346 124.359 140.796 124.623" fill="#3A8CFF"/>
<path d="M51.4664 125.346C51.1664 124.646 51.3424 124.202 52.2664 123.54C52.562 123.251 52.9535 123.081 53.3664 123.062C53.6924 122.939 53.6054 123.132 54.1764 122.918C54.5104 122.798 54.5104 122.882 55.1874 122.831C55.3948 122.723 55.6153 122.643 55.8434 122.592C56.3744 122.423 56.8944 122.222 56.8944 122.222C56.8944 122.222 57.0294 122.084 57.5394 122.136C57.9724 121.964 58.4184 121.695 58.6394 121.621C58.5824 120.93 58.6574 120.965 58.9744 120.687C59.3684 120.346 59.4394 120.403 59.7364 120.613C59.8604 120.541 59.9174 120.519 59.9044 120.413C59.8534 120.059 59.5484 119.893 59.6434 119.113C59.4772 118.826 59.3778 118.505 59.3524 118.174C59.4124 117.917 59.4794 117.799 59.6314 117.716C59.7834 117.633 59.8484 117.747 59.9314 117.846C60.0643 118.067 60.16 118.309 60.2144 118.562C60.2724 119.171 60.4604 119.955 61.0634 119.513C61.4154 119.154 61.4824 118.2 62.2064 118.404L62.7214 118.854C62.9321 118.628 63.1739 118.434 63.4394 118.277C63.4394 118.277 63.0334 117.862 63.3874 117.543C63.774 117.256 64.1329 116.933 64.4594 116.579C65.6018 115.273 66.8585 114.072 68.2144 112.99C70.9171 110.808 73.9255 109.034 77.1434 107.726C77.4871 107.218 77.9453 106.799 78.481 106.501C79.0167 106.203 79.6149 106.035 80.2274 106.011C81.9349 103.378 84.1479 101.109 86.7384 99.3378C87.4384 98.0798 87.7384 98.2158 88.6484 97.9628C89.3634 97.3848 89.5304 97.3848 89.8484 96.7818C90.1604 95.5368 89.1264 92.2158 91.7714 92.0458C92.088 91.5716 92.4375 91.1201 92.8174 90.6947C92.4693 89.8373 92.2285 88.9403 92.1004 88.0238C92.0834 87.9338 91.0514 87.2078 91.3454 86.2638C90.7698 85.5467 90.2635 84.7765 89.8334 83.9638C89.7188 83.953 89.6054 83.9322 89.4944 83.9018C89.3604 83.8888 89.1944 83.8918 89.0064 83.8738C88.9057 84.2337 88.7012 84.5558 88.4184 84.8C88.1356 85.0442 87.787 85.1996 87.4164 85.2467C86.1074 88.0297 85.6494 89.2088 81.9504 91.5118C81.0674 92.5085 80.4098 93.6839 80.0224 94.9578C79.8207 95.507 79.8108 96.1082 79.9944 96.6637C79.7944 97.2637 79.8504 97.3309 79.8504 97.3309C79.8922 97.4639 79.9629 97.586 80.0575 97.6885C80.1521 97.791 80.2681 97.8713 80.3974 97.9237C80.8404 98.0407 81.2864 98.0238 81.2624 98.5188C81.1984 99.1328 80.3904 99.0307 80.0054 98.9607C78.5304 98.7297 78.9914 97.7668 78.0494 98.0888C77.3244 98.5598 77.0494 99.9618 75.8694 99.7818C75.7114 99.6818 75.7624 99.3678 75.8694 99.1468C76.0364 98.8038 76.3304 98.5218 76.1554 98.3848C75.3904 98.6338 73.8444 99.1418 73.8444 99.1418C73.1214 99.3418 72.3254 98.9768 73.0444 98.5008C73.5306 98.3349 73.9958 98.1127 74.4304 97.8388C74.4304 97.8388 74.7304 97.4328 74.1564 97.6388C73.4403 97.8811 72.6836 97.9795 71.9294 97.9288C71.4037 97.8696 70.8827 97.7737 70.3704 97.6418C70.1914 97.5348 70.0264 97.1038 70.4574 97.1038C71.4642 97.0631 72.4639 96.9153 73.4394 96.6628C73.9504 96.4628 74.9274 95.8888 75.4764 95.6178C75.7309 95.2298 76.0405 94.8809 76.3954 94.5818C76.9404 93.9548 77.3954 93.5817 77.8794 92.9397C78.5721 91.2335 79.4179 89.5936 80.4064 88.0398C81.203 86.7777 82.1232 85.5978 83.1534 84.5177C83.4002 83.3137 84.0177 82.2171 84.9194 81.3818C85.302 80.523 85.7362 79.6882 86.2194 78.8818C86.4064 78.5608 86.5884 78.2819 86.7684 77.9819C87.2254 77.2619 87.7014 75.9318 89.4804 75.7257C89.8629 75.4459 90.2143 75.1258 90.5284 74.7708C90.9854 74.3708 90.8804 73.7708 91.2504 73.3468C90.6874 72.7958 89.2364 71.7578 89.0974 70.3168C89.0204 69.636 89.0995 68.9466 89.3285 68.3008C89.5576 67.6551 89.9306 67.0699 90.4194 66.5898C90.8434 66.1054 91.371 65.7227 91.963 65.4698C92.555 65.2169 93.1962 65.1003 93.8394 65.1288C94.3234 65.1558 94.7957 65.2884 95.2231 65.5173C95.6505 65.7461 96.0226 66.0658 96.3134 66.4538C96.8134 66.9658 97.0024 66.6379 97.2134 67.2319C98.5874 67.5999 98.5134 67.4318 98.5004 68.4518C98.8282 68.7421 99.0304 69.1482 99.0644 69.5848C99.433 68.6981 100.054 67.9394 100.85 67.4028C101.141 66.5398 101.34 65.7028 101.599 64.8418C101.836 64.0418 102.135 63.2257 102.367 62.6117C102.119 60.8787 102.628 60.5918 103.3 59.0708C103.183 58.8708 103.2 58.8008 103.259 58.4598C103.518 57.4538 103.928 56.1238 104.172 55.2598C104.198 55.1602 104.254 55.0712 104.333 55.0052C104.411 54.9391 104.509 54.8994 104.611 54.8918C104.918 53.7918 105.382 51.7498 105.457 51.3318C105.587 50.9818 105.642 50.6087 105.62 50.2362C105.597 49.8638 105.498 49.5 105.328 49.1678C105.292 48.9144 105.232 48.6649 105.149 48.4228C104.768 47.7548 104.354 46.8897 104.071 46.2627C103.689 45.4895 103.492 44.6376 103.497 43.7748C103.425 42.4171 103.882 41.0843 104.774 40.058C105.666 39.0317 106.922 38.3923 108.276 38.2748C108.903 38.2346 109.531 38.3102 110.13 38.4978L111.174 36.1558C99.3667 33.3148 86.9734 34.1418 75.6478 38.5265C64.3223 42.9112 54.603 50.6451 47.7866 60.6965C40.9701 70.7478 37.3806 82.6386 37.4969 94.7828C37.6132 106.927 41.4297 118.747 48.4374 128.666L51.9284 126.024C51.6464 125.642 51.4634 125.349 51.4634 125.349" fill="#E10033"/>
<path d="M108.281 38.2742C106.927 38.3916 105.671 39.0309 104.779 40.0572C103.887 41.0836 103.429 42.4165 103.502 43.7742C103.497 44.6369 103.693 45.4889 104.076 46.2621C104.359 46.8891 104.776 47.7541 105.154 48.4221C105.237 48.6643 105.297 48.9137 105.333 49.1671C105.503 49.4993 105.602 49.8631 105.624 50.2356C105.647 50.608 105.591 50.9811 105.462 51.3312C105.387 51.7492 104.923 53.7941 104.616 54.8911C104.514 54.8988 104.416 54.9385 104.337 55.0045C104.259 55.0705 104.203 55.1596 104.177 55.2591C103.933 56.1261 103.522 57.4591 103.264 58.4591C103.21 58.8011 103.188 58.8661 103.305 59.0701C102.632 60.5911 102.124 60.8781 102.372 62.6111C102.14 63.2261 101.84 64.0451 101.603 64.8411C101.344 65.6981 101.145 66.5411 100.854 67.4021C100.058 67.9387 99.4369 68.6975 99.0682 69.5841C99.0344 69.1476 98.8321 68.7413 98.5042 68.4512C98.5152 67.4332 98.5912 67.5991 97.2172 67.2311C97.0052 66.6361 96.8172 66.9651 96.3172 66.4531C96.0265 66.0651 95.6544 65.7454 95.227 65.5165C94.7996 65.2876 94.3273 65.1551 93.8432 65.1282C93.2001 65.0996 92.5588 65.2161 91.9667 65.469C91.3747 65.7219 90.8472 66.1047 90.4232 66.5891C89.9354 67.0687 89.5629 67.6529 89.3338 68.2975C89.1048 68.9421 89.0253 69.6303 89.1012 70.3102C89.2402 71.7512 90.6912 72.7891 91.2542 73.3401C90.8842 73.7661 90.9892 74.3682 90.5322 74.7642C90.2181 75.1191 89.8667 75.4392 89.4842 75.7191C87.7052 75.9251 87.2282 77.2551 86.7722 77.9751C86.5932 78.2751 86.4102 78.5571 86.2232 78.8751C85.74 79.6815 85.3059 80.5164 84.9232 81.3751C84.0216 82.2104 83.404 83.307 83.1572 84.5111C82.127 85.5911 81.2068 86.7709 80.4102 88.0331C79.4217 89.5868 78.5759 91.2268 77.8832 92.9331C77.4012 93.5761 76.9442 93.9481 76.3992 94.5751C76.0443 94.8741 75.7347 95.2231 75.4802 95.6111C74.9322 95.8821 73.9542 96.4591 73.4432 96.6561C72.4677 96.9084 71.468 97.0563 70.4612 97.0972C70.0302 97.0972 70.1952 97.5271 70.3742 97.6341C70.8866 97.766 71.4075 97.8619 71.9332 97.9211C72.6874 97.9719 73.4442 97.8733 74.1602 97.6311C74.7342 97.4311 74.4342 97.8312 74.4342 97.8312C73.9997 98.1052 73.5345 98.3274 73.0482 98.4932C72.3292 98.9702 73.1252 99.3311 73.8482 99.1341C73.8482 99.1341 75.3942 98.6251 76.1592 98.3771C76.3342 98.5141 76.0392 98.7962 75.8732 99.1392C75.7732 99.3602 75.7182 99.6702 75.8732 99.7742C77.0572 99.9542 77.3282 98.5522 78.0532 98.0812C78.9952 97.7592 78.5342 98.7221 80.0092 98.9531C80.3942 99.0231 81.2022 99.1241 81.2662 98.5111C81.2902 98.0171 80.8452 98.0331 80.4012 97.9161C80.272 97.8637 80.1559 97.7834 80.0613 97.6809C79.9668 97.5784 79.896 97.4562 79.8542 97.3231C79.8542 97.3231 79.8022 97.2591 79.9982 96.6561C79.8147 96.1006 79.8245 95.4993 80.0262 94.9501C80.4137 93.6762 81.0713 92.5009 81.9542 91.5041C85.6542 89.2041 86.1102 88.0221 87.4202 85.2391C87.7909 85.192 88.1394 85.0366 88.4222 84.7924C88.705 84.5481 88.9095 84.2259 89.0102 83.8661C89.1972 83.8841 89.3642 83.8802 89.4982 83.8942C89.6092 83.9247 89.7226 83.9454 89.8372 83.9562C90.2674 84.7689 90.7736 85.539 91.3492 86.2561C91.0552 87.2001 92.0872 87.9271 92.1042 88.0161C92.2323 88.9326 92.4731 89.8297 92.8212 90.6871C92.4414 91.1125 92.0919 91.5639 91.7752 92.0381C89.1302 92.2081 90.1642 95.5292 89.8522 96.7742C89.5312 97.3742 89.3642 97.3741 88.6522 97.9551C87.7432 98.2081 87.4382 98.0722 86.7422 99.3312C84.1517 101.103 81.9386 103.371 80.2312 106.004C79.6187 106.028 79.0205 106.196 78.4848 106.494C77.9491 106.792 77.4909 107.212 77.1472 107.719C73.9293 109.027 70.9209 110.801 68.2182 112.983C66.8624 114.065 65.6057 115.267 64.4632 116.572C64.1367 116.926 63.7779 117.249 63.3912 117.536C63.0372 117.856 63.4432 118.27 63.4432 118.27C63.1777 118.427 62.936 118.622 62.7252 118.847L62.2102 118.397C61.4862 118.197 61.4182 119.147 61.0672 119.506C60.4672 119.948 60.2752 119.164 60.2182 118.555C60.1638 118.302 60.0682 118.06 59.9352 117.838C59.8502 117.738 59.7962 117.62 59.6352 117.708C59.4742 117.796 59.4162 117.908 59.3562 118.166C59.3816 118.497 59.4811 118.818 59.6472 119.105C59.5472 119.89 59.8572 120.056 59.9082 120.405C59.9212 120.513 59.8642 120.536 59.7402 120.605C59.4402 120.395 59.3722 120.339 58.9782 120.679C58.6612 120.958 58.5862 120.922 58.6432 121.613C58.4192 121.687 57.9732 121.956 57.5432 122.128C57.0332 122.076 56.8982 122.214 56.8982 122.214C56.8982 122.214 56.3782 122.414 55.8472 122.584C55.6192 122.635 55.3987 122.716 55.1912 122.823C54.5142 122.875 54.5142 122.791 54.1802 122.911C53.6082 123.124 53.6962 122.932 53.3702 123.055C52.9575 123.074 52.566 123.244 52.2702 123.532C51.3462 124.193 51.1702 124.632 51.4702 125.338C51.4702 125.338 51.6532 125.631 51.9352 126.013C52.3131 126.547 52.7596 127.028 53.2632 127.445C53.6079 127.676 53.9949 127.836 54.4019 127.916C54.8088 127.997 55.2277 127.996 55.6342 127.913C56.0024 127.801 56.3519 127.636 56.6712 127.421C58.5072 126.583 58.6132 127.7 60.1352 127.176C60.3102 127.181 61.2802 126.433 61.2492 125.914C61.7792 125.946 61.6002 125.349 62.2902 124.858C63.4902 124.773 63.4902 123.612 63.9902 123.197C64.0902 123.112 64.1542 122.947 64.2842 122.903C64.9052 122.683 64.6042 122.788 64.9012 122.335C65.3462 121.826 65.4112 122.057 65.9232 121.607C66.1942 121.623 66.2572 121.754 66.9932 121.217C67.1782 121.082 67.3932 120.943 67.6732 120.704C68.6962 121.142 68.6592 120.904 69.1922 120.431C69.1922 120.431 69.8922 119.849 70.8132 119.157C72.0042 118.266 73.5352 117.172 73.9592 116.833C74.7092 116.6 76.3352 115.572 77.1742 115.172C79.1998 113.982 81.1422 112.656 82.9882 111.203C84.5472 110.642 87.4082 109.212 87.4082 109.212C88.4082 108.734 89.3882 108.276 90.2322 107.785C91.1702 107.248 92.0492 106.719 93.0082 106.204C94.0422 105.649 95.1572 105.111 96.3472 104.496C96.6599 104.326 97.022 104.271 97.3712 104.339C97.6229 104.44 97.8646 104.564 98.0932 104.71C99.0608 105.22 100.094 105.593 101.164 105.82C102.431 106.198 103.668 106.67 104.864 107.231C105.525 107.51 106.187 107.689 106.948 108.055C108.485 108.884 110.149 109.45 111.872 109.729C112.466 109.809 113.053 109.938 113.626 110.114C114.016 110.229 114.438 110.306 115.209 110.449C115.858 110.889 116.548 111.265 117.269 111.571C117.926 111.899 121.794 114.824 123.404 116.116C123.948 116.602 124.625 116.915 125.347 117.016C128.916 119.552 129.228 120.396 130.579 120.108L131.762 121.061C132.216 121.702 132.792 122.248 133.456 122.667C133.874 123.521 134.497 124.259 135.269 124.814C135.178 124.807 135.396 125.458 135.695 126.037C135.965 126.56 136.125 126.803 136.125 126.803C136.483 127.463 136.655 127.763 137.202 127.403C137.423 127.254 137.892 126.968 138.069 126.814C138.905 125.995 139.82 125.26 140.801 124.621C141.793 124.127 142.731 123.532 143.601 122.845C144.518 122.103 145.393 121.309 146.221 120.468C146.605 120.093 146.903 119.829 147.121 119.589C147.121 119.589 147.142 119.568 147.15 119.559C147.75 118.935 147.511 118.931 147.116 118.485C146.872 118.279 146.576 118.145 146.26 118.097C145.944 118.049 145.621 118.09 145.327 118.215C144.844 118.435 144.383 118.699 143.95 119.005C143.362 119.411 142.653 119.602 141.941 119.548C140.62 119.702 139.649 119.306 138.061 119.52C138.459 118.833 138.931 118.193 139.469 117.61C139.887 117.373 140.325 117.173 140.777 117.01C140.797 116.917 140.851 116.645 140.577 116.641C140.156 116.652 139.741 116.746 139.356 116.917C138.939 117.174 138.566 117.495 138.25 117.869C138.25 117.869 137.956 117.69 137.777 117.869C137.283 118.417 137.384 118.297 136.805 118.443C136.365 118.322 135.968 118.08 135.659 117.743C135.331 117.825 135.331 117.917 135.139 117.855C134.884 117.679 134.639 117.49 134.404 117.287C134.517 117.043 134.617 116.794 134.704 116.54C134.725 116.493 134.704 116.461 134.629 116.32C134.156 116.072 133.919 115.826 133.329 115.484C129.288 111.852 124.959 108.555 120.384 105.624C119.616 104.952 118.652 104.545 117.635 104.461C116.769 103.52 115.833 102.646 114.835 101.845C112.517 99.8661 109.707 98.8281 107.85 97.8451C109.172 95.9451 106.785 94.7381 105.83 94.3011L105.051 92.4681C105.916 89.1496 106.118 85.6929 105.645 82.2961C105.477 80.5401 104.345 79.8281 103.945 78.1151C103.545 76.4431 103.187 75.3401 103.566 73.7351C105.028 70.3071 104.872 69.9841 104.911 67.8241C105.257 67.0072 105.425 66.126 105.404 65.2391C106.072 63.6853 106.532 62.0502 106.773 60.3761C106.972 60.2608 107.142 60.1019 107.27 59.9114C107.399 59.7208 107.482 59.5036 107.514 59.2761C107.7 58.3247 107.838 57.3645 107.927 56.3992C107.946 55.9762 107.905 55.8892 107.751 55.7172C107.793 54.5072 108.089 52.2481 108.145 51.4831C108.193 51.3412 108.22 51.1929 108.225 51.0431C108.932 49.0581 107.899 49.1431 108.19 48.6841C108.271 48.6144 108.369 48.5687 108.474 48.5521C108.65 48.5611 108.825 48.5584 109 48.5441C110.351 48.4318 111.602 47.7923 112.484 46.7639C113.367 45.7355 113.808 44.401 113.714 43.0493C113.619 41.6977 112.996 40.4376 111.979 39.542C110.963 38.6464 109.634 38.1874 108.281 38.2642" fill="black"/>
<path d="M97.2242 29.5342C84.4296 29.5342 71.9222 33.3282 61.2838 40.4365C50.6455 47.5449 42.3539 57.6483 37.4575 69.469C32.5612 81.2897 31.2801 94.2969 33.7763 106.846C36.2724 119.395 42.4336 130.921 51.4808 139.969C60.528 149.016 72.0548 155.177 84.6036 157.673C97.1525 160.169 110.16 158.888 121.98 153.992C133.801 149.096 143.904 140.804 151.013 130.166C158.121 119.527 161.915 107.02 161.915 94.2251C161.915 77.0681 155.099 60.6138 142.967 48.4819C130.836 36.3501 114.381 29.5344 97.2242 29.5342ZM97.2242 153.953C84.2336 153.954 71.597 149.719 61.2298 141.891C50.8626 134.063 43.33 123.069 39.7738 110.574C36.2176 98.0798 36.8317 84.7668 41.523 72.6528C46.2143 60.5389 54.7271 50.2846 65.7709 43.4443C76.8147 36.604 89.7875 33.5506 102.723 34.7469C115.658 35.9433 127.851 41.3241 137.453 50.0739C147.055 58.8236 153.543 70.4653 155.933 83.2341C158.323 96.003 156.485 109.203 150.697 120.833C145.756 130.788 138.131 139.164 128.682 145.016C119.234 150.868 108.338 153.964 97.2242 153.953Z" fill="black"/>
<path d="M150.696 120.837C154.697 112.797 156.834 103.959 156.946 94.9794C157.059 85.9998 155.146 77.1103 151.348 68.9725C147.55 60.8348 141.966 53.6582 135.011 47.9769C128.057 42.2956 119.91 38.2558 111.178 36.1582L110.134 38.5002C111.287 38.8479 112.281 39.5889 112.944 40.5942C113.607 41.5996 113.896 42.8056 113.761 44.0021C113.626 45.1986 113.075 46.3097 112.205 47.1421C111.335 47.9745 110.201 48.4753 108.999 48.5573C108.824 48.5716 108.649 48.5743 108.473 48.5653C108.368 48.5819 108.27 48.6276 108.189 48.6973C107.898 49.1553 108.931 49.0713 108.224 51.0563C108.219 51.2061 108.192 51.3542 108.144 51.4962C108.089 52.2612 107.792 54.5202 107.75 55.7302C107.904 55.9022 107.945 55.9902 107.926 56.4122C107.837 57.3776 107.7 58.3379 107.513 59.2893C107.481 59.5168 107.398 59.734 107.269 59.9246C107.141 60.1151 106.971 60.274 106.772 60.3893C106.532 62.0634 106.071 63.6983 105.403 65.2522C105.424 66.1391 105.256 67.0203 104.91 67.8373C104.87 69.9973 105.026 70.3203 103.564 73.7483C103.186 75.3483 103.545 76.4563 103.943 78.1283C104.349 79.8413 105.478 80.5532 105.643 82.3092C106.116 85.7059 105.915 89.1626 105.049 92.4812L105.828 94.3142C106.782 94.7512 109.17 95.9563 107.847 97.8583C109.704 98.8363 112.514 99.8753 114.832 101.858C115.83 102.659 116.766 103.533 117.632 104.474C118.65 104.558 119.613 104.965 120.381 105.637C124.956 108.568 129.285 111.866 133.326 115.497C133.916 115.839 134.153 116.085 134.626 116.333C134.701 116.475 134.726 116.507 134.701 116.553C134.544 116.962 134.553 116.974 134.401 117.3C134.636 117.503 134.881 117.692 135.136 117.868C135.327 117.93 135.327 117.838 135.656 117.756C135.965 118.093 136.362 118.335 136.802 118.456C137.38 118.31 137.28 118.43 137.774 117.882C137.953 117.703 138.247 117.882 138.247 117.882C138.563 117.508 138.936 117.187 139.353 116.93C139.738 116.759 140.153 116.665 140.574 116.654C140.847 116.654 140.793 116.93 140.774 117.023C140.322 117.186 139.885 117.387 139.466 117.623C138.928 118.206 138.456 118.847 138.058 119.533C139.646 119.319 140.617 119.714 141.938 119.561C142.65 119.615 143.359 119.424 143.947 119.018C144.38 118.712 144.841 118.448 145.323 118.228C145.617 118.104 145.94 118.063 146.256 118.11C146.572 118.158 146.868 118.292 147.112 118.498C147.507 118.944 147.745 118.948 147.146 119.572L147.116 119.602C146.901 119.842 146.603 120.102 146.216 120.481C145.388 121.322 144.514 122.116 143.596 122.858C143.196 123.166 142.782 123.458 142.377 123.727C144.03 124.708 145.677 125.799 147.211 126.901C148.488 124.951 149.65 122.928 150.69 120.842" fill="#BD7517"/>
</g>
<defs>
<clipPath id="clip0_20_2010">
<rect width="188" height="188" fill="white"/>
</clipPath>
</defs>
</svg>
