<svg width="188" height="188" viewBox="0 0 188 188" fill="none" xmlns="http://www.w3.org/2000/svg">
<g clip-path="url(#clip0_20_2000)">
<path d="M165.874 152.523C165.03 152.317 164.175 152.154 163.314 152.036C164.151 151.301 164.846 150.42 165.367 149.436C166.008 148.044 166.349 146.533 166.367 145C166.497 143.172 166.616 141.337 166.651 139.5C166.678 138.1 166.791 136.554 165.94 135.477C167.608 132.412 168.49 128.982 168.508 125.493C168.475 125.181 168.37 124.881 168.201 124.616C168.031 124.352 167.803 124.131 167.533 123.97C167.97 119.888 167.869 115.767 167.233 111.711C166.896 109.467 166.233 107.285 165.265 105.233C165.18 105.061 165.051 104.886 164.984 104.707C164.884 104.426 164.834 104.025 164.749 103.707C164.532 103.16 164.367 102.594 164.254 102.016C164.296 101.514 164.391 101.017 164.537 100.534C164.651 99.9481 164.756 99.3604 164.852 98.7711C165.043 97.5884 165.201 96.4008 165.324 95.2081C165.771 90.8571 165.724 86.4694 165.182 82.1291C164.202 74.2464 161.631 66.645 157.624 59.7861C149.578 46.1496 136.507 36.2101 121.216 32.1001C113.228 29.9679 104.895 29.4512 96.7051 30.5801C80.9081 32.7296 66.5978 41.0266 56.8841 53.6681C51.8421 60.2083 48.2461 67.7444 46.3336 75.778C44.4211 83.8115 44.2359 92.1596 45.7901 100.27C46.1603 102.218 46.6309 104.145 47.2001 106.044C46.8992 106.179 46.5852 106.283 46.2631 106.353C46.1546 106.379 46.0525 106.427 45.9631 106.494C45.7457 106.624 45.5654 106.807 45.4393 107.026C45.3133 107.246 45.2457 107.494 45.2432 107.747C45.2407 108 45.3033 108.25 45.425 108.471C45.5467 108.693 45.7233 108.88 45.9381 109.014C46.319 109.336 46.7564 109.585 47.2281 109.748C46.8384 110.064 46.4229 110.346 45.9861 110.592C45.7271 110.741 45.4601 110.873 45.1931 111.008C45.1161 111.046 44.7621 111.228 45.1251 111.045C44.7572 111.185 44.454 111.456 44.2741 111.806C43.6281 113.182 45.0181 113.981 46.4671 114.355C45.8828 114.799 45.2553 115.182 44.5941 115.5C44.6521 115.472 44.0941 115.731 44.2681 115.653C44.4421 115.575 44.1351 115.716 44.1991 115.681C43.9224 115.807 43.687 116.008 43.5201 116.262C43.3499 116.596 43.3099 116.981 43.4079 117.342C43.5058 117.704 43.7347 118.016 44.0501 118.218C44.904 118.899 45.9136 119.358 46.9884 119.552C48.0631 119.747 49.1694 119.672 50.2081 119.334V119.688C46.796 120.221 43.3474 120.484 39.8941 120.475C37.5251 120.506 35.1551 120.491 32.7851 120.459C31.7384 120.445 30.6917 120.427 29.6451 120.405C29.0821 120.393 28.4971 120.338 27.9281 120.35C27.5181 120.166 27.0744 120.069 26.6251 120.066C26.1757 120.063 25.7306 120.153 25.3181 120.331C24.6767 120.52 24.0822 120.842 23.5732 121.276C23.0641 121.709 22.6519 122.245 22.3631 122.848C21.8195 124.228 21.3571 125.638 20.9781 127.072C20.5393 128.358 20.3384 129.714 20.3851 131.072C20.0277 131.831 19.9032 132.679 20.0271 133.509C20.1062 134.811 20.5293 136.068 21.2531 137.152C22.4683 138.869 23.8952 140.425 25.5001 141.785C29.2361 145.025 33.5134 147.581 38.1361 149.337H38.1431C38.8891 149.627 39.6417 149.898 40.4011 150.15C41.0171 150.35 41.6391 150.542 42.2631 150.721C38.0401 150.948 33.8201 151.253 29.6251 151.741C28.6461 151.855 21.0791 152.27 22.6971 154.869C23.277 155.502 24.0721 155.896 24.9271 155.975C26.3241 156.277 27.7365 156.502 29.1581 156.65C33.9091 157.229 38.7001 157.513 43.4781 157.77C59.0911 158.609 74.7401 158.846 90.3721 158.901C107.03 158.959 123.699 158.783 140.344 158.09C146.444 157.837 152.552 157.538 158.625 156.954C160.349 156.788 162.073 156.598 163.784 156.33C164.789 156.211 165.78 155.989 166.739 155.666C167.439 155.398 168.202 154.927 168.076 154.055C167.929 153.046 166.709 152.728 165.876 152.52M24.2461 154.767C24.2325 154.776 24.2181 154.784 24.2031 154.79C24.2154 154.782 24.2271 154.774 24.2381 154.764H24.2461M166.353 153.683L166.329 153.674C166.333 153.673 166.338 153.673 166.343 153.674C166.347 153.676 166.351 153.679 166.353 153.683Z" fill="white"/>
<path d="M167.526 125.493V125.455C167.525 125.398 167.513 125.342 167.489 125.291C167.466 125.239 167.432 125.193 167.39 125.155C167.39 125.155 167.06 124.855 166.511 124.401C166.708 122.519 166.809 120.629 166.811 118.738C166.811 109.951 164.432 105.704 164.098 105.153C163.842 104.104 163.553 103.053 163.217 102.024C165.393 92.4111 165.065 82.4009 162.263 72.9517C159.462 63.5026 154.281 54.9309 147.217 48.0576C135.966 37.1045 120.883 30.9756 105.181 30.9756C89.4785 30.9756 74.3961 37.1045 63.1445 48.0576C55.5141 55.4858 50.0939 64.885 47.4865 75.2098C44.8791 85.5346 45.1869 96.3803 48.3755 106.541C47.8833 106.847 47.3495 107.081 46.7905 107.236C46.7025 107.26 46.6325 107.277 46.5905 107.287L46.5395 107.297H46.5275C46.4548 107.309 46.3867 107.341 46.3304 107.389C46.2741 107.436 46.2315 107.498 46.2071 107.568C46.1828 107.637 46.1775 107.712 46.1918 107.785C46.2061 107.857 46.2394 107.924 46.2885 107.98C46.6412 108.379 47.0931 108.677 47.5985 108.846C48.0155 108.982 48.4518 109.049 48.8905 109.046C48.9905 109.046 49.0855 109.041 49.1765 109.036C48.9959 109.332 48.7848 109.608 48.5465 109.861C47.9387 110.481 47.2449 111.011 46.4865 111.434C46.1685 111.616 45.8865 111.756 45.6935 111.85C45.5935 111.896 45.5175 111.931 45.4645 111.95L45.4045 111.976L45.3905 111.982C45.3226 112.009 45.2632 112.054 45.2183 112.112C45.1735 112.17 45.1448 112.239 45.1351 112.312C45.1255 112.384 45.1352 112.458 45.1634 112.526C45.1916 112.593 45.2371 112.652 45.2955 112.697C46.1199 113.319 47.1275 113.651 48.1605 113.64C48.3385 113.64 48.5015 113.63 48.6605 113.615C48.009 114.404 47.2348 115.083 46.3675 115.626C45.9597 115.887 45.537 116.125 45.1015 116.337C44.9405 116.416 44.8095 116.474 44.7205 116.513L44.6205 116.555L44.5965 116.565H44.5895C44.5236 116.59 44.4654 116.632 44.4204 116.687C44.3754 116.741 44.345 116.806 44.3322 116.876C44.3194 116.945 44.3245 117.017 44.3471 117.084C44.3698 117.151 44.4091 117.211 44.4615 117.259C45.4364 118.182 46.7276 118.698 48.0705 118.7C49.1517 118.679 50.2142 118.413 51.1785 117.924L51.1985 120.504C48.7356 120.962 46.2427 121.242 43.7395 121.341C41.9775 121.441 39.5975 121.474 37.2145 121.474C34.8315 121.474 32.4395 121.441 30.6465 121.408C29.7465 121.391 29.0015 121.374 28.4785 121.361L27.6565 121.341C27.6512 121.34 27.6458 121.34 27.6405 121.341C27.6135 121.316 27.5875 121.289 27.5595 121.266C27.45 121.167 27.3198 121.094 27.1785 121.052C27.1484 121.043 27.1176 121.039 27.0865 121.038H27.0375C26.4076 121.048 25.7851 121.176 25.2025 121.416C24.7271 121.611 24.2956 121.899 23.9335 122.264C23.4976 122.714 23.1846 123.269 23.0245 123.875C22.6875 125.099 22.2665 126.261 21.9245 127.334C21.577 128.285 21.3712 129.282 21.3135 130.293C21.3135 130.393 21.3135 130.487 21.3235 130.582C21.3435 130.858 21.3585 131.13 21.3825 131.406C21.3408 131.422 21.3025 131.446 21.2695 131.477C21.2167 131.524 21.1771 131.584 21.1545 131.652V131.659C21.1465 131.684 21.1425 131.701 21.1355 131.727C21.037 132.158 20.9897 132.599 20.9945 133.042C20.9897 134.102 21.2488 135.147 21.7485 136.083C22.0637 136.626 22.4243 137.142 22.8265 137.625C25.5617 140.858 28.8633 143.567 32.5695 145.617C32.5775 145.622 32.5835 145.628 32.5915 145.632C34.4576 146.694 36.3999 147.617 38.4025 148.393C40.0166 149.021 41.6641 149.559 43.3375 150.006C44.5005 150.316 45.7145 150.595 46.9805 150.835C47.0468 150.847 47.1151 150.843 47.1796 150.823C47.2441 150.804 47.3027 150.768 47.3505 150.721L47.8705 150.204L51.3125 150.272L51.3395 151.297C34.3955 151.975 23.4865 153.035 23.4865 154.226C23.4865 156.272 55.6385 157.926 95.2995 157.926C120.056 157.926 141.886 157.28 154.799 156.297C154.954 156.297 155.081 156.297 155.171 156.303H155.209C155.352 156.302 155.494 156.278 155.628 156.232C162.893 155.653 167.114 154.963 167.114 154.222C167.114 153.678 164.841 153.162 160.759 152.697C161.129 152.476 161.492 152.243 161.837 151.987C162.762 151.317 163.556 150.483 164.179 149.527C164.821 148.526 165.205 147.382 165.297 146.198C165.297 146.198 165.345 145.617 165.406 144.738C165.506 143.374 165.63 141.297 165.665 139.563C165.67 139.541 165.672 139.518 165.672 139.496C165.672 139.48 165.672 139.465 165.672 139.45C165.672 139.196 165.679 138.95 165.679 138.714C165.692 138.092 165.659 137.471 165.579 136.855C165.522 136.502 165.348 136.178 165.086 135.935C164.97 135.829 164.841 135.738 164.701 135.665C165.886 133.699 166.706 131.536 167.121 129.279C167.373 128.031 167.511 126.763 167.533 125.491" fill="#0D0002"/>
<path d="M93.6875 75.2383C92.687 75.881 91.6428 76.4531 90.5625 76.9503C91.6166 77.8158 92.8495 78.4367 94.1725 78.7683C94.672 78.5479 95.1195 78.2248 95.486 77.8201C95.8524 77.4154 96.1296 76.9381 96.2995 76.4193C95.9629 76.5377 95.6012 76.5659 95.2503 76.5012C94.8995 76.4364 94.5717 76.281 94.2995 76.0503C95.0563 75.8517 95.7525 75.4695 96.3262 74.9375C96.9 74.4054 97.3335 73.74 97.5885 73.0003C97.5885 73.0003 98.8495 75.5843 101.035 76.1383C100.39 76.3988 99.688 76.4851 98.9995 76.3883C99.318 77.135 99.8207 77.7887 100.46 78.2883C101.412 77.9533 102.325 77.5175 103.184 76.9883C103.247 76.9485 103.32 76.9263 103.394 76.9241C103.468 76.9218 103.542 76.9396 103.607 76.9754C103.672 77.0113 103.726 77.064 103.764 77.128C103.802 77.192 103.822 77.2649 103.821 77.3393V82.6243C103.858 82.6013 103.898 82.5753 103.932 82.5553C104.766 82.0707 105.674 81.7274 106.619 81.5393V78.0253C106.619 77.9629 106.633 77.9012 106.66 77.8449C106.687 77.7886 106.726 77.7392 106.775 77.7002C106.824 77.6613 106.881 77.6338 106.942 77.62C107.002 77.6062 107.066 77.6062 107.126 77.6203L107.206 77.6383C107.252 77.6491 107.296 77.6674 107.335 77.6923L107.355 77.7043L107.443 77.7543C107.524 77.7993 107.643 77.8653 107.813 77.9443C108.297 78.1735 108.796 78.3702 109.305 78.5333C111.204 79.1286 113.184 79.4212 115.174 79.4003C116.184 79.422 117.19 79.2453 118.132 78.8803C118.768 78.6269 119.344 78.2438 119.822 77.7553C120.164 77.4054 120.443 76.9995 120.646 76.5553C119.258 76.4098 117.912 75.9968 116.68 75.3393C115.54 74.7219 114.507 73.9243 113.621 72.9773C112.686 72.0002 111.909 70.8818 111.321 69.6633C111.292 69.5951 111.281 69.5202 111.291 69.4465C111.3 69.3728 111.329 69.3029 111.374 69.2441C111.42 69.1853 111.48 69.1398 111.549 69.1122C111.618 69.0846 111.693 69.076 111.766 69.0873C112.703 69.2413 113.65 69.3232 114.599 69.3323C115.624 69.3812 116.646 69.1951 117.587 68.7883C118.006 68.6044 118.354 68.291 118.581 67.8943L118.602 67.8503C116.075 67.1433 113.848 65.6302 112.259 63.5413C111.504 62.579 110.91 61.5007 110.499 60.3483C110.479 60.2833 110.476 60.2144 110.488 60.1476C110.501 60.0809 110.53 60.0183 110.573 59.9653C110.616 59.9124 110.671 59.8707 110.733 59.8441C110.796 59.8174 110.864 59.8065 110.931 59.8123C111.309 59.8443 111.662 59.8593 111.99 59.8593C113.198 59.9286 114.398 59.6373 115.439 59.0223C115.631 58.8958 115.808 58.7474 115.965 58.5803C113.695 57.7304 111.705 56.2675 110.216 54.3543C109.505 53.4639 108.926 52.4745 108.499 51.4173C108.475 51.3488 108.469 51.2751 108.482 51.2035C108.494 51.1319 108.526 51.0649 108.573 51.0093C108.62 50.9537 108.68 50.9114 108.749 50.8867C108.817 50.8619 108.891 50.8556 108.962 50.8683C109.409 50.9452 109.861 50.9833 110.313 50.9823C111.182 50.9755 112.047 50.8583 112.886 50.6333C111.904 50.2353 110.98 49.7083 110.136 49.0663C109.06 48.2412 108.084 47.2923 107.229 46.2393C106.509 45.3601 105.857 44.4267 105.279 43.4473C104.852 44.5903 104.228 45.6496 103.435 46.5773C102.578 47.57 101.571 48.4241 100.452 49.1093C99.499 49.7004 98.4836 50.1853 97.4245 50.5553C97.7145 50.7473 98.0285 50.9002 98.3585 51.0103C98.8482 51.1697 99.3605 51.249 99.8755 51.2453C100.479 51.2466 101.078 51.1528 101.652 50.9673C101.725 50.9408 101.804 50.9351 101.88 50.9509C101.955 50.9667 102.025 51.0033 102.081 51.0566C102.137 51.1099 102.178 51.1777 102.197 51.2526C102.217 51.3274 102.215 51.4063 102.192 51.4803C101.759 52.887 101.017 54.1793 100.021 55.2633C99.1908 56.1573 98.2221 56.9126 97.1525 57.5003C96.2567 57.9988 95.3064 58.3924 94.3205 58.6733C94.7823 59.0558 95.3109 59.3497 95.8795 59.5403C96.5773 59.7697 97.308 59.8829 98.0425 59.8753C98.6725 59.8788 99.3007 59.8066 99.9135 59.6603C99.9864 59.6406 100.063 59.6412 100.136 59.662C100.208 59.6828 100.274 59.7229 100.325 59.7782C100.377 59.8334 100.412 59.9016 100.428 59.9754C100.443 60.0493 100.438 60.126 100.413 60.1973C99.9401 61.4631 99.2075 62.6161 98.2625 63.5823C97.3706 64.5106 96.3789 65.3376 95.3055 66.0483C94.3272 66.7062 93.3022 67.2918 92.2385 67.8003C93.5439 68.6086 95.0522 69.0293 96.5875 69.0133C97.4864 69.0208 98.381 68.8889 99.2395 68.6223C99.3198 68.593 99.4071 68.5892 99.4896 68.6115C99.5721 68.6337 99.6457 68.6809 99.7004 68.7465C99.7551 68.8121 99.7882 68.8931 99.7952 68.9782C99.8022 69.0634 99.7827 69.1486 99.7395 69.2223C98.2261 71.6787 96.1521 73.7414 93.6875 75.2413" fill="#006726"/>
<path d="M163.429 105.641C161.796 104.872 160.012 104.479 158.207 104.49C155.727 104.562 153.279 105.07 150.975 105.99C147.896 107.185 144.905 108.597 142.024 110.213C141.738 110.37 141.457 110.529 141.18 110.691C141.161 113.366 141.055 117.474 140.914 121.817C142.17 121.533 143.454 121.248 144.733 120.973C144.192 120.848 143.703 120.559 143.333 120.144C144.29 119.955 145.181 119.522 145.923 118.889C146.664 118.255 147.23 117.442 147.567 116.526C147.117 116.684 146.634 116.722 146.165 116.636C145.697 116.549 145.259 116.342 144.895 116.033C144.895 116.033 148.43 115.17 149.295 111.963C149.295 111.963 150.98 115.416 153.895 116.156C153.035 116.502 152.1 116.616 151.182 116.485C151.681 117.658 152.517 118.656 153.582 119.354C154.522 119.225 155.469 119.151 156.417 119.135H156.575C157.489 119.178 158.388 119.381 159.231 119.735C160.174 120.117 161.084 120.575 161.952 121.105C163.271 121.91 164.537 122.798 165.742 123.764C165.914 121.938 165.988 120.264 165.988 118.727C165.988 110.388 163.816 106.296 163.43 105.633" fill="#006726"/>
<path d="M157.867 150.418C157.609 150.538 157.341 150.636 157.067 150.712C156.964 150.734 156.86 150.751 156.756 150.762C156.633 150.777 156.487 150.791 156.319 150.804C155.982 150.832 155.554 150.858 155.049 150.883C154.039 150.934 152.721 150.983 151.229 151.025C148.498 151.105 145.185 151.176 142.129 151.239C142.385 151.512 142.67 151.756 142.979 151.967C143.471 152.295 144.006 152.552 144.57 152.731C145.424 152.994 146.309 153.147 147.202 153.186C147.466 153.204 147.718 153.304 147.922 153.473C148.039 153.569 148.14 153.683 148.222 153.811H153.092C154.159 153.811 155.021 153.811 155.192 153.811H155.211C155.334 153.812 155.456 153.829 155.575 153.863H155.593C157.132 153.514 158.616 152.954 160.003 152.2C161.405 151.468 162.604 150.401 163.493 149.092C163.91 148.44 164.206 147.718 164.366 146.96C163.856 147.253 163.129 147.667 162.323 148.116C160.793 148.967 158.998 149.935 157.883 150.423" fill="#006726"/>
<path d="M140.12 142.127C140.113 142.49 140.109 142.842 140.109 143.176C140.085 144.535 140.186 145.893 140.409 147.233C140.897 147.087 141.333 146.803 141.665 146.416C141.966 146.064 142.169 145.639 142.253 145.184C142.336 144.729 142.298 144.259 142.141 143.823C141.985 143.388 141.716 143.001 141.361 142.703C141.007 142.405 140.58 142.206 140.124 142.127" fill="#006726"/>
<path d="M134.846 151.4C134.12 151.421 132.979 151.43 131.52 151.43C123.456 151.43 105.72 151.157 96.3585 151.157C94.3285 151.157 92.6925 151.17 91.6425 151.201C89.9425 151.25 88.2855 151.27 86.6585 151.27C81.7655 151.27 77.1055 151.09 71.9585 150.999C65.0585 150.878 53.8735 149.955 44.6105 147.207C40.2292 146.01 35.9667 144.414 31.8765 142.439C28.1258 140.665 24.8963 137.953 22.5005 134.565L22.4625 134.506V134.5C22.3985 134.4 22.3355 134.3 22.2725 134.2L22.2575 134.178L22.2475 134.16L22.2405 134.146V134.14C22.094 133.895 21.9647 133.641 21.8535 133.378C21.8942 134.189 22.1141 134.982 22.4975 135.698C22.7897 136.197 23.1225 136.671 23.4925 137.115C24.1344 137.904 24.823 138.655 25.5545 139.362C27.6403 141.37 29.9564 143.124 32.4545 144.587V143.848C32.4594 143.755 32.4997 143.668 32.5672 143.604C32.6346 143.54 32.724 143.504 32.817 143.504C32.91 143.504 32.9994 143.54 33.0669 143.604C33.1343 143.668 33.1746 143.755 33.1795 143.848V145C34.8017 145.914 36.4824 146.721 38.2105 147.415V146.372C38.2079 146.323 38.2154 146.274 38.2324 146.227C38.2495 146.181 38.2758 146.139 38.3097 146.103C38.3436 146.067 38.3844 146.039 38.4297 146.019C38.475 146 38.5237 145.99 38.573 145.99C38.6223 145.99 38.671 146 38.7163 146.019C38.7616 146.039 38.8024 146.067 38.8363 146.103C38.8703 146.139 38.8965 146.181 38.9136 146.227C38.9306 146.274 38.9381 146.323 38.9355 146.372V147.7C40.2255 148.2 41.5965 148.651 43.0495 149.058V148.148C43.0495 148.038 43.0933 147.932 43.1712 147.854C43.2491 147.776 43.3548 147.732 43.465 147.732C43.5752 147.732 43.6809 147.776 43.7588 147.854C43.8367 147.932 43.8805 148.038 43.8805 148.148V149.285C44.8645 149.54 45.8852 149.771 46.9425 149.978L47.4305 149.492C47.47 149.453 47.5169 149.422 47.5684 149.401C47.6199 149.381 47.675 149.37 47.7305 149.371L51.7455 149.452C51.8516 149.454 51.953 149.496 52.0287 149.571C52.1044 149.645 52.1487 149.746 52.1525 149.852L52.1855 151.132L56.4765 152.038L57.0635 150.7C57.0992 150.619 57.1599 150.551 57.2368 150.507C57.3136 150.463 57.4025 150.445 57.4905 150.455L61.7075 150.936C61.7842 150.945 61.8569 150.975 61.9175 151.023C61.9781 151.071 62.0241 151.134 62.0505 151.207L62.6505 152.849L66.8505 153.271L67.1635 152.048C67.1869 151.956 67.2407 151.876 67.3162 151.819C67.3916 151.762 67.4842 151.733 67.5785 151.736L74.1275 151.936C74.2162 151.939 74.3017 151.97 74.3715 152.025C74.4413 152.08 74.4917 152.155 74.5155 152.241L74.9935 153.984H79.8405C79.9015 153.86 79.9825 153.698 80.0735 153.519C80.2735 153.132 80.5135 152.679 80.7175 152.37C80.7712 152.286 80.8307 152.206 80.8955 152.131C80.9335 152.087 80.9765 152.048 81.0235 152.014C81.0849 151.971 81.1523 151.937 81.2235 151.914C81.2864 151.892 81.3505 151.873 81.4155 151.858C81.5664 151.823 81.7189 151.796 81.8725 151.776C82.2259 151.729 82.582 151.705 82.9385 151.703C83.0815 151.703 83.2165 151.703 83.3385 151.719C83.4589 151.728 83.578 151.751 83.6935 151.786C83.7942 151.816 83.8857 151.871 83.9595 151.946C84.0289 152.019 84.0739 152.112 84.0885 152.212C84.0975 152.279 84.1005 152.343 84.1055 152.433C84.1105 152.523 84.1135 152.633 84.1165 152.749C84.1225 152.988 84.1265 153.277 84.1285 153.558C84.1285 153.802 84.1285 154.036 84.1285 154.226H90.4775C90.4775 154.126 90.4775 154.017 90.4695 153.902C90.4595 153.502 90.4495 153.064 90.4495 152.873C90.4501 152.706 90.4968 152.543 90.5845 152.402C90.6699 152.266 90.7851 152.15 90.9215 152.065C91.22 151.889 91.5623 151.802 91.9085 151.813C92.1254 151.818 92.3415 151.842 92.5545 151.883C92.7795 151.923 93.0085 151.976 93.2155 152.028C93.6295 152.128 93.9565 152.235 93.9615 152.236C94.0436 152.262 94.1156 152.312 94.1675 152.381L95.5675 154.226H98.4935L98.9635 152.148C98.9738 152.093 98.9951 152.041 99.026 151.994C99.0569 151.948 99.0969 151.908 99.1435 151.878C99.1901 151.847 99.2424 151.826 99.2973 151.816C99.3522 151.806 99.4085 151.807 99.4629 151.82C99.5173 151.832 99.5687 151.855 99.614 151.888C99.6592 151.92 99.6975 151.962 99.7264 152.01C99.7553 152.057 99.7742 152.11 99.7822 152.166C99.7901 152.221 99.7868 152.277 99.7725 152.331L99.3445 154.231H106.269L106.737 152.212C106.761 152.105 106.828 152.012 106.921 151.953C107.015 151.895 107.127 151.876 107.235 151.901C107.342 151.926 107.435 151.992 107.493 152.086C107.551 152.179 107.57 152.292 107.546 152.399L107.121 154.231H112.194C112.28 154.236 112.366 154.226 112.45 154.202L112.455 154.183C112.468 154.114 112.473 154.045 112.472 153.975C112.472 153.9 112.472 153.808 112.462 153.704C112.462 153.627 112.455 153.55 112.455 153.475C112.451 153.231 112.482 152.989 112.547 152.754C112.607 152.518 112.741 152.308 112.93 152.154C113.075 152.043 113.254 151.982 113.438 151.983C113.897 151.983 114.816 152.023 114.82 152.023C114.874 152.025 114.927 152.037 114.977 152.059C115.027 152.082 115.071 152.114 115.109 152.154C115.146 152.194 115.175 152.24 115.194 152.291C115.213 152.342 115.222 152.397 115.22 152.451C115.22 152.451 115.22 152.578 115.212 152.758C115.204 152.938 115.203 153.169 115.203 153.372C115.203 153.472 115.203 153.567 115.203 153.642C115.203 153.717 115.21 153.775 115.211 153.777C115.229 153.895 115.224 153.951 115.229 153.989C115.234 154.027 115.238 154.029 115.24 154.033C115.248 154.044 115.259 154.053 115.271 154.061C115.346 154.109 115.43 154.143 115.518 154.161C115.811 154.222 116.11 154.249 116.41 154.241H121.27C121.411 154.241 121.552 154.225 121.691 154.193C121.823 154.17 121.945 154.107 122.04 154.012C122.084 153.955 122.106 153.884 122.102 153.812V152.124C122.102 152.014 122.145 151.908 122.223 151.83C122.301 151.753 122.406 151.709 122.517 151.709H123.762C123.872 151.709 123.977 151.753 124.055 151.83C124.133 151.908 124.177 152.014 124.177 152.124V153.892C124.175 153.93 124.178 153.969 124.187 154.006L124.2 154.022C124.23 154.044 124.264 154.062 124.3 154.075C124.416 154.119 124.538 154.15 124.662 154.167C124.979 154.214 125.3 154.239 125.622 154.241C126.191 154.254 126.984 154.258 127.811 154.258C129.467 154.258 131.258 154.241 131.717 154.241C131.729 154.241 131.742 154.24 131.755 154.236L131.775 154.22C131.82 154.161 131.853 154.093 131.87 154.02C131.931 153.737 131.957 153.448 131.947 153.159C131.947 153.094 131.947 153.031 131.947 152.972C131.943 152.794 131.959 152.617 131.994 152.443C132.028 152.263 132.109 152.095 132.229 151.957C132.349 151.819 132.504 151.715 132.678 151.656C132.9 151.582 133.133 151.549 133.367 151.556H134.853C134.963 151.556 135.068 151.6 135.146 151.677C135.224 151.755 135.268 151.861 135.268 151.971V154.271L136.375 154.288C137.142 154.299 138.17 154.312 139.375 154.324C138.611 153.445 138.008 152.439 137.592 151.352C136.504 151.377 135.648 151.398 134.867 151.419" fill="#006726"/>
<path d="M135.445 123.068C135.935 122.957 136.445 122.838 136.979 122.716C137.111 120.846 137.205 119.064 137.204 117.696C137.204 117.411 137.204 117.144 137.192 116.896C137.165 116.123 137.159 115.285 137.159 114.426C137.159 114.126 137.159 113.819 137.159 113.515C134.872 115.413 132.794 117.55 130.959 119.889C129.759 121.403 128.658 122.993 127.664 124.65C130.978 124.013 133.754 123.45 135.439 123.065" fill="#006726"/>
<path d="M134.906 146.901C135.25 147.115 135.629 147.265 136.026 147.346H136.452C136.13 145.614 135.935 143.861 135.869 142.102C135.841 142.113 135.808 142.125 135.769 142.142C135.597 142.213 135.43 142.298 135.269 142.394C134.794 142.663 134.396 143.05 134.112 143.517C133.89 143.907 133.776 144.349 133.781 144.799V144.81C133.782 144.819 133.782 144.829 133.781 144.839C133.782 144.847 133.782 144.855 133.781 144.863V144.89V144.912C133.787 145.357 133.915 145.792 134.152 146.169C134.347 146.464 134.604 146.714 134.905 146.901" fill="#006726"/>
<path d="M133.469 146.636C133.199 146.219 133.031 145.744 132.978 145.25H129.194C129.154 145.63 129.052 146.002 128.894 146.35C128.727 146.715 128.5 147.049 128.223 147.339H134.107C133.858 147.138 133.642 146.9 133.466 146.634" fill="#006726"/>
<path d="M129.188 144.42H132.971C133.017 143.955 133.16 143.505 133.392 143.1C133.62 142.711 133.916 142.367 134.266 142.084H127.748C128.153 142.406 128.499 142.796 128.769 143.238C128.986 143.6 129.128 144.002 129.188 144.42Z" fill="#006726"/>
<path d="M59.5488 120.255C59.554 120.517 59.6158 120.775 59.7298 121.011C59.802 121.159 59.9156 121.284 60.0568 121.37C60.2731 121.504 60.5094 121.602 60.7568 121.661C61.5445 121.834 62.3506 121.911 63.1568 121.888C65.9108 121.888 69.8398 121.359 73.5938 121.168C75.0818 121.092 76.7198 120.985 78.4508 120.985H78.9218C81.9315 120.953 84.9191 121.501 87.7218 122.598C91.1601 124.064 94.1495 126.413 96.3868 129.407C96.6628 129.422 96.9428 129.431 97.2298 129.431C97.6438 129.431 98.0695 129.414 98.5068 129.381C101.045 129.188 105.719 128.506 110.947 127.643C116.109 126.792 121.818 125.765 126.593 124.856C127.537 123.204 128.591 121.617 129.749 120.107C129.289 120.195 128.607 120.335 127.618 120.557C125.258 121.087 121.165 122.08 114.253 123.929C110.75 124.966 107.129 125.555 103.478 125.683C101.658 125.763 99.8465 125.399 98.1988 124.623C96.9465 123.978 95.9827 122.885 95.4988 121.562C95.1666 120.631 94.9958 119.65 94.9938 118.662C94.9938 118.622 94.9938 118.582 94.9938 118.543C95.041 116.965 95.6056 115.446 96.6008 114.22C97.5822 112.978 98.7437 111.889 100.047 110.99C101.6 109.89 103.263 108.955 105.009 108.2C105.087 108.168 105.173 108.161 105.255 108.179C105.338 108.197 105.413 108.24 105.47 108.302C105.528 108.364 105.565 108.442 105.577 108.525C105.589 108.609 105.575 108.694 105.537 108.77L105.531 108.782L105.507 108.835C105.485 108.882 105.453 108.953 105.415 109.045C105.338 109.23 105.234 109.499 105.13 109.83C104.866 110.652 104.726 111.509 104.716 112.373C104.698 113.335 104.936 114.284 105.407 115.123C105.552 115.368 105.748 115.579 105.983 115.741C106.259 115.929 106.563 116.075 106.883 116.174C107.734 116.415 108.617 116.526 109.501 116.503C111.199 116.466 112.892 116.287 114.561 115.968C116.276 115.668 117.915 115.301 119.182 115.044C121.711 114.532 127.088 113.274 130.887 112.373C130.779 112.373 130.674 112.373 130.565 112.373C126.406 112.347 122.253 112.029 118.139 111.42C115.769 111.015 113.453 110.338 111.239 109.402C105.959 107.171 100.908 104.433 96.1578 101.225C95.8578 101.016 95.6478 100.865 95.5248 100.766C95.3445 100.608 95.1367 100.485 94.9118 100.402H94.9028C94.7946 100.362 94.6802 100.341 94.5648 100.341C94.3867 100.346 94.2115 100.388 94.0508 100.465C93.8658 100.551 93.6862 100.647 93.5128 100.755C93.7928 101.32 94.0948 101.833 94.2788 102.139C94.3538 102.265 94.4078 102.352 94.4428 102.414C94.4868 102.494 94.5428 102.603 94.6008 102.749C94.6588 102.895 94.7318 103.069 94.8008 103.263C94.95 103.67 95.035 104.098 95.0528 104.531C95.0582 104.725 95.0242 104.918 94.9528 105.099C94.8663 105.284 94.7272 105.44 94.5528 105.548C94.387 105.655 94.2073 105.739 94.0188 105.798C93.6086 105.931 93.1801 105.999 92.7488 106C92.4997 106.002 92.251 105.976 92.0078 105.922C91.7731 105.873 91.5529 105.77 91.3648 105.622C91.2288 105.502 91.1064 105.368 90.9998 105.222C90.8704 105.047 90.7512 104.865 90.6428 104.677C90.3956 104.243 90.181 103.792 90.0008 103.327L89.3768 102.753L88.0888 103.473C88.2078 103.758 88.4498 104.189 88.7138 104.668C89.0365 105.231 89.3134 105.819 89.5418 106.426C89.6917 106.827 89.7735 107.251 89.7838 107.679C89.7889 107.987 89.7246 108.292 89.5958 108.572C89.4516 108.871 89.2321 109.127 88.9588 109.316C88.5447 109.598 88.0537 109.745 87.5528 109.738C87.0726 109.739 86.601 109.61 86.1878 109.366C85.7069 109.074 85.3239 108.645 85.0878 108.135C84.9548 107.841 84.8461 107.537 84.7628 107.226C84.7488 107.177 84.7358 107.126 84.7218 107.073C84.6512 107.141 84.5745 107.202 84.4928 107.256C84.1855 107.452 83.8273 107.553 83.4628 107.547C83.3988 107.547 83.3358 107.547 83.2758 107.539C83.4036 107.97 83.4736 108.417 83.4838 108.867C83.4863 109.085 83.4611 109.304 83.4088 109.516C83.3585 109.722 83.2655 109.915 83.1358 110.083C82.9335 110.332 82.6669 110.521 82.3648 110.63C82.0798 110.733 81.7787 110.783 81.4758 110.78C81.1017 110.778 80.7303 110.716 80.3758 110.596C80.064 110.5 79.7772 110.336 79.5358 110.117C79.4148 109.996 79.2358 109.801 79.0158 109.563C78.8648 109.398 78.6958 109.211 78.5238 109.021L78.0718 109.285L78.0368 109.304H78.0318L78.0018 109.32C77.9635 109.341 77.9264 109.364 77.8908 109.39C77.7981 109.452 77.7188 109.532 77.6578 109.625C77.6288 109.671 77.6129 109.724 77.6118 109.779V109.835C77.6268 109.913 77.6728 110.076 77.7378 110.276C77.8028 110.476 77.8858 110.719 77.9748 110.985C78.1528 111.516 78.3548 112.137 78.4918 112.725C78.5835 113.09 78.6351 113.465 78.6458 113.842C78.6458 113.886 78.6458 113.929 78.6458 113.972C78.6335 114.23 78.5474 114.478 78.3978 114.689C78.2595 114.878 78.0804 115.033 77.8738 115.143C77.489 115.341 77.0616 115.442 76.6288 115.437C76.4504 115.438 76.2724 115.42 76.0978 115.383C75.9328 115.35 75.776 115.284 75.6368 115.19C75.3309 114.962 75.0448 114.708 74.7818 114.432C74.3897 114.031 74.067 113.567 73.8268 113.06C73.6533 112.686 73.5561 112.282 73.5408 111.871L72.0838 112.4C72.0838 112.477 72.0838 112.565 72.0838 112.667C72.0838 113.011 72.0838 113.486 72.0838 114.012C72.0987 114.421 72.0652 114.831 71.9838 115.232C71.8815 115.684 71.6322 116.089 71.2748 116.384C70.9762 116.621 70.6376 116.804 70.2748 116.922C70.0012 117.02 69.7134 117.072 69.4228 117.076C69.227 117.077 69.0325 117.044 68.8488 116.976C68.6481 116.903 68.4721 116.774 68.3408 116.606C68.2479 116.484 68.1799 116.344 68.1408 116.196C68.0736 115.923 68.0268 115.646 68.0008 115.367C67.9808 115.178 67.9658 114.977 67.9528 114.773C67.6228 114.914 66.6278 115.338 66.0928 115.545C65.9575 115.589 65.8411 115.678 65.7628 115.797C65.729 115.85 65.7062 115.91 65.6958 115.972V115.988V116.008C65.6958 116.026 65.6958 116.053 65.6898 116.09C65.6898 116.163 65.6808 116.271 65.6808 116.404C65.6801 116.814 65.724 117.223 65.8118 117.624C65.8402 117.747 65.855 117.873 65.8558 118C65.8567 118.172 65.8227 118.342 65.7558 118.5C65.694 118.64 65.6069 118.769 65.4988 118.878C65.3178 119.05 65.1114 119.193 64.8868 119.302C64.7628 119.368 64.6548 119.425 64.5868 119.474C64.4366 119.569 64.2707 119.637 64.0968 119.674C63.9177 119.714 63.7345 119.734 63.5508 119.734C63.3455 119.735 63.1408 119.71 62.9418 119.659C62.737 119.609 62.5447 119.517 62.3768 119.39C62.2557 119.297 62.1569 119.178 62.0878 119.042C61.9942 118.841 61.9318 118.627 61.9028 118.407C61.8938 118.353 61.8898 118.296 61.8828 118.24C61.6518 118.33 61.3198 118.456 60.9168 118.606L60.8878 118.618C60.7011 118.702 60.5232 118.805 60.3568 118.925C60.0967 119.104 59.88 119.339 59.7228 119.613C59.6165 119.808 59.5609 120.027 59.5608 120.25" fill="#006726"/>
<path d="M124.74 147.338H124.749H126.896L126.953 147.306C127.077 147.233 127.196 147.151 127.308 147.06C127.664 146.778 127.95 146.417 128.142 146.005C128.307 145.636 128.391 145.236 128.387 144.831C128.386 144.423 128.274 144.023 128.064 143.673C127.863 143.341 127.609 143.045 127.312 142.796C126.976 142.512 126.607 142.272 126.212 142.08H124.743C124.721 142.09 124.697 142.101 124.666 142.117C124.533 142.183 124.406 142.259 124.285 142.343C123.907 142.601 123.598 142.946 123.385 143.35C123.201 143.71 123.102 144.107 123.094 144.511V144.531C123.094 144.559 123.094 144.589 123.094 144.621V144.699C123.097 145.397 123.349 146.07 123.805 146.599C124.068 146.902 124.387 147.15 124.746 147.329" fill="#006726"/>
<path d="M117.9 142.946C118.123 143.291 118.269 143.681 118.327 144.088H122.296C122.347 143.699 122.465 143.322 122.645 142.973C122.817 142.643 123.041 142.343 123.309 142.084H117.1C117.412 142.325 117.683 142.616 117.9 142.946Z" fill="#006726"/>
<path d="M122.634 146.335C122.425 145.89 122.302 145.409 122.273 144.918H118.334C118.239 145.753 117.9 146.541 117.359 147.184C117.312 147.24 117.267 147.291 117.221 147.342H123.348C123.055 147.048 122.814 146.708 122.634 146.335Z" fill="#006726"/>
<path d="M116.477 142.652C116.142 142.412 115.773 142.222 115.384 142.087C114.687 142.094 114.022 142.378 113.535 142.876C113.047 143.374 112.778 144.046 112.785 144.742C112.793 145.439 113.077 146.104 113.575 146.592C114.073 147.079 114.744 147.348 115.441 147.341H116.001C116.041 147.312 116.089 147.275 116.15 147.225C116.356 147.054 116.545 146.864 116.715 146.657C117.229 146.056 117.515 145.293 117.524 144.502C117.527 144.115 117.417 143.735 117.208 143.409C117.014 143.112 116.764 142.855 116.474 142.652" fill="#006726"/>
<path d="M114.427 104.133L116.289 101.564C113.914 99.8409 111.473 97.9839 109.458 96.6399C108.403 95.9063 107.269 95.2919 106.079 94.8079C105.192 94.4554 104.249 94.2683 103.295 94.2559C103.72 94.7648 104.07 95.331 104.337 95.9379C104.461 95.9533 104.583 95.9763 104.704 96.0069C105.089 96.102 105.451 96.276 105.766 96.5179C106.041 96.7308 106.269 96.9976 106.437 97.3019C106.565 97.5319 106.657 97.7189 106.728 97.8639C106.799 98.0089 106.85 98.1129 106.883 98.1639C106.892 98.1794 106.902 98.1941 106.913 98.2079L106.955 98.2179C107.116 98.2369 107.278 98.2466 107.44 98.2469C107.832 98.2571 108.222 98.3023 108.606 98.3819C109.131 98.4849 109.632 98.6835 110.085 98.9679C110.423 99.1856 110.713 99.4701 110.938 99.8039C111.282 100.345 111.456 100.976 111.438 101.617C111.435 101.851 111.416 102.085 111.381 102.317C111.734 102.712 112.138 103.059 112.581 103.35C113.147 103.71 113.77 103.972 114.423 104.125" fill="#006726"/>
<path d="M116.8 90.7891C116.701 90.4574 116.533 90.1505 116.306 89.8891C116.078 89.6401 115.713 89.2741 115.269 88.8431C114.825 88.4121 114.301 87.9121 113.747 87.3871C112.639 86.3381 111.411 85.1871 110.457 84.2721C109.82 83.6591 109.309 83.1551 109.02 82.8351C108.85 82.6472 108.635 82.5048 108.396 82.4211C108.281 82.3801 108.163 82.3493 108.043 82.3291L109.08 83.3291L109.11 83.3591C110.947 85.1211 113.61 87.6791 114.375 88.4081C114.929 88.9033 115.43 89.4553 115.869 90.0551C116.345 90.7096 116.607 91.4956 116.619 92.3051C116.617 92.6527 116.57 92.9985 116.48 93.3341C116.133 94.4005 115.488 95.3454 114.621 96.0571C114.345 96.3009 114.056 96.5292 113.755 96.7411C113.997 96.9098 114.238 97.0798 114.477 97.2511C115.233 96.6223 115.849 95.8412 116.283 94.9586C116.717 94.0761 116.96 93.112 116.997 92.1291C117 91.6764 116.933 91.226 116.797 90.7941" fill="#006726"/>
<path d="M96.1586 98.5138C95.9331 98.9294 95.7328 99.3582 95.5586 99.7978C95.7308 99.8939 95.8939 100.006 96.0456 100.132C96.1286 100.2 96.3346 100.35 96.6266 100.552C96.9186 100.754 97.3046 101.013 97.7676 101.314C98.6936 101.914 99.9286 102.69 101.368 103.533C104.543 105.419 107.844 107.085 111.248 108.518L112.001 107.475C111.136 107.117 110.322 106.646 109.581 106.075C109.099 105.698 108.65 105.28 108.242 104.825C108.192 104.825 108.137 104.825 108.071 104.825C107.188 104.802 106.336 104.5 105.636 103.962C105.338 103.733 105.095 103.442 104.922 103.109C104.754 102.809 104.631 102.52 104.522 102.326C104.486 102.251 104.441 102.182 104.387 102.12C104.307 102.094 104.224 102.083 104.141 102.087C103.955 102.093 103.77 102.11 103.587 102.14C103.383 102.174 103.178 102.194 102.972 102.201H102.961C102.576 102.202 102.194 102.134 101.833 102.001C101.457 101.86 101.119 101.634 100.846 101.34C100.46 100.928 100.211 100.406 100.134 99.8471C100.057 99.2878 100.156 98.7185 100.417 98.2178C99.7558 97.3553 98.9558 96.6091 98.0496 96.0098C97.2853 96.7328 96.6463 97.5776 96.1586 98.5098" fill="#006726"/>
<path d="M99.6439 87.0869C99.1899 87.4819 98.7359 87.8819 98.2949 88.2719V88.6639L99.2539 89.6639C100.042 88.8401 100.876 88.0625 101.754 87.3349L101.854 87.2509C101.704 87.2698 101.553 87.2795 101.402 87.2799C100.81 87.283 100.22 87.2182 99.6429 87.0869" fill="#006726"/>
<path d="M108.035 83.4777C107.51 82.9777 107.095 82.5777 106.876 82.3617L106.858 82.3447C105.974 82.5088 105.124 82.8248 104.346 83.2787C103.973 83.5107 103.614 83.7658 103.271 84.0427C102.837 84.3797 102.324 84.7987 101.771 85.2617C102.334 85.6251 102.979 85.8401 103.646 85.8867C105.012 84.916 106.485 84.1073 108.036 83.4767" fill="#006726"/>
<path d="M54.308 120.685C53.494 120.866 52.763 121.031 52.041 121.185C52.0759 121.468 52.1678 121.74 52.311 121.985C52.6923 122.586 53.2873 123.021 53.976 123.2C54.8146 123.475 55.6939 123.604 56.576 123.581C56.991 123.581 57.422 123.567 57.897 123.567C58.87 123.559 59.8414 123.648 60.797 123.831C62.7058 124.167 64.5517 124.794 66.27 125.69C68.1325 126.668 69.6973 128.129 70.8 129.92C71.213 129.311 71.608 128.62 72.022 127.937C72.5159 127.05 73.1308 126.235 73.849 125.516C75.2855 124.217 77.1632 123.513 79.1 123.549C79.7221 123.554 80.3424 123.616 80.953 123.734C80.369 122.964 79.6421 122.314 78.812 121.818H78.45C76.75 121.818 75.132 121.918 73.635 122C69.924 122.187 66.006 122.719 63.156 122.72C62.4719 122.729 61.7881 122.684 61.111 122.585C60.5765 122.518 60.0617 122.341 59.599 122.065C59.3277 121.893 59.111 121.646 58.974 121.355C58.8119 121.011 58.7253 120.636 58.72 120.255C58.7209 119.931 58.7954 119.61 58.938 119.318C57.4202 119.854 55.8754 120.31 54.31 120.685" fill="#006726"/>
<path d="M141.873 99.4067C141.157 99.8662 140.412 100.278 139.643 100.641C140.852 101.595 142.351 102.109 143.892 102.099C145.687 102.044 147.437 101.515 148.962 100.565C149.024 100.525 149.096 100.503 149.169 100.501C149.243 100.498 149.316 100.515 149.381 100.55C149.446 100.586 149.501 100.637 149.539 100.701C149.577 100.764 149.598 100.836 149.599 100.91L149.663 105.598L151.517 104.856V101.433C151.517 101.371 151.532 101.31 151.559 101.254C151.586 101.198 151.625 101.149 151.674 101.111C151.723 101.073 151.779 101.046 151.84 101.032C151.9 101.019 151.963 101.019 152.024 101.033L152.085 101.047C152.13 101.057 152.173 101.075 152.213 101.1L152.227 101.108L152.291 101.145C152.351 101.178 152.442 101.227 152.566 101.286C152.928 101.458 153.301 101.605 153.684 101.727C155.112 102.175 156.601 102.395 158.098 102.379C159.253 102.449 160.394 102.096 161.309 101.387C161.631 101.115 161.897 100.782 162.091 100.407C161.076 100.282 160.093 99.9718 159.191 99.4907C158.317 99.0177 157.526 98.4065 156.848 97.6807C156.131 96.9322 155.538 96.0753 155.09 95.1417C155.06 95.0736 155.049 94.9987 155.058 94.925C155.067 94.8512 155.096 94.7813 155.141 94.7224C155.187 94.6636 155.247 94.618 155.316 94.5904C155.385 94.5628 155.46 94.5543 155.534 94.5657C156.238 94.6817 156.951 94.7432 157.665 94.7497C158.441 94.7912 159.216 94.6462 159.926 94.3267C160.177 94.2071 160.391 94.0223 160.547 93.7917C158.661 93.2359 157.002 92.0915 155.813 90.5257C155.234 89.787 154.778 88.9597 154.463 88.0757C154.443 88.0107 154.439 87.9417 154.452 87.8749C154.464 87.8081 154.493 87.7455 154.536 87.6925C154.579 87.6395 154.634 87.5978 154.696 87.5709C154.759 87.5441 154.827 87.5331 154.895 87.5387C155.179 87.5627 155.444 87.5737 155.689 87.5737C156.566 87.6225 157.438 87.4184 158.203 86.9857C158.315 86.9138 158.42 86.8325 158.519 86.7427C156.842 86.0849 155.372 84.9879 154.266 83.5667C153.717 82.8842 153.271 82.1252 152.942 81.3137C152.917 81.2452 152.911 81.1715 152.924 81.0999C152.937 81.0283 152.968 80.9614 153.015 80.9058C153.062 80.8502 153.122 80.8078 153.191 80.7831C153.259 80.7583 153.333 80.752 153.405 80.7647C153.737 80.8222 154.073 80.8507 154.411 80.8497C154.957 80.8469 155.502 80.7835 156.035 80.6607C155.389 80.3703 154.779 80.0073 154.216 79.5787C153.395 78.9481 152.652 78.2231 152.001 77.4187C151.495 76.8033 151.035 76.1527 150.623 75.4717C150.296 76.2724 149.843 77.0152 149.281 77.6717C148.625 78.4327 147.856 79.0878 147.001 79.6137C146.333 80.0278 145.625 80.3738 144.889 80.6467C145.048 80.7372 145.215 80.8128 145.389 80.8727C145.749 80.9902 146.127 81.0486 146.507 81.0457C146.952 81.0475 147.394 80.98 147.819 80.8457C147.891 80.8191 147.97 80.8133 148.046 80.829C148.121 80.8448 148.191 80.8814 148.247 80.9347C148.304 80.9881 148.344 81.0561 148.363 81.131C148.382 81.2059 148.381 81.2848 148.358 81.3587C148.025 82.4372 147.456 83.4279 146.692 84.2587C146.055 84.9458 145.312 85.5259 144.492 85.9767C143.863 86.3262 143.2 86.6088 142.513 86.8197C142.817 87.0437 143.154 87.2189 143.513 87.3387C144.031 87.5088 144.573 87.5929 145.119 87.5877C145.587 87.59 146.054 87.5363 146.51 87.4277C146.583 87.4083 146.659 87.4091 146.732 87.4301C146.804 87.451 146.87 87.4913 146.921 87.5465C146.973 87.6018 147.008 87.67 147.023 87.7438C147.039 87.8177 147.034 87.8944 147.01 87.9657C146.646 88.938 146.083 89.8236 145.358 90.5657C144.677 91.2749 143.92 91.9064 143.101 92.4487C142.407 92.9141 141.682 93.332 140.932 93.6997C141.869 94.239 142.933 94.5179 144.015 94.5077C144.684 94.5134 145.349 94.4156 145.989 94.2177C146.069 94.1884 146.156 94.1847 146.239 94.2069C146.321 94.2291 146.395 94.2763 146.45 94.3419C146.504 94.4075 146.537 94.4885 146.544 94.5736C146.551 94.6588 146.532 94.744 146.489 94.8177C145.335 96.6948 143.752 98.2713 141.871 99.4177" fill="#006726"/>
<path d="M46.8006 116.336C46.3858 116.602 45.9568 116.845 45.5156 117.063C46.2608 117.593 47.1535 117.875 48.0676 117.869C49.2366 117.833 50.3751 117.488 51.3676 116.869C51.4302 116.83 51.5022 116.808 51.5763 116.805C51.6503 116.803 51.7236 116.82 51.7886 116.856C51.8536 116.891 51.9079 116.944 51.9459 117.007C51.9839 117.071 52.0042 117.143 52.0046 117.217L52.0286 120.317L53.0006 120.085V117.566C53.0015 117.505 53.0162 117.444 53.0436 117.388C53.0709 117.333 53.1103 117.284 53.1589 117.246C53.2075 117.207 53.264 117.18 53.3243 117.167C53.3846 117.153 53.4473 117.153 53.5076 117.166L53.5476 117.175C53.5929 117.186 53.6362 117.204 53.6756 117.228H53.6826L53.7226 117.251C53.7596 117.271 53.8226 117.302 53.8976 117.34C54.1333 117.452 54.3761 117.548 54.6246 117.627C55.5599 117.92 56.5356 118.064 57.5156 118.053C57.9933 118.065 58.4687 117.983 58.9156 117.814C59.2079 117.7 59.4735 117.527 59.6956 117.305C59.7917 117.21 59.8772 117.104 59.9506 116.989C59.3323 116.891 58.7347 116.691 58.1826 116.395C57.5885 116.074 57.0505 115.659 56.5896 115.165C56.1005 114.657 55.6955 114.073 55.3896 113.437C55.3602 113.369 55.3496 113.294 55.3588 113.221C55.3681 113.147 55.397 113.077 55.4424 113.018C55.4878 112.96 55.5481 112.914 55.6171 112.886C55.6861 112.859 55.7612 112.85 55.8346 112.861C56.2975 112.938 56.7655 112.978 57.2346 112.982C57.7183 113.007 58.2013 112.921 58.6466 112.73C58.7434 112.683 58.8329 112.623 58.9126 112.55C57.7123 112.153 56.6598 111.403 55.8926 110.398C55.4976 109.894 55.1869 109.329 54.9726 108.725C54.9526 108.661 54.9487 108.592 54.9615 108.525C54.9743 108.458 55.0033 108.395 55.046 108.343C55.0887 108.29 55.1437 108.248 55.2062 108.221C55.2688 108.195 55.3369 108.184 55.4046 108.189C55.5896 108.204 55.7616 108.212 55.9206 108.212C56.4783 108.246 57.0338 108.117 57.5206 107.843L57.5316 107.835C56.4859 107.381 55.5706 106.673 54.8696 105.773C54.496 105.308 54.1928 104.79 53.9696 104.236C53.945 104.168 53.9388 104.094 53.9517 104.023C53.9646 103.951 53.996 103.884 54.0429 103.829C54.0898 103.773 54.1505 103.731 54.2189 103.706C54.2873 103.681 54.361 103.675 54.4326 103.687C54.6453 103.724 54.8608 103.742 55.0766 103.741C55.2918 103.742 55.5067 103.726 55.7196 103.694C55.4206 103.535 55.1344 103.352 54.8636 103.147C54.3081 102.722 53.8046 102.233 53.3636 101.69C53.0802 101.345 52.8174 100.982 52.5766 100.605C52.366 101.059 52.0945 101.483 51.7696 101.863C51.3231 102.379 50.8 102.823 50.2186 103.18C49.8606 103.402 49.4858 103.595 49.0976 103.757C49.1051 103.761 49.1128 103.764 49.1206 103.766C49.3466 103.84 49.583 103.876 49.8206 103.874C50.0784 103.874 50.3348 103.837 50.5826 103.766C50.6236 103.754 50.6456 103.746 50.6456 103.746C50.7183 103.72 50.797 103.714 50.8728 103.73C50.9486 103.745 51.0185 103.782 51.0745 103.835C51.1305 103.889 51.1705 103.957 51.1897 104.032C51.209 104.107 51.2069 104.186 51.1836 104.259C50.9564 104.997 50.568 105.674 50.0466 106.242C49.6122 106.71 49.1058 107.104 48.5466 107.411C48.2075 107.6 47.8533 107.76 47.4876 107.889C47.6104 107.958 47.7388 108.017 47.8716 108.063C48.2017 108.172 48.5473 108.225 48.8946 108.221C49.1932 108.223 49.4909 108.189 49.7816 108.121C49.8545 108.102 49.9313 108.102 50.0039 108.123C50.0764 108.144 50.1419 108.184 50.1934 108.239C50.2448 108.295 50.2802 108.363 50.2957 108.437C50.3113 108.51 50.3064 108.587 50.2816 108.658C50.0342 109.323 49.6503 109.929 49.1546 110.436C48.6949 110.915 48.1838 111.342 47.6306 111.708C47.2381 111.972 46.8308 112.212 46.4106 112.428C46.9556 112.692 47.5541 112.827 48.1596 112.822C48.5889 112.826 49.0161 112.763 49.4266 112.637C49.5069 112.608 49.5942 112.604 49.6767 112.627C49.7592 112.649 49.8328 112.696 49.8875 112.762C49.9422 112.827 49.9753 112.908 49.9823 112.993C49.9893 113.079 49.9699 113.164 49.9266 113.237C49.1481 114.503 48.0801 115.565 46.8106 116.337" fill="#006726"/>
<path d="M116.989 104.347C117.914 104.309 118.832 104.179 119.731 103.96C118.846 103.383 117.914 102.734 116.962 102.049L115.334 104.295C115.701 104.339 116.071 104.36 116.441 104.36C116.618 104.36 116.801 104.36 116.989 104.347Z" fill="white"/>
<path d="M125.964 106.869C123.586 108.046 120.966 108.65 118.313 108.631C117.753 108.631 117.171 108.606 116.57 108.551C115.29 108.444 114.027 108.185 112.808 107.779L112.043 108.835C114.044 109.653 116.129 110.247 118.261 110.607C122.336 111.211 126.449 111.526 130.568 111.551C132.203 111.551 133.744 111.49 135.146 111.365C135.858 111.303 136.531 111.222 137.166 111.126C137.181 109.929 137.134 108.732 137.025 107.539C136.039 107.715 135.042 107.821 134.041 107.857C133.759 107.868 133.47 107.873 133.175 107.874C130.736 107.865 128.309 107.529 125.96 106.874" fill="white"/>
<path d="M164.756 137C164.731 136.825 164.646 136.665 164.517 136.545C164.354 136.408 164.163 136.309 163.958 136.255C163.255 136.097 162.536 136.027 161.817 136.047C161.031 136.068 160.245 136.001 159.474 135.847C158.43 135.497 157.413 135.07 156.433 134.57C155.003 133.916 153.498 133.443 151.952 133.161C151.424 133.065 150.853 132.979 150.238 132.903V130.131L150.279 130.14C151.548 130.791 152.964 131.101 154.39 131.04C157.062 131.04 157.473 129.19 157.473 129.19C156.438 129.09 155.447 128.723 154.596 128.125C153.746 127.527 153.065 126.718 152.622 125.778C156.322 126.354 156.404 124.792 156.404 124.792C155.453 124.557 154.574 124.093 153.843 123.441C153.112 122.789 152.552 121.969 152.211 121.051C154.637 121.256 155.13 120.105 155.13 120.105C154.253 119.816 153.448 119.344 152.767 118.72C152.087 118.097 151.546 117.335 151.183 116.487C152.101 116.617 153.036 116.503 153.897 116.158C150.978 115.418 149.297 111.965 149.297 111.965C148.434 115.172 144.897 116.035 144.897 116.035C145.261 116.343 145.699 116.55 146.168 116.637C146.636 116.723 147.12 116.686 147.57 116.528C147.233 117.443 146.666 118.257 145.925 118.89C145.183 119.524 144.291 119.956 143.335 120.146C143.705 120.56 144.194 120.849 144.735 120.976C145.37 121.12 146.029 121.118 146.663 120.968C145.8 123.435 142.263 124.874 142.263 124.874C142.843 125.292 143.513 125.57 144.22 125.684C144.926 125.798 145.65 125.746 146.333 125.532C145.134 127.317 143.431 128.705 141.441 129.519C144.341 132.154 147.821 130.138 148.389 129.778V132.711C146.489 132.557 144.243 132.477 141.569 132.477C141.226 132.477 140.875 132.477 140.518 132.482C140.483 133.299 140.447 134.082 140.418 134.818C140.346 136.418 140.276 137.824 140.223 139.083H164.847C164.847 138.958 164.847 138.835 164.847 138.716C164.859 138.142 164.83 137.568 164.759 136.999" fill="white"/>
<path d="M140.139 141.29C140.926 141.401 141.65 141.779 142.191 142.361C142.732 142.943 143.056 143.694 143.108 144.487C143.16 145.28 142.938 146.067 142.478 146.715C142.018 147.363 141.349 147.833 140.584 148.046C140.729 148.626 140.919 149.194 141.15 149.746C141.25 149.981 141.368 150.208 141.502 150.425C146.063 150.33 151.331 150.225 154.409 150.085C155.451 150.04 156.247 149.985 156.653 149.941C156.759 149.928 156.839 149.915 156.873 149.907C157.062 149.854 157.246 149.787 157.426 149.707C157.674 149.602 157.973 149.464 158.304 149.301C158.968 148.977 159.761 148.56 160.558 148.128C162.151 147.265 163.758 146.343 164.391 145.977L164.491 145.922C164.491 145.87 164.5 145.811 164.505 145.742C164.517 145.581 164.533 145.372 164.55 145.132H145.961C145.854 145.127 145.753 145.081 145.68 145.003C145.606 144.926 145.565 144.823 145.565 144.716C145.565 144.61 145.606 144.507 145.68 144.43C145.753 144.352 145.854 144.306 145.961 144.301H164.601C164.685 143.062 164.784 141.391 164.824 139.918H140.185C140.167 140.399 140.151 140.858 140.139 141.293" fill="white"/>
<path d="M140.9 106.576C141.058 107.17 141.147 107.78 141.166 108.395C141.178 108.747 141.184 109.2 141.184 109.74C141.331 109.657 141.477 109.571 141.625 109.49C144.237 108.074 146.625 106.883 148.836 105.951L148.777 101.63C148.696 101.673 148.61 101.717 148.518 101.763C148.072 102.129 147.648 102.493 147.251 102.84C146.553 103.485 145.815 104.086 145.042 104.64C143.754 105.469 142.361 106.121 140.898 106.578" fill="white"/>
<path d="M159.587 98.7556C160.154 99.0599 160.76 99.2889 161.387 99.4366C161.221 99.0306 161.032 98.6076 160.821 98.2106C160.006 98.0489 159.178 97.9559 158.348 97.9326C158.733 98.2452 159.147 98.5208 159.585 98.7556" fill="white"/>
<path d="M163.101 104.6C162.843 103.606 162.556 102.621 162.22 101.657C161.782 102.132 161.245 102.506 160.647 102.75C159.836 103.072 158.968 103.23 158.096 103.212C156.121 103.254 154.159 102.875 152.342 102.1V104.661C154.234 104.036 156.209 103.699 158.202 103.661C159.88 103.652 161.545 103.969 163.102 104.596" fill="white"/>
<path d="M158 97.0928C158.745 97.095 159.489 97.1521 160.226 97.2638C160.188 97.2158 160.151 97.1638 160.113 97.1248C159.928 96.8972 159.699 96.7089 159.439 96.5708C159.273 96.4974 159.097 96.4508 158.916 96.4328C158.682 96.4056 158.446 96.3933 158.21 96.3958C157.886 96.3958 157.552 96.4108 157.246 96.4108H156.963C156.93 96.4108 156.898 96.4108 156.863 96.4108C157.037 96.6358 157.235 96.8688 157.457 97.1038C157.635 97.0978 157.815 97.0918 157.997 97.0918" fill="white"/>
<path d="M144.586 103.945C145.165 103.537 145.718 103.095 146.242 102.619C145.693 102.76 145.133 102.854 144.568 102.899C143.272 103.832 141.856 104.587 140.359 105.143C140.459 105.348 140.559 105.562 140.647 105.785C142.037 105.351 143.362 104.732 144.586 103.945Z" fill="white"/>
<path d="M155.453 154.718C155.378 154.666 155.288 154.64 155.196 154.644H155.186C155.007 154.644 154.151 154.644 153.086 154.644H148.499C148.505 154.706 148.508 154.768 148.508 154.83C148.508 155.05 148.47 155.269 148.396 155.476C149.396 155.476 151.196 155.466 152.72 155.466C153.836 155.466 154.794 155.466 155.191 155.479H155.213C155.27 155.484 155.327 155.476 155.38 155.456C155.433 155.436 155.481 155.404 155.52 155.363C155.587 155.282 155.623 155.179 155.62 155.074C155.62 155.002 155.606 154.931 155.576 154.865C155.551 154.807 155.511 154.757 155.46 154.719" fill="white"/>
<path d="M147.388 154.115C147.319 154.055 147.232 154.02 147.14 154.015C146.479 153.98 145.821 153.894 145.172 153.757C144.223 153.561 143.318 153.187 142.506 152.657C141.887 152.24 141.353 151.708 140.936 151.089L140.929 151.08V151.074C140.718 150.756 140.536 150.419 140.388 150.067C140.084 149.343 139.847 148.593 139.679 147.826C139.379 146.296 139.245 144.738 139.279 143.179C139.279 142.705 139.286 142.205 139.299 141.679C139.315 141.001 139.34 140.279 139.371 139.489C139.426 138.116 139.504 136.567 139.584 134.789C139.623 133.934 139.664 133.016 139.706 132.054C139.828 129.063 139.958 125.647 140.068 122.336C140.223 117.636 140.339 113.141 140.353 110.39C140.353 110.182 140.353 109.984 140.353 109.797C140.353 109.24 140.347 108.778 140.335 108.429C140.316 107.753 140.202 107.084 139.995 106.441C139.852 105.986 139.655 105.549 139.407 105.141C139.082 104.587 138.64 104.109 138.113 103.741C137.693 103.442 137.193 103.275 136.677 103.261C136.577 103.26 136.477 103.268 136.377 103.283C135.99 103.345 135.629 103.516 135.335 103.776C135.035 104.039 134.779 104.348 134.577 104.692C134.413 104.966 134.27 105.253 134.152 105.551H134.16C134.5 105.535 134.906 105.514 135.153 105.497C135.331 105.484 135.629 105.447 135.917 105.407C136.205 105.367 136.485 105.323 136.652 105.296L136.807 105.271C136.866 105.262 136.925 105.266 136.982 105.281C137.039 105.297 137.092 105.325 137.137 105.363C137.339 105.551 137.487 105.789 137.567 106.053C137.671 106.361 137.745 106.678 137.789 107C137.96 108.421 138.03 109.853 138 111.284V111.484C138 111.848 138 112.218 138 112.584C138.006 112.622 138.006 112.661 138 112.7C138 113.277 137.995 113.857 137.995 114.426C137.995 115.281 138.002 116.11 138.028 116.867C138.037 117.124 138.041 117.4 138.041 117.693C138.041 119.174 137.935 121.087 137.792 123.079C137.542 126.511 137.179 130.173 137.036 132.163C137.009 132.556 136.99 132.881 136.982 133.124C136.961 133.746 136.882 134.688 136.806 135.871C136.73 137.054 136.662 138.471 136.662 140.021C136.662 140.55 136.67 141.096 136.689 141.652C136.742 143.667 136.969 145.675 137.366 147.652C137.535 148.478 137.747 149.295 138 150.1C138.074 150.327 138.146 150.541 138.222 150.741C138.689 152.129 139.503 153.375 140.586 154.36C141.271 154.948 142.078 155.375 142.948 155.611C143.682 155.804 144.439 155.896 145.198 155.887C145.741 155.887 146.222 155.851 146.613 155.835C146.881 155.839 147.142 155.748 147.349 155.578C147.453 155.486 147.534 155.372 147.586 155.244C147.639 155.112 147.666 154.971 147.665 154.829C147.666 154.679 147.636 154.531 147.578 154.393C147.534 154.286 147.466 154.192 147.378 154.117" fill="white"/>
<path d="M137.211 150.355C136.979 149.637 136.787 148.906 136.623 148.172H115.438C114.521 148.172 113.641 147.808 112.993 147.159C112.344 146.51 111.979 145.63 111.979 144.713C111.979 143.796 112.344 142.916 112.993 142.267C113.641 141.618 114.521 141.254 115.438 141.254H135.838C135.828 140.837 135.821 140.424 135.821 140.024C135.821 139.987 135.821 139.951 135.821 139.915H96.1804C96.0703 139.915 95.9648 139.871 95.8869 139.793C95.8091 139.716 95.7654 139.61 95.7654 139.5C95.7654 139.39 95.8091 139.284 95.8869 139.207C95.9648 139.129 96.0703 139.085 96.1804 139.085H135.833C135.854 137.878 135.91 136.771 135.97 135.822C136.045 134.631 136.126 133.681 136.145 133.1C136.145 132.947 136.159 132.766 136.171 132.565C134.861 132.605 133.484 132.658 132.042 132.725C127.318 132.945 121.079 133.546 114.933 134.383C109.363 135.088 103.838 136.112 98.3854 137.452C95.1094 138.324 93.4534 138.892 92.1214 139.352C90.7158 139.87 89.2777 140.295 87.8164 140.625C86.5164 140.925 84.8164 141.25 82.3164 141.673C81.8024 141.76 81.2964 141.838 80.7954 141.912L81.5084 143.745C81.5482 143.848 81.5456 143.962 81.5011 144.063C81.4567 144.163 81.374 144.242 81.2714 144.282C81.1688 144.322 81.0545 144.319 80.9538 144.275C80.8531 144.23 80.7742 144.148 80.7344 144.045L79.9504 142.028C79.1194 142.139 78.3074 142.228 77.5104 142.306L78.0524 144.006C78.0858 144.111 78.0762 144.225 78.0256 144.323C77.9751 144.42 77.8878 144.494 77.7829 144.527C77.678 144.561 77.5641 144.551 77.4663 144.501C77.3685 144.45 77.2948 144.363 77.2614 144.258L76.6614 142.379C74.6614 142.546 72.7614 142.615 70.9394 142.615C66.1264 142.615 61.8544 142.156 57.6324 141.876C54.4734 141.666 50.4594 141.276 46.6624 140.868V139.063L46.6894 139.07C47.5228 139.498 48.4531 139.703 49.3894 139.664C51.1464 139.664 51.4164 138.448 51.4164 138.448C50.736 138.383 50.0843 138.141 49.5253 137.748C48.9662 137.355 48.5189 136.823 48.2274 136.205C50.6604 136.583 50.7144 135.556 50.7144 135.556C50.0893 135.402 49.5113 135.097 49.0308 134.669C48.5503 134.24 48.1818 133.7 47.9574 133.097C49.5524 133.232 49.8764 132.476 49.8764 132.476C49.2996 132.287 48.7698 131.977 48.3224 131.567C47.8751 131.156 47.5205 130.655 47.2824 130.097C47.8854 130.183 48.5003 130.108 49.0654 129.881C47.1474 129.395 46.0384 127.125 46.0384 127.125C45.8139 127.774 45.4326 128.358 44.9283 128.825C44.4239 129.292 43.8122 129.627 43.1474 129.8C43.3865 130.002 43.6743 130.139 43.9822 130.196C44.2902 130.253 44.6077 130.228 44.9034 130.125C44.6819 130.726 44.3097 131.261 43.8224 131.677C43.3351 132.094 42.7491 132.378 42.1204 132.503C42.4092 132.772 42.7619 132.962 43.1449 133.057C43.5279 133.151 43.9287 133.147 44.3094 133.043C43.7414 134.665 41.4174 135.61 41.4174 135.61C41.7992 135.885 42.2398 136.067 42.7043 136.143C43.1687 136.218 43.6444 136.184 44.0934 136.043C43.3055 137.217 42.1859 138.129 40.8774 138.664C42.7824 140.396 45.0704 139.071 45.4444 138.835V140.735C40.9564 140.243 36.9444 139.752 35.2704 139.543C34.0704 139.392 32.5274 139.235 30.9334 138.969C29.3828 138.737 27.8626 138.335 26.4004 137.769C28.176 139.319 30.1414 140.637 32.2494 141.692C36.2941 143.642 40.5086 145.219 44.8404 146.402C53.9784 149.116 65.1274 150.042 71.9654 150.159C77.1274 150.251 81.7824 150.431 86.6544 150.431C88.2754 150.431 89.9194 150.411 91.6144 150.362C92.6814 150.33 94.3204 150.317 96.3544 150.317C105.723 150.317 123.464 150.591 131.516 150.591C132.97 150.591 134.109 150.582 134.816 150.561C135.53 150.542 136.303 150.523 137.259 150.5C137.242 150.447 137.222 150.4 137.205 150.343L137.211 150.355ZM109.564 145.128H85.8474C85.7373 145.128 85.6318 145.084 85.5539 145.006C85.4761 144.929 85.4324 144.823 85.4324 144.713C85.4324 144.603 85.4761 144.497 85.5539 144.42C85.6318 144.342 85.7373 144.298 85.8474 144.298H109.564C109.674 144.298 109.78 144.342 109.858 144.42C109.936 144.497 109.979 144.603 109.979 144.713C109.979 144.823 109.936 144.929 109.858 145.006C109.78 145.084 109.674 145.128 109.564 145.128Z" fill="white"/>
<path d="M128.984 105.945C128.917 105.932 128.845 105.918 128.77 105.901L128.65 105.873C128.401 105.82 128.141 105.757 127.892 105.689C127.609 105.904 127.315 106.105 127.012 106.289C129.032 106.782 131.103 107.036 133.182 107.045C133.466 107.045 133.744 107.04 134.016 107.029C134.984 106.994 135.948 106.891 136.902 106.72C136.874 106.585 136.837 106.451 136.792 106.32C136.768 106.251 136.738 106.184 136.703 106.12C135.614 106.316 134.509 106.414 133.403 106.414C132.54 106.413 131.679 106.357 130.823 106.249C130.437 106.201 130.054 106.145 129.675 106.08H129.665H129.655H129.639L129.568 106.067C129.509 106.057 129.448 106.045 129.383 106.031H129.375C129.275 106.01 129.137 105.985 128.988 105.953" fill="white"/>
<path d="M117.028 105.176C116.828 105.186 116.628 105.19 116.44 105.19C115.794 105.192 115.149 105.129 114.517 105C113.67 104.836 112.861 104.514 112.134 104.05C111.572 103.682 111.065 103.237 110.629 102.727C110.386 102.445 110.182 102.174 110.005 101.937C109.828 101.7 109.679 101.498 109.556 101.358C109.369 101.14 109.148 100.954 108.901 100.807C108.724 100.698 108.523 100.637 108.316 100.63C108.166 100.629 108.02 100.675 107.899 100.762C107.725 100.895 107.588 101.07 107.499 101.27C107.43 101.412 107.396 101.568 107.399 101.726C107.418 102.109 107.527 102.482 107.717 102.816C107.902 103.169 108.138 103.493 108.417 103.779C108.505 103.868 108.599 103.973 108.708 104.096C109.128 104.58 109.593 105.024 110.097 105.421C110.916 106.05 111.828 106.549 112.8 106.9C114.04 107.343 115.334 107.621 116.648 107.728C117.224 107.781 117.78 107.805 118.315 107.805C120.89 107.825 123.433 107.227 125.731 106.062C126.366 105.746 126.968 105.365 127.525 104.925C127.547 104.906 127.571 104.89 127.598 104.877L127.626 104.864C127.645 104.855 127.665 104.848 127.686 104.843L127.717 104.835C127.74 104.831 127.764 104.829 127.788 104.829H127.81C127.84 104.831 127.869 104.835 127.899 104.843C128.206 104.925 128.512 105.003 128.82 105.07L128.845 105.077C128.862 105.077 128.896 105.089 128.938 105.098H128.945L129.056 105.121C128.879 104.724 128.661 104.347 128.405 103.996C128.064 103.52 127.597 103.149 127.056 102.925C126.645 102.768 126.209 102.692 125.77 102.699C125.654 102.699 125.534 102.699 125.409 102.712C125.001 102.748 124.601 102.847 124.224 103.007C123.824 103.166 123.413 103.38 122.941 103.616C122.259 103.969 121.551 104.27 120.824 104.516C119.594 104.912 118.315 105.137 117.024 105.184" fill="white"/>
<path d="M102.5 93.4569C102.748 93.4363 102.995 93.4256 103.241 93.4249C104.315 93.4307 105.378 93.6365 106.376 94.0319C107.624 94.5386 108.812 95.1815 109.919 95.9489C112.064 97.3809 114.644 99.3549 117.112 101.135C118.394 102.062 119.641 102.935 120.776 103.646C121.176 103.504 121.547 103.352 121.886 103.196C119.253 101.644 116.708 99.9467 114.262 98.1129C113.771 97.7603 113.277 97.4113 112.78 97.0659C110.747 95.6006 108.585 94.322 106.322 93.2459C105.309 92.7814 104.207 92.5426 103.093 92.5459C102.488 92.5482 101.885 92.6135 101.293 92.7409C101.714 92.9373 102.111 93.1805 102.478 93.4659L102.506 93.4609" fill="white"/>
<path d="M92.176 94.1641C92.6749 93.9863 93.2005 93.895 93.73 93.8941C94.5897 93.9242 95.4391 94.0913 96.246 94.3891C96.677 94.5291 97.133 94.6961 97.629 94.8821C97.8036 94.9488 97.9739 95.0259 98.139 95.1131C98.147 95.1131 98.154 95.1211 98.163 95.1241C98.1724 95.1297 98.1821 95.1347 98.192 95.1391C99.387 95.857 100.424 96.8095 101.241 97.9391C101.613 98.4171 101.878 98.8151 102.013 99.0251C102.386 99.0969 102.764 99.1361 103.143 99.1421C103.472 99.1633 103.801 99.0996 104.098 98.9571C104.195 98.9094 104.271 98.8285 104.312 98.7291C104.317 98.7141 104.322 98.6987 104.325 98.6831C104.18 97.9492 103.967 97.2304 103.689 96.5361C103.354 95.645 102.804 94.8502 102.089 94.2221C101.443 93.7017 100.698 93.3167 99.9 93.0901C98.932 92.7841 97.85 92.5901 96.73 92.2641C96.0008 92.0267 95.2416 91.894 94.475 91.8701C94.368 91.8701 94.266 91.8701 94.167 91.8821C93.6471 91.9133 93.1439 92.0779 92.706 92.3601C92.2442 92.6773 91.8076 93.0297 91.4 93.4141C91.2053 93.5845 91.0287 93.7745 90.873 93.9811C91.0064 94.0831 91.147 94.1808 91.295 94.2741C91.5844 94.2069 91.88 94.1704 92.177 94.1651" fill="white"/>
<path d="M97.2539 95.6284C96.9039 95.4974 96.5769 95.3774 96.2709 95.2734C96.2159 95.3204 96.1599 95.3684 96.1099 95.4154C95.723 95.7937 95.3841 96.2183 95.1009 96.6794C94.7788 97.193 94.4857 97.7242 94.2229 98.2704C93.9419 98.8464 93.7099 99.3884 93.5449 99.7964C93.6009 99.7674 93.6549 99.7364 93.7139 99.7114C93.9793 99.5887 94.2675 99.523 94.5599 99.5184C94.6299 99.52 94.6997 99.5261 94.7689 99.5364C94.9459 99.0828 95.1489 98.6397 95.3769 98.2094C95.8693 97.2604 96.501 96.3904 97.2509 95.6284" fill="white"/>
<path d="M90.7281 102.924L90.7341 102.936C90.9651 103.568 91.2767 104.169 91.6611 104.722C91.7304 104.818 91.8099 104.906 91.8981 104.986C91.9877 105.049 92.0902 105.091 92.1981 105.11C92.3795 105.149 92.5646 105.168 92.7501 105.166C92.9955 105.165 93.2401 105.14 93.4801 105.089C93.6755 105.05 93.8642 104.982 94.0401 104.889C94.0935 104.862 94.1409 104.824 94.1791 104.778C94.2057 104.7 94.2176 104.618 94.2141 104.537C94.2044 104.285 94.162 104.036 94.0881 103.796C94.0176 103.552 93.9325 103.313 93.8331 103.08C93.7801 102.955 93.7331 102.857 93.7141 102.826C93.6971 102.794 93.6391 102.699 93.5641 102.574C93.4891 102.449 93.3911 102.285 93.2831 102.097C93.0671 101.721 92.8081 101.244 92.5831 100.739V100.733L92.5011 100.546C92.339 100.177 92.2102 99.795 92.1161 99.4036C92.0405 99.0407 91.9881 98.6733 91.9591 98.3036C91.9211 97.8866 91.8941 97.4336 91.8761 96.9906C91.8761 96.9286 91.8761 96.8676 91.8691 96.8066C91.509 96.8941 91.1396 96.9371 90.7691 96.9346C90.5461 96.9346 90.3341 96.9266 90.1281 96.9146C90.1131 97.1926 90.0971 97.5146 90.0861 97.8656C90.0771 98.1796 90.0701 98.5126 90.0701 98.8496C90.0597 99.5347 90.0961 100.22 90.1791 100.9C90.2882 101.591 90.4723 102.268 90.7281 102.919" fill="white"/>
<path d="M87.951 100.312L89.5 101.739C89.445 101.502 89.4 101.264 89.361 101.027C89.2684 100.303 89.2267 99.5734 89.236 98.8437C89.236 98.6351 89.238 98.43 89.242 98.2287C89.1894 98.212 89.1407 98.1848 89.099 98.1487L88.499 97.6367H88.473C87.9582 97.6496 87.4499 97.7556 86.973 97.9497C86.8496 97.9958 86.7331 98.0587 86.627 98.1367V99.0997L87.95 100.316L87.951 100.312Z" fill="white"/>
<path d="M85.3002 105.909C85.3802 106.309 85.4672 106.68 85.5572 107C85.6277 107.265 85.7197 107.524 85.8322 107.775C85.9968 108.138 86.2664 108.444 86.6062 108.653C86.8914 108.82 87.2163 108.909 87.5472 108.909C87.8747 108.915 88.1964 108.821 88.4702 108.642C88.628 108.535 88.7552 108.389 88.8392 108.218C88.9145 108.049 88.9514 107.865 88.9472 107.68C88.9129 107.149 88.7717 106.631 88.5322 106.156C88.2842 105.604 87.9662 105.048 87.6992 104.556C87.5356 104.27 87.3916 103.974 87.2682 103.669C87.2292 103.567 87.1958 103.462 87.1682 103.357C87.0563 102.913 87.0028 102.457 87.0092 102C87.0093 101.64 87.0368 101.28 87.0912 100.925C86.9972 100.849 86.8792 100.754 86.7462 100.649C86.4522 100.417 86.0992 100.149 85.8952 100.009L85.8392 99.9727H85.8092C85.7392 99.9827 85.6472 99.9997 85.5462 100.024C85.3353 100.071 85.1329 100.15 84.9462 100.259C84.8599 100.307 84.7871 100.375 84.7342 100.459C84.7156 100.493 84.7043 100.53 84.7012 100.569C84.7012 100.599 84.7012 100.651 84.7012 100.717C84.7012 101.06 84.7462 101.758 84.8292 102.579C84.9292 103.611 85.0982 104.85 85.3072 105.901" fill="white"/>
<path d="M81.7004 104.687C82.2468 105.249 82.677 105.913 82.9664 106.641L83.0014 106.651C83.1523 106.693 83.308 106.715 83.4644 106.716C83.6669 106.723 83.8666 106.669 84.0384 106.561C84.2448 106.415 84.3967 106.204 84.4704 105.961C84.2704 104.918 84.1114 103.74 84.0094 102.735C84.0004 102.716 83.9924 102.695 83.9794 102.666C83.9464 102.588 83.8994 102.481 83.8464 102.366C83.7544 102.166 83.6394 101.928 83.5464 101.774C83.4294 101.816 83.2764 101.874 83.1044 101.953C82.7018 102.128 82.3159 102.34 81.9514 102.584C81.7542 102.712 81.5784 102.871 81.4304 103.053C81.3455 103.18 81.3038 103.33 81.3114 103.482C81.3246 103.763 81.3897 104.039 81.5034 104.295C81.5605 104.432 81.6256 104.566 81.6984 104.695" fill="white"/>
<path d="M87.4066 123.369C85.1426 122.468 82.7416 121.959 80.3066 121.864C81.0357 122.488 81.6664 123.218 82.1776 124.03C82.5966 124.154 83.0206 124.3 83.4506 124.475C85.2096 125.192 86.9956 126.345 89.0506 127.353C90.9884 128.356 93.0838 129.018 95.2456 129.312C93.1683 126.711 90.4755 124.669 87.4106 123.369" fill="white"/>
<path d="M77.6098 106.748L78.0098 107.206C78.2528 107.481 78.5778 107.847 78.9098 108.206C79.1598 108.484 79.4098 108.761 79.6258 108.996C79.8418 109.231 80.0258 109.424 80.1208 109.524C80.2732 109.652 80.4501 109.747 80.6408 109.804C80.9092 109.894 81.1904 109.942 81.4738 109.944C81.6781 109.946 81.8812 109.912 82.0738 109.844C82.2358 109.788 82.3792 109.688 82.4878 109.555C82.5438 109.478 82.5836 109.39 82.6048 109.298C82.6395 109.154 82.6559 109.006 82.6538 108.858C82.6295 108.259 82.4984 107.669 82.2668 107.117C82.0108 106.414 81.6079 105.774 81.0848 105.24C80.8743 105.036 80.6368 104.862 80.3788 104.723C80.2405 104.646 80.086 104.602 79.9278 104.595C79.8195 104.594 79.7141 104.629 79.6278 104.695C79.5232 104.776 79.437 104.878 79.3748 104.995C79.212 105.258 78.9866 105.477 78.7188 105.633C78.4908 105.769 78.2547 105.891 78.0118 105.998C77.8738 106.062 77.7558 106.119 77.6848 106.162C77.6645 106.173 77.6451 106.186 77.6268 106.201C77.5578 106.29 77.517 106.398 77.5098 106.511C77.5112 106.599 77.5471 106.683 77.6098 106.745V106.748Z" fill="white"/>
<path d="M74.5813 112.719C74.714 113.005 74.8819 113.274 75.0813 113.519C75.3861 113.894 75.7365 114.23 76.1243 114.519C76.137 114.526 76.1504 114.532 76.1643 114.538C76.2003 114.552 76.2374 114.563 76.2753 114.571C76.3904 114.595 76.5077 114.606 76.6253 114.606C76.8498 114.606 77.0729 114.569 77.2853 114.497C77.456 114.445 77.6074 114.343 77.7203 114.205C77.7784 114.123 77.8108 114.026 77.8133 113.927C77.8133 113.9 77.8133 113.871 77.8133 113.841C77.7838 113.337 77.6907 112.838 77.5363 112.358C77.3743 111.792 77.1723 111.213 77.0183 110.751C76.9294 110.501 76.8546 110.247 76.7943 109.99C76.7813 109.92 76.7746 109.849 76.7743 109.778C76.7752 109.574 76.8312 109.375 76.9363 109.202C77.0197 109.062 77.1258 108.937 77.2503 108.832C77.3738 108.724 77.5106 108.632 77.6573 108.559L77.8573 108.442C77.6605 108.306 77.4348 108.219 77.1983 108.186H77.1573C77.0072 108.193 76.8599 108.229 76.7233 108.292C76.5224 108.378 76.3307 108.485 76.1513 108.611C75.7536 108.885 75.3932 109.209 75.0793 109.577C74.9095 109.765 74.756 109.968 74.6203 110.183C74.5148 110.362 74.4448 110.56 74.4143 110.766C74.3819 110.975 74.3648 111.187 74.3633 111.399C74.3633 111.463 74.3633 111.533 74.3633 111.606C74.3633 111.679 74.3633 111.754 74.3633 111.833C74.3739 112.139 74.4468 112.439 74.5773 112.717" fill="white"/>
<path d="M68.7524 114.3C68.7674 114.634 68.7904 114.98 68.8214 115.282C68.8409 115.517 68.877 115.751 68.9294 115.982C68.9402 116.026 68.9596 116.067 68.9864 116.104C69.0085 116.133 69.0364 116.157 69.0684 116.174C69.174 116.227 69.2914 116.252 69.4094 116.246C69.6069 116.242 69.8024 116.206 69.9884 116.139C70.36 116.037 70.6923 115.825 70.9424 115.532C71.1079 115.296 71.2039 115.019 71.2194 114.732C71.2404 114.492 71.2491 114.251 71.2454 114.011C71.2454 112.955 71.2534 112.105 71.2534 112.104C71.2543 112.019 71.2809 111.937 71.3297 111.868C71.3785 111.799 71.4471 111.747 71.5264 111.718L72.7004 111.292C72.4443 111.169 72.1653 111.101 71.8814 111.092C71.8181 111.092 71.755 111.096 71.6924 111.105C71.5362 111.133 71.3836 111.179 71.2374 111.241C71.032 111.326 70.8317 111.422 70.6374 111.53C70.2048 111.766 69.7921 112.037 69.4034 112.34C69.2026 112.493 69.0162 112.664 68.8464 112.851C68.8031 112.898 68.7655 112.949 68.7344 113.005C68.7344 113.079 68.7344 113.183 68.7344 113.305C68.7344 113.57 68.7424 113.924 68.7604 114.293L68.7524 114.3Z" fill="white"/>
<path d="M28.6914 122.576C28.7278 122.609 28.7673 122.639 28.8094 122.665C28.8847 122.713 28.9625 122.758 29.0424 122.798C29.2254 122.898 29.4544 122.998 29.6894 123.098C30.1584 123.293 30.6564 123.468 30.8964 123.546L31.0174 123.583L31.0714 123.596L31.2374 123.632C31.3844 123.665 31.6054 123.713 31.8974 123.773C32.4804 123.895 33.3494 124.073 34.4884 124.28C36.7644 124.7 40.1174 125.264 44.4184 125.834C53.0334 126.979 53.4184 127.105 57.2084 127.765C58.6254 128.013 59.5244 128.134 60.2024 128.248C60.7736 128.323 61.3316 128.476 61.8604 128.705C62.244 128.887 62.614 129.097 62.9674 129.333C63.553 129.74 64.1155 130.18 64.6524 130.65C65.1537 131.089 65.7205 131.446 66.3324 131.71C66.7661 131.879 67.2279 131.965 67.6934 131.963C67.8941 131.962 68.0946 131.949 68.2934 131.922C68.7075 131.863 69.0999 131.7 69.4344 131.449C69.7428 131.218 70.0209 130.949 70.2624 130.649C69.2348 128.849 67.7108 127.382 65.8724 126.425C64.2284 125.568 62.4624 124.97 60.6364 124.65C59.7331 124.477 58.8151 124.393 57.8954 124.4C57.4374 124.4 57.0074 124.415 56.5744 124.415C55.6047 124.437 54.6382 124.294 53.7164 123.992C52.8339 123.747 52.0759 123.178 51.5934 122.4C51.4034 122.074 51.2784 121.714 51.2254 121.341C48.7685 121.79 46.283 122.066 43.7874 122.167C41.9944 122.267 39.6074 122.301 37.2144 122.301C33.5464 122.301 29.8724 122.223 28.3574 122.186C28.461 122.32 28.5719 122.449 28.6894 122.572L28.6914 122.576Z" fill="white"/>
<path d="M62.6602 117.7C62.6636 117.895 62.6796 118.09 62.7082 118.283C62.7256 118.419 62.762 118.551 62.8162 118.676C62.8306 118.703 62.8508 118.726 62.8752 118.743C62.9223 118.778 62.9742 118.806 63.0292 118.826C63.192 118.884 63.3636 118.912 63.5362 118.909C63.6567 118.91 63.7768 118.897 63.8942 118.87C63.9714 118.855 64.0455 118.827 64.1132 118.787C64.3062 118.66 64.4982 118.574 64.6532 118.481C64.7763 118.42 64.8827 118.329 64.9632 118.217C65.0011 118.151 65.0195 118.076 65.0162 118C65.0151 117.935 65.0071 117.87 64.9922 117.806C64.8906 117.347 64.84 116.877 64.8412 116.406C64.8412 116.106 64.8612 115.906 64.8622 115.897C64.8781 115.74 64.925 115.587 65.0002 115.447C65.1701 115.131 65.4518 114.89 65.7902 114.77C66.1042 114.649 66.6042 114.441 67.0182 114.27C66.8741 114.201 66.7171 114.162 66.5572 114.157C66.4758 114.157 66.395 114.17 66.3182 114.197C65.8182 114.37 64.5832 114.857 63.7922 115.22C63.5916 115.308 63.3957 115.407 63.2052 115.515C63.1235 115.566 63.0528 115.632 62.9972 115.71C62.9357 115.798 62.8869 115.893 62.8522 115.994C62.7791 116.222 62.7301 116.456 62.7062 116.694C62.6744 116.96 62.659 117.227 62.6602 117.494C62.6602 117.562 62.6602 117.63 62.6602 117.699V117.7Z" fill="white"/>
<path d="M101.957 79.1004C101.957 79.1004 101.588 79.9624 99.7734 79.8084C100.029 80.4954 100.448 81.1096 100.995 81.5975C101.542 82.0855 102.2 82.4325 102.911 82.6084C102.911 82.6084 102.849 83.7774 100.08 83.3464C100.336 83.8705 100.683 84.3446 101.105 84.7464C101.714 84.2344 102.28 83.7704 102.761 83.3974C102.843 83.3334 102.918 83.2764 102.995 83.2184V78.0664C102.462 78.3583 101.912 78.6187 101.348 78.8464C101.546 78.9431 101.749 79.0266 101.957 79.0964" fill="#FCDE00"/>
<path d="M121.454 101.993V98.793C120.5 99.3809 119.445 99.7877 118.344 99.993C119.366 100.693 120.399 101.372 121.454 101.993Z" fill="#FCDE00"/>
<path d="M140.229 102.538V104.306C140.987 104.015 141.725 103.672 142.436 103.278C141.677 103.159 140.945 102.912 140.27 102.547L140.229 102.538Z" fill="#FCDE00"/>
<path d="M143.293 95.3002C143.611 95.6704 143.974 96.0002 144.372 96.2822C144.678 95.9526 144.963 95.6046 145.227 95.2402C144.826 95.3041 144.422 95.3375 144.016 95.3402C143.786 95.3402 143.544 95.3292 143.293 95.3052" fill="#FCDE00"/>
<path d="M138.378 102.919V102.19C138.144 102.336 137.902 102.467 137.652 102.584C137.906 102.669 138.149 102.782 138.378 102.919Z" fill="#FCDE00"/>
<path d="M86.627 96.0186V97.2006L86.679 97.1786C87.2486 96.9492 87.855 96.8248 88.469 96.8116C88.5494 96.8107 88.6299 96.8144 88.71 96.8226C88.7905 96.8341 88.8659 96.8689 88.927 96.9226L89.275 97.2226C89.281 97.0876 89.288 96.9606 89.295 96.8416C88.3757 96.7478 87.4835 96.476 86.668 96.0416L86.627 96.0186Z" fill="#FCDE00"/>
<path d="M98.3008 86.5996V87.1676L98.7218 86.7976C98.5875 86.7431 98.4572 86.6793 98.3318 86.6066L98.3008 86.5996Z" fill="#FCDE00"/>
<path d="M156.294 95.6002C156.516 95.5882 156.737 95.5782 156.96 95.5782H157.243C157.352 95.5782 157.472 95.5782 157.596 95.5782C157.137 95.5726 156.68 95.5439 156.225 95.4922L156.294 95.6032" fill="#FCDE00"/>
<path d="M146.646 48.6478C135.55 37.8472 120.676 31.8037 105.19 31.8037C89.7052 31.8037 74.8313 37.8472 63.7345 48.6478C56.6059 55.5841 51.4263 64.2727 48.7149 73.8423C46.0036 83.4118 45.8558 93.5261 48.2865 103.171L48.3325 103.156C48.5971 103.066 48.8559 102.96 49.1075 102.838C49.8781 102.478 50.5661 101.962 51.1285 101.324C51.5764 100.802 51.902 100.187 52.0815 99.5238C52.1034 99.4421 52.1497 99.3691 52.2143 99.3145C52.2789 99.2598 52.3586 99.2263 52.4428 99.2182C52.527 99.2102 52.6116 99.228 52.6854 99.2694C52.7591 99.3108 52.8185 99.3737 52.8555 99.4498L52.8635 99.4638L52.8925 99.5208C52.9195 99.5718 52.9605 99.6478 53.0155 99.7428C53.1235 99.9328 53.2865 100.203 53.5015 100.51C54.0122 101.26 54.6367 101.925 55.3525 102.483C55.8807 102.893 56.4855 103.194 57.1315 103.368C57.215 103.389 57.2898 103.437 57.3453 103.503C57.4009 103.569 57.4345 103.651 57.4416 103.737C57.4486 103.823 57.4287 103.909 57.3846 103.983C57.3405 104.057 57.2744 104.116 57.1955 104.151C56.518 104.423 55.7955 104.565 55.0655 104.571H55.0465C55.1852 104.812 55.3409 105.042 55.5125 105.261C56.2448 106.203 57.2427 106.905 58.3775 107.275C58.4321 107.293 58.4824 107.322 58.5251 107.361C58.5678 107.399 58.6021 107.446 58.6257 107.499C58.6493 107.551 58.6617 107.608 58.6622 107.665C58.6627 107.723 58.6512 107.78 58.6285 107.833C58.4934 108.1 58.2897 108.326 58.0385 108.488C57.4318 108.871 56.7238 109.063 56.0065 109.039C56.1606 109.34 56.3416 109.626 56.5475 109.894C56.6545 110.033 56.7785 110.175 56.9095 110.317C58.7703 109.456 60.3503 108.088 61.4675 106.369C60.7412 106.596 59.972 106.651 59.2208 106.53C58.4696 106.408 57.757 106.114 57.1395 105.669C57.1395 105.669 60.8985 104.139 61.8165 101.515C61.2006 101.682 60.5522 101.69 59.9325 101.537C59.3129 101.384 58.7425 101.076 58.2755 100.641C59.2922 100.438 60.2399 99.978 61.0278 99.3042C61.8157 98.6305 62.4175 97.7657 62.7755 96.7928C62.2971 96.9606 61.7831 97.0004 61.2846 96.9083C60.7861 96.8162 60.3203 96.5954 59.9335 96.2678C59.9335 96.2678 63.6935 95.3498 64.6125 91.9398C64.6125 91.9398 66.4045 95.6128 69.5125 96.3998C68.598 96.767 67.6031 96.8874 66.6275 96.7488C67.0133 97.6522 67.5875 98.4628 68.3118 99.1264C69.0362 99.79 69.8938 100.291 70.8275 100.597C70.8275 100.597 70.3005 101.82 67.7205 101.6C68.0841 102.576 68.6805 103.449 69.4579 104.142C70.2353 104.836 71.1702 105.329 72.1815 105.579C72.1815 105.579 72.0925 107.24 68.1585 106.628C68.6302 107.628 69.3537 108.488 70.2581 109.124C71.1625 109.761 72.2168 110.151 73.3175 110.257C73.2859 110.376 73.242 110.491 73.1865 110.601C73.2305 110.623 73.2735 110.646 73.3145 110.668C73.4145 110.721 73.4975 110.773 73.5745 110.821C73.593 110.648 73.6265 110.477 73.6745 110.31C73.7574 110.025 73.8905 109.758 74.0675 109.52C74.1825 109.363 74.3085 109.211 74.4505 109.042C74.7214 108.725 75.0228 108.435 75.3505 108.177C75.6751 107.913 76.0336 107.694 76.4165 107.525C76.6189 107.437 76.8339 107.383 77.0535 107.363L76.9935 107.295C76.7971 107.081 76.687 106.801 76.6845 106.511C76.6917 106.217 76.7915 105.934 76.9695 105.701C77.0162 105.638 77.0721 105.582 77.1355 105.536C77.1893 105.495 77.2458 105.459 77.3045 105.426C77.4195 105.361 77.5415 105.304 77.6685 105.244C77.9192 105.138 78.1598 105.009 78.3875 104.86C78.496 104.788 78.5883 104.694 78.6585 104.584C78.7783 104.365 78.9441 104.174 79.1445 104.025C79.3726 103.858 79.6479 103.769 79.9305 103.769C80.1359 103.771 80.3393 103.811 80.5305 103.886C80.5041 103.75 80.49 103.613 80.4885 103.475C80.4803 103.146 80.5782 102.824 80.7675 102.556C80.9277 102.345 81.1173 102.157 81.3305 102C81.5532 101.834 81.7871 101.684 82.0305 101.55C82.4383 101.323 82.8637 101.128 83.3025 100.969C83.3925 100.938 83.4655 100.915 83.5335 100.899C83.5818 100.886 83.6315 100.879 83.6815 100.879C83.7401 100.879 83.7981 100.891 83.8525 100.913L83.8665 100.92C83.8665 100.848 83.8665 100.781 83.8665 100.72C83.8665 100.64 83.8665 100.572 83.8725 100.509C83.8941 100.246 84.0065 99.9982 84.1905 99.8088C84.3506 99.6463 84.5399 99.5153 84.7485 99.4228L84.7825 99.4078V95.6678C84.2155 96.0268 80.7495 98.0338 77.8625 95.4098C79.8448 94.5988 81.5408 93.2161 82.7345 91.4378C82.0545 91.651 81.3341 91.7029 80.6306 91.5892C79.927 91.4755 79.2597 91.1994 78.6815 90.7828C78.6815 90.7828 82.2025 89.3498 83.0625 86.8928C82.4856 87.0498 81.8781 87.057 81.2977 86.9137C80.7172 86.7704 80.183 86.4813 79.7455 86.0738C80.6979 85.885 81.5859 85.4549 82.3245 84.8245C83.0631 84.1942 83.6274 83.3848 83.9635 82.4738C83.5154 82.6309 83.034 82.6682 82.567 82.5819C82.1001 82.4956 81.6638 82.2887 81.3015 81.9818C81.3015 81.9818 84.8235 81.1218 85.6835 77.9278C85.6835 77.9278 87.3615 81.3678 90.2695 82.1048C89.4135 82.448 88.4827 82.5611 87.5695 82.4328C87.9309 83.278 88.4685 84.0363 89.1464 84.6571C89.8243 85.2779 90.6268 85.7469 91.5005 86.0328C91.5005 86.0328 91.0085 87.1798 88.5935 86.9748C88.9334 87.8889 89.4916 88.7061 90.2194 89.3553C90.9472 90.0045 91.8226 90.4661 92.7695 90.6998C92.7695 90.6998 92.6875 92.2558 89.0015 91.6828C89.3163 92.3306 89.7378 92.9208 90.2485 93.4288C90.4272 93.1953 90.6281 92.9796 90.8485 92.7848C91.2891 92.371 91.7616 91.9925 92.2615 91.6528C92.7673 91.3308 93.3411 91.1305 93.9375 91.0678C94.2525 90.7788 95.4375 89.6948 96.9065 88.3878V86.3358C96.4815 86.6048 93.8765 88.1138 91.7065 86.1418C93.1959 85.5319 94.4702 84.4929 95.3675 83.1568C94.8563 83.3171 94.3147 83.3562 93.7858 83.2708C93.2569 83.1854 92.7552 82.9779 92.3205 82.6648C92.3205 82.6648 94.8745 81.6228 95.5745 79.8338C95.4745 79.8258 95.3745 79.8138 95.2745 79.8028C94.65 79.9015 94.0108 79.7716 93.4745 79.4368C91.9943 78.9786 90.6366 78.1925 89.5025 77.1368C89.4501 77.0892 89.4108 77.029 89.388 76.9621C89.3653 76.8951 89.36 76.8234 89.3725 76.7538C89.3853 76.6842 89.4158 76.6191 89.4609 76.5647C89.5061 76.5102 89.5645 76.4683 89.6305 76.4428L89.6455 76.4358L89.6985 76.4148C89.7455 76.3958 89.8155 76.3668 89.9065 76.3268C90.0875 76.2488 90.3525 76.1268 90.6795 75.9708C91.559 75.5422 92.4128 75.0627 93.2365 74.5348C95.2847 73.2692 97.0647 71.6139 98.4755 69.6628C97.8519 69.7794 97.2189 69.8383 96.5845 69.8388C94.6223 69.8612 92.7082 69.2316 91.1425 68.0488C91.0842 68.0042 91.0389 67.945 91.011 67.8771C90.9832 67.8093 90.9739 67.7352 90.9841 67.6626C90.9943 67.59 91.0235 67.5214 91.0689 67.4638C91.1143 67.4062 91.1742 67.3616 91.2425 67.3348H91.2495L91.2805 67.3218L91.4035 67.2688C91.5125 67.2218 91.6725 67.1498 91.8705 67.0558C92.2705 66.8658 92.8315 66.5838 93.4705 66.2148C95.0117 65.3535 96.4217 64.2759 97.6575 63.0148C98.339 62.3063 98.9071 61.4967 99.3415 60.6148C98.9109 60.6763 98.4764 60.7074 98.0415 60.7078C97.2158 60.7152 96.3945 60.5868 95.6105 60.3278C94.6743 60.0172 93.8364 59.4653 93.1815 58.7278C93.1327 58.6724 93.0997 58.605 93.0856 58.5325C93.0716 58.4601 93.0772 58.3852 93.1017 58.3156C93.1263 58.2461 93.169 58.1843 93.2253 58.1367C93.2817 58.0891 93.3497 58.0573 93.4225 58.0448H93.4275L93.4545 58.0398C93.4785 58.0398 93.5155 58.0278 93.5645 58.0168C93.6645 57.9958 93.8075 57.9608 93.9915 57.9108C94.4952 57.7726 94.9896 57.6023 95.4715 57.4008C96.9634 56.7964 98.3073 55.8771 99.4115 54.7058C100.149 53.9015 100.735 52.9706 101.14 51.9578C100.724 52.0375 100.301 52.078 99.8765 52.0788C99.2733 52.0816 98.6737 51.9874 98.1005 51.7998C97.4165 51.5714 96.7925 51.1924 96.2745 50.6908C96.2215 50.6393 96.1832 50.5746 96.1636 50.5033C96.144 50.4321 96.1438 50.3569 96.1629 50.2856C96.1821 50.2142 96.22 50.1493 96.2726 50.0975C96.3253 50.0457 96.3908 50.0088 96.4625 49.9908H96.4705L96.4995 49.9828L96.6205 49.9498C96.7255 49.9198 96.8835 49.8718 97.0805 49.8048C97.621 49.62 98.1499 49.403 98.6645 49.1548C100.246 48.4149 101.657 47.3561 102.809 46.0448C103.74 44.9601 104.415 43.6803 104.784 42.2998C104.806 42.218 104.852 42.1447 104.917 42.0899C104.981 42.0351 105.061 42.0013 105.145 41.9931C105.229 41.9849 105.314 42.0028 105.388 42.0442C105.461 42.0856 105.521 42.1486 105.557 42.2248V42.2338L105.571 42.2628L105.632 42.3828C105.688 42.4828 105.771 42.6418 105.882 42.8358C106.103 43.2228 106.434 43.7678 106.867 44.3898C107.909 45.9136 109.181 47.2664 110.637 48.3998C111.73 49.2468 112.98 49.8679 114.315 50.2268C114.399 50.2479 114.474 50.2947 114.53 50.3606C114.586 50.4265 114.62 50.5082 114.627 50.5942C114.635 50.6803 114.615 50.7666 114.571 50.8409C114.527 50.9152 114.46 50.9739 114.381 51.0088C113.088 51.5263 111.709 51.7976 110.315 51.8088C110.072 51.8088 109.824 51.7998 109.571 51.7788C109.594 51.8248 109.618 51.8698 109.643 51.9198C111.14 54.7858 113.692 56.957 116.761 57.9738C116.816 57.9917 116.867 58.0209 116.909 58.0594C116.952 58.0978 116.987 58.1448 117.01 58.1973C117.034 58.2498 117.047 58.3066 117.047 58.3642C117.048 58.4218 117.036 58.4789 117.013 58.5318C116.777 58.9924 116.422 59.3818 115.985 59.6598C114.795 60.4063 113.403 60.7655 112 60.6878C111.847 60.6878 111.687 60.6878 111.525 60.6778C111.564 60.7668 111.607 60.8608 111.656 60.9658C112.007 61.6979 112.433 62.3916 112.926 63.0358C114.489 65.0946 116.714 66.551 119.226 67.1588C119.32 67.1821 119.403 67.2373 119.46 67.3149C119.517 67.3924 119.546 67.4875 119.54 67.5838C119.506 67.9074 119.39 68.2169 119.203 68.4838C118.74 69.1285 118.067 69.5934 117.3 69.7998C116.427 70.0598 115.518 70.1816 114.607 70.1608C113.887 70.1567 113.167 70.1093 112.451 70.0188C112.699 70.4478 112.972 70.8622 113.267 71.2598C114.277 72.6402 115.578 73.7826 117.076 74.6068C118.365 75.2951 119.789 75.6934 121.248 75.7738C121.308 75.7774 121.366 75.7938 121.419 75.8219C121.471 75.8499 121.517 75.889 121.554 75.9365C121.59 75.984 121.615 76.0387 121.628 76.0969C121.641 76.1551 121.642 76.2154 121.629 76.2738C121.506 76.7325 121.307 77.1672 121.039 77.5598C120.422 78.4908 119.536 79.2131 118.5 79.6318C117.446 80.0511 116.319 80.2551 115.184 80.2318C112.526 80.2954 109.887 79.7692 107.456 78.6908V81.4578H107.536C107.926 81.4523 108.312 81.5156 108.679 81.6448C109.046 81.7749 109.375 81.9941 109.636 82.2828C109.825 82.4938 110.162 82.8328 110.582 83.2428C111.002 83.6528 111.512 84.1428 112.057 84.6538C113.148 85.6858 114.385 86.8438 115.374 87.7938C116.034 88.4288 116.583 88.9678 116.916 89.3298C117.222 89.6778 117.45 90.0868 117.585 90.5298C118.369 89.8582 118.975 89.0041 119.35 88.0428C119.35 88.0428 116.791 88.7428 115.287 87.0428C115.287 87.0428 119.301 86.3428 120.454 82.6288C119.906 82.8215 119.316 82.8676 118.744 82.7623C118.172 82.6571 117.638 82.4042 117.193 82.0288C117.193 82.0288 121.507 80.9748 122.561 77.0618C122.561 77.0618 124.617 81.2758 128.179 82.1788C127.13 82.5999 125.988 82.7378 124.868 82.5788C125.311 83.6148 125.97 84.5444 126.8 85.3055C127.631 86.0667 128.614 86.6419 129.684 86.9928C129.684 86.9928 129.084 88.3928 126.122 88.1468C126.539 89.2671 127.223 90.2686 128.114 91.0643C129.006 91.8599 130.079 92.4255 131.239 92.7118C131.239 92.7118 131.139 94.6188 126.624 93.9118C127.166 95.0594 127.996 96.0467 129.034 96.7767C130.072 97.5067 131.281 97.9543 132.544 98.0758C132.544 98.0758 132.044 100.334 128.781 100.334C127.042 100.408 125.313 100.029 123.764 99.2338L123.714 99.2228V102.323C123.783 102.293 123.852 102.262 123.921 102.235C124.378 102.043 124.861 101.924 125.354 101.882C125.498 101.871 125.639 101.866 125.776 101.866C126.321 101.859 126.862 101.955 127.37 102.151C127.827 102.335 128.242 102.607 128.593 102.951C129.238 103.625 129.733 104.427 130.046 105.306C130.339 105.353 130.632 105.399 130.928 105.435C131.701 105.532 132.479 105.584 133.257 105.592C133.336 105.361 133.427 105.134 133.529 104.912C133.801 104.298 134.187 103.741 134.665 103.271C133.461 103.239 132.311 102.765 131.434 101.94C133.425 101.125 135.128 99.7371 136.326 97.9518C135.644 98.1659 134.92 98.2179 134.214 98.1037C133.507 97.9895 132.837 97.7122 132.256 97.2938C132.256 97.2938 135.792 95.8558 136.656 93.3888C136.077 93.5463 135.468 93.5535 134.885 93.4097C134.302 93.2659 133.766 92.9757 133.326 92.5668C134.283 92.3768 135.175 91.9443 135.916 91.3108C136.657 90.6772 137.224 89.8639 137.56 88.9488C137.111 89.1067 136.628 89.1444 136.159 89.0579C135.69 88.9714 135.252 88.7638 134.888 88.4558C134.888 88.4558 138.424 87.5918 139.288 84.3858C139.288 84.3858 140.974 87.8388 143.888 88.5788C143.029 88.9244 142.093 89.0378 141.175 88.9078C141.597 89.9 142.262 90.7698 143.108 91.4368C143.7 91.0097 144.251 90.5286 144.753 89.9998C145.219 89.5145 145.616 88.9669 145.931 88.3728C145.661 88.4043 145.389 88.4203 145.117 88.4208C144.481 88.4266 143.847 88.3276 143.242 88.1278C142.517 87.8859 141.867 87.4572 141.359 86.8848C141.311 86.8294 141.278 86.7621 141.264 86.6898C141.25 86.6174 141.255 86.5426 141.279 86.473C141.304 86.4034 141.346 86.3417 141.403 86.294C141.459 86.2463 141.527 86.2145 141.599 86.2018H141.617L141.699 86.1848C141.771 86.1688 141.88 86.1438 142.017 86.1058C142.395 86.0023 142.766 85.8744 143.127 85.7228C144.246 85.2694 145.254 84.5793 146.08 83.6998C146.59 83.144 147.004 82.5069 147.303 81.8148C147.039 81.8563 146.771 81.8777 146.503 81.8788C146.035 81.8817 145.569 81.8087 145.123 81.6628C144.59 81.4853 144.104 81.1904 143.7 80.7998C143.648 80.748 143.61 80.6832 143.591 80.6119C143.571 80.5406 143.571 80.4655 143.591 80.3942C143.61 80.3229 143.648 80.2581 143.701 80.2064C143.753 80.1546 143.819 80.1178 143.89 80.0998H143.895L143.916 80.0938L144.005 80.0698C144.084 80.0468 144.205 80.0108 144.348 79.9608C144.755 79.8222 145.152 79.6592 145.538 79.4728C146.724 78.9186 147.781 78.1253 148.645 77.1428C149.341 76.3341 149.846 75.3796 150.123 74.3498C150.146 74.2684 150.192 74.1957 150.256 74.1414C150.321 74.087 150.4 74.0536 150.484 74.0456C150.568 74.0375 150.653 74.0552 150.726 74.0964C150.8 74.1375 150.859 74.2001 150.896 74.2758V74.2808L150.907 74.3028L150.953 74.3918C150.995 74.4708 151.053 74.5868 151.14 74.7318C151.307 75.0238 151.557 75.4318 151.882 75.9018C152.664 77.0477 153.619 78.0654 154.712 78.9188C155.53 79.552 156.465 80.0163 157.463 80.2848C157.547 80.3065 157.622 80.3536 157.677 80.4197C157.733 80.4858 157.767 80.5675 157.774 80.6536C157.781 80.7396 157.761 80.8257 157.717 80.8999C157.672 80.9742 157.606 81.0328 157.527 81.0678C156.535 81.4653 155.477 81.6735 154.408 81.6818C154.279 81.6818 154.146 81.6738 154.014 81.6658C155.138 83.7917 157.041 85.4005 159.323 86.1558C159.378 86.174 159.428 86.2033 159.471 86.2418C159.514 86.2804 159.548 86.3273 159.571 86.3797C159.595 86.4321 159.608 86.4888 159.608 86.5463C159.609 86.6038 159.598 86.6608 159.575 86.7138C159.388 87.0801 159.107 87.3905 158.761 87.6138C157.844 88.1912 156.769 88.4707 155.686 88.4138C155.621 88.4138 155.552 88.4138 155.486 88.4088C155.497 88.4328 155.507 88.4558 155.519 88.4808C155.782 89.0289 156.101 89.5484 156.47 90.0308C157.641 91.5722 159.307 92.6623 161.188 93.1168C161.282 93.1403 161.364 93.1955 161.422 93.273C161.479 93.3505 161.507 93.4455 161.502 93.5418C161.475 93.8042 161.381 94.0553 161.23 94.2718C160.865 94.781 160.335 95.1481 159.73 95.3108C159.199 95.4734 158.648 95.5635 158.092 95.5788H158.192C158.464 95.576 158.736 95.5907 159.005 95.6228C159.275 95.6526 159.538 95.7248 159.784 95.8368C160.145 96.0238 160.464 96.2812 160.722 96.5938C160.998 96.9202 161.239 97.2736 161.442 97.6488C161.784 98.281 162.08 98.9362 162.33 99.6098C162.45 99.6218 162.569 99.6338 162.692 99.6418C162.746 99.6449 162.799 99.6592 162.847 99.6838C164.552 90.5015 163.964 81.0406 161.135 72.1401C158.307 63.2397 153.326 55.1748 146.633 48.6608" fill="#FCDE00"/>
<path d="M59.9219 112.318C59.9025 112.516 59.8338 112.707 59.7219 112.872C59.4629 113.237 59.0855 113.501 58.6539 113.619C58.1935 113.757 57.7144 113.822 57.2339 113.811C57.0219 113.811 56.7939 113.802 56.5469 113.781C56.6019 113.862 56.6589 113.946 56.7259 114.035C57.2156 114.706 57.8464 115.261 58.5739 115.662C59.197 115.995 59.8855 116.187 60.5909 116.226C60.6503 116.23 60.7083 116.246 60.7608 116.274C60.8134 116.302 60.8592 116.341 60.8953 116.389C60.9313 116.436 60.9567 116.491 60.9698 116.549C60.9828 116.607 60.9832 116.667 60.9709 116.726C60.9046 116.981 60.7947 117.224 60.6459 117.442C60.5108 117.647 60.3494 117.834 60.1659 117.998L60.5659 117.853L60.5939 117.841H60.6049L60.6139 117.836C61.2139 117.613 61.6519 117.443 61.8379 117.37C61.8403 117.104 61.858 116.839 61.8909 116.576C61.9149 116.365 61.9526 116.155 62.0039 115.949C62.0673 115.688 62.1782 115.44 62.3309 115.219C62.4518 115.051 62.6047 114.91 62.7809 114.802C62.9992 114.677 63.2238 114.563 63.4539 114.461L63.6639 114.361V110.884C62.5113 111.603 61.1861 111.998 59.8279 112.027C59.8969 112.108 59.9327 112.212 59.9279 112.318" fill="#FCDE00"/>
<path d="M117.583 93.8524C117.308 94.8549 116.838 95.7931 116.199 96.6134C117.308 95.8049 118.243 94.7824 118.949 93.6064C118.508 93.7462 118.05 93.8289 117.587 93.8524" fill="#FCDE00"/>
<path d="M48.8479 104.553C48.7759 104.529 48.7039 104.499 48.6309 104.468C48.7749 104.986 48.9259 105.501 49.0839 106.013C49.2028 105.908 49.3163 105.797 49.4239 105.681C49.6943 105.383 49.9221 105.05 50.1009 104.69C50.0089 104.698 49.9129 104.704 49.8099 104.704C49.4831 104.706 49.1583 104.655 48.8479 104.553Z" fill="#FCDE00"/>
<path d="M54.6875 118.512C54.9015 118.868 55.1195 119.221 55.3415 119.572C56.0955 119.366 56.8815 119.125 57.6415 118.878C57.6005 118.878 57.5635 118.883 57.5215 118.883C56.5656 118.89 55.6132 118.765 54.6915 118.512" fill="#FCDE00"/>
<path d="M65.6211 111.255V113.564C65.7831 113.503 65.9281 113.45 66.0411 113.411C66.2065 113.353 66.3807 113.323 66.5561 113.323C66.8975 113.332 67.2315 113.424 67.5291 113.592C67.659 113.663 67.7842 113.741 67.9041 113.828C67.9041 113.639 67.8961 113.464 67.8961 113.313C67.8961 113.162 67.8961 113.035 67.9041 112.935C67.9148 112.806 67.9559 112.681 68.0241 112.571C68.0855 112.469 68.1565 112.374 68.2361 112.286C68.2871 112.229 68.3441 112.171 68.4031 112.113C67.4448 112.007 66.5155 111.719 65.6651 111.265L65.6211 111.255Z" fill="#FCDE00"/>
</g>
<defs>
<clipPath id="clip0_20_2000">
<rect width="188" height="188" fill="white"/>
</clipPath>
</defs>
</svg>
