<svg width="64" height="56" viewBox="0 0 64 56" fill="none" xmlns="http://www.w3.org/2000/svg">
<path d="M5.9441 20.4565L7.43039 20.1933C7.03298 22.2626 6.95683 24.3803 7.20507 26.4727C7.33555 27.5475 7.754 28.5675 8.41642 29.4239C9.22221 30.6107 9.95059 31.8511 10.7303 33.1014C12.0423 32.8567 13.3046 32.396 14.4656 31.7377C14.8365 31.4276 15.1544 31.0586 15.4069 30.6463C15.7533 30.1813 16.0976 29.9186 16.734 30.1846C16.8956 30.2453 17.0686 30.2683 17.2404 30.2528C17.4123 30.2373 17.5788 30.1837 17.7269 30.095C18.3556 29.5454 19.1601 28.9731 19.3979 28.2442C19.4996 27.8197 19.7502 27.4454 20.1042 27.19C20.4581 26.9345 20.8916 26.8145 21.3265 26.8517C21.4952 27.1205 21.6795 27.4128 21.9384 27.815C23.3651 26.9859 24.8076 26.1764 26.2195 25.3226C27.9129 24.301 29.5949 23.2615 31.2524 22.1833C32.1922 21.5723 33.0545 20.8468 33.9831 20.2181C35.0521 19.4949 36.2033 18.8927 37.2285 18.1145C39.1428 16.6567 41.3756 15.6812 43.1847 14.0428C44.3041 13.1931 45.476 12.4148 46.6941 11.7138C48.3536 10.5602 49.9725 9.3494 51.6236 8.18588C53.1413 7.11691 54.6879 6.08092 56.2099 5.0183C57.5971 4.05375 59.1234 3.29949 60.2319 1.93065C60.7068 1.34712 61.5513 1.07947 62.0276 0.382341C62.3169 -0.0360743 62.8193 0.100402 63.2596 0.281739C63.4537 0.354418 63.6123 0.498269 63.704 0.684147C63.7958 0.870025 63.8133 1.08394 63.753 1.28225C63.5568 2.12331 63.552 3.08101 62.6326 3.59609C62.4183 3.71306 62.2511 3.90048 62.1592 4.12666C61.4607 6.37538 59.8034 7.95136 58.2116 9.51989C57.644 10.0583 57.1405 10.6604 56.7108 11.3142C56.3908 11.7179 56.0257 12.0838 55.6228 12.405C55.5699 12.4572 55.4378 12.4713 55.4258 12.5228C55.3206 12.9504 55.2565 13.3396 54.7443 13.5626C54.3668 13.7241 54.0943 14.1325 53.6632 14.5403C53.5559 14.3957 53.4162 14.2056 53.3104 14.0539C51.6953 15.8545 50.2348 17.6358 48.6027 19.2438C47.7053 20.2663 46.7264 21.2143 45.6763 22.0793C44.8533 22.7735 44.1203 23.5675 43.4941 24.4434C42.3567 25.8031 41.2658 27.2012 40.1446 28.5736C39.1234 29.8249 38.0933 31.0671 37.0542 32.3C36.8634 32.5011 36.6508 32.6797 36.4196 32.8326C36.2594 32.954 36.038 33.0111 35.9152 33.1593C35.1327 34.1238 34.3635 35.1043 33.5986 36.0822C33.0482 36.7822 32.5049 37.4832 31.9552 38.1838C31.3618 38.9402 30.7614 39.6952 30.1609 40.4488C30.0192 40.639 29.8627 40.8177 29.693 40.9835C27.5763 42.9528 25.481 44.9288 23.5322 47.083C22.0236 48.7517 20.4767 50.4961 18.3402 51.515C16.9332 52.1867 15.6365 53.0855 14.2472 53.7847C12.4435 54.6421 10.5344 55.2579 8.56939 55.6148C8.09267 55.6934 7.60431 55.6594 7.14305 55.5156C6.6818 55.3718 6.26067 55.1215 5.91309 54.7859C4.86713 53.9273 3.89685 52.9804 3.01355 51.9553C1.72181 50.4763 0.963914 48.6071 0.860948 46.6461C0.864608 46.3629 0.846119 46.0796 0.805823 45.7993C0.440366 43.76 0.557358 41.6638 1.14691 39.6777C1.28802 39.0921 1.30783 38.4777 1.40943 37.8758C1.47505 37.4885 1.58219 37.1062 1.67885 36.723C1.7092 36.6066 1.81988 36.4863 1.80013 36.3868C1.39935 34.4422 2.46734 32.6094 2.22321 30.6676C2.23701 30.1851 2.3575 29.7117 2.576 29.2813C2.98807 28.1523 3.39994 27.0235 3.87763 25.9256C4.1889 25.0118 4.56866 24.1227 5.01456 23.2665C5.43379 22.3707 5.74556 21.4286 5.94272 20.4593M42.8815 21.2145C43.0706 21.199 43.3481 21.2549 43.4335 21.1504C43.8361 20.6583 44.2095 20.1434 44.5518 19.6076C44.6111 19.5187 44.5144 19.3257 44.4912 19.1846C44.7107 19.2125 44.9339 19.1751 45.1327 19.0778C45.3314 18.9804 45.497 18.8273 45.6095 18.6368C46.8259 17.1776 48.086 15.7519 49.349 14.3329C49.7088 13.93 50.252 13.6523 50.5004 13.2036C50.8161 12.5958 51.258 12.0626 51.7965 11.6394C52.3384 11.2302 52.8548 10.7794 53.4192 10.4012C54.2363 9.83412 55.084 9.31311 55.9591 8.84048C56.3335 8.70583 56.6524 8.4495 56.8645 8.11284C57.0766 7.77618 57.17 7.37798 57.1298 6.9821C56.5808 7.32643 56.1153 7.61734 55.6518 7.91439C54.7084 8.52331 53.766 9.13699 52.8198 9.74521C52.5806 9.89832 52.3158 10.0107 52.0894 10.1772C51.2808 10.7664 50.4761 11.3616 49.6901 11.9839C49.4862 12.1441 49.2347 12.4073 49.2312 12.6296C49.2086 13.7296 48.4877 14.4467 47.8703 15.2087C46.778 16.5564 45.6478 17.8799 44.5415 19.2156C43.795 19.6974 43.228 20.4118 42.9284 21.2483C42.7266 21.4599 42.5225 21.6713 42.3186 21.8781C42.3891 21.9317 42.4656 21.9823 42.5411 22.0324C42.6533 21.7622 42.7692 21.4889 42.8857 21.2173M8.35303 44.315C8.80722 43.8603 9.21186 43.3585 9.56025 42.8184C10.4655 41.0784 11.3041 39.2999 12.1318 37.5161C12.5425 36.6313 12.8738 35.7084 13.2612 34.7523C12.9542 34.7391 12.65 34.8153 12.3854 34.9715C12.1207 35.1276 11.9068 35.3571 11.7701 35.6323C11.4977 36.081 11.3342 36.5683 11.1127 37.0255C10.743 37.7904 10.1419 38.346 9.99298 39.3359C9.69988 40.5358 9.20417 41.677 8.52736 42.7102C8.2628 43.1794 8.16905 43.7253 8.26208 44.2558C7.37797 45.1498 7.26455 45.4558 7.6371 46.3519C7.91158 45.5757 8.13072 44.9466 8.3551 44.3144M20.9441 46.8053C21.5791 46.2521 22.2533 45.7355 22.8431 45.1357C24.5549 43.3915 26.2379 41.6183 27.9235 39.8438C28.7757 39.1466 29.3917 38.2032 29.6875 37.1427C29.3175 37.3429 28.9596 37.5658 28.6167 37.8097C27.2055 39.0205 25.7942 40.2293 24.4183 41.4789C24.0141 41.8626 23.6737 42.3083 23.4095 42.7991C22.9655 43.8 22.2922 44.682 21.4444 45.3748C21.226 45.5227 21.0551 45.7307 20.9524 45.9736C20.8497 46.2165 20.8202 46.4843 20.8663 46.744C20.4126 46.7002 20.5465 46.3703 20.5762 46.1142C20.6227 45.7056 20.6994 45.3037 20.7615 44.8994L20.4625 44.7912C20.1815 45.2368 19.9253 45.6969 19.6949 46.1707C19.4049 46.836 20.4279 46.9514 20.1992 47.6253L20.4811 47.6514L20.9441 46.8053ZM16.7691 33.0318C16.1574 32.8406 15.8773 33.1725 15.6508 33.5775C15.3594 34.1025 15.0779 34.6311 14.7971 35.1582C14.7037 35.3295 14.6241 35.5078 14.5587 35.6915C14.3343 36.3717 14.166 37.0742 13.8958 37.7339C13.4583 38.8113 12.7524 39.8191 12.5287 40.9304C12.1815 42.3152 11.7133 43.6673 11.1299 44.9703C10.8992 45.5595 10.5057 46.1539 10.9439 46.9279C11.085 46.827 11.0904 46.6522 11.1616 46.5083C11.7701 45.345 12.3125 44.148 12.785 42.9232C13.4144 41.2396 14.2457 39.6331 14.9576 37.9785C15.1629 37.5051 15.2069 36.9646 15.389 36.4777C15.8257 35.3276 16.3006 34.1925 16.7691 33.0311M4.69967 44.6472C4.78928 44.6973 4.88149 44.7494 4.97322 44.7981C5.2623 44.338 5.58018 43.8967 5.92549 43.4772C6.60145 42.7419 6.7911 41.7837 7.19611 40.9208C8.02871 39.1356 8.84531 37.3381 9.6264 35.5268C9.97144 34.726 9.92309 34.7088 9.0538 34.0957C7.28723 37.4741 5.8306 41.0057 4.70173 44.6472M16.1187 40.0126C16.2182 40.057 16.3169 40.1052 16.4136 40.1538C18.2011 36.9429 19.9872 33.7311 21.7724 30.5188C20.6399 30.6733 19.7338 31.0028 19.3641 32.1091C19.1157 32.8549 18.6774 33.5038 18.458 34.2969C18.0128 35.4867 17.4902 36.6463 16.8945 37.7683C16.5806 38.4958 16.3755 39.2653 16.1187 40.0174M19.9491 38.5532L20.2268 38.6455C21.2944 36.7813 22.3392 34.9059 23.4392 33.0566C24.5491 31.1945 25.7091 29.3645 26.8493 27.5187C26.7387 27.4892 26.623 27.4826 26.5096 27.4987C26.3963 27.5148 26.2879 27.5532 26.1899 27.6124C25.5954 28.0566 25.1048 28.6253 24.7525 29.2785C23.9933 30.3976 23.4379 31.6265 22.6991 32.7548C21.8849 34.003 21.2646 35.3739 20.5245 36.6686C20.1384 37.2202 19.937 37.88 19.9498 38.5532M13.4355 48.8359C13.2111 49.2078 13.0163 49.4991 12.8526 49.8089C12.5915 50.3091 12.3867 50.8347 12.0953 51.3131C11.4525 52.3609 11.1666 52.4425 9.92545 51.9691C9.68696 52.4361 9.44017 52.9152 9.12477 53.5284C9.45516 53.5276 9.78496 53.492 10.1081 53.423C11.2977 52.9763 12.4947 52.5367 13.6512 52.0118C14.1538 51.7543 14.6109 51.4163 15.0045 51.0113C15.195 50.832 15.2259 50.4881 15.3621 50.1444C13.9509 50.3258 13.9449 50.317 13.4362 48.8339M6.536 29.8015H6.30654C5.82039 30.7308 5.33246 31.6594 4.85195 32.5922C4.81737 32.6578 4.85197 32.7537 4.82163 32.8306C4.56691 33.5362 4.29519 34.2416 4.06023 34.9542C4.01366 35.0954 4.10856 35.2883 4.16289 35.5896C4.51569 35.2636 4.88948 35.0742 5.02283 34.7765C5.46549 33.7928 5.85287 32.7851 6.18389 31.7584C6.34741 31.1163 6.46531 30.4637 6.53668 29.8049M6.75787 52.4541C7.15653 51.2638 7.8035 50.2418 7.78939 48.9972C6.72324 49.7423 6.28506 50.8794 5.67261 51.9773C6.05998 52.1488 6.37828 52.2863 6.75718 52.4514M30.9099 25.0532C30.8774 25.0081 30.8445 24.9633 30.8127 24.9175C30.2327 25.2512 29.63 25.552 29.0867 25.9373C28.8931 26.1224 28.7787 26.3753 28.7676 26.6429C28.7218 27.1678 28.7566 27.7011 28.7566 28.4124C29.5215 27.2234 30.2149 26.1412 30.9099 25.0567M4.26074 41.1833C3.68216 40.9413 3.32701 40.7985 2.8592 40.6045C2.82604 41.6805 2.80076 42.6269 2.76618 43.7445C3.75401 43.0558 3.4225 41.8995 4.26074 41.1833ZM18.9989 41.9798C18.251 42.6497 17.7452 43.548 17.5602 44.5349C18.6129 43.8822 18.7767 42.9197 18.9989 41.9798ZM3.961 49.9157C4.17973 49.2207 4.32408 48.7603 4.5026 48.1951C3.392 48.6996 3.37395 48.7599 3.961 49.9157ZM14.1556 46.8356C14.2692 46.2711 14.854 45.9044 14.775 45.2129C14.0116 45.6362 13.9044 45.8823 14.1556 46.8356ZM44.7296 17.4833C44.8354 17.5609 44.9413 17.6414 45.0493 17.7169C45.2338 17.6082 45.3725 17.4363 45.44 17.2332C45.5075 17.03 45.4994 16.809 45.4166 16.6116C45.1879 16.9033 44.9586 17.194 44.7296 17.4833ZM8.47086 46.3415L8.8085 46.4332C8.86565 46.0486 8.92566 45.6649 8.98352 45.2825L8.74855 45.2411L8.47086 46.3415ZM32.0503 28.4199C31.9579 28.3494 31.863 28.2859 31.7678 28.2153C31.5584 28.5624 31.3483 28.9089 31.1366 29.2551L31.3288 29.3915C31.5678 29.0679 31.8081 28.744 32.0489 28.4199M7.05554 47.1181L6.75167 47.0802C6.71498 47.3039 6.67806 47.5297 6.64349 47.7534L6.99628 47.7879C7.01392 47.5621 7.03444 47.3397 7.05279 47.1181M35.3791 23.3802C35.0341 23.8403 35.0342 23.8405 35.1965 24.3683C35.308 24.2187 35.451 24.1067 35.4701 23.9776C35.466 23.7751 35.4354 23.5734 35.3791 23.3788" fill="#FF5001"/>
</svg>
