<svg width="188" height="188" viewBox="0 0 188 188" fill="none" xmlns="http://www.w3.org/2000/svg">
<g clip-path="url(#clip0_20_2003)">
<path d="M93.261 30L91.945 31.048L13 93.8L93.262 157.6L173.525 93.8L93.261 30Z" fill="#E10033"/>
<path fill-rule="evenodd" clip-rule="evenodd" d="M93.2604 33.1357L92.0064 34.1357L16.9414 93.8007L93.2604 154.463L169.577 93.8007L93.2604 33.1357ZM24.0654 93.8007C24.3794 93.5497 90.5334 71.3467 90.5334 71.3467L63.3944 66.0627L105.732 54.3437L93.9684 62.8437L128.459 71.3437L112.559 79.7287C112.559 79.7287 162.004 93.4407 162.45 93.8007L93.2564 148.801C90.9184 146.943 28.3104 97.1737 24.0614 93.8007" fill="#00FF00"/>
<path d="M135.671 92.7115L82.2571 115.425C76.4661 117.883 67.3701 120.674 63.5681 114.59C61.4601 111.212 62.7971 105.959 65.9181 101.157C68.0444 98.075 70.419 95.1723 73.0181 92.4775C71.5811 94.7675 67.6101 102.459 72.8341 106.278C74.8751 107.765 78.4581 107.943 82.9041 106.747L135.671 92.7115Z" fill="#1226CB"/>
</g>
<defs>
<clipPath id="clip0_20_2003">
<rect width="188" height="188" fill="white"/>
</clipPath>
</defs>
</svg>
