<svg width="188" height="188" viewBox="0 0 188 188" fill="none" xmlns="http://www.w3.org/2000/svg">
<g clip-path="url(#clip0_20_1997)">
<path d="M171.133 103.918C171.172 103.877 171.203 103.827 171.222 103.774C171.242 103.72 171.25 103.663 171.247 103.606L170.984 99.0242C170.981 98.9687 170.967 98.9145 170.943 98.8646C170.919 98.8147 170.885 98.7701 170.843 98.7335C170.801 98.6968 170.753 98.6688 170.7 98.6511C170.647 98.6333 170.592 98.6262 170.536 98.6302L166.636 98.9082L166.16 90.6902L166.604 90.6722C166.66 90.6697 166.714 90.6564 166.764 90.633C166.814 90.6096 166.859 90.5766 166.896 90.5358C166.933 90.495 166.962 90.4473 166.98 90.3953C166.999 90.3434 167.007 90.2883 167.004 90.2332L166.838 86.6212C166.836 86.5662 166.823 86.5122 166.8 86.4623C166.777 86.4124 166.744 86.3675 166.703 86.3304C166.662 86.2932 166.615 86.2644 166.563 86.2457C166.511 86.2269 166.456 86.2186 166.401 86.2212L159.788 86.5082L159.588 79.4812L159.738 79.4982C159.799 79.5048 159.859 79.4984 159.917 79.4794C159.974 79.4604 160.027 79.4293 160.071 79.3881C160.116 79.3469 160.151 79.2967 160.174 79.2408C160.197 79.1849 160.208 79.1246 160.205 79.0642L160.076 75.8202C160.073 75.7207 160.034 75.6258 159.967 75.5525C159.899 75.4792 159.808 75.4322 159.709 75.4202L157.555 75.1492L157.329 68.0882H157.691C157.803 68.0882 157.91 68.0439 157.988 67.9651C158.067 67.8864 158.111 67.7795 158.111 67.6682V63.9062C158.111 63.7948 158.067 63.6879 157.988 63.6092C157.91 63.5304 157.803 63.4862 157.691 63.4862H136.164C136.103 63.4863 136.042 63.5 135.986 63.5262L128.886 66.8652C128.809 66.9017 128.745 66.9609 128.702 67.0348C128.66 67.1088 128.64 67.194 128.647 67.2792L128.912 70.5662C128.917 70.6274 128.935 70.6869 128.966 70.7403C128.996 70.7938 129.038 70.8398 129.088 70.8753C129.139 70.9107 129.196 70.9346 129.256 70.9453C129.317 70.956 129.379 70.9532 129.438 70.9372L129.725 70.8612L129.906 75.6952L126.89 75.8872C126.89 75.8262 126.881 75.7652 126.877 75.7042C126.862 75.5112 126.846 75.3202 126.831 75.1292C126.822 75.0142 126.813 74.8982 126.803 74.7832C126.793 74.6472 126.782 74.5122 126.771 74.3772L126.762 74.2682C126.746 74.0762 126.73 73.8872 126.714 73.6982C126.694 73.4552 126.673 73.2112 126.652 72.9682L126.643 72.8682C126.632 72.7312 126.619 72.5952 126.607 72.4582C126.607 72.4292 126.607 72.3992 126.599 72.3702C126.578 72.1372 126.558 71.9032 126.536 71.6702C126.518 71.4792 126.501 71.2892 126.483 71.0992C126.467 70.9382 126.452 70.7772 126.436 70.6172C126.429 70.5372 126.421 70.4572 126.413 70.3772C126.394 70.1772 126.375 69.9772 126.355 69.7772L126.322 69.4562C126.304 69.2772 126.286 69.0992 126.267 68.9202C126.253 68.7802 126.239 68.6402 126.224 68.5012C126.198 68.2532 126.172 68.0068 126.144 67.7622C126.144 67.7272 126.136 67.6912 126.133 67.6562L126.094 67.3072C126.094 67.2842 126.094 67.2622 126.087 67.2402C126.042 66.8342 125.996 66.4282 125.948 66.0252L125.927 65.8492C125.907 65.6812 125.886 65.5152 125.866 65.3492C125.824 64.9912 125.779 64.6345 125.733 64.2792C125.711 64.1022 125.688 63.9262 125.666 63.7512C125.616 63.3685 125.565 62.9878 125.513 62.6092C125.495 62.4822 125.479 62.3552 125.461 62.2292C125.395 61.7285 125.323 61.2322 125.246 60.7402C125.231 60.6402 125.215 60.5342 125.199 60.4312C125.141 60.0398 125.08 59.6512 125.017 59.2652C124.993 59.1122 124.968 58.9602 124.943 58.8082C124.887 58.4582 124.828 58.1115 124.768 57.7682C124.744 57.6272 124.72 57.4852 124.695 57.3442C124.612 56.8732 124.528 56.4052 124.441 55.9442C124.421 55.8364 124.359 55.741 124.269 55.6782C124.269 55.6782 119.238 52.1552 112.086 47.8842C104.934 43.6132 95.6555 38.6002 87.1295 35.5812C87.1167 35.5769 87.1037 35.5735 87.0905 35.5712C87.0794 35.5674 87.068 35.5648 87.0565 35.5632H87.0245H86.9725C86.9516 35.5647 86.9309 35.5677 86.9105 35.5722H86.8935C86.8655 35.5788 86.8383 35.5885 86.8125 35.6012L81.5745 38.1092C81.4873 38.1509 81.4173 38.2215 81.3761 38.309C81.3349 38.3964 81.3252 38.4954 81.3485 38.5892L81.4755 39.0972L68.1885 46.0512L68.2285 45.6302L68.4965 45.6732H68.5245C68.5519 45.6773 68.5797 45.679 68.6075 45.6782H68.6265C68.6481 45.6769 68.6695 45.6735 68.6905 45.6682C68.7005 45.6682 68.7085 45.6622 68.7185 45.6592C68.7355 45.6539 68.7522 45.6475 68.7685 45.6402C68.7781 45.6354 68.7875 45.6301 68.7965 45.6242C68.8117 45.6158 68.8264 45.6064 68.8405 45.5962H68.8465L68.8655 45.5772C68.8759 45.5687 68.8859 45.5597 68.8955 45.5502V45.5452L68.9185 45.5152C68.9275 45.5032 68.9365 45.4912 68.9445 45.4782C68.9525 45.4652 68.9565 45.4542 68.9615 45.4422C68.9665 45.4302 68.9715 45.4232 68.9755 45.4132V45.4012C68.9802 45.3881 68.9839 45.3748 68.9865 45.3612C68.9894 45.352 68.9917 45.3426 68.9935 45.3332V45.3182V45.3042L69.2985 41.8892C69.3078 41.784 69.2771 41.6792 69.2126 41.5956C69.1481 41.5121 69.0545 41.4558 68.9505 41.4382L61.8605 40.2302L62.3175 35.5762L62.4455 35.6332C62.5056 35.6598 62.5711 35.6719 62.6368 35.6685C62.7025 35.6651 62.7664 35.6464 62.8235 35.6138C62.8806 35.5812 62.9293 35.5357 62.9656 35.4809C63.0019 35.426 63.0248 35.3635 63.0325 35.2982L63.4325 31.8192C63.4419 31.7366 63.4265 31.6531 63.3885 31.5792C63.3504 31.5053 63.2912 31.4444 63.2185 31.4042L56.3995 27.6212C56.3707 27.6055 56.3402 27.5934 56.3085 27.5852H56.2915C56.2718 27.5802 56.2517 27.5769 56.2315 27.5752L35.2275 26.0002C35.1195 25.9922 35.0126 26.0263 34.9292 26.0952C34.8457 26.1641 34.7921 26.2626 34.7795 26.3702L34.3655 29.9342V29.9392C34.3582 29.9973 34.3634 30.0564 34.3807 30.1124C34.3979 30.1684 34.4268 30.2201 34.4655 30.2642C34.5329 30.3418 34.6272 30.3911 34.7295 30.4022L33.9865 37.2562L31.8135 37.3642C31.7078 37.3692 31.6079 37.4138 31.5337 37.4893C31.4596 37.5647 31.4166 37.6654 31.4135 37.7712L31.3135 40.9622C31.3118 41.0184 31.3214 41.0744 31.3419 41.1268C31.3623 41.1792 31.3931 41.2269 31.4325 41.2672C31.4469 41.2818 31.4627 41.2952 31.4795 41.3072L30.8085 48.5372L24.0585 47.6782C24.0035 47.6713 23.9477 47.6754 23.8943 47.6901C23.8409 47.7049 23.791 47.73 23.7473 47.7641C23.7036 47.7982 23.6671 47.8406 23.6399 47.8888C23.6126 47.937 23.5952 47.9902 23.5885 48.0452L23.1465 51.8002C23.1334 51.9097 23.1639 52.0199 23.2315 52.1071C23.299 52.1943 23.3982 52.2514 23.5075 52.2662L24.2075 52.3602L23.3995 60.6882L19.0585 60.0002C19.0031 59.9914 18.9466 59.9938 18.8923 60.0073C18.8379 60.0208 18.7868 60.045 18.7419 60.0786C18.6971 60.1121 18.6594 60.1543 18.6312 60.2027C18.6029 60.2511 18.5847 60.3046 18.5775 60.3602L17.9995 64.7272C17.9854 64.8382 18.0156 64.9502 18.0835 65.0392C18.1175 65.0829 18.1599 65.1194 18.2081 65.1467C18.2563 65.174 18.3095 65.1915 18.3645 65.1982L18.6445 65.2332L17.9995 71.7492C17.9889 71.8569 18.0203 71.9646 18.0872 72.0498C18.1541 72.1349 18.2513 72.191 18.3585 72.2062L19.8715 72.4172L20.9215 72.5642L20.6215 75.8532C20.6118 75.9597 20.6432 76.0658 20.7092 76.15C20.7752 76.2342 20.8707 76.29 20.9765 76.3062L21.1925 76.3392L20.6455 83.1882C20.6369 83.2938 20.6687 83.3987 20.7343 83.4818C20.8 83.5649 20.8948 83.6201 20.9995 83.6362L27.6595 84.6282C27.6702 84.7498 27.7184 84.8651 27.7975 84.9582C27.8918 85.0715 27.9739 85.1946 28.0425 85.3252C27.1554 85.0472 26.2289 84.9158 25.2995 84.9362C24.5907 84.9392 23.883 84.9916 23.1815 85.0932C21.9716 85.2464 20.8644 85.8511 20.0815 86.7862C19.4082 87.5857 19.0314 88.593 19.0145 89.6382C18.9943 90.3873 19.2518 91.1174 19.7375 91.6882C19.9944 91.9738 20.3122 92.198 20.6675 92.3442C21.0688 92.5054 21.4981 92.5852 21.9305 92.5792C23.733 92.5875 25.4887 93.1537 26.9565 94.2002C27.4308 94.5312 27.874 94.9047 28.2805 95.3162C28.4295 95.4672 28.5405 95.5922 28.6145 95.6782C28.6495 95.7192 28.6755 95.7502 28.6925 95.7722C29.2046 96.9755 29.976 98.0511 30.9515 98.9222C32.617 100.341 34.6845 101.203 36.8645 101.387C40.0559 103.259 43.5169 104.628 47.1255 105.445C48.9925 105.858 50.8983 106.071 52.8105 106.079C54.4637 106.106 56.1126 105.904 57.7105 105.479C59.9562 107.401 62.6417 108.738 65.5285 109.373H65.5455L65.5885 109.381C65.7175 109.408 65.8455 109.431 65.9735 109.455L66.0495 109.468C66.6071 109.57 67.1695 109.644 67.7345 109.689C67.6645 111.389 67.5845 112.917 67.5045 114.249C67.4855 114.559 67.4665 114.854 67.4485 115.143C67.3675 115.137 67.2165 115.128 67.0015 115.125H66.8515C63.406 115.204 60.0646 116.321 57.2645 118.33C54.8156 120.077 52.7415 122.297 51.1645 124.858C48.9146 128.558 47.3021 132.609 46.3945 136.843C45.0413 142.066 44.2762 147.424 44.1135 152.817C44.1135 156.994 44.8835 159.423 45.8635 160.86C46.2577 161.46 46.7837 161.963 47.4015 162.329C47.8026 162.562 48.2434 162.717 48.7015 162.789C48.8491 162.812 48.9982 162.823 49.1475 162.823C50.0657 162.792 50.9443 162.442 51.6325 161.833C51.9712 161.549 52.2661 161.217 52.5075 160.846C52.7018 160.548 52.847 160.22 52.9375 159.875C53.9403 159.143 54.8637 158.308 55.6925 157.384C57.5877 155.35 58.9246 152.86 59.5735 150.156C59.6435 150.072 59.7595 149.929 59.8865 149.761C59.9865 149.628 60.0935 149.48 60.1865 149.331C60.2345 149.255 60.2805 149.18 60.3215 149.105L60.3935 149.089C60.6267 149.031 60.8514 148.943 61.0615 148.826C61.3835 148.654 61.651 148.395 61.8336 148.079C62.0161 147.763 62.1065 147.402 62.0945 147.037C62.0934 146.876 62.079 146.715 62.0515 146.556C62.2308 146.444 62.4001 146.316 62.5575 146.174C62.7822 145.973 62.9723 145.737 63.1205 145.474C63.2967 145.158 63.3893 144.801 63.3895 144.439C63.3887 144.336 63.3807 144.233 63.3655 144.131C63.3575 144.075 63.3485 144.019 63.3355 143.962C63.4669 143.882 63.5925 143.793 63.7115 143.695C63.9075 143.534 64.0763 143.343 64.2115 143.128C64.3293 142.945 64.408 142.739 64.4424 142.523C64.4768 142.308 64.4663 142.087 64.4115 141.876C64.5326 141.794 64.6473 141.702 64.7545 141.602C64.9447 141.425 65.1045 141.217 65.2275 140.988C65.3171 140.814 65.3805 140.628 65.4155 140.436C65.4455 140.503 65.4755 140.57 65.5065 140.636C66.3468 142.532 67.3714 144.341 68.5655 146.036C68.4465 147.487 68.3925 148.789 68.3915 149.955C68.3915 154.355 69.1585 156.865 70.1305 158.321C70.5149 158.924 71.0395 159.425 71.6595 159.781C72.0559 160.002 72.4924 160.141 72.9435 160.191C73.0368 160.201 73.1306 160.205 73.2245 160.205C73.6482 160.201 74.0664 160.109 74.4525 159.934C75.0236 159.677 75.5277 159.291 75.9255 158.807C76.2703 158.404 76.5134 157.924 76.6345 157.407C77.4913 156.718 78.2742 155.942 78.9705 155.091C80.5733 153.206 81.6621 150.939 82.1315 148.51C82.1905 148.432 82.2855 148.303 82.3885 148.154C82.4725 148.031 82.5615 147.895 82.6415 147.754C82.6785 147.69 82.7125 147.627 82.7415 147.564C82.9556 147.505 83.1607 147.417 83.3515 147.303C83.5966 147.159 83.8059 146.961 83.9635 146.724C84.1538 146.426 84.2529 146.078 84.2485 145.724C84.2466 145.554 84.2282 145.385 84.1935 145.218C84.333 145.12 84.4644 145.011 84.5865 144.892C84.7775 144.708 84.9385 144.495 85.0635 144.261C85.2134 143.98 85.292 143.666 85.2925 143.347C85.2914 143.183 85.2706 143.019 85.2305 142.86C85.3299 142.792 85.4247 142.718 85.5145 142.637C85.6838 142.489 85.8289 142.316 85.9445 142.123C86.0836 141.892 86.1579 141.628 86.1595 141.358C86.159 141.225 86.1405 141.092 86.1045 140.963C86.1938 140.894 86.2787 140.82 86.3585 140.74C86.5197 140.579 86.6547 140.394 86.7585 140.191C86.884 139.943 86.9494 139.669 86.9495 139.391C86.9485 139.25 86.9321 139.11 86.9005 138.972C87.0345 138.872 87.2215 138.721 87.4425 138.544C88.2087 140.106 89.0603 141.623 89.9935 143.091C91.2358 145.114 92.7662 146.944 94.5365 148.525C95.3568 149.236 96.2744 149.827 97.2615 150.279C98.2089 150.711 99.2365 150.938 100.277 150.946C100.865 150.946 101.449 150.87 102.017 150.721C102.95 150.485 103.821 150.051 104.571 149.449C105.325 148.834 105.941 148.069 106.382 147.202C107.183 145.494 107.565 143.62 107.496 141.735C107.462 139.606 107.201 137.486 106.717 135.412C106.564 134.712 106.398 134.038 106.231 133.405L112.642 129.93L114.452 131.13V133.16V133.181V133.215L114.461 133.262C114.461 133.272 114.461 133.281 114.47 133.291C114.476 133.307 114.482 133.324 114.489 133.339C114.489 133.347 114.496 133.355 114.501 133.363C114.511 133.38 114.521 133.396 114.533 133.411L114.542 133.425C114.558 133.445 114.576 133.462 114.595 133.478C114.616 133.496 114.639 133.511 114.663 133.523H114.67C114.691 133.534 114.713 133.543 114.735 133.55L114.763 133.557C114.777 133.557 114.79 133.564 114.804 133.566L119.222 134.172C119.239 134.191 119.258 134.209 119.278 134.224C119.789 134.565 120.324 134.868 120.878 135.13C122.008 135.698 123.232 136.052 124.49 136.174C125.545 136.22 126.59 136.388 127.605 136.674C128.328 136.877 128.984 137.267 129.505 137.806C129.993 138.389 130.545 138.914 131.152 139.37C132.035 139.995 133.093 140.324 134.174 140.31C135.233 140.287 136.277 140.065 137.253 139.656C140.001 138.505 142.942 137.887 145.92 137.835C146.209 137.835 146.481 137.842 146.735 137.853C146.806 137.853 146.877 137.853 146.948 137.853C148.182 137.806 149.394 137.508 150.508 136.977C151.614 136.515 152.6 135.809 153.393 134.911C153.876 134.299 154.23 133.777 154.553 133.319C154.994 132.644 155.533 132.039 156.153 131.524C157.198 130.742 158.338 130.095 159.544 129.599C160.366 129.25 161.252 129.077 162.144 129.092C162.582 129.092 163.02 129.126 163.452 129.192C163.614 129.218 163.742 129.243 163.829 129.262L163.929 129.283L163.952 129.289C164.058 129.317 164.169 129.303 164.264 129.25C164.627 129.026 164.946 128.738 165.205 128.4C165.812 127.621 166.133 126.657 166.113 125.67C166.113 125.476 166.103 125.282 166.082 125.089C166.028 124.471 165.854 123.869 165.571 123.316C165.33 122.853 164.989 122.449 164.571 122.134L166.892 122C166.999 121.993 167.098 121.946 167.171 121.868C167.244 121.79 167.284 121.688 167.284 121.581V115.332H167.506C167.618 115.332 167.724 115.288 167.803 115.209C167.882 115.131 167.926 115.024 167.926 114.913V111.283L170.601 111.165C170.712 111.16 170.816 111.112 170.891 111.03C170.966 110.949 171.006 110.841 171.001 110.73L170.739 104.049H170.827C170.885 104.049 170.941 104.038 170.993 104.015C171.046 103.992 171.093 103.96 171.132 103.918M66.5755 85.0212C65.9745 84.8646 65.3555 84.7883 64.7345 84.7942C64.5905 84.7942 64.4495 84.7992 64.3085 84.8062L64.5405 82.9122L64.8405 82.8302C64.9197 82.8067 64.9903 82.7606 65.0436 82.6976C65.0969 82.6345 65.1306 82.5572 65.1405 82.4752L65.6915 77.7882C65.7036 77.6837 65.6762 77.5785 65.6145 77.4934C65.5528 77.4082 65.4615 77.3492 65.3585 77.3282L59.1855 76.0782L60.0055 70.1422H60.0895C60.1924 70.1421 60.2916 70.1043 60.3685 70.0359C60.4454 69.9676 60.4945 69.8733 60.5065 69.7712L60.9065 66.3712C60.9128 66.3137 60.9071 66.2555 60.8899 66.2002C60.8727 66.145 60.8443 66.0939 60.8065 66.0502C60.7611 65.997 60.703 65.9564 60.6375 65.9322L62.3375 65.8452C62.4396 65.8406 62.5365 65.799 62.6102 65.7282C62.6838 65.6573 62.7291 65.562 62.7375 65.4602L63.4115 56.9702C65.6876 66.3045 67.0754 75.8333 67.5565 85.4292C67.2517 85.2469 66.9228 85.1085 66.5795 85.0182M101.179 144.507C101.111 144.656 101.011 144.787 100.885 144.892C100.788 144.963 100.676 145.013 100.558 145.039C100.47 145.061 100.379 145.073 100.287 145.072C99.9557 145.057 99.6328 144.96 99.3465 144.792C98.5273 144.298 97.7993 143.666 97.1945 142.925C95.8347 141.301 94.6458 139.542 93.6465 137.674C93.0035 136.51 92.3865 135.274 91.8175 134.005C92.0535 133.633 92.2965 133.226 92.5255 132.805C92.7135 132.456 92.8895 132.095 93.0455 131.734L100.603 135.017C100.712 135.442 100.818 135.871 100.915 136.302C101.352 138.111 101.596 139.96 101.644 141.82C101.694 142.74 101.535 143.66 101.179 144.51" fill="#0D0002"/>
<path d="M158.512 91.1514L134.236 92.6394L134.375 101.192L134.512 101.197L165.8 98.9684L165.323 90.7344L158.512 91.1514Z" fill="#47545D"/>
<path d="M165.699 89.8701L166.147 89.8511L166.02 87.0781L159.813 87.3481V87.3641C159.815 87.4202 159.805 87.4761 159.785 87.5285C159.765 87.5808 159.734 87.6285 159.695 87.6688C159.656 87.7091 159.609 87.7412 159.557 87.763C159.506 87.7849 159.45 87.7962 159.394 87.7961H149.784L133.875 88.4751V91.8211L165.689 89.8701H165.699Z" fill="#47545D"/>
<path d="M24.2266 60.8178L54.5536 65.3288L55.4766 56.5288L25.0426 52.4668L24.2266 60.8178Z" fill="#47545D"/>
<path d="M24.0293 51.4844L56.0403 55.7564L56.3203 52.6304L24.3773 48.5684L24.0293 51.4844Z" fill="#47545D"/>
<path d="M149.59 71.7337L155.442 71.6047C155.485 71.6037 155.528 71.6113 155.568 71.627C155.609 71.6427 155.645 71.6662 155.677 71.6961C155.708 71.726 155.733 71.7617 155.75 71.8013C155.767 71.8409 155.777 71.8835 155.778 71.9267L155.837 74.3857C155.838 74.4291 155.831 74.4722 155.815 74.5127C155.799 74.5532 155.776 74.5903 155.746 74.6217C155.716 74.6531 155.68 74.6783 155.641 74.6958C155.601 74.7133 155.558 74.7228 155.515 74.7237L154.35 74.7497L156.708 75.0447L156.486 68.0967L137.092 68.4557L137.517 75.0877L149.317 74.1337L149.268 72.0717C149.267 72.0283 149.274 71.9851 149.29 71.9446C149.305 71.9041 149.329 71.8671 149.358 71.8357C149.388 71.8043 149.424 71.7791 149.464 71.7616C149.504 71.7441 149.546 71.7346 149.59 71.7337Z" fill="#FF3600"/>
<path d="M156.884 67.2502H157.267V64.3252H136.826L137.037 67.6172L156.884 67.2502Z" fill="#FF3600"/>
<path d="M140.543 125.449C139.306 125.808 138.306 126.091 137.808 126.217L137.773 131.11L146.443 128.585C146.487 128.236 146.543 127.879 146.613 127.519C146.659 127.288 146.713 127.056 146.774 126.824L147.108 123.535L145.165 124.09C143.604 124.553 141.928 125.047 140.543 125.449Z" fill="#FF3600"/>
<path d="M126.454 125.485L122.42 130.069L124.443 130.28L136.698 131.433L136.736 126.242L126.458 125.479V125.485" fill="#FF3600"/>
<path d="M134.544 113.06L128.02 113.435V116.962L128.68 116.934L166.839 114.494H167.087V111.194L134.544 113.06Z" fill="#FF3600"/>
<path d="M129.121 117.747V123.64L150.238 122.256C151.114 121.881 152.053 121.673 153.006 121.643C153.497 121.637 153.984 121.724 154.441 121.901C154.494 121.922 154.541 121.947 154.592 121.971L166.446 121.194V115.361L129.121 117.747Z" fill="#FF3600"/>
<path d="M67.4855 53.4139C67.4739 53.5263 67.4181 53.6295 67.3305 53.7009C67.2869 53.7359 67.2368 53.7619 67.1831 53.7773C67.1293 53.7928 67.0731 53.7974 67.0175 53.7909L64.5775 53.4989V56.3749C64.5779 56.4024 64.5752 56.4299 64.5695 56.4569C64.5667 56.4713 64.5624 56.4854 64.5565 56.4989C64.5565 56.5109 64.5505 56.5239 64.5455 56.5359C64.5405 56.5478 64.5325 56.5609 64.5255 56.5739C64.5185 56.5869 64.5135 56.5979 64.5065 56.6089C64.4995 56.6199 64.4905 56.6279 64.4825 56.6379C64.4738 56.6497 64.4644 56.661 64.4545 56.6719C64.4455 56.6809 64.4345 56.6879 64.4255 56.6959C64.4165 56.7038 64.4045 56.7149 64.3915 56.7229C64.3785 56.7309 64.3665 56.7359 64.3535 56.7429C64.3405 56.7499 64.3305 56.7559 64.3185 56.7609L64.2795 56.7729L64.2395 56.7849H64.2285C66.6712 66.8761 68.1052 77.1851 68.5095 87.5599L72.9645 88.7999C72.9725 88.7999 72.9795 88.8059 72.9885 88.8088L73.0165 88.8199C73.0329 88.8265 73.0486 88.8345 73.0635 88.8439L73.0865 88.8579C73.1023 88.8676 73.1167 88.8794 73.1295 88.8929L73.1455 88.9039C73.1615 88.9206 73.1766 88.9383 73.1905 88.9569L73.1955 88.9649C73.2257 89.0093 73.2467 89.0592 73.2575 89.1119C73.259 89.1188 73.259 89.1259 73.2575 89.1329C73.2575 89.1519 73.2625 89.1708 73.2645 89.1898V93.3489C73.2645 93.4602 73.2203 93.5671 73.1415 93.6458C73.0627 93.7246 72.9559 93.7688 72.8445 93.7688H72.5645V98.6688C72.5645 98.775 72.5243 98.8771 72.4519 98.9547C72.3795 99.0323 72.2804 99.0795 72.1745 99.0868L68.7855 99.3189C68.7855 101.379 68.7575 103.336 68.7135 105.171C68.8895 105.178 69.0625 105.182 69.2335 105.183C71.7572 105.163 74.2326 104.489 76.4185 103.228C76.7562 103.006 77.1497 102.884 77.5535 102.877C77.9018 102.878 78.2425 102.979 78.5345 103.169C78.8383 103.373 79.0942 103.64 79.2845 103.953C79.5801 104.411 79.7421 104.943 79.7525 105.488C79.7571 105.803 79.6886 106.115 79.5525 106.399C79.4018 106.699 79.1714 106.953 78.8865 107.131C78.8755 107.138 78.8045 107.183 78.6785 107.257L74.4345 115.33L74.5935 115.23C78.5935 112.708 83.3545 109.671 86.4735 107.556C86.8895 101.046 87.0735 94.9379 87.0735 89.2679C87.0735 60.5889 82.5585 43.0029 81.7015 39.9229L68.1015 47.0489L67.4855 53.4139Z" fill="#FF3600"/>
<path d="M69.2077 109.747H69.1277C69.0527 109.747 68.9757 109.747 68.9007 109.747H68.7237H68.5727C68.3787 114.457 68.1047 117.882 67.9727 119.381L68.2357 119.218L73.0097 109.37C71.759 109.625 70.486 109.755 69.2097 109.757" fill="#FF3600"/>
<path d="M86.6389 108.687H86.6269C86.6159 108.68 86.6069 108.669 86.5959 108.661C86.5796 108.649 86.5643 108.636 86.5499 108.623C86.5381 108.61 86.5271 108.597 86.5169 108.583C86.51 108.575 86.5036 108.567 86.4979 108.559C83.3679 110.665 78.8609 113.539 75.0409 115.946C72.3939 117.614 70.0799 119.056 68.7869 119.859H68.7809L68.3809 120.109L71.5259 121.476L71.5089 121.44C71.3368 121.098 71.2438 120.722 71.2369 120.34C71.2381 119.856 71.4159 119.39 71.7369 119.029C72.0826 118.652 72.5024 118.351 72.9699 118.144C73.5379 117.856 74.1624 117.697 74.7989 117.678C75.201 117.67 75.5981 117.768 75.9509 117.961C76.3272 118.179 76.6264 118.509 76.8069 118.906C76.8829 119.067 78.0319 121.484 79.3619 124.878L100.319 133.978C100.003 132.864 99.6569 131.809 99.3129 130.899C99.2026 130.618 99.144 130.32 99.1399 130.019C99.1391 129.749 99.1953 129.482 99.3049 129.236C99.4137 128.998 99.5656 128.782 99.7529 128.6C100.16 128.221 100.642 127.932 101.168 127.751C101.669 127.55 102.202 127.441 102.742 127.427C103.171 127.416 103.595 127.527 103.964 127.748C104.356 128.001 104.653 128.379 104.807 128.821C104.843 128.921 105.407 130.421 106.017 132.579L114.9 127.763C114.923 127.731 114.95 127.701 114.978 127.674C115.036 127.62 115.098 127.571 115.164 127.527C115.3 127.427 115.474 127.327 115.68 127.209C116.092 126.974 116.63 126.693 117.167 126.422C117.687 126.159 118.204 125.905 118.602 125.713L86.6499 108.695L86.6389 108.687Z" fill="#FF3600"/>
<path d="M119.179 117.75C118.15 117.141 117.079 116.52 115.979 115.897C115.793 116.134 115.584 116.352 115.355 116.548C114.351 117.371 113.093 117.821 111.795 117.821C110.496 117.821 109.238 117.371 108.235 116.548C107.77 116.164 107.395 115.683 107.135 115.14C106.875 114.597 106.737 114.003 106.73 113.401C106.732 112.611 106.971 111.841 107.414 111.188C100.751 107.635 94.8296 104.68 93.4676 104.001L93.4236 103.979C91.6078 105.542 89.6902 106.982 87.6836 108.292L120.676 125.867L121.399 125.474L126.683 122.606C124.268 120.858 121.764 119.236 119.183 117.747" fill="#FF3600"/>
<path d="M87.8409 37.2079C87.9549 37.5699 88.0879 38.0079 88.2359 38.5079C90.0839 44.7859 94.2939 61.9079 94.2939 87.6829C94.2939 90.2082 94.2512 92.8159 94.1659 95.5059C94.1259 96.7492 94.0755 98.0092 94.0149 99.2859C93.9809 99.9959 93.9439 100.711 93.9039 101.431C93.8709 102.031 93.8339 102.631 93.7959 103.231C95.7659 104.208 109.019 110.818 118.94 116.636C121.731 118.23 124.439 119.966 127.054 121.836V121.726C127.068 121.119 127.088 120.226 127.108 119.095C127.148 116.827 127.188 113.585 127.188 109.688C127.188 103.826 127.097 96.4829 126.788 88.7499L126.573 88.7579C126.464 88.7615 126.359 88.7231 126.278 88.6506C126.197 88.5781 126.148 88.4771 126.14 88.3689L125.558 80.2219V80.0499C125.475 80.0276 125.401 79.9803 125.346 79.9145C125.291 79.8487 125.257 79.7674 125.25 79.6819L124.975 76.4369C124.97 76.3813 124.976 76.3253 124.994 76.2722C125.011 76.2191 125.038 76.1699 125.075 76.1276C125.111 76.0853 125.156 76.0507 125.206 76.0259C125.256 76.001 125.31 75.9864 125.366 75.9829L126.051 75.9399C125.596 69.3465 124.793 62.7817 123.646 56.2729L123.56 56.2129C123.409 56.1129 123.186 55.9559 122.896 55.7589C122.316 55.3589 121.467 54.7929 120.396 54.0879C118.252 52.6799 115.218 50.7379 111.655 48.6099C104.755 44.4919 95.8809 39.6789 87.6719 36.6709L87.6869 36.7169C87.7339 36.8619 87.7869 37.0259 87.8439 37.2069" fill="#FF3600"/>
<path d="M87.9092 89.2677C87.9092 94.9317 87.7312 101.032 87.3172 107.531C87.6322 107.331 88.0412 107.055 88.5332 106.712C90.0637 105.643 91.5389 104.496 92.9532 103.278C92.9945 102.642 93.0329 102.008 93.0682 101.378C93.3372 96.5727 93.4562 92.0017 93.4562 87.6777C93.4562 64.7917 90.1242 48.7617 88.1042 41.1487L87.9752 40.6647C87.8045 40.0334 87.6455 39.4667 87.4982 38.9647C87.1642 37.8147 86.8982 37.0087 86.7482 36.5547L82.2422 38.7117L82.3642 39.1977C82.4922 39.6237 87.9092 57.7977 87.9092 89.2647" fill="#FF3600"/>
<path d="M41.6992 95.4818L49.3182 99.4818V94.3568L41.6992 90.9688V95.4818Z" fill="#FF3600"/>
<path d="M71.7331 93.7783L50.1621 94.3983V99.7523L71.7331 98.2813V93.7783Z" fill="#FF3600"/>
<path d="M49.1252 89.9851L40.9102 86.7471V89.6831L41.4592 89.9421L49.1252 93.3511V89.9851Z" fill="#FF3600"/>
<path d="M71.7629 92.9377H72.4309V89.6377L49.9629 90.1117V93.5667L71.7509 92.9397L71.7629 92.9377Z" fill="#FF3600"/>
<path d="M62.2351 81.7426L62.4351 80.3716L62.7161 78.4886L58.9921 77.9006L58.5201 77.8336L53.6201 77.1406L21.7571 72.6816L21.4941 75.5366L62.2001 81.7366L62.2351 81.7426Z" fill="#FF3600"/>
<path d="M60.9297 87.2608L61.0847 86.0758L61.5547 82.4878L22.0227 76.4668L21.5117 82.8668L60.7407 88.7088L60.9297 87.2608Z" fill="#FF3600"/>
<path d="M55.546 31.6212L55.752 28.3762L35.568 26.8682L35.252 29.5762L55.478 31.6212H55.546Z" fill="#FF3600"/>
<path d="M41.6259 37.7178L32.2429 38.1878L32.1719 40.5598H41.5299L41.6259 37.7178Z" fill="#FF3600"/>
<path d="M54.6003 39.8375L42.4633 37.7715L42.3633 40.6245L67.9203 44.7305L68.2133 44.7785L68.4433 42.1975L61.3503 40.9885L54.6003 39.8375Z" fill="#FF3600"/>
<path d="M64.5779 52.6546L66.6909 52.9076L67.3999 45.5006L42.1099 41.4336L41.4219 49.8876L58.4769 51.9256L64.1829 52.2466C64.2889 52.2511 64.3892 52.2958 64.4635 52.3716C64.5377 52.4473 64.5804 52.5485 64.5829 52.6546" fill="#FF3600"/>
<path d="M40.5884 49.7844L41.2714 41.3994H32.3204L31.6484 48.6474L36.8204 49.3054L40.5884 49.7844Z" fill="#FF3600"/>
<path d="M126.399 80.1784L126.951 87.9064L130.558 87.7774L149.346 86.9774L149.12 78.5254L126.935 80.0004L126.393 80.0384L126.399 80.1784Z" fill="#FF3600"/>
<path d="M149.851 75.7644L149.929 77.6924L159.191 78.5924H159.198L159.343 78.6084L159.243 76.2084L149.816 75.0264L149.851 75.7644Z" fill="#FF3600"/>
<path d="M126.049 79.207L126.883 79.163L149.083 77.683L148.979 75L130.37 76.5H130.363L125.844 76.787L126.049 79.207Z" fill="#FF3600"/>
<path d="M150.182 86.9561H158.961L158.742 79.3911L149.957 78.5381L150.182 86.9561Z" fill="#FF3600"/>
<path d="M41.6099 36.8781L42.0389 36.8561C42.0476 36.8556 42.0563 36.8556 42.0649 36.8561C42.0852 36.8541 42.1057 36.8541 42.1259 36.8561L54.2999 38.9351L54.9999 32.4151L35.5689 30.4521L34.8359 37.2171L40.7359 36.9171L41.6099 36.8781Z" fill="#FF3600"/>
<path d="M164.866 123.766C164.711 123.459 164.499 123.184 164.242 122.955C164.152 122.876 164.057 122.805 163.957 122.74L156.062 123.609C156.113 123.731 156.156 123.855 156.19 123.982C156.332 124.582 156.399 125.198 156.39 125.814C156.351 127.551 156.082 129.276 155.59 130.942C155.893 130.693 156.212 130.463 156.544 130.253C157.402 129.724 158.298 129.256 159.223 128.853C160.152 128.455 161.154 128.257 162.164 128.272C162.78 128.271 163.395 128.333 163.999 128.456C164.023 128.439 164.048 128.42 164.076 128.398C164.259 128.251 164.425 128.083 164.57 127.898C165.06 127.268 165.316 126.488 165.296 125.69C165.296 125.525 165.287 125.36 165.27 125.196C165.227 124.698 165.092 124.212 164.87 123.763" fill="white"/>
<path d="M155.083 123.522C154.959 123.315 154.806 123.128 154.63 122.965C154.614 122.951 154.599 122.943 154.583 122.93C154.442 122.828 154.289 122.744 154.128 122.679C153.77 122.541 153.389 122.473 153.006 122.479C152.138 122.51 151.284 122.705 150.49 123.054C149.798 123.338 149.2 123.808 148.76 124.412C148.302 125.047 147.955 125.754 147.733 126.504C147.321 127.937 147.121 129.422 147.14 130.913C147.14 131.377 147.157 131.755 147.172 132.001C147.273 132.025 147.373 132.054 147.472 132.089C147.93 132.241 148.329 132.533 148.613 132.924C148.854 133.278 148.986 133.695 148.992 134.124C148.991 134.233 148.948 134.337 148.873 134.415C148.797 134.493 148.694 134.538 148.585 134.542C148.476 134.545 148.371 134.506 148.29 134.434C148.209 134.361 148.16 134.259 148.153 134.151C148.152 133.901 148.083 133.656 147.953 133.442C147.847 133.278 147.704 133.141 147.537 133.042C147.319 132.913 147.08 132.825 146.831 132.784L145.731 133.212C145.254 133.677 144.751 134.113 144.224 134.518C143.422 135.073 142.509 135.444 141.548 135.605C140.637 135.763 139.746 136.016 138.889 136.36C138.056 136.674 137.328 137.217 136.789 137.925C136.536 138.288 136.359 138.699 136.27 139.132C136.495 139.061 136.727 138.981 136.97 138.886C139.814 137.696 142.859 137.058 145.943 137.007C146.243 137.007 146.529 137.014 146.794 137.026C146.852 137.026 146.911 137.026 146.971 137.026C148.085 136.978 149.178 136.706 150.185 136.226C151.167 135.818 152.045 135.195 152.757 134.404C152.937 134.175 153.112 133.941 153.283 133.704C153.78 133.113 154.176 132.443 154.455 131.722C154.544 131.428 154.644 131.137 154.735 130.842C154.865 130.424 154.999 129.913 155.12 129.357C155.382 128.19 155.525 127 155.547 125.804C155.556 125.259 155.499 124.714 155.376 124.183C155.31 123.946 155.211 123.72 155.081 123.512" fill="white"/>
<path d="M149.348 74.1316C149.376 74.1286 149.404 74.1286 149.433 74.1316L154.348 74.7476L155.513 74.7226C155.556 74.7217 155.599 74.7122 155.639 74.6947C155.678 74.6772 155.714 74.6521 155.744 74.6207C155.774 74.5893 155.798 74.5522 155.814 74.5117C155.829 74.4712 155.837 74.428 155.836 74.3846L155.777 71.9256C155.775 71.8382 155.738 71.7553 155.675 71.6949C155.612 71.6346 155.527 71.6017 155.44 71.6036L149.589 71.7316C149.501 71.7337 149.418 71.7704 149.357 71.8338C149.297 71.8972 149.264 71.982 149.266 72.0696L149.316 74.1326L149.348 74.1316Z" fill="white"/>
<path d="M134.044 102.02C134.012 102.026 133.978 102.029 133.944 102.029L128.773 101.85V105.35H134.099V102.022L134.044 102.02Z" fill="white"/>
<path d="M170.171 99.5L166.271 99.778L134.941 102.011V105.321L170.28 103.214H170.386L170.171 99.5Z" fill="white"/>
<path d="M134.939 106.159V111.9L157.274 110.914L167.483 110.328C167.54 110.325 167.597 110.333 167.651 110.352C167.705 110.372 167.754 110.402 167.795 110.441L167.802 110.449L170.148 110.349L169.901 104.078L134.939 106.159Z" fill="white"/>
<path d="M83.1184 145.343C83.0097 145.747 82.8723 146.144 82.7074 146.529C82.6754 146.603 82.6394 146.673 82.6074 146.746C82.6464 146.733 82.6884 146.718 82.7334 146.699C82.9519 146.616 83.1406 146.47 83.2754 146.279C83.3782 146.115 83.4298 145.925 83.4234 145.732C83.422 145.618 83.4096 145.505 83.3864 145.394C83.2974 145.377 83.2074 145.363 83.1204 145.343" fill="white"/>
<path d="M77.4786 142.074C77.3426 142.263 77.2689 142.49 77.2676 142.723C77.2697 142.909 77.3116 143.091 77.3906 143.259C77.4265 143.34 77.4701 143.417 77.5206 143.489C77.6225 142.968 77.6728 142.438 77.6706 141.906C77.6542 141.911 77.6385 141.917 77.6236 141.925C77.5649 141.964 77.5153 142.015 77.4786 142.074Z" fill="white"/>
<path d="M83.5165 142.791C83.4853 143.37 83.4165 143.945 83.3105 144.515C83.4225 144.542 83.5365 144.566 83.6525 144.588C83.7035 144.555 83.7635 144.514 83.8335 144.459C84.0381 144.302 84.2083 144.105 84.3335 143.88C84.4204 143.719 84.4664 143.539 84.4676 143.356C84.4662 143.25 84.451 143.144 84.4225 143.042C84.1158 142.976 83.8133 142.893 83.5165 142.791Z" fill="white"/>
<path d="M83.5 140.512C83.528 140.959 83.544 141.393 83.544 141.812C83.544 141.837 83.544 141.86 83.544 141.885C83.9143 142.025 84.2931 142.142 84.678 142.235C84.718 142.21 84.763 142.181 84.813 142.144C84.9801 142.027 85.1225 141.879 85.232 141.708C85.2955 141.605 85.33 141.487 85.332 141.366C85.3315 141.305 85.3224 141.245 85.305 141.187C84.6716 141.063 84.0633 140.835 83.505 140.512" fill="white"/>
<path d="M84.2188 138.006C83.8588 137.714 83.5058 137.393 83.0508 137C83.2118 137.865 83.3328 138.687 83.4148 139.471C83.5258 139.546 83.6348 139.617 83.7408 139.681C84.2829 140.023 84.8859 140.257 85.5168 140.371C85.5528 140.347 85.5918 140.319 85.6368 140.283C85.7957 140.159 85.9269 140.002 86.0218 139.824C86.0884 139.692 86.1227 139.546 86.1218 139.398C86.121 139.308 86.1089 139.217 86.0858 139.13C85.4126 138.846 84.7833 138.467 84.2168 138.006" fill="white"/>
<path d="M59.5458 146.087C59.4758 146.054 59.4088 146.02 59.3408 145.987C59.2728 145.954 59.2238 145.928 59.1668 145.897C58.398 145.495 57.6816 144.999 57.0338 144.422C56.4725 143.93 55.9692 143.375 55.5338 142.769C55.448 142.688 55.3538 142.616 55.2528 142.555C55.1691 142.5 55.0727 142.468 54.9728 142.461C54.9287 142.461 54.8852 142.472 54.8468 142.494C54.7751 142.538 54.7134 142.597 54.6658 142.666C54.4832 142.895 54.3834 143.18 54.3828 143.473C54.3852 143.666 54.4236 143.856 54.4958 144.035C54.538 144.144 54.5917 144.249 54.6558 144.347L54.6668 144.364L54.6878 144.395C55.3602 145.576 56.3004 146.584 57.4328 147.336C58.0903 147.745 58.8121 148.04 59.5678 148.208C59.7118 148.238 59.8548 148.269 60.0078 148.294L60.0408 148.3L60.0618 148.306C60.1048 148.298 60.1688 148.285 60.2438 148.264C60.432 148.214 60.6104 148.133 60.7718 148.024C60.8897 147.944 60.9915 147.842 61.0718 147.724C61.2018 147.521 61.2667 147.283 61.2578 147.042C61.2554 146.924 61.2437 146.806 61.2228 146.69C60.642 146.552 60.0779 146.351 59.5408 146.09" fill="white"/>
<path d="M59.4356 142.641C58.6812 142.125 58.0044 141.504 57.4256 140.796L57.2026 140.542L57.2196 140.528L57.2026 140.542C57.0743 140.386 56.9249 140.249 56.7586 140.134C56.6726 140.072 56.5706 140.036 56.4646 140.029C56.3909 140.03 56.3192 140.053 56.2586 140.095C56.138 140.176 56.0327 140.278 55.9476 140.395C55.8028 140.58 55.7255 140.808 55.7286 141.042C55.7336 141.262 55.7815 141.479 55.8696 141.681C55.9531 141.88 56.0617 142.067 56.1926 142.238L56.2106 142.264L56.2246 142.285L56.2876 142.373C56.3446 142.451 56.4306 142.566 56.5466 142.707C56.8659 143.095 57.2146 143.457 57.5896 143.79C58.71 144.805 60.0639 145.526 61.5306 145.89C61.6151 145.841 61.6969 145.788 61.7756 145.73C62.0256 145.555 62.235 145.328 62.3896 145.064C62.4978 144.871 62.555 144.654 62.5556 144.432C62.5546 144.317 62.5399 144.202 62.5116 144.09C61.4041 143.801 60.36 143.308 59.4326 142.636" fill="white"/>
<path d="M61.3789 141.065C60.3214 140.32 59.3741 139.429 58.5649 138.419C58.4018 138.223 58.217 138.047 58.0139 137.892C57.9435 137.845 57.8608 137.819 57.7759 137.818C57.7128 137.819 57.6506 137.834 57.5934 137.86C57.5362 137.887 57.4852 137.926 57.4439 137.973C57.3176 138.126 57.2537 138.32 57.2649 138.517C57.3317 139.173 57.6158 139.787 58.0719 140.262C58.842 141.201 59.7946 141.972 60.8719 142.531C61.4888 142.852 62.1364 143.11 62.8049 143.301C62.8599 143.271 62.9229 143.235 62.9959 143.186C63.199 143.057 63.3728 142.887 63.5059 142.686C63.5872 142.563 63.631 142.418 63.6319 142.27C63.6315 142.197 63.6211 142.123 63.6009 142.052C62.8048 141.865 62.0508 141.53 61.3779 141.065" fill="white"/>
<path d="M62.5334 138.426C61.9334 137.898 61.3694 137.293 60.3734 136.412C60.1097 136.162 59.7639 136.015 59.4004 136C59.1976 135.994 58.9991 136.06 58.8414 136.187C58.7744 136.248 58.7217 136.323 58.6871 136.406C58.6525 136.489 58.6369 136.579 58.6414 136.669C58.6855 137.117 58.8821 137.536 59.1984 137.857C59.961 138.813 60.8548 139.658 61.8534 140.365C62.4569 140.785 63.1361 141.083 63.8534 141.243C63.9128 141.209 63.9702 141.171 64.0254 141.129C64.2207 140.988 64.3828 140.805 64.5004 140.594C64.5856 140.434 64.6299 140.256 64.6294 140.074C64.627 139.976 64.6142 139.879 64.5914 139.783C63.846 139.43 63.155 138.972 62.5394 138.422" fill="white"/>
<path d="M54.684 130.217C55.1249 129.923 55.5187 129.564 55.852 129.152C56.766 128.113 58.003 126.393 60.126 123.82C61.184 122.452 62.4764 121.284 63.943 120.368C64.005 120.332 64.065 120.303 64.125 120.268C64.1004 120.095 64.0519 119.927 63.981 119.768C63.8791 119.545 63.739 119.342 63.567 119.168C63.1827 118.798 62.7261 118.512 62.226 118.328C61.5193 118.058 60.7791 117.886 60.026 117.816H60.018C59.9556 117.812 59.895 117.793 59.841 117.762C59.406 117.985 58.963 118.234 58.515 118.514C55.087 120.657 51.363 124.578 48.752 131.807C49.0483 131.606 49.3584 131.426 49.68 131.269C50.6821 130.765 51.7838 130.492 52.905 130.469C53.041 130.469 53.178 130.475 53.315 130.485H53.344C53.438 130.492 53.527 130.496 53.613 130.496C53.9909 130.505 54.3635 130.405 54.686 130.208M53.309 128.784C53.0955 128.783 52.8857 128.729 52.6992 128.625C52.5126 128.521 52.3554 128.372 52.2424 128.191C52.1293 128.01 52.0641 127.803 52.0528 127.59C52.0416 127.377 52.0846 127.165 52.178 126.973C52.6222 126.104 53.1278 125.269 53.691 124.473C54.8339 122.804 56.2257 121.32 57.818 120.073C58.0845 119.879 58.4162 119.798 58.7419 119.846C59.0676 119.895 59.3615 120.069 59.5604 120.331C59.7594 120.594 59.8476 120.923 59.8062 121.25C59.7648 121.577 59.5971 121.874 59.339 122.079C57.9557 123.169 56.7471 124.464 55.755 125.92C55.268 126.608 54.8287 127.329 54.44 128.078C54.3367 128.29 54.1757 128.469 53.9755 128.594C53.7753 128.719 53.544 128.785 53.308 128.785" fill="white"/>
<path d="M58.4197 121.749C58.3385 121.707 58.2627 121.654 58.1937 121.593C58.0477 121.462 57.9393 121.294 57.8797 121.106C55.8424 122.849 54.1615 124.97 52.9297 127.351C52.9016 127.408 52.8869 127.471 52.8867 127.534C52.8869 127.613 52.909 127.69 52.9508 127.757C52.9925 127.824 53.052 127.878 53.1227 127.912C53.2228 127.961 53.3379 127.968 53.443 127.932C53.5481 127.895 53.6346 127.819 53.6837 127.719C53.6907 127.705 53.7217 127.643 53.7837 127.53C53.8457 127.417 53.9317 127.256 54.0457 127.056C54.2747 126.656 54.6107 126.106 55.0457 125.478C55.998 124.089 57.1336 122.835 58.4217 121.749" fill="white"/>
<path d="M67.2906 115.977C67.1906 115.977 67.0446 115.966 66.8536 115.966C64.905 115.998 62.9802 116.399 61.1816 117.15L61.2576 117.165C62.0615 117.327 62.83 117.632 63.5266 118.065C64.0429 118.388 64.4586 118.849 64.7266 119.396C64.8034 119.56 64.863 119.732 64.9046 119.908C65.4231 119.697 65.976 119.583 66.5356 119.572C66.7221 119.571 66.9082 119.588 67.0916 119.622L67.3716 116.022L67.3166 115.98H67.2866" fill="white"/>
<path d="M28.554 86.8718C28.509 86.7068 28.464 86.5498 28.42 86.4028L28.373 86.3748C28.2009 86.2806 28.0209 86.2017 27.835 86.1388C27.0163 85.8766 26.1594 85.7536 25.3 85.7748C24.6307 85.7784 23.9624 85.8282 23.3 85.9238C22.2958 86.0481 21.376 86.5484 20.726 87.3238C20.1785 87.9732 19.87 88.7906 19.852 89.6398C19.8441 90.0536 19.944 90.4623 20.142 90.8258C20.3318 91.1628 20.6299 91.4257 20.988 91.5718C21.2874 91.6898 21.6072 91.7476 21.929 91.7418C23.9036 91.7493 25.8276 92.3676 27.437 93.5118C27.756 93.7348 28.037 93.9578 28.279 94.1658C28.2583 93.9445 28.2477 93.7225 28.247 93.4998C28.3245 92.095 28.5371 90.7009 28.882 89.3368C28.9043 89.2137 28.9147 89.0888 28.913 88.9638C28.906 88.628 28.8699 88.2934 28.805 87.9638C28.739 87.5998 28.648 87.2218 28.554 86.8748" fill="white"/>
<path d="M59.4522 100.452C59.7849 101.039 60.2178 101.563 60.7312 102C61.8135 101.363 62.8025 100.58 63.6702 99.6719L59.1992 99.9719C59.2682 100.114 59.3512 100.272 59.4522 100.447" fill="white"/>
<path d="M67.6351 86.9004C67.6265 86.7108 67.5502 86.5306 67.4201 86.3924C67.2449 86.2128 67.0336 86.0723 66.8001 85.9804C66.1407 85.7317 65.4396 85.6122 64.7351 85.6284C64.5561 85.6284 64.3791 85.6354 64.2051 85.6484L64.1211 86.3284L67.6551 87.3154C67.6481 87.1544 67.6411 87.0154 67.6351 86.9004Z" fill="white"/>
<path d="M33.774 95.7813C33.7738 95.4459 33.8043 95.1112 33.865 94.7813C34.0174 94.0194 34.1044 93.246 34.125 92.4693C34.1381 92.1622 34.0989 91.8552 34.009 91.5613C33.826 91.0803 33.556 90.5393 33.325 89.9953C33.0764 89.4782 32.9304 88.9179 32.895 88.3453C32.8941 88.143 32.9279 87.9421 32.995 87.7513C33.0673 87.5508 33.1812 87.3678 33.329 87.2143C33.6146 86.9336 33.972 86.737 34.362 86.6463C34.641 86.5761 34.9266 86.5355 35.214 86.5253C35.0287 86.2248 34.826 85.9353 34.607 85.6583L28.707 84.7793C28.843 85.0045 28.9546 85.2435 29.04 85.4923C29.0923 85.6422 29.1354 85.7952 29.169 85.9503C29.353 86.5339 29.5049 87.1271 29.624 87.7273C29.7068 88.1326 29.7524 88.5447 29.76 88.9583C29.7617 89.1377 29.7463 89.3168 29.714 89.4933C29.381 90.8039 29.1738 92.1433 29.095 93.4933C29.0777 94.1369 29.1967 94.7769 29.444 95.3713C29.901 96.4675 30.5949 97.449 31.476 98.2453C32.2036 98.8977 33.0355 99.4233 33.937 99.8003C34.5561 100.06 35.1992 100.258 35.857 100.391C35.53 99.9913 35.17 99.5063 34.83 99.0343C34.1451 98.0863 33.7757 96.9469 33.774 95.7773" fill="white"/>
<path d="M78.9186 105.494C78.9071 105.106 78.7895 104.73 78.5786 104.405C78.4544 104.196 78.2862 104.018 78.0856 103.882C77.9294 103.778 77.7462 103.722 77.5586 103.721C77.312 103.729 77.0728 103.807 76.8686 103.946C74.5498 105.291 71.9203 106.008 69.2396 106.027C66.0248 106.016 62.9137 104.888 60.4396 102.836C59.7396 102.308 59.1566 101.641 58.7276 100.877C58.5701 100.606 58.4282 100.327 58.3026 100.041L49.8556 100.617C49.8186 100.628 49.7802 100.634 49.7416 100.635C49.6807 100.634 49.6206 100.621 49.5655 100.595C49.5104 100.569 49.4616 100.531 49.4226 100.485L41.5176 96.3346C41.3803 96.6373 41.2164 96.9271 41.0276 97.2006C40.8805 97.4178 40.7216 97.6268 40.5516 97.8266C40.5162 97.871 40.4722 97.9078 40.4222 97.9347C40.3723 97.9617 40.3174 97.9782 40.2608 97.9833C40.2043 97.9884 40.1473 97.982 40.0933 97.9645C40.0393 97.947 39.9894 97.9187 39.9467 97.8814C39.9039 97.844 39.8692 97.7984 39.8445 97.7472C39.8199 97.6961 39.8059 97.6405 39.8034 97.5838C39.8008 97.5271 39.8098 97.4704 39.8298 97.4173C39.8498 97.3641 39.8803 97.3156 39.9196 97.2746L39.9256 97.2686L39.9496 97.2406L40.0406 97.1286C40.1166 97.0286 40.2226 96.8926 40.3336 96.7286C40.5627 96.4085 40.7411 96.055 40.8626 95.6806V91.4606C40.7688 91.0982 40.6399 90.7459 40.4776 90.4086L40.3106 90.3296C40.2386 90.2954 40.1778 90.2416 40.1352 90.1744C40.0925 90.1072 40.0698 90.0292 40.0696 89.9496V89.7146C39.9769 89.5813 39.8799 89.4553 39.7786 89.3366L39.7096 89.2586C39.6426 89.1836 39.5536 89.0876 39.4466 88.9826C39.1793 88.7234 38.8857 88.4928 38.5706 88.2946C37.9157 87.8899 37.1941 87.6049 36.4396 87.4526L36.3846 87.4426C36.3346 87.4346 36.2596 87.4226 36.1676 87.4106C35.9288 87.3799 35.6883 87.3642 35.4476 87.3636C35.1522 87.3597 34.8575 87.3933 34.5706 87.4636C34.3301 87.5164 34.1086 87.6336 33.9296 87.8026C33.8634 87.8703 33.8126 87.9515 33.7806 88.0406C33.747 88.1408 33.7307 88.2459 33.7326 88.3516C33.7708 88.8113 33.8942 89.26 34.0966 89.6746C34.3126 90.1856 34.5856 90.7316 34.7916 91.2676C34.9187 91.6572 34.9766 92.066 34.9626 92.4756C34.9417 93.3036 34.85 94.1282 34.6886 94.9406C34.6371 95.2186 34.6113 95.5008 34.6116 95.7836C34.6137 96.7775 34.9286 97.7456 35.5116 98.5506C35.7656 98.9026 36.0296 99.2596 36.2786 99.5786C36.5276 99.8976 36.7626 100.179 36.9476 100.379C37.0274 100.467 37.1154 100.548 37.2106 100.621C37.5216 100.8 37.8296 100.971 38.1356 101.137C41.1087 102.787 44.3102 103.987 47.6356 104.698C49.3392 105.053 51.0743 105.236 52.8146 105.243C54.3192 105.263 55.8202 105.091 57.2816 104.733L57.5026 104.671L57.6196 104.635L57.6376 104.629C57.7774 104.551 57.9082 104.458 58.0276 104.352C58.1576 104.24 58.2586 104.138 58.2756 104.12C58.3136 104.08 58.3592 104.048 58.4096 104.026C58.46 104.004 58.5143 103.991 58.5694 103.99C58.6244 103.989 58.6792 103.999 58.7305 104.019C58.7819 104.039 58.8288 104.069 58.8686 104.107C58.9083 104.145 58.9403 104.19 58.9624 104.241C58.9846 104.291 58.9967 104.345 58.9979 104.4C58.9991 104.455 58.9894 104.51 58.9695 104.562C58.9495 104.613 58.9196 104.66 58.8816 104.7C58.8756 104.706 58.7646 104.822 58.6016 104.964C58.5706 104.991 58.5366 105.019 58.5016 105.047C58.8346 105.316 59.1676 105.573 59.5016 105.809C60.3992 106.445 61.3543 106.996 62.3546 107.455C63.038 107.767 63.7424 108.031 64.4626 108.245C64.7206 108.322 64.9766 108.39 65.2326 108.452C65.4032 108.494 65.5732 108.532 65.7426 108.567C66.8829 108.799 68.0438 108.916 69.2076 108.916C70.6749 108.913 72.1367 108.734 73.5616 108.384C73.6013 108.359 73.6449 108.34 73.6906 108.33L73.7156 108.324L73.7986 108.301C73.8696 108.284 73.9746 108.259 74.1066 108.224C74.3716 108.155 74.7466 108.051 75.1846 107.908L75.2726 107.879C76.1826 107.569 77.0661 107.186 77.9146 106.734C77.9946 106.689 78.0756 106.644 78.1536 106.596C78.164 106.591 78.1747 106.587 78.1856 106.584C78.3476 106.49 78.4366 106.433 78.4406 106.43C78.5971 106.333 78.7232 106.194 78.8046 106.03C78.8846 105.862 78.9246 105.678 78.9216 105.493" fill="white"/>
<path d="M114.074 115.601C113.404 116.234 112.537 116.62 111.617 116.692C112.611 116.861 113.632 116.684 114.511 116.192C114.82 116.012 115.102 115.792 115.352 115.538L114.507 115.062C114.384 115.258 114.239 115.439 114.074 115.602" fill="white"/>
<path d="M82.2 144.41C82.1465 144.397 82.091 144.394 82.0365 144.402C81.9821 144.41 81.9297 144.429 81.8826 144.458C81.8354 144.486 81.7942 144.523 81.7616 144.568C81.7289 144.612 81.7052 144.662 81.692 144.716C81.5157 145.471 81.2084 146.189 80.784 146.838C80.3951 147.42 79.8898 147.914 79.3 148.291C79.168 148.375 79.035 148.455 78.9 148.529C78.8027 148.583 78.7307 148.673 78.6999 148.78C78.6692 148.887 78.6822 149.002 78.736 149.099C78.7898 149.196 78.8801 149.268 78.987 149.299C79.0939 149.33 79.2087 149.317 79.306 149.263C79.455 149.18 79.606 149.092 79.751 148.997C80.4372 148.558 81.0252 147.983 81.478 147.306C81.9569 146.576 82.3042 145.768 82.504 144.918C82.5173 144.864 82.5199 144.809 82.5118 144.754C82.5036 144.7 82.4847 144.648 82.4563 144.6C82.4279 144.553 82.3905 144.512 82.3461 144.479C82.3018 144.447 82.2515 144.423 82.198 144.41" fill="white"/>
<path d="M106.342 142.951C106.287 142.946 106.231 142.951 106.179 142.967C106.126 142.982 106.077 143.008 106.034 143.043C105.991 143.078 105.956 143.121 105.93 143.169C105.903 143.218 105.887 143.271 105.882 143.325C105.793 144.427 105.499 145.502 105.015 146.495C104.732 147.051 104.357 147.555 103.907 147.985C103.867 148.023 103.834 148.069 103.812 148.119C103.789 148.169 103.777 148.223 103.776 148.278C103.774 148.333 103.783 148.388 103.803 148.44C103.823 148.491 103.852 148.538 103.89 148.578C103.928 148.618 103.973 148.65 104.023 148.673C104.074 148.695 104.128 148.707 104.183 148.709C104.238 148.71 104.293 148.701 104.344 148.681C104.395 148.662 104.443 148.632 104.483 148.594C105.002 148.1 105.434 147.52 105.761 146.881C106.293 145.795 106.617 144.618 106.716 143.411C106.727 143.301 106.694 143.19 106.624 143.104C106.553 143.018 106.452 142.963 106.342 142.951Z" fill="white"/>
<path d="M54.1909 70.0808L33.8219 67.2998L19.4789 65.3418L18.8789 71.4298L53.3269 76.2508L54.1909 70.0808Z" fill="white"/>
<path d="M19.1626 64.4524L54.1026 69.2224L54.3906 66.4394L19.3536 60.9004L18.8906 64.4184L19.1576 64.4514L19.1626 64.4524Z" fill="white"/>
<path d="M60.0185 66.7254L55.2245 66.5254L54.9375 69.3004H59.7155L60.0185 66.7254Z" fill="white"/>
<path d="M97.499 70.7543C97.8874 71.6738 98.4135 72.529 99.059 73.2903C99.6354 73.972 100.348 74.5261 101.15 74.9173C101.759 75.2479 102.449 75.3991 103.14 75.3533C103.439 75.3108 103.726 75.2026 103.978 75.0367C104.231 74.8708 104.444 74.6511 104.602 74.3933C105.076 73.6127 105.382 72.7424 105.502 71.8373C105.729 70.4055 105.831 68.9568 105.808 67.5073V66.7913L101.013 64.4913V68.1603L102.255 68.7603C102.297 69.3387 102.182 69.9176 101.923 70.4363C101.886 70.5141 101.833 70.5831 101.767 70.6391C101.702 70.6951 101.626 70.7367 101.543 70.7613C101.46 70.7859 101.374 70.7929 101.288 70.7819C101.203 70.7709 101.121 70.7421 101.047 70.6973C100.763 70.5009 100.526 70.2441 100.353 69.9454C100.18 69.6466 100.076 69.3133 100.047 68.9693C99.8166 67.7416 99.714 66.4932 99.741 65.2443C99.7009 64.0924 99.8037 62.9399 100.047 61.8133C100.251 61.08 100.584 60.8253 101.047 61.0493C101.414 61.2272 101.7 61.5373 101.847 61.9173C102.032 62.3831 102.147 62.8738 102.187 63.3733L105.537 63.3203C104.619 60.0023 103.157 57.8613 101.15 56.8973C100.523 56.5545 99.8001 56.4263 99.093 56.5323C98.46 56.6674 97.903 57.0404 97.537 57.5743C97.0516 58.2881 96.7161 59.093 96.551 59.9403C96.2993 61.1233 96.1812 62.3309 96.199 63.5403C96.1918 64.8546 96.3029 66.1669 96.531 67.4613C96.7274 68.5923 97.0525 69.6972 97.5 70.7543" fill="white"/>
<path d="M107.629 75.5473C108.016 76.4744 108.535 77.3412 109.168 78.1213C109.71 78.7953 110.393 79.3433 111.168 79.7273C111.775 80.0577 112.479 80.1669 113.158 80.0363C113.787 79.8709 114.335 79.4825 114.7 78.9433C115.187 78.2272 115.525 77.4206 115.695 76.5713C115.943 75.4215 116.059 74.2474 116.043 73.0713C116.048 71.7842 115.931 70.4995 115.695 69.2343C115.486 68.09 115.152 66.972 114.7 65.9003C114.309 64.9684 113.788 64.0967 113.153 63.3113C112.615 62.6348 111.936 62.084 111.163 61.6973C110.553 61.3617 109.844 61.2553 109.163 61.3973C108.535 61.5732 107.99 61.9657 107.624 62.5053C107.137 63.2213 106.799 64.028 106.63 64.8773C106.381 66.027 106.264 67.2012 106.281 68.3773C106.276 69.6644 106.393 70.9492 106.63 72.2143C106.839 73.3566 107.172 74.4726 107.624 75.5423M110.209 66.8243C110.435 66.1336 110.752 65.886 111.161 66.0813C111.57 66.2766 111.887 66.829 112.113 67.7383C112.367 68.9208 112.481 70.1291 112.453 71.3383C112.499 72.4371 112.385 73.5367 112.113 74.6023C111.886 75.285 111.569 75.5286 111.161 75.3333C110.753 75.138 110.436 74.5893 110.209 73.6873C109.954 72.5083 109.84 71.3032 109.869 70.0973C109.823 68.9946 109.938 67.8911 110.209 66.8213" fill="white"/>
<path d="M115.705 68.3812L117.66 69.3202V82.5452L121.129 84.2112V70.9852L123.084 71.9242V67.7472L115.705 64.2002V68.3812Z" fill="white"/>
<path d="M98.6327 75.0732L96.3887 82.3732L99.7887 84.0062L101.371 76.3862L98.6327 75.0732Z" fill="white"/>
<path d="M101.883 94.0348L108.31 97.1208V92.9428L105.335 91.5148V88.8598L108 90.1418V86.2178L105.331 84.9368V82.3748L108.31 83.7998V79.7178L101.883 76.6318V94.0348Z" fill="white"/>
<path d="M116.793 83.7918L115.909 89.6688C115.851 90.0888 115.797 90.5322 115.747 90.9988C115.696 91.4668 115.654 91.9628 115.62 92.4838C115.586 91.9138 115.552 91.3785 115.52 90.8778C115.487 90.3772 115.442 89.8895 115.384 89.4148L114.599 82.7398L110.299 80.6738L108.799 97.3578L112.472 99.1208L112.761 91.3208C112.784 90.7948 112.806 90.2768 112.829 89.7728C112.852 89.2688 112.869 88.7498 112.88 88.2158C112.914 88.8478 112.959 89.4545 113.016 90.0358C113.072 90.6172 113.129 91.1752 113.186 91.7098L114.104 99.9098L116.929 101.26L118.017 94.0278C118.083 93.5518 118.15 93.0518 118.217 92.5278C118.283 92.0038 118.331 91.4418 118.361 90.8418C118.384 91.3928 118.398 91.9258 118.404 92.4418C118.41 92.9578 118.423 93.4928 118.446 94.0418L118.701 102.103L122.323 103.842L121.065 85.8348L116.793 83.7918Z" fill="white"/>
<path d="M76.5734 77.3001L83.0544 77.8401L82.8354 76.3401L76.4004 75.7891L76.5734 77.3001Z" fill="white"/>
<path d="M76.0882 73.0364L79.1592 73.3194L76.2072 73.9514L76.3712 75.4514L82.7952 76.0084L82.5722 74.5004L79.7912 74.2383L82.4692 73.7504L82.2142 72.1854L75.9082 71.6104L76.0882 73.0364Z" fill="white"/>
<path d="M81.3 92.6005L78.209 84.9255L78.842 84.9495L78.6 83.2295L80.194 83.3205L80.371 84.7615L81.564 84.8285L81.369 83.4145L82.686 83.5145L82.886 84.9145L84.108 85.0005L83.45 80.5525L81.45 79.5125L83.336 79.7055L83.1 78.1855L76.628 77.6405L76.828 79.1855L79.628 79.4025L76.928 80.2125L77.171 82.3185L74.424 75.5835C74.1586 75.083 74.0044 74.5311 73.972 73.9656C73.9395 73.4 74.0296 72.8341 74.236 72.3065C75.27 70.3555 77.836 70.9575 78.598 71.2115C77.6504 70.6331 76.6551 70.1366 75.623 69.7275C73.979 69.1665 72.275 69.1725 71.255 70.1145C69.388 71.8225 70.569 74.4915 71.532 76.1645L81.3 92.6005ZM80.65 80.5095L83.419 81.9445L83.54 82.0255L77.5 81.5595L80.65 80.5095Z" fill="white"/>
<path d="M92.7988 121.724L94.0558 122.339L99.8988 119.01L98.6338 118.4L92.7988 121.724Z" fill="white"/>
<path d="M90.4667 120.582L93.2737 118.987L91.2617 120.956L92.5237 121.581L98.3597 118.255L97.0657 117.629L94.4997 119.08L96.4257 117.31L95.0367 116.662L89.2207 119.987L90.4667 120.582Z" fill="white"/>
<path d="M101.3 124.591L99.9325 123.956L101.309 123.148L102.432 123.702L103.463 123.102L102.348 122.563L103.51 121.9L104.61 122.438L105.69 121.819L102.133 120.1L99.7195 120.7L101.448 119.751L100.179 119.151L94.3505 122.466L95.6325 123.072L98.1155 121.649L96.4495 123.488L98.1285 124.308L91.0055 122.717C89.5525 122.396 88.6115 121.884 88.3565 121.27C87.7045 119.736 90.3425 118.57 91.1925 118.257C89.9472 118.508 88.7173 118.831 87.5085 119.222C85.6755 119.883 84.2505 120.857 84.1545 121.889C83.9695 123.734 87.0115 124.318 89.0645 124.558L108.26 126.615L100.76 124.915L101.3 124.591ZM97.8725 123.791L99.7495 121.611L103.063 120.772L103.22 120.744L97.8725 123.791Z" fill="white"/>
<path d="M36.2677 48.3508L39.4927 48.7248C39.5375 48.73 39.583 48.7262 39.6262 48.7134C39.6695 48.7006 39.7098 48.6791 39.7445 48.6503C39.7793 48.6215 39.8079 48.586 39.8285 48.5459C39.8492 48.5057 39.8615 48.4618 39.8647 48.4168L40.0137 46.2888C40.0198 46.201 39.9909 46.1143 39.9334 46.0476C39.8759 45.981 39.7945 45.9397 39.7067 45.9328L36.4907 45.6768C36.4023 45.6699 36.3147 45.6983 36.2472 45.7559C36.1797 45.8134 36.1378 45.8954 36.1307 45.9838L35.9737 47.9928C35.9669 48.0789 35.9937 48.1643 36.0485 48.2311C36.1034 48.2978 36.1819 48.3407 36.2677 48.3508Z" fill="white"/>
<path d="M65.3574 95.5615C65.2621 95.5684 65.1727 95.6105 65.1068 95.6797C65.0408 95.7488 65.0029 95.84 65.0004 95.9355L64.9864 97.7355C64.9855 97.7809 64.9942 97.8259 65.0118 97.8678C65.0295 97.9096 65.0556 97.9472 65.0887 97.9783C65.1218 98.0094 65.161 98.0332 65.2038 98.0483C65.2466 98.0633 65.2921 98.0691 65.3374 98.0655L70.7464 97.7355C70.8417 97.7286 70.931 97.6865 70.997 97.6174C71.063 97.5482 71.1009 97.457 71.1034 97.3615L71.1174 95.5615C71.1181 95.5161 71.1093 95.471 71.0916 95.4292C71.0738 95.3874 71.0475 95.3497 71.0144 95.3186C70.9812 95.2876 70.942 95.2638 70.8991 95.2488C70.8562 95.2338 70.8107 95.2279 70.7654 95.2315L65.3574 95.5615Z" fill="white"/>
<path d="M148.528 117.485C148.527 117.411 148.497 117.34 148.444 117.287C148.392 117.235 148.321 117.205 148.246 117.204C148.207 117.205 148.168 117.214 148.133 117.231C148.097 117.248 148.066 117.273 148.041 117.303C148.016 117.334 147.998 117.369 147.989 117.407C147.979 117.446 147.978 117.485 147.985 117.524C147.99 117.592 148.021 117.656 148.071 117.703C148.121 117.75 148.187 117.777 148.255 117.777C148.33 117.773 148.4 117.741 148.451 117.686C148.502 117.632 148.53 117.56 148.528 117.485Z" fill="white"/>
<path d="M144.805 117.514C144.352 117.994 143.941 118.511 143.574 119.059C143.227 119.564 143.023 120.154 142.983 120.765C142.975 121.022 143.04 121.275 143.168 121.497C143.303 121.725 143.504 121.907 143.744 122.019C143.979 122.124 144.235 122.176 144.492 122.171C145.175 122.133 145.843 121.961 146.459 121.664L148.327 120.869L148.282 121.018L148.288 121.027L148.65 121.004L148.664 120.994L148.755 120.687L149.119 120.532C149.144 120.653 149.164 120.748 149.167 120.76C149.176 120.816 149.191 120.871 149.213 120.923C149.331 121.123 149.508 120.984 149.596 120.908C149.716 120.808 150.114 120.427 150.174 120.361C150.213 120.334 150.223 120.361 150.231 120.393C150.232 120.488 150.255 120.582 150.297 120.667C150.339 120.752 150.4 120.827 150.474 120.886C150.687 121.01 150.969 120.856 151.186 120.6C151.33 120.446 151.438 120.26 151.501 120.058C151.483 119.999 151.448 119.946 151.401 119.906H151.389C151.289 120.237 151.044 120.606 150.782 120.634C150.431 120.675 150.627 119.939 150.635 119.886C150.667 119.874 150.704 119.856 150.746 119.835L156.524 117.377L156.488 117.277L151.634 118.618C151.603 118.543 151.55 118.478 151.481 118.434C151.412 118.39 151.332 118.367 151.25 118.37C151.109 118.406 150.978 118.472 150.866 118.564C150.754 118.656 150.663 118.772 150.601 118.903L150.224 119.003C150.232 118.98 150.239 118.957 150.244 118.933C150.285 118.727 150.289 118.559 150.172 118.488C150.113 118.466 150.05 118.456 149.986 118.458C149.923 118.461 149.861 118.476 149.804 118.503C149.614 118.611 149.445 118.752 149.304 118.918C149.285 118.94 149.275 118.936 149.275 118.936L149.731 117.406C149.755 117.327 149.764 117.245 149.757 117.162C149.727 117.09 149.67 117.102 149.67 117.102C149.67 117.102 149.24 117.135 149.085 117.141C149.009 117.148 149.002 117.289 149.074 117.301C149.109 117.308 149.242 117.276 149.3 117.342C149.358 117.408 149.314 117.592 149.314 117.592L148.764 119.407L148.11 119.588C148.148 119.465 148.235 119.179 148.268 119.012C148.31 118.796 148.245 118.692 148.175 118.645C148.137 118.624 148.095 118.613 148.052 118.613C148.009 118.613 147.967 118.624 147.929 118.645C147.83 118.724 147.745 118.818 147.676 118.924C147.667 118.939 147.386 119.424 147.13 119.86L146.654 119.991L146.861 119.324C146.903 119.211 146.929 119.092 146.938 118.971C146.939 118.935 146.933 118.899 146.92 118.866C146.906 118.833 146.886 118.803 146.859 118.778C146.833 118.753 146.802 118.734 146.768 118.723C146.734 118.711 146.698 118.707 146.662 118.71C146.528 118.739 146.406 118.807 146.31 118.904C146.162 119.047 146.035 119.21 145.931 119.387L145.904 119.373C145.943 119.214 145.943 119.048 145.904 118.888C145.881 118.844 145.843 118.809 145.796 118.789C145.75 118.77 145.698 118.767 145.65 118.781C145.434 118.869 145.275 119.165 145.22 119.245C145.118 119.415 145.037 119.596 144.98 119.785C144.98 119.785 145.069 119.921 145.096 119.956H145.107C145.144 119.877 145.234 119.605 145.307 119.468C145.38 119.331 145.42 119.321 145.471 119.325C145.522 119.329 145.505 119.498 145.505 119.498L145.313 120.138C145.145 120.114 144.984 120.05 144.846 119.951C144.704 119.845 144.591 119.705 144.515 119.544C144.44 119.383 144.406 119.207 144.415 119.029C144.452 118.515 144.615 118.018 144.891 117.582L144.805 117.514ZM151.667 118.827C151.672 118.796 151.672 118.764 151.667 118.733V118.723L155.714 117.605L151.221 119.516L151.237 119.503L151.337 119.403C151.503 119.249 151.617 119.047 151.663 118.825M151.318 118.637C151.331 118.64 151.344 118.645 151.354 118.654C151.365 118.662 151.374 118.672 151.38 118.684L151.061 118.773C151.127 118.666 151.198 118.61 151.318 118.637ZM150.918 119.054C150.941 119.008 150.964 118.965 150.983 118.923L150.991 118.909L151.405 118.794V118.805C151.37 119.014 151.273 119.207 151.127 119.36C151.051 119.449 150.967 119.53 150.876 119.602L150.714 119.671L150.706 119.644C150.756 119.441 150.828 119.243 150.919 119.054M150.219 120.115C150.071 120.265 149.912 120.404 149.742 120.529C149.721 120.548 149.695 120.561 149.667 120.567C149.639 120.572 149.61 120.57 149.583 120.56C149.556 120.551 149.532 120.534 149.514 120.512C149.495 120.49 149.483 120.464 149.479 120.435L149.468 120.384L150.224 120.063C150.224 120.089 150.224 120.107 150.224 120.115M150.161 119.157L150.173 119.137L150.536 119.037L150.527 119.054C150.505 119.094 150.483 119.136 150.461 119.177C150.357 119.396 150.286 119.63 150.253 119.87L150.244 119.935L149.451 120.273L149.441 120.217C149.409 120.04 149.371 119.825 149.365 119.811C149.365 119.782 149.355 119.764 149.37 119.749C149.581 119.69 149.774 119.577 149.929 119.421C150.012 119.338 150.089 119.25 150.161 119.157ZM149.702 118.888C149.832 118.866 149.94 118.943 149.941 119.031V119.087L149.2 119.287C149.263 119.201 149.479 118.921 149.7 118.887M149.137 119.442L149.144 119.42L149.876 119.22L149.861 119.241C149.83 119.281 149.796 119.318 149.761 119.353C149.593 119.525 149.372 119.635 149.134 119.666C149.12 119.666 149.074 119.666 149.08 119.633L149.137 119.442ZM148.826 120.476L148.98 119.957L148.994 119.946L149.01 119.952C149.01 119.952 149.053 120.159 149.094 120.363L149.106 120.418L148.806 120.545L148.826 120.476ZM148.077 119.739L148.084 119.713L148.738 119.532L148.731 119.555L148.399 120.655L148.378 120.723L147.983 120.891L148.071 120.791C148.17 120.666 148.244 120.524 148.29 120.371C148.265 120.316 148.231 120.265 148.19 120.22H148.183C148.157 120.328 148.111 120.43 148.046 120.52C147.832 120.827 147.82 120.645 147.846 120.553C147.86 120.497 148.019 119.953 148.083 119.732M147.747 119.103C147.778 119.053 147.812 119.003 147.847 119.025C147.882 119.047 147.873 119.125 147.834 119.272C147.801 119.391 147.758 119.54 147.712 119.695L147.36 119.795C147.56 119.446 147.732 119.129 147.747 119.106M146.634 120.106L147.069 119.986L147.049 120.021C146.902 120.274 146.778 120.487 146.74 120.55C146.652 120.7 146.567 120.786 146.51 120.78C146.421 120.768 146.51 120.513 146.51 120.513L146.626 120.14L146.634 120.106ZM145.715 120.125C145.738 120.063 145.979 119.657 146 119.625C146.089 119.489 146.331 119.073 146.492 119.098C146.551 119.107 146.534 119.256 146.534 119.256L146.28 120.082C146.092 120.123 145.9 120.146 145.707 120.151L145.715 120.125ZM144.322 119.014C144.313 119.209 144.352 119.403 144.434 119.579C144.517 119.755 144.642 119.909 144.797 120.026C144.946 120.131 145.117 120.2 145.297 120.226L145.278 120.292L144.994 121.24L145.004 121.25L145.357 121.232L145.37 121.217C145.393 121.133 145.514 120.696 145.645 120.317L145.664 120.261C145.858 120.258 146.052 120.237 146.242 120.199L146.229 120.24C146.129 120.575 146.036 120.875 146.029 120.901C145.982 121.101 146.11 121.263 146.273 121.229C146.513 121.148 146.711 120.975 146.824 120.748L147.265 119.959L147.282 119.926L147.671 119.819L147.663 119.846C147.535 120.267 147.403 120.685 147.403 120.685C147.366 120.811 147.371 120.946 147.418 121.068L147.472 121.105L146.427 121.549C145.825 121.84 145.172 122.01 144.504 122.049C144.263 122.053 144.025 122.005 143.804 121.908C143.584 121.805 143.4 121.639 143.276 121.429C143.158 121.225 143.099 120.991 143.106 120.755C143.145 120.164 143.344 119.595 143.681 119.108C143.952 118.69 144.257 118.294 144.593 117.924C144.429 118.266 144.335 118.637 144.319 119.015" fill="white"/>
<path d="M44.3889 33.3999C44.4552 33.4045 44.5206 33.3827 44.5708 33.3391C44.6209 33.2955 44.6517 33.2337 44.6564 33.1674C44.661 33.1011 44.6391 33.0357 44.5955 32.9855C44.5519 32.9353 44.4902 32.9045 44.4239 32.8999C44.2129 32.8889 44.1759 33.0649 44.1719 33.1579C44.1716 33.2179 44.1936 33.2758 44.2338 33.3204C44.2739 33.3649 44.3292 33.3929 44.3889 33.3989" fill="white"/>
<path d="M40.137 36.7374C40.3222 36.8394 40.5264 36.9024 40.737 36.9224L41.606 36.8784C41.9172 36.8216 42.2238 36.7414 42.523 36.6384L44.2089 36.0914L44.159 36.2174V36.2264L44.4759 36.2344L44.489 36.2264L44.589 35.9664L44.918 35.8604C44.93 35.9664 44.94 36.0514 44.942 36.0604C44.9452 36.1094 44.9546 36.1578 44.97 36.2044C45.056 36.3864 45.221 36.2814 45.304 36.2224C45.415 36.1414 45.791 35.8434 45.849 35.7904C45.884 35.7704 45.891 35.7954 45.895 35.8234C45.889 35.906 45.9015 35.989 45.9314 36.0663C45.9613 36.1435 46.0079 36.2132 46.068 36.2704C46.244 36.3954 46.501 36.2824 46.71 36.0774C46.8476 35.9537 46.9557 35.8006 47.026 35.6294C47.016 35.5772 46.9914 35.529 46.9549 35.4904H46.944C46.833 35.7714 46.59 36.0724 46.36 36.0774C46.052 36.0864 46.279 35.4614 46.29 35.4154C46.3241 35.4057 46.3575 35.3937 46.39 35.3794L51.6059 33.6894L51.5899 33.6004L47.265 34.3904C47.2439 34.3222 47.2024 34.2621 47.1461 34.2183C47.0897 34.1744 47.0212 34.149 46.95 34.1454C46.8258 34.1664 46.7077 34.2143 46.604 34.2858C46.5004 34.3574 46.4136 34.4507 46.35 34.5594L46.0139 34.6204L46.037 34.5604C46.089 34.3844 46.105 34.2394 46.009 34.1684C45.9591 34.1441 45.9049 34.1302 45.8496 34.1274C45.7942 34.1247 45.7389 34.1332 45.687 34.1524C45.5138 34.2319 45.3558 34.3408 45.22 34.4744L45.194 34.4884L45.708 33.1884C45.7346 33.1219 45.7485 33.051 45.749 32.9794C45.729 32.9144 45.679 32.9204 45.679 32.9204C45.679 32.9204 45.3019 32.9154 45.1669 32.9094C45.0999 32.9094 45.083 33.0304 45.145 33.0474C45.175 33.0554 45.293 33.0384 45.338 33.1004C45.383 33.1624 45.331 33.3184 45.331 33.3184L44.7119 34.8544L44.13 34.9614C44.172 34.8614 44.271 34.6144 44.312 34.4724C44.365 34.2884 44.312 34.1924 44.259 34.1464C44.2282 34.1249 44.1924 34.1118 44.1551 34.1083C44.1178 34.1048 44.0802 34.111 44.046 34.1264C43.9539 34.1873 43.8722 34.2626 43.804 34.3494L43.2569 35.1204L42.832 35.1984L43.064 34.6344C43.1096 34.5395 43.1413 34.4384 43.158 34.3344C43.1619 34.3033 43.1592 34.2718 43.1501 34.2418C43.1409 34.2119 43.1254 34.1842 43.1046 34.1608C43.0839 34.1373 43.0584 34.1185 43.0298 34.1057C43.0013 34.0929 42.9703 34.0863 42.939 34.0864C42.8201 34.1015 42.7083 34.1509 42.617 34.2284C42.4773 34.3414 42.3539 34.4729 42.2499 34.6194L42.223 34.6004C42.2703 34.465 42.2837 34.3201 42.262 34.1784C42.2449 34.1382 42.2145 34.1051 42.1758 34.0847C42.1372 34.0643 42.0928 34.0579 42.05 34.0664C41.855 34.1264 41.694 34.3714 41.64 34.4364C41.5383 34.5758 41.4543 34.7273 41.39 34.8874C41.39 34.8874 41.456 35.0124 41.478 35.0454H41.487C41.526 34.9794 41.624 34.7454 41.696 34.6364C41.768 34.5274 41.805 34.5174 41.85 34.5254C41.895 34.5334 41.866 34.6774 41.866 34.6774L41.6499 35.2194C41.5051 35.1853 41.3706 35.1167 41.258 35.0194C41.1432 34.9156 41.0558 34.7851 41.0035 34.6394C40.9512 34.4938 40.9355 34.3375 40.9579 34.1844C41.0292 33.7402 41.2096 33.3207 41.4829 32.9634L41.408 32.9004C40.977 33.2827 40.579 33.7005 40.218 34.1494C39.8767 34.5616 39.6535 35.0585 39.572 35.5874C39.5439 35.8095 39.5786 36.035 39.672 36.2384C39.7715 36.4475 39.9318 36.6218 40.1319 36.7384M47.269 34.5754C47.2753 34.5485 47.2784 34.521 47.2779 34.4934V34.4844L50.8839 33.8254L46.833 35.1394L46.848 35.1294L46.9479 35.0514C47.1045 34.9304 47.2195 34.7637 47.277 34.5744M46.991 34.3844C47.0022 34.3879 47.0125 34.3938 47.0211 34.4017C47.0298 34.4097 47.0366 34.4195 47.041 34.4304L46.7569 34.4824C46.8229 34.3954 46.889 34.3514 46.991 34.3824M46.607 34.7134L46.6739 34.6054L46.6809 34.5934L47.05 34.5254V34.5354C47.0017 34.7156 46.9011 34.8774 46.7609 35.0004C46.6881 35.071 46.6087 35.1346 46.524 35.1904L46.378 35.2384V35.2144C46.4369 35.0399 46.5143 34.8723 46.609 34.7144M45.914 35.5824C45.7734 35.7016 45.624 35.8099 45.467 35.9064C45.4471 35.9211 45.4236 35.9302 45.3991 35.9328C45.3745 35.9354 45.3497 35.9314 45.3271 35.9212C45.3046 35.911 45.2852 35.895 45.271 35.8748C45.2567 35.8546 45.2481 35.831 45.246 35.8064L45.241 35.7604L45.922 35.5394L45.914 35.5844M45.933 34.7474L45.9449 34.7304L46.269 34.6714L46.259 34.6854L46.193 34.7854C46.0849 34.9678 46.0057 35.1658 45.958 35.3724L45.9449 35.4284L45.23 35.6604V35.6104C45.215 35.4544 45.1989 35.2644 45.1949 35.2524C45.1909 35.2404 45.19 35.2104 45.204 35.1984C45.3922 35.1629 45.5682 35.0795 45.715 34.9564C45.7932 34.8907 45.8674 34.8203 45.937 34.7454M45.5589 34.4754C45.6739 34.4664 45.759 34.5414 45.759 34.6184L45.753 34.6664L45.093 34.7874C45.2107 34.6346 45.3755 34.5249 45.562 34.4754M45.03 34.9144L45.038 34.8964L45.689 34.7774L45.675 34.7944C45.6432 34.8258 45.6098 34.8555 45.575 34.8834C45.4141 35.0217 45.2109 35.101 44.999 35.1084C44.986 35.1084 44.946 35.1084 44.954 35.0744L45.03 34.9144ZM44.853 35.3494L44.866 35.3414L44.88 35.3484C44.88 35.3484 44.901 35.5314 44.921 35.7114L44.9269 35.7604L44.656 35.8484L44.679 35.7894L44.853 35.3494ZM44.085 35.0914L44.0939 35.0684L44.676 34.9624L44.668 34.9804L44.294 35.9154L44.27 35.9734L43.914 36.0884L43.998 36.0104C44.0935 35.9094 44.1692 35.7914 44.221 35.6624C44.2024 35.612 44.1757 35.5651 44.142 35.5234H44.1359C44.1052 35.6145 44.057 35.6988 43.994 35.7714C43.784 36.0224 43.787 35.8624 43.8159 35.7844C43.8319 35.7364 44.016 35.2774 44.085 35.0894M43.842 34.5164C43.873 34.4744 43.905 34.4384 43.9339 34.4564C43.9629 34.4744 43.949 34.5444 43.904 34.6694C43.866 34.7694 43.817 34.8964 43.765 35.0284L43.4519 35.0854C43.6519 34.7964 43.827 34.5344 43.842 34.5164ZM42.796 35.3044L43.1839 35.2334L43.164 35.2614C43.016 35.4704 42.892 35.6464 42.854 35.6974C42.7659 35.8214 42.6849 35.8894 42.6359 35.8794C42.5589 35.8624 42.655 35.6474 42.655 35.6474L42.7849 35.3324L42.796 35.3044ZM41.996 35.2494C42.021 35.1974 42.262 34.8624 42.283 34.8334C42.371 34.7224 42.613 34.3794 42.752 34.4134C42.802 34.4264 42.776 34.5544 42.776 34.5544C42.776 34.5544 42.634 34.9034 42.491 35.2544C42.3251 35.2745 42.1578 35.2799 41.991 35.2704L41.996 35.2494ZM39.669 35.6004C39.7493 35.0883 39.9671 34.6076 40.2989 34.2094C40.5677 33.8665 40.8637 33.5458 41.1839 33.2504C41.0146 33.5347 40.9047 33.8504 40.8609 34.1784C40.8378 34.3468 40.8563 34.5183 40.9147 34.678C40.9731 34.8377 41.0696 34.9806 41.196 35.0944C41.3165 35.1996 41.4605 35.2744 41.616 35.3124L41.5939 35.3684L41.2739 36.1684L41.282 36.1774L41.5909 36.1894L41.603 36.1774C41.63 36.1064 41.7689 35.7354 41.913 35.4114L41.933 35.3644C42.1022 35.3768 42.2723 35.3735 42.4409 35.3544L42.4269 35.3904C42.311 35.6734 42.2099 35.9264 42.2019 35.9494C42.1459 36.1194 42.2439 36.2704 42.3889 36.2494C42.4954 36.2237 42.5958 36.1772 42.6844 36.1127C42.7729 36.0482 42.8479 35.9669 42.905 35.8734C42.923 35.8474 43.133 35.5384 43.35 35.2224L43.367 35.1944L43.713 35.1314L43.699 35.1604C43.556 35.5164 43.408 35.8694 43.408 35.8694C43.3659 35.9759 43.3603 36.0933 43.392 36.2034L43.436 36.2404L42.4929 36.5464C41.9472 36.7526 41.3661 36.8491 40.783 36.8304C40.5725 36.8154 40.3678 36.755 40.183 36.6534C39.9996 36.5469 39.8525 36.3876 39.7609 36.1964C39.6736 36.0093 39.6407 35.8013 39.666 35.5964" fill="white"/>
<path d="M149.929 96.2498L151.082 92.5078L150.203 92.5558L149.051 96.2948L149.929 96.2498Z" fill="#FAC126"/>
<path d="M147.42 96.3786L147.977 94.5786L147.968 96.3376L148.853 96.2966L150.007 92.5576L149.107 92.6076L148.593 94.2466L148.655 92.6286L147.7 92.6956L146.555 96.4286L147.42 96.3786Z" fill="#FAC126"/>
<path d="M154.279 95.6062L154.379 95.2532L153.439 95.3212L153.701 94.4262L154.487 94.3892L154.687 93.7202L153.912 93.7642L154.142 93.0192L154.912 92.9782L155.124 92.2842L152.647 92.4232L151.807 93.5312L152.165 92.4442L151.288 92.5002L150.133 96.2312L151.018 96.1732L151.505 94.5732L151.595 96.1482L152.768 96.0872L148.687 97.4232C148.386 97.5624 148.059 97.6352 147.727 97.6367C147.396 97.6383 147.068 97.5685 146.766 97.4322C145.736 96.7612 146.417 95.2632 146.666 94.8172C146.201 95.3553 145.779 95.928 145.401 96.5302C145.122 96.8928 144.947 97.3239 144.893 97.7781C144.839 98.2322 144.909 98.6925 145.095 99.1102C145.881 100.222 147.578 99.5972 148.651 99.0872L158.591 94.2102L154.279 95.6062ZM152.396 95.8762L152.242 94.0392L153.393 92.5162L153.453 92.4502L152.396 95.8762Z" fill="#FAC126"/>
<path d="M38.8452 58.7942L40.4792 55.5432L39.6662 55.4512L38.0332 58.7002L38.8452 58.7942Z" fill="#FAC126"/>
<path d="M36.5256 58.5242L37.3136 56.9642L37.0336 58.5752L37.8506 58.6752L39.4846 55.4272L38.6526 55.3342L37.9286 56.7562L38.2356 55.2832L37.3496 55.1982L35.7246 58.4402L36.5256 58.5242Z" fill="#FAC126"/>
<path d="M43.0724 58.5673L42.2014 58.4843L42.5794 57.7053L43.3054 57.7923L43.5884 57.2093L42.8714 57.1303L43.1984 56.4833L43.9094 56.5643L44.2094 55.9643L41.9184 55.7103L40.9784 56.5953L41.4784 55.6543L40.6654 55.5703L39.0314 58.8103L39.8514 58.8933L40.5444 57.5063L40.3834 58.9633L41.4674 59.0883L37.5224 59.6883C37.2252 59.7695 36.914 59.7856 36.6099 59.7358C36.3059 59.6859 36.0162 59.5711 35.7604 59.3993C34.9204 58.6263 35.7754 57.3583 36.0734 56.9883C35.5651 57.4097 35.0894 57.869 34.6504 58.3623C34.3388 58.6513 34.1111 59.0193 33.9916 59.4272C33.872 59.8351 33.8651 60.2678 33.9714 60.6793C34.5194 61.8193 36.1714 61.5083 37.2324 61.2063L47.0924 58.2733L42.9324 58.8833L43.0724 58.5673ZM41.1624 58.8323L41.3054 57.1263L42.5954 55.9073L42.6604 55.8573L41.1624 58.8323Z" fill="#FAC126"/>
<path d="M133.034 91.7619V88.7139L132.602 88.9039L127.713 91.0439V91.0659L127.722 91.3389C128.747 91.4219 131.46 91.6389 132.904 91.7519L133.033 91.7619" fill="#252F38"/>
<path d="M133.399 92.8945L129.119 94.8605V100.048L133.532 101.079L133.399 92.8945Z" fill="#252F38"/>
<path d="M62.3694 56.7946H62.3614L56.6614 56.6826H56.6144L56.3144 56.6426L55.3984 65.3676L61.9314 65.0336L62.5854 56.7986L62.3694 56.7946Z" fill="#252F38"/>
<path d="M56.9004 55.8192L63.7414 55.9472V53.0612L57.3214 52.7002L56.9004 55.8192Z" fill="#252F38"/>
<path d="M72.045 122.615L67.309 120.558C67.302 120.558 67.297 120.55 67.29 120.547L67.274 120.54L67.251 120.529C67.209 120.511 67.166 120.496 67.122 120.483C66.9335 120.431 66.7386 120.406 66.543 120.408C66.1225 120.417 65.7067 120.499 65.314 120.649C65.424 120.764 65.546 120.897 65.677 121.049C66.2504 121.712 66.7161 122.46 67.057 123.267C67.3266 123.911 67.4689 124.601 67.476 125.298C67.4765 125.665 67.4325 126.031 67.345 126.387C67.5578 126.345 67.7741 126.322 67.991 126.318C68.037 126.318 68.066 126.318 68.075 126.318C68.1852 126.327 68.2874 126.379 68.3595 126.463C68.4317 126.546 68.4679 126.655 68.4604 126.765C68.4529 126.876 68.4023 126.979 68.3195 127.052C68.2367 127.125 68.1284 127.162 68.018 127.156H67.991C67.4433 127.181 66.9074 127.323 66.42 127.574C65.2449 128.185 64.2593 129.106 63.57 130.237C63.5401 130.285 63.5011 130.325 63.4552 130.357C63.4094 130.389 63.3576 130.412 63.3029 130.423C63.2483 130.435 63.1918 130.436 63.1369 130.425C63.082 130.415 63.0297 130.394 62.9832 130.363C62.9366 130.332 62.8966 130.292 62.8656 130.245C62.8347 130.199 62.8133 130.147 62.8027 130.092C62.7922 130.037 62.7927 129.98 62.8043 129.926C62.8158 129.871 62.8382 129.819 62.87 129.773C63.6431 128.517 64.7447 127.495 66.056 126.818C66.164 126.766 66.269 126.718 66.371 126.679C66.5124 126.319 66.5981 125.939 66.625 125.553L66.554 125.612L65.433 126.548C64.489 127.337 63.189 128.424 61.765 129.617C58.918 132.002 55.575 134.812 53.6 136.504C53.0117 137.002 52.4777 137.561 52.007 138.171C51.6519 138.622 51.3624 139.121 51.147 139.652C51.0557 139.875 51.0039 140.112 50.994 140.352C50.992 140.429 51.0032 140.506 51.027 140.579C51.0405 140.621 51.0642 140.658 51.096 140.688C51.1437 140.727 51.1989 140.756 51.258 140.772C51.3668 140.807 51.4787 140.831 51.592 140.843C51.856 140.879 52.173 140.886 52.469 140.903C52.6617 140.911 52.8532 140.936 53.041 140.979C53.1598 141.008 53.2714 141.061 53.369 141.134C53.4362 141.187 53.492 141.252 53.533 141.326C53.5793 141.414 53.6036 141.511 53.604 141.61C53.6024 141.707 53.582 141.802 53.544 141.89C53.5094 141.972 53.4658 142.049 53.414 142.12C53.2874 142.29 53.144 142.447 52.986 142.588C52.4657 143.092 51.8665 143.507 51.212 143.816C50.726 144.043 50.1973 144.164 49.661 144.17C48.9591 144.167 48.2769 143.938 47.715 143.517L47.699 143.505C47.599 144.505 47.522 145.825 47.459 147.252C47.379 149.087 47.332 151.098 47.332 152.829C47.332 154.364 47.37 155.687 47.451 156.449C47.4819 156.769 47.531 157.086 47.598 157.4C47.6312 157.569 47.686 157.733 47.761 157.888C47.7723 157.91 47.7857 157.931 47.801 157.95L47.838 157.937C47.9035 157.904 47.9661 157.866 48.025 157.822C48.178 157.711 48.372 157.538 48.59 157.345C48.7095 157.24 48.8484 157.159 48.999 157.106C49.1432 157.057 49.2947 157.033 49.447 157.033C49.806 157.047 50.1573 157.142 50.475 157.309C50.8157 157.481 51.138 157.687 51.437 157.924C51.8727 158.264 52.2773 158.641 52.646 159.052C52.78 158.952 52.952 158.819 53.157 158.652C53.8414 158.089 54.4835 157.477 55.078 156.819C56.766 155.003 57.9928 152.809 58.655 150.419C58.607 150.419 58.555 150.419 58.51 150.419C58.0751 150.425 57.6424 150.358 57.23 150.219C56.8909 150.103 56.5789 149.92 56.313 149.679C55.8773 149.264 55.5816 148.723 55.467 148.132C55.4 147.821 55.3665 147.503 55.367 147.184C55.367 146.984 55.379 146.821 55.392 146.699C54.8625 146.128 54.3934 145.503 53.992 144.835C53.9073 144.713 53.8343 144.583 53.774 144.447C53.6321 144.137 53.5571 143.801 53.554 143.46C53.5559 142.986 53.714 142.525 54.004 142.149C54.1236 141.985 54.277 141.849 54.454 141.749C54.6135 141.661 54.7927 141.614 54.975 141.613C54.924 141.425 54.8975 141.23 54.896 141.034C54.8927 140.614 55.0315 140.205 55.29 139.873C55.4366 139.676 55.6179 139.506 55.825 139.373C56.0182 139.251 56.2416 139.186 56.47 139.183C56.493 139.183 56.514 139.183 56.536 139.183C56.4723 138.963 56.4387 138.735 56.436 138.505C56.4261 138.099 56.5688 137.704 56.836 137.397C56.9561 137.263 57.103 137.156 57.2671 137.082C57.4312 137.008 57.609 136.969 57.789 136.967C57.806 136.967 57.822 136.967 57.838 136.967C57.8193 136.865 57.8092 136.761 57.808 136.656C57.8045 136.447 57.8463 136.239 57.9307 136.047C58.0152 135.855 58.1401 135.683 58.297 135.544C58.6074 135.282 59.0027 135.142 59.409 135.149C59.9791 135.162 60.525 135.382 60.944 135.768C61.962 136.668 62.551 137.292 63.104 137.781C63.6139 138.24 64.1838 138.628 64.798 138.933C64.0658 137.168 63.4269 135.366 62.884 133.533C62.7605 133.1 62.7388 132.643 62.8205 132.2C62.9022 131.756 63.0851 131.338 63.355 130.976C63.7409 130.458 64.2872 130.082 64.909 129.906C65.1693 129.833 65.4385 129.795 65.709 129.794C66.3481 129.795 66.9695 130.004 67.479 130.39C67.9886 130.775 68.3586 131.317 68.533 131.931C68.81 132.906 69.166 133.986 69.581 135.096C69.93 134.658 70.403 134.03 70.87 133.325C71.4112 132.532 71.8709 131.686 72.242 130.8C72.4423 130.335 72.5572 129.837 72.581 129.33C72.5952 129.059 72.5188 128.791 72.364 128.568C72.358 128.56 72.354 128.551 72.349 128.543C72.344 128.535 72.336 128.525 72.33 128.516C72.1851 128.229 72.0101 127.958 71.808 127.707C71.6317 127.496 71.3996 127.337 71.138 127.25C70.8976 127.178 70.6471 127.144 70.396 127.15C70.2232 127.151 70.0506 127.162 69.879 127.183C69.8243 127.19 69.7689 127.186 69.7158 127.171C69.6628 127.156 69.6132 127.131 69.5699 127.097C69.5266 127.063 69.4904 127.02 69.4634 126.972C69.4364 126.924 69.4191 126.872 69.4125 126.817C69.406 126.762 69.4102 126.707 69.4251 126.654C69.44 126.601 69.4651 126.551 69.4992 126.508C69.5332 126.464 69.5754 126.428 69.6234 126.401C69.6715 126.374 69.7243 126.357 69.779 126.35C69.9834 126.325 70.1891 126.312 70.395 126.311C70.7368 126.306 71.0772 126.356 71.403 126.459C71.6781 126.551 71.9333 126.694 72.155 126.88C72.4125 127.106 72.632 127.372 72.805 127.667C73.1781 127.283 73.458 126.818 73.623 126.308C73.003 124.761 72.442 123.47 72.055 122.608M61.95 134.185C61.8444 134.185 61.7412 134.154 61.6534 134.095C61.5655 134.037 61.4971 133.953 61.4567 133.856C61.4163 133.758 61.4057 133.651 61.4263 133.547C61.4469 133.444 61.4978 133.348 61.5724 133.274C61.6471 133.199 61.7423 133.148 61.8459 133.128C61.9494 133.107 62.0568 133.118 62.1544 133.158C62.252 133.198 62.3354 133.267 62.394 133.355C62.4527 133.442 62.484 133.546 62.484 133.651C62.4838 133.793 62.4274 133.929 62.3273 134.029C62.2272 134.129 62.0916 134.185 61.95 134.185Z" fill="#50CC1A"/>
<path d="M51.3206 158.924C50.9536 158.587 50.5445 158.3 50.1036 158.068C49.9003 157.957 49.675 157.891 49.4436 157.877C49.3852 157.876 49.3271 157.885 49.2716 157.903C49.2242 157.92 49.1804 157.946 49.1426 157.979C48.9816 158.121 48.8256 158.261 48.6706 158.386C48.522 158.512 48.3585 158.619 48.1836 158.705C48.0568 158.768 47.9179 158.802 47.7766 158.805C47.6819 158.805 47.588 158.788 47.4996 158.754C47.4104 158.719 47.3282 158.668 47.2566 158.604C47.1194 158.474 47.0128 158.315 46.9446 158.138C46.7621 157.625 46.651 157.09 46.6146 156.547C46.5266 155.719 46.4906 154.39 46.4906 152.838C46.4906 151.091 46.5376 149.072 46.6186 147.224C46.6996 145.376 46.8116 143.724 46.9456 142.654V142.624C46.9456 142.596 46.9456 142.595 46.9456 142.589V142.545V142.53V142.524C47.1799 140.986 47.7159 139.509 48.5226 138.179C49.2178 137.005 50.0577 135.924 51.0226 134.959C51.5126 133.888 52.2636 132.207 52.6556 131.328C51.9914 131.366 51.3368 131.506 50.7146 131.741C50.0562 131.981 49.4384 132.32 48.8826 132.747C48.6117 132.954 48.3731 133.199 48.1746 133.476C47.8226 134.592 47.4979 135.781 47.2006 137.042C45.8616 142.203 45.1043 147.497 44.9426 152.826C44.8501 155.017 45.1899 157.205 45.9426 159.265C46.2879 160.233 46.9459 161.058 47.8126 161.61C48.1257 161.791 48.4694 161.912 48.8266 161.968C48.9318 161.984 49.0381 161.992 49.1446 161.992C49.6762 161.977 50.1934 161.816 50.6396 161.526C51.1032 161.24 51.4987 160.855 51.7986 160.4C51.9329 160.195 52.0373 159.971 52.1086 159.736C51.8605 159.45 51.5932 159.18 51.3086 158.93" fill="#50CC1A"/>
<path d="M56.2188 147.5C56.232 147.691 56.2621 147.881 56.3087 148.067C56.3823 148.378 56.5252 148.667 56.7267 148.915C56.8746 149.09 57.0567 149.233 57.2617 149.336C57.6512 149.518 58.0781 149.605 58.5077 149.591C58.6477 149.591 58.7997 149.581 58.9587 149.566L59.3387 149.016C58.6981 148.884 58.0779 148.666 57.4947 148.37C57.0383 148.128 56.6103 147.837 56.2188 147.5Z" fill="#50CC1A"/>
<path d="M46.9738 142.456C46.9702 142.465 46.9672 142.474 46.9648 142.483L46.9728 142.461" fill="#50CC1A"/>
<path d="M55.8148 131.1C57.4548 129.95 59.1867 128.844 60.7687 127.879C63.9317 125.949 66.4917 124.585 66.4967 124.579C66.517 124.569 66.5381 124.56 66.5597 124.553C66.5003 124.231 66.4089 123.915 66.2867 123.61C66.0806 123.108 65.8157 122.631 65.4977 122.19C65.2004 121.772 64.8657 121.381 64.4977 121.022C64.4517 121.047 64.4077 121.069 64.3597 121.096C62.9806 121.963 61.7655 123.066 60.7707 124.355C59.1887 126.272 58.1068 127.708 57.2607 128.767C56.6725 129.607 55.9463 130.341 55.1127 130.938C54.6609 131.212 54.141 131.353 53.6127 131.345H53.5777C53.3897 131.767 52.9988 132.645 52.5938 133.545C53.5698 132.729 54.6687 131.903 55.8167 131.098" fill="#50CC1A"/>
<path d="M47.1545 142.243H47.1465L47.1545 142.238" fill="#50CC1A"/>
<path d="M71.7727 138.286C72.3437 137.216 73.0461 136.221 73.8637 135.324C74.2437 134.383 74.8167 132.924 75.1357 132.116C74.6205 132.177 74.1159 132.307 73.6357 132.503C73.0354 132.74 72.4762 133.071 71.9787 133.482C71.7406 133.678 71.5333 133.908 71.3637 134.165C71.0967 135.165 70.8547 136.23 70.6437 137.365C70.6267 137.454 70.6117 137.54 70.5957 137.629C70.8327 138.165 71.0797 138.694 71.3357 139.209C71.4687 138.897 71.6157 138.59 71.7737 138.29" fill="#0071C2"/>
<path d="M81.3584 126.66C81.0391 127.095 80.7471 127.499 80.4824 127.872C80.6664 128.392 80.8504 128.923 81.0304 129.463C81.4384 129.18 81.8414 128.903 82.2304 128.639C82.7374 128.297 83.2304 127.973 83.6884 127.673L81.3584 126.66Z" fill="#0071C2"/>
<path d="M80.1337 149.6C78.957 150.384 77.5785 150.81 76.1647 150.827C75.3159 150.824 74.4748 150.666 73.6827 150.361C72.8226 150.026 72.0197 149.559 71.3027 148.977C71.3187 149.677 71.3397 150.367 71.3667 151.019C71.4287 152.528 71.5217 153.844 71.6327 154.57C71.6754 154.88 71.7395 155.186 71.8247 155.487C71.8572 155.61 71.907 155.728 71.9727 155.837C72.0225 155.808 72.0697 155.775 72.1137 155.737C72.2437 155.637 72.4137 155.472 72.5997 155.289C72.7139 155.178 72.8502 155.093 72.9997 155.038C73.1419 154.988 73.2918 154.962 73.4427 154.963C73.7637 154.974 74.0788 155.052 74.3677 155.192C74.6731 155.335 74.9641 155.506 75.2367 155.704C75.6169 155.976 75.9735 156.28 76.3027 156.611C76.4117 156.52 76.5477 156.405 76.7027 156.263C77.2856 155.737 77.829 155.169 78.3287 154.563C79.7348 152.905 80.7264 150.937 81.2217 148.82L81.1087 148.825C80.8069 149.112 80.4788 149.37 80.1287 149.595" fill="#0071C2"/>
<path d="M86.7995 129.259C86.9056 129.219 87.0142 129.186 87.1245 129.159L86.3925 128.841C85.7921 129.37 85.2817 129.992 84.8815 130.684C84.8218 130.775 84.7297 130.838 84.6243 130.862C84.5188 130.886 84.4082 130.869 84.3155 130.813C84.2227 130.758 84.155 130.668 84.1263 130.564C84.0976 130.46 84.1102 130.349 84.1615 130.253C84.5432 129.602 85.0099 129.004 85.5495 128.475L85.2755 128.356C84.6655 128.915 83.9755 129.547 83.2465 130.217L82.9705 130.47C82.9425 130.653 82.9165 130.84 82.8975 131.032C82.8375 131.624 82.8185 132.244 82.8185 132.792C82.8185 133.628 82.8635 134.292 82.8745 134.443V134.474C82.8814 134.565 82.8589 134.654 82.8104 134.731C82.7619 134.807 82.69 134.865 82.6055 134.897C82.6688 135.164 82.7288 135.425 82.7855 135.679C83.7045 136.423 84.2465 136.945 84.7485 137.349C85.241 137.753 85.7881 138.084 86.3735 138.334L86.4735 138.259C86.6295 138.137 86.8415 137.969 87.0845 137.774C86.0845 135.674 85.3945 133.905 85.0705 133.032C84.9356 132.671 84.8734 132.286 84.8873 131.901C84.9013 131.515 84.9912 131.136 85.1519 130.785C85.3127 130.435 85.541 130.119 85.8239 129.857C86.1067 129.594 86.4386 129.39 86.8005 129.256" fill="#0071C2"/>
<path d="M75.9937 133C75.9497 132.856 75.9047 132.713 75.8597 132.57C75.7177 132.931 75.5367 133.391 75.3477 133.87C75.5797 133.662 75.819 133.452 76.0657 133.24C76.0407 133.16 76.0187 133.082 75.9937 133.001" fill="#0071C2"/>
<path d="M75.1114 156.662C74.7798 156.385 74.415 156.15 74.0254 155.962C73.8446 155.872 73.6473 155.818 73.4454 155.806C73.3924 155.806 73.3396 155.814 73.2894 155.831C73.2515 155.845 73.2174 155.868 73.1894 155.897C73.0494 156.032 72.9144 156.165 72.7774 156.285C72.6449 156.408 72.497 156.513 72.3374 156.597C72.216 156.66 72.082 156.694 71.9454 156.697C71.8566 156.697 71.7685 156.681 71.6854 156.649C71.6024 156.616 71.5256 156.57 71.4584 156.511C71.3295 156.395 71.2271 156.253 71.1584 156.094C70.9783 155.645 70.8595 155.175 70.8054 154.694C70.6844 153.894 70.5934 152.578 70.5304 151.051C70.4934 150.151 70.4664 149.19 70.4504 148.228C70.0646 147.856 69.6994 147.463 69.3564 147.051L69.3454 147.037C69.2787 148.098 69.2454 149.072 69.2454 149.959C69.1463 152.25 69.4837 154.54 70.2394 156.705C70.5621 157.677 71.2125 158.506 72.0794 159.051C72.3779 159.218 72.7067 159.323 73.0464 159.36C73.1102 159.367 73.1743 159.37 73.2384 159.37C73.7108 159.356 74.1689 159.205 74.5574 158.936C74.967 158.668 75.3112 158.31 75.5644 157.891C75.6744 157.709 75.7582 157.513 75.8134 157.308C75.5944 157.078 75.3606 156.862 75.1134 156.662" fill="#0071C2"/>
<path d="M90.3809 130.578C90.455 130.71 90.5185 130.847 90.5709 130.989C90.8299 131.683 91.1109 132.38 91.4059 133.073C91.7315 132.535 92.0217 131.976 92.2749 131.4L90.3809 130.578Z" fill="#0071C2"/>
<path d="M81.9768 132.517C81.9768 132.141 81.9958 131.741 82.0248 131.338L81.7148 131.623C81.8055 131.925 81.8928 132.223 81.9768 132.517Z" fill="#0071C2"/>
<path d="M74.2532 139.479C74.1783 139.679 74.1364 139.889 74.1292 140.102C74.127 140.176 74.1378 140.25 74.1612 140.32C74.1721 140.353 74.1914 140.383 74.2172 140.406C74.2569 140.434 74.3018 140.454 74.3492 140.465C74.4454 140.491 74.5438 140.507 74.6432 140.513C74.8762 140.534 75.1592 140.527 75.4262 140.531C75.6013 140.53 75.7762 140.546 75.9482 140.579C76.0635 140.603 76.1722 140.652 76.2672 140.721C76.3338 140.772 76.389 140.837 76.4292 140.91C76.4742 140.995 76.4976 141.089 76.4972 141.185C76.4965 141.273 76.4792 141.361 76.4462 141.442C76.4168 141.517 76.3796 141.588 76.3352 141.654C76.2292 141.809 76.1083 141.954 75.9742 142.085C75.5106 142.578 74.9648 142.986 74.3612 143.292C74.241 143.35 74.1178 143.401 73.9922 143.446C74.2377 143.736 74.5051 144.007 74.7922 144.256C75.0796 144.513 75.4086 144.72 75.7652 144.867C75.8894 144.918 76.0219 144.946 76.1562 144.949C76.4491 144.93 76.73 144.826 76.9642 144.649C77.0447 144.592 77.1128 144.519 77.1642 144.434C77.0702 144.306 76.9762 144.175 76.8822 144.034C76.596 143.654 76.4368 143.193 76.4272 142.717C76.4287 142.316 76.5533 141.925 76.7842 141.596C76.892 141.433 77.0357 141.296 77.2042 141.196C77.327 141.126 77.4633 141.081 77.6042 141.066C77.5519 140.888 77.5246 140.702 77.5232 140.516C77.5238 140.378 77.5416 140.24 77.5762 140.105C77.4229 138.761 77.1821 137.429 76.8552 136.116L76.2752 136.658C75.3952 137.431 74.7041 138.395 74.2552 139.477" fill="#0071C2"/>
<path d="M145.457 129.774L144.106 130.167C143.658 131.1 143.146 132.142 142.659 133.124L142.459 133.533L143.954 132.954C143.962 132.939 143.97 132.923 143.977 132.907C144.427 131.968 144.956 130.854 145.461 129.774" fill="#ADADAD"/>
<path d="M146.325 132.036V131.867L146.225 132.072L146.325 132.036Z" fill="#ADADAD"/>
<path d="M137.338 132.137V133.9C137.675 133.254 138.064 132.5 138.407 131.827L137.338 132.137Z" fill="#ADADAD"/>
<path d="M141.933 130.8L140.616 131.183C140.162 132.083 139.637 133.108 139.136 134.072C138.97 134.392 138.807 134.704 138.648 135.006L140.126 134.434C140.227 134.234 140.333 134.023 140.444 133.802C140.897 132.902 141.428 131.831 141.933 130.802" fill="#ADADAD"/>
<path d="M132.76 131.947C132.596 132.214 132.429 132.484 132.26 132.757L130.971 134.857L132.795 135.103C133.301 134.277 133.966 133.193 134.624 132.123L132.76 131.947Z" fill="#ADADAD"/>
<path d="M136.035 133.035C135.542 133.835 135.045 134.646 134.615 135.348L136.499 135.602V132.302H136.455V132.358L136.035 133.041" fill="#ADADAD"/>
<path d="M129.033 131.601L128.488 132.486C128.088 133.13 127.694 133.778 127.33 134.372L129.154 134.618C129.654 133.803 130.281 132.78 130.898 131.777L129.033 131.601Z" fill="#ADADAD"/>
<path d="M121.579 130.891C121.371 131.228 121.158 131.574 120.943 131.925L120.043 133.385L121.866 133.631L123.441 131.067L121.579 130.891Z" fill="#ADADAD"/>
<path d="M117.85 130.538L117.168 131.646C116.91 132.065 116.652 132.486 116.402 132.894L118.225 133.139L119.715 130.714L117.85 130.538Z" fill="#ADADAD"/>
<path d="M115.988 130.362L115.772 130.342L115.305 130.176V131.476L115.988 130.365" fill="#ADADAD"/>
<path d="M125.305 131.242C125.112 131.556 124.914 131.876 124.715 132.201C124.365 132.769 124.016 133.34 123.688 133.875L125.51 134.121C126 133.321 126.591 132.359 127.17 131.421L125.305 131.242Z" fill="#ADADAD"/>
<path d="M115.305 131.473V131.907L115.291 132.744L116.402 132.894C116.652 132.487 116.91 132.066 117.168 131.647C117.4 131.271 117.629 130.898 117.85 130.538L115.988 130.362L115.305 131.473Z" fill="#505257"/>
<path d="M118.227 133.139L120.045 133.384L120.945 131.924L121.581 130.89L119.719 130.715C119.211 131.54 118.689 132.391 118.23 133.139" fill="#505257"/>
<path d="M121.869 133.63L123.688 133.875C124.016 133.34 124.366 132.769 124.716 132.202L125.306 131.242L123.444 131.066L121.869 133.63Z" fill="#505257"/>
<path d="M125.512 134.121L127.331 134.366L128.489 132.479C128.674 132.18 128.856 131.886 129.034 131.595L127.171 131.419C126.593 132.36 126.001 133.319 125.512 134.119" fill="#505257"/>
<path d="M129.154 134.612L130.973 134.857L132.262 132.757C132.43 132.483 132.597 132.214 132.762 131.947L130.899 131.771C130.282 132.771 129.655 133.797 129.155 134.612" fill="#505257"/>
<path d="M132.799 135.1L134.618 135.345C135.048 134.645 135.544 133.835 136.038 133.032C136.178 132.802 136.318 132.574 136.458 132.349V132.3L134.628 132.127C133.971 133.197 133.305 134.281 132.799 135.107" fill="#505257"/>
<path d="M138.399 131.841C138.047 132.527 137.683 133.229 137.34 133.885V135.524L138.651 135.006C138.809 134.706 138.961 134.406 139.128 134.087C139.628 133.122 140.154 132.102 140.608 131.198L138.399 131.841Z" fill="#505257"/>
<path d="M141.934 130.8C141.434 131.831 140.898 132.9 140.445 133.8C140.334 134.022 140.228 134.233 140.127 134.432L142.455 133.532C142.523 133.397 142.59 133.262 142.655 133.123C143.143 132.142 143.655 131.1 144.102 130.167L141.934 130.8Z" fill="#505257"/>
<path d="M145.456 129.774C144.956 130.854 144.422 131.968 143.972 132.907C143.965 132.923 143.957 132.939 143.949 132.954L146.229 132.072C146.261 132.006 146.292 131.938 146.329 131.872V131.867L146.354 129.513L145.456 129.774Z" fill="#505257"/>
</g>
<defs>
<clipPath id="clip0_20_1997">
<rect width="188" height="188" fill="white"/>
</clipPath>
</defs>
</svg>
