<svg width="188" height="188" viewBox="0 0 188 188" fill="none" xmlns="http://www.w3.org/2000/svg">
<g clip-path="url(#clip0_20_2002)">
<path d="M98.03 40L34 148.244H161.925L98.03 40ZM98.03 52.067L145.073 133.167H50.8921L98.03 52.067ZM62.637 144.301H61.1821L57.3481 139.857V144.301H55.6169V137.367H57.2051L60.905 141.605V137.367H62.6331L62.637 144.301ZM85.365 144.301H83.6392V137.367H85.365V144.301ZM113.05 144.301L110.302 141.045V144.301H108.572V137.367H110.302V140.509H110.324L112.51 137.367H114.41L112.15 140.621L115.214 144.301H113.05ZM141.027 144.301H135.912V137.367H140.954V138.638H137.642V140.093H140.805V141.362H137.642V143.032H141.028L141.027 144.301Z" fill="#7058FF"/>
<path d="M62.6372 144.301H61.1824L57.3484 139.857V144.301H55.6172V137.367H57.2053L60.9053 141.605V137.367H62.6333L62.6372 144.301Z" fill="#57D7FF"/>
<path d="M85.3666 137.367H83.6406V144.301H85.3666V137.367Z" fill="#57D7FF"/>
<path d="M113.051 144.301L110.303 141.045V144.301H108.574V137.367H110.303V140.509H110.325L112.511 137.367H114.411L112.151 140.621L115.216 144.301H113.051Z" fill="#57D7FF"/>
<path d="M141.027 144.301H135.912V137.367H140.953V138.643H137.641V140.098H140.803V141.367H137.641V143.037H141.026L141.027 144.301Z" fill="#57D7FF"/>
<path d="M81.3348 121.324C79.9575 121.305 78.6431 120.745 77.6759 119.764C76.7086 118.783 76.1661 117.461 76.1661 116.084C76.1661 114.706 76.7086 113.384 77.6759 112.403C78.6431 111.423 79.9575 110.862 81.3348 110.843C82.2541 110.855 83.156 111.096 83.9591 111.543C84.7621 111.991 85.4412 112.631 85.9349 113.407H94.8119C94.1687 110.031 92.2898 107.016 89.5423 104.951C86.7948 102.886 83.3759 101.919 79.9539 102.24C76.532 102.561 73.3526 104.146 71.037 106.686C68.7213 109.226 67.4359 112.538 67.4317 115.975C67.4184 119.649 68.8647 123.178 71.4525 125.786C74.0403 128.394 77.5579 129.867 81.2318 129.882C84.5039 129.858 87.6646 128.69 90.1656 126.579C92.6666 124.469 94.3503 121.55 94.9249 118.329H86.0457C85.6323 119.228 84.9685 119.989 84.1336 120.52C83.2988 121.051 82.3282 121.33 81.3387 121.324" fill="#57D7FF"/>
<path d="M110.151 99.7069V76.0689H101.81V77.1389C100.052 76.3809 98.1606 75.9811 96.2466 75.9629C94.007 75.9773 91.8049 76.5387 89.8318 77.5983C87.8586 78.658 86.1742 80.1837 84.9253 82.0428C83.6763 83.9019 82.9008 86.038 82.6657 88.2652C82.4307 90.4925 82.7435 92.7435 83.5769 94.8223C84.4103 96.9011 85.739 98.7448 87.4475 100.193C89.156 101.641 91.1923 102.65 93.3796 103.131C95.5669 103.613 97.8389 103.552 99.9975 102.956C102.156 102.359 104.136 101.244 105.766 99.7069H110.151ZM96.3506 94.7879C94.9732 94.7689 93.6586 94.2084 92.6914 93.2277C91.7241 92.2469 91.1819 90.9249 91.1819 89.5474C91.1819 88.1699 91.7241 86.8478 92.6914 85.8671C93.6586 84.8864 94.9732 84.3259 96.3506 84.3069C97.0579 84.2507 97.7691 84.3467 98.4362 84.5886C99.1033 84.8304 99.7108 85.2124 100.218 85.7089C100.725 86.2054 101.119 86.8047 101.375 87.4666C101.631 88.1285 101.742 88.8375 101.7 89.5459C101.696 90.2422 101.554 90.9308 101.282 91.5719C101.011 92.213 100.615 92.7939 100.117 93.2812C99.62 93.7686 99.031 94.1526 98.3845 94.4112C97.738 94.6698 97.0468 94.7978 96.3506 94.7879Z" fill="#57D7FF"/>
<path d="M114.661 113.517V118.437H116.48C116.065 119.296 115.41 120.017 114.593 120.51C113.776 121.004 112.833 121.249 111.88 121.217C110.49 121.215 109.159 120.662 108.177 119.679C107.194 118.697 106.642 117.365 106.64 115.976C106.66 114.592 107.218 113.271 108.197 112.292C109.175 111.313 110.496 110.754 111.88 110.734C112.999 110.759 114.083 111.133 114.98 111.804L121.08 105.704C118.509 103.437 115.201 102.182 111.773 102.175C109.043 102.175 106.375 102.984 104.106 104.501C101.836 106.017 100.068 108.172 99.0232 110.694C97.9787 113.215 97.7053 115.99 98.2378 118.667C98.7703 121.344 100.085 123.803 102.015 125.733C103.945 127.663 106.403 128.977 109.08 129.51C111.757 130.042 114.532 129.769 117.054 128.724C119.575 127.68 121.73 125.911 123.247 123.642C124.763 121.372 125.573 118.704 125.573 115.975V113.516L114.661 113.517Z" fill="#57D7FF"/>
<path d="M96.3547 84.3066C95.3227 84.3279 94.3199 84.6534 93.4722 85.2423C92.6244 85.8312 91.9692 86.6573 91.5891 87.617C91.2089 88.5767 91.1206 89.6273 91.3352 90.637C91.5497 91.6467 92.0576 92.5706 92.7951 93.2928C93.5327 94.015 94.467 94.5034 95.4809 94.6968C96.4949 94.8901 97.5433 94.7797 98.4949 94.3795C99.4464 93.9793 100.259 93.3071 100.83 92.4472C101.401 91.5873 101.705 90.5779 101.705 89.5456C101.746 88.8372 101.635 88.1282 101.379 87.4663C101.124 86.8044 100.729 86.2051 100.222 85.7086C99.7149 85.2121 99.1073 84.8301 98.4402 84.5883C97.7731 84.3464 97.0621 84.2504 96.3547 84.3066Z" fill="#FF675D"/>
<path d="M98.0295 52.0674L50.8926 133.167H145.072L98.0295 52.0674ZM81.2295 129.882C77.576 129.851 74.0828 128.378 71.5103 125.784C68.9377 123.189 67.4944 119.684 67.4944 116.03C67.4944 112.376 68.9377 108.871 71.5103 106.276C74.0828 103.682 77.576 102.208 81.2295 102.177C84.4532 102.152 87.5826 103.265 90.0669 105.32C92.5511 107.374 94.2311 110.239 94.8115 113.41H85.9346C85.4409 112.635 84.7621 111.994 83.959 111.547C83.1559 111.099 82.254 110.858 81.3347 110.846C80.6404 110.837 79.9511 110.965 79.3069 111.224C78.6627 111.483 78.0764 111.868 77.582 112.355C77.0877 112.843 76.6949 113.424 76.427 114.065C76.1591 114.705 76.0212 115.393 76.0212 116.087C76.0212 116.781 76.1591 117.469 76.427 118.109C76.6949 118.75 77.0877 119.331 77.582 119.818C78.0764 120.306 78.6627 120.69 79.3069 120.949C79.9511 121.209 80.6404 121.337 81.3347 121.327C82.3242 121.334 83.2943 121.054 84.1292 120.523C84.964 119.992 85.6279 119.231 86.0415 118.332H94.9207C94.3461 121.554 92.6621 124.473 90.1609 126.583C87.6597 128.693 84.4989 129.862 81.2266 129.885M82.4465 89.6544C82.4535 87.8493 82.8161 86.0633 83.5134 84.3984C84.2108 82.7335 85.2292 81.2223 86.5107 79.951C87.7923 78.6798 89.3117 77.6736 90.9822 76.9897C92.6527 76.3058 94.4415 75.9578 96.2466 75.9654C98.1606 75.9838 100.052 76.3835 101.81 77.1414V76.0714H110.151V99.7104H105.76C103.793 101.555 101.33 102.785 98.6738 103.25C96.0173 103.714 93.2832 103.392 90.8069 102.325C88.3305 101.257 86.2198 99.4889 84.7341 97.2383C83.2484 94.9877 82.4524 92.3521 82.4436 89.6554M111.769 129.782C108.109 129.782 104.598 128.328 102.01 125.74C99.4225 123.152 97.9685 119.642 97.9685 115.982C97.9685 112.322 99.4225 108.812 102.01 106.224C104.598 103.636 108.109 102.182 111.769 102.182C115.196 102.19 118.505 103.444 121.076 105.711L114.976 111.811C114.079 111.141 112.995 110.767 111.875 110.741C110.492 110.762 109.17 111.321 108.192 112.3C107.213 113.279 106.655 114.6 106.635 115.984C106.636 117.374 107.189 118.706 108.172 119.688C109.154 120.671 110.486 121.224 111.875 121.225C112.829 121.258 113.772 121.012 114.589 120.519C115.405 120.025 116.061 119.305 116.476 118.445H114.661V113.525H125.572V115.984C125.576 117.798 125.222 119.594 124.53 121.27C123.838 122.947 122.821 124.47 121.539 125.752C120.257 127.034 118.734 128.051 117.058 128.743C115.381 129.435 113.585 129.789 111.771 129.784" fill="#FF675D"/>
</g>
<defs>
<clipPath id="clip0_20_2002">
<rect width="188" height="188" fill="white"/>
</clipPath>
</defs>
</svg>
