<svg width="188" height="188" viewBox="0 0 188 188" fill="none" xmlns="http://www.w3.org/2000/svg">
<g clip-path="url(#clip0_20_2013)">
<path d="M144.097 102.187C144.096 112.458 141.05 122.499 135.343 131.039C129.636 139.58 121.525 146.236 112.035 150.166C102.546 154.097 92.1036 155.125 82.0295 153.121C71.9554 151.117 62.7018 146.17 55.4389 138.907C48.176 131.644 43.23 122.39 41.2263 112.316C39.2226 102.242 40.2512 91.7998 44.182 82.3102C48.1128 72.8207 54.7693 64.7098 63.3098 59.0033C71.8502 53.2968 81.8911 50.251 92.1625 50.251C98.9828 50.2508 105.736 51.5941 112.037 54.2041C118.339 56.8141 124.064 60.6398 128.886 65.4625C133.709 70.2853 137.534 76.0107 140.144 82.3119C142.754 88.6131 144.097 95.3667 144.097 102.187ZM92.1625 52.887C82.4119 52.887 72.8803 55.7784 64.7729 61.1955C56.6656 66.6127 50.3467 74.3123 46.6153 83.3207C42.8839 92.3291 41.9076 102.242 43.8098 111.805C45.7121 121.368 50.4074 130.153 57.3022 137.047C64.1969 143.942 72.9813 148.637 82.5446 150.54C92.1078 152.442 102.02 151.466 111.029 147.734C120.037 144.003 127.737 137.684 133.154 129.577C138.571 121.469 141.463 111.938 141.463 102.187C141.463 89.1118 136.268 76.5722 127.023 67.3266C117.777 58.0811 105.238 52.887 92.1625 52.887Z" fill="#F5D81E"/>
<path d="M123.176 102.188C123.177 108.322 121.358 114.318 117.95 119.419C114.542 124.519 109.699 128.494 104.032 130.842C98.3646 133.189 92.1287 133.804 86.1125 132.607C80.0963 131.41 74.5701 128.457 70.2326 124.119C65.8951 119.782 62.9412 114.256 61.7444 108.24C60.5477 102.224 61.1618 95.9876 63.5092 90.3205C65.8565 84.6534 69.8316 79.8096 74.9319 76.4017C80.0321 72.9938 86.0284 71.1748 92.1625 71.1748C100.388 71.1751 108.276 74.4426 114.092 80.2585C119.908 86.0745 123.176 93.9626 123.176 102.188ZM92.1625 72.5208C86.2949 72.521 80.5592 74.2611 75.6806 77.5211C70.802 80.7811 66.9997 85.4145 64.7544 90.8354C62.5092 96.2564 61.9218 102.221 63.0666 107.976C64.2114 113.731 67.037 119.017 71.1861 123.166C75.3351 127.315 80.6213 130.14 86.3761 131.285C92.1309 132.429 98.0959 131.842 103.517 129.596C108.938 127.351 113.571 123.549 116.831 118.67C120.091 113.791 121.83 108.055 121.83 102.188C121.831 98.2918 121.063 94.4338 119.572 90.8344C118.081 87.2349 115.896 83.9643 113.141 81.2094C110.386 78.4545 107.116 76.2693 103.516 74.7785C99.9164 73.2877 96.0585 72.5205 92.1625 72.5208Z" fill="#F5D81E"/>
<path d="M144.209 106.707C144.209 106.707 155.581 106.707 157.398 106.647C156.753 106.238 156.226 105.826 154.698 103.422C154.346 101.186 153.176 99.1598 151.415 97.7377C151.415 97.7377 151.005 97.9717 150.36 97.0377C152.997 96.4517 153.7 93.6377 154.58 91.3517C155.192 89.8033 156.279 88.489 157.686 87.5977L142.27 87.9507C142.27 87.9507 145.349 100.231 144.205 106.708" fill="#FBF8F1"/>
<path d="M62.3453 53.8444C63.8019 52.892 64.9077 51.4899 65.4943 49.8514C66.5503 47.0384 69.0213 44.6404 70.2943 44.2244C68.6846 43.3968 67.3931 42.061 66.6203 40.4244C66.0893 39.4244 65.0023 36.0764 62.5203 34.7454C62.5112 34.5748 62.4881 34.4052 62.4513 34.2384L122.493 34.0264C122.679 34.1032 122.838 34.2345 122.948 34.4029C123.058 34.5713 123.115 34.7691 123.111 34.9704C123.156 35.7314 122.8 40.9324 122.843 42.4484C122.886 43.9644 123.901 51.5054 123.679 54.0094C123.457 56.5134 121.525 57.6424 120.646 58.3464L40.1523 104.197L40.3793 108.523C40.3793 108.523 34.9873 108.645 33.3943 108.565C32.6503 108.289 32.5143 108.317 32.3793 107.293C32.2873 106.593 33.5213 104.127 32.3793 98.3254C31.2373 92.5234 29.7673 89.8834 30.6433 87.9514C31.5193 86.0194 34.5773 84.1674 35.9863 83.4644C37.3953 82.7614 95.0353 50.2034 95.0353 50.2034C87.4005 49.9613 79.7959 51.2686 72.6803 54.0464L62.3453 53.8444Z" fill="white"/>
<path d="M92.1641 72.5205C86.2965 72.5207 80.5608 74.2608 75.6822 77.5208C70.8036 80.7808 67.0013 85.4142 64.756 90.8351C62.5108 96.2561 61.9234 102.221 63.0682 107.976C64.213 113.731 67.0386 119.017 71.1877 123.166C75.3367 127.314 80.6229 130.14 86.3777 131.285C92.1325 132.429 98.0975 131.842 103.518 129.596C108.939 127.351 113.573 123.548 116.832 118.67C120.092 113.791 121.832 108.055 121.832 102.188C121.832 98.2915 121.065 94.4335 119.574 90.8341C118.083 87.2346 115.898 83.964 113.143 81.2091C110.388 78.4543 107.117 76.269 103.518 74.7782C99.9181 73.2874 96.0601 72.5202 92.1641 72.5205Z" fill="#FBF8F1"/>
<path d="M67.5856 107.766L74.6066 87.0928L79.7746 86.9338L79.5366 96.1668L82.6536 86.8978H87.2316L86.8316 88.7148H87.6596L88.5276 86.8978H92.9936L92.7426 88.5178L93.5426 88.4818L94.3276 86.7978H98.8456L98.3546 88.4868L100.213 88.4758L101.724 86.6758H116.478L115.422 90.1138L110.46 90.1758L109.26 94.2308H113.486L112.316 98.4538L107.816 98.4788L106.232 103.467L111.31 103.557L110.979 105.404L131.986 99.6678L132.074 100.061L74.0076 125.491C74.0076 125.491 68.1606 127.598 66.8856 127.598C65.6106 127.598 61.3026 127.686 58.7116 123.948C56.1206 120.21 57.4796 114.456 58.0946 113.091C58.7096 111.726 62.8416 104.298 66.3586 101.008C66.3958 101.068 66.4155 101.137 66.4155 101.208C66.4155 101.278 66.3958 101.348 66.3586 101.408C66.3586 101.408 64.0286 107.208 64.8586 109.801C65.6886 112.394 66.7936 114.419 70.8366 114.99C72.8166 115.077 77.6946 114.77 80.8596 113.321C84.5976 112.396 96.1046 109.301 96.1046 109.301L96.0936 107.632L95.1086 107.543L94.8676 104.961L94.5856 104.97L91.6336 107.578L76.6456 107.884L75.1456 107.863L75.0366 106.128L72.9476 105.972L72.5996 107.998L67.5856 107.766ZM100.209 97.2728L101.167 102.695L103.876 95.0288L103.85 93.7978L100.209 97.2728Z" fill="#BA4342"/>
</g>
<defs>
<clipPath id="clip0_20_2013">
<rect width="188" height="188" fill="white"/>
</clipPath>
</defs>
</svg>
