<svg width="188" height="188" viewBox="0 0 188 188" fill="none" xmlns="http://www.w3.org/2000/svg">
<g clip-path="url(#clip0_20_2006)">
<path d="M86.8229 52.634C85.6569 57 76.7859 90.036 76.7859 90.036C76.6859 90.322 76.5409 90.336 76.4749 90.336C76.4749 90.336 71.3139 90.362 69.9859 90.362C69.8039 90.367 69.6209 90.362 69.6339 89.728C69.6509 86.85 69.6209 72.75 69.6189 72.715C69.5969 71.848 69.4769 71.899 69.0189 71.895C68.2539 71.903 68.3189 72.078 68.1519 72.728L63.4619 90.092C63.3739 90.411 63.2429 90.392 63.1699 90.399C63.1699 90.399 58.0849 90.415 56.8169 90.424C56.6729 90.415 56.5259 90.386 56.6639 89.896C57.9589 85.07 66.6429 52.6 66.6429 52.6C66.6739 52.426 66.7629 52.3 66.9309 52.3C66.9309 52.3 72.4619 52.275 74.0489 52.271C74.3169 52.262 74.4939 52.339 74.4749 52.845C74.4129 55.515 74.1409 68.238 74.1429 68.301C74.1429 68.909 74.1139 69.075 74.7429 69.075C75.4429 69.067 75.3539 69.029 75.6019 68.297L79.9189 52.549C79.9619 52.323 80.0899 52.249 80.3239 52.239C84.9009 52.221 84.7889 52.226 86.4339 52.213C86.6989 52.213 86.8929 52.285 86.8229 52.634ZM45.0009 132.376C44.6199 132.376 44.6509 132.512 44.6509 132.512L44.6579 134.685C44.6629 135.222 44.6299 135.847 43.7239 135.855C42.8179 135.863 42.7749 135.228 42.7709 134.693L42.7619 132.516C42.7619 132.516 42.7779 132.389 42.4169 132.385C42.0769 132.385 42.0649 132.521 42.0649 132.521L42.0769 134.921C42.0607 135.137 42.0933 135.355 42.1723 135.557C42.2514 135.759 42.3748 135.941 42.5334 136.089C42.6921 136.237 42.882 136.347 43.0891 136.412C43.2961 136.477 43.5151 136.494 43.7299 136.463C43.9448 136.49 44.1631 136.47 44.3689 136.402C44.5748 136.334 44.763 136.222 44.9198 136.073C45.0767 135.923 45.1983 135.741 45.2758 135.538C45.3533 135.336 45.3848 135.119 45.3679 134.903L45.3529 132.509C45.3529 132.509 45.3359 132.377 45.0009 132.377M46.1589 136.362H46.1739C46.2749 136.359 46.3708 136.316 46.4404 136.243C46.5101 136.17 46.548 136.072 46.5459 135.971C46.546 135.922 46.5365 135.874 46.5179 135.83C46.4994 135.785 46.4721 135.744 46.4377 135.71C46.4033 135.676 46.3624 135.648 46.3175 135.63C46.2725 135.612 46.2244 135.603 46.1759 135.603H46.1549C46.1047 135.601 46.0547 135.609 46.0079 135.627C45.961 135.645 45.9183 135.673 45.8823 135.708C45.8464 135.743 45.8178 135.784 45.7985 135.831C45.7792 135.877 45.7694 135.927 45.7699 135.977C45.7691 136.028 45.7786 136.079 45.7978 136.127C45.8171 136.174 45.8458 136.217 45.8821 136.254C45.9184 136.29 45.9616 136.318 46.0091 136.337C46.0567 136.357 46.1076 136.366 46.1589 136.365M51.7589 136.342L51.7719 136.348C51.873 136.342 51.9678 136.296 52.0365 136.222C52.1052 136.147 52.1426 136.049 52.1409 135.948C52.1415 135.899 52.1321 135.851 52.1134 135.806C52.0946 135.761 52.0668 135.721 52.0318 135.687C51.9967 135.653 51.9551 135.627 51.9096 135.61C51.864 135.593 51.8155 135.586 51.7669 135.588H51.7589C51.709 135.585 51.6591 135.592 51.6121 135.609C51.5652 135.626 51.522 135.652 51.4854 135.686C51.4487 135.72 51.4192 135.761 51.3987 135.806C51.3782 135.852 51.367 135.901 51.3659 135.951C51.3682 136.054 51.4104 136.153 51.4837 136.226C51.5569 136.299 51.6555 136.34 51.7589 136.342ZM53.1239 135.977C52.9969 136.304 53.1569 136.339 53.3489 136.339C53.6489 136.339 53.7039 136.361 53.8489 135.977L53.9659 135.632C54.1359 135.304 54.1959 135.267 54.4849 135.267H55.3049C55.6309 135.259 55.6789 135.304 55.8279 135.629L55.9479 135.964C56.0839 136.364 56.1139 136.325 56.4539 136.325C56.7339 136.325 56.8099 136.293 56.6979 135.964L55.4079 132.664C55.2409 132.297 55.0989 132.307 54.8899 132.307C54.6809 132.307 54.5489 132.322 54.3899 132.664L53.1339 135.975M54.4069 134.365C54.2979 134.765 54.4639 134.729 54.6709 134.726H55.1239C55.3449 134.726 55.4849 134.711 55.3809 134.366L55.0259 133.352C54.9619 133.152 54.8309 133.157 54.7509 133.358L54.4069 134.358M57.5069 135.921C57.5125 135.819 57.5571 135.723 57.6315 135.652C57.7059 135.582 57.8045 135.543 57.9069 135.543C58.0088 135.543 58.1069 135.581 58.1812 135.651C58.2556 135.721 58.3005 135.816 58.3069 135.918C58.3036 136.023 58.2604 136.123 58.1861 136.197C58.1118 136.272 58.0119 136.315 57.9069 136.318C57.8031 136.315 57.7043 136.272 57.6302 136.2C57.5561 136.127 57.5121 136.029 57.5069 135.925M50.1069 134.153C49.8989 134.086 48.9969 133.868 48.9509 133.842C48.6509 133.761 48.4659 133.611 48.4679 133.331C48.4679 132.915 48.8679 132.796 49.1969 132.791C49.3868 132.766 49.5793 132.813 49.7371 132.921C49.895 133.03 50.0071 133.193 50.0519 133.379C50.0519 133.507 50.2169 133.5 50.3919 133.5C50.8219 133.5 50.7619 133.379 50.7619 133.379C50.7025 133.022 50.5062 132.702 50.2146 132.488C49.9231 132.273 49.5593 132.181 49.2009 132.231C48.4869 132.231 47.7469 132.605 47.7519 133.417C47.7484 133.666 47.8378 133.907 48.0025 134.093C48.1673 134.28 48.3956 134.398 48.6429 134.425C49.1969 134.583 49.5679 134.659 49.8429 134.757C49.9461 134.791 50.0349 134.859 50.0949 134.95C50.1549 135.04 50.1827 135.149 50.1739 135.257C50.1669 135.557 49.9549 135.875 49.3329 135.878C48.8179 135.878 48.3969 135.678 48.3229 135.159C48.3229 135.159 48.3589 135.014 47.9679 135.019C47.5979 135.019 47.6139 135.159 47.6139 135.159C47.6379 135.355 47.7009 135.544 47.799 135.715C47.8972 135.886 48.0285 136.036 48.1854 136.156C48.3423 136.276 48.5215 136.363 48.7126 136.412C48.9036 136.462 49.1026 136.473 49.2979 136.444C50.0979 136.438 50.8979 136.083 50.8979 135.175C50.8952 134.942 50.8164 134.717 50.6736 134.533C50.5308 134.349 50.3318 134.216 50.1069 134.156M98.3189 52.167L92.1619 52.192C92.0909 52.192 91.9109 52.323 91.8469 52.498C91.8469 52.498 83.3639 84.106 81.8979 89.573C81.7979 89.952 81.9089 90.318 82.1309 90.309C83.6489 90.309 88.4259 90.288 88.4259 90.288C88.498 90.266 88.5635 90.2266 88.6167 90.1732C88.6699 90.1198 88.7091 90.0542 88.7309 89.982C88.7309 89.982 97.5919 56.967 98.7679 52.587C98.8259 52.379 98.6249 52.162 98.3189 52.167ZM122.662 52.826C123.045 52.162 122.773 52.065 122.455 52.069C120.69 52.069 117.055 52.09 117.055 52.09C116.93 52.0944 116.807 52.1297 116.699 52.1926C116.59 52.2556 116.499 52.3443 116.433 52.451L109.473 62.662C109.21 63.129 108.873 63.07 108.428 63.07C108.07 63.078 107.934 63.01 107.946 62.715C107.978 62.4524 108.03 62.1927 108.102 61.938C108.102 61.938 109.923 55.59 110.641 53.051C110.792 52.409 110.928 52.115 110.198 52.115C108.577 52.124 109.15 52.115 104.798 52.141C103.979 52.141 103.916 52.498 103.873 52.677C103.873 52.677 95.5439 83.765 94.0349 89.45C93.9279 89.866 94.0279 90.271 94.2889 90.266C95.8249 90.258 100.489 90.24 100.489 90.24C100.563 90.2188 100.63 90.1793 100.685 90.1251C100.74 90.0709 100.78 90.0038 100.802 89.93L104.853 74.576C104.994 74.044 105.117 74.031 105.676 74.027C106.235 74.023 106.345 74.21 106.376 74.797L107.287 89.577C107.287 89.569 107.303 90.228 107.774 90.207C108.928 90.202 112.32 90.194 113.413 90.19C113.569 90.181 113.957 90.212 113.876 89.641C113.57 86.155 112.057 69.46 112.049 69.447C111.973 69.1381 111.976 68.8153 112.055 68.5075C112.135 68.1997 112.29 67.9164 112.506 67.683L122.662 52.826ZM138.86 52L126.087 52.047C125.628 52.065 125.474 52.213 125.367 52.672C125.159 53.456 118.1 80.46 115.927 88.812C115.668 89.777 115.656 90.186 116.827 90.186L130.947 90.164L131.247 89.879C131.247 89.879 132.361 85.19 132.6 84.249C132.687 83.849 132.689 83.522 132.135 83.522C130.174 83.532 124.67 83.556 124.67 83.556C123.97 83.54 123.941 83.275 123.98 83.135L126.54 73.678C126.73 72.999 126.84 72.901 127.526 72.901L133.514 72.845C133.661 72.8512 133.805 72.8031 133.919 72.7098C134.033 72.6165 134.109 72.4845 134.132 72.339L135.345 67.699C135.361 67.631 135.361 67.5602 135.344 67.4924C135.327 67.4246 135.295 67.3616 135.25 67.3087C135.204 67.2558 135.147 67.2143 135.082 67.1878C135.017 67.1613 134.947 67.1504 134.878 67.156C133.433 67.156 128.917 67.211 128.917 67.211C128.525 67.211 128.454 66.711 128.505 66.559L130.55 58.829C130.718 58.141 130.857 58.029 131.541 58.029H137.434C137.816 58.029 137.995 57.88 138.026 57.729C138.026 57.729 139.05 53.911 139.441 52.486C139.51 52.138 139.453 52.002 138.855 52.005M137.911 71.272L138.041 71.4H138.482L138.625 71.281L138.595 68.081L138.736 67.966H139.846L139.986 67.843V67.502L139.845 67.37L136.597 67.405L136.456 67.515L136.461 67.852L136.597 67.979H137.762L137.873 68.093L137.907 71.278M145.001 68.159H144.921L143.556 71.237L143.356 71.368H143.221L143.034 71.249L141.634 68.184H141.554L141.56 71.254L141.435 71.386H140.998L140.869 71.263L140.835 67.479L140.98 67.367L141.767 67.36L141.954 67.466L143.246 70.314H143.346L144.595 67.444L144.795 67.325L145.567 67.32L145.706 67.453L145.72 71.211L145.584 71.335L145.139 71.343L145.023 71.224L145.001 68.159ZM83.7549 122.7C80.8899 122.724 80.4499 124.752 80.3919 125L80.1919 125.771C80.1 126.124 80.0807 126.493 80.1352 126.853C80.1897 127.214 80.3168 127.561 80.5089 127.871L82.5179 131.321C82.6557 131.568 82.6967 131.857 82.6329 132.132L82.4159 133.004C82.3685 133.358 82.1925 133.681 81.9215 133.913C81.6505 134.145 81.3036 134.27 80.9469 134.262C80.0979 134.268 79.9849 133.598 80.1359 132.969L80.4949 131.637C80.5389 131.442 80.1109 131.413 79.6949 131.41C79.2789 131.407 78.8539 131.423 78.8109 131.634L78.4239 132.934C78.2179 133.943 78.0239 135.534 80.6999 135.507C83.5599 135.481 83.9999 133.458 84.0659 133.221L84.2599 132.433C84.3539 132.079 84.3744 131.71 84.32 131.348C84.2656 130.986 84.1376 130.639 83.9439 130.328L81.9439 126.868C81.8015 126.627 81.7571 126.341 81.8199 126.068L82.0419 125.196C82.1052 124.842 82.2944 124.522 82.5746 124.296C82.8548 124.07 83.2071 123.953 83.5669 123.966C84.4149 123.958 84.4749 124.597 84.3209 125.23L83.9549 126.552C83.9159 126.752 84.3459 126.786 84.7549 126.786C85.1869 126.803 85.6049 126.777 85.6399 126.573L86.0309 125.26C86.2359 124.248 86.4309 122.666 83.7559 122.688M91.3689 122.712C91.3689 122.712 89.2249 122.694 88.8089 122.743C88.3929 122.792 88.0379 122.724 87.8259 123.466L84.7009 135.165C84.6009 135.528 86.2919 135.417 86.4229 135.089L87.6149 130.87C87.6859 130.67 87.8909 130.688 88.0009 130.688C90.1009 130.672 92.0009 131.342 93.0359 126.198C93.1919 125.415 93.7919 122.698 91.3659 122.723M90.7869 124.023C91.7559 124.023 91.7029 124.891 91.3769 126.231C90.7869 128.687 90.6249 129.296 88.9459 129.305C87.9019 129.305 88.0709 129.055 88.0779 128.957L89.2009 124.369C89.3089 124.037 89.4739 124.03 89.6459 124.037L90.7859 124.02M100.374 128.936C101.79 123.493 101.526 122.386 98.5799 122.423C95.4799 122.449 95.1179 122.771 93.5039 129.008C92.0949 134.448 92.3549 135.548 95.3039 135.523C98.4369 135.499 98.7639 135.173 100.376 128.936M95.6239 134.328C93.8319 134.357 94.1789 133.205 95.2239 128.974C96.5549 123.889 96.7919 123.662 98.3329 123.643C100.092 123.625 99.7009 124.76 98.6569 128.974C97.3199 134.051 97.1569 134.307 95.6209 134.328M102.021 134.902L103.121 130.955L103.194 130.688C103.271 130.488 103.471 130.519 103.585 130.509L104.176 130.454L104.376 130.522L105.029 134.994C105.129 135.388 106.802 135.294 106.794 134.988L106.015 130.271L106.062 130.2C106.694 129.978 107.599 130.066 108.627 126.014C108.827 125.236 109.385 122.52 106.959 122.54H106.951C106.951 122.54 105.157 122.52 104.386 122.562C104.163 122.547 103.943 122.612 103.764 122.745C103.585 122.878 103.459 123.071 103.409 123.288C103.409 123.288 100.632 133.688 100.309 134.876C100.225 135.213 101.918 135.298 102.009 134.902M106.376 123.885C107.348 123.88 107.293 124.739 106.97 126.085C106.378 128.539 106.21 129.152 104.531 129.156C103.491 129.156 103.657 128.914 103.667 128.811L104.792 124.227C104.892 123.896 105.065 123.888 105.237 123.892H106.376M136.922 134.592C137.075 134.311 142.757 122.55 142.757 122.55C142.944 122.075 144.765 122.128 144.748 122.528L143.512 134.642C143.512 134.884 141.846 134.942 141.837 134.635L142.137 132.324C142.154 132.249 142.209 132.062 141.878 132.065L140.284 132.078C140.159 132.069 140.035 132.098 139.928 132.162C139.82 132.226 139.735 132.321 139.684 132.435C139.684 132.435 138.744 134.421 138.62 134.66C138.476 134.95 136.751 134.979 136.92 134.592M142.363 130.284C142.363 130.284 142.945 127.094 143.09 125.601L142.936 125.559C142.227 127.044 140.654 130.402 140.654 130.402C140.564 130.581 140.738 130.61 140.811 130.615L141.972 130.603C142.065 130.606 142.155 130.575 142.227 130.516C142.299 130.458 142.347 130.375 142.363 130.284ZM146.624 134.562L147.766 130.547L147.835 130.284C147.908 130.084 148.112 130.11 148.224 130.097L148.819 130.042L149.024 130.113L149.679 134.592C149.748 134.892 151.492 134.778 151.435 134.543L150.661 129.863L150.706 129.786C151.331 129.57 152.239 129.657 153.268 125.601C153.468 124.834 154.033 122.107 151.598 122.133H151.59C151.59 122.133 149.669 122.094 149.03 122.162C148.806 122.144 148.583 122.208 148.402 122.342C148.222 122.475 148.096 122.67 148.049 122.89C148.049 122.89 145.242 133.346 144.923 134.532C144.838 134.873 146.53 134.958 146.623 134.567M151.023 123.476C151.997 123.476 151.938 124.334 151.617 125.676C151.032 128.132 150.86 128.738 149.184 128.748C148.14 128.748 148.311 128.499 148.314 128.395L149.447 123.819C149.547 123.487 149.714 123.481 149.88 123.484L151.023 123.474M133.936 129.654C133.966 129.556 134.026 129.47 134.109 129.409C134.191 129.347 134.29 129.314 134.393 129.313L137.059 129.287C137.259 129.287 137.327 129.007 137.425 128.671C137.536 128.279 137.625 127.819 137.301 127.829L134.644 127.85L134.499 127.782L134.465 127.641L135.429 124.103C135.437 124.05 135.455 123.999 135.483 123.952C135.51 123.906 135.547 123.866 135.59 123.834C135.634 123.802 135.683 123.779 135.735 123.767C135.787 123.754 135.842 123.752 135.895 123.76L138.585 123.734C138.798 123.734 138.94 123.434 139.011 123.07C139.097 122.696 139.105 122.27 138.832 122.27C138.832 122.27 135.347 122.293 134.985 122.306C134.573 122.331 134.274 122.293 134.162 122.641L131.015 134.12C130.84 134.846 130.862 134.946 131.721 134.965L135.746 134.926C136.117 134.926 136.168 134.638 136.241 134.275C136.314 133.912 136.383 133.461 136.032 133.469L133.132 133.495L132.984 133.448L132.959 133.29L133.959 129.647M132.259 122.32C131.834 122.299 131.413 122.289 131.213 122.66C131.213 122.66 129.262 127.737 128.33 129.982H128.173C128.411 128.052 129.023 122.716 129.019 122.682C128.958 122.259 127.554 122.162 127.279 122.715C127.279 122.715 125.008 128.085 124.163 129.978L124.035 129.923C124.38 127.678 125.077 122.737 125.077 122.737C125.039 122.461 124.64 122.414 124.219 122.375C123.776 122.341 123.355 122.485 123.319 122.695L121.941 134.8C121.932 135.038 123.224 135.08 123.355 134.863C123.355 134.863 126.306 128.694 127.162 126.886L127.381 126.915C127.232 128.974 126.141 133.863 126.105 134.771C126.138 135.041 127.57 135.051 127.698 134.771L132.97 122.671C133.026 122.479 132.733 122.34 132.256 122.328M119.356 122.379C116.496 122.408 116.056 124.424 115.994 124.67L115.794 125.453C115.701 125.806 115.68 126.174 115.734 126.535C115.788 126.896 115.914 127.242 116.106 127.553L118.113 131C118.251 131.245 118.291 131.533 118.226 131.807L118.01 132.675C117.964 133.03 117.788 133.355 117.517 133.588C117.245 133.82 116.896 133.944 116.539 133.934C115.694 133.942 115.578 133.279 115.725 132.64L116.093 131.315C116.132 131.124 115.711 131.085 115.293 131.085C114.875 131.085 114.45 131.098 114.404 131.306L114.022 132.612C113.814 133.622 113.622 135.212 116.297 135.18C119.162 135.159 119.597 133.134 119.657 132.892L119.857 132.109C119.951 131.755 119.971 131.385 119.917 131.022C119.863 130.659 119.735 130.312 119.542 130L117.542 126.542C117.403 126.3 117.363 126.013 117.43 125.742L117.645 124.87C117.709 124.516 117.898 124.198 118.178 123.972C118.459 123.747 118.811 123.631 119.17 123.645C120.017 123.632 120.07 124.27 119.919 124.909L119.566 126.23C119.518 126.43 119.949 126.461 120.366 126.464C120.783 126.467 121.203 126.456 121.254 126.248L121.637 124.934C121.845 123.927 122.037 122.34 119.36 122.366M113.753 123.953L115.017 123.943C115.208 123.953 115.36 123.653 115.479 123.327C115.618 122.927 115.668 122.471 115.279 122.484L110.227 122.532C109.988 122.532 109.798 122.948 109.757 123.34C109.721 123.664 109.795 123.99 109.999 123.985L111.437 123.969C111.626 123.969 111.664 124.007 111.61 124.177L108.681 134.859C108.545 135.251 110.272 135.32 110.352 134.978L113.28 124.3C113.38 123.968 113.465 123.957 113.746 123.957M72.1459 106.578C63.8809 109.046 57.2459 111.31 53.3259 108.66C44.7689 102.86 48.7259 88.998 51.3259 83.533L51.2969 83.198L51.0009 83.22C47.2709 87.578 42.8919 92.188 39.8209 97.182C33.6449 107.258 32.3009 116.716 36.1849 122.449C41.8659 130.904 53.7539 131.083 71.4849 122.949L151.909 83.309L152.063 83.019C152.059 82.9893 152.049 82.9607 152.034 82.9352C152.018 82.9096 151.997 82.8877 151.973 82.8708C151.948 82.854 151.92 82.8426 151.891 82.8375C151.861 82.8323 151.831 82.8335 151.802 82.841L72.1419 106.579M52.4949 101.449L52.3759 101.335H51.2129L51.0789 101.208V100.873L51.2219 100.752L54.4659 100.726L54.6059 100.855V101.2L54.4699 101.329L53.3519 101.335L53.2139 101.445L53.2459 104.639L53.1029 104.768H52.6629L52.5269 104.636L52.4989 101.45M59.6409 104.6L59.7509 104.72H60.2009L60.3359 104.588L60.3139 100.829L60.1809 100.7L59.4109 100.707L59.2109 100.821L57.9679 103.691L57.8609 103.686L56.5609 100.834L56.3819 100.734L55.5909 100.739L55.4469 100.853L55.4799 104.642L55.6069 104.763H56.0499L56.1739 104.637L56.1609 101.563H56.2489L57.6489 104.616L57.8379 104.743H57.9719L58.1669 104.619L59.5349 101.536H59.6129L59.6429 104.609" fill="#CD4239"/>
</g>
<defs>
<clipPath id="clip0_20_2006">
<rect width="188" height="188" fill="white"/>
</clipPath>
</defs>
</svg>
