<svg width="64" height="56" viewBox="0 0 64 56" fill="none" xmlns="http://www.w3.org/2000/svg">
<path d="M6.13551 20.4565L7.62179 20.1933C7.22439 22.2626 7.14823 24.3803 7.39647 26.4727C7.52696 27.5475 7.94541 28.5675 8.60783 29.4239C9.41362 30.6107 10.142 31.8511 10.9217 33.1014C12.2337 32.8567 13.496 32.396 14.657 31.7377C15.0279 31.4276 15.3458 31.0586 15.5983 30.6463C15.9447 30.1813 16.289 29.9186 16.9254 30.1846C17.087 30.2453 17.26 30.2683 17.4319 30.2528C17.6037 30.2373 17.7702 30.1837 17.9183 30.095C18.547 29.5454 19.3515 28.9731 19.5893 28.2442C19.691 27.8197 19.9416 27.4454 20.2956 27.19C20.6495 26.9345 21.083 26.8145 21.5179 26.8517C21.6866 27.1205 21.8709 27.4128 22.1298 27.815C23.5565 26.9859 24.999 26.1764 26.4109 25.3226C28.1043 24.301 29.7863 23.2615 31.4438 22.1833C32.3836 21.5723 33.2459 20.8468 34.1745 20.2181C35.2435 19.4949 36.3947 18.8927 37.4199 18.1145C39.3342 16.6567 41.567 15.6812 43.3761 14.0428C44.4955 13.1931 45.6675 12.4148 46.8855 11.7138C48.545 10.5602 50.1639 9.3494 51.815 8.18588C53.3327 7.11691 54.8793 6.08092 56.4013 5.0183C57.7885 4.05375 59.3148 3.29949 60.4233 1.93065C60.8982 1.34712 61.7427 1.07947 62.219 0.382341C62.5083 -0.0360743 63.0107 0.100402 63.451 0.281739C63.6451 0.354418 63.8037 0.498269 63.8955 0.684147C63.9872 0.870025 64.0047 1.08394 63.9444 1.28225C63.7482 2.12331 63.7434 3.08101 62.824 3.59609C62.6097 3.71306 62.4425 3.90048 62.3506 4.12666C61.6521 6.37538 59.9948 7.95136 58.403 9.51989C57.8354 10.0583 57.3319 10.6604 56.9022 11.3142C56.5822 11.7179 56.2171 12.0838 55.8142 12.405C55.7613 12.4572 55.6292 12.4713 55.6172 12.5228C55.512 12.9504 55.4479 13.3396 54.9357 13.5626C54.5582 13.7241 54.2857 14.1325 53.8546 14.5403C53.7473 14.3957 53.6076 14.2056 53.5018 14.0539C51.8867 15.8545 50.4262 17.6358 48.7942 19.2438C47.8967 20.2663 46.9178 21.2143 45.8677 22.0793C45.0447 22.7735 44.3117 23.5675 43.6855 24.4434C42.5481 25.8031 41.4572 27.2012 40.336 28.5736C39.3148 29.8249 38.2847 31.0671 37.2456 32.3C37.0548 32.5011 36.8422 32.6797 36.611 32.8326C36.4508 32.954 36.2294 33.0111 36.1066 33.1593C35.3241 34.1238 34.5549 35.1043 33.79 36.0822C33.2396 36.7822 32.6963 37.4832 32.1466 38.1838C31.5532 38.9402 30.9528 39.6952 30.3523 40.4488C30.2106 40.639 30.0541 40.8177 29.8844 40.9835C27.7677 42.9528 25.6725 44.9288 23.7236 47.083C22.2151 48.7517 20.6681 50.4961 18.5316 51.515C17.1246 52.1867 15.8279 53.0855 14.4386 53.7847C12.6349 54.6421 10.7258 55.2579 8.7608 55.6148C8.28407 55.6934 7.79571 55.6594 7.33446 55.5156C6.8732 55.3718 6.45208 55.1215 6.1045 54.7859C5.05853 53.9273 4.08825 52.9804 3.20496 51.9553C1.91322 50.4763 1.15532 48.6071 1.05235 46.6461C1.05601 46.3629 1.03753 46.0796 0.99723 45.7993C0.631773 43.76 0.748764 41.6638 1.33831 39.6777C1.47943 39.0921 1.49924 38.4777 1.60084 37.8758C1.66646 37.4885 1.7736 37.1062 1.87026 36.723C1.9006 36.6066 2.01129 36.4863 1.99153 36.3868C1.59076 34.4422 2.65875 32.6094 2.41461 30.6676C2.42842 30.1851 2.5489 29.7117 2.76741 29.2813C3.17947 28.1523 3.59135 27.0235 4.06903 25.9256C4.38031 25.0118 4.76007 24.1227 5.20597 23.2665C5.6252 22.3707 5.93696 21.4286 6.13413 20.4593M43.0729 21.2145C43.262 21.199 43.5395 21.2549 43.6249 21.1504C44.0275 20.6583 44.4009 20.1434 44.7432 19.6076C44.8025 19.5187 44.7058 19.3257 44.6826 19.1846C44.9021 19.2125 45.1253 19.1751 45.3241 19.0778C45.5228 18.9804 45.6884 18.8273 45.8009 18.6368C47.0173 17.1776 48.2774 15.7519 49.5404 14.3329C49.9002 13.93 50.4434 13.6523 50.6918 13.2036C51.0075 12.5958 51.4494 12.0626 51.9879 11.6394C52.5298 11.2302 53.0462 10.7794 53.6106 10.4012C54.4277 9.83412 55.2754 9.31311 56.1505 8.84048C56.5249 8.70583 56.8438 8.4495 57.0559 8.11284C57.268 7.77618 57.3614 7.37798 57.3212 6.9821C56.7722 7.32643 56.3067 7.61734 55.8432 7.91439C54.8998 8.52331 53.9574 9.13699 53.0112 9.74521C52.772 9.89832 52.5073 10.0107 52.2808 10.1772C51.4722 10.7664 50.6675 11.3616 49.8815 11.9839C49.6776 12.1441 49.4261 12.4073 49.4226 12.6296C49.4 13.7296 48.6791 14.4467 48.0617 15.2087C46.9694 16.5564 45.8392 17.8799 44.7329 19.2156C43.9864 19.6974 43.4194 20.4118 43.1198 21.2483C42.918 21.4599 42.7139 21.6713 42.51 21.8781C42.5805 21.9317 42.657 21.9823 42.7325 22.0324C42.8447 21.7622 42.9606 21.4889 43.0771 21.2173M8.54444 44.315C8.99863 43.8603 9.40327 43.3585 9.75166 42.8184C10.6569 41.0784 11.4956 39.2999 12.3232 37.5161C12.7339 36.6313 13.0652 35.7084 13.4526 34.7523C13.1456 34.7391 12.8414 34.8153 12.5768 34.9715C12.3122 35.1276 12.0982 35.3571 11.9615 35.6323C11.6891 36.081 11.5257 36.5683 11.3041 37.0255C10.9344 37.7904 10.3333 38.346 10.1844 39.3359C9.89129 40.5358 9.39557 41.677 8.71877 42.7102C8.4542 43.1794 8.36046 43.7253 8.45348 44.2558C7.56938 45.1498 7.45596 45.4558 7.82851 46.3519C8.10299 45.5757 8.32213 44.9466 8.5465 44.3144M21.1355 46.8053C21.7706 46.2521 22.4447 45.7355 23.0346 45.1357C24.7463 43.3915 26.4293 41.6183 28.1149 39.8438C28.9671 39.1466 29.5831 38.2032 29.8789 37.1427C29.5089 37.3429 29.151 37.5658 28.8081 37.8097C27.397 39.0205 25.9856 40.2293 24.6097 41.4789C24.2055 41.8626 23.8651 42.3083 23.601 42.7991C23.1569 43.8 22.4836 44.682 21.6358 45.3748C21.4174 45.5227 21.2465 45.7307 21.1438 45.9736C21.0411 46.2165 21.0116 46.4843 21.0577 46.744C20.604 46.7002 20.7379 46.3703 20.7676 46.1142C20.8141 45.7056 20.8908 45.3037 20.9529 44.8994L20.6539 44.7912C20.3729 45.2368 20.1167 45.6969 19.8863 46.1707C19.5963 46.836 20.6193 46.9514 20.3907 47.6253L20.6725 47.6514L21.1355 46.8053ZM16.9605 33.0318C16.3488 32.8406 16.0687 33.1725 15.8422 33.5775C15.5508 34.1025 15.2693 34.6311 14.9885 35.1582C14.8951 35.3295 14.8155 35.5078 14.7501 35.6915C14.5257 36.3717 14.3574 37.0742 14.0872 37.7339C13.6497 38.8113 12.9438 39.8191 12.7201 40.9304C12.373 42.3152 11.9047 43.6673 11.3213 44.9703C11.0906 45.5595 10.6971 46.1539 11.1353 46.9279C11.2764 46.827 11.2818 46.6522 11.353 46.5083C11.9615 45.345 12.5039 44.148 12.9764 42.9232C13.6058 41.2396 14.4371 39.6331 15.149 37.9785C15.3543 37.5051 15.3983 36.9646 15.5804 36.4777C16.0171 35.3276 16.492 34.1925 16.9605 33.0311M4.89107 44.6472C4.98068 44.6973 5.0729 44.7494 5.16463 44.7981C5.4537 44.338 5.77159 43.8967 6.1169 43.4772C6.79286 42.7419 6.98251 41.7837 7.38752 40.9208C8.22011 39.1356 9.03672 37.3381 9.81781 35.5268C10.1628 34.726 10.1145 34.7088 9.24521 34.0957C7.47864 37.4741 6.02201 41.0057 4.89314 44.6472M16.3101 40.0126C16.4096 40.057 16.5083 40.1052 16.605 40.1538C18.3925 36.9429 20.1786 33.7311 21.9638 30.5188C20.8313 30.6733 19.9252 31.0028 19.5555 32.1091C19.3072 32.8549 18.8689 33.5038 18.6494 34.2969C18.2043 35.4867 17.6816 36.6463 17.086 37.7683C16.772 38.4958 16.5669 39.2653 16.3101 40.0174M20.1405 38.5532L20.4182 38.6455C21.4858 36.7813 22.5306 34.9059 23.6306 33.0566C24.7405 31.1945 25.9005 29.3645 27.0407 27.5187C26.9301 27.4892 26.8144 27.4826 26.701 27.4987C26.5877 27.5148 26.4793 27.5532 26.3813 27.6124C25.7868 28.0566 25.2962 28.6253 24.9439 29.2785C24.1847 30.3976 23.6293 31.6265 22.8905 32.7548C22.0763 34.003 21.4561 35.3739 20.7159 36.6686C20.3298 37.2202 20.1284 37.88 20.1412 38.5532M13.6269 48.8359C13.4025 49.2078 13.2077 49.4991 13.044 49.8089C12.7829 50.3091 12.5781 50.8347 12.2867 51.3131C11.6439 52.3609 11.358 52.4425 10.1169 51.9691C9.87837 52.4361 9.63158 52.9152 9.31618 53.5284C9.64657 53.5276 9.97637 53.492 10.2995 53.423C11.4891 52.9763 12.6861 52.5367 13.8426 52.0118C14.3452 51.7543 14.8023 51.4163 15.1959 51.0113C15.3864 50.832 15.4173 50.4881 15.5535 50.1444C14.1423 50.3258 14.1363 50.317 13.6276 48.8339M6.7274 29.8015H6.49795C6.0118 30.7308 5.52386 31.6594 5.04335 32.5922C5.00878 32.6578 5.04338 32.7537 5.01304 32.8306C4.75832 33.5362 4.48659 34.2416 4.25163 34.9542C4.20506 35.0954 4.29997 35.2883 4.3543 35.5896C4.7071 35.2636 5.08088 35.0742 5.21424 34.7765C5.65689 33.7928 6.04428 32.7851 6.3753 31.7584C6.53882 31.1163 6.65671 30.4637 6.72809 29.8049M6.94928 52.4541C7.34794 51.2638 7.9949 50.2418 7.98079 48.9972C6.91464 49.7423 6.47647 50.8794 5.86402 51.9773C6.25139 52.1488 6.56969 52.2863 6.94859 52.4514M31.1013 25.0532C31.0689 25.0081 31.0359 24.9633 31.0042 24.9175C30.4242 25.2512 29.8214 25.552 29.2781 25.9373C29.0845 26.1224 28.9701 26.3753 28.959 26.6429C28.9132 27.1678 28.948 27.7011 28.948 28.4124C29.7129 27.2234 30.4063 26.1412 31.1013 25.0567M4.45215 41.1833C3.87356 40.9413 3.51842 40.7985 3.05061 40.6045C3.01745 41.6805 2.99216 42.6269 2.95759 43.7445C3.94542 43.0558 3.6139 41.8995 4.45215 41.1833ZM19.1903 41.9798C18.4424 42.6497 17.9366 43.548 17.7516 44.5349C18.8043 43.8822 18.9681 42.9197 19.1903 41.9798ZM4.15241 49.9157C4.37114 49.2207 4.51549 48.7603 4.694 48.1951C3.5834 48.6996 3.56536 48.7599 4.15241 49.9157ZM14.347 46.8356C14.4606 46.2711 15.0454 45.9044 14.9664 45.2129C14.203 45.6362 14.0958 45.8823 14.347 46.8356ZM44.921 17.4833C45.0268 17.5609 45.1327 17.6414 45.2407 17.7169C45.4252 17.6082 45.5639 17.4363 45.6314 17.2332C45.6989 17.03 45.6908 16.809 45.608 16.6116C45.3793 16.9033 45.1501 17.194 44.921 17.4833ZM8.66227 46.3415L8.9999 46.4332C9.05706 46.0486 9.11706 45.6649 9.17492 45.2825L8.93995 45.2411L8.66227 46.3415ZM32.2417 28.4199C32.1493 28.3494 32.0544 28.2859 31.9592 28.2153C31.7499 28.5624 31.5397 28.9089 31.328 29.2551L31.5203 29.3915C31.7592 29.0679 31.9995 28.744 32.2403 28.4199M7.24695 47.1181L6.94308 47.0802C6.90639 47.3039 6.86947 47.5297 6.83489 47.7534L7.18769 47.7879C7.20533 47.5621 7.22585 47.3397 7.24419 47.1181M35.5705 23.3802C35.2255 23.8403 35.2256 23.8405 35.3879 24.3683C35.4994 24.2187 35.6424 24.1067 35.6615 23.9776C35.6574 23.7751 35.6268 23.5734 35.5705 23.3788" fill="black"/>
</svg>
