<svg width="491" height="398" viewBox="0 0 491 398" fill="none" xmlns="http://www.w3.org/2000/svg">
<path d="M298.89 292.214C298.943 292.055 298.98 291.895 299.001 291.739C299.034 291.578 299.049 291.42 299.047 291.268C299.169 289.793 298.84 288.499 298.119 287.621C297.399 286.742 296.336 286.338 295.122 286.48C294.668 286.516 294.207 286.568 293.747 286.621C293.52 286.645 293.291 286.672 293.065 286.695L253.097 290.878C257.004 283.855 258.329 275.772 256.468 270.203C255.691 267.869 254.343 266.034 252.548 264.868C250.754 263.701 248.57 263.242 246.2 263.531C246.082 263.513 245.957 263.516 245.828 263.539C245.712 263.557 245.593 263.596 245.475 263.654C245.31 263.685 245.138 263.725 244.964 263.769C245.282 263.02 245.572 262.265 245.834 261.506C245.944 261.194 246.054 260.886 246.167 260.58L250.71 248.331C251.852 245.253 251.833 241.743 249.216 240.839C248.382 240.595 247.5 240.463 246.585 240.443C246.25 240.423 245.915 240.401 245.593 240.369C244.107 240.219 242.619 240.087 241.13 239.952L240.979 239.938C242.739 237.662 244.5 235.387 246.262 233.114C246.925 233.29 247.598 233.434 248.279 233.546C256.597 234.918 266.065 231.61 274.037 224.442C278.699 220.206 282.738 214.857 285.748 208.936C288.758 203.014 290.631 196.729 291.179 190.716C291.739 184.559 291.087 178.828 289.276 173.975C291.085 172.971 292.837 171.618 294.447 169.98C297.79 178.419 304.63 182.524 312.778 180.96C317.368 180.064 322.108 177.357 326.275 173.256C330.442 169.155 333.806 163.885 335.851 158.252C336.956 155.203 336.755 152.791 335.283 151.458C335.236 151.415 335.186 151.374 335.139 151.333C335.879 150.584 336.505 149.67 336.956 148.679C337.326 147.846 337.657 147.002 337.945 146.153C338.056 145.843 338.168 145.531 338.28 145.227L342.823 132.98C343.965 129.902 343.945 126.391 341.327 125.487C340.492 125.244 339.611 125.111 338.695 125.092C338.361 125.069 338.026 125.049 337.704 125.017C336.247 124.871 334.785 124.738 333.324 124.608L333.09 124.587C334.825 122.341 336.562 120.097 338.3 117.856C338.665 117.385 339.056 116.909 339.471 116.405C341.039 114.497 342.817 112.332 343.449 110.003C344.23 107.116 343.361 104.754 341.234 103.983C340.463 103.704 339.692 103.428 338.918 103.154L332.257 100.773C331.907 100.647 331.552 100.503 331.194 100.358C329.032 99.4826 326.584 98.4887 323.79 101.121C322.162 102.741 320.622 104.508 319.192 106.397C318.666 107.06 318.168 107.687 317.662 108.301C315.62 110.784 313.782 113.133 312.053 115.475C311.04 109.959 308.479 105.889 304.823 103.998C302.233 102.667 299.117 102.412 295.819 103.264C295.699 103.243 295.571 103.244 295.439 103.267C295.245 103.291 295.043 103.377 294.851 103.516L294.826 103.532C293.072 104.073 291.306 104.846 289.563 105.837L293.15 94.632C293.728 92.8232 294.18 91.2012 293.85 89.6465C293.14 86.29 290.215 86.7269 287.635 87.1115C287.38 87.1491 287.127 87.187 286.876 87.2212L276.923 88.5771C276.462 88.6389 275.99 88.6834 275.489 88.7313C273.338 88.934 270.903 89.1626 268.85 91.0484C266.585 90.2668 264.318 89.4891 262.049 88.7153L256.877 86.9489C255.795 86.4863 254.503 86.4978 253.165 86.9819C257.406 82.7186 260.666 77.1336 262.307 71.3216C263.248 68.1771 263.695 65.0456 263.623 62.1122C263.551 59.1789 262.96 56.5033 261.885 54.2436C260.672 51.7254 258.754 49.9372 256.343 49.0769C253.933 48.2166 251.124 48.3178 248.227 49.3693C242.837 51.3702 237.394 56.8442 234.025 63.6573C232.282 67.1913 231.1 70.8988 230.562 74.5201L230.545 74.5797C230.528 74.6338 230.514 74.6881 230.504 74.742C230.48 74.8782 230.471 75.0114 230.477 75.138C229.983 78.9021 230.251 82.4397 231.26 85.4471C230.425 86.8393 229.681 88.2854 229.042 89.7644C228.774 90.3458 228.523 90.8906 228.264 91.425C227.843 92.2943 227.441 93.1836 227.053 94.0469L218.443 113.056C217.387 112.631 216.255 112.369 215.065 112.274C214.594 112.213 214.15 112.158 213.734 112.08C212.736 111.895 211.736 111.714 210.736 111.534C209.474 111.309 208.198 111.058 206.96 110.818C204.485 110.335 201.922 109.836 199.356 109.489C198.642 109.366 197.854 109.466 197.053 109.782C196.252 110.098 195.46 110.622 194.738 111.312C193.815 112.29 193.012 113.433 192.38 114.667L192.111 115.142C190.499 117.935 188.783 120.953 187.146 124.092C182.447 133.095 175.91 146.597 173.402 159.863C172.091 166.802 172.289 172.742 173.974 177.048C175.557 181.09 178.412 183.848 182.464 185.247C178.05 193.391 175.932 202.297 176.545 210.128C177.206 218.13 180.34 224.609 185.42 228.474C188.314 230.688 191.773 231.975 195.592 232.257C195.773 233.437 196.311 234.368 197.122 234.905C196.125 237.037 195.353 239.233 194.832 241.426C194.755 241.612 194.699 241.802 194.665 241.99C194.643 242.111 194.633 242.231 194.634 242.346C194.025 245.339 193.924 248.242 194.336 250.868L169.493 293.588C169.136 294.206 168.769 294.822 168.403 295.438C167.854 296.363 167.287 297.317 166.748 298.269C163.126 297.599 161.132 295.803 160.657 292.781C159.87 287.775 163.189 281.875 165.238 278.803C165.916 277.787 166.641 276.812 167.407 275.884C167.621 275.628 167.84 275.378 168.062 275.126C168.604 274.546 169.105 273.906 169.553 273.221C170.143 272.257 170.562 271.203 170.771 270.158C170.98 269.112 170.971 268.11 170.746 267.247C170.521 266.383 170.086 265.686 169.484 265.221C168.881 264.757 168.13 264.54 167.302 264.591C165.681 264.682 164.136 265.916 162.646 267.103C162.431 267.274 162.216 267.445 162.003 267.611C154.973 273.102 146.865 279.851 140.008 288.308C135.41 293.98 127.69 305.216 127.642 316.749C127.616 321.346 128.834 325.332 131.129 328.157C133.364 330.854 136.623 332.571 140.823 333.263C140.956 333.285 141.09 333.307 141.228 333.326C147.76 334.288 154.965 332.821 161.149 331.265C163.024 330.793 164.897 330.33 166.768 329.876C167.706 329.646 168.643 329.415 169.579 329.185L285.485 300.597C286.341 300.386 287.198 300.181 288.053 299.982C289.743 299.58 291.494 299.168 293.219 298.688C294.443 298.379 295.687 297.558 296.726 296.371C297.766 295.185 298.535 293.71 298.894 292.211" fill="white"/>
<path d="M297.481 291.979C297.658 290.894 297.491 289.91 297.014 289.228C296.537 288.545 295.786 288.215 294.913 288.304L250.201 292.986C251.771 290.753 253.059 288.304 253.993 285.773C254.477 284.467 254.867 283.149 255.16 281.836C255.733 279.292 255.909 276.805 255.678 274.511C255.451 272.256 254.782 270.265 253.716 268.675L253.712 268.667C252.486 266.855 250.719 265.704 248.61 265.345C247.638 265.185 246.606 265.2 245.541 265.389C244.232 265.621 242.89 266.11 241.565 266.836C241.281 266.992 241.001 267.159 240.722 267.332L240.096 266.811C240.832 266.637 241.585 266.186 242.246 265.523C242.906 264.86 243.441 264.019 243.773 263.121L249.622 247.345C249.835 246.77 249.96 246.186 249.988 245.629C250.017 245.072 249.949 244.553 249.789 244.104C249.628 243.655 249.379 243.284 249.055 243.015C248.731 242.746 248.339 242.583 247.904 242.536C247.897 242.535 245.265 242.253 242.01 241.945C240.729 241.823 239.35 241.697 237.993 241.584C239.113 240.133 240.277 238.627 241.406 237.166C243.171 234.885 244.853 232.716 246.157 231.034C247.08 231.332 248.032 231.562 249.009 231.726C253.787 232.548 259.118 231.651 264.464 229.126C269.16 226.91 273.703 223.34 277.632 218.778C281.56 214.217 284.734 208.826 286.832 203.153C289.343 196.274 290.317 189.313 289.636 183.113C289.262 179.523 288.39 176.222 287.052 173.326C288.157 172.862 289.26 172.278 290.343 171.582C291.81 170.631 293.206 169.397 294.46 167.945C294.731 167.634 294.989 167.313 295.242 166.99C295.62 168.243 296.075 169.437 296.605 170.563C298.802 175.325 302.634 178.384 307.457 179.224C310.11 179.675 313.017 179.363 315.987 178.307C318.649 177.357 321.306 175.779 323.793 173.671C326.28 171.564 328.543 168.973 330.441 166.06C332.026 163.62 333.341 161.002 334.333 158.312C334.464 157.959 334.589 157.607 334.708 157.255C334.994 156.415 335.087 155.572 334.975 154.833C334.864 154.094 334.553 153.491 334.081 153.1L332.153 151.492C332.89 151.318 333.642 150.868 334.303 150.204C334.964 149.541 335.498 148.7 335.83 147.802L341.677 132.032C341.89 131.456 342.015 130.872 342.043 130.315C342.072 129.758 342.004 129.239 341.844 128.79C341.684 128.341 341.434 127.97 341.11 127.7C340.787 127.431 340.395 127.267 339.96 127.22C339.953 127.219 337.32 126.939 334.066 126.629C332.784 126.509 331.406 126.383 330.049 126.268C331.608 124.248 333.251 122.124 334.77 120.16C336.417 118.035 337.918 116.099 339.007 114.697C339.551 113.995 339.991 113.426 340.297 113.032C340.603 112.638 340.771 112.423 340.771 112.423C341.217 111.849 341.574 111.195 341.814 110.516C342.054 109.836 342.17 109.15 342.151 108.515C342.133 107.879 341.981 107.312 341.708 106.861C341.435 106.409 341.049 106.086 340.582 105.918L336.485 104.452L327.874 101.372C327.294 101.166 326.614 101.207 325.917 101.488C325.22 101.769 324.538 102.279 323.956 102.954C323.94 102.973 321.762 105.504 319.189 108.611C317.901 110.164 316.517 111.862 315.24 113.478C314.602 114.288 313.99 115.076 313.428 115.827C312.865 116.578 312.35 117.285 311.888 117.964C311.627 118.348 311.283 118.841 310.879 119.421C310.866 119.25 310.86 119.072 310.843 118.904C310.52 115.048 309.38 111.668 307.516 109.038C305.856 106.734 303.527 105.267 300.773 104.793C298.996 104.508 297.081 104.633 295.111 105.164C293.647 105.567 292.169 106.169 290.705 106.959C289.457 107.627 288.22 108.395 287.006 109.255L292.137 93.2152C292.337 92.5909 292.431 91.9663 292.413 91.3849C292.394 90.8036 292.264 90.2795 292.031 89.8491C291.798 89.4188 291.467 89.0926 291.062 88.8933C290.658 88.694 290.188 88.6263 289.687 88.695L271.84 91.1325C271.312 91.2049 270.762 91.4272 270.233 91.7823C269.704 92.1374 269.21 92.6157 268.79 93.1802L265.894 92.1784L265.886 92.177L255.221 88.5362C254.664 88.346 254.014 88.3818 253.348 88.6393C252.682 88.8968 252.026 89.3656 251.456 89.9918L248.684 88.8004C248.956 88.6296 249.229 88.4612 249.497 88.2741C251.783 86.6643 253.903 84.5338 255.695 82.045C257.523 79.5131 259.015 76.7124 260.082 73.812C260.919 71.5481 261.504 69.2561 261.817 67.0101C262.218 64.1968 262.166 61.5042 261.662 59.0822C261.171 56.71 260.198 54.6867 258.81 53.1522L258.805 53.1456C257.509 51.7287 255.844 50.8249 253.935 50.5026C252.428 50.2544 250.794 50.3853 249.117 50.8888C247.515 51.3703 245.899 52.1728 244.34 53.2615C242.055 54.8701 239.934 57.0001 238.142 59.4888C236.315 62.0185 234.823 64.8167 233.755 67.7148C232.917 69.981 232.332 72.2753 232.019 74.5234C231.617 77.3373 231.67 80.0303 232.176 82.4516C232.39 83.4559 232.69 84.4018 233.07 85.2779C232.675 85.7248 232.333 86.237 232.065 86.7849L229.329 92.3673L229.241 92.5546L218.68 115.877C218.346 115.258 217.812 114.86 217.156 114.737L211.696 113.736L211.688 113.735L198.617 111.385C197.91 111.258 197.101 111.456 196.322 111.948C195.542 112.44 194.836 113.197 194.318 114.097L191.795 118.477C191.177 119.55 189.21 123.015 186.796 127.825C183.904 133.537 181.332 139.376 179.104 145.284C177.496 149.546 176.205 153.853 175.251 158.14C174.278 162.401 173.933 166.577 174.235 170.461C174.5 173.394 175.301 176.016 176.589 178.168C177.882 180.291 179.646 181.883 181.766 182.843L181.77 182.844C182.75 183.293 183.783 183.639 184.861 183.878C183.198 186.545 181.805 189.376 180.728 192.277C178.473 198.455 177.597 204.707 178.208 210.276C178.804 215.648 180.601 220.277 183.439 223.753C186.278 227.228 190.07 229.443 194.481 230.2C195.335 230.341 196.21 230.423 197.103 230.447C197.047 231.26 197.196 231.991 197.533 232.548C197.869 233.104 198.377 233.462 198.993 233.575L199.292 233.632C198.544 234.993 197.899 236.402 197.366 237.834C196.89 239.121 196.505 240.419 196.218 241.712C195.495 244.914 195.427 248.012 196.02 250.716L194.632 253.108L167.375 299.994C167.321 300.088 167.273 300.185 167.223 300.28C167.023 300.255 166.811 300.236 166.62 300.204C164.932 299.966 163.371 299.398 161.988 298.517C161.035 297.926 160.284 297.022 159.79 295.871C159.196 294.394 158.956 292.641 159.087 290.747C159.23 288.987 159.655 287.16 160.338 285.362C161.244 282.988 162.426 280.682 163.838 278.531C164.993 276.735 166.284 275.047 167.682 273.506C168.434 272.695 168.996 271.661 169.261 270.603C169.526 269.545 169.476 268.537 169.12 267.772C168.764 267.006 168.128 266.537 167.332 266.454C166.536 266.371 165.638 266.68 164.808 267.322C161.648 269.763 159.094 271.768 156.556 273.908C154.019 276.048 151.522 278.299 148.517 281.189C144.809 284.707 141.344 288.667 138.209 292.97C135.372 296.831 133.03 301.106 131.32 305.548C130.055 308.896 129.352 312.3 129.264 315.516V315.516C129.198 317.937 129.491 320.208 130.13 322.23C130.585 323.643 131.217 324.91 132.01 326.001C133.17 327.571 134.607 328.804 136.267 329.653C137.909 330.495 139.691 331.068 141.582 331.361C144.802 331.832 148.183 331.826 151.665 331.343C154.875 330.921 158.127 330.27 161.405 329.395L293.519 296.805C294.413 296.583 295.32 295.96 296.056 295.063C296.792 294.167 297.302 293.064 297.482 291.979" fill="#0D0002"/>
<path d="M229.74 63.9025C229.359 63.4575 228.872 63.1548 228.309 63.0146C227.747 62.8743 227.123 62.8996 226.478 63.0887C223.239 64.0608 220.045 68.8895 219.346 73.8631C218.962 76.6158 219.409 78.9319 220.585 80.2003C220.966 80.6467 221.454 80.9501 222.018 81.0906C222.581 81.231 223.206 81.2052 223.853 81.0149C227.089 80.0384 230.289 75.2147 230.984 70.2463C231.365 67.4896 230.911 65.1856 229.74 63.9043" fill="#EC0127"/>
<path d="M171.407 141.999C171.031 143.107 170.68 144.21 170.36 145.302C168.969 150.036 168.16 154.537 168.523 158.041C168.732 160.659 169.806 162.742 171.533 163.881C171.781 164.044 172.041 164.187 172.31 164.311C175.593 165.825 179.07 165.515 182.642 163.376C184.759 162.066 186.779 160.326 188.592 158.252V158.252C188.592 158.252 202.715 142.907 210.616 125.457C213.759 118.518 225.324 94.539 225.324 94.539L216.962 90.9278C216.962 90.9278 207.532 113.942 200.07 128.019C195.432 136.764 191.973 138.123 191.139 138.132C188.477 138.156 186.814 137.021 186.212 134.778C185.546 132.331 186.262 128.948 187.322 125.823C188.156 123.41 189.178 121.029 190.37 118.722C189.099 118.493 183.39 117.461 182.52 117.306C180.983 120.112 175.07 131.198 171.407 141.999Z" fill="#EC0127"/>
<path d="M246.862 254.054C247.201 253.017 249.57 245.684 249.922 244.593C248.977 244.556 233.817 243.929 233.817 243.929L249.285 223.326C248.318 222.979 242.444 220.868 242.444 220.868C242.444 220.868 231.332 231.81 222.06 253.431C219.824 258.645 218.752 265.181 221.63 271.246C224.851 278.034 232.6 278.719 238.94 272.778C240.644 271.174 242.13 269.194 243.273 267.005L238.288 263.223C236.75 265.357 234.936 266.725 233.297 266.745C230.331 266.78 229.074 262.398 230.486 256.957C230.955 255.118 231.722 253.293 232.736 251.606L245.411 253.949L246.862 254.054" fill="#EC0127"/>
<path d="M231.955 123.8C229.669 129.018 227.975 134.246 227.96 138.294C227.924 139.686 228.145 140.965 228.611 142.046C229.077 143.127 229.775 143.985 230.66 144.563C233.365 146.37 236.411 146.508 239.705 144.973C247.258 141.452 253.808 130.305 253.873 130.191L255.007 130.587C255.007 130.587 249.925 144.177 249.287 145.875C250.508 145.828 257.04 145.53 258.013 145.483C258.48 144.053 271.449 104.228 272.049 102.386C270.832 102.549 265.362 103.292 264.398 103.421C263.679 106.035 262.758 108.645 261.648 111.211C260.198 114.523 258.221 118.046 255.722 120.307C254.723 121.214 253.64 121.896 252.55 122.302C251.46 122.708 250.392 122.828 249.425 122.654C247.114 122.347 245.78 121.091 245.464 118.941C245.114 116.595 246.051 113.549 247.26 110.79C248.209 108.659 249.317 106.581 250.567 104.591C249.485 104.223 244.629 102.565 243.89 102.317C242.297 104.72 236.137 114.254 231.955 123.8Z" fill="#CB0B86"/>
<path d="M208.823 231.332C208.547 232.437 208.451 233.523 208.541 234.523C208.631 235.523 208.905 236.416 209.346 237.147C209.628 237.59 210.009 237.918 210.465 238.11C210.92 238.301 211.441 238.352 211.992 238.258C214.752 237.764 217.788 233.828 218.761 229.464C219.034 228.359 219.128 227.273 219.037 226.273C218.946 225.273 218.671 224.379 218.23 223.647C217.95 223.204 217.57 222.876 217.115 222.685C216.661 222.493 216.141 222.442 215.592 222.535C212.829 223.024 209.796 226.967 208.823 231.332Z" fill="#CB0B86"/>
<path d="M208.774 245.338C207.972 246.775 189.219 280.375 188.228 282.153C189.425 282.376 195.848 283.607 196.657 283.765C197.274 282.55 213.692 250.226 214.373 248.883C213.65 248.429 209.565 245.835 208.774 245.338Z" fill="#CB0B86"/>
<path d="M255.423 278.321C255.23 279.355 255.219 280.351 255.388 281.243C255.558 282.134 255.905 282.901 256.407 283.492C257.099 284.324 258.109 284.719 259.267 284.611C262.128 284.318 265.023 280.991 265.716 277.18C265.906 276.145 265.915 275.15 265.744 274.258C265.574 273.367 265.226 272.6 264.725 272.007C264.035 271.175 263.027 270.78 261.871 270.889C259.005 271.177 256.118 274.508 255.423 278.321Z" fill="#FFA600"/>
<path d="M298.48 124.194C297.65 123.021 296.535 122.197 295.22 121.785C293.905 121.373 292.422 121.382 290.882 121.813C288.877 122.352 286.845 123.498 284.98 125.141C283.115 126.785 281.478 128.872 280.225 131.204C279.088 133.298 278.339 135.548 278.05 137.734C277.76 139.92 277.942 141.968 278.576 143.676C279.705 146.695 281.53 148.667 283.297 150.58C284.222 151.488 285.084 152.481 285.878 153.553C286.55 154.547 287.282 155.839 286.753 157.553C286.147 159.526 284.627 160.154 283.305 160.135C280.891 160.096 279.702 157.904 279.018 155.493C278.605 153.932 278.601 152.111 279.006 150.218L272.92 150.914L272.599 152.631C271.277 159.721 272.831 163.75 274.368 165.882C275.776 167.806 277.737 169.026 280.047 169.416C281.077 169.59 282.169 169.581 283.296 169.39C287.136 168.728 290.831 165.86 293.185 161.719C295.599 157.473 296.193 152.677 294.776 148.895C293.623 145.813 291.779 143.817 289.986 141.877C288.547 140.319 287.186 138.849 286.507 137.035C286.38 136.693 286.349 136.281 286.417 135.842C286.484 135.404 286.648 134.955 286.89 134.546C287.242 133.873 287.689 133.256 288.199 132.735C288.71 132.214 289.273 131.801 289.851 131.525C290.671 131.238 291.469 131.196 292.171 131.403C292.874 131.61 293.459 132.058 293.875 132.708C294.403 133.54 294.697 134.602 294.731 135.798C294.864 136.887 294.825 138.063 294.616 139.274L294.216 140.997L299.579 140.94L299.981 139.215C301.397 133.114 300.824 127.357 298.48 124.194Z" fill="#FFA600"/>
<path d="M210.231 291.578L174.053 293.876C166.071 294.386 160.773 291.864 159.13 286.778C157.368 281.316 158.589 275.249 160.905 269.827C160.997 269.611 161.118 269.41 161.214 269.193C159.909 270.376 158.546 271.637 156.997 273.146C151.021 278.958 146.667 284.922 144.362 290.323C143.299 292.734 142.659 295.242 142.502 297.616C141.964 307.671 149.8 310.736 165.8 306.729C165.8 306.729 207.253 297.045 241.788 288.981C225.453 290.328 210.245 291.575 210.23 291.582" fill="#FFA600"/>
<path d="M187.247 209.002C192.26 214.398 200.364 214.013 207.201 208.761L201.497 219.13L211.685 221.07L247.889 151.599L241.03 147.264L218.082 188.98C218.64 183.007 217.207 177.827 214.088 174.545C207.833 167.807 196.753 170.057 189.34 179.572C181.926 189.088 180.989 202.263 187.245 209.002M197.08 179.395C200.401 175.132 206.022 174.831 209.636 178.724C213.249 182.617 213.486 189.226 210.165 193.49C206.843 197.754 201.224 198.055 197.61 194.162C193.996 190.269 193.76 183.659 197.081 179.396" fill="#E6D800"/>
<path d="M308.682 157.212C306.446 162.427 305.374 168.962 308.251 175.027C311.472 181.815 319.222 182.501 325.561 176.561C327.265 174.957 328.751 172.976 329.893 170.787L324.909 167.004C323.373 169.139 321.556 170.508 319.919 170.529C316.954 170.563 315.694 166.181 317.11 160.737C317.578 158.898 318.345 157.073 319.359 155.385L332.033 157.731C332.734 157.78 333.28 157.821 333.484 157.834C333.824 156.8 336.19 149.468 336.544 148.375C335.598 148.337 320.438 147.712 320.438 147.712C320.438 147.712 334.87 128.489 335.908 127.108C334.939 126.761 329.064 124.651 329.064 124.651C329.064 124.651 317.953 135.593 308.682 157.212Z" fill="#E6D800"/>
<path d="M250.599 180.341C241.949 191.336 240.785 206.567 247.993 214.361C255.201 222.156 268.053 219.558 276.699 208.563C285.345 197.569 286.514 182.338 279.304 174.545C272.094 166.752 259.244 169.348 250.599 180.341ZM263.089 179.291C266.963 174.365 273.479 174.02 277.642 178.523C281.805 183.026 282.039 190.67 278.165 195.594C274.292 200.518 267.777 200.864 263.614 196.361C259.451 191.858 259.214 184.218 263.089 179.291Z" fill="white"/>
</svg>
