<svg width="188" height="188" viewBox="0 0 188 188" fill="none" xmlns="http://www.w3.org/2000/svg">
<g clip-path="url(#clip0_20_2014)">
<path d="M110.636 56.9995C110.415 52.114 108.273 47.5167 104.681 44.2189C101.089 40.9211 96.3411 39.1929 91.4815 39.4145C86.6219 39.6361 82.049 41.7893 78.7686 45.4005C75.4882 49.0117 73.7691 53.785 73.9896 58.6705V58.6795L110.634 57.0085L110.636 56.9995Z" fill="#F6EB3F"/>
<path d="M68.2692 58.9355C68.0775 55.7332 68.5211 52.5245 69.5741 49.4961C70.6271 46.4677 72.2685 43.68 74.403 41.2952C76.5374 38.9103 79.1222 36.9759 82.007 35.6045C84.8918 34.233 88.0191 33.4519 91.2069 33.3065C94.3947 33.1612 97.5795 33.6544 100.576 34.7577C103.572 35.8609 106.321 37.5521 108.661 39.7329C111.002 41.9137 112.887 44.5405 114.209 47.4607C115.53 50.3808 116.261 53.5359 116.358 56.7425V56.7515L121.851 56.4995V56.4895C121.453 48.6435 117.983 41.2748 112.197 35.9933C106.412 30.7119 98.7826 27.9471 90.976 28.303C83.1694 28.659 75.8203 32.1067 70.5343 37.8929C65.2484 43.6792 62.4554 51.3335 62.7655 59.1835V59.1935L68.2653 58.9415L68.2692 58.9355Z" fill="#C5031B"/>
<path d="M73.9896 58.6731C73.7687 53.7876 75.4874 49.0141 78.7675 45.4027C82.0476 41.7912 86.6205 39.6376 91.48 39.4156C96.3396 39.1936 101.088 40.9214 104.68 44.219C108.273 47.5165 110.415 52.1136 110.636 56.9991V57.0081L116.359 56.7481V56.7381C116.261 53.5316 115.531 50.3767 114.209 47.4568C112.887 44.5369 111.002 41.9103 108.661 39.7297C106.321 37.5491 103.572 35.8581 100.576 34.755C97.5796 33.6519 94.3949 33.1587 91.2072 33.3042C88.0195 33.4496 84.8924 34.2308 82.0077 35.6022C79.123 36.9736 76.5383 38.9079 74.4039 41.2926C72.2696 43.6774 70.6282 46.4649 69.5751 49.4931C68.5221 52.5214 68.0784 55.7299 68.27 58.9321V58.9401L73.9915 58.6791V58.6701" fill="#E2A60B"/>
<path d="M62.7662 59.1855C62.4548 51.3348 65.2472 43.6794 70.5331 37.8922C75.819 32.105 83.1687 28.6566 90.976 28.3005C98.7833 27.9444 106.413 30.7096 112.199 35.9918C117.984 41.274 121.455 48.6437 121.852 56.4905V56.5005L127.796 56.2295V56.2205C127.278 46.8259 123.092 38.0165 116.149 31.7068C109.206 25.397 100.067 22.0967 90.7173 22.523C81.3676 22.9493 72.563 27.0678 66.2167 33.9835C59.8704 40.8992 56.4953 50.0532 56.8248 59.4565V59.4655L62.7701 59.1945L62.7662 59.1855Z" fill="#0092BF"/>
<path d="M77.0895 40.6233C77.374 40.6103 78.1111 40.4843 78.2951 40.7743C78.3837 40.9123 78.7288 40.9883 78.881 41.1813C79.0799 41.4383 79.2122 41.7753 79.5037 41.9463C79.7759 42.0569 80.0641 42.1228 80.3572 42.1413C80.6746 42.219 80.9618 42.3904 81.1818 42.6333C81.4016 42.8563 81.5797 43.1073 81.9248 43.1333C82.3093 43.0971 82.6955 43.0804 83.0817 43.0833C83.8993 43.2223 83.9769 43.8893 84.2465 44.5473C84.4245 44.9953 85.2074 45.1383 85.6122 45.3103C85.7441 45.3665 85.8908 45.3774 86.0294 45.3412C86.1681 45.305 86.291 45.2239 86.3791 45.1103C86.6049 44.8653 86.8655 44.6483 87.0854 44.4023C87.3052 44.1563 87.522 44.1733 87.6633 43.8343C87.8045 43.4953 87.8493 43.1433 87.9826 42.8293C88.2203 42.2713 88.9156 43.6293 89.1762 43.6863C89.6736 43.7933 90.1779 42.9703 90.6027 42.7863C91.8033 42.2763 93.5361 42.2083 94.4959 43.2383C94.9392 43.9198 95.1559 44.7251 95.1147 45.5383C95.24 46.4313 95.7115 46.2313 96.3083 45.8323C96.9619 45.4092 97.7254 45.19 98.5026 45.2023C98.9005 45.1853 99.2536 45.2873 99.4426 44.8813C99.6383 44.5754 99.7702 44.2328 99.8306 43.8743C100.213 43.8563 100.069 42.9583 100.483 42.9393C100.471 42.6813 101.26 42.2663 101.464 42.2323C101.888 42.1929 102.316 42.2743 102.696 42.4673C102.973 42.6549 103.225 42.8766 103.446 43.1273C103.827 43.3948 104.186 43.6914 104.521 44.0143C104.769 44.3015 104.938 44.6483 105.014 45.0209C105.089 45.3935 105.068 45.7795 104.951 46.1413C104.821 46.5205 104.623 46.8729 104.367 47.1813C104.102 47.4247 103.862 47.6944 103.651 47.9863C103.518 48.2483 103.67 48.4603 103.863 48.6323C104.117 48.8583 104.205 48.7653 104.543 48.7613C104.88 48.7573 105.04 49.0683 105.338 49.1523C105.76 49.2713 105.995 48.9113 106.366 48.8453C106.737 48.7793 107.051 49.1163 107.489 49.0043C107.896 48.9043 108.285 48.7373 108.689 48.6133C109.057 48.5499 109.409 48.4139 109.725 48.2133C110.055 47.9313 109.924 47.5133 110.109 47.1663C110.207 47.0216 110.352 46.916 110.519 46.8681C110.686 46.8202 110.865 46.833 111.024 46.9043C111.449 47.0283 111.521 47.2043 111.779 47.5103C112.018 47.7863 112.376 47.7523 112.66 47.9403C113.039 48.1913 113.224 48.6173 113.535 48.9403C114.054 49.5163 114.345 50.2632 114.354 51.0403C114.383 51.3303 114.285 51.7513 114.528 51.9763C114.772 52.2013 115.188 52.0963 115.493 52.1223C115.839 52.1629 116.173 52.2762 116.472 52.4548C116.771 52.6335 117.03 52.8735 117.231 53.1593C117.386 53.3683 117.485 53.7053 117.786 53.7433C118.21 53.7963 118.604 53.4433 119.029 53.4283L119.534 53.4053C119.534 53.3113 119.727 53.2373 119.794 53.2343C119.794 53.0713 120.078 52.8563 120.207 52.7933C120.452 52.6733 120.564 52.5153 120.822 52.4773C121.299 52.3835 121.757 52.2123 122.18 51.9703C122.531 51.7565 122.922 51.6186 123.329 51.5652C123.736 51.5119 124.149 51.5442 124.543 51.6603C125.425 51.8136 126.286 52.0752 127.104 52.4393C127.555 52.7313 127.964 53.0831 128.321 53.4853C128.685 53.8553 128.38 54.4853 128.743 54.8673C128.985 55.0642 129.165 55.328 129.261 55.6263C129.286 55.9031 129.403 56.1635 129.593 56.3653C129.842 56.5653 130.178 56.5933 130.419 56.8263C130.769 57.1643 130.618 57.5183 130.638 57.9403C130.656 58.2853 130.958 58.5843 131.101 58.8853C131.277 59.2448 131.396 59.6298 131.453 60.0263C131.463 60.1906 131.51 60.3506 131.588 60.4948C131.667 60.639 131.777 60.7639 131.91 60.8603C132.208 61.0823 132.257 61.4853 132.365 61.8183C132.533 62.3423 133.26 62.7803 133.203 63.3833C133.13 64.1623 132.5 64.4623 131.893 64.8003C131.571 64.9793 131.653 65.2353 131.424 65.4683C131.231 65.6683 130.994 66.0763 131.163 66.3473C131.332 66.6183 131.668 66.6933 131.881 66.9063C132.136 67.1643 132.319 67.4943 132.67 67.6373C133.016 67.7703 133.321 67.9945 133.551 68.2863C133.75 68.5483 133.685 68.8973 133.845 69.1763C134.004 69.4553 134.427 69.4683 134.607 69.7483C134.759 69.9339 134.858 70.1575 134.894 70.3953C134.868 70.6852 134.934 70.976 135.084 71.2253C135.276 71.4723 135.581 71.5913 135.788 71.8323C136.175 72.5299 136.289 73.3478 136.107 74.1253C135.937 74.8118 135.681 75.4738 135.345 76.0953C135.265 76.5728 135.048 77.0165 134.721 77.3723C134.573 77.5023 134.721 77.5013 134.496 77.5583C134.33 77.607 134.171 77.6783 134.024 77.7703C133.725 77.9443 133.467 78.1883 133.153 78.3373C133.003 78.4249 132.833 78.4732 132.659 78.4777C132.485 78.4823 132.313 78.4429 132.159 78.3633C131.868 78.1683 131.697 77.9263 131.319 78.0463C131.155 78.0843 131.001 78.1593 130.87 78.2657C130.739 78.372 130.633 78.5069 130.561 78.6603C130.451 78.9773 130.642 79.3383 130.571 79.6723C130.442 80.2723 129.768 81.1543 130.033 81.7573C130.304 82.3763 130.791 82.7043 130.479 83.4413C130.093 84.1205 129.595 84.7291 129.007 85.2413C128.743 85.4589 128.496 85.6969 128.269 85.9533C128.1 86.2782 127.998 86.6339 127.968 86.9993C127.792 87.8363 127.208 87.5493 126.789 88.0893C126.651 88.2723 126.736 88.6443 126.75 88.8483C126.792 89.3763 126.842 89.9023 126.896 90.4283C127.01 91.1966 126.981 91.9797 126.81 92.7373C126.657 93.3477 126.34 93.9042 125.894 94.3464C125.448 94.7885 124.891 95.0994 124.282 95.2453C122.309 95.4746 120.318 95.4971 118.341 95.3123C116.289 95.2393 114.236 95.1313 112.181 95.1013C111.223 95.0883 110.266 95.1083 109.309 95.0543C108.4 94.9506 107.483 94.9191 106.569 94.9603C105.885 95.014 105.198 94.9996 104.518 94.9173C103.775 94.8837 103.03 94.9111 102.291 94.9993C101.541 95.1179 100.806 95.3243 100.103 95.6143C99.2586 95.8673 98.3962 96.0663 97.5457 96.3193C96.739 96.5593 95.998 96.8723 95.2151 97.1733C94.2987 97.371 93.3461 97.315 92.4588 97.0113C90.53 96.6273 88.5794 96.3783 86.6457 96.0203C84.9318 95.7033 83.211 95.4913 81.507 95.1343C79.7623 94.7693 77.947 94.5003 76.1834 94.2643C74.3213 94.0143 72.4741 93.6413 70.6229 93.3193C69.8272 93.1813 69.1309 93.2673 68.733 92.4853C68.5679 92.0307 68.3652 91.5909 68.1272 91.1703C67.9899 90.9833 67.9422 90.7153 67.8109 90.4923C67.6318 90.1923 67.4289 89.9143 67.2638 89.6073C66.8351 88.8163 66.475 87.9873 66.0532 87.1913C65.4266 86.0093 64.9421 84.8493 64.2538 83.7083C63.8251 82.9963 63.5754 82.1893 63.1596 81.4673C62.6543 80.5923 62.2564 79.6593 61.8048 78.7563C61.403 77.9496 60.9932 77.1466 60.5754 76.3473C60.3625 75.9373 59.9577 75.1633 59.5041 75.0003C59.3608 74.9483 59.1917 74.6673 59.0296 74.5543C58.7932 74.3988 58.5729 74.2199 58.3721 74.0203C57.8459 73.4793 57.0263 73.0633 56.6473 72.3903C56.509 72.1383 56.1609 72.1193 56.0256 71.8623C55.8704 71.7073 55.687 71.5837 55.4855 71.4983C54.8788 71.1995 54.3401 70.778 53.9029 70.2603C53.268 69.7052 52.754 69.0243 52.3929 68.2603C51.9734 67.5868 51.8036 66.7862 51.9135 65.9993C52.0368 65.5513 52.4625 65.1723 52.6575 64.7383C52.8346 64.3383 53.1369 63.9513 53.3677 63.5383C53.7481 62.8396 54.0804 62.1156 54.3624 61.3713C54.479 60.9894 54.6236 60.6167 54.7951 60.2563C55.0249 59.8563 55.3144 59.4833 55.5571 59.0863C56.0347 58.3754 56.3324 57.5581 56.4245 56.7053C56.4702 55.7133 56.519 54.7373 56.6015 53.7453C56.7467 51.9753 57.2143 50.5453 58.8665 49.6843C59.3723 49.4438 59.7872 49.0453 60.0492 48.5483C60.2409 48.231 60.4963 47.9574 60.7991 47.745C61.1019 47.5325 61.4455 47.3858 61.8078 47.3143C62.2377 47.3288 62.6568 47.4534 63.0253 47.6763C63.3238 47.8393 64.038 47.6073 64.3593 47.5513C64.8637 47.4485 65.3865 47.4863 65.8712 47.6604C66.3559 47.8345 66.7841 48.1384 67.1096 48.5393C67.408 48.8693 67.6806 48.8323 67.9372 48.4893C68.1867 48.1176 68.5254 47.8153 68.922 47.6103C69.1489 47.4982 69.4049 47.46 69.6545 47.5008C69.904 47.5417 70.1347 47.6596 70.3146 47.8383C70.4628 48.0109 70.6675 48.1247 70.8917 48.1594C71.1159 48.194 71.3451 48.1472 71.5381 48.0273C71.8952 47.8783 72.4094 47.6043 72.2741 47.1273C72.1904 46.9388 72.146 46.7351 72.1437 46.5286C72.1415 46.3222 72.1815 46.1175 72.2612 45.9273C72.678 45.1273 72.6959 43.6853 73.9811 43.7513C74.3839 43.7723 74.7768 44.1583 75.1747 43.9513C75.5503 43.6843 75.8079 43.2808 75.8929 42.8263C75.9643 42.3105 76.1021 41.8063 76.3027 41.3263C76.4022 41.1603 77.0895 40.7553 77.0826 40.6343" fill="#F6EB3F"/>
<path fill-rule="evenodd" clip-rule="evenodd" d="M77.0895 40.6233C77.374 40.6103 78.1111 40.4843 78.2951 40.7743C78.3837 40.9123 78.7288 40.9883 78.881 41.1813C79.0799 41.4383 79.2122 41.7753 79.5037 41.9463C79.7759 42.0569 80.0641 42.1228 80.3572 42.1413C80.6744 42.2191 80.9615 42.39 81.1818 42.6323C81.4016 42.8553 81.5797 43.1073 81.9248 43.1323C82.3093 43.0961 82.6955 43.0794 83.0817 43.0823C83.9003 43.2213 83.9769 43.8883 84.2465 44.5463C84.4245 44.9943 85.2074 45.1373 85.6122 45.3093C85.7441 45.3655 85.8908 45.3764 86.0294 45.3402C86.1681 45.304 86.291 45.2229 86.3791 45.1093C86.6049 44.8643 86.8655 44.6473 87.0854 44.4013C87.3052 44.1553 87.522 44.1723 87.6633 43.8333C87.8045 43.4943 87.8493 43.1423 87.9826 42.8283C88.2203 42.2703 88.9156 43.6283 89.1762 43.6853C89.6736 43.7923 90.1789 42.9693 90.6027 42.7853C91.8033 42.2753 93.5361 42.2073 94.4959 43.2373C94.9392 43.9188 95.1559 44.7241 95.1147 45.5373C95.241 46.4303 95.7115 46.2303 96.3083 45.8313C96.9619 45.4082 97.7254 45.189 98.5026 45.2013C98.9005 45.1843 99.2536 45.2863 99.4426 44.8803C99.6383 44.5744 99.7702 44.2318 99.8306 43.8733C100.213 43.8553 100.069 42.9573 100.483 42.9383C100.471 42.6803 101.26 42.2653 101.464 42.2313C101.888 42.1919 102.316 42.2733 102.696 42.4663C102.973 42.6539 103.225 42.8756 103.446 43.1263C103.827 43.3938 104.186 43.6904 104.521 44.0133C104.769 44.3005 104.938 44.6473 105.014 45.0199C105.089 45.3925 105.068 45.7785 104.951 46.1403C104.821 46.5195 104.623 46.8719 104.367 47.1803C104.102 47.4237 103.862 47.6934 103.651 47.9853C103.518 48.2473 103.67 48.4593 103.863 48.6313C104.117 48.8573 104.205 48.7643 104.543 48.7603C104.88 48.7563 105.04 49.0673 105.338 49.1513C105.76 49.2703 105.995 48.9103 106.366 48.8443C106.737 48.7783 107.051 49.1153 107.489 49.0033C107.896 48.9033 108.285 48.7363 108.689 48.6123C109.057 48.5489 109.409 48.4129 109.725 48.2123C110.055 47.9303 109.924 47.5123 110.109 47.1653C110.207 47.0206 110.352 46.915 110.519 46.8671C110.686 46.8192 110.865 46.832 111.024 46.9033C111.449 47.0273 111.521 47.2033 111.779 47.5093C112.018 47.7853 112.376 47.7513 112.66 47.9393C113.039 48.1903 113.225 48.6163 113.535 48.9393C114.054 49.5153 114.345 50.2622 114.354 51.0393C114.383 51.3293 114.285 51.7503 114.528 51.9753C114.772 52.2003 115.188 52.0953 115.493 52.1213C115.839 52.1619 116.173 52.2752 116.472 52.4538C116.771 52.6325 117.03 52.8725 117.231 53.1583C117.386 53.3673 117.485 53.7043 117.786 53.7423C118.21 53.7953 118.604 53.4423 119.029 53.4273L119.534 53.4043C119.534 53.3103 119.727 53.2363 119.794 53.2333C119.794 53.0703 120.078 52.8553 120.207 52.7923C120.452 52.6723 120.564 52.5143 120.822 52.4763C121.299 52.3825 121.757 52.2113 122.18 51.9693C122.531 51.7555 122.922 51.6176 123.329 51.5642C123.736 51.5108 124.149 51.5432 124.543 51.6593C125.425 51.8126 126.286 52.0742 127.104 52.4383C127.555 52.7303 127.964 53.0821 128.321 53.4843C128.685 53.8543 128.38 54.4843 128.743 54.8663C128.985 55.0632 129.165 55.327 129.261 55.6253C129.286 55.9022 129.403 56.1625 129.593 56.3643C129.842 56.5643 130.178 56.5923 130.419 56.8253C130.769 57.1633 130.618 57.5173 130.638 57.9393C130.656 58.2843 130.958 58.5833 131.101 58.8843C131.277 59.2438 131.396 59.6288 131.453 60.0253C131.463 60.1896 131.51 60.3496 131.589 60.4938C131.668 60.638 131.777 60.7628 131.91 60.8593C132.208 61.0813 132.257 61.4843 132.365 61.8173C132.533 62.3413 133.26 62.7793 133.203 63.3823C133.13 64.1613 132.5 64.4613 131.893 64.7993C131.572 64.9783 131.654 65.2343 131.424 65.4673C131.231 65.6673 130.994 66.0753 131.163 66.3463C131.332 66.6173 131.668 66.6923 131.881 66.9053C132.136 67.1633 132.319 67.4933 132.67 67.6363C133.016 67.7693 133.321 67.9935 133.551 68.2853C133.75 68.5473 133.685 68.8963 133.845 69.1753C134.004 69.4543 134.427 69.4673 134.607 69.7473C134.759 69.9329 134.858 70.1565 134.894 70.3943C134.868 70.6842 134.934 70.975 135.084 71.2243C135.276 71.4713 135.581 71.5903 135.788 71.8313C136.175 72.5289 136.289 73.3468 136.107 74.1243C135.937 74.8108 135.681 75.4728 135.345 76.0943C135.265 76.5718 135.048 77.0155 134.721 77.3713C134.573 77.5013 134.721 77.5003 134.496 77.5573C134.33 77.606 134.171 77.6773 134.024 77.7693C133.725 77.9433 133.467 78.1873 133.153 78.3363C133.003 78.4239 132.833 78.4722 132.659 78.4767C132.485 78.4813 132.313 78.4419 132.159 78.3623C131.868 78.1673 131.698 77.9253 131.319 78.0453C131.155 78.0833 131.001 78.1583 130.87 78.2647C130.739 78.371 130.633 78.5059 130.561 78.6593C130.451 78.9763 130.642 79.3373 130.571 79.6713C130.442 80.2713 129.768 81.1533 130.033 81.7563C130.304 82.3753 130.791 82.7033 130.479 83.4403C130.093 84.1195 129.595 84.7281 129.007 85.2403C128.743 85.4579 128.496 85.6959 128.269 85.9523C128.1 86.2774 127.998 86.6335 127.969 86.9993C127.792 87.8363 127.208 87.5493 126.789 88.0893C126.651 88.2723 126.736 88.6443 126.75 88.8483C126.792 89.3763 126.842 89.9023 126.896 90.4283C127.01 91.1966 126.981 91.9797 126.81 92.7373C126.657 93.3477 126.34 93.9042 125.894 94.3464C125.448 94.7885 124.891 95.0994 124.282 95.2453C122.309 95.4746 120.318 95.4971 118.341 95.3123C116.289 95.2393 114.236 95.1313 112.181 95.1013C111.223 95.0883 110.266 95.1083 109.309 95.0543C108.4 94.9506 107.483 94.9191 106.569 94.9603C105.885 95.014 105.198 94.9996 104.518 94.9173C103.775 94.8837 103.03 94.9111 102.291 94.9993C101.541 95.1179 100.806 95.3243 100.103 95.6143C99.2586 95.8673 98.3962 96.0663 97.5457 96.3193C96.739 96.5593 95.998 96.8723 95.2151 97.1733C94.2986 97.3705 93.3462 97.3145 92.4588 97.0113C90.53 96.6273 88.5794 96.3783 86.6457 96.0203C84.9318 95.7033 83.211 95.4913 81.507 95.1343C79.7623 94.7693 77.947 94.5003 76.1834 94.2643C74.3213 94.0143 72.4741 93.6413 70.6229 93.3193C69.8331 93.1813 69.1309 93.2673 68.733 92.4853C68.5683 92.0306 68.3656 91.5907 68.1272 91.1703C67.9909 90.9833 67.9422 90.7153 67.8109 90.4923C67.6318 90.1923 67.4289 89.9143 67.2638 89.6073C66.8351 88.8163 66.475 87.9873 66.0532 87.1913C65.4266 86.0093 64.9421 84.8493 64.2538 83.7083C63.8251 82.9963 63.5754 82.1893 63.1596 81.4673C62.6543 80.5923 62.2564 79.6593 61.8048 78.7563C61.403 77.9496 60.9932 77.1466 60.5754 76.3473C60.3625 75.9373 59.9587 75.1633 59.5041 75.0003C59.3608 74.9483 59.1917 74.6673 59.0296 74.5543C58.7932 74.3988 58.5729 74.2199 58.3721 74.0203C57.8459 73.4793 57.0263 73.0633 56.6473 72.3903C56.509 72.1383 56.1609 72.1193 56.0256 71.8623C55.8704 71.7073 55.687 71.5837 55.4855 71.4983C54.8788 71.1995 54.3401 70.778 53.9029 70.2603C53.268 69.7052 52.754 69.0243 52.3929 68.2603C51.9734 67.5868 51.8036 66.7862 51.9135 65.9993C52.0368 65.5513 52.4625 65.1723 52.6575 64.7383C52.8346 64.3333 53.1369 63.9513 53.3677 63.5383C53.7481 62.8396 54.0804 62.1156 54.3624 61.3713C54.479 60.9894 54.6236 60.6167 54.7951 60.2563C55.0249 59.8563 55.3144 59.4833 55.5571 59.0863C56.0345 58.3754 56.3323 57.5581 56.4245 56.7053C56.4702 55.7133 56.519 54.7373 56.6015 53.7453C56.7467 51.9753 57.2143 50.5453 58.8665 49.6843C59.3723 49.4438 59.7872 49.0453 60.0492 48.5483C60.2409 48.231 60.4963 47.9574 60.7991 47.745C61.1019 47.5325 61.4455 47.3858 61.8078 47.3143C62.2377 47.3288 62.6568 47.4534 63.0253 47.6763C63.3238 47.8393 64.038 47.6073 64.3593 47.5513C64.8637 47.4485 65.3865 47.4863 65.8712 47.6604C66.3559 47.8345 66.7841 48.1384 67.1096 48.5393C67.408 48.8693 67.6806 48.8323 67.9372 48.4893C68.1867 48.1176 68.5254 47.8153 68.922 47.6103C69.1489 47.4982 69.4049 47.46 69.6545 47.5008C69.904 47.5417 70.1347 47.6596 70.3146 47.8383C70.4628 48.0109 70.6675 48.1247 70.8917 48.1594C71.1159 48.194 71.3451 48.1472 71.5381 48.0273C71.8952 47.8783 72.4094 47.6043 72.2741 47.1273C72.1904 46.9388 72.146 46.7351 72.1437 46.5286C72.1415 46.3222 72.1815 46.1175 72.2612 45.9273C72.678 45.1273 72.6959 43.6853 73.9811 43.7513C74.3839 43.7723 74.7768 44.1583 75.1747 43.9513C75.5503 43.6843 75.8079 43.2808 75.8929 42.8263C75.9643 42.3105 76.1021 41.8063 76.3027 41.3263C76.4022 41.1603 77.0895 40.7553 77.0826 40.6343M77.3521 44.1633C77.3581 44.2893 77.7222 44.2893 77.7281 44.4633C77.9669 44.4523 77.9778 45.0243 77.9848 45.1973C77.9181 45.1973 77.7729 45.3973 77.7729 45.4133C77.755 45.4133 77.574 45.5803 77.574 45.6453C77.4398 45.7181 77.3345 45.8349 77.2755 45.9763C77.1562 45.9813 77.0358 46.0823 76.8558 46.0913C76.7785 46.0307 76.7063 45.9638 76.6399 45.8913C76.5596 45.6172 76.4418 45.3557 76.2898 45.1143C76.308 44.8473 76.4293 44.5981 76.6278 44.4198C76.8263 44.2416 77.0862 44.1484 77.3521 44.1603M90.6176 44.1353C90.6245 44.2933 91.2144 44.3673 91.2224 44.5833C91.475 44.5723 91.6202 45.3593 91.3059 45.3743C91.2341 45.463 91.1459 45.537 91.0463 45.5923C91.0543 45.7533 90.8474 45.7803 90.8613 46.0293C90.786 46.2009 90.7251 46.3785 90.6792 46.5603C90.5131 46.5693 90.4883 46.7923 90.3112 46.8003C90.3202 46.9663 89.5383 47.1833 89.5314 46.9953C89.2011 47.0103 89.2956 45.5773 89.0549 45.5873C89.04 45.2503 88.9415 44.6403 89.3762 44.6203C89.3762 44.5453 89.7084 44.3823 89.791 44.3793C89.783 44.2113 90.4246 44.1433 90.6176 44.1353ZM101.332 44.5993C101.338 44.7343 101.542 44.7233 101.549 44.8593C101.748 44.8493 101.632 44.9493 101.868 44.9403C102.052 44.9313 102.067 44.8403 102.228 44.8283C102.213 44.5373 102.754 44.8523 102.813 44.8493C102.82 45.0363 102.93 45.0013 102.939 45.2093C102.948 45.4173 102.954 45.5463 102.963 45.7473C102.816 45.7533 102.951 45.9073 102.749 45.9163C102.757 46.0563 102.329 46.0303 102.198 46.0363C102.03 46.0443 101.558 46.1693 101.568 46.3363C101.359 46.3463 101.007 46.8523 101.015 47.0443C100.916 47.0443 100.834 47.2753 100.709 47.2803C100.717 47.4243 100.087 47.4803 100.077 47.2453C99.931 47.2533 99.7868 46.7513 99.7788 46.6243C99.6993 46.6243 99.5023 46.0603 99.4963 45.9303C99.4854 45.7103 99.562 45.4303 99.7878 45.4163C99.7878 45.3223 100.086 45.1333 100.186 45.1293C100.186 45.0693 100.519 44.8443 100.598 44.8393C100.588 44.6163 101.096 44.6113 101.33 44.6003M80.3711 47.1003C80.3711 47.1613 80.577 47.1863 80.6436 47.1833C80.6536 47.3943 80.755 47.2463 80.767 47.4953C80.8647 47.9456 80.9381 48.401 80.9868 48.8593C81.0057 49.2593 81.0385 51.1983 80.7153 51.2133C80.7153 51.3663 80.206 51.4993 80.195 51.2843C79.8966 51.2993 80.1025 50.3363 79.9473 50.3423C79.9473 50.2013 79.4947 49.6173 79.3784 49.6223C79.2384 49.4151 79.052 49.2438 78.8343 49.1223C78.8343 49.1133 78.4533 48.6153 78.6552 48.6063C78.6472 48.4663 78.7805 48.2193 78.9059 48.2143C79.096 47.9813 79.3334 47.7918 79.6022 47.6583C79.6022 47.5933 79.8568 47.3763 79.9006 47.3733C79.9006 47.2413 80.2517 47.1053 80.3621 47.0993M92.1047 46.8813C92.1047 46.8513 92.5364 47.3383 92.4856 47.3403C92.5065 47.7593 92.8338 48.0163 92.8527 48.4353C92.9641 48.4353 93.166 49.4253 93.176 49.6263C93.3228 50.0373 93.4467 50.4563 93.547 50.8813C93.7193 51.1934 93.8415 51.5309 93.9091 51.8813C94.0473 51.8743 94.1577 52.7113 94.3069 52.7043C94.3169 52.9223 94.2075 53.0183 94.2164 53.1363C94.1797 53.1494 94.1469 53.1714 94.1207 53.2004C94.0945 53.2293 94.0758 53.2643 94.0662 53.3023C93.8245 53.3133 93.7141 53.6363 93.4505 53.6473C93.4505 53.7793 92.9273 53.9893 92.785 53.9953C92.4866 54.0093 92.3285 53.6953 92.0937 53.7093C92.0937 53.6333 91.7565 53.4093 91.6531 53.4093C91.6431 53.1933 91.2174 53.1963 91.2064 52.9533C90.8026 52.9723 91.4661 51.7033 91.4571 51.5123C91.478 51.5123 91.285 51.1853 91.282 51.1393C91.0831 51.1493 90.8941 51.0623 90.6036 51.0753C90.5042 51.0753 89.8178 51.2463 89.8139 51.1123C89.6348 51.1203 89.6825 50.9573 89.5383 50.9653C89.5244 50.6973 89.2648 50.5573 89.2518 50.2793C89.1315 50.2853 88.9117 49.7173 88.9057 49.5643C88.7406 49.5723 88.5207 48.6293 88.6421 48.6243C88.6331 48.4403 88.9315 48.2303 89.0977 48.2243C89.0917 48.0833 89.7194 48.0243 89.7134 47.8783C89.8258 47.8783 90.4445 47.6053 90.4405 47.5283C90.5579 47.5283 91.0602 47.2733 91.0562 47.1833C91.1448 47.1833 91.3686 47.0903 91.3646 47.0103C91.6212 46.9993 91.7724 46.8963 92.1017 46.8813M75.9586 49.6813C75.9586 49.6533 76.619 50.2233 76.6131 50.2233C76.6131 50.3023 76.7852 50.7553 76.6399 50.7623C76.6499 50.9863 76.5335 50.8903 76.5405 51.0213C76.4589 51.0213 76.4768 51.1353 76.3873 51.1393C76.3962 51.3203 76.0381 51.2663 75.873 51.2733C75.873 51.2683 75.2623 50.6663 75.2623 50.6663C75.2523 50.4883 75.13 49.9733 75.3866 49.9663C75.3806 49.7833 75.7566 49.6953 75.9595 49.6853M66.1676 50.6993C66.1676 50.6993 66.6391 51.2183 66.2532 51.2363C66.2631 51.4503 65.9478 51.4883 65.9548 51.7253C65.8294 51.7323 65.6564 52.0253 65.6564 52.1513C65.534 52.1583 65.5151 52.5173 65.5211 52.6423C65.531 52.8753 65.6902 52.9423 65.6981 53.0553C65.8978 53.139 66.0915 53.2362 66.278 53.3463C66.6759 53.3283 66.6381 54.2953 66.656 54.6943C66.669 54.9823 66.7475 55.2943 66.7625 55.6583C66.7625 55.6583 66.3994 56.0343 66.3895 55.7703C66.1308 55.7823 66.0682 55.4703 65.8523 55.4783C65.8523 55.4003 65.536 55.1783 65.4783 55.1783C65.4693 55.0213 65.0416 55.0003 65.0357 54.8333C64.865 54.7741 64.713 54.6706 64.595 54.5333C64.3831 54.5423 64.2707 54.2333 64.0598 54.2393C64.0598 54.1393 63.5764 53.9393 63.463 53.9493C63.4551 53.7883 63.09 53.7363 63.0761 53.4103C63.0691 53.2343 63.1974 52.4833 63.3506 52.4763C63.3387 52.2233 63.649 52.1093 63.6411 51.9243C63.7652 51.864 63.8707 51.771 63.9464 51.6553C64.1653 51.6463 64.2648 51.3723 64.5164 51.3553C65.0272 51.0469 65.5851 50.8252 66.1676 50.6993ZM94.6959 49.4593C94.6959 49.3853 95.244 49.9113 95.1932 49.9123C95.2092 50.2973 95.7383 51.2063 95.047 51.2373C94.8907 51.1143 94.728 50.9998 94.5596 50.8943C94.5477 50.6773 94.3885 50.6653 94.3776 50.4263C94.2453 50.4333 94.3119 49.9953 94.3119 50.0013C94.1836 50.0073 94.3408 49.4763 94.6979 49.4593M67.7741 51.3223C67.876 51.396 67.9846 51.46 68.0984 51.5133C68.0984 51.5413 68.1829 51.6693 68.2147 51.6673C68.2257 51.8773 68.1829 51.9723 68.1899 52.1443C68.0957 52.1883 68.0205 52.265 67.978 52.3603C67.9332 52.3603 67.8895 52.4343 67.8895 52.4753C67.7403 52.4823 67.6696 52.5973 67.4687 52.6073C67.3265 52.6123 66.9932 52.5513 66.9853 52.4073C66.8341 52.4143 66.7366 51.8483 66.9137 51.8393C66.8997 51.5563 67.4707 51.3393 67.7741 51.3243M111.037 49.5583C111.291 49.7549 111.528 49.9723 111.746 50.2083C111.761 50.5083 112.034 50.6013 112.045 50.9413C112.156 50.9353 112.002 51.4053 112.006 51.5303C111.906 51.5303 111.846 51.8553 111.707 51.8623C111.719 52.1223 111.173 52.0443 110.991 52.0533C110.983 51.8843 110.604 51.9253 110.593 51.7533C110.463 51.7603 110.453 52.1183 110.459 52.2373C110.487 52.2373 110.311 52.4893 110.311 52.4983C110.193 52.5043 110.112 52.8243 109.964 52.8313C109.977 53.1033 109.423 52.9183 109.337 52.9233C109.328 52.7363 109.056 52.6233 109.039 52.3493C109.03 52.1613 109.138 52.0943 109.129 51.9163C109.168 51.9071 109.203 51.8863 109.23 51.8567C109.257 51.8271 109.275 51.79 109.28 51.7503C109.442 51.7433 109.431 51.4893 109.629 51.4803C109.624 51.3543 109.893 51.3483 109.896 51.4043C110.294 51.3863 110.328 51.5623 110.305 51.0213C110.205 51.0213 110.03 49.9213 110.144 49.9153C110.129 49.5963 110.715 49.5733 111.028 49.5593M79.1973 51.2803C79.2404 51.3707 79.2975 51.4538 79.3664 51.5263C79.3833 51.8763 79.3286 52.0863 79.3435 52.3853C79.2769 52.3853 79.0322 53.5583 79.3008 53.5463C79.3008 53.6463 79.5335 54.0113 79.638 54.0073C79.638 54.0953 79.7295 54.3203 79.8091 54.3173C79.821 54.5853 79.9841 54.7173 79.9981 55.0113C80.011 55.2733 80.0229 56.1653 79.7822 56.1753C79.7932 56.4163 79.1705 56.6253 79.1605 56.4113C79.0451 56.4163 78.8313 56.1023 78.8273 55.9973C78.692 56.0033 78.5726 55.5333 78.4413 55.5393C78.3591 55.3844 78.246 55.2483 78.1091 55.1393C78.1002 54.9533 77.7809 54.8513 77.7719 54.6773C77.6273 54.5705 77.5123 54.4283 77.4377 54.2643C77.2387 54.2733 77.2387 53.9083 77.0398 53.9173C77.0398 53.7983 76.812 53.5463 76.7086 53.5513C76.6966 53.3063 76.3375 53.3513 76.3286 53.1513C76.0302 53.1643 76.1953 52.7063 76.1893 52.5693C76.2808 52.5693 76.5007 52.4693 76.4977 52.3963C76.7842 52.3833 76.9533 52.2643 77.2815 52.2483C77.2875 52.3853 77.9848 52.4143 77.9778 52.2803C78.1111 52.2803 78.1688 51.9553 78.2762 51.9503C78.3215 51.8024 78.4025 51.6681 78.512 51.5593C78.502 51.3413 78.9646 51.2843 79.1933 51.2733M100.696 53.0873C100.696 53.1303 100.871 53.2383 100.923 53.2363C100.932 53.4173 100.933 53.4743 100.945 53.7113C100.765 53.7203 100.757 54.1963 100.587 54.2043C100.593 54.3043 100.538 54.4763 100.663 54.4713C100.663 54.5893 100.873 54.5803 100.868 54.4603L101.608 54.4273C101.616 54.5963 101.937 54.6993 101.947 54.9363C102.1 54.9283 101.963 55.6363 101.758 55.6433C101.766 55.8213 101.405 55.8383 101.412 56.0243C101.107 56.0383 100.928 56.6823 100.653 56.6943C100.665 56.9753 100.041 57.1653 100.056 57.5153C99.8475 57.5253 99.8236 58.3423 99.8365 58.5683C99.8604 59.1033 100.107 59.6633 100.129 60.1633C100.297 60.3963 100.416 60.6609 100.479 60.9413C100.637 60.9353 100.708 61.4073 100.864 61.4003C100.87 61.5623 101.234 61.7003 101.398 61.6943C101.647 61.6823 101.806 61.5643 102.118 61.5503C102.343 61.5403 102.338 61.6993 102.502 61.6913C102.509 61.7913 102.753 62.4263 102.442 62.4403C102.452 62.6613 101.607 62.8203 101.601 62.6853C101.458 62.6913 100.867 62.5203 100.881 62.8293C100.705 62.8373 100.634 63.1583 100.423 63.1673C100.432 63.4213 99.4068 63.0753 99.4168 63.3093C99.374 63.3093 99.2178 63.4093 99.2178 63.4763L98.2231 63.5213C98.2231 63.6283 97.8103 63.7003 97.6959 63.7053C97.6959 63.7333 97.4433 63.5573 97.4343 63.5573C97.4254 63.3843 96.7907 63.2973 96.8027 63.5393C96.6683 63.6118 96.5629 63.7287 96.5043 63.8703C96.3053 63.8783 95.609 63.9923 95.5971 63.7053C95.1186 63.7273 95.1316 62.8213 94.7695 62.8373C94.7645 62.7493 94.3308 62.5373 94.2343 62.5453C94.2343 62.5053 94.116 62.3913 94.0702 62.3943C94.0642 62.3153 93.9041 61.8773 94.0921 61.8683C94.0851 61.6753 94.2373 61.2743 94.4283 61.2683C94.4213 61.0933 95.5424 60.9483 95.7831 60.9373C95.9243 60.9303 96.6972 61.1013 96.7002 61.2123C96.9201 61.2023 97.686 61.0283 97.68 60.8493C98.2092 60.8253 98.7473 61.0863 98.7185 60.4383C98.5504 60.4443 98.5026 59.9703 98.2719 59.9813C98.252 59.5533 96.9947 59.7023 96.9787 59.3593C96.8743 59.3593 96.6057 59.1503 96.6017 59.0593C96.3531 59.0693 96.2616 58.4873 96.2476 58.2163C96.2476 58.2163 96.5888 57.7163 96.5888 57.7243C96.7032 57.7243 96.8096 57.6243 97.0116 57.6103C97.0116 57.5383 97.3905 57.6413 97.5805 57.6313C97.5895 57.8133 98.3047 57.3923 98.3604 57.3903C98.3697 57.3525 98.3882 57.3177 98.4143 57.2889C98.4403 57.2601 98.4731 57.2382 98.5096 57.2253C98.5036 57.0773 98.6548 56.9253 98.6449 56.6783C98.4702 56.3596 98.3473 56.0149 98.2808 55.6573C98.2758 55.5573 98.1813 55.1753 98.3216 55.1683C98.3027 54.7333 98.3674 55.1003 98.3574 54.8493C98.4867 54.8433 98.4499 54.5753 98.5474 54.5713C98.6168 54.4367 98.7196 54.3223 98.8458 54.2393C98.8369 54.0773 99.2626 54.0183 99.2536 53.8563C99.3362 53.8563 99.7609 53.5373 99.758 53.4563C99.9569 53.4473 99.9569 53.2883 100.127 53.2803C100.127 53.1643 100.544 53.1033 100.69 53.0963M72.9744 55.5793C72.9744 55.5693 73.626 55.8673 73.6657 55.8643C73.6657 55.9123 73.8577 56.0643 73.8945 56.0643C73.9025 56.2373 73.9393 55.9743 73.9532 56.2843C74.0726 56.2783 73.9671 56.5713 73.9701 56.6483C73.8578 56.7635 73.7578 56.8902 73.6717 57.0263C73.617 57.0263 73.4111 57.2073 73.4141 57.2613C73.24 57.2683 73.1704 57.4313 73.0112 57.4373C73.0112 57.5503 72.1279 57.8373 72.122 57.6853C71.7241 57.7033 71.8733 56.7273 71.8584 56.4263C71.9486 56.2468 72.0642 56.0815 72.2015 55.9353C72.2815 55.898 72.3501 55.84 72.4005 55.7673C72.5626 55.7593 72.7287 55.5933 72.9764 55.5823M84.4633 55.6463C84.4633 55.7253 84.8473 55.9463 84.9497 55.9463C84.9627 56.2273 86.1533 56.0263 86.1434 55.8903C86.221 55.8903 86.5194 55.8163 86.5234 55.9203C86.6228 55.9153 86.5174 55.9693 86.6228 55.9643C86.6278 56.0523 86.773 56.3853 86.595 56.3943C86.6079 56.7093 86.2966 56.8843 86.3115 57.1533C85.9554 57.1693 85.8141 57.8113 85.4441 57.8283C85.3641 57.9687 85.2635 58.0961 85.1457 58.2063C85.1556 58.4603 85.2601 59.0433 85.4988 59.0333C85.5038 59.1103 85.5983 59.2503 85.6669 59.2473C85.6729 59.4003 85.6868 59.6653 85.6918 59.8183C85.5505 59.8253 85.5008 60.1433 85.3426 60.1513C85.3536 60.3453 84.6822 60.5053 84.6712 60.2933C84.4633 60.3023 84.5011 59.8253 84.2733 59.8353C84.2644 59.6563 83.6884 59.5023 83.6954 59.6543C83.021 59.6853 83.0638 59.6543 83.025 58.8273C83.1961 58.8203 82.9255 57.3553 83.1642 57.3443C83.1533 57.1023 83.4626 57.0203 83.4567 56.8073C83.6387 56.7983 83.6854 56.1613 83.8545 56.1543C83.8396 55.8413 84.138 55.6643 84.4653 55.6543M77.1552 56.0813C77.3218 56.1528 77.4833 56.2357 77.6386 56.3293C77.6456 56.4643 77.9141 56.4963 77.9201 56.6353C78.1191 56.6253 78.5408 57.3923 78.5508 57.6063C78.689 57.6003 78.7497 58.2333 78.8929 58.2263C78.8929 58.3043 79.062 58.7583 78.9168 58.7653C78.9168 58.8483 78.8482 59.2443 78.7805 59.2473C78.7915 59.4703 78.6811 59.4343 78.689 59.6643C78.6482 59.6643 78.5358 59.7813 78.5378 59.8303L78.1748 59.8473C78.1378 59.7808 78.0806 59.7279 78.0116 59.6963C77.8652 59.2859 77.6506 58.9035 77.377 58.5653C77.37 58.4193 76.8797 57.6833 76.7513 57.6893C76.7513 57.7003 75.9635 56.8353 76.2391 56.8233C76.2231 56.4583 76.8041 56.0973 77.1552 56.0813ZM119.147 56.6133C119.147 56.7003 119.355 56.6883 119.364 56.8573C119.539 56.8493 119.433 57.3933 119.607 57.3853C119.621 57.6793 120.06 58.6363 119.554 58.6593C119.562 58.7923 118.427 59.0753 118.199 59.0853C118.193 58.9233 117.672 58.9053 117.66 58.6853C117.388 58.6973 117.154 57.9133 117.361 57.9053C117.351 57.6453 117.884 57.5783 117.876 57.4053C118.064 57.3963 118.193 57.0243 118.379 57.0163C118.379 56.9083 118.532 56.9063 118.527 56.8043C118.554 56.8043 118.681 56.7193 118.679 56.6853C118.824 56.6783 118.954 56.6243 119.151 56.6163M124.104 57.8673C124.099 57.8173 124.613 58.4793 124.494 58.4843C124.503 58.6513 124.605 59.2263 124.434 59.2333C124.443 59.4163 124.082 59.2973 124.011 59.3003C123.999 59.2625 123.978 59.2286 123.949 59.202C123.92 59.1755 123.884 59.1572 123.846 59.1493C123.836 58.9033 123.671 58.7393 123.656 58.4743C123.641 58.0983 123.597 57.8903 124.104 57.8673ZM60.4202 60.9143C60.5883 61.1504 60.7952 61.356 61.0319 61.5223C61.0598 62.1283 63.0273 61.6223 63.0383 61.9083C63.1815 61.9013 63.47 62.0083 63.4769 62.1563C63.6968 62.1473 63.653 62.5623 63.659 62.6733C63.5496 62.6733 63.6162 62.8333 63.3486 62.8453C63.3546 62.9653 63.0572 62.9703 62.9289 62.9763C62.685 63.1104 62.4229 63.2081 62.151 63.2663C61.7928 63.523 61.3977 63.723 60.9792 63.8593C60.8567 63.9713 60.7174 64.0631 60.5664 64.1313C60.5754 64.3563 59.9945 64.3173 59.892 64.3213C59.886 64.1493 59.7806 64.2363 59.7687 64.0103C59.6433 64.0103 59.7468 63.5283 59.7438 63.4453C59.7199 62.9133 59.8144 62.5363 59.7935 62.1033C59.9059 62.0983 59.8453 61.3033 59.9626 61.3033C59.9527 61.0493 60.1486 60.9303 60.4202 60.9163M116.92 58.7693C116.927 58.9133 117.029 58.7003 117.036 58.9233C117.14 58.9173 117.097 59.2073 117.101 59.2853C116.989 59.2913 117.055 59.7163 116.914 59.7233C116.929 59.9983 116.258 60.2033 116.247 59.9593C115.892 59.9763 116.305 59.1743 116.304 59.1153C116.423 59.1153 116.389 58.9523 116.516 58.9473C116.51 58.7883 116.761 58.7773 116.92 58.7693ZM65.9209 61.3493C65.9279 61.4853 66.1776 61.4223 66.1835 61.5593C66.3825 61.5503 66.3119 61.9463 66.3178 62.0783C66.1494 62.2653 65.9609 62.4329 65.7558 62.5783C65.4186 62.5953 65.7916 62.5293 65.3898 62.5473C65.3898 62.5123 65.2455 62.3953 65.2266 62.3963C65.2278 62.3811 65.2254 62.3659 65.2198 62.3517C65.2142 62.3376 65.2055 62.3249 65.1942 62.3147C65.183 62.3044 65.1696 62.2969 65.1551 62.2927C65.1405 62.2885 65.1252 62.2877 65.1103 62.2903C65.1013 62.0753 65.157 61.9013 65.15 61.7643C65.2422 61.7143 65.313 61.6321 65.349 61.5333C65.5012 61.5273 65.6474 61.3603 65.9239 61.3483M75.9625 62.2253C76.0878 62.2656 76.2107 62.313 76.3306 62.3673C76.3385 62.5043 76.4072 62.6233 76.4101 62.7283C76.5325 62.7223 76.2848 63.4463 76.2878 63.5283C76.2221 63.5283 75.7696 63.8863 75.7526 63.5533C75.6383 63.5583 75.4115 62.9413 75.4055 62.7983C75.4002 62.7228 75.4109 62.6471 75.4368 62.5761C75.4628 62.5051 75.5034 62.4404 75.5561 62.3864C75.6087 62.3323 75.6722 62.2901 75.7422 62.2625C75.8123 62.2349 75.8874 62.2226 75.9625 62.2263M117.845 60.4093C117.845 60.3403 118.418 60.8093 118.384 60.8093C118.39 60.9163 118.702 61.1613 118.83 61.1553C118.984 61.3072 119.165 61.428 119.365 61.5113C119.365 61.5333 119.564 61.9793 119.543 61.9803C119.55 62.1303 119.512 62.3303 119.522 62.5413C119.531 62.7073 119.432 62.8273 119.534 62.8213C119.55 63.1773 119.417 63.6683 119.036 63.6863C118.571 63.8748 118.084 64.0039 117.586 64.0703C117.595 64.2543 116.648 64.3193 116.659 64.5403C116.569 64.5453 116.304 64.6933 116.305 64.7643C116.155 64.7703 115.999 64.8413 115.772 64.8513C115.772 64.7643 115.643 64.7513 115.564 64.7513C115.556 64.6173 115.399 64.5943 115.388 64.3633C115.372 64.0313 115.354 63.6023 115.331 63.1503C115.323 62.9603 115.301 61.7503 115.158 61.7503C115.152 61.6263 115.217 61.2723 115.406 61.2633C115.393 60.9823 116.341 61.0063 116.332 60.7923C116.87 60.7673 117.26 60.4333 117.846 60.4063M123.732 60.2483C123.738 60.4043 124.414 60.3223 124.429 60.6483C124.567 61.178 124.646 61.7218 124.662 62.2693C124.668 62.4083 124.662 62.6393 124.52 62.6453C124.52 62.7453 124.321 62.8533 124.321 62.7663C124.09 62.7763 123.683 62.5733 123.671 62.3663C123.517 62.3743 123.437 62.0593 123.295 62.0663C123.201 61.8548 123.064 61.6661 122.891 61.5133C122.891 61.4953 122.41 60.6773 122.646 60.6673C122.629 60.2593 123.328 60.2673 123.74 60.2513M105.586 61.7133C105.586 61.7653 105.794 61.8633 105.843 61.8623C105.852 62.0273 106.011 62.0333 106.017 62.2193C106.195 62.3933 106.333 62.6037 106.424 62.8363C106.523 62.8313 106.523 63.3703 106.387 63.3763C106.387 63.4643 106.188 63.4683 106.188 63.5923C105.998 63.69 105.828 63.8215 105.685 63.9803C105.586 63.9853 105.156 64.1333 105.148 63.9563C105.049 63.9613 105.043 63.8033 104.934 63.8083C104.929 63.6953 104.767 63.6083 104.764 63.4983C104.554 63.5073 104.784 62.9333 104.781 62.8623C104.972 62.8533 104.997 62.3293 105.135 62.3223C105.125 62.0793 105.334 61.7223 105.585 61.7133M89.0887 62.6733C89.0887 62.7643 89.1404 62.7623 89.1355 62.6733C89.2697 62.6663 89.8865 62.8733 89.8934 63.0193C90.1103 63.0083 90.2426 63.7563 90.2535 64.0023C90.4355 63.9953 90.2267 64.4563 90.2276 64.4813C90.0854 64.4863 90.0645 64.6463 89.8298 64.6573C89.5234 64.6713 89.1802 64.5753 88.8808 64.5893L87.7986 64.6393C87.7986 64.5963 87.0028 64.5303 86.9939 64.2633C86.7521 64.2743 87.0297 63.6823 87.0297 63.6733C87.0764 63.6733 87.2734 63.5093 87.2724 63.4563C87.3788 63.4513 87.8901 63.1423 87.8841 63.0473C88.0831 63.0383 88.1248 62.8773 88.3039 62.8683C88.2969 62.7063 88.9007 62.6833 89.0857 62.6753M78.5816 63.2623C78.6267 63.3375 78.6834 63.405 78.7497 63.4623C78.7597 63.7073 78.883 63.9973 78.9009 64.3623C78.7467 64.3693 78.8462 64.5713 78.6413 64.5803C78.6413 64.6983 78.2832 64.7563 78.1758 64.7603C78.1758 64.6783 77.9211 64.7083 77.9122 64.5183C77.7371 64.5263 77.936 63.9793 77.9311 63.8823C78.0305 63.8773 78.0047 63.4983 78.1181 63.4933C78.1091 63.2773 78.3657 63.2753 78.5816 63.2643M112.161 61.7823C112.161 61.9023 112.595 61.9523 112.606 62.1903C112.672 62.1903 112.833 62.5443 112.669 62.5523C112.678 62.7743 112.476 62.8193 112.481 62.9413C112.434 62.9413 112.282 63.0633 112.282 63.1093C112.099 63.1183 111.747 63.1543 111.738 62.9753C111.563 62.9843 111.478 62.2413 111.453 62.2423C111.441 61.9803 111.879 61.7943 112.16 61.7823M113.481 63.0993C113.481 63.0323 114.193 63.8133 113.829 63.8293C113.828 63.9785 113.772 64.122 113.672 64.2326C113.572 64.3432 113.436 64.4131 113.288 64.4293C113.297 64.6363 112.865 64.3533 112.811 64.3553C112.811 64.3173 112.726 64.1373 112.689 64.1383C112.679 63.9173 112.722 63.7923 112.713 63.6133C112.761 63.6133 112.923 63.3273 112.921 63.2863C112.934 63.285 112.947 63.2809 112.959 63.2743C112.971 63.2677 112.982 63.2587 112.99 63.248C112.998 63.2372 113.004 63.2248 113.008 63.2117C113.011 63.1985 113.012 63.1847 113.009 63.1713C113.154 63.1643 113.285 63.1113 113.481 63.1023M85.8281 64.9513C85.8281 65.0513 86.0877 65.1033 86.0946 65.3283C86.1016 65.4523 85.9693 65.9443 85.8718 65.9483C85.7703 66.2011 85.5916 66.415 85.3615 66.5593C85.179 66.8026 84.9371 66.9944 84.6593 67.1163C84.6702 67.3363 83.586 67.7743 83.5721 67.4823C83.2985 67.4953 82.9901 66.8273 83.0667 66.8223C83.0598 66.6353 83.1861 66.3893 83.3652 66.3803C83.3652 66.3193 83.6854 66.0973 83.763 66.0923C83.7551 65.9923 84.5001 65.5353 84.6354 65.5283C84.6354 65.4613 85.0611 65.2393 85.1437 65.2353C85.1347 65.0763 85.6609 64.9583 85.8281 64.9513ZM107.015 64.3023C107.024 64.4873 107.34 64.5103 107.355 64.8103C107.465 64.8053 107.752 65.5853 107.759 65.7453C107.884 65.7393 108.175 66.5703 108.183 66.7253C108.371 67.0613 108.509 67.4232 108.592 67.7993C108.604 68.0693 108.768 68.2413 108.78 68.5283C108.788 68.6843 108.789 69.0353 108.646 69.0413C108.652 69.1463 108.003 69.4413 107.874 69.4413C107.73 69.5997 107.562 69.7347 107.376 69.8413C107.376 69.9183 107.16 69.9413 107.165 70.0573C106.945 70.0683 107.22 70.1033 106.914 70.1173C106.923 70.2933 106.796 70.1173 106.758 70.1233C106.77 70.4043 106.169 69.5163 106.3 69.5093C106.29 69.2283 106.126 69.1093 106.115 68.8823C106.034 68.8823 105.957 68.8733 105.954 68.7943C105.789 68.8023 105.712 68.8533 105.594 68.8583C105.603 69.0293 105.068 69.1033 105.077 69.3113C104.763 69.3253 104.822 69.9583 104.633 69.9663C104.666 70.6953 103.604 70.9663 102.895 70.9983C102.888 70.8333 102.458 70.7383 102.443 70.4323C102.317 70.4383 102.134 69.4453 102.084 69.4473C102.075 69.2743 102.357 68.7993 102.527 68.7913C102.519 68.5913 102.987 68.4603 102.978 68.2913C103.177 68.2823 103.216 67.8043 103.43 67.7913C103.417 67.5113 104.207 67.4913 104.197 67.2803C104.385 67.2713 104.465 66.8393 104.651 66.8313C104.645 66.7413 104.766 66.5083 104.857 66.5033C104.841 66.1803 104.985 65.8573 104.968 65.4983C104.874 65.4983 104.954 65.1563 104.948 65.0223C104.996 65.0223 105.039 64.8963 105.036 64.8593C105.196 64.8533 105.263 64.7373 105.458 64.7293C106.11 64.6993 106.385 64.3213 107.015 64.2933M78.4344 65.6523C78.4403 65.8013 79.2769 65.7923 79.2938 66.1373C79.4132 66.1313 79.5196 66.5723 79.5256 66.7143C79.7146 66.7053 79.6957 68.0253 79.7056 68.2733C79.7116 68.4193 79.7583 69.3543 79.6449 69.3593C79.6579 69.6773 78.9268 69.5593 78.9168 69.3303C78.7179 69.3393 78.5717 68.9303 78.3638 68.9413C78.3538 68.7353 77.8306 68.7033 77.8177 68.4263C77.6446 68.4343 77.745 66.8353 77.7391 66.6833C77.8704 66.6773 77.6098 65.9593 77.8177 65.9493C77.8057 65.7063 78.1827 65.6633 78.4344 65.6493M89.4239 65.5793C89.4239 65.6683 89.8507 65.6273 89.8626 65.8793C90.0118 65.8723 90.1003 66.4393 89.9362 66.4473C89.9452 66.6273 89.6627 66.6823 89.4737 66.6913C89.4826 66.8653 88.838 66.6383 88.846 66.8143L88.3745 66.8353C88.3745 66.9273 88.3317 66.9293 88.3268 66.8353C88.1835 66.8413 87.9378 66.8523 87.7449 66.8623C87.7399 66.7783 87.5947 66.6623 87.6872 66.6623C87.702 66.5719 87.7426 66.4878 87.804 66.4201C87.8655 66.3525 87.9451 66.3043 88.0333 66.2813C88.1964 66.1271 88.3904 66.0098 88.6023 65.9373C88.6023 65.8283 89.2936 65.5883 89.4239 65.5823M86.595 66.9823C86.595 67.0303 86.8039 67.1823 86.8098 67.1823C86.8367 67.436 86.9007 67.6844 86.9998 67.9193C87.0108 68.1463 87.1242 68.1873 87.1391 68.4853C87.0257 68.4903 87.0814 68.7583 86.9461 68.7633C86.9461 68.9103 86.5771 69.0443 86.583 69.1443C86.5532 69.1443 86.1802 69.3373 86.1802 69.3243C85.8221 69.3383 85.5396 69.2573 85.277 69.2683C85.2676 69.2299 85.2471 69.1951 85.2181 69.1684C85.189 69.1417 85.1528 69.1243 85.1139 69.1183C85.1049 68.9383 85.0711 68.5793 85.2471 68.5713C85.2412 68.4713 85.4889 67.9893 85.5824 67.9843C85.5704 67.7083 85.8808 67.5903 85.8698 67.3363C85.9872 67.3303 85.9554 67.1743 86.0837 67.1683C86.0747 67.0253 86.4418 66.9923 86.595 66.9853M123.126 66.8443C123.107 66.9093 123.126 66.9283 123.19 66.9053C123.166 66.8483 123.181 66.8263 123.235 66.8403C123.243 67.0133 123.557 66.9863 123.569 67.2523C123.821 67.2413 123.768 68.0613 123.773 68.2443C123.602 68.2523 123.544 69.2703 123.661 69.2653C123.661 69.3493 123.942 69.5703 124.037 69.5653C124.043 69.6593 124.148 69.6043 124.156 69.7183C124.315 69.7103 124.368 69.9183 124.377 70.0733C124.543 70.0663 124.191 70.5453 124.196 70.6063C124.071 70.6063 124.025 71.0423 123.898 71.0483C123.841 71.2654 123.743 71.4693 123.608 71.6483C123.619 71.8773 123.361 72.1033 123.369 72.2953C123.28 72.2953 123.203 72.3953 123.01 72.4073C122.943 72.353 122.872 72.3032 122.797 72.2583C122.783 71.9293 122.549 71.6403 122.531 71.2223C122.394 70.8697 122.308 70.4993 122.276 70.1223C122.177 70.1223 122.112 69.3353 122.288 69.3223C122.288 69.2633 122.601 68.5153 122.568 68.5163C122.592 68.1141 122.664 67.7163 122.781 67.3313C122.775 67.1483 122.956 66.8473 123.124 66.8393M124.653 67.8323C124.639 67.8813 124.653 67.8963 124.702 67.8783C124.702 67.7783 124.813 67.8783 124.816 67.9383C124.923 67.9323 124.915 68.1863 124.926 68.2973C125.045 68.2923 124.385 68.9363 124.371 68.5973C124.136 68.6073 124.197 68.2453 124.192 68.1283C124.32 68.1223 124.427 67.8483 124.653 67.8363M129.272 67.6273C129.272 67.6413 129.697 68.1953 129.407 68.2083C129.416 68.3823 128.826 68.5533 128.681 68.5593C128.676 68.4393 128.37 68.6513 128.361 68.4593C128.155 68.4683 128.237 68.1593 128.232 68.0363C128.367 68.0303 128.29 67.8273 128.491 67.8183C128.48 67.6273 129.073 67.6323 129.272 67.6243M84.2047 70.0443C84.2047 70.1363 84.4802 70.2003 84.4882 70.3493C84.6013 70.4524 84.6923 70.5776 84.7558 70.7173C84.7975 70.7173 85.6808 71.2173 85.6779 71.2003C86.1155 71.1803 86.3304 71.6703 86.3523 72.1213C86.4677 72.1213 86.394 72.7553 86.223 72.7623C86.2289 72.8763 85.8171 73.0513 85.7157 73.0553C85.7216 73.1843 85.2481 73.1883 85.2541 73.3313C85.1546 73.3363 84.6792 73.5313 84.6821 73.6313C84.528 73.6393 83.6596 74.3753 83.6327 73.8393C83.4666 73.8453 83.4845 72.5803 83.4706 72.3533C83.4567 72.1263 83.3453 70.9453 83.3453 70.9453C83.3393 70.8043 83.2955 70.4713 83.4328 70.4653C83.4278 70.3493 83.5412 70.3983 83.5323 70.3023C83.6317 70.3023 83.5701 70.1883 83.6855 70.1833C83.6785 70.0373 84.0535 70.0553 84.1997 70.0493M114.665 69.5663C114.665 69.6363 115.031 69.6463 115.04 69.8173C115.269 69.8073 115.175 70.3883 115.182 70.5413C115.163 70.5413 114.417 71.0873 114.417 71.0533C113.67 71.0883 113.658 70.7473 113.63 70.1363C113.73 70.1313 113.829 69.8743 113.997 69.8663C113.997 69.7803 114.558 69.5663 114.665 69.5663ZM128.881 69.6003C129.125 69.6864 129.376 69.749 129.631 69.7873C129.637 69.8873 130.604 69.9503 130.745 69.9433C130.745 69.9383 131.075 70.2433 131.075 70.2433C131.081 70.3893 131.139 70.8273 130.99 70.8333C130.999 70.9843 130.89 71.0053 130.89 71.1553C130.7 71.1643 130.53 71.6483 130.345 71.6553C130.138 71.9001 129.876 72.0918 129.58 72.2143C129.591 72.4613 128.428 72.6143 128.437 72.7893C128.357 72.7943 127.972 72.9653 127.964 72.8113C127.853 72.8113 127.795 72.7233 127.708 72.7283C127.694 72.4623 127.461 72.1413 127.447 71.8583C127.418 71.1903 126.928 70.8413 126.896 70.1133C126.868 70.1133 127.302 69.7063 127.305 69.7763C127.881 69.7503 128.352 69.6183 128.877 69.5943M101.949 71.1373C101.955 71.2783 102.157 71.2083 102.172 71.5083C102.301 71.5083 102.123 71.9243 102.094 71.9253C102.105 72.1563 101.689 72.3453 101.696 72.4833C101.55 72.4791 101.411 72.4181 101.309 72.313C101.207 72.208 101.149 72.0671 101.149 71.9203C100.89 71.9323 101.172 71.3743 101.171 71.3323C101.208 71.3323 101.326 71.2803 101.325 71.2323C101.524 71.2233 101.687 71.1533 101.952 71.1403M105.152 70.9953C105.16 71.1153 105.274 71.2323 105.284 71.4643C105.292 71.4643 105.136 71.7123 105.138 71.7413C105.101 71.7531 105.067 71.7748 105.041 71.8042C105.015 71.8336 104.997 71.8695 104.989 71.9083L104.467 71.9313C104.467 71.8873 104.28 71.7313 104.398 71.7313C104.384 71.5103 104.498 71.4263 104.487 71.2983C104.524 71.2863 104.558 71.2646 104.584 71.2352C104.611 71.2059 104.629 71.17 104.637 71.1313C104.769 71.1263 104.905 71.0083 105.152 70.9983M103.273 71.3533C103.273 71.3363 103.882 71.8533 103.882 71.8533C103.882 71.9133 103.918 72.0753 104.001 72.0703C104.01 72.2523 103.902 72.3233 103.909 72.4883C103.891 72.4883 103.448 72.8113 103.447 72.7793C103.024 72.7983 102.49 72.5793 102.473 72.1643C102.464 72.0562 102.478 71.9475 102.515 71.8457C102.552 71.7439 102.611 71.6514 102.687 71.5747C102.763 71.4979 102.855 71.4387 102.956 71.4012C103.058 71.3636 103.166 71.3487 103.273 71.3573M97.1468 72.1143C97.1538 72.3033 97.299 72.0013 97.306 72.1533C97.4055 72.1533 97.7288 72.0603 97.7347 72.1973C97.9486 72.1873 97.7675 72.2423 97.8959 72.2383C97.8959 72.3233 98.1067 72.7053 97.8063 72.7183C97.8173 72.9543 97.0862 73.3863 96.8415 73.3983C96.8464 73.5153 96.369 73.4393 96.3759 73.5783C96.177 73.5863 95.9084 73.5993 95.7433 73.6073C95.7483 73.6553 95.2738 73.0403 95.3564 73.0373C95.3484 72.8263 95.4369 72.7013 95.43 72.5573C95.4916 72.5573 95.6916 72.4473 95.6906 72.3853C96.1641 72.3643 96.6505 72.1363 97.1468 72.1143ZM112.296 72.8043C112.296 72.9043 112.342 72.7943 112.345 72.8963C112.474 72.8913 112.42 73.1123 112.423 73.2103C112.379 73.2103 112.277 73.4673 112.281 73.5353C112.1 73.5443 112.092 74.0213 111.923 74.0283C111.935 74.2923 111.625 74.4623 111.642 74.7393C111.49 74.7463 111.493 75.2703 111.3 75.2783C111.31 75.4943 110.843 75.6103 110.823 75.2533C110.592 75.2633 110.912 73.6773 110.909 73.5983C110.988 73.5983 111.108 73.4093 111.102 73.3343C111.27 73.3273 111.276 73.1683 111.474 73.1583C111.465 72.9663 112.07 72.8143 112.296 72.8043ZM107.614 73.0643C107.619 73.1643 107.89 73.1803 107.895 73.3233C108.018 73.3163 108.182 73.7493 108.193 73.8813C108.202 74.0613 108.1 74.4253 107.901 74.4333C107.919 74.7803 107.403 74.4563 107.32 74.4613C107.308 74.2073 106.829 74.0613 106.822 73.8473C106.548 73.8603 106.847 73.3613 106.842 73.3073C106.971 73.3013 106.894 73.2073 107.061 73.2073C107.053 73.0393 107.469 73.0773 107.622 73.0693M99.7798 74.2693C99.7798 74.3633 100.006 74.4043 100.015 74.5753C100.084 74.5753 100.162 75.3153 99.9847 75.3243C99.9927 75.4853 99.8365 75.5493 99.8405 75.6483C99.7938 75.6483 99.6853 75.6943 99.6883 75.7663C99.5651 75.7584 99.4424 75.7424 99.3213 75.7183C99.3213 75.6183 99.1591 75.5773 99.1522 75.4093C99.0457 75.4143 98.9254 74.7373 99.0746 74.7303C99.0597 74.4303 99.4725 74.2833 99.7798 74.2693ZM119.465 74.0063C119.525 74.1033 119.598 74.1912 119.682 74.2673C119.701 74.7093 119.839 75.3423 119.862 75.8103C119.881 76.2433 120.009 76.6273 120.028 77.0103C120.038 77.2393 120.092 77.3993 120.102 77.6663C120.111 77.8053 120.189 78.1663 120.127 78.1733C120.135 78.3503 120.092 78.4633 120.098 78.5873C120.069 78.5904 120.043 78.6037 120.023 78.6248C120.004 78.646 119.992 78.6735 119.991 78.7023C119.976 78.7023 119.264 79.0103 119.26 78.9433C119.067 78.9523 118.322 79.1583 118.314 78.9433C118.159 78.9493 118.123 78.7433 117.987 78.7513C117.987 78.6653 117.817 78.3773 117.765 78.3793C117.756 78.1903 117.773 77.5853 117.935 77.5793C117.918 77.2063 118.333 76.8593 118.312 76.4503C118.392 76.4503 118.495 75.9843 118.49 75.8713C118.645 75.8643 118.582 75.2313 118.728 75.2253C118.744 74.9554 118.785 74.6876 118.85 74.4253C118.835 74.0693 119.092 74.0343 119.465 74.0163M106.281 74.8403C106.435 74.9733 106.569 75.1275 106.679 75.2983C106.679 75.3683 106.756 75.4983 106.846 75.4983C106.846 75.6153 107.06 75.6643 107.061 75.7573C107.247 75.8433 107.426 75.9412 107.599 76.0503C107.898 76.0363 108.073 76.3503 108.354 76.3323C108.481 76.4713 108.63 76.5885 108.795 76.6793C108.804 76.8673 108.902 76.9673 108.917 77.2393C108.93 77.5613 108.853 77.9573 108.868 78.2843C108.874 78.4493 108.838 80.1713 108.795 80.1723C108.802 80.3343 108.894 81.2323 108.78 81.2363C108.79 81.4873 108.633 81.4763 108.637 81.6083C108.46 81.5907 108.285 81.5616 108.113 81.5213C108.113 81.4483 107.978 81.3703 107.902 81.3723C107.893 81.2033 107.514 81.1893 107.504 81.0253C107.248 81.0373 107.524 80.0663 107.517 79.9133C107.722 79.9043 107.253 78.9343 107.248 78.8613C107.114 78.7249 107.001 78.5692 106.912 78.3993C106.767 78.4063 106.704 78.0443 106.532 78.0533C106.532 77.9383 106.3 77.6983 106.199 77.7023C106.19 77.6638 106.169 77.6289 106.14 77.6021C106.112 77.5752 106.075 77.5575 106.037 77.5513C106.028 77.3573 105.867 77.3103 105.856 77.0513C105.847 76.8653 106.033 75.8043 106.003 75.8053C105.993 75.5473 105.841 74.8603 106.277 74.8403M113.065 74.7403C113.065 74.6713 113.386 74.9323 113.451 74.9293C113.462 75.1573 113.579 75.8293 113.273 75.8423C113.273 75.9573 113.066 76.3293 112.975 76.3323C112.987 76.5743 112.676 76.7203 112.689 76.9813C112.608 76.9813 112.403 77.6813 112.408 77.7883C112.286 77.7883 112.209 78.5423 112.08 78.5493C112.043 78.6282 111.992 78.7002 111.93 78.7623C111.937 78.9003 111.68 78.9313 111.543 78.9393C111.219 78.9533 111.177 78.6393 110.979 78.6463C110.979 78.5643 110.732 78.2293 110.645 78.2333C110.636 78.0513 110.524 78.0133 110.514 77.7613C110.414 77.7673 110.563 77.5053 110.613 77.5033C110.599 77.1513 111.225 77.0253 111.21 76.6823C111.508 76.6693 111.633 75.9173 111.917 75.9043C111.975 75.7621 112.081 75.6448 112.216 75.5733C112.201 75.2733 112.674 75.2583 112.662 74.9653C112.837 74.9573 112.901 74.7483 113.06 74.7403M86.3791 76.1353C86.3861 76.2773 86.8606 76.3473 86.8715 76.5883C87.0098 76.5833 87.0078 77.0123 87.0983 77.0073C87.1102 77.2453 87.0685 77.4073 87.0774 77.5963C87.0356 77.5963 86.9779 77.7163 86.9779 77.7603C86.7949 77.7673 86.8068 78.3393 86.5303 78.3523C86.5492 78.7723 85.8579 78.2233 85.846 78.2243C85.836 77.9773 85.4053 77.9143 85.3954 77.7243C85.2959 77.7293 85.2163 77.5243 85.1357 77.5303C85.1328 77.5009 85.1189 77.4738 85.097 77.4542C85.0751 77.4345 85.0467 77.4239 85.0174 77.4243C85.0104 77.2243 85.0502 77.0903 85.0452 76.9463C85.2442 76.9373 85.3019 76.5703 85.5645 76.5583C85.5525 76.3233 86.1324 76.1513 86.3831 76.1393M83.6765 76.6923C83.6765 76.6923 84.0237 77.1043 84.0097 77.1053C84.0356 77.6663 84.1599 78.3433 84.1878 78.9283C84.1977 79.1673 84.1181 79.4193 83.8894 79.4283C83.9023 79.6963 83.2259 79.4113 83.211 79.4123C83.205 79.3233 83.0976 79.3393 83.0946 79.2593C82.9951 79.2593 82.9762 78.7873 82.9722 78.6763C82.8145 78.2754 82.7562 77.8419 82.8021 77.4133C82.7862 77.0053 83.2348 76.7133 83.6725 76.6923M98.7434 76.0523C98.7503 76.2063 99.1223 76.0523 99.1313 76.2523C99.2308 76.2523 99.2536 76.4053 99.3452 76.4013C99.3531 76.6223 99.3889 76.3453 99.4019 76.6533C99.5242 76.6473 99.4158 76.9353 99.4198 77.0343C99.3203 77.0343 99.2457 77.7093 99.2507 77.8513C99.2666 78.1813 99.4307 78.3283 99.4416 78.6203C99.6406 78.6113 99.5182 79.2433 99.5212 79.2993C99.3929 79.3053 99.186 79.7903 99.0706 79.7993C99.0706 79.8993 98.9184 79.9683 98.9244 80.0763C98.8249 80.0763 98.9353 80.1243 98.8329 80.1293C98.8418 80.3163 98.6081 80.1383 98.5653 80.1393C98.5653 80.1113 98.2669 79.4073 98.3733 79.4023C98.3365 78.6103 98.2937 77.6313 98.2569 76.8193C98.1038 76.8263 98.2808 76.2653 98.2788 76.2313C98.2923 76.232 98.3058 76.2299 98.3184 76.2252C98.3311 76.2204 98.3426 76.2132 98.3524 76.2038C98.3622 76.1945 98.3699 76.1832 98.3753 76.1707C98.3806 76.1583 98.3833 76.1448 98.3833 76.1313C98.5014 76.0967 98.6217 76.0699 98.7434 76.0513M91.296 76.5513C91.296 76.6973 91.4571 76.6273 91.4641 76.8123C91.5864 76.8123 91.6401 77.1803 91.6441 77.3293C91.8331 77.3203 92.0241 78.7293 92.036 79.0063C92.045 79.1983 91.8878 80.0183 91.7197 80.0253C91.7336 80.3463 91.3656 80.5773 91.3785 80.8983C91.2681 80.8983 91.3318 81.1543 91.1856 81.1623C91.1955 81.3883 90.7877 81.2433 90.6693 81.2483C90.6623 81.1133 90.4992 80.9873 90.4903 80.7803C90.4763 80.4903 90.6226 80.2453 90.6136 79.9803C90.5798 79.2863 90.7548 78.6343 90.721 77.8483C90.7439 77.8483 90.7867 76.8403 90.7817 76.7333C90.8062 76.73 90.8288 76.7182 90.8455 76.7C90.8622 76.6817 90.872 76.6581 90.8732 76.6333C90.9617 76.6333 91.1219 76.5583 91.296 76.5503M77.7878 77.2303C77.7878 77.1923 78.2046 77.4173 78.2225 77.4163C78.2305 77.5743 78.4314 77.5343 78.4433 77.7713C78.5528 77.7663 78.311 78.4123 78.0634 78.4243C78.0783 78.7423 77.3283 78.5463 77.3114 78.2043C77.2119 78.2043 77.2288 77.4613 77.3879 77.4543C77.381 77.2873 77.6048 77.2383 77.7858 77.2303M88.9624 78.4663C88.9683 78.6113 89.1195 78.4663 89.1305 78.6663C89.216 78.6663 89.3056 79.0353 89.3085 79.1343C89.3294 79.6273 89.1991 80.1933 89.223 80.7413C89.2469 81.2553 89.0181 81.2113 88.6142 81.2303C88.6142 81.1893 88.4949 81.0763 88.4491 81.0783C88.4491 81.0613 88.283 80.8783 88.2173 80.8833C88.2124 80.7163 88.0602 80.8723 88.0512 80.6683C87.9378 80.6683 87.8831 80.4543 87.8791 80.3423C87.8563 79.8783 88.1238 79.8193 88.1069 79.4593C88.1895 79.4593 88.3964 78.8973 88.3934 78.8103C88.4599 78.7468 88.511 78.6688 88.5426 78.5823C88.656 78.5763 88.7615 78.4763 88.9624 78.4663ZM122.951 76.9663C123.195 77.1274 123.468 77.2389 123.755 77.2943C124.018 77.4081 124.272 77.5418 124.515 77.6943C124.542 78.3203 124.284 78.5493 124.316 79.1783C124.291 79.4162 124.249 79.6521 124.191 79.8843C124.097 79.9399 124.015 80.0136 123.949 80.1013C123.682 80.1805 123.434 80.3169 123.224 80.5013C123.071 80.5083 122.711 80.7013 122.698 80.4303C122.528 80.4383 122.615 79.9513 122.606 79.7993C122.76 79.7923 122.776 77.9813 122.59 77.9893C122.568 77.5423 122.252 77.0053 122.955 76.9733M82.7683 80.0733C82.7683 80.1883 83.1354 80.1363 83.1463 80.3733C83.3303 80.3663 83.3373 81.1253 83.3453 81.3183C83.2144 81.548 83.0658 81.7671 82.9006 81.9733C82.8071 81.9733 82.2829 82.2483 82.269 82.0013C82.0263 82.0123 82.1546 81.5583 82.1496 81.4203C82.1158 80.6993 82.0243 80.1073 82.7673 80.0733M76.6718 80.4993C76.6718 80.5993 76.8329 80.5323 76.8419 80.6993C77.005 80.6913 76.9712 81.1643 76.9781 81.3283C76.8976 81.3283 76.9135 81.4423 76.8269 81.4463C76.8269 81.5563 76.3544 81.5203 76.3505 81.4203C76.1247 81.4303 75.9804 80.8003 76.1645 80.7933C76.1555 80.6053 76.4629 80.5093 76.6718 80.5003M78.2504 80.4753L78.4791 80.6873C78.4891 80.8983 78.5985 81.1573 78.6104 81.4393C78.6104 81.5683 78.5995 81.7933 78.4692 81.8003C78.4791 82.0213 77.9082 81.7613 77.8982 81.7633C77.8594 81.697 77.802 81.6438 77.7331 81.6103C77.7331 81.6033 77.4586 80.9883 77.6416 80.9793C77.6287 80.6513 77.9132 80.4913 78.2504 80.4793M97.0832 79.8403C97.1976 79.9332 97.3225 80.0124 97.4552 80.0763C97.4552 80.1403 97.7536 81.0763 97.7069 81.0813C97.861 82.3756 97.9408 83.6777 97.9456 84.9813C97.9565 85.2203 97.9784 86.0423 97.7735 86.0523C97.7795 86.2163 97.4701 86.3363 97.312 86.3443C97.305 86.1753 97.1051 86.3523 97.0981 86.1313C96.9827 86.1363 96.9758 85.8963 96.9718 85.7723C96.8594 85.7773 96.8663 84.6183 96.6664 84.6263C96.6565 84.3963 96.2108 83.0593 96.0586 83.0663C95.9327 82.6535 95.7391 82.2649 95.4857 81.9163C95.4777 81.7653 95.421 81.5553 95.5852 81.5483C95.5762 81.3353 95.7841 81.4683 95.7781 81.3323C95.9184 81.3253 96.3561 81.1743 96.3511 81.0323C96.6137 81.0203 96.3113 80.1923 96.4704 80.1853C96.4575 79.8983 96.7997 79.8523 97.0882 79.8403M111.861 79.5793C111.867 79.6993 112.021 79.6643 112.029 79.7943C112.244 79.7843 112.114 80.2943 112.118 80.4253C111.993 80.4303 112.057 80.6333 111.907 80.6403C111.916 80.8093 111.609 80.8133 111.442 80.8203C111.442 80.7293 111.234 80.7363 111.228 80.6203C111.018 80.6303 111.158 80.1073 111.152 79.9893C111.231 79.9893 111.234 79.7623 111.351 79.7573C111.342 79.5743 111.677 79.5843 111.865 79.5763M118.753 79.2623C118.762 79.4413 119.709 79.4483 119.718 79.6453C119.968 79.6353 120.069 79.9953 120.255 79.9873C120.262 80.1773 120.528 80.8313 120.136 80.8503C120.143 80.9803 119.708 81.2823 119.585 81.2883C119.594 81.4553 119.227 81.4633 119.059 81.4713C118.978 81.3829 118.889 81.3019 118.794 81.2293C118.794 81.1213 118.629 81.0783 118.623 80.9193C118.545 80.9193 118.389 80.6333 118.384 80.5493C118.23 80.5563 118.06 79.9283 117.946 79.9343C117.922 79.4213 118.261 79.2843 118.753 79.2623ZM117.533 80.2223C117.533 80.2393 117.909 80.5223 117.909 80.5223C117.909 80.5793 118.117 80.8283 118.193 80.8223C118.193 80.9993 118.31 80.9723 118.318 81.1573C118.326 81.3623 118.326 81.3703 118.337 81.6093C118.228 81.6143 118.153 81.9823 117.927 81.9923C117.775 81.9008 117.628 81.8006 117.487 81.6923C117.478 81.4693 117.225 81.4473 117.215 81.2283C117.057 81.2353 116.898 80.6703 117.031 80.6643C117.016 80.3213 117.182 80.2293 117.533 80.2133M114.903 80.4443C114.909 80.5763 115.649 80.5003 115.66 80.7273C115.959 80.7133 115.991 81.0823 116.007 81.3943C115.796 81.5912 115.609 81.8128 115.45 82.0543C115.273 82.0633 114.778 82.2043 114.767 81.9273C114.59 81.9353 114.609 81.5693 114.435 81.5773C114.423 81.3373 114.155 81.3193 114.136 80.9713C114.116 80.5003 114.42 80.4713 114.901 80.4443M78.2414 82.3823C78.2414 82.3693 78.5398 82.5903 78.5677 82.5893C78.5677 82.6713 78.8223 83.0533 78.6841 83.0603C78.7059 83.5743 78.7328 84.1483 78.7477 84.4863C78.7587 84.7443 78.51 84.8203 78.5169 84.9743C78.3657 84.9813 78.326 85.1883 78.1479 85.1963C78.1579 85.4273 77.567 85.3343 77.4267 85.3403C77.2975 85.1358 77.1283 84.9599 76.9294 84.8233C76.9294 84.7073 76.5434 84.2693 76.432 84.2743C76.2832 84.0866 76.1166 83.9138 75.9347 83.7583C75.9247 83.5313 75.8889 83.1243 76.1117 83.1143C76.1058 82.9813 76.4211 82.9533 76.4101 82.8463C76.6519 82.8363 76.7404 82.6093 77.0308 82.5953C77.0308 82.4533 78.0604 82.3903 78.2374 82.3823M90.9428 82.8663C90.9428 82.7793 91.3198 83.0553 91.3795 83.0523C91.3885 83.2473 91.7068 83.3693 91.7157 83.5143C91.9391 83.6299 92.1721 83.7256 92.412 83.8003C92.5115 83.8003 92.8885 83.8443 92.8925 83.9373C93.0695 83.9283 93.0228 84.0893 93.167 84.0833C93.176 84.2913 93.2804 84.4773 93.2933 84.7833C93.3043 85.0173 93.2187 85.2083 93.2257 85.4113C93.0854 85.4113 93.0636 85.9423 92.8706 85.9503C92.8835 86.2363 92.2131 86.4113 92.225 86.6623C92.1176 86.6683 91.8092 86.8963 91.8132 87.0003C91.5586 87.0113 91.6222 88.4373 91.7197 88.4323C91.7476 89.0323 91.9246 89.4053 91.9495 89.9623C91.862 89.9623 91.8003 90.5573 91.6113 90.5623C91.6192 90.7103 91.2582 90.8963 91.106 90.9033C90.6086 90.9263 90.6922 90.1333 90.6693 89.6523C90.533 89.6593 90.5619 87.5933 90.4206 87.5993C90.3808 86.7293 90.4564 85.9423 90.4206 85.1403C90.3968 84.6693 90.3769 84.1993 90.354 83.7273C90.2674 83.7323 90.3848 83.3553 90.3808 83.2503C90.4704 83.2453 90.533 83.1073 90.53 83.0373C90.7021 83.0293 90.7936 82.8663 90.9468 82.8593M120.427 81.5593C120.427 81.5523 120.642 81.8193 120.642 81.8193C120.65 81.9343 120.662 82.6593 120.588 82.6633C120.62 83.4143 120.539 84.0633 120.574 84.8453C120.608 85.5573 120.528 86.2643 120.562 87.0273C120.592 87.6903 120.697 88.5973 120.724 89.2273C120.685 89.2355 120.65 89.256 120.623 89.2858C120.596 89.3156 120.579 89.3532 120.574 89.3933L120.041 89.4183C120.032 89.2603 119.559 89.2713 119.55 89.0593C119.218 89.0743 119.102 88.1273 118.83 88.1383C118.83 88.0513 118.558 87.6763 118.491 87.6793C118.448 87.6035 118.392 87.5358 118.326 87.4793C118.314 87.2583 118.277 87.4793 118.269 87.2793C118.144 87.2853 118.184 86.7723 118.176 86.6483C118.171 85.9742 118.088 85.3029 117.928 84.6483C117.918 84.4163 117.815 84.2103 117.805 83.9943C117.796 83.8063 117.943 83.6033 117.939 83.4893C118.047 83.3315 118.147 83.1679 118.238 82.9993C118.397 82.9913 118.419 82.6733 118.636 82.6633C118.63 82.5633 118.953 82.3313 119.047 82.3273C119.038 82.1373 119.511 82.0913 119.504 81.9273C119.632 81.9213 119.719 81.7583 119.858 81.7523C119.858 81.6313 120.29 81.5743 120.434 81.5673M124.114 81.4673C124.114 81.5053 124.326 81.6673 124.341 81.6673C124.347 81.7673 124.477 82.1373 124.303 82.1463C124.314 82.4173 123.69 82.5723 123.686 82.4913C123.359 82.5063 123.21 81.8773 123.407 81.8683C123.39 81.5683 123.805 81.4853 124.114 81.4683M88.5734 83.8163C88.6393 83.9084 88.7122 83.9954 88.7913 84.0763C88.8122 84.5413 88.7784 84.8763 88.8022 85.3453C88.84 86.1913 88.9683 86.9603 89.0012 87.7033C89.0221 88.1793 88.7137 88.0973 88.3884 88.1113C88.3884 88.1113 87.9716 87.6553 87.9567 87.6553C87.9176 87.5276 87.8588 87.4068 87.7827 87.2973C87.7667 86.9753 87.6454 86.7353 87.6275 86.3373C87.6175 86.1143 87.5191 84.7693 87.715 84.7593C87.7031 84.5003 88.0134 84.3593 88.0035 84.1593C88.103 84.1543 88.1169 83.9953 88.2024 83.9913C88.1955 83.8563 88.4213 83.8223 88.5725 83.8153M103.095 83.5813C103.095 83.5813 103.466 84.1523 103.373 84.1563C103.39 84.5493 103.361 84.9333 103.373 85.2683C103.293 85.2683 103.238 85.7903 103.243 85.9093C103.226 85.9093 102.789 86.3613 102.771 85.9783C102.684 85.9783 102.437 85.5693 102.434 85.4693C102.304 85.4763 102.262 85.0973 102.1 85.1033C102.094 84.9143 101.977 84.8233 101.965 84.5383C102.027 84.5383 102.114 84.3143 102.109 84.2613C102.238 84.1608 102.34 84.0308 102.408 83.8823C102.487 83.8367 102.559 83.7802 102.622 83.7143C102.774 83.6572 102.931 83.6128 103.09 83.5813M104.314 84.1143C104.408 84.1565 104.5 84.2053 104.588 84.2603C104.595 84.3983 104.756 84.4463 104.762 84.6173C104.924 84.6103 105.166 85.4733 105.173 85.6633C105.18 85.8533 105.452 87.9203 105.229 87.9303C105.243 88.2613 105.328 89.4033 105.03 89.4173C105.046 89.7893 104.334 89.1943 104.387 89.1923C104.381 89.0453 104.22 88.9823 104.211 88.8193C104.082 88.8193 104.144 88.3673 104.141 88.2983C104.101 88.2983 104.095 86.2293 104.08 85.9173C104.057 85.3883 104.033 84.8623 104.008 84.3343C104.1 84.3343 104.137 84.1223 104.315 84.1143M114.2 83.7143C114.206 83.8083 114.471 83.7773 114.48 83.9723C114.579 83.9663 114.679 84.8613 114.685 84.9993C114.704 85.4363 114.818 85.8453 114.836 86.2413C114.846 86.4353 114.806 86.5613 114.81 86.7033C114.81 86.7033 114.66 86.8653 114.66 86.8693C114.446 86.8793 114.063 86.7083 114.063 86.5313C113.875 86.4083 113.694 86.2748 113.522 86.1313C113.328 86.1413 113.291 85.9833 113.09 85.9923C113.073 85.9443 113.044 85.9011 113.007 85.8663C112.97 85.8316 112.925 85.8062 112.876 85.7923C112.867 85.5823 112.91 85.4863 112.901 85.3143C112.986 85.3143 113.01 85.2333 113.001 85.1503C113.048 85.1282 113.09 85.0962 113.125 85.0563C113.159 85.0165 113.185 84.9698 113.199 84.9193C113.378 84.9113 113.426 84.3383 113.597 84.3303C113.617 84.1756 113.687 84.0317 113.796 83.9206C113.905 83.8094 114.047 83.7369 114.2 83.7143ZM95.6717 84.9863C95.6717 85.0713 95.8348 85.0803 95.8398 85.1863C95.996 85.1803 96.0129 85.6053 96.0218 85.7653C95.9224 85.7713 95.9781 86.0863 95.8318 86.0933C95.8398 86.2193 95.5334 86.3123 95.3912 86.3193C94.9436 86.3403 94.8501 85.5973 95.0182 85.5903C95.0023 85.1993 95.2539 85.0073 95.6717 84.9903M98.8955 84.9993C98.8955 84.9513 99.4078 85.6103 99.2855 85.6163C99.3083 86.1163 99.6396 86.4723 99.6615 86.9653C99.8017 86.9583 99.9678 87.9653 99.7092 87.9783C99.7162 88.1573 99.3561 88.2363 99.3641 88.4073C99.2178 88.4143 98.6737 88.5073 98.6618 88.2333C98.4529 88.2423 98.3186 87.6523 98.3097 87.4553C98.43 86.9703 98.4826 86.4708 98.4658 85.9713C98.5083 85.7243 98.5283 85.4739 98.5255 85.2233C98.6668 85.2163 98.5942 85.0133 98.8955 84.9993ZM85.3456 85.8213C85.4018 85.9203 85.4752 86.0084 85.5625 86.0813C85.5625 86.2113 85.8211 87.0693 85.653 87.0813C85.659 87.2263 85.6042 87.4473 85.466 87.4543C85.471 87.5903 85.1079 87.6133 85.1139 87.7393C84.9646 87.7473 84.7687 87.7083 84.6861 87.7123C84.6861 87.6763 84.5449 87.5603 84.521 87.5613C84.521 87.4313 84.3459 86.4613 84.521 86.4503C84.5021 86.0313 84.9189 85.8443 85.3466 85.8243M101.682 85.2373C101.688 85.3713 101.846 85.3463 101.856 85.5953C101.837 85.5953 101.616 85.8283 101.506 85.8343C101.5 85.7053 101.457 85.8343 101.452 85.7243C101.324 85.7313 101.381 85.5093 101.375 85.4113C101.532 85.4033 101.449 85.2493 101.682 85.2373ZM101.397 85.8873C101.523 86.248 101.72 86.5793 101.977 86.8613C101.984 86.9883 102.005 87.2873 101.886 87.2933C101.896 87.4933 101.73 87.3623 101.738 87.5053C101.66 87.5103 100.761 87.9053 100.744 87.6163C100.545 87.6243 100.178 86.9743 100.169 86.7833C99.9022 86.7953 100.207 86.1833 100.203 86.1463C100.358 86.1403 100.378 86.0463 100.564 86.0353C100.555 85.8663 101.219 85.8933 101.393 85.8873M108.982 87.0813C108.982 87.0813 109.141 87.2323 109.146 87.2323C109.155 87.4323 109.215 87.7503 109.229 88.0223C109.06 88.0293 109.287 89.3383 109.129 89.3443C109.138 89.5443 109.244 90.8793 109.104 90.8863C109.113 91.1113 108.541 91.3603 108.53 91.1663C108.336 91.1743 108.322 90.9213 108.203 90.9273C108.203 90.8663 107.982 90.6193 107.922 90.6273C107.913 90.4033 107.435 90.3223 107.424 90.1083C107.333 90.1133 107.126 89.6463 107.244 89.6413C107.238 89.4653 107.454 89.3643 107.443 89.2183C107.661 89.2093 107.761 88.6183 107.94 88.6093C107.933 88.4763 108.139 88.4093 108.127 88.2343C108.221 88.2343 108.38 87.8713 108.377 87.7943C108.516 87.7883 108.454 87.4263 108.629 87.4183C108.634 87.3284 108.672 87.2439 108.737 87.1819C108.802 87.12 108.888 87.0854 108.978 87.0853M88.658 89.1633C88.658 89.2763 88.9803 89.3203 88.9892 89.5143C89.0741 90.0611 89.0775 90.6175 88.9992 91.1653C89.0131 91.4763 88.849 92.1243 88.5695 92.1373C88.5794 92.3553 88.1716 92.3623 87.9488 92.3723C87.8445 92.2597 87.7159 92.1728 87.5728 92.1183C87.4309 91.8893 87.218 91.7136 86.967 91.6183C86.9561 91.3853 86.3861 91.3093 86.3702 91.1183C86.0161 91.1343 86.0001 90.2313 86.3771 90.2183C86.3632 89.8473 87.6275 89.8843 87.6175 89.6853C87.7707 89.6793 88.0393 89.5393 88.0313 89.3963C88.1248 89.3963 88.0791 89.2963 88.1865 89.2963C88.1786 89.1433 88.5088 89.1693 88.654 89.1623M112.345 89.1463C112.345 89.2083 113.391 89.2103 113.397 89.3533C113.522 89.3463 114.146 89.4903 114.15 89.5883C114.256 89.5883 114.68 89.7463 114.683 89.8343C114.865 89.8263 114.92 90.0773 115.119 90.0683C115.129 90.2633 115.233 90.1413 115.244 90.3313C115.377 90.3313 115.262 90.7743 115.265 90.8553C115.116 90.8623 115.115 91.4023 114.976 91.4093C114.999 91.8853 114.479 92.2583 114.499 92.7483C114.43 92.7483 114.266 93.1873 114.27 93.2833C114.172 93.3811 114.087 93.4913 114.017 93.6113C113.924 93.6113 113.953 93.7263 113.818 93.7323C113.823 93.8323 113.51 93.8573 113.398 93.8633C113.398 93.8963 111.987 94.1133 111.974 93.8163C111.76 93.8263 111.805 93.3473 111.686 93.3533C111.658 92.7533 111.735 92.0173 111.703 91.2963C111.677 90.7203 111.756 90.0193 111.732 89.4963C111.84 89.4913 111.742 89.3363 111.881 89.3303C111.876 89.2023 112.222 89.1573 112.347 89.1503M117.265 89.6093C117.408 89.664 117.547 89.7265 117.684 89.7963C117.691 89.9293 117.846 89.8783 117.855 90.0583C118.102 90.0473 118.088 90.7303 117.791 90.7443C117.797 90.8743 117.326 90.9313 117.32 90.8293C117.121 90.8393 117.167 90.5653 117.039 90.5723C117.027 90.2823 116.893 89.6253 117.265 89.6093ZM120.162 89.7473C120.162 89.8413 120.361 89.6693 120.373 89.8333C120.572 89.8243 120.654 90.0963 120.661 90.2963C120.676 90.2963 120.745 92.1683 120.752 92.3083C120.823 92.3083 120.796 92.6243 120.653 92.6303C120.662 92.8033 120.443 92.9103 120.283 92.9183L119.2 92.9673C119.043 92.89 118.882 92.8231 118.717 92.7673C118.717 92.6673 118.577 92.2023 118.739 92.1953C118.739 92.1263 118.855 91.8723 118.946 91.8673C118.932 91.5583 119.286 91.3723 119.271 91.0583C119.454 91.0493 119.475 90.3033 119.669 90.2943C119.687 90.1631 119.744 90.0405 119.833 89.9428C119.921 89.8452 120.038 89.7773 120.166 89.7483M103.529 91.0783C103.539 91.2703 103.845 91.0533 103.853 91.2223C104.058 91.2123 104.133 91.4703 104.141 91.6863C103.942 91.6943 103.97 92.7573 104.189 92.7473C104.218 93.3893 104.732 92.5633 105.085 92.5473C105.07 92.2023 105.787 92.6743 105.77 92.6753C105.775 92.7753 106.036 93.1403 106.106 93.1363C106.115 93.3233 106.128 93.5833 106.134 93.7703C106.051 93.7703 105.983 93.8903 105.989 93.9843C105.82 94.0735 105.666 94.1874 105.53 94.3223C105.354 94.3303 104.904 94.4493 104.889 94.1443C104.76 94.1503 104.549 93.6063 104.543 93.4783C104.534 93.4783 104.145 92.6953 104.17 93.2723C104.071 93.2773 103.888 94.0273 103.894 94.1433C103.802 94.2091 103.715 94.2816 103.634 94.3603C103.377 94.3733 103.273 94.2603 103.109 94.2743C103.058 94.2044 103.002 94.1376 102.943 94.0743C102.931 93.8173 102.927 93.7243 102.912 93.3923C102.994 92.8458 103.038 92.294 103.041 91.7413C103.027 91.3953 103.203 91.0923 103.533 91.0773M124.636 90.6553C124.629 90.5163 125.315 91.1953 125.181 91.2023C125.196 91.5543 125.32 91.8453 125.336 92.1873C125.343 92.3873 125.374 93.2093 125.224 93.2163C125.231 93.3913 125.052 94.0653 124.899 94.0733C124.907 94.2373 124.746 94.2193 124.754 94.3493C124.646 94.3493 124.456 94.4103 124.282 94.4193C124.282 94.3503 124.19 94.3273 124.121 94.3313C124.024 94.1759 123.887 94.0503 123.723 93.9683C123.718 93.8533 123.561 93.8683 123.554 93.7213C123.355 93.7303 123.473 92.9673 123.469 92.8213C123.68 92.8123 123.349 91.3003 123.339 91.0333C123.451 91.0333 123.438 90.8703 123.647 90.8613C123.647 90.7293 124.443 90.6663 124.635 90.6613" fill="#377C41"/>
<path d="M85.2683 118.651C85.2611 118.645 85.253 118.639 85.2444 118.635C85.2782 118.927 85.3568 118.799 86.072 120.126C83.5584 119.812 81.6137 117.362 81.1979 116.873C81.2536 117.566 82.3269 118.96 82.2165 120.007C82.1061 121.054 81.177 121.178 80.625 121.229C79.8461 121.202 79.1004 120.905 78.5132 120.39C78.3471 120.825 78.9897 121.518 78.371 121.895C78.137 122.008 77.8796 122.063 77.6201 122.057C77.3606 122.05 77.1065 121.981 76.8789 121.855C76.9595 122.455 77.7125 122.846 78.183 123.036C81.3939 123.069 84.8684 123.097 85.4712 123.071C86.6227 122.213 87.6721 121.224 88.5986 120.124C87.4406 119.757 86.3264 119.263 85.2762 118.651" fill="#6793CE"/>
<path d="M85.5441 100.708L85.4586 100.717C84.4496 101.693 83.5094 102.737 82.6445 103.844C84.1104 102.855 85.6878 102.044 87.3435 101.428C86.9059 101.251 85.9181 100.857 85.5441 100.708Z" fill="#6793CE"/>
<path d="M75.8636 78.1789C76.0466 77.2309 75.1673 76.8659 75.2887 76.3789C75.3643 76.0789 75.5125 75.9719 75.1822 75.7729C74.852 75.5739 74.857 75.1209 74.857 74.8729C74.648 74.7772 74.4645 74.6334 74.3212 74.453C74.1779 74.2727 74.079 74.0609 74.0324 73.8349C73.9667 73.5689 74.1776 72.7239 74.1318 72.5299C73.2993 72.3383 72.5043 72.0088 71.7793 71.5549L71.7396 71.4929C71.7472 71.5107 71.7558 71.5281 71.7654 71.5449C71.7316 71.5189 71.7127 71.5029 71.6829 71.4759C71.4431 71.2629 70.3788 70.2669 69.9978 69.8159C69.5416 69.3575 69.0525 68.9333 68.5346 68.5469C68.3406 69.3323 68.0326 70.0847 67.6205 70.7799C67.5263 70.9619 67.4766 71.1639 67.4754 71.369C67.4742 71.5742 67.5215 71.7767 67.6135 71.9599C67.7756 72.4649 68.4093 72.5839 68.5873 72.6599C68.8131 72.9689 68.6997 73.0319 68.6967 73.1949C68.6938 73.3579 68.4918 73.5529 68.4829 73.7389C68.5002 73.9159 68.54 74.09 68.6012 74.2569C68.649 74.4719 68.7007 74.9699 68.7007 74.9699C68.6679 75.4919 69.1881 75.5939 69.407 75.5869C69.2966 76.0609 68.7952 75.6439 68.3396 76.4339C68.1964 76.4129 68.0154 76.3039 67.8164 76.2739C67.6175 76.2439 67.3061 76.3569 66.8346 76.9889C66.6917 77.2215 66.6197 77.4911 66.6275 77.7645C66.6353 78.0378 66.7225 78.3028 66.8784 78.5269C67.0515 78.7305 67.2804 78.8784 67.5365 78.9522C67.7926 79.026 68.0647 79.0224 68.3188 78.9419C68.2962 79.3029 68.1564 79.6465 67.9209 79.9199C67.9209 79.9199 68.838 81.1869 69.404 81.8779C69.97 82.5689 69.5233 83.6269 69.5263 83.8779C69.5293 84.1289 69.5323 84.2009 69.8078 84.4899C69.681 84.6861 69.5063 84.8465 69.3005 84.9559C70.2017 86.0369 70.4444 85.8859 71.4262 86.4839C72.4707 87.1169 73.2018 87.1059 73.2485 86.8639C72.9073 85.952 72.6765 85.0022 72.5612 84.0349C72.5136 83.0477 72.604 82.0588 72.8298 81.0969C73.2501 80.3092 73.8928 79.6642 74.6769 79.2429C75.1742 79.026 75.5891 78.6544 75.8606 78.1829" fill="white"/>
<path d="M72.5664 84.0368C72.5655 84.0269 72.5655 84.0168 72.5664 84.0068H72.5893C74.7296 85.3698 76.71 86.9713 78.4929 88.7808C77.8613 89.3568 77.3957 90.0933 77.1451 90.9128L77.2147 91.0998C76.5082 89.4565 75.7112 87.854 74.8274 86.2998C74.1664 85.457 73.4066 84.6975 72.5645 84.0378" fill="#F6EB3F"/>
<path d="M75.684 97.5236L75.668 97.5166V97.5466C75.6734 97.5393 75.6784 97.5316 75.683 97.5236" fill="#E0D6A2"/>
<path d="M77.5497 98.2664C76.9041 97.9884 75.7114 97.4844 75.7114 97.4844L75.6836 97.5234C76.2993 97.7874 76.922 98.0524 77.5397 98.3144C77.5418 98.2981 77.5451 98.2821 77.5497 98.2664Z" fill="#E0D6A2"/>
<path d="M77.2729 91.2617C77.2729 91.2617 77.2849 91.2617 77.2889 91.2697C77.2689 91.2207 77.2399 91.1627 77.2109 91.0957L77.2729 91.2617Z" fill="white"/>
<path d="M74.0134 73.6861C74.0097 73.7622 74.0233 73.8381 74.0532 73.9081C73.9099 73.9573 73.7565 73.9687 73.6076 73.9411C73.4477 73.8956 73.2987 73.8177 73.1699 73.7121C73.0496 73.6331 73.1013 73.4791 73.1938 73.4941C73.3444 73.501 73.4952 73.4838 73.6404 73.4431C73.789 73.4026 73.934 73.3501 74.0741 73.2861C74.0427 73.4175 74.0224 73.5513 74.0134 73.6861Z" fill="#6793CE"/>
<path d="M70.3691 71.5306C70.4178 71.6038 70.4516 71.6861 70.4686 71.7726C70.4752 71.8375 70.4624 71.903 70.4318 71.9606C71.1967 72.2656 70.6367 72.6816 70.1861 72.4676C70.1187 72.6183 70.0281 72.7573 69.9175 72.8796C69.7307 73.0501 69.4977 73.1608 69.248 73.1976C69.5335 72.8565 69.7279 72.448 69.813 72.0106C69.7937 71.8753 69.7817 71.7391 69.7772 71.6026C69.8498 71.3626 70.013 71.3516 70.013 71.3516C70.1495 71.3633 70.2763 71.4274 70.3671 71.5306" fill="#6793CE"/>
<path d="M67.8652 72.2948C67.8883 72.1299 67.9216 71.9666 67.9647 71.8058C68.0338 71.5803 68.1576 71.3757 68.325 71.2104C68.4924 71.045 68.6981 70.9242 68.9236 70.8588C69.1962 70.8118 69.414 71.1638 69.5145 71.2368C69.2922 71.3161 69.0817 71.4254 68.8888 71.5618C68.7582 71.7051 68.659 71.8744 68.5976 72.0587C68.5363 72.2431 68.5141 72.4383 68.5327 72.6318C68.2868 72.5751 68.0581 72.4595 67.8662 72.2948" fill="#6793CE"/>
<path d="M96.0609 97.0617C98.8252 97.3027 101.377 97.9378 103.913 97.8918C102.361 95.2018 100.936 92.8558 99.4837 91.6418C98.0702 90.4608 97.0456 89.4628 95.0144 90.4418C93.405 91.2158 91.2226 93.3998 88.5488 96.3578C91.1261 96.8788 93.4229 96.7078 96.0589 97.0578" fill="white"/>
<path d="M96.0609 97.0617C98.8252 97.3027 101.377 97.9378 103.913 97.8918C102.361 95.2018 100.936 92.8558 99.4837 91.6418C98.0702 90.4608 97.0456 89.4628 95.0144 90.4418C93.405 91.2158 91.2226 93.3998 88.5488 96.3578C91.1261 96.8788 93.4229 96.7078 96.0589 97.0578" fill="white"/>
<path d="M87.1881 94.1054C85.7543 93.5877 84.3661 92.9501 83.0382 92.1994C81.5973 91.3336 80.2293 90.3506 78.948 89.2604C78.7978 89.0954 78.6446 88.9354 78.4894 88.7764C77.8579 89.3527 77.3926 90.0896 77.1426 90.9094L77.2112 91.0964C77.2411 91.1634 77.2689 91.2214 77.2898 91.2704C78.5203 91.8704 79.9288 92.5224 83.9374 94.6704C85.3618 95.4488 86.892 96.0128 88.4793 96.3444L89.7048 95.0924C89.0234 94.8354 88.151 94.5104 87.1881 94.1084" fill="white"/>
<path d="M69.553 84.7821C69.5574 84.7771 69.5628 84.773 69.5689 84.7701C69.5628 84.773 69.5574 84.7771 69.553 84.7821ZM69.6704 84.6621L69.6943 84.6411L69.6704 84.6621ZM69.7072 84.3701C69.737 84.4051 69.7709 84.4411 69.8116 84.4861C69.7709 84.4411 69.737 84.4051 69.7072 84.3701ZM69.547 84.0881C69.5589 84.1465 69.5823 84.2019 69.6157 84.2511C69.5823 84.2019 69.5589 84.1465 69.547 84.0881ZM77.2123 91.0991C76.506 89.4557 75.709 87.8532 74.825 86.2991C74.1643 85.4561 73.4048 84.6963 72.563 84.0361C72.6784 85.0014 72.9089 85.9492 73.2494 86.8591C73.2026 87.1021 72.4715 87.1131 71.428 86.4791C70.4463 85.8791 70.2026 86.0341 69.3023 84.9521C69.0923 85.0364 68.8674 85.0768 68.6414 85.0709C68.4153 85.0651 68.1928 85.0131 67.9873 84.9181C67.6352 85.7291 68.7831 86.0591 68.9353 86.0181C68.991 86.4181 68.5086 86.6671 68.239 86.8031C66.733 86.0841 65.5652 85.5431 65.3603 85.4681L65.3086 85.4501L75.0319 90.1601L75.0567 90.1391C75.952 90.6031 76.6383 90.9561 76.9527 91.1091L77.2739 91.2661L77.2123 91.0991ZM69.6863 84.3491C69.6653 84.3244 69.6464 84.2979 69.6296 84.2701C69.6466 84.2962 69.6656 84.321 69.6863 84.3441M69.4376 84.8721H69.4317H69.4376Z" fill="#6793CE"/>
<path d="M74.0458 69.3C73.5007 68.992 73.2182 69.413 73.1933 69.894C73.2255 70.2163 73.1328 70.5386 72.9347 70.794C72.886 70.7011 72.8193 70.619 72.7386 70.5525C72.6578 70.486 72.5645 70.4364 72.4644 70.4068C72.3642 70.3771 72.2592 70.368 72.1554 70.3799C72.0517 70.3918 71.9514 70.4244 71.8604 70.476C71.371 70.791 71.8853 71.556 71.8853 71.556C71.8524 71.53 71.7211 71.478 71.6913 71.456C71.4556 71.243 70.3823 70.28 70.0003 69.829C69.5436 69.3663 69.0539 68.9378 68.5351 68.547C68.3414 69.3323 68.0337 70.0848 67.622 70.78C67.5278 70.9621 67.4779 71.1641 67.4764 71.3694C67.4748 71.5747 67.5216 71.7774 67.613 71.961C67.7751 72.461 68.4088 72.584 68.5888 72.661C68.8146 72.97 68.7002 73.034 68.6972 73.196C68.6942 73.358 68.4983 73.554 68.4834 73.741C68.501 73.9179 68.5404 74.0919 68.6007 74.259C68.6495 74.473 68.7002 74.971 68.7002 74.971C68.6684 75.494 69.1876 75.595 69.4055 75.589C69.295 76.062 68.7937 75.646 68.3401 76.435C68.1959 76.414 68.0139 76.306 67.8159 76.275C67.618 76.244 67.3056 76.358 66.8341 76.99C66.6919 77.2231 66.6204 77.4928 66.6284 77.7662C66.6363 78.0395 66.7234 78.3046 66.8789 78.529C67.0521 78.7325 67.2809 78.8803 67.537 78.9541C67.7931 79.0279 68.0651 79.0244 68.3192 78.944C68.2965 79.3046 68.1568 79.6479 67.9214 79.921C67.9214 79.921 68.8375 81.188 69.4045 81.879C69.9715 82.57 69.5238 83.629 69.5258 83.879C69.5278 84.129 69.5318 84.201 69.8083 84.491C69.6092 84.7743 69.3139 84.9746 68.978 85.054C68.642 85.1334 68.2888 85.0864 67.985 84.922C67.6329 85.733 68.7808 86.063 68.934 86.022C68.9897 86.422 68.5072 86.672 68.2377 86.807C66.7297 86.089 65.5639 85.548 65.359 85.472C64.8389 85.2678 64.2717 85.2167 63.7237 85.3245C63.1758 85.4324 62.6696 85.6947 62.2644 86.081C62.1142 85.69 61.9243 85.233 61.7382 85.658C61.5244 86.139 61.4398 86.427 60.9803 86.437C60.3128 86.452 60.2432 86.029 60.0472 86.02C59.8788 85.9916 59.7253 85.9056 59.6126 85.7766C59.4999 85.6477 59.4349 85.4835 59.4285 85.312C58.5333 85.332 59.2296 86.412 59.2296 86.412C58.9083 86.3643 58.6184 86.192 58.4219 85.932C58.2535 85.685 58.1765 85.3864 58.2043 85.0883C58.2321 84.7902 58.363 84.5112 58.5741 84.3C58.3975 84.1739 58.2618 83.9982 58.1842 83.795C57.91 83.5507 57.7051 83.2378 57.5904 82.8881C57.4756 82.5383 57.455 82.1643 57.5306 81.804C57.1213 81.4338 56.8372 80.9443 56.7179 80.404C56.6079 79.5203 56.7896 78.6247 57.2352 77.855C56.7347 77.1553 56.3919 76.3544 56.2305 75.508C56.2255 74.7426 56.4814 73.9987 56.9557 73.4C56.9378 73.2662 56.9472 73.1301 56.9835 73.0001C57.0197 72.8701 57.082 72.7489 57.1666 72.644C56.9955 72.216 57.2113 71.734 57.6997 71.204C58.2631 70.4891 59.0735 70.0136 59.9697 69.872C60.9885 68.505 62.3664 67.4509 63.9485 66.828C64.8494 66.4924 65.7991 66.3086 66.7595 66.284C66.6352 65.684 67.23 65.629 67.3743 65.052C67.5185 64.475 67.7234 64.383 68.0546 64.32C68.2101 64.2719 68.3761 64.2698 68.5327 64.3139C68.6893 64.3581 68.83 64.4466 68.938 64.569C68.8726 64.2846 68.8964 63.9869 69.0061 63.7167C69.1158 63.4465 69.306 63.2171 69.5507 63.06C69.8437 62.8945 70.1667 62.7894 70.5006 62.751C70.4141 63.044 71.183 63.511 71.374 63.735C71.5433 64.0933 71.6271 64.4864 71.6187 64.883C71.9579 65.05 72.2752 64.425 72.7079 64.493C72.7079 65.065 73.0381 65.238 73.4042 65.7C73.7702 66.162 73.7026 67 73.7882 67.176C73.8737 67.352 74.1124 67.459 74.4576 67.567C73.6738 68.01 74.4506 68.606 74.0458 69.297" fill="#F6EB3F"/>
<path d="M74.8025 74.9814C74.5868 75.253 74.4107 75.554 74.2793 75.8754C74.5384 75.8574 74.7917 75.7895 75.0253 75.6754" fill="#6793CE"/>
<path d="M76.8699 121.855C77.0975 121.98 77.3516 122.049 77.6111 122.056C77.8707 122.063 78.1281 122.008 78.362 121.895C78.9817 121.519 78.3381 120.825 78.5052 120.395C79.0917 120.91 79.8373 121.207 80.616 121.234C81.1721 121.184 82.0971 121.061 82.2075 120.013C82.318 118.965 81.2457 117.571 81.189 116.879C81.6097 117.368 83.5534 119.817 86.063 120.131C85.3478 118.804 85.2673 118.931 85.2364 118.64C83.4493 117.53 81.9669 115.988 80.9242 114.154C79.8816 112.321 79.312 110.254 79.2672 108.143C79.2672 108.143 78.2456 109.326 77.8945 109.636C77.5809 110.058 77.3364 110.528 77.1703 111.029C76.9946 111.631 76.9016 112.255 76.8938 112.883C76.668 112.783 76.3069 112.065 75.9279 111.751C74.5483 111.861 74.2121 112.963 73.7316 114.091C73.577 113.823 73.524 113.508 73.5825 113.205C73.641 112.901 73.8071 112.629 74.0499 112.439C69.5907 113.009 68.7342 116.123 68.4219 117.311C68.6208 118.478 73.2034 122.932 73.2034 122.932C73.2034 122.932 75.1819 123.004 78.177 123.032C77.7075 122.842 76.9535 122.449 76.8729 121.851" fill="#C5031B"/>
<path d="M68.4226 117.311C68.5862 116.509 68.9096 115.748 69.3734 115.075C69.8372 114.402 70.4317 113.83 71.1213 113.394C70.801 113.194 70.5563 113.05 70.4339 112.986C73.7095 112.873 75.3826 108.992 75.2811 108.375C75.1797 107.758 74.4515 106.927 72.9933 107.42C73.2828 107.228 74.743 105.92 74.0019 104.541C73.2609 103.162 70.8 103.121 69.4691 103.541C69.5591 103.12 69.5293 102.683 69.3831 102.278C69.2369 101.874 68.9802 101.519 68.6424 101.254C68.3091 101.437 67.9251 101.504 67.5499 101.446C67.1747 101.387 66.8291 101.206 66.5665 100.93C67.1006 100.812 67.1355 100.467 67.2449 100.059C67.3543 99.6512 67.0211 99.5102 66.2721 98.7082C66.7872 99.0557 67.3695 99.2902 67.9808 99.3964C68.5922 99.5025 69.2189 99.4779 69.8202 99.3242C69.2602 99.0242 68.8563 98.7072 68.7628 98.3772C69.8788 99.1318 71.2228 99.469 72.5606 99.3302C73.1725 99.2658 73.7643 99.0735 74.2979 98.7655C74.8315 98.4576 75.2952 98.0409 75.6591 97.5422V97.5122C74.5391 97.0322 73.4449 96.5592 72.4681 96.1312C72.3652 94.9992 72.545 93.8593 72.9912 92.8148C73.4375 91.7704 74.136 90.8545 75.0235 90.1502L65.3012 85.4392C64.7146 85.2348 64.0818 85.2053 63.4789 85.3542C63.0677 85.4751 62.6867 85.6823 62.3609 85.962C62.0351 86.2418 61.772 86.5878 61.589 86.9772C59.2643 91.3112 56.2633 100.956 68.4296 117.373H68.4385C68.4326 117.354 68.4266 117.332 68.4226 117.313" fill="#F6EB3F"/>
<path d="M68.6506 101.259C68.9885 101.523 69.2453 101.878 69.3915 102.283C69.5378 102.687 69.5674 103.125 69.4772 103.546C70.8081 103.121 73.269 103.161 74.0101 104.546C74.7511 105.931 73.2909 107.233 73.0024 107.425C74.4557 106.932 75.1838 107.763 75.2903 108.38C75.3967 108.997 73.1864 112.33 69.9099 112.442C70.3343 112.739 70.7437 113.058 71.1364 113.396C72.0326 112.878 73.0267 112.554 74.0548 112.444C73.812 112.634 73.6459 112.906 73.5874 113.21C73.5289 113.514 73.5818 113.829 73.7365 114.096C74.217 112.967 74.5532 111.865 75.9328 111.756C76.3118 112.069 76.6729 112.787 76.8987 112.887C76.907 112.26 77 111.636 77.1752 111.034C77.3415 110.534 77.5859 110.064 77.8994 109.641C78.2048 109.371 79.0164 108.441 79.2233 108.204L79.2144 108.086C79.2144 108.086 75.9547 106.445 75.1132 104.152C75.1497 103.883 75.0935 103.61 74.954 103.378C75.0671 102.903 75.0299 102.404 74.8476 101.951C74.975 101.794 75.059 101.605 75.0911 101.405C75.1233 101.205 75.1024 101 75.0306 100.81C75.4484 100.532 77.2717 99.904 77.5323 98.333C76.8888 98.058 75.6732 97.542 75.6732 97.542C75.3153 98.048 74.8532 98.4707 74.3184 98.7813C73.7836 99.0919 73.1886 99.2831 72.5737 99.342C71.2359 99.4807 69.892 99.1434 68.7759 98.389C68.8694 98.719 69.2733 99.037 69.8333 99.337C69.2319 99.4902 68.6052 99.5145 67.9939 99.4081C67.3826 99.3018 66.8004 99.0674 66.2852 98.72C67.0342 99.52 67.3644 99.665 67.258 100.071C67.1515 100.477 67.1137 100.824 66.5796 100.942C66.8422 101.218 67.1878 101.399 67.563 101.457C67.9382 101.516 68.3222 101.449 68.6555 101.266" fill="#6793CE"/>
<path d="M78.0255 111.109C78.0255 111.109 78.4234 112.747 78.5726 113.221C78.3413 113.102 78.1286 112.949 77.9409 112.768C77.8439 112.216 77.8729 111.649 78.0255 111.109Z" fill="#6793CE"/>
<path d="M71.0101 108.879C71.0101 108.879 70.2432 110.379 70.0552 110.84C69.9563 110.598 69.8936 110.343 69.8691 110.083C70.1546 109.602 70.5446 109.191 71.0101 108.883" fill="#6793CE"/>
<path d="M116.593 115.664C115.924 115.32 115.284 114.922 114.68 114.473C113.736 113.762 109.309 106.003 107.554 103.886C107.436 103.772 107.327 103.661 107.221 103.552C107.181 103.526 107.139 103.501 107.096 103.48C106.72 103.286 106.355 103.072 106.001 102.84C105.405 102.44 104.816 102.03 104.603 101.862C104.443 101.897 101.67 102.148 98.7341 102.386L98.3272 102.474L98.0776 102.439C97.9453 102.449 97.814 102.459 97.6797 102.471C98.0189 103.231 100.556 108.75 103.903 111.071C107.502 113.56 109.027 114.871 109.507 116.123C109.903 116.649 110.351 117.134 110.844 117.569L117.5 117.725L116.593 115.664Z" fill="white"/>
<path d="M91.9005 102.822C90.7556 102.983 89.5934 102.975 88.4508 102.798C87.6293 102.554 86.8223 102.263 86.0337 101.927C84.866 102.494 83.7346 103.134 82.6457 103.843C80.9596 105.906 79.2637 108.143 79.2637 108.143C79.3108 110.255 79.8829 112.321 80.9278 114.153C81.9727 115.986 83.4571 117.527 85.2459 118.635C85.2543 118.639 85.2622 118.645 85.2697 118.651C86.3198 119.263 87.434 119.757 88.5921 120.124C93.4313 113.661 96.2364 105.485 96.9755 103.436L97.3306 102.499C94.9104 102.686 92.6365 102.837 91.9014 102.822" fill="white"/>
<path d="M101.771 102.073C100.66 102.81 99.6768 103.724 98.8604 104.78C98.3101 103.925 97.8775 102.999 97.5742 102.027C98.3401 102.121 101.771 102.073 101.771 102.073Z" fill="#6793CE"/>
<path d="M72.4756 96.1367C76.8066 98.0367 84.1286 101.053 84.6976 101.342C85.9152 101.911 87.1693 102.398 88.4516 102.8C89.5942 102.977 90.7564 102.985 91.9013 102.824C93.6719 102.861 104.289 101.934 104.608 101.865C104.822 102.033 105.411 102.441 106.006 102.843C106.36 103.074 106.725 103.288 107.1 103.483C107.5 103.752 107.836 104.107 108.084 104.521C108.283 104.416 108.435 104.24 108.509 104.027C108.469 103.732 108.453 103.436 108.461 103.139C108.515 102.87 109.007 102.811 109.143 102.518C109.278 102.225 109.057 101.757 108.96 101.497C109.311 101.097 109.528 100.827 109.516 100.578C109.319 100.162 109.102 99.7557 108.864 99.3617C108.812 99.1897 109.1 98.8307 109.113 98.7337C109.136 98.5877 109.013 98.4507 108.598 98.1737C108.089 97.9224 107.539 97.7665 106.974 97.7137C106.637 97.6357 106.534 97.6477 106.341 97.4027C106.15 97.23 105.902 97.1348 105.645 97.1357C105.324 97.1968 105.016 97.3161 104.737 97.4877C104.41 97.6787 104.041 97.8937 104.041 97.8937C101.465 97.9607 98.8782 97.3087 96.0721 97.0637C91.9829 96.5137 88.7262 97.2277 83.9486 94.6697C79.5719 92.3277 78.2976 91.7587 76.9637 91.1077C76.6494 90.9547 75.969 90.6007 75.0678 90.1377C75.0678 90.1377 71.9663 92.4747 72.4866 96.1377" fill="white"/>
<path d="M122.894 117.668C122.894 117.668 122.867 118.177 122.61 118.132C122.352 118.087 122.392 117.696 122.392 117.696C122.392 117.696 122.221 117.645 122.052 117.596C121.505 118.336 121.611 117.477 121.611 117.477C121.476 117.453 121.346 117.403 121.229 117.33C120.673 117.971 120.787 117.145 120.787 117.145C120.787 117.145 120.427 116.987 120.245 116.916C119.865 117.484 119.8 116.762 119.8 116.762C119.8 116.762 119.724 116.727 119.431 116.586C118.933 117.18 118.99 116.386 118.99 116.386L118.452 116.164C118.43 116.228 118.397 116.288 118.352 116.34C118.214 116.492 118.114 116.377 118.102 116.269C118.105 116.185 118.132 116.105 118.181 116.038L117.701 115.746C117.677 115.807 117.644 115.864 117.601 115.915C117.502 116.038 117.324 115.985 117.358 115.846C117.373 115.782 117.394 115.72 117.42 115.661C117.38 115.625 117.337 115.591 117.292 115.561L116.695 115.852C116.695 115.852 117.562 116.252 117.721 116.325C117.88 116.398 118.709 116.798 119.165 117.025C119.622 117.252 121.801 118.08 122.634 118.382C123.466 118.684 123.62 118.177 123.62 118.177C123.62 118.177 123.702 118.199 123.819 118.235L123.865 118.06L122.894 117.668Z" fill="#6793CE"/>
<path d="M109.427 117.409L109.485 117.603C110.172 117.865 110.843 118.168 111.494 118.512C112.324 119.045 112.922 119.874 113.168 120.833C112.339 120.953 111.498 120.962 110.667 120.86C110.458 120.833 109.645 120.715 109.645 120.715C109.438 120.514 109.284 120.265 109.195 119.99C109.096 119.59 108.766 118.63 108.766 118.63C108.809 118.209 108.923 117.798 109.104 117.416C109.21 117.391 109.32 117.389 109.427 117.409Z" fill="#C8262B"/>
<path d="M110.101 121.528C111.286 121.557 112.471 121.498 113.647 121.351C113.818 121.351 116.709 121.357 117.01 121.384C117.312 121.411 119.702 121.461 119.702 121.461C119.702 121.461 118.409 121.338 118.375 121.291C118.341 121.244 115.696 120.928 115.696 120.928C115.696 120.928 113.615 120.808 113.167 120.841C112.338 120.959 111.497 120.965 110.666 120.86C110.456 120.833 109.645 120.715 109.645 120.715C109.645 120.715 109.633 121.366 110.101 121.528Z" fill="#6793CE"/>
<path d="M117.288 115.557C117.404 115.608 117.371 115.615 117.417 115.657C117.39 115.716 117.369 115.778 117.353 115.842C117.321 115.981 117.497 116.034 117.598 115.911C117.64 115.861 117.674 115.803 117.697 115.742L118.179 116.034C118.129 116.101 118.101 116.181 118.097 116.265C118.11 116.373 118.211 116.488 118.349 116.336C118.393 116.284 118.427 116.224 118.448 116.16L118.986 116.382C118.986 116.382 118.934 117.173 119.427 116.582C119.72 116.723 119.796 116.758 119.796 116.758C119.796 116.758 119.862 117.48 120.243 116.913C120.424 116.983 120.784 117.141 120.784 117.141C120.784 117.141 120.67 117.967 121.225 117.326C121.342 117.399 121.472 117.449 121.607 117.473C121.607 117.473 121.501 118.332 122.048 117.592C122.218 117.646 122.388 117.692 122.388 117.692C122.388 117.692 122.35 118.085 122.607 118.128C122.864 118.171 122.89 117.664 122.89 117.664C122.886 117.597 122.863 117.532 122.824 117.478C122.784 117.424 122.731 117.382 122.669 117.358C122.457 117.284 122.464 117.407 122.415 117.431C122.357 117.415 122.14 117.349 122.14 117.349C122.14 117.349 122.239 117.208 121.96 117.096C121.755 117.013 121.714 117.153 121.714 117.153L121.307 116.981C121.307 116.981 121.407 116.828 121.103 116.71C121.079 116.696 121.052 116.689 121.024 116.688C120.996 116.688 120.969 116.693 120.944 116.705C120.919 116.717 120.897 116.735 120.88 116.757C120.863 116.779 120.851 116.804 120.845 116.832L120.308 116.643C120.308 116.643 120.426 116.432 120.093 116.334C119.759 116.236 119.799 116.447 119.799 116.447L119.545 116.358C119.54 116.309 119.52 116.264 119.487 116.228C119.455 116.192 119.412 116.167 119.364 116.157C119.364 116.157 119.159 116.05 119.087 116.173C118.973 116.125 118.622 115.961 118.622 115.961C118.622 115.961 118.639 115.871 118.482 115.805C118.325 115.739 118.297 115.846 118.297 115.846L117.857 115.591C117.857 115.591 117.906 115.477 117.743 115.391C117.58 115.305 117.52 115.4 117.52 115.4L117.399 115.341C116.925 115.075 116.435 114.841 115.931 114.641C115.415 114.748 115.266 115.668 115.199 115.861C115.131 116.054 115.239 116.378 115.622 116.681C116.054 116.503 116.411 116.179 116.63 115.765C116.63 115.765 117.175 115.507 117.291 115.557" fill="white"/>
<path d="M110.544 118.03C110.975 118.238 112.566 118.83 114.01 119.43C115.033 119.824 116.1 120.091 117.188 120.224C117.188 120.224 119.421 120.569 119.663 119.224C119.904 117.879 117.978 116.649 117.978 116.649C117.978 116.649 118.855 118.481 116.947 118.619C116.126 118.675 115.302 118.629 114.492 118.481C112.829 117.899 111.267 117.059 109.863 115.992C109.63 115.718 109.316 115.527 108.967 115.445C108.803 115.409 108.967 115.674 108.967 115.811C108.967 115.948 108.989 116.611 109.016 116.711C109.043 116.811 109.096 117.419 109.096 117.419L109.472 117.605L110.544 118.03Z" fill="#F6EB3F"/>
<path d="M119.702 121.459C119.702 121.459 118.409 121.336 118.375 121.289C118.342 121.242 115.698 120.927 115.698 120.927C115.698 120.927 113.615 120.804 113.168 120.837C112.916 119.88 112.319 119.05 111.493 118.51C111.189 118.33 110.875 118.17 110.551 118.029C110.98 118.237 112.568 118.829 114.011 119.429C115.033 119.825 116.101 120.091 117.189 120.223C117.189 120.223 119.422 120.569 119.664 119.223C119.905 117.877 117.979 116.648 117.979 116.648C117.979 116.648 118.856 118.48 116.949 118.618C116.128 118.675 115.303 118.628 114.493 118.48C112.891 118.043 111.32 117.496 109.791 116.844C109.933 116.813 110.067 116.753 110.185 116.666C110.303 116.58 110.401 116.471 110.474 116.344C110.574 116.357 111.397 117.013 111.511 117.026C112.854 117.17 114.6 117.294 115.463 116.744C115.821 116.633 116.3 116.051 116.708 115.812C117.026 115.624 118.698 116.789 119.16 117.012C120.435 117.529 121.745 117.954 123.079 118.284C123.34 118.136 123.676 117.984 123.676 117.984C124.157 118.2 124.616 118.461 125.047 118.765C125.404 119.081 125.333 119.543 123.953 120.023C122.572 120.503 119.786 121.052 119.703 121.451" fill="#6793CE"/>
<path d="M127.147 119.475C126.957 118.94 125.348 118.587 125.348 118.587L124.134 118.164L123.859 118.055L123.813 118.231C124.252 118.342 124.67 118.526 125.049 118.775C125.406 119.09 125.058 119.166 124.88 119.184C124.702 119.202 123.213 119.395 123.213 119.395C122.334 119.444 121.469 119.642 120.655 119.982C120.378 120.118 120.143 120.328 119.975 120.588C119.807 120.848 119.712 121.15 119.701 121.46C119.9 121.511 122.066 121.521 122.616 121.503C123.582 121.451 124.545 121.345 125.5 121.187C126.062 121.062 126.593 120.826 127.063 120.494C127.201 120.287 127.553 120.104 127.15 119.475" fill="#C8262B"/>
<path d="M80.3404 128.612L79.5755 137.081L82.8202 128.612H87.6018L80.3036 147.906H75.5797L76.1517 138.627L72.6453 147.906H67.9205L75.1818 128.612H80.3404ZM82.8272 128.597L87.6236 128.617C87.6236 128.617 80.3285 147.911 80.3105 147.923L75.5688 147.903C75.5688 147.903 76.1218 138.931 76.1338 138.733C75.7787 139.682 72.6632 147.911 72.6523 147.923L67.9105 147.9L75.1788 128.6L80.3583 128.615C80.3583 128.615 79.6292 136.759 79.6103 136.975C79.9723 136.021 82.8162 128.61 82.8292 128.6M79.5993 137.092L79.5745 137.082C79.5745 137.082 80.3304 128.63 80.3474 128.63H75.1987C75.1221 128.844 67.9453 147.892 67.9224 147.892L72.6364 147.903L76.1407 138.626H76.1686C76.1686 138.626 75.5996 147.888 75.5817 147.888L80.2936 147.899C80.2936 147.899 87.5799 128.626 87.6057 128.626L82.8371 128.616L79.5993 137.092ZM86.1405 147.906L93.4357 128.612H88.6611L81.3649 147.906H86.1405ZM88.6681 128.6L93.4546 128.62L86.1555 147.926L81.359 147.903C81.359 147.903 88.6552 128.61 88.6681 128.603M81.3719 147.895H86.1316C86.2132 147.681 93.4228 128.633 93.4387 128.633L88.679 128.623C88.679 128.623 81.3928 147.895 81.3719 147.895ZM107.019 139.455H111.171L112.438 136.039H108.323L109.751 132.204H113.905L115.254 128.618H101.865L97.0217 134.212L99.2538 128.618H94.4901L87.2208 147.912H91.9825L95.0571 139.652L95.1218 147.912H101.488L79.107 153.788C74.5482 154.988 70.8509 154.808 68.762 153.319C63.3905 149.494 67.4689 141.791 68.951 139.498C66.2896 142.192 63.8499 145.099 61.6558 148.19C58.4508 152.998 57.0751 158.255 59.2406 161.635C63.1468 167.735 72.4911 164.92 78.4315 162.478L133.712 139.733L109.749 145.744L110.377 144.044H105.266L107.019 139.455ZM105.897 129.298L106.238 128.998L99.5572 146.698L99.211 137.052L105.897 129.298ZM101.865 128.603L115.264 128.623C115.264 128.623 113.917 132.207 113.902 132.215L109.76 132.207C109.76 132.207 108.343 136.028 108.32 136.028L112.455 136.044C112.455 136.044 111.188 139.459 111.171 139.469L107.032 139.459C107.032 139.459 105.301 143.996 105.289 144.035C105.515 144.035 110.376 144.035 110.394 144.053C110.394 144.053 109.767 145.73 109.742 145.732L133.707 139.719L133.717 139.748L78.4425 162.486C68.6347 166.523 62.17 166.238 59.2307 161.646C57.2144 158.5 58.1186 153.463 61.6399 148.175C63.8358 145.085 66.2769 142.179 68.939 139.485L68.9629 139.505C68.3352 140.479 62.9748 149.168 68.7709 153.305C70.8737 154.805 74.5402 154.967 79.097 153.771C79.097 153.771 101.15 147.985 101.373 147.928L95.1059 147.911C95.1059 147.911 95.0442 139.902 95.0442 139.739C94.7458 140.524 91.9954 147.916 91.9825 147.928L87.2079 147.905C87.2079 147.905 94.4762 128.612 94.4931 128.605L99.2677 128.625C99.2677 128.625 97.142 133.973 97.0794 134.132C97.6294 133.502 101.86 128.609 101.871 128.605M87.2208 147.889L91.9656 147.9L95.0442 139.644H95.0671C95.0671 139.644 95.1247 146.207 95.1247 147.622C95.1247 147.792 95.1247 147.887 95.1247 147.887H101.491V147.921L79.1099 153.795C74.5482 154.995 70.8628 154.828 68.759 153.326C67.8943 152.724 67.1948 151.913 66.7252 150.967C66.2557 150.022 66.0315 148.972 66.0733 147.916C66.0733 144.301 68.2686 140.562 68.8465 139.622C66.2281 142.28 63.8283 145.147 61.6707 148.195C59.3829 151.619 58.2071 154.94 58.2071 157.695C58.172 159.078 58.5369 160.441 59.2575 161.62C62.1909 166.202 68.6396 166.48 78.4315 162.453C78.4315 162.453 133.13 139.943 133.515 139.783C131.264 140.351 109.749 145.75 109.728 145.73C109.728 145.73 110.355 144.052 110.377 144.052H105.246L105.255 144.031C105.255 144.031 107.005 139.437 107.02 139.426L111.161 139.437C111.161 139.437 112.422 136.047 112.439 136.047L108.305 136.024C108.305 136.024 109.728 132.186 109.749 132.175L113.885 132.186C113.885 132.186 115.227 128.623 115.252 128.62H101.877L97.0376 134.209L97.0097 134.195C97.0097 134.195 99.2239 128.626 99.2548 128.623L94.4961 128.617C94.4961 128.617 87.2347 147.889 87.2168 147.889M106.216 128.981L106.244 128.999L99.5681 146.705L99.5373 146.698L99.1871 137.047C99.1871 137.047 105.868 129.285 105.877 129.281L106.216 128.981ZM105.897 129.302L99.22 137.057C99.22 137.068 99.5621 146.47 99.5651 146.623C99.6169 146.478 106.155 129.159 106.194 129.048C106.101 129.125 105.895 129.302 105.895 129.302" fill="#6793CE"/>
</g>
<defs>
<clipPath id="clip0_20_2014">
<rect width="188" height="188" fill="white"/>
</clipPath>
</defs>
</svg>
