<svg width="341" height="265" viewBox="0 0 341 265" fill="none" xmlns="http://www.w3.org/2000/svg">
<path d="M48.7969 31.2588L48.7969 110.449H149.503V31.2588H48.7969Z" fill="#00F301"/>
<path d="M102.883 92.221L102.883 182.169H182.969V92.221H102.883Z" fill="#00F301"/>
<path d="M72.7031 98.7948L72.7031 207.569H159.065V98.7948H72.7031Z" fill="#00F301"/>
<path d="M133.965 42.9133V117.621H225.108V42.9133H133.965Z" fill="#00F301"/>
<path d="M159.066 110.45V160.056H225.108V110.45H159.066Z" fill="#00F301"/>
<path d="M172.512 98.795V176.491H240.347V98.795H172.512Z" fill="#00F301"/>
<path d="M201.199 145.413V207.569H271.424V145.413H201.199Z" fill="#00F301"/>
<path d="M179.984 173.204V233.866H240.348V173.204H179.984Z" fill="#00F301"/>
<path d="M212.258 76.3815V115.528H284.873V76.3815H212.258Z" fill="#00F301"/>
<path d="M228.691 110.45V153.183H275.907V110.45H228.691Z" fill="#00F301"/>
<path d="M250.207 54.8668V98.7949H292.94V54.8668H250.207Z" fill="#00F301"/>
<path d="M27.3095 129.747C22.1315 158.342 13.9806 245.857 53.666 246.224C94.0874 246.595 285.683 52.6386 319.085 18.9834" stroke="black" stroke-width="15" stroke-miterlimit="10" stroke-linecap="round"/>
<path d="M319.087 18.9834C265.236 55.1344 152.433 143.49 107.299 158.358C99.9809 160.767 86.9669 165.294 79.4743 163.502C58.4979 158.484 36.5031 136.744 46.5253 94.5441" stroke="black" stroke-width="15" stroke-miterlimit="10" stroke-linecap="round"/>
</svg>
