<svg width="188" height="188" viewBox="0 0 188 188" fill="none" xmlns="http://www.w3.org/2000/svg">
<g clip-path="url(#clip0_20_2008)">
<path d="M158.007 90.6686C157.765 88.6758 156.762 86.8539 155.206 85.5846C155.117 85.5061 155.023 85.4326 154.924 85.3646C151.445 82.8186 146.782 82.1166 141.533 82.4406C141.843 80.6946 142.315 77.2886 142.907 71.0326C143.159 67.0816 143.086 63.1166 142.688 59.1776C142.022 53.1716 139.77 50.1676 137.932 48.6846L137.76 48.5506C136.932 47.8981 135.979 47.4219 134.959 47.151C133.94 46.8802 132.876 46.8205 131.833 46.9756C127.573 47.6476 123.781 50.4376 120.301 54.3806C120.208 54.4806 120.207 54.4806 120.301 54.3806C119.546 53.1536 117.213 50.1936 113.202 45.3466C110.591 42.3718 107.736 39.6211 104.667 37.1236C99.8065 33.2236 96.0045 32.7716 93.6665 33.0826C92.6197 33.2085 91.6097 33.5469 90.6983 34.0771C89.7869 34.6072 88.9934 35.3179 88.3665 36.1656C85.8205 39.6446 85.1195 44.3026 85.4365 49.5516C84.0305 49.2286 80.2905 48.7706 74.0305 48.1916C70.0777 47.9323 66.11 48.0059 62.1695 48.4116C55.9855 49.0826 52.9755 51.4576 51.5475 53.3256C50.8939 54.1547 50.417 55.1088 50.1462 56.1292C49.8753 57.1495 49.8162 58.2145 49.9725 59.2586C50.6435 63.5196 53.4325 67.3036 57.3725 70.7896C56.1305 71.5616 53.0925 73.9396 48.3375 77.8896C45.3623 80.5031 42.6101 83.3599 40.1095 86.4306C36.2095 91.2896 35.7685 95.0926 36.0745 97.4306C36.1997 98.4764 36.5378 99.4854 37.0678 100.396C37.5979 101.306 38.3087 102.098 39.1565 102.723C42.6405 105.273 47.2885 105.976 52.5395 105.654C52.2215 107.067 51.7645 110.813 51.1785 117.06C50.9226 121.011 50.9961 124.976 51.3985 128.915C52.0755 135.115 54.4505 138.115 56.3185 139.549C57.1484 140.199 58.1019 140.673 59.1211 140.943C60.1402 141.213 61.2036 141.272 62.2465 141.118C66.5065 140.452 70.3085 137.658 73.7815 133.718C74.5455 134.94 76.8705 137.9 80.8815 142.751C83.4946 145.724 86.3512 148.475 89.4215 150.974C94.2815 154.874 98.0835 155.32 100.416 155.009C101.462 154.885 102.473 154.549 103.384 154.019C104.296 153.49 105.089 152.78 105.715 151.932C108.256 148.446 108.964 143.789 108.633 138.545C108.625 138.407 108.633 138.408 108.639 138.545C109.652 138.784 111.887 139.076 115.409 139.445C116.764 139.585 118.309 139.738 120.055 139.902C124.003 140.162 127.966 140.088 131.902 139.683C138.102 139.005 141.103 136.631 142.531 134.762C143.184 133.934 143.661 132.981 143.932 131.961C144.203 130.942 144.261 129.878 144.105 128.835C143.44 124.568 140.644 120.777 136.695 117.298C136.684 117.288 136.69 117.288 136.702 117.298C137.924 116.535 140.889 114.208 145.736 110.204C148.707 107.584 151.46 104.725 153.965 101.658C157.86 96.8046 158.306 92.9946 157.995 90.6626M141.348 109.463C139.873 113.153 136.554 116.082 136.014 116.702C131.606 112.978 125.928 109.609 120.202 106.386L98.7795 94.9656C98.7301 95.0735 98.6665 95.1744 98.5905 95.2656C98.5415 95.3206 98.4905 95.3656 98.4375 95.4246C102.008 98.9896 114.858 111.846 115.749 112.799C121.115 118.561 125.949 124.568 124.93 129.385C124.35 132.126 121.959 134.505 117.478 136.277C113.811 137.728 109.424 137.57 108.585 137.626C108.109 131.882 106.472 125.478 104.702 119.16L97.6205 95.9196C97.4336 95.9711 97.2404 95.996 97.0465 95.9936C97.0575 101.036 97.0515 119.228 97.0095 120.534C96.7295 128.409 95.8995 136.064 91.7725 138.749C89.4285 140.282 86.1265 140.099 81.6325 138.364C77.9255 136.933 75.0145 133.571 74.3815 133.018C78.1165 128.618 81.4905 122.937 84.7005 117.218L96.1285 95.7666C96.0157 95.7114 95.9091 95.6444 95.8105 95.5666C95.7599 95.5215 95.7131 95.4724 95.6705 95.4196C92.1115 98.9906 79.2435 111.859 78.2965 112.75C72.5225 118.122 66.5215 122.95 61.7045 121.931C58.9635 121.351 56.6585 118.938 54.8045 114.484C53.5735 111.523 53.5235 106.415 53.4615 105.584C59.2075 105.102 65.6105 103.47 71.9335 101.702L95.1675 94.6146C95.108 94.4312 95.079 94.2394 95.0815 94.0466C90.0325 94.0466 71.8665 94.0586 70.5655 94.0106C62.6855 93.7296 55.0245 92.8996 52.3375 88.7726C50.8115 86.4286 50.8455 83.0726 52.7285 78.6336C54.2815 74.9746 57.5215 72.0146 58.0685 71.3836C62.4685 75.1186 68.1525 78.4836 73.8785 81.7056L95.2935 93.1116C95.3553 92.9957 95.4269 92.8853 95.5075 92.7816C95.5505 92.7326 95.6075 92.6896 95.6475 92.6476C92.0635 89.0706 79.2325 76.2476 78.3475 75.2926C72.9765 69.5296 68.1475 63.5226 69.1665 58.7066C69.7405 55.9656 72.2415 53.8456 76.6085 51.8066C80.0035 50.2226 84.6845 50.5116 85.5085 50.4636C85.5005 50.3276 85.5005 50.3266 85.5085 50.4636C85.9845 56.2146 87.6205 62.6116 89.3915 68.9366L96.4615 92.1366C96.6514 92.0795 96.8492 92.0529 97.0475 92.0576C97.0395 86.9916 97.0345 68.8666 97.0835 67.5666C97.3575 59.6856 98.1945 52.0306 102.314 49.3446C104.664 47.8186 108.014 47.8566 112.454 49.7346C116.019 51.2426 119.073 54.5236 119.702 55.0736C115.98 59.4806 112.602 65.1636 109.387 70.8736L97.9795 92.2826C98.0903 92.338 98.1949 92.4051 98.2915 92.4826C98.3475 92.5343 98.4003 92.5894 98.4495 92.6476C102.028 89.0576 114.84 76.2386 115.794 75.3476C121.569 69.9826 127.562 65.1536 132.385 66.1726C135.12 66.7396 137.586 69.0976 139.286 73.6076C140.201 76.4868 140.656 79.4925 140.633 82.5136C140.859 82.4996 140.86 82.4996 140.633 82.5136C134.876 82.9896 128.474 84.6196 122.156 86.3836L98.9455 93.4656C99 93.6516 99.0246 93.845 99.0185 94.0386C104.078 94.0326 122.228 94.0326 123.529 94.0816C131.404 94.3626 139.065 95.1926 141.751 99.3186C143.277 101.664 143.15 104.98 141.359 109.465" fill="#00FF00"/>
</g>
<defs>
<clipPath id="clip0_20_2008">
<rect width="188" height="188" fill="white"/>
</clipPath>
</defs>
</svg>
