<svg width="188" height="188" viewBox="0 0 188 188" fill="none" xmlns="http://www.w3.org/2000/svg">
<g clip-path="url(#clip0_20_1999)">
<path d="M179.963 83.967C179.531 82.7361 178.648 81.7152 177.492 81.1108C176.336 80.5063 174.993 80.3634 173.736 80.711L131.544 92.067L137.544 75.307C138.349 75.6568 139.189 75.92 140.049 76.092C140.86 76.2529 141.684 76.3339 142.51 76.334C145.103 76.3306 147.635 75.5507 149.781 74.095C151.278 73.1452 152.408 71.7151 152.986 70.039L153.072 69.777C153.093 69.7138 153.109 69.6489 153.119 69.583L153.292 68.437L153.298 68.39C154.298 66.998 154.838 65.3282 154.843 63.614C154.843 63.0914 154.793 62.57 154.693 62.057C154.321 60.4108 153.514 58.8948 152.355 57.6677C151.197 56.4406 149.729 55.5476 148.107 55.082C147.013 54.7635 145.878 54.6052 144.738 54.612H144.678C143.432 52.9049 141.684 51.629 139.678 50.962C138.598 50.6119 137.476 50.4045 136.342 50.345C135.49 48.8069 134.216 47.544 132.671 46.705C131.414 46.0446 130.02 45.6897 128.6 45.669C128.311 45.1007 127.972 44.5592 127.587 44.051C126.635 42.8038 125.411 41.7905 124.008 41.0884C122.605 40.3863 121.06 40.0141 119.491 40C118.939 39.9983 118.388 40.0465 117.845 40.144C115.464 40.5722 113.338 41.8963 111.904 43.844C109.28 44.3381 106.87 45.6254 105 47.532C103.477 49.0144 102.354 50.8574 101.734 52.89C100.436 53.3221 99.2679 54.0762 98.3401 55.082C98.0652 55.3833 97.8145 55.7056 97.5901 56.046H96.7151C96.6535 56.037 96.5914 56.032 96.5291 56.031L51.8891 55.967C51.567 55.967 51.2528 56.0665 50.9894 56.252C50.7261 56.4374 50.5266 56.6998 50.4181 57.003L46.7181 67.363C45.6382 66.6161 44.4105 66.1097 43.1181 65.878C42.5932 65.7881 42.0616 65.7426 41.5291 65.742C40.0081 65.7555 38.5104 66.1164 37.1502 66.7972C35.79 67.478 34.6035 68.4606 33.6811 69.67C33.3431 70.1144 33.0421 70.5856 32.7811 71.079C31.2944 71.1269 29.8451 71.5569 28.5728 72.3276C27.3005 73.0982 26.2481 74.1836 25.5171 75.479C24.4769 75.5483 23.4492 75.7451 22.4571 76.065C20.5645 76.6992 18.9091 77.8932 17.7101 79.489C16.637 79.4911 15.5695 79.6443 14.5391 79.944C12.9612 80.3874 11.5335 81.2514 10.4087 82.4435C9.28382 83.6356 8.50418 85.1111 8.15309 86.712L8.11809 86.887C8.11209 86.923 8.10609 86.959 8.10009 87L8.00009 87.973C7.99737 88.0153 7.99737 88.0578 8.00009 88.1V88.269C8.00976 89.9099 8.52287 91.5082 9.47009 92.848L9.63509 93.933C9.64496 94.0009 9.66069 94.0679 9.68209 94.133L9.77209 94.403C10.3373 96.0326 11.4373 97.423 12.8931 98.348C14.9588 99.7493 17.397 100.5 19.8931 100.502C20.6932 100.504 21.4916 100.425 22.2761 100.268C22.3591 100.252 22.4421 100.234 22.5241 100.216C22.3401 100.492 22.1598 100.765 21.9831 101.036L21.9701 101.057C13.5901 114.519 11.7181 127.092 16.8321 135.547C20.9251 142.408 27.6151 145.89 36.7131 145.89C42.6181 145.737 48.4598 144.632 54.0131 142.619C55.2475 144.202 57.0365 145.258 59.0191 145.574C61.0563 147.565 63.7495 148.745 66.5941 148.892H66.6251L66.9971 148.899H67.0201C68.8317 148.89 70.6148 148.448 72.2201 147.608C73.7081 148.469 75.3959 148.925 77.1151 148.931H77.2211L77.7371 148.913H77.7761C79.6006 148.789 81.3477 148.128 82.7971 147.013C83.1321 147.171 83.4691 147.313 83.8031 147.441C85.083 147.929 86.4403 148.182 87.8101 148.189C89.3319 148.201 90.8339 147.844 92.1881 147.15C92.5725 146.95 92.9403 146.72 93.2881 146.461C93.9793 146.743 94.6954 146.958 95.4271 147.105C96.2119 147.26 97.0101 147.338 97.8101 147.337C100.314 147.332 102.759 146.579 104.831 145.173C106.275 144.242 107.366 142.855 107.931 141.232L108.021 140.955C108.041 140.894 108.056 140.831 108.066 140.768L108.23 139.689C109.178 138.342 109.69 136.736 109.698 135.089C109.699 134.576 109.65 134.064 109.549 133.561C109.199 131.957 108.419 130.479 107.293 129.285C106.166 128.09 104.737 127.225 103.156 126.781C102.127 126.483 101.061 126.331 99.9901 126.329C99.3083 125.429 98.4781 124.651 97.5351 124.029L103.8 121.28C105.239 122.087 106.896 122.422 108.535 122.236C109.573 123.181 110.837 123.841 112.206 124.152C112.822 124.292 113.452 124.363 114.083 124.362C115.255 124.356 116.414 124.112 117.489 123.644C118.223 123.901 118.994 124.036 119.772 124.044H119.932H119.948C119.983 124.044 120.017 124.044 120.048 124.044L120.624 123.993L120.681 123.987L120.981 123.945L121.033 123.937C121.644 123.827 122.238 123.634 122.797 123.364C122.998 124.643 123.557 125.838 124.407 126.814C125.11 127.599 125.973 128.225 126.937 128.65C127.902 129.075 128.946 129.289 130 129.278C130.565 129.277 131.128 129.217 131.68 129.097H131.702C131.795 129.075 131.888 129.052 131.98 129.028C132.972 129.544 134.071 129.819 135.188 129.833H135.288H135.314H135.39L135.945 129.797C135.976 129.797 136.006 129.797 136.037 129.788C137.349 129.632 138.592 129.113 139.624 128.288C141.307 128.178 142.886 127.432 144.039 126.201C145.328 124.805 146.049 122.978 146.06 121.078C146.079 119.385 145.455 117.748 144.314 116.497C143.691 115.826 142.94 115.287 142.105 114.911C141.27 114.535 140.368 114.33 139.453 114.308H139.427H139.178H139.152C138.911 114.308 138.671 114.322 138.431 114.348C138.458 114.093 138.471 113.837 138.469 113.58C138.448 112.384 138.127 111.211 137.537 110.171C136.946 109.13 136.104 108.254 135.088 107.622L177.537 89.48C178.564 89.039 179.386 88.2247 179.836 87.2015C180.286 86.1783 180.332 85.0224 179.963 83.967Z" fill="#0D0002"/>
<path d="M99.6602 72.7212L101.986 69.8832C101.61 69.7669 101.255 69.5925 100.933 69.3662L99.6602 72.7212Z" fill="#D0CFCD"/>
<path d="M110.293 73.4873C110.193 73.4873 110.085 73.4873 109.981 73.4803C109.588 73.4614 109.197 73.4106 108.811 73.3283L104.234 78.9283L104.758 100.362L114.979 71.8623C114.626 72.137 114.249 72.3806 113.853 72.5903C112.758 73.1757 111.536 73.4846 110.293 73.4903" fill="#D0CFCD"/>
<path d="M178.849 84.3577C178.516 83.4088 177.835 82.6218 176.944 82.1562C176.053 81.6905 175.018 81.5809 174.049 81.8497L130.372 93.5997C130.339 93.6085 130.306 93.6132 130.272 93.6137C130.212 93.6134 130.154 93.5991 130.101 93.572C130.048 93.5448 130.002 93.5054 129.967 93.4572C129.932 93.4089 129.909 93.3531 129.9 93.2943C129.891 93.2355 129.895 93.1753 129.914 93.1187L136.547 74.5777C136.575 74.4484 136.631 74.3269 136.711 74.2215C136.791 74.116 136.893 74.0291 137.01 73.9667C137.049 73.9535 137.09 73.9474 137.132 73.9487C137.323 73.9575 137.511 73.9991 137.689 74.0717C138.514 74.4612 139.383 74.7486 140.278 74.9277C141.012 75.0739 141.759 75.1472 142.508 75.1467C144.861 75.1441 147.16 74.4363 149.108 73.1147C150.388 72.3093 151.357 71.0939 151.858 69.6667L151.945 69.4017L152.118 68.2547V67.9787C153.11 66.737 153.652 65.196 153.657 63.6067C153.657 63.1602 153.613 62.7147 153.527 62.2767C153.198 60.8413 152.49 59.5206 151.476 58.4529C150.462 57.3852 149.179 56.6097 147.763 56.2077C146.778 55.9223 145.757 55.7809 144.732 55.7877C144.581 55.7877 144.432 55.7877 144.275 55.7967H144.26C144.197 55.7967 144.136 55.7812 144.081 55.7516C144.026 55.7219 143.979 55.679 143.945 55.6267C142.838 53.9574 141.203 52.708 139.302 52.0787C138.182 51.7151 137.014 51.5216 135.837 51.5047L135.5 51.2997C134.767 49.791 133.58 48.5497 132.106 47.7497C130.971 47.1535 129.707 46.8445 128.425 46.8497C128.325 46.8497 128.218 46.8497 128.115 46.8547H128.101C128.027 46.855 127.955 46.8339 127.892 46.794C127.83 46.7541 127.781 46.697 127.751 46.6297C127.456 45.9691 127.087 45.3441 126.651 44.7667C125.81 43.6628 124.728 42.7659 123.487 42.1445C122.246 41.5232 120.879 41.1938 119.492 41.1817C119.011 41.1804 118.53 41.2223 118.057 41.3067C116.971 41.5008 115.936 41.9105 115.012 42.5117C114.088 43.1129 113.293 43.8932 112.676 44.8067C112.646 44.8501 112.608 44.8869 112.563 44.9147C112.519 44.9424 112.469 44.9605 112.417 44.9677C109.912 45.3682 107.602 46.5641 105.829 48.3787C104.35 49.8196 103.288 51.6336 102.756 53.6287C102.739 53.6926 102.705 53.7509 102.658 53.7979C102.612 53.8449 102.554 53.879 102.49 53.8967C101.233 54.2381 100.098 54.9263 99.2137 55.8827C98.8927 56.2348 98.6107 56.6208 98.3727 57.0337C98.3401 57.0915 98.2927 57.1397 98.2355 57.1734C98.1783 57.2071 98.1131 57.2251 98.0467 57.2257L96.5267 57.2337V57.2177L51.8867 57.1537C51.8086 57.1536 51.7324 57.1777 51.6685 57.2226C51.6046 57.2676 51.5561 57.3311 51.5297 57.4047L47.4617 68.8167C47.4359 68.8901 47.3879 68.9536 47.3242 68.9985C47.2606 69.0433 47.1846 69.0671 47.1067 69.0667C47.0123 69.0661 46.9214 69.0305 46.8517 68.9667C45.7451 67.9716 44.3826 67.3053 42.9177 67.0427C42.4613 66.9639 41.9989 66.9244 41.5357 66.9247C40.1958 66.9371 38.8765 67.2557 37.6787 67.8563C36.4809 68.4568 35.4362 69.3234 34.6247 70.3897C34.2362 70.9021 33.9031 71.4541 33.6307 72.0367C33.6009 72.1017 33.5532 72.157 33.4932 72.1959C33.4332 72.2349 33.3633 72.256 33.2917 72.2567H33.1327C31.8856 72.2527 30.6565 72.5541 29.5527 73.1347C28.1762 73.8849 27.0602 75.0357 26.3527 76.4347C26.3218 76.4955 26.275 76.5467 26.2172 76.583C26.1595 76.6193 26.0929 76.6392 26.0247 76.6407C24.9392 76.6707 23.8636 76.8563 22.8307 77.1917C21.0409 77.7856 19.4953 78.9501 18.4307 80.5067C18.3959 80.5575 18.3492 80.599 18.2946 80.6276C18.2401 80.6562 18.1793 80.671 18.1177 80.6707H18.1077C18.0037 80.6707 17.8997 80.6707 17.7957 80.6707C16.8079 80.6643 15.8244 80.8011 14.8757 81.0767C13.5031 81.4589 12.2602 82.207 11.2799 83.2409C10.2995 84.2748 9.61851 85.5557 9.30973 86.9467L9.27773 87.1127L9.17773 88.0867V88.2547C9.18351 89.7693 9.69331 91.2389 10.6267 92.4317V92.6317L10.7997 93.7547L10.8897 94.0247C11.3776 95.4089 12.3188 96.5876 13.5607 97.3697C15.4291 98.636 17.6337 99.3141 19.8907 99.3167C20.6116 99.3181 21.3308 99.2477 22.0377 99.1067C22.8459 98.9452 23.6327 98.6912 24.3827 98.3497C24.4318 98.3264 24.4854 98.3144 24.5397 98.3147C24.6298 98.3154 24.7169 98.3475 24.7857 98.4057H24.7907C24.8621 98.4673 24.9077 98.5535 24.9186 98.6472C24.9296 98.7409 24.905 98.8352 24.8497 98.9117C24.1747 99.8627 23.5577 100.768 22.9697 101.672C14.8367 114.746 12.9697 126.872 17.8417 134.931C21.7107 141.415 28.0607 144.705 36.7127 144.705C41.7647 144.705 47.5127 143.59 54.1897 141.305C54.2287 141.291 54.2696 141.284 54.3107 141.285C54.3742 141.285 54.4367 141.301 54.4925 141.331C54.5484 141.361 54.5959 141.405 54.6307 141.458C55.1693 142.272 55.8784 142.96 56.7088 143.474C57.5393 143.988 58.4714 144.315 59.4407 144.434C59.5248 144.443 59.6028 144.482 59.6617 144.543C61.5045 146.443 63.9998 147.574 66.6437 147.706L67.0147 147.713C68.784 147.702 70.5202 147.232 72.0527 146.348C72.1097 146.315 72.1741 146.298 72.2397 146.298C72.3107 146.298 72.3801 146.319 72.4397 146.358C73.834 147.255 75.4549 147.736 77.1127 147.745H77.1747L77.6917 147.727C79.4443 147.605 81.1104 146.92 82.4417 145.774C82.5106 145.715 82.5981 145.682 82.6887 145.682C82.7486 145.682 82.8075 145.696 82.8607 145.724C83.3006 145.952 83.7534 146.155 84.2167 146.331C85.363 146.768 86.5788 146.995 87.8057 147.002C89.1388 147.014 90.4549 146.703 91.6417 146.096C92.095 145.859 92.5204 145.572 92.9097 145.241C92.9786 145.182 93.0662 145.15 93.1567 145.15C93.2106 145.15 93.2638 145.161 93.3127 145.184C94.0604 145.525 94.8449 145.779 95.6507 145.941C96.3594 146.081 97.0802 146.152 97.8027 146.151C100.069 146.148 102.283 145.466 104.158 144.193C105.387 143.406 106.319 142.231 106.806 140.855L106.894 140.585L107.064 139.462V139.262C107.998 138.065 108.508 136.591 108.513 135.073C108.513 134.638 108.47 134.205 108.386 133.779C108.078 132.385 107.396 131.102 106.414 130.066C105.432 129.03 104.186 128.281 102.811 127.9C101.865 127.627 100.886 127.492 99.9017 127.5C99.8017 127.5 99.6937 127.5 99.5887 127.5H99.5787C99.5169 127.5 99.456 127.485 99.4012 127.456C99.3465 127.427 99.2996 127.386 99.2647 127.335C98.197 125.775 96.647 124.609 94.8527 124.016L94.6907 123.967L103.891 119.937C103.979 119.997 104.069 120.055 104.159 120.11C105.211 120.756 106.423 121.096 107.659 121.093C108.023 121.092 108.387 121.061 108.747 121.002H108.808C108.858 121.002 108.907 121.011 108.953 121.03C108.999 121.049 109.041 121.077 109.077 121.113C110.01 122.047 111.189 122.699 112.477 122.993C113.005 123.113 113.545 123.173 114.087 123.173C115.2 123.168 116.298 122.913 117.299 122.426C117.349 122.401 117.405 122.388 117.461 122.389C117.509 122.389 117.556 122.398 117.601 122.416C118.296 122.696 119.037 122.843 119.787 122.85H119.953L120.529 122.799L120.834 122.758C121.531 122.631 122.198 122.377 122.802 122.007C122.86 121.971 122.927 121.952 122.996 121.952H123.021C123.137 121.96 123.253 121.963 123.371 121.963C123.557 121.963 123.749 121.903 123.937 121.883C123.929 122.005 123.904 122.123 123.904 122.247C123.899 123.632 124.396 124.972 125.304 126.019C125.893 126.68 126.617 127.208 127.427 127.567C128.237 127.925 129.114 128.107 130 128.1C130.483 128.099 130.964 128.047 131.437 127.946C131.614 127.905 131.79 127.858 131.964 127.803C132 127.792 132.038 127.786 132.076 127.786C132.142 127.786 132.207 127.803 132.265 127.837C133.158 128.359 134.171 128.64 135.206 128.652H135.306L135.861 128.616H135.889C137.067 128.473 138.175 127.98 139.07 127.2C139.135 127.143 139.218 127.112 139.305 127.11C140.031 127.096 140.748 126.936 141.412 126.641C142.075 126.345 142.673 125.919 143.17 125.389C144.258 124.21 144.867 122.668 144.877 121.064C144.893 119.67 144.382 118.323 143.447 117.29C142.928 116.733 142.303 116.286 141.609 115.974C140.914 115.663 140.165 115.494 139.404 115.477H139.155C138.451 115.481 137.754 115.612 137.097 115.865C137.009 115.833 136.915 115.82 136.825 115.793L136.836 115.775C137.14 115.082 137.294 114.332 137.286 113.575C137.265 112.351 136.868 111.164 136.149 110.175C135.429 109.185 134.423 108.441 133.266 108.044C133.166 108.012 133.066 107.982 132.966 107.954C132.891 107.932 132.825 107.888 132.776 107.827C132.728 107.766 132.699 107.692 132.694 107.614C132.689 107.537 132.709 107.459 132.75 107.393C132.791 107.327 132.851 107.275 132.923 107.245L177.071 88.3927C177.824 88.0708 178.426 87.4747 178.755 86.7252C179.085 85.9758 179.117 85.1291 178.846 84.3567M137.017 118.781C137.261 118.909 137.488 119.069 137.69 119.258C137.848 119.094 138.025 118.949 138.217 118.827C138.66 118.546 139.172 118.396 139.697 118.393H139.81C140.174 118.404 140.533 118.482 140.87 118.623C141.173 118.75 141.446 118.941 141.67 119.183C142.08 119.644 142.302 120.242 142.29 120.86C142.279 121.684 141.962 122.474 141.401 123.078C141.179 123.317 140.905 123.502 140.601 123.619C140.311 123.73 140.004 123.787 139.694 123.786C139.253 123.786 138.819 123.671 138.436 123.454C138.306 123.766 138.126 124.055 137.904 124.31C137.434 124.863 136.773 125.22 136.053 125.31C135.959 125.32 135.864 125.325 135.77 125.325C135.041 125.315 134.341 125.038 133.802 124.547C133.538 124.311 133.316 124.032 133.147 123.722C133.016 123.835 132.88 123.941 132.739 124.041C132.301 124.349 131.807 124.57 131.285 124.691C131.038 124.745 130.787 124.773 130.535 124.773C130.1 124.774 129.67 124.691 129.267 124.529C128.852 124.363 128.481 124.103 128.186 123.768C127.778 123.29 127.554 122.682 127.556 122.054C127.544 121.463 127.759 120.891 128.156 120.454C128.467 120.145 128.857 119.928 129.284 119.826C129.733 119.71 130.196 119.654 130.66 119.661C131.229 119.663 131.797 119.724 132.354 119.844C132.715 119.919 133.071 120.019 133.419 120.144C133.423 119.885 133.488 119.631 133.608 119.402C133.731 119.173 133.905 118.976 134.116 118.826C134.533 118.541 135.03 118.395 135.535 118.407C136.05 118.409 136.556 118.534 137.013 118.773M124.352 107.365C124.352 107.427 124.363 107.489 124.363 107.552C124.362 107.713 124.351 107.874 124.331 108.034C124.601 107.978 124.876 107.949 125.152 107.949C125.923 107.963 126.682 108.152 127.371 108.5C128.081 108.843 128.698 109.353 129.171 109.985C129.44 110.342 129.66 110.735 129.825 111.151C129.956 111.068 130.092 110.994 130.234 110.931C130.697 110.732 131.196 110.629 131.7 110.631C132.083 110.629 132.464 110.689 132.829 110.807C133.368 110.996 133.836 111.346 134.171 111.81C134.505 112.273 134.69 112.828 134.7 113.4C134.701 113.714 134.637 114.026 134.512 114.315C134.328 114.731 134.017 115.079 133.624 115.309C133.268 115.515 132.865 115.628 132.454 115.637C132.48 115.774 132.494 115.913 132.495 116.053C132.495 116.369 132.424 116.682 132.288 116.968C132.152 117.254 131.954 117.506 131.709 117.706C131.142 118.145 130.438 118.371 129.722 118.346H129.656C129.02 118.327 128.396 118.176 127.822 117.904C127.457 117.735 127.106 117.538 126.771 117.316C126.671 117.409 126.563 117.503 126.436 117.601C126.002 117.933 125.525 118.206 125.019 118.411C124.654 118.561 124.264 118.643 123.869 118.653C123.504 118.66 123.146 118.555 122.843 118.353C122.785 118.31 122.729 118.264 122.677 118.215C122.632 118.285 122.584 118.354 122.534 118.42C122.115 118.985 121.496 119.371 120.804 119.498C120.654 119.524 120.502 119.537 120.35 119.537C119.679 119.529 119.03 119.294 118.51 118.87C118.306 118.706 118.124 118.516 117.969 118.305C117.551 118.788 117.034 119.177 116.454 119.445C115.874 119.713 115.243 119.854 114.604 119.859C114.006 119.859 113.415 119.726 112.876 119.467C112.337 119.209 111.863 118.833 111.489 118.367C111.147 117.943 110.864 117.475 110.649 116.975C110.409 117.14 110.154 117.284 109.889 117.404C109.355 117.649 108.776 117.779 108.189 117.784C107.535 117.786 106.894 117.606 106.337 117.264C105.779 116.914 105.327 116.419 105.031 115.832L88.1587 123.217C88.4957 123.538 88.7838 123.907 89.0137 124.312C89.4365 125.055 89.6603 125.895 89.6637 126.751C89.6637 126.785 89.6637 126.819 89.6637 126.851C89.7867 126.796 89.9107 126.743 90.0377 126.699C90.6593 126.492 91.3109 126.391 91.9657 126.399C92.8048 126.404 93.6379 126.539 94.4357 126.799C95.4416 127.134 96.331 127.749 96.9997 128.572C97.5193 129.206 97.8947 129.946 98.0997 130.74C98.8603 130.534 99.6447 130.428 100.433 130.427C101.117 130.421 101.799 130.513 102.457 130.702C103.273 130.946 104.018 131.385 104.628 131.981C105.251 132.581 105.68 133.354 105.859 134.201C105.902 134.424 105.924 134.652 105.924 134.88C105.921 135.659 105.681 136.42 105.238 137.061C104.974 137.446 104.633 137.773 104.238 138.021L104.244 138.032C104.401 138.335 104.482 138.672 104.481 139.014C104.482 139.238 104.448 139.462 104.381 139.676C104.25 140.061 104.038 140.413 103.76 140.71C103.506 140.981 103.221 141.223 102.912 141.43C101.564 142.344 99.973 142.832 98.3447 142.83C97.8294 142.83 97.3152 142.78 96.8097 142.68C95.2843 142.369 93.8807 141.626 92.7667 140.539C92.6671 140.951 92.5013 141.344 92.2757 141.704C91.8975 142.307 91.3657 142.799 90.7347 143.129C89.9948 143.502 89.1756 143.692 88.3467 143.682C87.4936 143.674 86.6488 143.513 85.8527 143.207C84.6429 142.706 83.5071 142.043 82.4767 141.235C82.1359 141.985 81.636 142.651 81.0117 143.189C80.1719 143.909 79.1215 144.337 78.0177 144.411C77.8977 144.419 77.7767 144.423 77.6567 144.423C76.7309 144.412 75.8209 144.182 75.0012 143.751C74.1816 143.321 73.4758 142.702 72.9417 141.946C72.2625 142.708 71.431 143.32 70.5009 143.741C69.5708 144.162 68.5628 144.384 67.5417 144.392C67.4417 144.392 67.3417 144.392 67.2467 144.385C66.1022 144.322 64.9885 143.991 63.996 143.418C63.0036 142.844 62.1603 142.045 61.5347 141.085C61.2896 141.135 61.04 141.161 60.7897 141.163C60.0117 141.164 59.2542 140.913 58.6307 140.448C57.9914 139.964 57.5208 139.292 57.2857 138.526C57.1734 138.167 57.1168 137.794 57.1177 137.419C57.119 137.161 57.1451 136.904 57.1957 136.651C45.0197 141.338 28.5137 145.194 21.2477 133.013C16.7167 125.513 19.6677 113.975 26.3477 103.239C27.7637 101.068 29.3017 98.9307 30.9197 96.8217C30.7557 96.8337 30.5917 96.8427 30.4267 96.8427C29.5979 96.853 28.7787 96.6633 28.0387 96.2897C27.4086 95.9603 26.8774 95.4691 26.4997 94.8667C26.2707 94.5074 26.1018 94.1133 25.9997 93.6997C24.8857 94.7871 23.4821 95.5307 21.9567 95.8417C21.4512 95.942 20.9371 95.9922 20.4217 95.9917C18.7935 95.9932 17.2024 95.5055 15.8547 94.5917C15.5455 94.3849 15.261 94.1433 15.0067 93.8717C14.7282 93.5754 14.5164 93.2228 14.3857 92.8377C14.318 92.6236 14.2843 92.4002 14.2857 92.1757C14.2837 91.8337 14.3647 91.4964 14.5217 91.1927L14.5287 91.1827C14.133 90.9347 13.7926 90.6079 13.5287 90.2227C13.0851 89.5815 12.8456 88.8213 12.8417 88.0417C12.8418 87.8134 12.8639 87.5857 12.9077 87.3617C13.0865 86.5154 13.5154 85.7423 14.1387 85.1427C14.748 84.5466 15.4931 84.1077 16.3097 83.8637C16.9677 83.6753 17.6494 83.5827 18.3337 83.5887C19.1215 83.5899 19.9056 83.6951 20.6657 83.9017C20.8739 83.1072 21.2523 82.3674 21.7747 81.7337C22.4432 80.9102 23.3327 80.2945 24.3387 79.9587C25.1364 79.6982 25.9697 79.5633 26.8087 79.5587C27.4636 79.551 28.1152 79.6524 28.7367 79.8587C28.8637 79.9027 28.9877 79.9587 29.1107 80.0107C29.1107 79.9777 29.1107 79.9437 29.1107 79.9107C29.1148 79.0553 29.339 78.2153 29.7617 77.4717C30.1827 76.7163 30.8098 76.0962 31.5697 75.6837C32.2197 75.3447 32.9427 75.17 33.6757 75.1747C34.4416 75.1756 35.197 75.3525 35.8837 75.6917C36.0519 75.7753 36.2152 75.8684 36.3727 75.9707C36.3693 74.5691 36.8182 73.2038 37.6527 72.0777C38.1725 71.398 38.8378 70.8431 39.5997 70.4537C40.3635 70.0597 41.2094 69.8514 42.0687 69.8457C42.7195 69.8446 43.3636 69.9759 43.962 70.2315C44.5604 70.4872 45.1006 70.8618 45.5497 71.3327C46.1139 71.9056 46.5192 72.6156 46.7257 73.3927C47.0027 73.3501 47.2825 73.3287 47.5627 73.3287C48.3003 73.3344 49.0311 73.4698 49.7217 73.7287L54.5217 60.2697L65.2027 60.1327L63.4507 78.8927L70.2437 60.1997L80.3137 60.2337L66.8767 97.7097C67.3979 97.482 67.96 97.3633 68.5287 97.3607C68.6862 97.3605 68.8434 97.3699 68.9997 97.3887C69.0657 97.3977 69.1297 97.4117 69.1947 97.4237L82.4997 60.2937L92.3167 60.3387L77.0287 103.033L74.7047 103.013C74.7427 103.077 74.7847 103.14 74.8197 103.206C75.0502 103.654 75.1708 104.151 75.1717 104.656C75.1734 104.985 75.1172 105.312 75.0057 105.622C74.8904 105.945 74.7066 106.239 74.4667 106.485C74.2602 106.687 74.0159 106.846 73.7477 106.954C73.4795 107.062 73.1927 107.116 72.9037 107.113C72.5592 107.115 72.2191 107.035 71.9117 106.88C71.8887 106.868 71.8677 106.852 71.8457 106.84C71.4939 107.379 71.0149 107.824 70.4507 108.134C69.8866 108.445 69.2547 108.612 68.6107 108.621C68.4021 108.621 68.1939 108.602 67.9887 108.565C67.1304 108.395 66.3592 107.929 65.8097 107.248C65.7377 107.161 65.6707 107.071 65.6097 106.978C65.5567 107.046 65.5007 107.112 65.4417 107.178C64.9702 107.698 64.3351 108.041 63.6417 108.151C63.4762 108.175 63.3091 108.187 63.1417 108.187C62.4551 108.177 61.7822 107.993 61.1857 107.653C60.8619 107.473 60.5579 107.259 60.2787 107.016C59.9973 107.449 59.6212 107.813 59.1787 108.081C58.4839 108.496 57.6884 108.714 56.8787 108.709C56.1758 108.716 55.4826 108.544 54.8647 108.209C54.2224 107.852 53.7234 107.283 53.4527 106.6C53.31 106.236 53.2381 105.848 53.2407 105.458C53.2446 104.861 53.3906 104.273 53.6667 103.744C53.9377 103.208 54.3429 102.752 54.8427 102.421C54.9416 102.359 55.0469 102.309 55.1567 102.27L55.5377 96.0697C55.3537 96.2097 55.1647 96.3437 54.9677 96.4697C53.9301 97.1204 52.743 97.4939 51.5197 97.5547C51.4197 97.5547 51.3197 97.5607 51.2197 97.5607C51.1197 97.5607 51.0047 97.5557 50.8967 97.5507L48.9997 102.823L39.3327 102.854L41.2137 97.5817C41.1797 97.5817 41.1467 97.5817 41.1137 97.5817C40.9937 97.5817 40.8727 97.5817 40.7527 97.5697C39.649 97.4963 38.5986 97.0676 37.7587 96.3477C37.346 95.9941 36.9872 95.5821 36.6937 95.1247C34.7537 101.803 34.4937 109.674 40.9627 114.652C45.3377 118.071 52.9437 118.483 62.3627 115.852L108.684 103.106L95.5837 103.022L95.6117 84.6587L89.1447 102.871L79.2367 102.949L94.5447 60.3887L101.073 60.3537C101.076 59.4065 101.424 58.493 102.053 57.7847C102.426 57.3899 102.877 57.0766 103.377 56.8644C103.877 56.6522 104.416 56.5457 104.959 56.5517C105.332 56.5515 105.704 56.6034 106.064 56.7057C106.052 56.5397 106.044 56.3727 106.044 56.2057C106.058 55.122 106.287 54.0519 106.716 53.0566C107.145 52.0613 107.766 51.1605 108.544 50.4057C109.303 49.6545 110.176 49.0276 111.131 48.5477C112.078 48.0681 113.123 47.8122 114.185 47.7997C114.492 47.8006 114.798 47.8254 115.102 47.8737C115.317 47.0409 115.748 46.2796 116.352 45.6667C116.825 45.1695 117.395 44.7742 118.026 44.5047C118.658 44.2353 119.337 44.0975 120.024 44.0997C120.932 44.1056 121.826 44.3255 122.633 44.7417C123.442 45.1525 124.149 45.7392 124.703 46.4587C125.598 47.667 126.074 49.1348 126.059 50.6387V50.6477C126.242 50.5234 126.433 50.4115 126.631 50.3127C127.356 49.9551 128.154 49.7683 128.963 49.7667C129.736 49.7617 130.499 49.9461 131.185 50.3037C131.986 50.7386 132.648 51.3928 133.092 52.1897C133.538 52.9751 133.775 53.8623 133.779 54.7657C133.779 54.8207 133.779 54.8747 133.772 54.9297C133.919 54.8617 134.072 54.7997 134.222 54.7467C134.878 54.528 135.567 54.4202 136.259 54.4277C137.147 54.4323 138.03 54.575 138.875 54.8507C139.938 55.2054 140.877 55.8558 141.584 56.7257C142.144 57.4054 142.547 58.2003 142.764 59.0537C143.581 58.8282 144.424 58.7132 145.272 58.7117C145.996 58.7054 146.717 58.8034 147.413 59.0027C148.275 59.2599 149.062 59.7233 149.705 60.3527C150.364 60.985 150.817 61.8011 151.005 62.6947C151.051 62.9302 151.074 63.1696 151.074 63.4097C151.07 64.2317 150.818 65.0336 150.351 65.7097C150.065 66.1261 149.694 66.4772 149.263 66.7397C149.271 66.7537 149.281 66.7667 149.288 66.7797C149.452 67.097 149.537 67.4494 149.535 67.8067C149.535 68.0416 149.499 68.2751 149.427 68.4987C149.29 68.9033 149.068 69.2737 148.775 69.5847C148.505 69.8723 148.203 70.1276 147.875 70.3457C146.449 71.3136 144.764 71.8306 143.041 71.8297C142.495 71.8302 141.95 71.777 141.415 71.6707C139.778 71.3373 138.274 70.5335 137.088 69.3577C136.985 69.8157 136.805 70.2527 136.555 70.6497C136.156 71.2848 135.596 71.8025 134.932 72.1497C134.15 72.544 133.284 72.7443 132.409 72.7337C131.506 72.7269 130.613 72.5575 129.771 72.2337C128.473 71.696 127.255 70.983 126.151 70.1147C125.801 70.8982 125.287 71.5979 124.645 72.1667L122.953 76.8557L131.621 76.8777L128.987 84.5207L120.206 84.4207L116.706 94.6387L127.206 94.4847L125.906 98.5207L174.78 85.2787L124.352 107.365Z" fill="#D0CFCD"/>
<path d="M46.4115 74.6604C46.3287 74.6822 46.2422 74.6858 46.1579 74.6709C46.0736 74.656 45.9935 74.623 45.9232 74.5741C45.8529 74.5252 45.7941 74.4617 45.7508 74.3878C45.7075 74.3139 45.6808 74.2316 45.6725 74.1464C45.5859 73.393 45.2456 72.6916 44.7075 72.1574C44.3689 71.7991 43.9605 71.514 43.5075 71.3197C43.0545 71.1253 42.5664 71.0258 42.0735 71.0274C41.4005 71.0336 40.7385 71.1976 40.1405 71.5064C39.5321 71.8145 39.0004 72.2549 38.5845 72.7954C37.8948 73.7321 37.5297 74.8682 37.5445 76.0314C37.5442 76.4855 37.5966 76.9382 37.7005 77.3804C37.7312 77.5144 37.7143 77.655 37.6525 77.7779C37.5907 77.9007 37.4881 77.9982 37.3621 78.0535C37.2362 78.1089 37.095 78.1185 36.9627 78.0809C36.8304 78.0433 36.7154 77.9607 36.6375 77.8474C36.311 77.3762 35.8684 76.9973 35.3525 76.7474C34.8287 76.4872 34.2523 76.3504 33.6675 76.3474C33.1275 76.3425 32.5946 76.4702 32.1155 76.7194C31.5539 77.0261 31.0912 77.4864 30.7815 78.0464C30.4588 78.6121 30.2867 79.2511 30.2815 79.9024C30.2779 80.312 30.3522 80.7185 30.5005 81.1004C30.5514 81.2284 30.5559 81.3703 30.5132 81.5014C30.4705 81.6324 30.3832 81.7444 30.2665 81.8178C30.1499 81.8912 30.0112 81.9215 29.8745 81.9033C29.7379 81.8851 29.6119 81.8197 29.5185 81.7184C29.1939 81.3782 28.7903 81.1237 28.3435 80.9774C27.8464 80.814 27.3257 80.7339 26.8025 80.7404C26.0891 80.7457 25.3809 80.8607 24.7025 81.0814C23.9129 81.352 23.2142 81.8369 22.6844 82.4818C22.1547 83.1267 21.8147 83.9063 21.7025 84.7334C21.6919 84.8219 21.6615 84.9069 21.6134 84.982C21.5653 85.0571 21.5008 85.1204 21.4249 85.167C21.3489 85.2137 21.2633 85.2425 21.1746 85.2514C21.0858 85.2603 20.9962 85.249 20.9125 85.2184C20.0837 84.9212 19.2099 84.7693 18.3295 84.7694C17.7596 84.7639 17.1918 84.84 16.6435 84.9954C16.012 85.1837 15.4358 85.5228 14.9645 85.9834C14.5105 86.4169 14.197 86.9767 14.0645 87.5904C14.036 87.739 14.0216 87.89 14.0215 88.0414C14.0256 88.5799 14.191 89.1048 14.4965 89.5484C14.7733 89.9697 15.196 90.2738 15.6835 90.4024C15.8027 90.4303 15.9102 90.4947 15.9912 90.5865C16.0722 90.6783 16.1226 90.7931 16.1355 90.9148C16.1483 91.0366 16.123 91.1593 16.063 91.266C16.0029 91.3727 15.9112 91.4581 15.8005 91.5104C15.701 91.5609 15.6209 91.6428 15.5725 91.7434C15.5051 91.8773 15.4708 92.0254 15.4725 92.1754C15.4719 92.2771 15.4871 92.3783 15.5175 92.4754C15.5971 92.6992 15.7232 92.9037 15.8875 93.0754C16.0809 93.2799 16.297 93.4617 16.5315 93.6174C17.6825 94.3973 19.0411 94.8136 20.4315 94.8124C20.8696 94.8127 21.3067 94.7701 21.7365 94.6854C22.6296 94.5024 23.4779 94.1452 24.2328 93.6342C24.9878 93.1232 25.6347 92.4685 26.1365 91.7074C26.2148 91.5886 26.3334 91.502 26.4704 91.4636C26.6075 91.4252 26.7537 91.4375 26.8824 91.4983C27.0111 91.5592 27.1135 91.6643 27.1708 91.7946C27.2281 91.9248 27.2365 92.0714 27.1945 92.2074C27.1267 92.4225 27.093 92.6468 27.0945 92.8724C27.1007 93.3571 27.2428 93.8303 27.5045 94.2384C27.7708 94.6632 28.1448 95.0099 28.5885 95.2434C29.1608 95.5296 29.7937 95.6737 30.4335 95.6634C30.964 95.6587 31.4914 95.5806 32.0005 95.4314C35.0165 91.6004 38.2755 87.8704 41.5515 84.2004C39.7761 87.1394 38.3176 90.2585 37.2005 93.5054C37.4632 94.2586 37.9183 94.9301 38.5205 95.4534C39.1673 96.0096 39.9773 96.3405 40.8285 96.3964C40.9215 96.4024 41.0155 96.4054 41.1085 96.4054C41.2874 96.4044 41.4661 96.3923 41.6435 96.3694L49.3245 74.8374C48.761 74.6254 48.1645 74.5143 47.5625 74.5094C47.1723 74.5096 46.7837 74.5604 46.4065 74.6604" fill="white"/>
<path d="M55.6412 94.3803L56.3562 82.7443C56.3172 82.7443 56.2792 82.7393 56.2402 82.7393H56.2342L51.3242 96.3723H51.4672C52.488 96.3203 53.4785 96.0077 54.3442 95.4643C54.8252 95.1658 55.2627 94.8024 55.6442 94.3843" fill="white"/>
<path d="M129.72 117.162C130.161 117.187 130.597 117.057 130.953 116.795C131.066 116.706 131.157 116.593 131.219 116.464C131.281 116.335 131.314 116.193 131.313 116.05C131.289 115.643 131.107 115.261 130.805 114.987C130.78 114.959 130.757 114.93 130.736 114.899C130.695 114.835 130.666 114.763 130.652 114.688C130.637 114.611 130.637 114.533 130.652 114.457C130.668 114.382 130.699 114.311 130.742 114.248C130.786 114.183 130.843 114.128 130.909 114.087C130.973 114.044 131.044 114.015 131.119 114C131.196 113.985 131.274 113.985 131.35 114C131.424 114.016 131.495 114.046 131.557 114.09C131.588 114.111 131.618 114.136 131.644 114.163C131.742 114.259 131.858 114.334 131.986 114.384C132.113 114.434 132.249 114.458 132.386 114.455C132.606 114.455 132.823 114.397 133.013 114.287C133.193 114.184 133.336 114.027 133.419 113.838C133.48 113.698 133.511 113.547 133.509 113.395C133.497 113.073 133.39 112.761 133.201 112.5C133.012 112.239 132.75 112.04 132.447 111.929C132.201 111.851 131.944 111.811 131.686 111.812C131.345 111.811 131.007 111.879 130.692 112.012C130.41 112.128 130.165 112.319 129.982 112.563C129.914 112.657 129.819 112.729 129.71 112.77C129.601 112.811 129.483 112.819 129.369 112.793C129.256 112.766 129.152 112.707 129.073 112.622C128.993 112.537 128.94 112.431 128.92 112.316C128.815 111.727 128.573 111.171 128.213 110.692C127.853 110.214 127.386 109.827 126.849 109.563C126.32 109.291 125.736 109.143 125.141 109.128C124.632 109.129 124.132 109.263 123.69 109.517C123.578 109.58 123.449 109.604 123.322 109.587C123.195 109.569 123.077 109.511 122.986 109.421C122.895 109.33 122.836 109.213 122.818 109.086C122.799 108.959 122.823 108.829 122.885 108.717C123.025 108.459 123.114 108.177 123.149 107.886L106.115 115.352C106.311 115.719 106.599 116.029 106.951 116.252C107.322 116.48 107.75 116.6 108.185 116.597C108.606 116.592 109.021 116.498 109.403 116.321C109.805 116.138 110.172 115.885 110.485 115.575C110.556 115.504 110.644 115.453 110.741 115.426C110.837 115.399 110.939 115.397 111.036 115.42C111.134 115.443 111.224 115.49 111.298 115.558C111.372 115.625 111.428 115.71 111.46 115.805C111.662 116.456 111.98 117.066 112.398 117.605C112.661 117.936 112.996 118.204 113.377 118.388C113.757 118.572 114.175 118.668 114.598 118.668C115.211 118.662 115.81 118.486 116.328 118.159C116.846 117.843 117.258 117.382 117.513 116.832C117.565 116.717 117.652 116.622 117.761 116.56C117.871 116.498 117.997 116.472 118.122 116.487C118.247 116.502 118.364 116.557 118.456 116.643C118.548 116.729 118.61 116.842 118.633 116.966C118.715 117.353 118.931 117.698 119.244 117.94C119.555 118.195 119.942 118.338 120.344 118.346C120.428 118.346 120.512 118.339 120.594 118.325C120.993 118.249 121.348 118.025 121.587 117.697C121.842 117.358 121.981 116.946 121.982 116.522C121.982 116.491 121.982 116.459 121.982 116.422C121.982 116.418 121.982 116.414 121.982 116.411C121.981 116.375 121.983 116.339 121.988 116.304C121.99 116.292 121.993 116.279 121.997 116.268C122.002 116.242 122.008 116.217 122.016 116.192C122.022 116.176 122.03 116.163 122.037 116.148C122.046 116.128 122.055 116.108 122.065 116.089C122.105 116.023 122.157 115.966 122.218 115.92C122.237 115.906 122.257 115.894 122.277 115.884C122.29 115.876 122.302 115.867 122.316 115.86C122.33 115.853 122.367 115.841 122.393 115.832L122.424 115.821C122.501 115.801 122.582 115.797 122.66 115.809L122.692 115.817C122.719 115.822 122.746 115.829 122.772 115.837C122.787 115.843 122.8 115.851 122.814 115.857C122.907 115.895 122.986 115.958 123.044 116.04C123.057 116.057 123.069 116.076 123.079 116.096C123.087 116.11 123.097 116.122 123.104 116.137C123.115 116.16 123.123 116.185 123.13 116.21C123.13 116.222 123.14 116.233 123.143 116.246C123.151 116.279 123.156 116.312 123.158 116.346V116.363C123.158 116.644 123.221 116.921 123.342 117.175C123.395 117.284 123.486 117.369 123.598 117.414C123.683 117.445 123.772 117.459 123.862 117.457C124.161 117.441 124.454 117.366 124.724 117.237C125.039 117.096 125.337 116.923 125.615 116.72C125.757 116.62 125.89 116.51 126.015 116.391L126.043 116.361C126.052 116.32 126.065 116.281 126.082 116.243C126.098 116.208 126.118 116.174 126.14 116.143C126.163 116.111 126.189 116.082 126.217 116.056C126.303 115.976 126.41 115.924 126.525 115.905C126.64 115.886 126.758 115.902 126.864 115.95C126.892 115.963 126.919 115.978 126.944 115.996C126.951 116.001 126.958 116.003 126.964 116.008C127.384 116.32 127.834 116.59 128.306 116.815C128.733 117.02 129.197 117.134 129.67 117.152L129.72 117.162Z" fill="white"/>
<path d="M149.844 62.9223C149.702 62.2617 149.364 61.6592 148.874 61.1933C148.369 60.6994 147.751 60.3356 147.074 60.1333C146.489 59.9672 145.883 59.8857 145.274 59.8913C144.334 59.8922 143.4 60.0546 142.515 60.3713C142.431 60.402 142.342 60.4133 142.253 60.4044C142.164 60.3955 142.079 60.3666 142.003 60.32C141.927 60.2733 141.862 60.2101 141.814 60.135C141.766 60.0599 141.736 59.9749 141.725 59.8863C141.605 59.0003 141.24 58.1652 140.673 57.4741C140.106 56.7831 139.358 56.2631 138.512 55.9723C137.785 55.7355 137.026 55.6124 136.262 55.6073C135.701 55.6002 135.144 55.686 134.611 55.8613C134.13 56.0192 133.695 56.2941 133.346 56.6613C133.252 56.7617 133.126 56.8262 132.99 56.8437C132.854 56.8613 132.716 56.8308 132.599 56.7575C132.483 56.6843 132.396 56.5728 132.353 56.4422C132.31 56.3117 132.314 56.1703 132.364 56.0423C132.523 55.6356 132.603 55.2028 132.601 54.7663C132.597 54.0672 132.413 53.381 132.067 52.7733C131.735 52.1715 131.237 51.6769 130.634 51.3473C130.119 51.08 129.546 50.9427 128.966 50.9473C128.339 50.948 127.72 51.0927 127.157 51.3703C126.603 51.6378 126.128 52.0435 125.777 52.5483C125.699 52.6619 125.584 52.7446 125.452 52.7823C125.319 52.82 125.178 52.8103 125.052 52.7548C124.926 52.6993 124.823 52.6016 124.761 52.4784C124.7 52.3553 124.683 52.2144 124.714 52.0803C124.825 51.6077 124.881 51.1238 124.881 50.6383C124.897 49.3933 124.506 48.1771 123.768 47.1743C123.322 46.5953 122.752 46.1235 122.1 45.7933C121.459 45.4616 120.749 45.2856 120.028 45.2793C119.798 45.2789 119.568 45.2986 119.341 45.3383C118.525 45.4906 117.776 45.8936 117.199 46.4913C116.622 47.0662 116.256 47.8199 116.163 48.6293C116.155 48.7146 116.128 48.7971 116.085 48.871C116.042 48.9449 115.983 49.0086 115.913 49.0575C115.842 49.1064 115.762 49.1394 115.678 49.1542C115.593 49.1691 115.507 49.1653 115.424 49.1433C115.02 49.0362 114.604 48.982 114.186 48.9823C113.305 48.9948 112.438 49.2093 111.652 49.6093C110.81 50.034 110.04 50.5888 109.37 51.2533C108.029 52.5561 107.259 54.3377 107.229 56.2073C107.228 56.6635 107.281 57.1182 107.385 57.5623C107.413 57.6786 107.404 57.8005 107.361 57.912C107.318 58.0235 107.242 58.1192 107.143 58.1866C107.045 58.2539 106.928 58.2896 106.808 58.2891C106.689 58.2885 106.572 58.2516 106.474 58.1833C106.027 57.8833 105.5 57.726 104.962 57.7323C104.583 57.7272 104.207 57.7999 103.857 57.946C103.507 58.092 103.191 58.3082 102.928 58.5813C102.5 59.0707 102.263 59.6974 102.258 60.3473L104.364 60.3363L101.373 68.2003C101.43 68.2513 101.485 68.3003 101.545 68.3513C101.92 68.6301 102.363 68.8028 102.827 68.8513L109.735 60.4233L137.421 60.4853L134.608 68.4023L126.018 68.3573L125.936 68.5843C126.044 68.5923 126.148 68.6308 126.236 68.6953C127.436 69.6837 128.768 70.4999 130.193 71.1203C130.902 71.3939 131.654 71.5385 132.413 71.5473C133.099 71.5579 133.778 71.4029 134.392 71.0953C134.871 70.8448 135.274 70.4713 135.56 70.0133C135.84 69.5747 135.993 69.0667 136 68.5463C136 68.3028 135.963 68.0606 135.89 67.8283C135.847 67.6922 135.855 67.5451 135.912 67.4143C135.969 67.2834 136.071 67.1777 136.2 67.1166C136.329 67.0556 136.476 67.0434 136.613 67.0823C136.751 67.1213 136.869 67.2086 136.947 67.3283C137.483 68.1415 138.174 68.8411 138.98 69.3873C139.787 69.9334 140.693 70.3154 141.647 70.5113C142.108 70.6025 142.577 70.648 143.047 70.6473C144.532 70.6479 145.984 70.2031 147.214 69.3703C147.466 69.2029 147.698 69.0073 147.905 68.7873C148.084 68.6003 148.22 68.3769 148.305 68.1323C148.339 68.0267 148.356 67.9163 148.356 67.8053C148.357 67.6401 148.319 67.4769 148.245 67.3293C148.19 67.2149 148.098 67.1218 147.985 67.0643C147.874 67.0122 147.782 66.927 147.722 66.8204C147.662 66.7139 147.637 66.5912 147.649 66.4695C147.662 66.3478 147.712 66.233 147.793 66.141C147.874 66.0491 147.981 65.9845 148.1 65.9563C148.627 65.8176 149.084 65.4893 149.383 65.0343C149.713 64.5561 149.891 63.99 149.895 63.4093C149.895 63.2462 149.879 63.0834 149.848 62.9233" fill="white"/>
<path d="M113.301 71.5422C114.229 71.0547 115.024 70.3462 115.614 69.4792C115.687 69.3738 115.792 69.2952 115.914 69.2552L118.773 61.2832L118.067 62.0122L109.676 72.2722C109.796 72.2852 109.915 72.2952 110.035 72.3002C110.121 72.3002 110.208 72.3062 110.295 72.3062C111.344 72.2997 112.376 72.0374 113.302 71.5422" fill="white"/>
<path d="M103.801 132.822C103.329 132.362 102.754 132.023 102.123 131.834C101.574 131.679 101.006 131.603 100.436 131.608C99.5557 131.609 98.6823 131.761 97.8537 132.057C97.7699 132.088 97.6803 132.099 97.5915 132.091C97.5027 132.082 97.417 132.053 97.341 132.006C97.2649 131.96 97.2005 131.896 97.1524 131.821C97.1044 131.746 97.074 131.661 97.0637 131.572C96.9513 130.745 96.6112 129.966 96.0815 129.321C95.5517 128.676 94.8531 128.192 94.0637 127.921C93.3834 127.7 92.6731 127.584 91.9577 127.579C91.4344 127.573 90.9138 127.653 90.4167 127.816C89.9696 127.962 89.5659 128.217 89.2417 128.558C89.1478 128.658 89.0219 128.723 88.8856 128.74C88.7493 128.758 88.6112 128.728 88.4949 128.654C88.3787 128.581 88.2916 128.469 88.2487 128.339C88.2057 128.208 88.2096 128.067 88.2597 127.939C88.4071 127.561 88.4817 127.158 88.4797 126.752C88.4754 126.1 88.3032 125.461 87.9797 124.895C87.67 124.335 87.2073 123.875 86.6457 123.568C86.1682 123.322 85.6379 123.195 85.1007 123.2C84.5163 123.201 83.9398 123.336 83.4157 123.594C82.9 123.844 82.4577 124.223 82.1317 124.694C82.0537 124.808 81.9386 124.89 81.8062 124.928C81.6737 124.966 81.5323 124.956 81.4062 124.901C81.2802 124.845 81.1775 124.747 81.1158 124.624C81.0542 124.501 81.0375 124.36 81.0687 124.226C81.1722 123.784 81.2245 123.332 81.2247 122.878C81.2391 121.715 80.874 120.579 80.1847 119.642C79.7685 119.102 79.2369 118.661 78.6287 118.353C78.031 118.043 77.3687 117.879 76.6957 117.874C76.4815 117.874 76.2678 117.892 76.0567 117.928C75.2943 118.069 74.5951 118.445 74.0567 119.003C73.519 119.538 73.179 120.24 73.0927 120.993C73.0842 121.078 73.0574 121.16 73.014 121.234C72.9707 121.308 72.9118 121.371 72.8416 121.42C72.7713 121.469 72.6913 121.502 72.6071 121.517C72.5228 121.531 72.4364 121.528 72.3537 121.506C71.9764 121.407 71.5878 121.356 71.1977 121.356C70.3738 121.368 69.5636 121.568 68.8297 121.943C68.0442 122.339 67.3258 122.855 66.7007 123.474C65.4471 124.693 64.7279 126.36 64.7007 128.108C64.6997 128.535 64.7487 128.96 64.8467 129.375C64.874 129.491 64.8655 129.613 64.8221 129.725C64.7788 129.836 64.7028 129.932 64.604 129.999C64.5052 130.066 64.3884 130.102 64.2689 130.101C64.1494 130.101 64.0329 130.064 63.9347 129.996C63.5211 129.718 63.0329 129.572 62.5347 129.578C62.1831 129.573 61.8343 129.64 61.5097 129.776C61.1852 129.911 60.8918 130.111 60.6477 130.364C60.2372 130.834 60.015 131.44 60.0237 132.064C60.0155 132.648 60.2118 133.217 60.5787 133.672C60.6416 133.747 60.685 133.836 60.7049 133.932C60.7248 134.028 60.7205 134.127 60.6926 134.221C60.6646 134.314 60.6138 134.4 60.5447 134.469C60.4756 134.538 60.3903 134.589 60.2967 134.617C59.7158 134.805 59.2143 135.182 58.8717 135.687C58.5116 136.194 58.3145 136.799 58.3067 137.421C58.3057 137.676 58.3441 137.929 58.4207 138.172C58.5809 138.702 58.9046 139.169 59.3457 139.504C59.7651 139.817 60.2751 139.986 60.7987 139.984C61.0846 139.983 61.3685 139.937 61.6397 139.846C61.7702 139.803 61.9118 139.807 62.0397 139.857C62.1676 139.908 62.2738 140.001 62.3397 140.122C62.8427 141.011 63.5609 141.759 64.4284 142.299C65.2959 142.838 66.2849 143.15 67.3047 143.208C67.3867 143.208 67.4677 143.208 67.5487 143.208C68.5291 143.2 69.4931 142.955 70.359 142.495C71.2248 142.035 71.967 141.373 72.5227 140.565C72.5809 140.478 72.6611 140.408 72.7553 140.363C72.8494 140.317 72.9539 140.297 73.0582 140.305C73.1625 140.313 73.2628 140.349 73.3488 140.408C73.4348 140.468 73.5035 140.549 73.5477 140.644C73.9201 141.417 74.5053 142.068 75.2347 142.52C75.9598 142.982 76.7999 143.231 77.6597 143.24C77.7527 143.24 77.8467 143.24 77.9397 143.23C78.791 143.174 79.6012 142.844 80.2487 142.288C80.9113 141.713 81.3968 140.962 81.6487 140.122C81.6762 140.031 81.7251 139.949 81.7913 139.881C81.8576 139.814 81.9391 139.763 82.0291 139.733C82.1191 139.704 82.2148 139.697 82.3082 139.712C82.4016 139.728 82.4899 139.765 82.5657 139.822C83.6915 140.749 84.9408 141.515 86.2777 142.098C86.9403 142.354 87.6433 142.49 88.3537 142.498C88.9935 142.508 89.6264 142.363 90.1987 142.077C90.642 141.845 91.016 141.5 91.2827 141.077C91.5451 140.669 91.6872 140.196 91.6927 139.711C91.6937 139.486 91.6599 139.262 91.5927 139.047C91.5506 138.911 91.559 138.765 91.6163 138.634C91.6737 138.504 91.7761 138.399 91.9047 138.338C92.0334 138.277 92.1797 138.265 92.3167 138.303C92.4537 138.342 92.5723 138.428 92.6507 138.547C93.1524 139.308 93.7993 139.963 94.5543 140.474C95.3093 140.984 96.1576 141.341 97.0507 141.524C97.4804 141.61 97.9175 141.653 98.3557 141.652C99.7459 141.653 101.104 141.237 102.256 140.457C102.49 140.301 102.706 140.119 102.9 139.914C103.065 139.743 103.191 139.538 103.27 139.314C103.346 139.073 103.327 138.813 103.216 138.586C103.167 138.485 103.086 138.403 102.987 138.353C102.876 138.301 102.784 138.215 102.724 138.109C102.664 138.002 102.639 137.88 102.651 137.758C102.664 137.636 102.714 137.521 102.795 137.429C102.875 137.337 102.983 137.273 103.102 137.244C103.589 137.116 104.011 136.812 104.288 136.391C104.593 135.947 104.759 135.422 104.763 134.883C104.763 134.732 104.749 134.581 104.72 134.433C104.588 133.819 104.274 133.258 103.82 132.825" fill="white"/>
<path d="M59.531 105.841C59.5599 105.738 59.6161 105.645 59.6938 105.571C59.7714 105.498 59.8675 105.447 59.9719 105.424C60.0763 105.4 60.185 105.406 60.2864 105.44C60.3879 105.473 60.4783 105.534 60.548 105.615C60.8898 106.018 61.3005 106.356 61.761 106.615C62.1837 106.858 62.6607 106.99 63.148 107C63.2571 107 63.3661 106.992 63.474 106.976C63.8978 106.905 64.2853 106.694 64.574 106.376C64.7844 106.155 64.9334 105.883 65.006 105.586C64.9558 105.35 64.9297 105.109 64.928 104.867C64.928 104.808 64.928 104.748 64.933 104.689C64.9397 104.553 64.9931 104.424 65.0842 104.323C65.1753 104.222 65.2985 104.155 65.433 104.135C65.5675 104.114 65.705 104.141 65.8222 104.21C65.9394 104.279 66.029 104.386 66.076 104.514C66.1713 104.77 66.2198 105.041 66.219 105.314C66.219 105.388 66.213 105.46 66.207 105.532C66.3122 105.887 66.488 106.217 66.724 106.502C67.0971 106.963 67.6188 107.281 68.2 107.4C68.3346 107.425 68.4712 107.437 68.608 107.437C69.1578 107.431 69.6923 107.256 70.14 106.937C70.5888 106.63 70.926 106.185 71.101 105.67C71.1365 105.559 71.2041 105.461 71.2952 105.388C71.3864 105.315 71.4971 105.271 71.6133 105.261C71.7295 105.252 71.846 105.276 71.9482 105.333C72.0503 105.389 72.1334 105.474 72.187 105.578C72.2456 105.688 72.3377 105.777 72.45 105.831C72.5904 105.899 72.7449 105.934 72.901 105.931C73.1679 105.936 73.4265 105.838 73.622 105.656C73.7427 105.531 73.8351 105.381 73.893 105.217C73.9573 105.037 73.9891 104.846 73.987 104.655C73.9864 104.339 73.911 104.028 73.767 103.747C73.5591 103.376 73.2849 103.047 72.958 102.775C72.6148 102.477 72.2371 102.221 71.833 102.013C71.7381 101.965 71.658 101.892 71.6011 101.801C71.5443 101.711 71.5128 101.608 71.51 101.501C71.4696 100.781 71.1838 100.096 70.7002 99.5613C70.2166 99.0263 69.5644 98.6729 68.852 98.56C68.7439 98.5469 68.635 98.5402 68.526 98.54C67.8571 98.5502 67.209 98.7737 66.676 99.178C66.138 99.5683 65.7442 100.126 65.556 100.763C65.5298 100.858 65.48 100.946 65.4112 101.017C65.3424 101.088 65.2568 101.141 65.1622 101.17C65.0677 101.2 64.9673 101.205 64.8703 101.185C64.7733 101.165 64.6827 101.122 64.607 101.058C63.946 100.516 63.1166 100.222 62.262 100.227C61.7933 100.225 61.3288 100.317 60.896 100.497C60.2917 100.763 59.7698 101.186 59.385 101.722C59.0001 102.259 58.7663 102.888 58.708 103.546C58.708 103.558 58.708 103.568 58.702 103.579C58.6989 103.607 58.6942 103.634 58.688 103.661C58.6678 103.733 58.6339 103.801 58.588 103.861C58.564 103.891 58.5372 103.92 58.508 103.945C58.4197 104.021 58.3108 104.07 58.195 104.084C58.1565 104.088 58.1176 104.088 58.079 104.084C58.0401 104.081 58.0016 104.075 57.964 104.064C57.8516 104.033 57.751 103.969 57.675 103.881C57.6489 103.85 57.6265 103.817 57.608 103.781C57.552 103.682 57.5262 103.569 57.534 103.455V103.422C57.534 103.365 57.525 103.364 57.52 103.354C57.4967 103.325 57.4664 103.303 57.432 103.289C57.2097 103.2 56.9711 103.16 56.732 103.171C56.3593 103.173 55.9887 103.229 55.632 103.337C55.58 103.353 55.5295 103.373 55.481 103.398C55.1544 103.618 54.8902 103.919 54.714 104.271C54.5248 104.633 54.4241 105.035 54.42 105.443C54.4175 105.684 54.4606 105.923 54.547 106.148C54.72 106.58 55.0383 106.938 55.447 107.161C55.8883 107.398 56.3824 107.518 56.883 107.512C57.4731 107.516 58.0531 107.359 58.561 107.059C59.0292 106.788 59.3749 106.347 59.526 105.828" fill="white"/>
<path d="M140.4 119.71C140.194 119.627 139.976 119.581 139.754 119.575H139.7C139.399 119.581 139.105 119.668 138.849 119.828C138.594 119.988 138.388 120.215 138.252 120.484C138.205 120.581 138.134 120.664 138.044 120.723C137.954 120.782 137.85 120.815 137.743 120.82C137.635 120.824 137.529 120.799 137.434 120.747C137.34 120.695 137.262 120.619 137.208 120.526C137.034 120.227 136.779 119.984 136.472 119.826C136.185 119.676 135.866 119.596 135.542 119.594C135.336 119.59 135.131 119.63 134.942 119.712C134.821 119.762 134.719 119.85 134.653 119.963C134.615 120.037 134.596 120.119 134.599 120.201C134.603 120.339 134.633 120.474 134.687 120.601C134.776 120.815 134.893 121.017 135.034 121.201L135.045 121.219C135.063 121.245 135.079 121.273 135.093 121.301C135.125 121.371 135.144 121.446 135.147 121.523C135.151 121.601 135.139 121.678 135.112 121.751C135.086 121.825 135.045 121.893 134.993 121.951C134.967 121.98 134.938 122.006 134.907 122.029C134.78 122.121 134.623 122.16 134.468 122.137C134.43 122.132 134.392 122.123 134.356 122.109C134.282 122.083 134.214 122.043 134.156 121.991C134.132 121.969 134.11 121.944 134.091 121.918L134.079 121.904C134.008 121.816 133.925 121.738 133.832 121.673C133.691 121.574 133.542 121.487 133.386 121.415C132.979 121.229 132.552 121.089 132.114 121L132.236 120.423L132.114 121C131.637 120.899 131.151 120.846 130.664 120.843C130.306 120.838 129.949 120.879 129.602 120.966C129.385 121.013 129.184 121.116 129.021 121.266C128.83 121.483 128.728 121.764 128.737 122.053C128.736 122.396 128.856 122.728 129.076 122.991C129.25 123.187 129.469 123.339 129.713 123.435C129.974 123.54 130.253 123.593 130.535 123.591C130.701 123.591 130.867 123.573 131.029 123.537C131.402 123.45 131.755 123.291 132.068 123.069C132.4 122.835 132.697 122.556 132.95 122.238C133.024 122.146 133.123 122.079 133.235 122.044C133.348 122.009 133.468 122.008 133.581 122.043C133.694 122.077 133.794 122.144 133.868 122.235C133.942 122.326 133.987 122.438 133.998 122.555C134.049 122.987 134.26 123.383 134.589 123.666C134.912 123.963 135.331 124.133 135.77 124.144C135.822 124.144 135.874 124.141 135.926 124.135C136.351 124.078 136.739 123.864 137.015 123.535C137.305 123.212 137.471 122.796 137.481 122.362C137.481 122.301 137.477 122.24 137.47 122.179C137.45 122.03 137.488 121.879 137.575 121.757C137.663 121.635 137.794 121.551 137.941 121.522C138.089 121.493 138.242 121.522 138.369 121.602C138.496 121.682 138.588 121.808 138.626 121.953C138.681 122.148 138.81 122.314 138.986 122.415C139.2 122.543 139.445 122.61 139.694 122.607C139.857 122.609 140.019 122.58 140.171 122.521C140.307 122.47 140.429 122.388 140.529 122.282C140.89 121.896 141.096 121.391 141.108 120.862C141.112 120.617 141.051 120.376 140.931 120.162C140.809 119.959 140.624 119.8 140.404 119.71" fill="white"/>
</g>
<defs>
<clipPath id="clip0_20_1999">
<rect width="188" height="188" fill="white"/>
</clipPath>
</defs>
</svg>
