<svg width="1920" height="138" viewBox="0 0 1920 138" fill="none" xmlns="http://www.w3.org/2000/svg">
<path fill-rule="evenodd" clip-rule="evenodd" d="M273.422 137.468L273.422 0.0175781L274.422 0.0175781L274.422 137.468L273.422 137.468Z" fill="#999999" fill-opacity="0.25"/>
<path fill-rule="evenodd" clip-rule="evenodd" d="M821.848 137.468L821.848 0.0175781L822.848 0.0175781L822.848 137.468L821.848 137.468Z" fill="#999999" fill-opacity="0.25"/>
<path fill-rule="evenodd" clip-rule="evenodd" d="M1370.27 137.468L1370.27 0.0175781L1371.27 0.0175781L1371.27 137.468L1370.27 137.468Z" fill="#999999" fill-opacity="0.25"/>
<path fill-rule="evenodd" clip-rule="evenodd" d="M136.312 137.468L136.312 0.0175781L137.312 0.0175781L137.312 137.468L136.312 137.468Z" fill="#999999" fill-opacity="0.25"/>
<path fill-rule="evenodd" clip-rule="evenodd" d="M684.738 137.468L684.738 0.0175781L685.738 0.0175781L685.738 137.468L684.738 137.468Z" fill="#999999" fill-opacity="0.25"/>
<path fill-rule="evenodd" clip-rule="evenodd" d="M1233.16 137.468L1233.16 0.0175781L1234.16 0.0175781L1234.16 137.468L1233.16 137.468Z" fill="#999999" fill-opacity="0.25"/>
<path fill-rule="evenodd" clip-rule="evenodd" d="M410.525 137.468L410.525 0.0175781L411.525 0.0175781L411.525 137.468L410.525 137.468Z" fill="#999999" fill-opacity="0.25"/>
<path fill-rule="evenodd" clip-rule="evenodd" d="M958.951 137.468L958.951 0.0175781L959.951 0.0175781L959.951 137.468L958.951 137.468Z" fill="#999999" fill-opacity="0.25"/>
<path fill-rule="evenodd" clip-rule="evenodd" d="M1507.38 137.468L1507.38 0.0175781L1508.38 0.0175781L1508.38 137.468L1507.38 137.468Z" fill="#999999" fill-opacity="0.25"/>
<path fill-rule="evenodd" clip-rule="evenodd" d="M547.635 137.468L547.635 0.0175781L548.635 0.0175781L548.635 137.468L547.635 137.468Z" fill="#999999" fill-opacity="0.25"/>
<path fill-rule="evenodd" clip-rule="evenodd" d="M1096.06 137.468L1096.06 0.0175781L1097.06 0.0175781L1097.06 137.468L1096.06 137.468Z" fill="#999999" fill-opacity="0.25"/>
<path fill-rule="evenodd" clip-rule="evenodd" d="M1644.49 137.468L1644.49 0.0175781L1645.49 0.0175781L1645.49 137.468L1644.49 137.468Z" fill="#999999" fill-opacity="0.25"/>
<path fill-rule="evenodd" clip-rule="evenodd" d="M1781.59 137.468L1781.59 0.0175781L1782.59 0.0175781L1782.59 137.468L1781.59 137.468Z" fill="#999999" fill-opacity="0.25"/>
<path fill-rule="evenodd" clip-rule="evenodd" d="M1920 68.7422H0V67.7422H1920V68.7422Z" fill="#999999" fill-opacity="0.25"/>
</svg>
